G04 #@! TF.GenerationSoftware,KiCad,Pcbnew,7.0.9*
G04 #@! TF.CreationDate,2024-09-01T01:28:20+09:00*
G04 #@! TF.ProjectId,im920sltoDS4,696d3932-3073-46c7-946f-4453342e6b69,rev?*
G04 #@! TF.SameCoordinates,Original*
G04 #@! TF.FileFunction,Legend,Bot*
G04 #@! TF.FilePolarity,Positive*
%FSLAX46Y46*%
G04 Gerber Fmt 4.6, Leading zero omitted, Abs format (unit mm)*
G04 Created by KiCad (PCBNEW 7.0.9) date 2024-09-01 01:28:20*
%MOMM*%
%LPD*%
G01*
G04 APERTURE LIST*
G04 Aperture macros list*
%AMRoundRect*
0 Rectangle with rounded corners*
0 $1 Rounding radius*
0 $2 $3 $4 $5 $6 $7 $8 $9 X,Y pos of 4 corners*
0 Add a 4 corners polygon primitive as box body*
4,1,4,$2,$3,$4,$5,$6,$7,$8,$9,$2,$3,0*
0 Add four circle primitives for the rounded corners*
1,1,$1+$1,$2,$3*
1,1,$1+$1,$4,$5*
1,1,$1+$1,$6,$7*
1,1,$1+$1,$8,$9*
0 Add four rect primitives between the rounded corners*
20,1,$1+$1,$2,$3,$4,$5,0*
20,1,$1+$1,$4,$5,$6,$7,0*
20,1,$1+$1,$6,$7,$8,$9,0*
20,1,$1+$1,$8,$9,$2,$3,0*%
%AMFreePoly0*
4,1,6,1.000000,0.000000,0.500000,-0.750000,-0.500000,-0.750000,-0.500000,0.750000,0.500000,0.750000,1.000000,0.000000,1.000000,0.000000,$1*%
%AMFreePoly1*
4,1,6,0.500000,-0.750000,-0.650000,-0.750000,-0.150000,0.000000,-0.650000,0.750000,0.500000,0.750000,0.500000,-0.750000,0.500000,-0.750000,$1*%
G04 Aperture macros list end*
%ADD10C,0.153000*%
%ADD11C,0.120000*%
%ADD12RoundRect,0.237500X-0.400000X-0.237500X0.400000X-0.237500X0.400000X0.237500X-0.400000X0.237500X0*%
%ADD13C,1.000000*%
%ADD14C,5.000000*%
%ADD15R,1.000000X1.000000*%
%ADD16R,1.700000X1.700000*%
%ADD17O,1.700000X1.700000*%
%ADD18R,1.524000X1.524000*%
%ADD19C,1.524000*%
%ADD20C,3.500000*%
%ADD21O,1.800000X1.000000*%
%ADD22O,2.100000X1.000000*%
%ADD23C,0.650000*%
%ADD24C,1.998980*%
%ADD25RoundRect,0.237500X0.400000X0.237500X-0.400000X0.237500X-0.400000X-0.237500X0.400000X-0.237500X0*%
%ADD26FreePoly0,180.000000*%
%ADD27FreePoly1,180.000000*%
G04 APERTURE END LIST*
D10*
X172308333Y-116454663D02*
X172879761Y-116454663D01*
X172594047Y-116454663D02*
X172594047Y-115454663D01*
X172594047Y-115454663D02*
X172689285Y-115597520D01*
X172689285Y-115597520D02*
X172784523Y-115692758D01*
X172784523Y-115692758D02*
X172879761Y-115740377D01*
X171879761Y-116359424D02*
X171832142Y-116407044D01*
X171832142Y-116407044D02*
X171879761Y-116454663D01*
X171879761Y-116454663D02*
X171927380Y-116407044D01*
X171927380Y-116407044D02*
X171879761Y-116359424D01*
X171879761Y-116359424D02*
X171879761Y-116454663D01*
X170927381Y-115454663D02*
X171403571Y-115454663D01*
X171403571Y-115454663D02*
X171451190Y-115930853D01*
X171451190Y-115930853D02*
X171403571Y-115883234D01*
X171403571Y-115883234D02*
X171308333Y-115835615D01*
X171308333Y-115835615D02*
X171070238Y-115835615D01*
X171070238Y-115835615D02*
X170975000Y-115883234D01*
X170975000Y-115883234D02*
X170927381Y-115930853D01*
X170927381Y-115930853D02*
X170879762Y-116026091D01*
X170879762Y-116026091D02*
X170879762Y-116264186D01*
X170879762Y-116264186D02*
X170927381Y-116359424D01*
X170927381Y-116359424D02*
X170975000Y-116407044D01*
X170975000Y-116407044D02*
X171070238Y-116454663D01*
X171070238Y-116454663D02*
X171308333Y-116454663D01*
X171308333Y-116454663D02*
X171403571Y-116407044D01*
X171403571Y-116407044D02*
X171451190Y-116359424D01*
X170451190Y-116454663D02*
X170451190Y-115454663D01*
X170355952Y-116073710D02*
X170070238Y-116454663D01*
X170070238Y-115787996D02*
X170451190Y-116168948D01*
X172333333Y-118454663D02*
X172904761Y-118454663D01*
X172619047Y-118454663D02*
X172619047Y-117454663D01*
X172619047Y-117454663D02*
X172714285Y-117597520D01*
X172714285Y-117597520D02*
X172809523Y-117692758D01*
X172809523Y-117692758D02*
X172904761Y-117740377D01*
X171904761Y-118359424D02*
X171857142Y-118407044D01*
X171857142Y-118407044D02*
X171904761Y-118454663D01*
X171904761Y-118454663D02*
X171952380Y-118407044D01*
X171952380Y-118407044D02*
X171904761Y-118359424D01*
X171904761Y-118359424D02*
X171904761Y-118454663D01*
X170952381Y-117454663D02*
X171428571Y-117454663D01*
X171428571Y-117454663D02*
X171476190Y-117930853D01*
X171476190Y-117930853D02*
X171428571Y-117883234D01*
X171428571Y-117883234D02*
X171333333Y-117835615D01*
X171333333Y-117835615D02*
X171095238Y-117835615D01*
X171095238Y-117835615D02*
X171000000Y-117883234D01*
X171000000Y-117883234D02*
X170952381Y-117930853D01*
X170952381Y-117930853D02*
X170904762Y-118026091D01*
X170904762Y-118026091D02*
X170904762Y-118264186D01*
X170904762Y-118264186D02*
X170952381Y-118359424D01*
X170952381Y-118359424D02*
X171000000Y-118407044D01*
X171000000Y-118407044D02*
X171095238Y-118454663D01*
X171095238Y-118454663D02*
X171333333Y-118454663D01*
X171333333Y-118454663D02*
X171428571Y-118407044D01*
X171428571Y-118407044D02*
X171476190Y-118359424D01*
X170476190Y-118454663D02*
X170476190Y-117454663D01*
X170380952Y-118073710D02*
X170095238Y-118454663D01*
X170095238Y-117787996D02*
X170476190Y-118168948D01*
X172308333Y-120454663D02*
X172879761Y-120454663D01*
X172594047Y-120454663D02*
X172594047Y-119454663D01*
X172594047Y-119454663D02*
X172689285Y-119597520D01*
X172689285Y-119597520D02*
X172784523Y-119692758D01*
X172784523Y-119692758D02*
X172879761Y-119740377D01*
X171879761Y-120359424D02*
X171832142Y-120407044D01*
X171832142Y-120407044D02*
X171879761Y-120454663D01*
X171879761Y-120454663D02*
X171927380Y-120407044D01*
X171927380Y-120407044D02*
X171879761Y-120359424D01*
X171879761Y-120359424D02*
X171879761Y-120454663D01*
X170927381Y-119454663D02*
X171403571Y-119454663D01*
X171403571Y-119454663D02*
X171451190Y-119930853D01*
X171451190Y-119930853D02*
X171403571Y-119883234D01*
X171403571Y-119883234D02*
X171308333Y-119835615D01*
X171308333Y-119835615D02*
X171070238Y-119835615D01*
X171070238Y-119835615D02*
X170975000Y-119883234D01*
X170975000Y-119883234D02*
X170927381Y-119930853D01*
X170927381Y-119930853D02*
X170879762Y-120026091D01*
X170879762Y-120026091D02*
X170879762Y-120264186D01*
X170879762Y-120264186D02*
X170927381Y-120359424D01*
X170927381Y-120359424D02*
X170975000Y-120407044D01*
X170975000Y-120407044D02*
X171070238Y-120454663D01*
X171070238Y-120454663D02*
X171308333Y-120454663D01*
X171308333Y-120454663D02*
X171403571Y-120407044D01*
X171403571Y-120407044D02*
X171451190Y-120359424D01*
X170451190Y-120454663D02*
X170451190Y-119454663D01*
X170355952Y-120073710D02*
X170070238Y-120454663D01*
X170070238Y-119787996D02*
X170451190Y-120168948D01*
X193833333Y-124954663D02*
X194404761Y-124954663D01*
X194119047Y-124954663D02*
X194119047Y-123954663D01*
X194119047Y-123954663D02*
X194214285Y-124097520D01*
X194214285Y-124097520D02*
X194309523Y-124192758D01*
X194309523Y-124192758D02*
X194404761Y-124240377D01*
X193404761Y-124859424D02*
X193357142Y-124907044D01*
X193357142Y-124907044D02*
X193404761Y-124954663D01*
X193404761Y-124954663D02*
X193452380Y-124907044D01*
X193452380Y-124907044D02*
X193404761Y-124859424D01*
X193404761Y-124859424D02*
X193404761Y-124954663D01*
X192452381Y-123954663D02*
X192928571Y-123954663D01*
X192928571Y-123954663D02*
X192976190Y-124430853D01*
X192976190Y-124430853D02*
X192928571Y-124383234D01*
X192928571Y-124383234D02*
X192833333Y-124335615D01*
X192833333Y-124335615D02*
X192595238Y-124335615D01*
X192595238Y-124335615D02*
X192500000Y-124383234D01*
X192500000Y-124383234D02*
X192452381Y-124430853D01*
X192452381Y-124430853D02*
X192404762Y-124526091D01*
X192404762Y-124526091D02*
X192404762Y-124764186D01*
X192404762Y-124764186D02*
X192452381Y-124859424D01*
X192452381Y-124859424D02*
X192500000Y-124907044D01*
X192500000Y-124907044D02*
X192595238Y-124954663D01*
X192595238Y-124954663D02*
X192833333Y-124954663D01*
X192833333Y-124954663D02*
X192928571Y-124907044D01*
X192928571Y-124907044D02*
X192976190Y-124859424D01*
X191976190Y-124954663D02*
X191976190Y-123954663D01*
X191880952Y-124573710D02*
X191595238Y-124954663D01*
X191595238Y-124287996D02*
X191976190Y-124668948D01*
X193833333Y-118954663D02*
X194404761Y-118954663D01*
X194119047Y-118954663D02*
X194119047Y-117954663D01*
X194119047Y-117954663D02*
X194214285Y-118097520D01*
X194214285Y-118097520D02*
X194309523Y-118192758D01*
X194309523Y-118192758D02*
X194404761Y-118240377D01*
X193404761Y-118859424D02*
X193357142Y-118907044D01*
X193357142Y-118907044D02*
X193404761Y-118954663D01*
X193404761Y-118954663D02*
X193452380Y-118907044D01*
X193452380Y-118907044D02*
X193404761Y-118859424D01*
X193404761Y-118859424D02*
X193404761Y-118954663D01*
X192452381Y-117954663D02*
X192928571Y-117954663D01*
X192928571Y-117954663D02*
X192976190Y-118430853D01*
X192976190Y-118430853D02*
X192928571Y-118383234D01*
X192928571Y-118383234D02*
X192833333Y-118335615D01*
X192833333Y-118335615D02*
X192595238Y-118335615D01*
X192595238Y-118335615D02*
X192500000Y-118383234D01*
X192500000Y-118383234D02*
X192452381Y-118430853D01*
X192452381Y-118430853D02*
X192404762Y-118526091D01*
X192404762Y-118526091D02*
X192404762Y-118764186D01*
X192404762Y-118764186D02*
X192452381Y-118859424D01*
X192452381Y-118859424D02*
X192500000Y-118907044D01*
X192500000Y-118907044D02*
X192595238Y-118954663D01*
X192595238Y-118954663D02*
X192833333Y-118954663D01*
X192833333Y-118954663D02*
X192928571Y-118907044D01*
X192928571Y-118907044D02*
X192976190Y-118859424D01*
X191976190Y-118954663D02*
X191976190Y-117954663D01*
X191880952Y-118573710D02*
X191595238Y-118954663D01*
X191595238Y-118287996D02*
X191976190Y-118668948D01*
X193833333Y-122954663D02*
X194404761Y-122954663D01*
X194119047Y-122954663D02*
X194119047Y-121954663D01*
X194119047Y-121954663D02*
X194214285Y-122097520D01*
X194214285Y-122097520D02*
X194309523Y-122192758D01*
X194309523Y-122192758D02*
X194404761Y-122240377D01*
X193404761Y-122859424D02*
X193357142Y-122907044D01*
X193357142Y-122907044D02*
X193404761Y-122954663D01*
X193404761Y-122954663D02*
X193452380Y-122907044D01*
X193452380Y-122907044D02*
X193404761Y-122859424D01*
X193404761Y-122859424D02*
X193404761Y-122954663D01*
X192452381Y-121954663D02*
X192928571Y-121954663D01*
X192928571Y-121954663D02*
X192976190Y-122430853D01*
X192976190Y-122430853D02*
X192928571Y-122383234D01*
X192928571Y-122383234D02*
X192833333Y-122335615D01*
X192833333Y-122335615D02*
X192595238Y-122335615D01*
X192595238Y-122335615D02*
X192500000Y-122383234D01*
X192500000Y-122383234D02*
X192452381Y-122430853D01*
X192452381Y-122430853D02*
X192404762Y-122526091D01*
X192404762Y-122526091D02*
X192404762Y-122764186D01*
X192404762Y-122764186D02*
X192452381Y-122859424D01*
X192452381Y-122859424D02*
X192500000Y-122907044D01*
X192500000Y-122907044D02*
X192595238Y-122954663D01*
X192595238Y-122954663D02*
X192833333Y-122954663D01*
X192833333Y-122954663D02*
X192928571Y-122907044D01*
X192928571Y-122907044D02*
X192976190Y-122859424D01*
X191976190Y-122954663D02*
X191976190Y-121954663D01*
X191880952Y-122573710D02*
X191595238Y-122954663D01*
X191595238Y-122287996D02*
X191976190Y-122668948D01*
X193833333Y-120954663D02*
X194404761Y-120954663D01*
X194119047Y-120954663D02*
X194119047Y-119954663D01*
X194119047Y-119954663D02*
X194214285Y-120097520D01*
X194214285Y-120097520D02*
X194309523Y-120192758D01*
X194309523Y-120192758D02*
X194404761Y-120240377D01*
X193404761Y-120859424D02*
X193357142Y-120907044D01*
X193357142Y-120907044D02*
X193404761Y-120954663D01*
X193404761Y-120954663D02*
X193452380Y-120907044D01*
X193452380Y-120907044D02*
X193404761Y-120859424D01*
X193404761Y-120859424D02*
X193404761Y-120954663D01*
X192452381Y-119954663D02*
X192928571Y-119954663D01*
X192928571Y-119954663D02*
X192976190Y-120430853D01*
X192976190Y-120430853D02*
X192928571Y-120383234D01*
X192928571Y-120383234D02*
X192833333Y-120335615D01*
X192833333Y-120335615D02*
X192595238Y-120335615D01*
X192595238Y-120335615D02*
X192500000Y-120383234D01*
X192500000Y-120383234D02*
X192452381Y-120430853D01*
X192452381Y-120430853D02*
X192404762Y-120526091D01*
X192404762Y-120526091D02*
X192404762Y-120764186D01*
X192404762Y-120764186D02*
X192452381Y-120859424D01*
X192452381Y-120859424D02*
X192500000Y-120907044D01*
X192500000Y-120907044D02*
X192595238Y-120954663D01*
X192595238Y-120954663D02*
X192833333Y-120954663D01*
X192833333Y-120954663D02*
X192928571Y-120907044D01*
X192928571Y-120907044D02*
X192976190Y-120859424D01*
X191976190Y-120954663D02*
X191976190Y-119954663D01*
X191880952Y-120573710D02*
X191595238Y-120954663D01*
X191595238Y-120287996D02*
X191976190Y-120668948D01*
X111428571Y-87287996D02*
X111428571Y-87954663D01*
X111666666Y-86907044D02*
X111904761Y-87621329D01*
X111904761Y-87621329D02*
X111285714Y-87621329D01*
X110904761Y-87859424D02*
X110857142Y-87907044D01*
X110857142Y-87907044D02*
X110904761Y-87954663D01*
X110904761Y-87954663D02*
X110952380Y-87907044D01*
X110952380Y-87907044D02*
X110904761Y-87859424D01*
X110904761Y-87859424D02*
X110904761Y-87954663D01*
X110523809Y-86954663D02*
X109857143Y-86954663D01*
X109857143Y-86954663D02*
X110285714Y-87954663D01*
X109476190Y-87954663D02*
X109476190Y-86954663D01*
X109380952Y-87573710D02*
X109095238Y-87954663D01*
X109095238Y-87287996D02*
X109476190Y-87668948D01*
X113395833Y-119884663D02*
X113967261Y-119884663D01*
X113681547Y-119884663D02*
X113681547Y-118884663D01*
X113681547Y-118884663D02*
X113776785Y-119027520D01*
X113776785Y-119027520D02*
X113872023Y-119122758D01*
X113872023Y-119122758D02*
X113967261Y-119170377D01*
X112967261Y-119789424D02*
X112919642Y-119837044D01*
X112919642Y-119837044D02*
X112967261Y-119884663D01*
X112967261Y-119884663D02*
X113014880Y-119837044D01*
X113014880Y-119837044D02*
X112967261Y-119789424D01*
X112967261Y-119789424D02*
X112967261Y-119884663D01*
X112014881Y-118884663D02*
X112491071Y-118884663D01*
X112491071Y-118884663D02*
X112538690Y-119360853D01*
X112538690Y-119360853D02*
X112491071Y-119313234D01*
X112491071Y-119313234D02*
X112395833Y-119265615D01*
X112395833Y-119265615D02*
X112157738Y-119265615D01*
X112157738Y-119265615D02*
X112062500Y-119313234D01*
X112062500Y-119313234D02*
X112014881Y-119360853D01*
X112014881Y-119360853D02*
X111967262Y-119456091D01*
X111967262Y-119456091D02*
X111967262Y-119694186D01*
X111967262Y-119694186D02*
X112014881Y-119789424D01*
X112014881Y-119789424D02*
X112062500Y-119837044D01*
X112062500Y-119837044D02*
X112157738Y-119884663D01*
X112157738Y-119884663D02*
X112395833Y-119884663D01*
X112395833Y-119884663D02*
X112491071Y-119837044D01*
X112491071Y-119837044D02*
X112538690Y-119789424D01*
X111538690Y-119884663D02*
X111538690Y-118884663D01*
X111443452Y-119503710D02*
X111157738Y-119884663D01*
X111157738Y-119217996D02*
X111538690Y-119598948D01*
X113395833Y-109384663D02*
X113967261Y-109384663D01*
X113681547Y-109384663D02*
X113681547Y-108384663D01*
X113681547Y-108384663D02*
X113776785Y-108527520D01*
X113776785Y-108527520D02*
X113872023Y-108622758D01*
X113872023Y-108622758D02*
X113967261Y-108670377D01*
X112967261Y-109289424D02*
X112919642Y-109337044D01*
X112919642Y-109337044D02*
X112967261Y-109384663D01*
X112967261Y-109384663D02*
X113014880Y-109337044D01*
X113014880Y-109337044D02*
X112967261Y-109289424D01*
X112967261Y-109289424D02*
X112967261Y-109384663D01*
X112014881Y-108384663D02*
X112491071Y-108384663D01*
X112491071Y-108384663D02*
X112538690Y-108860853D01*
X112538690Y-108860853D02*
X112491071Y-108813234D01*
X112491071Y-108813234D02*
X112395833Y-108765615D01*
X112395833Y-108765615D02*
X112157738Y-108765615D01*
X112157738Y-108765615D02*
X112062500Y-108813234D01*
X112062500Y-108813234D02*
X112014881Y-108860853D01*
X112014881Y-108860853D02*
X111967262Y-108956091D01*
X111967262Y-108956091D02*
X111967262Y-109194186D01*
X111967262Y-109194186D02*
X112014881Y-109289424D01*
X112014881Y-109289424D02*
X112062500Y-109337044D01*
X112062500Y-109337044D02*
X112157738Y-109384663D01*
X112157738Y-109384663D02*
X112395833Y-109384663D01*
X112395833Y-109384663D02*
X112491071Y-109337044D01*
X112491071Y-109337044D02*
X112538690Y-109289424D01*
X111538690Y-109384663D02*
X111538690Y-108384663D01*
X111443452Y-109003710D02*
X111157738Y-109384663D01*
X111157738Y-108717996D02*
X111538690Y-109098948D01*
X109380952Y-113454663D02*
X109857142Y-113454663D01*
X109857142Y-113454663D02*
X109904761Y-113930853D01*
X109904761Y-113930853D02*
X109857142Y-113883234D01*
X109857142Y-113883234D02*
X109761904Y-113835615D01*
X109761904Y-113835615D02*
X109523809Y-113835615D01*
X109523809Y-113835615D02*
X109428571Y-113883234D01*
X109428571Y-113883234D02*
X109380952Y-113930853D01*
X109380952Y-113930853D02*
X109333333Y-114026091D01*
X109333333Y-114026091D02*
X109333333Y-114264186D01*
X109333333Y-114264186D02*
X109380952Y-114359424D01*
X109380952Y-114359424D02*
X109428571Y-114407044D01*
X109428571Y-114407044D02*
X109523809Y-114454663D01*
X109523809Y-114454663D02*
X109761904Y-114454663D01*
X109761904Y-114454663D02*
X109857142Y-114407044D01*
X109857142Y-114407044D02*
X109904761Y-114359424D01*
X108904761Y-114359424D02*
X108857142Y-114407044D01*
X108857142Y-114407044D02*
X108904761Y-114454663D01*
X108904761Y-114454663D02*
X108952380Y-114407044D01*
X108952380Y-114407044D02*
X108904761Y-114359424D01*
X108904761Y-114359424D02*
X108904761Y-114454663D01*
X107904762Y-114454663D02*
X108476190Y-114454663D01*
X108190476Y-114454663D02*
X108190476Y-113454663D01*
X108190476Y-113454663D02*
X108285714Y-113597520D01*
X108285714Y-113597520D02*
X108380952Y-113692758D01*
X108380952Y-113692758D02*
X108476190Y-113740377D01*
X107476190Y-114454663D02*
X107476190Y-113454663D01*
X107380952Y-114073710D02*
X107095238Y-114454663D01*
X107095238Y-113787996D02*
X107476190Y-114168948D01*
X109380952Y-111454663D02*
X109857142Y-111454663D01*
X109857142Y-111454663D02*
X109904761Y-111930853D01*
X109904761Y-111930853D02*
X109857142Y-111883234D01*
X109857142Y-111883234D02*
X109761904Y-111835615D01*
X109761904Y-111835615D02*
X109523809Y-111835615D01*
X109523809Y-111835615D02*
X109428571Y-111883234D01*
X109428571Y-111883234D02*
X109380952Y-111930853D01*
X109380952Y-111930853D02*
X109333333Y-112026091D01*
X109333333Y-112026091D02*
X109333333Y-112264186D01*
X109333333Y-112264186D02*
X109380952Y-112359424D01*
X109380952Y-112359424D02*
X109428571Y-112407044D01*
X109428571Y-112407044D02*
X109523809Y-112454663D01*
X109523809Y-112454663D02*
X109761904Y-112454663D01*
X109761904Y-112454663D02*
X109857142Y-112407044D01*
X109857142Y-112407044D02*
X109904761Y-112359424D01*
X108904761Y-112359424D02*
X108857142Y-112407044D01*
X108857142Y-112407044D02*
X108904761Y-112454663D01*
X108904761Y-112454663D02*
X108952380Y-112407044D01*
X108952380Y-112407044D02*
X108904761Y-112359424D01*
X108904761Y-112359424D02*
X108904761Y-112454663D01*
X107904762Y-112454663D02*
X108476190Y-112454663D01*
X108190476Y-112454663D02*
X108190476Y-111454663D01*
X108190476Y-111454663D02*
X108285714Y-111597520D01*
X108285714Y-111597520D02*
X108380952Y-111692758D01*
X108380952Y-111692758D02*
X108476190Y-111740377D01*
X107476190Y-112454663D02*
X107476190Y-111454663D01*
X107380952Y-112073710D02*
X107095238Y-112454663D01*
X107095238Y-111787996D02*
X107476190Y-112168948D01*
D11*
X167745276Y-115477500D02*
X168254724Y-115477500D01*
X167745276Y-116522500D02*
X168254724Y-116522500D01*
X167745276Y-117477500D02*
X168254724Y-117477500D01*
X167745276Y-118522500D02*
X168254724Y-118522500D01*
X167652776Y-120522500D02*
X168162224Y-120522500D01*
X167652776Y-119477500D02*
X168162224Y-119477500D01*
X121100000Y-83850000D02*
X124250000Y-83850000D01*
X121100000Y-82150000D02*
X124250000Y-82150000D01*
X121100000Y-83850000D02*
X121100000Y-82150000D01*
X189245276Y-125022500D02*
X189754724Y-125022500D01*
X189245276Y-123977500D02*
X189754724Y-123977500D01*
X189245276Y-119022500D02*
X189754724Y-119022500D01*
X189245276Y-117977500D02*
X189754724Y-117977500D01*
X189245276Y-121977500D02*
X189754724Y-121977500D01*
X189245276Y-123022500D02*
X189754724Y-123022500D01*
X189245276Y-121022500D02*
X189754724Y-121022500D01*
X189245276Y-119977500D02*
X189754724Y-119977500D01*
X110754724Y-85115000D02*
X110245276Y-85115000D01*
X110754724Y-86160000D02*
X110245276Y-86160000D01*
X112817224Y-118522500D02*
X112307776Y-118522500D01*
X112817224Y-117477500D02*
X112307776Y-117477500D01*
X112817224Y-106977500D02*
X112307776Y-106977500D01*
X112817224Y-108022500D02*
X112307776Y-108022500D01*
X105192224Y-114522500D02*
X104682776Y-114522500D01*
X105192224Y-113477500D02*
X104682776Y-113477500D01*
X105192224Y-111477500D02*
X104682776Y-111477500D01*
X105192224Y-112522500D02*
X104682776Y-112522500D01*
X169400000Y-105000000D02*
X169400000Y-103000000D01*
X166600000Y-105000000D02*
X169400000Y-105000000D01*
X166600000Y-103000000D02*
X166600000Y-105000000D01*
X169400000Y-103000000D02*
X166600000Y-103000000D01*
X169400000Y-112500000D02*
X169400000Y-110500000D01*
X166600000Y-112500000D02*
X169400000Y-112500000D01*
X166600000Y-110500000D02*
X166600000Y-112500000D01*
X169400000Y-110500000D02*
X166600000Y-110500000D01*
%LPC*%
D12*
X169062500Y-116000000D03*
X166937500Y-116000000D03*
X169062500Y-118000000D03*
X166937500Y-118000000D03*
X166845000Y-120000000D03*
X168970000Y-120000000D03*
D13*
X180600000Y-108420000D03*
X186300000Y-108420000D03*
D14*
X194000000Y-83520000D03*
X194500000Y-108920000D03*
D15*
X124250000Y-83000000D03*
X121750000Y-83000000D03*
D12*
X188437500Y-124500000D03*
X190562500Y-124500000D03*
D16*
X135890000Y-144145000D03*
D17*
X138430000Y-144145000D03*
X140970000Y-144145000D03*
X143510000Y-144145000D03*
X146050000Y-144145000D03*
X148590000Y-144145000D03*
X151130000Y-144145000D03*
X153670000Y-144145000D03*
X156210000Y-144145000D03*
X158750000Y-144145000D03*
X161290000Y-144145000D03*
X163830000Y-144145000D03*
D18*
X153500000Y-93500000D03*
D19*
X151000000Y-93500000D03*
X149000000Y-93500000D03*
X146500000Y-93500000D03*
D20*
X156570000Y-90790000D03*
X143430000Y-90790000D03*
D21*
X103925000Y-117320000D03*
D22*
X108125000Y-117320000D03*
X108125000Y-108680000D03*
D21*
X103925000Y-108680000D03*
D23*
X107605000Y-115890000D03*
X107605000Y-110110000D03*
D24*
X136000000Y-113080000D03*
X136000000Y-108000000D03*
D12*
X188437500Y-118500000D03*
X190562500Y-118500000D03*
X190562500Y-122500000D03*
X188437500Y-122500000D03*
X188437500Y-120500000D03*
X190562500Y-120500000D03*
D25*
X111562500Y-85637500D03*
X109437500Y-85637500D03*
X111500000Y-118000000D03*
X113625000Y-118000000D03*
X113625000Y-107500000D03*
X111500000Y-107500000D03*
X103875000Y-114000000D03*
X106000000Y-114000000D03*
X106000000Y-112000000D03*
X103875000Y-112000000D03*
D16*
X135890000Y-128905000D03*
D17*
X138430000Y-128905000D03*
X140970000Y-128905000D03*
X143510000Y-128905000D03*
X146050000Y-128905000D03*
X148590000Y-128905000D03*
X151130000Y-128905000D03*
X153670000Y-128905000D03*
X156210000Y-128905000D03*
X158750000Y-128905000D03*
X161290000Y-128905000D03*
X163830000Y-128905000D03*
D26*
X168725000Y-104000000D03*
D27*
X167275000Y-104000000D03*
D26*
X168725000Y-111500000D03*
D27*
X167275000Y-111500000D03*
%LPD*%
M02*
