G04 #@! TF.GenerationSoftware,KiCad,Pcbnew,7.0.9*
G04 #@! TF.CreationDate,2024-09-01T01:28:20+09:00*
G04 #@! TF.ProjectId,im920sltoDS4,696d3932-3073-46c7-946f-4453342e6b69,rev?*
G04 #@! TF.SameCoordinates,Original*
G04 #@! TF.FileFunction,Soldermask,Bot*
G04 #@! TF.FilePolarity,Negative*
%FSLAX46Y46*%
G04 Gerber Fmt 4.6, Leading zero omitted, Abs format (unit mm)*
G04 Created by KiCad (PCBNEW 7.0.9) date 2024-09-01 01:28:20*
%MOMM*%
%LPD*%
G01*
G04 APERTURE LIST*
G04 Aperture macros list*
%AMRoundRect*
0 Rectangle with rounded corners*
0 $1 Rounding radius*
0 $2 $3 $4 $5 $6 $7 $8 $9 X,Y pos of 4 corners*
0 Add a 4 corners polygon primitive as box body*
4,1,4,$2,$3,$4,$5,$6,$7,$8,$9,$2,$3,0*
0 Add four circle primitives for the rounded corners*
1,1,$1+$1,$2,$3*
1,1,$1+$1,$4,$5*
1,1,$1+$1,$6,$7*
1,1,$1+$1,$8,$9*
0 Add four rect primitives between the rounded corners*
20,1,$1+$1,$2,$3,$4,$5,0*
20,1,$1+$1,$4,$5,$6,$7,0*
20,1,$1+$1,$6,$7,$8,$9,0*
20,1,$1+$1,$8,$9,$2,$3,0*%
%AMFreePoly0*
4,1,6,1.000000,0.000000,0.500000,-0.750000,-0.500000,-0.750000,-0.500000,0.750000,0.500000,0.750000,1.000000,0.000000,1.000000,0.000000,$1*%
%AMFreePoly1*
4,1,6,0.500000,-0.750000,-0.650000,-0.750000,-0.150000,0.000000,-0.650000,0.750000,0.500000,0.750000,0.500000,-0.750000,0.500000,-0.750000,$1*%
G04 Aperture macros list end*
%ADD10RoundRect,0.237500X-0.400000X-0.237500X0.400000X-0.237500X0.400000X0.237500X-0.400000X0.237500X0*%
%ADD11C,1.000000*%
%ADD12C,5.000000*%
%ADD13R,1.000000X1.000000*%
%ADD14R,1.700000X1.700000*%
%ADD15O,1.700000X1.700000*%
%ADD16R,1.524000X1.524000*%
%ADD17C,1.524000*%
%ADD18C,3.500000*%
%ADD19O,1.800000X1.000000*%
%ADD20O,2.100000X1.000000*%
%ADD21C,0.650000*%
%ADD22C,1.998980*%
%ADD23RoundRect,0.237500X0.400000X0.237500X-0.400000X0.237500X-0.400000X-0.237500X0.400000X-0.237500X0*%
%ADD24FreePoly0,180.000000*%
%ADD25FreePoly1,180.000000*%
G04 APERTURE END LIST*
D10*
X169062500Y-116000000D03*
X166937500Y-116000000D03*
X169062500Y-118000000D03*
X166937500Y-118000000D03*
X166845000Y-120000000D03*
X168970000Y-120000000D03*
D11*
X180600000Y-108420000D03*
X186300000Y-108420000D03*
D12*
X194000000Y-83520000D03*
X194500000Y-108920000D03*
D13*
X124250000Y-83000000D03*
X121750000Y-83000000D03*
D10*
X188437500Y-124500000D03*
X190562500Y-124500000D03*
D14*
X135890000Y-144145000D03*
D15*
X138430000Y-144145000D03*
X140970000Y-144145000D03*
X143510000Y-144145000D03*
X146050000Y-144145000D03*
X148590000Y-144145000D03*
X151130000Y-144145000D03*
X153670000Y-144145000D03*
X156210000Y-144145000D03*
X158750000Y-144145000D03*
X161290000Y-144145000D03*
X163830000Y-144145000D03*
D16*
X153500000Y-93500000D03*
D17*
X151000000Y-93500000D03*
X149000000Y-93500000D03*
X146500000Y-93500000D03*
D18*
X156570000Y-90790000D03*
X143430000Y-90790000D03*
D19*
X103925000Y-117320000D03*
D20*
X108125000Y-117320000D03*
X108125000Y-108680000D03*
D19*
X103925000Y-108680000D03*
D21*
X107605000Y-115890000D03*
X107605000Y-110110000D03*
D22*
X136000000Y-113080000D03*
X136000000Y-108000000D03*
D10*
X188437500Y-118500000D03*
X190562500Y-118500000D03*
X190562500Y-122500000D03*
X188437500Y-122500000D03*
X188437500Y-120500000D03*
X190562500Y-120500000D03*
D23*
X111562500Y-85637500D03*
X109437500Y-85637500D03*
X111500000Y-118000000D03*
X113625000Y-118000000D03*
X113625000Y-107500000D03*
X111500000Y-107500000D03*
X103875000Y-114000000D03*
X106000000Y-114000000D03*
X106000000Y-112000000D03*
X103875000Y-112000000D03*
D14*
X135890000Y-128905000D03*
D15*
X138430000Y-128905000D03*
X140970000Y-128905000D03*
X143510000Y-128905000D03*
X146050000Y-128905000D03*
X148590000Y-128905000D03*
X151130000Y-128905000D03*
X153670000Y-128905000D03*
X156210000Y-128905000D03*
X158750000Y-128905000D03*
X161290000Y-128905000D03*
X163830000Y-128905000D03*
D24*
X168725000Y-104000000D03*
D25*
X167275000Y-104000000D03*
D24*
X168725000Y-111500000D03*
D25*
X167275000Y-111500000D03*
M02*
