G04 #@! TF.GenerationSoftware,KiCad,Pcbnew,7.0.9*
G04 #@! TF.CreationDate,2024-09-01T01:28:20+09:00*
G04 #@! TF.ProjectId,im920sltoDS4,696d3932-3073-46c7-946f-4453342e6b69,rev?*
G04 #@! TF.SameCoordinates,Original*
G04 #@! TF.FileFunction,Soldermask,Top*
G04 #@! TF.FilePolarity,Negative*
%FSLAX46Y46*%
G04 Gerber Fmt 4.6, Leading zero omitted, Abs format (unit mm)*
G04 Created by KiCad (PCBNEW 7.0.9) date 2024-09-01 01:28:20*
%MOMM*%
%LPD*%
G01*
G04 APERTURE LIST*
G04 Aperture macros list*
%AMRoundRect*
0 Rectangle with rounded corners*
0 $1 Rounding radius*
0 $2 $3 $4 $5 $6 $7 $8 $9 X,Y pos of 4 corners*
0 Add a 4 corners polygon primitive as box body*
4,1,4,$2,$3,$4,$5,$6,$7,$8,$9,$2,$3,0*
0 Add four circle primitives for the rounded corners*
1,1,$1+$1,$2,$3*
1,1,$1+$1,$4,$5*
1,1,$1+$1,$6,$7*
1,1,$1+$1,$8,$9*
0 Add four rect primitives between the rounded corners*
20,1,$1+$1,$2,$3,$4,$5,0*
20,1,$1+$1,$4,$5,$6,$7,0*
20,1,$1+$1,$6,$7,$8,$9,0*
20,1,$1+$1,$8,$9,$2,$3,0*%
G04 Aperture macros list end*
%ADD10RoundRect,0.237500X-0.387500X-0.237500X0.387500X-0.237500X0.387500X0.237500X-0.387500X0.237500X0*%
%ADD11R,1.500000X1.000000*%
%ADD12RoundRect,0.100000X-0.100000X-0.450000X0.100000X-0.450000X0.100000X0.450000X-0.100000X0.450000X0*%
%ADD13RoundRect,0.075000X-0.075000X-0.475000X0.075000X-0.475000X0.075000X0.475000X-0.075000X0.475000X0*%
%ADD14C,1.000000*%
%ADD15C,5.000000*%
%ADD16RoundRect,0.075000X-0.075000X-0.700000X0.075000X-0.700000X0.075000X0.700000X-0.075000X0.700000X0*%
%ADD17RoundRect,0.075000X-0.700000X-0.075000X0.700000X-0.075000X0.700000X0.075000X-0.700000X0.075000X0*%
%ADD18RoundRect,0.250000X-0.250000X-1.150000X0.250000X-1.150000X0.250000X1.150000X-0.250000X1.150000X0*%
%ADD19RoundRect,0.150000X-0.150000X-0.700000X0.150000X-0.700000X0.150000X0.700000X-0.150000X0.700000X0*%
%ADD20R,6.400000X5.800000*%
%ADD21R,2.200000X1.200000*%
%ADD22R,1.700000X1.700000*%
%ADD23O,1.700000X1.700000*%
%ADD24R,1.524000X1.524000*%
%ADD25C,1.524000*%
%ADD26C,3.500000*%
%ADD27O,1.800000X1.000000*%
%ADD28O,2.100000X1.000000*%
%ADD29R,1.240000X0.600000*%
%ADD30R,1.240000X0.300000*%
%ADD31C,0.650000*%
%ADD32RoundRect,0.237500X-0.287500X-0.237500X0.287500X-0.237500X0.287500X0.237500X-0.287500X0.237500X0*%
%ADD33RoundRect,0.237500X0.387500X0.237500X-0.387500X0.237500X-0.387500X-0.237500X0.387500X-0.237500X0*%
%ADD34RoundRect,0.292875X0.394625X0.432125X-0.394625X0.432125X-0.394625X-0.432125X0.394625X-0.432125X0*%
%ADD35C,1.998980*%
%ADD36RoundRect,0.237500X-0.400000X-0.237500X0.400000X-0.237500X0.400000X0.237500X-0.400000X0.237500X0*%
%ADD37R,1.000000X1.500000*%
%ADD38RoundRect,0.292875X-0.394625X-0.432125X0.394625X-0.432125X0.394625X0.432125X-0.394625X0.432125X0*%
%ADD39RoundRect,0.292875X-0.432125X0.394625X-0.432125X-0.394625X0.432125X-0.394625X0.432125X0.394625X0*%
G04 APERTURE END LIST*
D10*
X167025000Y-116000000D03*
X168975000Y-116000000D03*
X167025000Y-118000000D03*
X168975000Y-118000000D03*
X167000000Y-120000000D03*
X168950000Y-120000000D03*
D11*
X112800000Y-86887500D03*
X108200000Y-86887500D03*
X112800000Y-84387500D03*
X108200000Y-84387500D03*
D12*
X185750000Y-110370000D03*
X185750000Y-106470000D03*
D13*
X185200000Y-110370000D03*
X185200000Y-106470000D03*
X184700000Y-110370000D03*
X184700000Y-106470000D03*
X184200000Y-110370000D03*
X184200000Y-106470000D03*
X183700000Y-110370000D03*
X183700000Y-106470000D03*
X183200000Y-110370000D03*
X183200000Y-106470000D03*
X182700000Y-110370000D03*
X182700000Y-106470000D03*
X182200000Y-110370000D03*
X182200000Y-106470000D03*
X181700000Y-110370000D03*
X181700000Y-106470000D03*
D12*
X181150000Y-110370000D03*
X181150000Y-106470000D03*
D14*
X180600000Y-108420000D03*
X186300000Y-108420000D03*
D15*
X194000000Y-83520000D03*
X194500000Y-108920000D03*
D11*
X173800000Y-98250000D03*
X169200000Y-98250000D03*
X173800000Y-95750000D03*
X169200000Y-95750000D03*
D16*
X145250000Y-106325000D03*
X145750000Y-106325000D03*
X146250000Y-106325000D03*
X146750000Y-106325000D03*
X147250000Y-106325000D03*
X147750000Y-106325000D03*
X148250000Y-106325000D03*
X148750000Y-106325000D03*
X149250000Y-106325000D03*
X149750000Y-106325000D03*
X150250000Y-106325000D03*
X150750000Y-106325000D03*
X151250000Y-106325000D03*
X151750000Y-106325000D03*
X152250000Y-106325000D03*
X152750000Y-106325000D03*
D17*
X154675000Y-108250000D03*
X154675000Y-108750000D03*
X154675000Y-109250000D03*
X154675000Y-109750000D03*
X154675000Y-110250000D03*
X154675000Y-110750000D03*
X154675000Y-111250000D03*
X154675000Y-111750000D03*
X154675000Y-112250000D03*
X154675000Y-112750000D03*
X154675000Y-113250000D03*
X154675000Y-113750000D03*
X154675000Y-114250000D03*
X154675000Y-114750000D03*
X154675000Y-115250000D03*
X154675000Y-115750000D03*
D16*
X152750000Y-117675000D03*
X152250000Y-117675000D03*
X151750000Y-117675000D03*
X151250000Y-117675000D03*
X150750000Y-117675000D03*
X150250000Y-117675000D03*
X149750000Y-117675000D03*
X149250000Y-117675000D03*
X148750000Y-117675000D03*
X148250000Y-117675000D03*
X147750000Y-117675000D03*
X147250000Y-117675000D03*
X146750000Y-117675000D03*
X146250000Y-117675000D03*
X145750000Y-117675000D03*
X145250000Y-117675000D03*
D17*
X143325000Y-115750000D03*
X143325000Y-115250000D03*
X143325000Y-114750000D03*
X143325000Y-114250000D03*
X143325000Y-113750000D03*
X143325000Y-113250000D03*
X143325000Y-112750000D03*
X143325000Y-112250000D03*
X143325000Y-111750000D03*
X143325000Y-111250000D03*
X143325000Y-110750000D03*
X143325000Y-110250000D03*
X143325000Y-109750000D03*
X143325000Y-109250000D03*
X143325000Y-108750000D03*
X143325000Y-108250000D03*
D18*
X118025000Y-82650000D03*
X127975000Y-82650000D03*
D19*
X126125000Y-86000000D03*
X124875000Y-86000000D03*
X123625000Y-86000000D03*
X122375000Y-86000000D03*
X121125000Y-86000000D03*
X119875000Y-86000000D03*
D20*
X122300000Y-112780000D03*
D21*
X116000000Y-115060000D03*
X116000000Y-112780000D03*
X116000000Y-110500000D03*
D22*
X135890000Y-144145000D03*
D23*
X138430000Y-144145000D03*
X140970000Y-144145000D03*
X143510000Y-144145000D03*
X146050000Y-144145000D03*
X148590000Y-144145000D03*
X151130000Y-144145000D03*
X153670000Y-144145000D03*
X156210000Y-144145000D03*
X158750000Y-144145000D03*
X161290000Y-144145000D03*
X163830000Y-144145000D03*
D24*
X153500000Y-93500000D03*
D25*
X151000000Y-93500000D03*
X149000000Y-93500000D03*
X146500000Y-93500000D03*
D26*
X156570000Y-90790000D03*
X143430000Y-90790000D03*
D27*
X103925000Y-117320000D03*
D28*
X108125000Y-117320000D03*
X108125000Y-108680000D03*
D27*
X103925000Y-108680000D03*
D29*
X108725000Y-109800000D03*
X108725000Y-110600000D03*
D30*
X108725000Y-111250000D03*
X108725000Y-112250000D03*
X108725000Y-113750000D03*
X108725000Y-114750000D03*
D29*
X108725000Y-115400000D03*
X108725000Y-116200000D03*
X108725000Y-116200000D03*
X108725000Y-115400000D03*
D30*
X108725000Y-114250000D03*
X108725000Y-113250000D03*
X108725000Y-112750000D03*
X108725000Y-111750000D03*
D29*
X108725000Y-110600000D03*
X108725000Y-109800000D03*
D31*
X107605000Y-115890000D03*
X107605000Y-110110000D03*
D32*
X188625000Y-124500000D03*
X190375000Y-124500000D03*
X188625000Y-118500000D03*
X190375000Y-118500000D03*
D33*
X113512500Y-118000000D03*
X111562500Y-118000000D03*
X111562500Y-107500000D03*
X113512500Y-107500000D03*
D34*
X143000000Y-104500000D03*
X140725000Y-104500000D03*
D35*
X136000000Y-113080000D03*
X136000000Y-108000000D03*
D36*
X147000000Y-104000000D03*
X144875000Y-104000000D03*
D22*
X135890000Y-128905000D03*
D23*
X138430000Y-128905000D03*
X140970000Y-128905000D03*
X143510000Y-128905000D03*
X146050000Y-128905000D03*
X148590000Y-128905000D03*
X151130000Y-128905000D03*
X153670000Y-128905000D03*
X156210000Y-128905000D03*
X158750000Y-128905000D03*
X161290000Y-128905000D03*
X163830000Y-128905000D03*
D37*
X167350000Y-109000000D03*
X168650000Y-109000000D03*
X167350000Y-106500000D03*
X168650000Y-106500000D03*
D32*
X188625000Y-122500000D03*
X190375000Y-122500000D03*
X188625000Y-120500000D03*
X190375000Y-120500000D03*
D38*
X159275000Y-106500000D03*
X157000000Y-106500000D03*
X157775000Y-117500000D03*
X155500000Y-117500000D03*
D39*
X144780000Y-122275000D03*
X144780000Y-120000000D03*
X141000000Y-117275000D03*
X141000000Y-115000000D03*
D38*
X157000000Y-108500000D03*
X159275000Y-108500000D03*
D39*
X155000000Y-122275000D03*
X155000000Y-120000000D03*
X153000000Y-120000000D03*
X153000000Y-122275000D03*
D34*
X140725000Y-106500000D03*
X143000000Y-106500000D03*
D39*
X106000000Y-84500000D03*
X106000000Y-86775000D03*
D38*
X132500000Y-113000000D03*
X130225000Y-113000000D03*
X132500000Y-108000000D03*
X130225000Y-108000000D03*
X116000000Y-118000000D03*
X118275000Y-118000000D03*
X118275000Y-107500000D03*
X116000000Y-107500000D03*
M02*
