G04 #@! TF.GenerationSoftware,KiCad,Pcbnew,7.0.9*
G04 #@! TF.CreationDate,2024-09-01T01:28:20+09:00*
G04 #@! TF.ProjectId,im920sltoDS4,696d3932-3073-46c7-946f-4453342e6b69,rev?*
G04 #@! TF.SameCoordinates,Original*
G04 #@! TF.FileFunction,Copper,L2,Bot*
G04 #@! TF.FilePolarity,Positive*
%FSLAX46Y46*%
G04 Gerber Fmt 4.6, Leading zero omitted, Abs format (unit mm)*
G04 Created by KiCad (PCBNEW 7.0.9) date 2024-09-01 01:28:20*
%MOMM*%
%LPD*%
G01*
G04 APERTURE LIST*
G04 Aperture macros list*
%AMRoundRect*
0 Rectangle with rounded corners*
0 $1 Rounding radius*
0 $2 $3 $4 $5 $6 $7 $8 $9 X,Y pos of 4 corners*
0 Add a 4 corners polygon primitive as box body*
4,1,4,$2,$3,$4,$5,$6,$7,$8,$9,$2,$3,0*
0 Add four circle primitives for the rounded corners*
1,1,$1+$1,$2,$3*
1,1,$1+$1,$4,$5*
1,1,$1+$1,$6,$7*
1,1,$1+$1,$8,$9*
0 Add four rect primitives between the rounded corners*
20,1,$1+$1,$2,$3,$4,$5,0*
20,1,$1+$1,$4,$5,$6,$7,0*
20,1,$1+$1,$6,$7,$8,$9,0*
20,1,$1+$1,$8,$9,$2,$3,0*%
%AMFreePoly0*
4,1,6,1.000000,0.000000,0.500000,-0.750000,-0.500000,-0.750000,-0.500000,0.750000,0.500000,0.750000,1.000000,0.000000,1.000000,0.000000,$1*%
%AMFreePoly1*
4,1,6,0.500000,-0.750000,-0.650000,-0.750000,-0.150000,0.000000,-0.650000,0.750000,0.500000,0.750000,0.500000,-0.750000,0.500000,-0.750000,$1*%
G04 Aperture macros list end*
G04 #@! TA.AperFunction,SMDPad,CuDef*
%ADD10RoundRect,0.237500X-0.400000X-0.237500X0.400000X-0.237500X0.400000X0.237500X-0.400000X0.237500X0*%
G04 #@! TD*
G04 #@! TA.AperFunction,ComponentPad*
%ADD11C,1.000000*%
G04 #@! TD*
G04 #@! TA.AperFunction,ComponentPad*
%ADD12C,5.000000*%
G04 #@! TD*
G04 #@! TA.AperFunction,SMDPad,CuDef*
%ADD13R,1.000000X1.000000*%
G04 #@! TD*
G04 #@! TA.AperFunction,ComponentPad*
%ADD14R,1.700000X1.700000*%
G04 #@! TD*
G04 #@! TA.AperFunction,ComponentPad*
%ADD15O,1.700000X1.700000*%
G04 #@! TD*
G04 #@! TA.AperFunction,ComponentPad*
%ADD16R,1.524000X1.524000*%
G04 #@! TD*
G04 #@! TA.AperFunction,ComponentPad*
%ADD17C,1.524000*%
G04 #@! TD*
G04 #@! TA.AperFunction,ComponentPad*
%ADD18C,3.500000*%
G04 #@! TD*
G04 #@! TA.AperFunction,ComponentPad*
%ADD19O,1.800000X1.000000*%
G04 #@! TD*
G04 #@! TA.AperFunction,ComponentPad*
%ADD20O,2.100000X1.000000*%
G04 #@! TD*
G04 #@! TA.AperFunction,ComponentPad*
%ADD21C,1.998980*%
G04 #@! TD*
G04 #@! TA.AperFunction,SMDPad,CuDef*
%ADD22RoundRect,0.237500X0.400000X0.237500X-0.400000X0.237500X-0.400000X-0.237500X0.400000X-0.237500X0*%
G04 #@! TD*
G04 #@! TA.AperFunction,SMDPad,CuDef*
%ADD23FreePoly0,180.000000*%
G04 #@! TD*
G04 #@! TA.AperFunction,SMDPad,CuDef*
%ADD24FreePoly1,180.000000*%
G04 #@! TD*
G04 #@! TA.AperFunction,ViaPad*
%ADD25C,0.500000*%
G04 #@! TD*
G04 #@! TA.AperFunction,ViaPad*
%ADD26C,0.600000*%
G04 #@! TD*
G04 #@! TA.AperFunction,Conductor*
%ADD27C,0.150000*%
G04 #@! TD*
G04 #@! TA.AperFunction,Conductor*
%ADD28C,1.000000*%
G04 #@! TD*
G04 #@! TA.AperFunction,Conductor*
%ADD29C,0.500000*%
G04 #@! TD*
G04 APERTURE END LIST*
D10*
X169062500Y-116000000D03*
X166937500Y-116000000D03*
X169062500Y-118000000D03*
X166937500Y-118000000D03*
X166845000Y-120000000D03*
X168970000Y-120000000D03*
D11*
X180600000Y-108420000D03*
X186300000Y-108420000D03*
D12*
X194000000Y-83520000D03*
X194500000Y-108920000D03*
D13*
X124250000Y-83000000D03*
X121750000Y-83000000D03*
D10*
X188437500Y-124500000D03*
X190562500Y-124500000D03*
D14*
X135890000Y-144145000D03*
D15*
X138430000Y-144145000D03*
X140970000Y-144145000D03*
X143510000Y-144145000D03*
X146050000Y-144145000D03*
X148590000Y-144145000D03*
X151130000Y-144145000D03*
X153670000Y-144145000D03*
X156210000Y-144145000D03*
X158750000Y-144145000D03*
X161290000Y-144145000D03*
X163830000Y-144145000D03*
D16*
X153500000Y-93500000D03*
D17*
X151000000Y-93500000D03*
X149000000Y-93500000D03*
X146500000Y-93500000D03*
D18*
X156570000Y-90790000D03*
X143430000Y-90790000D03*
D19*
X103925000Y-117320000D03*
D20*
X108125000Y-117320000D03*
X108125000Y-108680000D03*
D19*
X103925000Y-108680000D03*
D21*
X136000000Y-113080000D03*
X136000000Y-108000000D03*
D10*
X188437500Y-118500000D03*
X190562500Y-118500000D03*
X190562500Y-122500000D03*
X188437500Y-122500000D03*
X188437500Y-120500000D03*
X190562500Y-120500000D03*
D22*
X111562500Y-85637500D03*
X109437500Y-85637500D03*
X111500000Y-118000000D03*
X113625000Y-118000000D03*
X113625000Y-107500000D03*
X111500000Y-107500000D03*
X103875000Y-114000000D03*
X106000000Y-114000000D03*
X106000000Y-112000000D03*
X103875000Y-112000000D03*
D14*
X135890000Y-128905000D03*
D15*
X138430000Y-128905000D03*
X140970000Y-128905000D03*
X143510000Y-128905000D03*
X146050000Y-128905000D03*
X148590000Y-128905000D03*
X151130000Y-128905000D03*
X153670000Y-128905000D03*
X156210000Y-128905000D03*
X158750000Y-128905000D03*
X161290000Y-128905000D03*
X163830000Y-128905000D03*
D23*
X168725000Y-104000000D03*
D24*
X167275000Y-104000000D03*
D23*
X168725000Y-111500000D03*
D24*
X167275000Y-111500000D03*
D25*
X161000000Y-115500000D03*
X161000000Y-114500000D03*
X161000000Y-113500000D03*
X169000000Y-116000000D03*
X169000000Y-118000000D03*
X168907500Y-120000000D03*
D26*
X167640000Y-142240000D03*
X187960000Y-96520000D03*
X198120000Y-81280000D03*
X198120000Y-91440000D03*
X198120000Y-86360000D03*
X198120000Y-96520000D03*
X198120000Y-101600000D03*
X198120000Y-106680000D03*
X198120000Y-111760000D03*
X193040000Y-116840000D03*
X198120000Y-116840000D03*
X198120000Y-121920000D03*
X187960000Y-127000000D03*
X198120000Y-127000000D03*
X193040000Y-127000000D03*
X142240000Y-121920000D03*
X137160000Y-121920000D03*
X132080000Y-121920000D03*
X132080000Y-142240000D03*
X162560000Y-142240000D03*
X152400000Y-142240000D03*
X147320000Y-142240000D03*
X142240000Y-132080000D03*
X157480000Y-132080000D03*
X167640000Y-132080000D03*
X162560000Y-132080000D03*
X162560000Y-137160000D03*
X167640000Y-137160000D03*
X157480000Y-137160000D03*
X147320000Y-137160000D03*
X132080000Y-127000000D03*
X137160000Y-132080000D03*
X137160000Y-137160000D03*
X132080000Y-132080000D03*
X132080000Y-137160000D03*
X121920000Y-91440000D03*
X116840000Y-101600000D03*
X111760000Y-101600000D03*
X106680000Y-101600000D03*
X137160000Y-91440000D03*
X187960000Y-81280000D03*
X182880000Y-81280000D03*
X177800000Y-81280000D03*
X172720000Y-81280000D03*
X167640000Y-81280000D03*
X162560000Y-81280000D03*
X132080000Y-86360000D03*
X137160000Y-86360000D03*
X132080000Y-81280000D03*
X137160000Y-81280000D03*
X142240000Y-81280000D03*
X147320000Y-86360000D03*
X142240000Y-86360000D03*
X147320000Y-81280000D03*
X152400000Y-81280000D03*
X157480000Y-81280000D03*
X157480000Y-86360000D03*
X152400000Y-86360000D03*
X187960000Y-86360000D03*
X182880000Y-86360000D03*
X177800000Y-86360000D03*
X177800000Y-91440000D03*
X177800000Y-101600000D03*
X172720000Y-101600000D03*
X167640000Y-101600000D03*
X167640000Y-96520000D03*
X162560000Y-101600000D03*
X162560000Y-96520000D03*
X172720000Y-91440000D03*
X167640000Y-91440000D03*
X162560000Y-91440000D03*
X172720000Y-86360000D03*
X167640000Y-86360000D03*
X162560000Y-86360000D03*
X187960000Y-91440000D03*
X193040000Y-91440000D03*
X193040000Y-96520000D03*
X193040000Y-101600000D03*
X187960000Y-101600000D03*
X182880000Y-101600000D03*
X182880000Y-96520000D03*
X182880000Y-91440000D03*
X172720000Y-127000000D03*
X177800000Y-127000000D03*
X182880000Y-127000000D03*
X193040000Y-137160000D03*
X187960000Y-137160000D03*
X182880000Y-137160000D03*
X177800000Y-137160000D03*
X172720000Y-137160000D03*
X172720000Y-132080000D03*
X177800000Y-132080000D03*
X182880000Y-132080000D03*
X187960000Y-132080000D03*
X193040000Y-132080000D03*
X198120000Y-132080000D03*
X198120000Y-137160000D03*
X198120000Y-142240000D03*
X193040000Y-142240000D03*
X187960000Y-142240000D03*
X182880000Y-142240000D03*
X177800000Y-142240000D03*
X172720000Y-142240000D03*
X116840000Y-132080000D03*
X116840000Y-127000000D03*
X121920000Y-127000000D03*
X121920000Y-132080000D03*
X121920000Y-137160000D03*
X116840000Y-137160000D03*
X111760000Y-137160000D03*
X111760000Y-132080000D03*
X111760000Y-127000000D03*
X111760000Y-121920000D03*
X116840000Y-121920000D03*
X121920000Y-121920000D03*
X127000000Y-121920000D03*
X127000000Y-127000000D03*
X127000000Y-132080000D03*
X127000000Y-137160000D03*
X127000000Y-142240000D03*
X121920000Y-142240000D03*
X116840000Y-142240000D03*
X111760000Y-142240000D03*
X106680000Y-142240000D03*
X106680000Y-137160000D03*
X106680000Y-132080000D03*
X106680000Y-127000000D03*
X106680000Y-121920000D03*
X116840000Y-96520000D03*
X121920000Y-96520000D03*
X116840000Y-91440000D03*
X111760000Y-96520000D03*
X111760000Y-91440000D03*
X106680000Y-91440000D03*
X106680000Y-96520000D03*
D25*
X146700000Y-126100000D03*
X145000000Y-126800000D03*
X171500000Y-106500000D03*
X170500000Y-109000000D03*
X167000000Y-109000000D03*
X167000000Y-106500000D03*
X181500000Y-115500000D03*
X186000000Y-113000000D03*
X182500000Y-111500000D03*
X185000000Y-111500000D03*
X185500000Y-105000000D03*
X164000000Y-109000000D03*
X166000000Y-109000000D03*
D26*
X134000000Y-98500000D03*
X140500000Y-98500000D03*
D25*
X109500000Y-85637500D03*
X190500000Y-124500000D03*
X190500000Y-118500000D03*
X190500000Y-122500000D03*
X190500000Y-120500000D03*
X144780000Y-120000000D03*
X155500000Y-117500000D03*
X157000000Y-106500000D03*
X143000000Y-104500000D03*
X143000000Y-106500000D03*
X141000000Y-115000000D03*
X116000000Y-118000000D03*
X116000000Y-107500000D03*
X111562500Y-118000000D03*
X111562500Y-107500000D03*
X126125000Y-86000000D03*
X106000000Y-114000000D03*
X106000000Y-112000000D03*
D27*
X165500000Y-120000000D02*
X166845000Y-120000000D01*
X161000000Y-115500000D02*
X165500000Y-120000000D01*
X164500000Y-118000000D02*
X166937500Y-118000000D01*
X161000000Y-114500000D02*
X164500000Y-118000000D01*
X163500000Y-116000000D02*
X166937500Y-116000000D01*
X161000000Y-113500000D02*
X163500000Y-116000000D01*
D28*
X173500000Y-123500000D02*
X181500000Y-115500000D01*
X161500000Y-123500000D02*
X173500000Y-123500000D01*
X155500000Y-117500000D02*
X161500000Y-123500000D01*
X148500000Y-98500000D02*
X153500000Y-93500000D01*
X140500000Y-98500000D02*
X148500000Y-98500000D01*
X153000000Y-125695000D02*
X156210000Y-128905000D01*
X153000000Y-120000000D02*
X153000000Y-125695000D01*
D27*
X141235000Y-126100000D02*
X138430000Y-128905000D01*
X146700000Y-126100000D02*
X141235000Y-126100000D01*
X143075000Y-126800000D02*
X140970000Y-128905000D01*
X145000000Y-126800000D02*
X143075000Y-126800000D01*
D28*
X144765000Y-120000000D02*
X144780000Y-120000000D01*
X141000000Y-116235000D02*
X144765000Y-120000000D01*
X141000000Y-115000000D02*
X141000000Y-116235000D01*
X144780000Y-120000000D02*
X153000000Y-120000000D01*
X153000000Y-120000000D02*
X155500000Y-117500000D01*
D27*
X171500000Y-109500000D02*
X171500000Y-106500000D01*
X169500000Y-111500000D02*
X171500000Y-109500000D01*
X168725000Y-111500000D02*
X169500000Y-111500000D01*
X170500000Y-105775000D02*
X170500000Y-109000000D01*
X168725000Y-104000000D02*
X170500000Y-105775000D01*
X167000000Y-111225000D02*
X167275000Y-111500000D01*
X167000000Y-109000000D02*
X167000000Y-111225000D01*
X167000000Y-104275000D02*
X167275000Y-104000000D01*
X167000000Y-106500000D02*
X167000000Y-104275000D01*
X186000000Y-113000000D02*
X186000000Y-118062500D01*
X186000000Y-118062500D02*
X188437500Y-120500000D01*
X185000000Y-119062500D02*
X188437500Y-122500000D01*
X185000000Y-111500000D02*
X185000000Y-119062500D01*
X182500000Y-118562500D02*
X188437500Y-124500000D01*
X182500000Y-111500000D02*
X182500000Y-118562500D01*
X188437500Y-106937500D02*
X188437500Y-118500000D01*
X186500000Y-105000000D02*
X188437500Y-106937500D01*
X185500000Y-105000000D02*
X186500000Y-105000000D01*
X164000000Y-109000000D02*
X166000000Y-109000000D01*
D28*
X114200000Y-83000000D02*
X111562500Y-85637500D01*
X121750000Y-83000000D02*
X114200000Y-83000000D01*
X138000000Y-118000000D02*
X141000000Y-115000000D01*
X116000000Y-118000000D02*
X138000000Y-118000000D01*
X116000000Y-107500000D02*
X125000000Y-98500000D01*
X125000000Y-98500000D02*
X134000000Y-98500000D01*
X121750000Y-83000000D02*
X121750000Y-83250000D01*
X121750000Y-83250000D02*
X143000000Y-104500000D01*
X143000000Y-104500000D02*
X145000000Y-106500000D01*
X143000000Y-106500000D02*
X145000000Y-106500000D01*
X145000000Y-106500000D02*
X157000000Y-106500000D01*
X155500000Y-117500000D02*
X155500000Y-108000000D01*
X155500000Y-108000000D02*
X157000000Y-106500000D01*
D29*
X113625000Y-107500000D02*
X116000000Y-107500000D01*
X113625000Y-118000000D02*
X116000000Y-118000000D01*
X126125000Y-84875000D02*
X124250000Y-83000000D01*
X126125000Y-86000000D02*
X126125000Y-84875000D01*
G04 #@! TA.AperFunction,Conductor*
G36*
X199973066Y-80017813D02*
G01*
X199998376Y-80061650D01*
X199999500Y-80074500D01*
X199999500Y-145925500D01*
X199982187Y-145973066D01*
X199938350Y-145998376D01*
X199925500Y-145999500D01*
X100074500Y-145999500D01*
X100026934Y-145982187D01*
X100001624Y-145938350D01*
X100000500Y-145925500D01*
X100000500Y-145014746D01*
X134839500Y-145014746D01*
X134851133Y-145073232D01*
X134880608Y-145117343D01*
X134895448Y-145139552D01*
X134939560Y-145169027D01*
X134961767Y-145183866D01*
X134961768Y-145183866D01*
X134961769Y-145183867D01*
X135020252Y-145195500D01*
X135020254Y-145195500D01*
X136759746Y-145195500D01*
X136759748Y-145195500D01*
X136818231Y-145183867D01*
X136884552Y-145139552D01*
X136928867Y-145073231D01*
X136940500Y-145014748D01*
X136940500Y-144145000D01*
X137374417Y-144145000D01*
X137394700Y-144350934D01*
X137454768Y-144548954D01*
X137552315Y-144731450D01*
X137683590Y-144891410D01*
X137843550Y-145022685D01*
X138026046Y-145120232D01*
X138224066Y-145180300D01*
X138430000Y-145200583D01*
X138635934Y-145180300D01*
X138833954Y-145120232D01*
X139016450Y-145022685D01*
X139176410Y-144891410D01*
X139307685Y-144731450D01*
X139405232Y-144548954D01*
X139465300Y-144350934D01*
X139485583Y-144145000D01*
X139914417Y-144145000D01*
X139934700Y-144350934D01*
X139994768Y-144548954D01*
X140092315Y-144731450D01*
X140223590Y-144891410D01*
X140383550Y-145022685D01*
X140566046Y-145120232D01*
X140764066Y-145180300D01*
X140970000Y-145200583D01*
X141175934Y-145180300D01*
X141373954Y-145120232D01*
X141556450Y-145022685D01*
X141716410Y-144891410D01*
X141847685Y-144731450D01*
X141945232Y-144548954D01*
X142005300Y-144350934D01*
X142025583Y-144145000D01*
X142454417Y-144145000D01*
X142474700Y-144350934D01*
X142534768Y-144548954D01*
X142632315Y-144731450D01*
X142763590Y-144891410D01*
X142923550Y-145022685D01*
X143106046Y-145120232D01*
X143304066Y-145180300D01*
X143510000Y-145200583D01*
X143715934Y-145180300D01*
X143913954Y-145120232D01*
X144096450Y-145022685D01*
X144256410Y-144891410D01*
X144387685Y-144731450D01*
X144485232Y-144548954D01*
X144545300Y-144350934D01*
X144565583Y-144145000D01*
X144994417Y-144145000D01*
X145014700Y-144350934D01*
X145074768Y-144548954D01*
X145172315Y-144731450D01*
X145303590Y-144891410D01*
X145463550Y-145022685D01*
X145646046Y-145120232D01*
X145844066Y-145180300D01*
X146050000Y-145200583D01*
X146255934Y-145180300D01*
X146453954Y-145120232D01*
X146636450Y-145022685D01*
X146796410Y-144891410D01*
X146927685Y-144731450D01*
X147025232Y-144548954D01*
X147085300Y-144350934D01*
X147105583Y-144145000D01*
X147534417Y-144145000D01*
X147554700Y-144350934D01*
X147614768Y-144548954D01*
X147712315Y-144731450D01*
X147843590Y-144891410D01*
X148003550Y-145022685D01*
X148186046Y-145120232D01*
X148384066Y-145180300D01*
X148590000Y-145200583D01*
X148795934Y-145180300D01*
X148993954Y-145120232D01*
X149176450Y-145022685D01*
X149336410Y-144891410D01*
X149467685Y-144731450D01*
X149565232Y-144548954D01*
X149625300Y-144350934D01*
X149645583Y-144145000D01*
X150074417Y-144145000D01*
X150094700Y-144350934D01*
X150154768Y-144548954D01*
X150252315Y-144731450D01*
X150383590Y-144891410D01*
X150543550Y-145022685D01*
X150726046Y-145120232D01*
X150924066Y-145180300D01*
X151130000Y-145200583D01*
X151335934Y-145180300D01*
X151533954Y-145120232D01*
X151716450Y-145022685D01*
X151876410Y-144891410D01*
X152007685Y-144731450D01*
X152105232Y-144548954D01*
X152165300Y-144350934D01*
X152185583Y-144145000D01*
X152614417Y-144145000D01*
X152634700Y-144350934D01*
X152694768Y-144548954D01*
X152792315Y-144731450D01*
X152923590Y-144891410D01*
X153083550Y-145022685D01*
X153266046Y-145120232D01*
X153464066Y-145180300D01*
X153670000Y-145200583D01*
X153875934Y-145180300D01*
X154073954Y-145120232D01*
X154256450Y-145022685D01*
X154416410Y-144891410D01*
X154547685Y-144731450D01*
X154645232Y-144548954D01*
X154705300Y-144350934D01*
X154725583Y-144145000D01*
X157694417Y-144145000D01*
X157714700Y-144350934D01*
X157774768Y-144548954D01*
X157872315Y-144731450D01*
X158003590Y-144891410D01*
X158163550Y-145022685D01*
X158346046Y-145120232D01*
X158544066Y-145180300D01*
X158750000Y-145200583D01*
X158955934Y-145180300D01*
X159153954Y-145120232D01*
X159336450Y-145022685D01*
X159496410Y-144891410D01*
X159627685Y-144731450D01*
X159725232Y-144548954D01*
X159785300Y-144350934D01*
X159805583Y-144145000D01*
X160234417Y-144145000D01*
X160254700Y-144350934D01*
X160314768Y-144548954D01*
X160412315Y-144731450D01*
X160543590Y-144891410D01*
X160703550Y-145022685D01*
X160886046Y-145120232D01*
X161084066Y-145180300D01*
X161290000Y-145200583D01*
X161495934Y-145180300D01*
X161693954Y-145120232D01*
X161876450Y-145022685D01*
X162036410Y-144891410D01*
X162167685Y-144731450D01*
X162265232Y-144548954D01*
X162325300Y-144350934D01*
X162345583Y-144145000D01*
X162774417Y-144145000D01*
X162794700Y-144350934D01*
X162854768Y-144548954D01*
X162952315Y-144731450D01*
X163083590Y-144891410D01*
X163243550Y-145022685D01*
X163426046Y-145120232D01*
X163624066Y-145180300D01*
X163830000Y-145200583D01*
X164035934Y-145180300D01*
X164233954Y-145120232D01*
X164416450Y-145022685D01*
X164576410Y-144891410D01*
X164707685Y-144731450D01*
X164805232Y-144548954D01*
X164865300Y-144350934D01*
X164885583Y-144145000D01*
X164865300Y-143939066D01*
X164805232Y-143741046D01*
X164707685Y-143558550D01*
X164576410Y-143398590D01*
X164416450Y-143267315D01*
X164233954Y-143169768D01*
X164122158Y-143135855D01*
X164035935Y-143109700D01*
X163830000Y-143089417D01*
X163624064Y-143109700D01*
X163426043Y-143169769D01*
X163243549Y-143267315D01*
X163083590Y-143398589D01*
X163083589Y-143398590D01*
X162952315Y-143558549D01*
X162854769Y-143741043D01*
X162794700Y-143939064D01*
X162794700Y-143939066D01*
X162774417Y-144145000D01*
X162345583Y-144145000D01*
X162325300Y-143939066D01*
X162265232Y-143741046D01*
X162167685Y-143558550D01*
X162036410Y-143398590D01*
X161876450Y-143267315D01*
X161693954Y-143169768D01*
X161582158Y-143135855D01*
X161495935Y-143109700D01*
X161290000Y-143089417D01*
X161084064Y-143109700D01*
X160886043Y-143169769D01*
X160703549Y-143267315D01*
X160543590Y-143398589D01*
X160543589Y-143398590D01*
X160412315Y-143558549D01*
X160314769Y-143741043D01*
X160254700Y-143939064D01*
X160254700Y-143939066D01*
X160234417Y-144145000D01*
X159805583Y-144145000D01*
X159785300Y-143939066D01*
X159725232Y-143741046D01*
X159627685Y-143558550D01*
X159496410Y-143398590D01*
X159336450Y-143267315D01*
X159153954Y-143169768D01*
X159042158Y-143135855D01*
X158955935Y-143109700D01*
X158750000Y-143089417D01*
X158544064Y-143109700D01*
X158346043Y-143169769D01*
X158163549Y-143267315D01*
X158003590Y-143398589D01*
X158003589Y-143398590D01*
X157872315Y-143558549D01*
X157774769Y-143741043D01*
X157714700Y-143939064D01*
X157714700Y-143939066D01*
X157694417Y-144145000D01*
X154725583Y-144145000D01*
X154705300Y-143939066D01*
X154645232Y-143741046D01*
X154547685Y-143558550D01*
X154416410Y-143398590D01*
X154256450Y-143267315D01*
X154073954Y-143169768D01*
X153962158Y-143135855D01*
X153875935Y-143109700D01*
X153670000Y-143089417D01*
X153464064Y-143109700D01*
X153266043Y-143169769D01*
X153083549Y-143267315D01*
X152923590Y-143398589D01*
X152923589Y-143398590D01*
X152792315Y-143558549D01*
X152694769Y-143741043D01*
X152634700Y-143939064D01*
X152634700Y-143939066D01*
X152614417Y-144145000D01*
X152185583Y-144145000D01*
X152165300Y-143939066D01*
X152105232Y-143741046D01*
X152007685Y-143558550D01*
X151876410Y-143398590D01*
X151716450Y-143267315D01*
X151533954Y-143169768D01*
X151422158Y-143135855D01*
X151335935Y-143109700D01*
X151130000Y-143089417D01*
X150924064Y-143109700D01*
X150726043Y-143169769D01*
X150543549Y-143267315D01*
X150383590Y-143398589D01*
X150383589Y-143398590D01*
X150252315Y-143558549D01*
X150154769Y-143741043D01*
X150094700Y-143939064D01*
X150094700Y-143939066D01*
X150074417Y-144145000D01*
X149645583Y-144145000D01*
X149625300Y-143939066D01*
X149565232Y-143741046D01*
X149467685Y-143558550D01*
X149336410Y-143398590D01*
X149176450Y-143267315D01*
X148993954Y-143169768D01*
X148882158Y-143135855D01*
X148795935Y-143109700D01*
X148590000Y-143089417D01*
X148384064Y-143109700D01*
X148186043Y-143169769D01*
X148003549Y-143267315D01*
X147843590Y-143398589D01*
X147843589Y-143398590D01*
X147712315Y-143558549D01*
X147614769Y-143741043D01*
X147554700Y-143939064D01*
X147554700Y-143939066D01*
X147534417Y-144145000D01*
X147105583Y-144145000D01*
X147085300Y-143939066D01*
X147025232Y-143741046D01*
X146927685Y-143558550D01*
X146796410Y-143398590D01*
X146636450Y-143267315D01*
X146453954Y-143169768D01*
X146342158Y-143135855D01*
X146255935Y-143109700D01*
X146050000Y-143089417D01*
X145844064Y-143109700D01*
X145646043Y-143169769D01*
X145463549Y-143267315D01*
X145303590Y-143398589D01*
X145303589Y-143398590D01*
X145172315Y-143558549D01*
X145074769Y-143741043D01*
X145014700Y-143939064D01*
X145014700Y-143939066D01*
X144994417Y-144145000D01*
X144565583Y-144145000D01*
X144545300Y-143939066D01*
X144485232Y-143741046D01*
X144387685Y-143558550D01*
X144256410Y-143398590D01*
X144096450Y-143267315D01*
X143913954Y-143169768D01*
X143802158Y-143135855D01*
X143715935Y-143109700D01*
X143510000Y-143089417D01*
X143304064Y-143109700D01*
X143106043Y-143169769D01*
X142923549Y-143267315D01*
X142763590Y-143398589D01*
X142763589Y-143398590D01*
X142632315Y-143558549D01*
X142534769Y-143741043D01*
X142474700Y-143939064D01*
X142474700Y-143939066D01*
X142454417Y-144145000D01*
X142025583Y-144145000D01*
X142005300Y-143939066D01*
X141945232Y-143741046D01*
X141847685Y-143558550D01*
X141716410Y-143398590D01*
X141556450Y-143267315D01*
X141373954Y-143169768D01*
X141262158Y-143135855D01*
X141175935Y-143109700D01*
X140970000Y-143089417D01*
X140764064Y-143109700D01*
X140566043Y-143169769D01*
X140383549Y-143267315D01*
X140223590Y-143398589D01*
X140223589Y-143398590D01*
X140092315Y-143558549D01*
X139994769Y-143741043D01*
X139934700Y-143939064D01*
X139934700Y-143939066D01*
X139914417Y-144145000D01*
X139485583Y-144145000D01*
X139465300Y-143939066D01*
X139405232Y-143741046D01*
X139307685Y-143558550D01*
X139176410Y-143398590D01*
X139016450Y-143267315D01*
X138833954Y-143169768D01*
X138722158Y-143135855D01*
X138635935Y-143109700D01*
X138430000Y-143089417D01*
X138224064Y-143109700D01*
X138026043Y-143169769D01*
X137843549Y-143267315D01*
X137683590Y-143398589D01*
X137683589Y-143398590D01*
X137552315Y-143558549D01*
X137454769Y-143741043D01*
X137394700Y-143939064D01*
X137394700Y-143939066D01*
X137374417Y-144145000D01*
X136940500Y-144145000D01*
X136940500Y-143275252D01*
X136928867Y-143216769D01*
X136884552Y-143150448D01*
X136862343Y-143135608D01*
X136818232Y-143106133D01*
X136818233Y-143106133D01*
X136788989Y-143100316D01*
X136759748Y-143094500D01*
X135020252Y-143094500D01*
X134991010Y-143100316D01*
X134961767Y-143106133D01*
X134895449Y-143150447D01*
X134895447Y-143150449D01*
X134851133Y-143216767D01*
X134839500Y-143275253D01*
X134839500Y-145014746D01*
X100000500Y-145014746D01*
X100000500Y-129774746D01*
X134839500Y-129774746D01*
X134851133Y-129833232D01*
X134880608Y-129877343D01*
X134895448Y-129899552D01*
X134939560Y-129929027D01*
X134961767Y-129943866D01*
X134961768Y-129943866D01*
X134961769Y-129943867D01*
X135020252Y-129955500D01*
X135020254Y-129955500D01*
X136759746Y-129955500D01*
X136759748Y-129955500D01*
X136818231Y-129943867D01*
X136884552Y-129899552D01*
X136928867Y-129833231D01*
X136940500Y-129774748D01*
X136940500Y-128905000D01*
X137374417Y-128905000D01*
X137394700Y-129110934D01*
X137454768Y-129308954D01*
X137552315Y-129491450D01*
X137683590Y-129651410D01*
X137843550Y-129782685D01*
X138026046Y-129880232D01*
X138224066Y-129940300D01*
X138430000Y-129960583D01*
X138635934Y-129940300D01*
X138833954Y-129880232D01*
X139016450Y-129782685D01*
X139176410Y-129651410D01*
X139307685Y-129491450D01*
X139405232Y-129308954D01*
X139465300Y-129110934D01*
X139485583Y-128905000D01*
X139465300Y-128699066D01*
X139405232Y-128501046D01*
X139375782Y-128445950D01*
X139367825Y-128431063D01*
X139360671Y-128380952D01*
X139380759Y-128343855D01*
X141327442Y-126397174D01*
X141373319Y-126375782D01*
X141379768Y-126375500D01*
X143045606Y-126375500D01*
X143075123Y-126386243D01*
X143093138Y-126376361D01*
X143104394Y-126375500D01*
X144609697Y-126375500D01*
X144657263Y-126392813D01*
X144682573Y-126436650D01*
X144673783Y-126486500D01*
X144665614Y-126497968D01*
X144664740Y-126498976D01*
X144620501Y-126523574D01*
X144608830Y-126524500D01*
X143109421Y-126524500D01*
X143094986Y-126523078D01*
X143089955Y-126522077D01*
X143076803Y-126514096D01*
X143070915Y-126519037D01*
X143060042Y-126522078D01*
X142967506Y-126540483D01*
X142901307Y-126584715D01*
X142901305Y-126584718D01*
X142876376Y-126601375D01*
X142876374Y-126601377D01*
X142865053Y-126618319D01*
X142855853Y-126629529D01*
X141531144Y-127954238D01*
X141485268Y-127975630D01*
X141443935Y-127967174D01*
X141373954Y-127929768D01*
X141236003Y-127887921D01*
X141175935Y-127869700D01*
X140970000Y-127849417D01*
X140764064Y-127869700D01*
X140566043Y-127929769D01*
X140383549Y-128027315D01*
X140223590Y-128158589D01*
X140223589Y-128158590D01*
X140092315Y-128318549D01*
X139994769Y-128501043D01*
X139934700Y-128699064D01*
X139918158Y-128867021D01*
X139914417Y-128905000D01*
X139934700Y-129110934D01*
X139994768Y-129308954D01*
X140092315Y-129491450D01*
X140223590Y-129651410D01*
X140383550Y-129782685D01*
X140566046Y-129880232D01*
X140764066Y-129940300D01*
X140970000Y-129960583D01*
X141175934Y-129940300D01*
X141373954Y-129880232D01*
X141556450Y-129782685D01*
X141716410Y-129651410D01*
X141847685Y-129491450D01*
X141945232Y-129308954D01*
X142005300Y-129110934D01*
X142025583Y-128905000D01*
X142454417Y-128905000D01*
X142474700Y-129110934D01*
X142534768Y-129308954D01*
X142632315Y-129491450D01*
X142763590Y-129651410D01*
X142923550Y-129782685D01*
X143106046Y-129880232D01*
X143304066Y-129940300D01*
X143510000Y-129960583D01*
X143715934Y-129940300D01*
X143913954Y-129880232D01*
X144096450Y-129782685D01*
X144256410Y-129651410D01*
X144387685Y-129491450D01*
X144485232Y-129308954D01*
X144545300Y-129110934D01*
X144565583Y-128905000D01*
X144994417Y-128905000D01*
X145014700Y-129110934D01*
X145074768Y-129308954D01*
X145172315Y-129491450D01*
X145303590Y-129651410D01*
X145463550Y-129782685D01*
X145646046Y-129880232D01*
X145844066Y-129940300D01*
X146050000Y-129960583D01*
X146255934Y-129940300D01*
X146453954Y-129880232D01*
X146636450Y-129782685D01*
X146796410Y-129651410D01*
X146927685Y-129491450D01*
X147025232Y-129308954D01*
X147085300Y-129110934D01*
X147105583Y-128905000D01*
X147534417Y-128905000D01*
X147554700Y-129110934D01*
X147614768Y-129308954D01*
X147712315Y-129491450D01*
X147843590Y-129651410D01*
X148003550Y-129782685D01*
X148186046Y-129880232D01*
X148384066Y-129940300D01*
X148590000Y-129960583D01*
X148795934Y-129940300D01*
X148993954Y-129880232D01*
X149176450Y-129782685D01*
X149336410Y-129651410D01*
X149467685Y-129491450D01*
X149565232Y-129308954D01*
X149625300Y-129110934D01*
X149645583Y-128905000D01*
X150074417Y-128905000D01*
X150094700Y-129110934D01*
X150154768Y-129308954D01*
X150252315Y-129491450D01*
X150383590Y-129651410D01*
X150543550Y-129782685D01*
X150726046Y-129880232D01*
X150924066Y-129940300D01*
X151130000Y-129960583D01*
X151335934Y-129940300D01*
X151533954Y-129880232D01*
X151716450Y-129782685D01*
X151876410Y-129651410D01*
X152007685Y-129491450D01*
X152105232Y-129308954D01*
X152165300Y-129110934D01*
X152185583Y-128905000D01*
X152165300Y-128699066D01*
X152105232Y-128501046D01*
X152007685Y-128318550D01*
X151876410Y-128158590D01*
X151716450Y-128027315D01*
X151533954Y-127929768D01*
X151422158Y-127895855D01*
X151335935Y-127869700D01*
X151130000Y-127849417D01*
X150924064Y-127869700D01*
X150726043Y-127929769D01*
X150543549Y-128027315D01*
X150383590Y-128158589D01*
X150383589Y-128158590D01*
X150252315Y-128318549D01*
X150154769Y-128501043D01*
X150094700Y-128699064D01*
X150078158Y-128867021D01*
X150074417Y-128905000D01*
X149645583Y-128905000D01*
X149625300Y-128699066D01*
X149565232Y-128501046D01*
X149467685Y-128318550D01*
X149336410Y-128158590D01*
X149176450Y-128027315D01*
X148993954Y-127929768D01*
X148882158Y-127895855D01*
X148795935Y-127869700D01*
X148590000Y-127849417D01*
X148384064Y-127869700D01*
X148186043Y-127929769D01*
X148003549Y-128027315D01*
X147843590Y-128158589D01*
X147843589Y-128158590D01*
X147712315Y-128318549D01*
X147614769Y-128501043D01*
X147554700Y-128699064D01*
X147538158Y-128867021D01*
X147534417Y-128905000D01*
X147105583Y-128905000D01*
X147085300Y-128699066D01*
X147025232Y-128501046D01*
X146927685Y-128318550D01*
X146796410Y-128158590D01*
X146636450Y-128027315D01*
X146453954Y-127929768D01*
X146342158Y-127895855D01*
X146255935Y-127869700D01*
X146050000Y-127849417D01*
X145844064Y-127869700D01*
X145646043Y-127929769D01*
X145463549Y-128027315D01*
X145303590Y-128158589D01*
X145303589Y-128158590D01*
X145172315Y-128318549D01*
X145074769Y-128501043D01*
X145014700Y-128699064D01*
X144998158Y-128867021D01*
X144994417Y-128905000D01*
X144565583Y-128905000D01*
X144545300Y-128699066D01*
X144485232Y-128501046D01*
X144387685Y-128318550D01*
X144256410Y-128158590D01*
X144096450Y-128027315D01*
X143913954Y-127929768D01*
X143802158Y-127895855D01*
X143715935Y-127869700D01*
X143510000Y-127849417D01*
X143304064Y-127869700D01*
X143106043Y-127929769D01*
X142923549Y-128027315D01*
X142763590Y-128158589D01*
X142763589Y-128158590D01*
X142632315Y-128318549D01*
X142534769Y-128501043D01*
X142474700Y-128699064D01*
X142458158Y-128867021D01*
X142454417Y-128905000D01*
X142025583Y-128905000D01*
X142005300Y-128699066D01*
X141945232Y-128501046D01*
X141915782Y-128445950D01*
X141907825Y-128431063D01*
X141900671Y-128380952D01*
X141920759Y-128343855D01*
X143167442Y-127097174D01*
X143213319Y-127075782D01*
X143219768Y-127075500D01*
X144608830Y-127075500D01*
X144656396Y-127092813D01*
X144664756Y-127101041D01*
X144701947Y-127143963D01*
X144701948Y-127143964D01*
X144701951Y-127143967D01*
X144810931Y-127214004D01*
X144935228Y-127250500D01*
X145064772Y-127250500D01*
X145189069Y-127214004D01*
X145298049Y-127143967D01*
X145382882Y-127046063D01*
X145436697Y-126928226D01*
X145455133Y-126800000D01*
X145436697Y-126671774D01*
X145382882Y-126553937D01*
X145382880Y-126553935D01*
X145382880Y-126553934D01*
X145382879Y-126553932D01*
X145334378Y-126497959D01*
X145316313Y-126450674D01*
X145332869Y-126402839D01*
X145376300Y-126376837D01*
X145390304Y-126375500D01*
X146308830Y-126375500D01*
X146356396Y-126392813D01*
X146364756Y-126401041D01*
X146401947Y-126443963D01*
X146401948Y-126443964D01*
X146401951Y-126443967D01*
X146510931Y-126514004D01*
X146635228Y-126550500D01*
X146764772Y-126550500D01*
X146889069Y-126514004D01*
X146998049Y-126443967D01*
X147082882Y-126346063D01*
X147136697Y-126228226D01*
X147155133Y-126100000D01*
X147136697Y-125971774D01*
X147082882Y-125853937D01*
X146998049Y-125756033D01*
X146931032Y-125712964D01*
X146889068Y-125685995D01*
X146764772Y-125649500D01*
X146635228Y-125649500D01*
X146510931Y-125685995D01*
X146401954Y-125756031D01*
X146401947Y-125756036D01*
X146364756Y-125798959D01*
X146320523Y-125823570D01*
X146308830Y-125824500D01*
X141269420Y-125824500D01*
X141254983Y-125823078D01*
X141235000Y-125819103D01*
X141234999Y-125819103D01*
X141207868Y-125824500D01*
X141207867Y-125824500D01*
X141181079Y-125829828D01*
X141127503Y-125840485D01*
X141107373Y-125853937D01*
X141061305Y-125884718D01*
X141036376Y-125901375D01*
X141036374Y-125901377D01*
X141025053Y-125918319D01*
X141015853Y-125929529D01*
X138991144Y-127954238D01*
X138945268Y-127975630D01*
X138903935Y-127967174D01*
X138833954Y-127929768D01*
X138696003Y-127887921D01*
X138635935Y-127869700D01*
X138430000Y-127849417D01*
X138224064Y-127869700D01*
X138026043Y-127929769D01*
X137843549Y-128027315D01*
X137683590Y-128158589D01*
X137683589Y-128158590D01*
X137552315Y-128318549D01*
X137454769Y-128501043D01*
X137394700Y-128699064D01*
X137378158Y-128867021D01*
X137374417Y-128905000D01*
X136940500Y-128905000D01*
X136940500Y-128035252D01*
X136928867Y-127976769D01*
X136884552Y-127910448D01*
X136862343Y-127895608D01*
X136818232Y-127866133D01*
X136818233Y-127866133D01*
X136788989Y-127860316D01*
X136759748Y-127854500D01*
X135020252Y-127854500D01*
X134991010Y-127860316D01*
X134961767Y-127866133D01*
X134895449Y-127910447D01*
X134895447Y-127910449D01*
X134851133Y-127976767D01*
X134839500Y-128035253D01*
X134839500Y-129774746D01*
X100000500Y-129774746D01*
X100000500Y-118290256D01*
X110662000Y-118290256D01*
X110664775Y-118319849D01*
X110664775Y-118319851D01*
X110664776Y-118319854D01*
X110708382Y-118444473D01*
X110749462Y-118500135D01*
X110786789Y-118550711D01*
X110806378Y-118565168D01*
X110893026Y-118629117D01*
X111017645Y-118672723D01*
X111017651Y-118672725D01*
X111047244Y-118675500D01*
X111047251Y-118675500D01*
X111952749Y-118675500D01*
X111952756Y-118675500D01*
X111982349Y-118672725D01*
X112055660Y-118647072D01*
X112106973Y-118629117D01*
X112106973Y-118629116D01*
X112106975Y-118629116D01*
X112213211Y-118550711D01*
X112291616Y-118444475D01*
X112335225Y-118319849D01*
X112338000Y-118290256D01*
X112338000Y-117709744D01*
X112335225Y-117680151D01*
X112296759Y-117570222D01*
X112291617Y-117555526D01*
X112229837Y-117471817D01*
X112213211Y-117449289D01*
X112153277Y-117405056D01*
X112106973Y-117370882D01*
X111982354Y-117327276D01*
X111982355Y-117327276D01*
X111982350Y-117327275D01*
X111982349Y-117327275D01*
X111952756Y-117324500D01*
X111047244Y-117324500D01*
X111017651Y-117327275D01*
X111017649Y-117327275D01*
X111017645Y-117327276D01*
X110893026Y-117370882D01*
X110786790Y-117449288D01*
X110786788Y-117449290D01*
X110708382Y-117555526D01*
X110664776Y-117680145D01*
X110664775Y-117680149D01*
X110664775Y-117680151D01*
X110662000Y-117709744D01*
X110662000Y-118290256D01*
X100000500Y-118290256D01*
X100000500Y-117405058D01*
X102824500Y-117405058D01*
X102859903Y-117548695D01*
X102865210Y-117570225D01*
X102937094Y-117707187D01*
X102944267Y-117720853D01*
X102944269Y-117720856D01*
X103012671Y-117798066D01*
X103057071Y-117848183D01*
X103197070Y-117944818D01*
X103356128Y-118005140D01*
X103482628Y-118020500D01*
X104367372Y-118020500D01*
X104493872Y-118005140D01*
X104652930Y-117944818D01*
X104792929Y-117848183D01*
X104905734Y-117720852D01*
X104984790Y-117570225D01*
X105025500Y-117405058D01*
X106874500Y-117405058D01*
X106909903Y-117548695D01*
X106915210Y-117570225D01*
X106987094Y-117707187D01*
X106994267Y-117720853D01*
X106994269Y-117720856D01*
X107062671Y-117798066D01*
X107107071Y-117848183D01*
X107247070Y-117944818D01*
X107406128Y-118005140D01*
X107532628Y-118020500D01*
X108717372Y-118020500D01*
X108843872Y-118005140D01*
X109002930Y-117944818D01*
X109142929Y-117848183D01*
X109255734Y-117720852D01*
X109334790Y-117570225D01*
X109375500Y-117405056D01*
X109375500Y-117234944D01*
X109334790Y-117069775D01*
X109255734Y-116919148D01*
X109142929Y-116791817D01*
X109076670Y-116746081D01*
X109002929Y-116695181D01*
X108843871Y-116634859D01*
X108717379Y-116619500D01*
X108717372Y-116619500D01*
X107532628Y-116619500D01*
X107532620Y-116619500D01*
X107406128Y-116634859D01*
X107247070Y-116695181D01*
X107107071Y-116791816D01*
X106994269Y-116919143D01*
X106994267Y-116919146D01*
X106915209Y-117069777D01*
X106874500Y-117234941D01*
X106874500Y-117405058D01*
X105025500Y-117405058D01*
X105025500Y-117405056D01*
X105025500Y-117234944D01*
X104984790Y-117069775D01*
X104905734Y-116919148D01*
X104792929Y-116791817D01*
X104726670Y-116746081D01*
X104652929Y-116695181D01*
X104493871Y-116634859D01*
X104367379Y-116619500D01*
X104367372Y-116619500D01*
X103482628Y-116619500D01*
X103482620Y-116619500D01*
X103356128Y-116634859D01*
X103197070Y-116695181D01*
X103057071Y-116791816D01*
X102944269Y-116919143D01*
X102944267Y-116919146D01*
X102865209Y-117069777D01*
X102824500Y-117234941D01*
X102824500Y-117405058D01*
X100000500Y-117405058D01*
X100000500Y-115926197D01*
X107075795Y-115926197D01*
X107090700Y-115997924D01*
X107105186Y-116067634D01*
X107105187Y-116067636D01*
X107105189Y-116067642D01*
X107171643Y-116195892D01*
X107171646Y-116195896D01*
X107247320Y-116276922D01*
X107270245Y-116301469D01*
X107393672Y-116376526D01*
X107480204Y-116400771D01*
X107532771Y-116415500D01*
X107532772Y-116415500D01*
X107640942Y-116415500D01*
X107640949Y-116415500D01*
X107748111Y-116400771D01*
X107880609Y-116343219D01*
X107992665Y-116252054D01*
X108075971Y-116134037D01*
X108124346Y-115997921D01*
X108126406Y-115967813D01*
X108134204Y-115853802D01*
X108134204Y-115853801D01*
X108132161Y-115843968D01*
X108104814Y-115712366D01*
X108104810Y-115712360D01*
X108104810Y-115712357D01*
X108038356Y-115584107D01*
X108038353Y-115584103D01*
X107939754Y-115478530D01*
X107816328Y-115403474D01*
X107677229Y-115364500D01*
X107677228Y-115364500D01*
X107569051Y-115364500D01*
X107569046Y-115364500D01*
X107461892Y-115379228D01*
X107461890Y-115379228D01*
X107461889Y-115379229D01*
X107329391Y-115436781D01*
X107329389Y-115436782D01*
X107329388Y-115436782D01*
X107217334Y-115527946D01*
X107217333Y-115527947D01*
X107134032Y-115645958D01*
X107134027Y-115645966D01*
X107085655Y-115782075D01*
X107085652Y-115782087D01*
X107075795Y-115926197D01*
X100000500Y-115926197D01*
X100000500Y-114290256D01*
X105162000Y-114290256D01*
X105164775Y-114319849D01*
X105164775Y-114319851D01*
X105164776Y-114319854D01*
X105208382Y-114444473D01*
X105241767Y-114489708D01*
X105286789Y-114550711D01*
X105365195Y-114608576D01*
X105393026Y-114629117D01*
X105517645Y-114672723D01*
X105517651Y-114672725D01*
X105547244Y-114675500D01*
X105547251Y-114675500D01*
X106452749Y-114675500D01*
X106452756Y-114675500D01*
X106482349Y-114672725D01*
X106539032Y-114652890D01*
X106606973Y-114629117D01*
X106606973Y-114629116D01*
X106606975Y-114629116D01*
X106713211Y-114550711D01*
X106750637Y-114500000D01*
X131500000Y-114500000D01*
X133500000Y-116500000D01*
X137000000Y-116500000D01*
X138500000Y-115000000D01*
X138500000Y-111074000D01*
X138517313Y-111026434D01*
X138561150Y-111001124D01*
X138574000Y-111000000D01*
X143500000Y-111000000D01*
X143500000Y-110000000D01*
X138574000Y-110000000D01*
X138526434Y-109982687D01*
X138501124Y-109938850D01*
X138500000Y-109926000D01*
X138500000Y-106000000D01*
X137000000Y-104500000D01*
X133500000Y-104500000D01*
X131500000Y-106500000D01*
X131500000Y-114500000D01*
X106750637Y-114500000D01*
X106791616Y-114444475D01*
X106794256Y-114436932D01*
X106822393Y-114356519D01*
X106835225Y-114319849D01*
X106838000Y-114290256D01*
X106838000Y-113709744D01*
X106835225Y-113680151D01*
X106835223Y-113680145D01*
X106791617Y-113555526D01*
X106750637Y-113500000D01*
X106713211Y-113449289D01*
X106608184Y-113371776D01*
X106606973Y-113370882D01*
X106482354Y-113327276D01*
X106482355Y-113327276D01*
X106482350Y-113327275D01*
X106482349Y-113327275D01*
X106452756Y-113324500D01*
X105547244Y-113324500D01*
X105517651Y-113327275D01*
X105517649Y-113327275D01*
X105517645Y-113327276D01*
X105393026Y-113370882D01*
X105286790Y-113449288D01*
X105286788Y-113449290D01*
X105208382Y-113555526D01*
X105164776Y-113680145D01*
X105164775Y-113680149D01*
X105164775Y-113680151D01*
X105162000Y-113709744D01*
X105162000Y-114290256D01*
X100000500Y-114290256D01*
X100000500Y-112290256D01*
X105162000Y-112290256D01*
X105164775Y-112319849D01*
X105164775Y-112319851D01*
X105164776Y-112319854D01*
X105208382Y-112444473D01*
X105249462Y-112500135D01*
X105286789Y-112550711D01*
X105334598Y-112585995D01*
X105393026Y-112629117D01*
X105517645Y-112672723D01*
X105517651Y-112672725D01*
X105547244Y-112675500D01*
X105547251Y-112675500D01*
X106452749Y-112675500D01*
X106452756Y-112675500D01*
X106482349Y-112672725D01*
X106539032Y-112652890D01*
X106606973Y-112629117D01*
X106606973Y-112629116D01*
X106606975Y-112629116D01*
X106713211Y-112550711D01*
X106791616Y-112444475D01*
X106793579Y-112438867D01*
X106815390Y-112376532D01*
X106835225Y-112319849D01*
X106838000Y-112290256D01*
X106838000Y-111709744D01*
X106835225Y-111680151D01*
X106831837Y-111670468D01*
X106791617Y-111555526D01*
X106750637Y-111500000D01*
X106713211Y-111449289D01*
X106608184Y-111371776D01*
X106606973Y-111370882D01*
X106482354Y-111327276D01*
X106482355Y-111327276D01*
X106482350Y-111327275D01*
X106482349Y-111327275D01*
X106452756Y-111324500D01*
X105547244Y-111324500D01*
X105517651Y-111327275D01*
X105517649Y-111327275D01*
X105517645Y-111327276D01*
X105393026Y-111370882D01*
X105286790Y-111449288D01*
X105286788Y-111449290D01*
X105208382Y-111555526D01*
X105164776Y-111680145D01*
X105164775Y-111680149D01*
X105164775Y-111680151D01*
X105162000Y-111709744D01*
X105162000Y-112290256D01*
X100000500Y-112290256D01*
X100000500Y-110146197D01*
X107075795Y-110146197D01*
X107090700Y-110217924D01*
X107105186Y-110287634D01*
X107105187Y-110287636D01*
X107105189Y-110287642D01*
X107171643Y-110415892D01*
X107171646Y-110415896D01*
X107253042Y-110503049D01*
X107270245Y-110521469D01*
X107393672Y-110596526D01*
X107460742Y-110615318D01*
X107532771Y-110635500D01*
X107532772Y-110635500D01*
X107640942Y-110635500D01*
X107640949Y-110635500D01*
X107748111Y-110620771D01*
X107880609Y-110563219D01*
X107992665Y-110472054D01*
X108075971Y-110354037D01*
X108124346Y-110217921D01*
X108134204Y-110073801D01*
X108104814Y-109932366D01*
X108104810Y-109932360D01*
X108104810Y-109932357D01*
X108038356Y-109804107D01*
X108038353Y-109804103D01*
X107939754Y-109698530D01*
X107816328Y-109623474D01*
X107677229Y-109584500D01*
X107677228Y-109584500D01*
X107569051Y-109584500D01*
X107569046Y-109584500D01*
X107461892Y-109599228D01*
X107461890Y-109599228D01*
X107461889Y-109599229D01*
X107329391Y-109656781D01*
X107329389Y-109656782D01*
X107329388Y-109656782D01*
X107217334Y-109747946D01*
X107217333Y-109747947D01*
X107134032Y-109865958D01*
X107134027Y-109865966D01*
X107085655Y-110002075D01*
X107085652Y-110002087D01*
X107075795Y-110146197D01*
X100000500Y-110146197D01*
X100000500Y-108765058D01*
X102824500Y-108765058D01*
X102851642Y-108875177D01*
X102865210Y-108930225D01*
X102943709Y-109079790D01*
X102944267Y-109080853D01*
X102944269Y-109080856D01*
X102994013Y-109137005D01*
X103057071Y-109208183D01*
X103197070Y-109304818D01*
X103356128Y-109365140D01*
X103482628Y-109380500D01*
X104367372Y-109380500D01*
X104493872Y-109365140D01*
X104652930Y-109304818D01*
X104792929Y-109208183D01*
X104905734Y-109080852D01*
X104984790Y-108930225D01*
X105025500Y-108765058D01*
X106874500Y-108765058D01*
X106901642Y-108875177D01*
X106915210Y-108930225D01*
X106993709Y-109079790D01*
X106994267Y-109080853D01*
X106994269Y-109080856D01*
X107044013Y-109137005D01*
X107107071Y-109208183D01*
X107247070Y-109304818D01*
X107406128Y-109365140D01*
X107532628Y-109380500D01*
X108717372Y-109380500D01*
X108843872Y-109365140D01*
X109002930Y-109304818D01*
X109142929Y-109208183D01*
X109255734Y-109080852D01*
X109334790Y-108930225D01*
X109375500Y-108765056D01*
X109375500Y-108594944D01*
X109334790Y-108429775D01*
X109255734Y-108279148D01*
X109142929Y-108151817D01*
X109130850Y-108143479D01*
X109002929Y-108055181D01*
X108843871Y-107994859D01*
X108717379Y-107979500D01*
X108717372Y-107979500D01*
X107532628Y-107979500D01*
X107532620Y-107979500D01*
X107406128Y-107994859D01*
X107247070Y-108055181D01*
X107107071Y-108151816D01*
X106994269Y-108279143D01*
X106994267Y-108279146D01*
X106994266Y-108279148D01*
X106920343Y-108419996D01*
X106915209Y-108429777D01*
X106874500Y-108594941D01*
X106874500Y-108765058D01*
X105025500Y-108765058D01*
X105025500Y-108765056D01*
X105025500Y-108594944D01*
X104984790Y-108429775D01*
X104905734Y-108279148D01*
X104792929Y-108151817D01*
X104780850Y-108143479D01*
X104652929Y-108055181D01*
X104493871Y-107994859D01*
X104367379Y-107979500D01*
X104367372Y-107979500D01*
X103482628Y-107979500D01*
X103482620Y-107979500D01*
X103356128Y-107994859D01*
X103197070Y-108055181D01*
X103057071Y-108151816D01*
X102944269Y-108279143D01*
X102944267Y-108279146D01*
X102944266Y-108279148D01*
X102870343Y-108419996D01*
X102865209Y-108429777D01*
X102824500Y-108594941D01*
X102824500Y-108765058D01*
X100000500Y-108765058D01*
X100000500Y-107790256D01*
X110662000Y-107790256D01*
X110664775Y-107819849D01*
X110664775Y-107819851D01*
X110664776Y-107819854D01*
X110708382Y-107944473D01*
X110734233Y-107979500D01*
X110786789Y-108050711D01*
X110842829Y-108092070D01*
X110893026Y-108129117D01*
X111017645Y-108172723D01*
X111017651Y-108172725D01*
X111047244Y-108175500D01*
X111047251Y-108175500D01*
X111952749Y-108175500D01*
X111952756Y-108175500D01*
X111982349Y-108172725D01*
X112042103Y-108151816D01*
X112106973Y-108129117D01*
X112106973Y-108129116D01*
X112106975Y-108129116D01*
X112213211Y-108050711D01*
X112291616Y-107944475D01*
X112308708Y-107895631D01*
X112315390Y-107876532D01*
X112335225Y-107819849D01*
X112338000Y-107790256D01*
X112787000Y-107790256D01*
X112789775Y-107819849D01*
X112789775Y-107819851D01*
X112789776Y-107819854D01*
X112833382Y-107944473D01*
X112859233Y-107979500D01*
X112911789Y-108050711D01*
X112967829Y-108092070D01*
X113018026Y-108129117D01*
X113142645Y-108172723D01*
X113142651Y-108172725D01*
X113172244Y-108175500D01*
X113172251Y-108175500D01*
X114077749Y-108175500D01*
X114077756Y-108175500D01*
X114107349Y-108172725D01*
X114231975Y-108129116D01*
X114331760Y-108055472D01*
X114338206Y-108050715D01*
X114338206Y-108050714D01*
X114338211Y-108050711D01*
X114389986Y-107980558D01*
X114432161Y-107952566D01*
X114449526Y-107950500D01*
X115429191Y-107950500D01*
X115476757Y-107967813D01*
X115481517Y-107972174D01*
X115564815Y-108055472D01*
X115710394Y-108143478D01*
X115803973Y-108172637D01*
X115872797Y-108194084D01*
X115872798Y-108194084D01*
X115872804Y-108194086D01*
X116042606Y-108204358D01*
X116209932Y-108173695D01*
X116209933Y-108173694D01*
X116209935Y-108173694D01*
X116277068Y-108143479D01*
X116365057Y-108103878D01*
X116465367Y-108025290D01*
X125268483Y-99222174D01*
X125314359Y-99200782D01*
X125320809Y-99200500D01*
X134042372Y-99200500D01*
X134168872Y-99185140D01*
X134327930Y-99124818D01*
X134467929Y-99028183D01*
X134580734Y-98900852D01*
X134659790Y-98750225D01*
X134700500Y-98585056D01*
X134700500Y-98414944D01*
X134659790Y-98249775D01*
X134580734Y-98099148D01*
X134467929Y-97971817D01*
X134467927Y-97971815D01*
X134327929Y-97875181D01*
X134168871Y-97814859D01*
X134042379Y-97799500D01*
X134042372Y-97799500D01*
X125022287Y-97799500D01*
X125020053Y-97799432D01*
X124974357Y-97796668D01*
X124957394Y-97795642D01*
X124957393Y-97795642D01*
X124957391Y-97795642D01*
X124895631Y-97806959D01*
X124893423Y-97807295D01*
X124831130Y-97814859D01*
X124831125Y-97814860D01*
X124817411Y-97820061D01*
X124804516Y-97823656D01*
X124790068Y-97826304D01*
X124732819Y-97852069D01*
X124730755Y-97852925D01*
X124672067Y-97875182D01*
X124659988Y-97883520D01*
X124648331Y-97890095D01*
X124634946Y-97896120D01*
X124585535Y-97934829D01*
X124583735Y-97936153D01*
X124532072Y-97971815D01*
X124490450Y-98018796D01*
X124488918Y-98020423D01*
X115481517Y-107027826D01*
X115435641Y-107049218D01*
X115429191Y-107049500D01*
X114449526Y-107049500D01*
X114401960Y-107032187D01*
X114389986Y-107019442D01*
X114350077Y-106965367D01*
X114338211Y-106949289D01*
X114338209Y-106949287D01*
X114338206Y-106949284D01*
X114231976Y-106870884D01*
X114231974Y-106870883D01*
X114107354Y-106827276D01*
X114107355Y-106827276D01*
X114107350Y-106827275D01*
X114107349Y-106827275D01*
X114077756Y-106824500D01*
X113172244Y-106824500D01*
X113142651Y-106827275D01*
X113142649Y-106827275D01*
X113142645Y-106827276D01*
X113018026Y-106870882D01*
X112911790Y-106949288D01*
X112911788Y-106949290D01*
X112833382Y-107055526D01*
X112789776Y-107180145D01*
X112789775Y-107180149D01*
X112789775Y-107180151D01*
X112787000Y-107209744D01*
X112787000Y-107790256D01*
X112338000Y-107790256D01*
X112338000Y-107209744D01*
X112335225Y-107180151D01*
X112298717Y-107075818D01*
X112291617Y-107055526D01*
X112236770Y-106981211D01*
X112213211Y-106949289D01*
X112142768Y-106897300D01*
X112106973Y-106870882D01*
X111982354Y-106827276D01*
X111982355Y-106827276D01*
X111982350Y-106827275D01*
X111982349Y-106827275D01*
X111952756Y-106824500D01*
X111047244Y-106824500D01*
X111017651Y-106827275D01*
X111017649Y-106827275D01*
X111017645Y-106827276D01*
X110893026Y-106870882D01*
X110786790Y-106949288D01*
X110786788Y-106949290D01*
X110708382Y-107055526D01*
X110664776Y-107180145D01*
X110664775Y-107180149D01*
X110664775Y-107180151D01*
X110662000Y-107209744D01*
X110662000Y-107790256D01*
X100000500Y-107790256D01*
X100000500Y-85927756D01*
X108599500Y-85927756D01*
X108602275Y-85957349D01*
X108602275Y-85957351D01*
X108602276Y-85957354D01*
X108645882Y-86081973D01*
X108680017Y-86128224D01*
X108724289Y-86188211D01*
X108774728Y-86225436D01*
X108830526Y-86266617D01*
X108955145Y-86310223D01*
X108955151Y-86310225D01*
X108984744Y-86313000D01*
X108984751Y-86313000D01*
X109890249Y-86313000D01*
X109890256Y-86313000D01*
X109919849Y-86310225D01*
X110022433Y-86274329D01*
X110044473Y-86266617D01*
X110044473Y-86266616D01*
X110044475Y-86266616D01*
X110150711Y-86188211D01*
X110229116Y-86081975D01*
X110234041Y-86067902D01*
X110272723Y-85957354D01*
X110272722Y-85957354D01*
X110272725Y-85957349D01*
X110275500Y-85927756D01*
X110724500Y-85927756D01*
X110727275Y-85957349D01*
X110727275Y-85957351D01*
X110727276Y-85957354D01*
X110770882Y-86081973D01*
X110805017Y-86128224D01*
X110849289Y-86188211D01*
X110899728Y-86225436D01*
X110955526Y-86266617D01*
X111080145Y-86310223D01*
X111080151Y-86310225D01*
X111109744Y-86313000D01*
X111364397Y-86313000D01*
X111386411Y-86316350D01*
X111435304Y-86331586D01*
X111435303Y-86331586D01*
X111444466Y-86332140D01*
X111605106Y-86341858D01*
X111755968Y-86314211D01*
X111769307Y-86313000D01*
X112015249Y-86313000D01*
X112015256Y-86313000D01*
X112044849Y-86310225D01*
X112147433Y-86274329D01*
X112169473Y-86266617D01*
X112169473Y-86266616D01*
X112169475Y-86266616D01*
X112275711Y-86188211D01*
X112354116Y-86081975D01*
X112359041Y-86067902D01*
X112397723Y-85957354D01*
X112397722Y-85957354D01*
X112397725Y-85957349D01*
X112400500Y-85927756D01*
X112400500Y-85820809D01*
X112417813Y-85773243D01*
X112422174Y-85768483D01*
X114468483Y-83722174D01*
X114514359Y-83700782D01*
X114520809Y-83700500D01*
X121174079Y-83700500D01*
X121221645Y-83717813D01*
X121223150Y-83719110D01*
X121268806Y-83759558D01*
X121270423Y-83761081D01*
X143182517Y-105673174D01*
X143203909Y-105719050D01*
X143190808Y-105767945D01*
X143149344Y-105796979D01*
X143130191Y-105799500D01*
X142957620Y-105799500D01*
X142831128Y-105814859D01*
X142672070Y-105875181D01*
X142532071Y-105971816D01*
X142419269Y-106099143D01*
X142419267Y-106099146D01*
X142340209Y-106249777D01*
X142299500Y-106414941D01*
X142299500Y-106585058D01*
X142339184Y-106746063D01*
X142340210Y-106750225D01*
X142419266Y-106900852D01*
X142419267Y-106900853D01*
X142419269Y-106900856D01*
X142524327Y-107019442D01*
X142532071Y-107028183D01*
X142672070Y-107124818D01*
X142831128Y-107185140D01*
X142957628Y-107200500D01*
X144929622Y-107200500D01*
X144942959Y-107201711D01*
X144957394Y-107204357D01*
X145001122Y-107201712D01*
X145020043Y-107200568D01*
X145022277Y-107200500D01*
X155130191Y-107200500D01*
X155177757Y-107217813D01*
X155203067Y-107261650D01*
X155194277Y-107311500D01*
X155182517Y-107326826D01*
X155020423Y-107488918D01*
X155018796Y-107490450D01*
X154971815Y-107532072D01*
X154936153Y-107583735D01*
X154934829Y-107585535D01*
X154896120Y-107634946D01*
X154890095Y-107648331D01*
X154883520Y-107659988D01*
X154875182Y-107672067D01*
X154852925Y-107730755D01*
X154852069Y-107732819D01*
X154826304Y-107790068D01*
X154823656Y-107804516D01*
X154820061Y-107817411D01*
X154814860Y-107831125D01*
X154814859Y-107831130D01*
X154807295Y-107893423D01*
X154806959Y-107895631D01*
X154795642Y-107957391D01*
X154799432Y-108020052D01*
X154799500Y-108022286D01*
X154799500Y-117179191D01*
X154782187Y-117226757D01*
X154777826Y-117231517D01*
X152731517Y-119277826D01*
X152685641Y-119299218D01*
X152679191Y-119299500D01*
X145085809Y-119299500D01*
X145038243Y-119282187D01*
X145033483Y-119277826D01*
X141722174Y-115966517D01*
X141700782Y-115920641D01*
X141700500Y-115914191D01*
X141700500Y-115070383D01*
X141701712Y-115057043D01*
X141702351Y-115053556D01*
X141704358Y-115042606D01*
X141701781Y-115000000D01*
X141700568Y-114979946D01*
X141700500Y-114977712D01*
X141700500Y-114957629D01*
X141699634Y-114950500D01*
X141698073Y-114937653D01*
X141697878Y-114935503D01*
X141694086Y-114872804D01*
X141689719Y-114858793D01*
X141686908Y-114845695D01*
X141685140Y-114831128D01*
X141685139Y-114831126D01*
X141685139Y-114831124D01*
X141675578Y-114805915D01*
X141662867Y-114772399D01*
X141662156Y-114770337D01*
X141643478Y-114710394D01*
X141635884Y-114697833D01*
X141630022Y-114685792D01*
X141628983Y-114683053D01*
X141624818Y-114672070D01*
X141624816Y-114672067D01*
X141624815Y-114672064D01*
X141602080Y-114639128D01*
X141589147Y-114620392D01*
X141587962Y-114618559D01*
X141555472Y-114564815D01*
X141545091Y-114554434D01*
X141536519Y-114544148D01*
X141528181Y-114532068D01*
X141481203Y-114490450D01*
X141479575Y-114488917D01*
X141435184Y-114444527D01*
X141422621Y-114436932D01*
X141411834Y-114428995D01*
X141400853Y-114419267D01*
X141400852Y-114419266D01*
X141345281Y-114390099D01*
X141343339Y-114389004D01*
X141289607Y-114356522D01*
X141289599Y-114356519D01*
X141275587Y-114352152D01*
X141263214Y-114347027D01*
X141250227Y-114340210D01*
X141250223Y-114340209D01*
X141189277Y-114325187D01*
X141187125Y-114324587D01*
X141127198Y-114305914D01*
X141121342Y-114305559D01*
X141112538Y-114305026D01*
X141099307Y-114303012D01*
X141085056Y-114299500D01*
X141022287Y-114299500D01*
X141020053Y-114299432D01*
X140969824Y-114296393D01*
X140957394Y-114295642D01*
X140957393Y-114295642D01*
X140957392Y-114295642D01*
X140942955Y-114298288D01*
X140929616Y-114299500D01*
X140914944Y-114299500D01*
X140914940Y-114299500D01*
X140914939Y-114299501D01*
X140854003Y-114314519D01*
X140851819Y-114314988D01*
X140790069Y-114326305D01*
X140776677Y-114332331D01*
X140764028Y-114336695D01*
X140749776Y-114340208D01*
X140749774Y-114340209D01*
X140694190Y-114369382D01*
X140692180Y-114370361D01*
X140634945Y-114396121D01*
X140634944Y-114396121D01*
X140623384Y-114405177D01*
X140612148Y-114412441D01*
X140599149Y-114419264D01*
X140599147Y-114419266D01*
X140552172Y-114460882D01*
X140550457Y-114462311D01*
X140534632Y-114474709D01*
X140520421Y-114488920D01*
X140518796Y-114490450D01*
X140471816Y-114532071D01*
X140471813Y-114532074D01*
X140463479Y-114544148D01*
X140454907Y-114554434D01*
X137731517Y-117277826D01*
X137685641Y-117299218D01*
X137679191Y-117299500D01*
X115957620Y-117299500D01*
X115831128Y-117314859D01*
X115672070Y-117375181D01*
X115532071Y-117471816D01*
X115485335Y-117524571D01*
X115440834Y-117548695D01*
X115429945Y-117549500D01*
X114449526Y-117549500D01*
X114401960Y-117532187D01*
X114389986Y-117519442D01*
X114338212Y-117449291D01*
X114338211Y-117449289D01*
X114338209Y-117449287D01*
X114338206Y-117449284D01*
X114231976Y-117370884D01*
X114231974Y-117370883D01*
X114107354Y-117327276D01*
X114107355Y-117327276D01*
X114107350Y-117327275D01*
X114107349Y-117327275D01*
X114077756Y-117324500D01*
X113172244Y-117324500D01*
X113142651Y-117327275D01*
X113142649Y-117327275D01*
X113142645Y-117327276D01*
X113018026Y-117370882D01*
X112911790Y-117449288D01*
X112911788Y-117449290D01*
X112833382Y-117555526D01*
X112789776Y-117680145D01*
X112789775Y-117680149D01*
X112789775Y-117680151D01*
X112787000Y-117709744D01*
X112787000Y-118290256D01*
X112789775Y-118319849D01*
X112789775Y-118319851D01*
X112789776Y-118319854D01*
X112833382Y-118444473D01*
X112874462Y-118500135D01*
X112911789Y-118550711D01*
X112931378Y-118565168D01*
X113018026Y-118629117D01*
X113142645Y-118672723D01*
X113142651Y-118672725D01*
X113172244Y-118675500D01*
X113172251Y-118675500D01*
X114077749Y-118675500D01*
X114077756Y-118675500D01*
X114107349Y-118672725D01*
X114231975Y-118629116D01*
X114285474Y-118589632D01*
X114338206Y-118550715D01*
X114338206Y-118550714D01*
X114338211Y-118550711D01*
X114382532Y-118490657D01*
X114389986Y-118480558D01*
X114432161Y-118452566D01*
X114449526Y-118450500D01*
X115429945Y-118450500D01*
X115477511Y-118467813D01*
X115485335Y-118475429D01*
X115532071Y-118528183D01*
X115672070Y-118624818D01*
X115831128Y-118685140D01*
X115957628Y-118700500D01*
X137977713Y-118700500D01*
X137979947Y-118700568D01*
X138000518Y-118701811D01*
X138042606Y-118704358D01*
X138104378Y-118693037D01*
X138106540Y-118692708D01*
X138168872Y-118685140D01*
X138182589Y-118679937D01*
X138195482Y-118676342D01*
X138209932Y-118673695D01*
X138267198Y-118647920D01*
X138269232Y-118647078D01*
X138327930Y-118624818D01*
X138340004Y-118616482D01*
X138351671Y-118609901D01*
X138365057Y-118603878D01*
X138414492Y-118565147D01*
X138416266Y-118563843D01*
X138435294Y-118550709D01*
X138467929Y-118528183D01*
X138509580Y-118481166D01*
X138511056Y-118479599D01*
X140333854Y-116656801D01*
X140379729Y-116635410D01*
X140428624Y-116648511D01*
X140447077Y-116667088D01*
X140452884Y-116675500D01*
X140466469Y-116695182D01*
X140471817Y-116702929D01*
X140518806Y-116744558D01*
X140520424Y-116746081D01*
X144253917Y-120479574D01*
X144255450Y-120481202D01*
X144297071Y-120528183D01*
X144348730Y-120563841D01*
X144350530Y-120565166D01*
X144386249Y-120593149D01*
X144399943Y-120603878D01*
X144413322Y-120609899D01*
X144424990Y-120616479D01*
X144437070Y-120624818D01*
X144495780Y-120647083D01*
X144497798Y-120647919D01*
X144542266Y-120667933D01*
X144555063Y-120673693D01*
X144555068Y-120673695D01*
X144569519Y-120676342D01*
X144582407Y-120679936D01*
X144596128Y-120685140D01*
X144658439Y-120692705D01*
X144660625Y-120693039D01*
X144691079Y-120698619D01*
X144722394Y-120704358D01*
X144766026Y-120701718D01*
X144785053Y-120700568D01*
X144787287Y-120700500D01*
X152225500Y-120700500D01*
X152273066Y-120717813D01*
X152298376Y-120761650D01*
X152299500Y-120774500D01*
X152299500Y-125672712D01*
X152299432Y-125674946D01*
X152295642Y-125737605D01*
X152306959Y-125799368D01*
X152307296Y-125801578D01*
X152314859Y-125863869D01*
X152314860Y-125863874D01*
X152320061Y-125877589D01*
X152323656Y-125890484D01*
X152326304Y-125904931D01*
X152352071Y-125962184D01*
X152352927Y-125964249D01*
X152375180Y-126022927D01*
X152383517Y-126035005D01*
X152390096Y-126046669D01*
X152396121Y-126060055D01*
X152396123Y-126060058D01*
X152434840Y-126109478D01*
X152436164Y-126111277D01*
X152471817Y-126162929D01*
X152518806Y-126204558D01*
X152520424Y-126206081D01*
X154109307Y-127794964D01*
X154130699Y-127840840D01*
X154117598Y-127889735D01*
X154076134Y-127918769D01*
X154035502Y-127918104D01*
X153921650Y-127883567D01*
X153875935Y-127869700D01*
X153670000Y-127849417D01*
X153464064Y-127869700D01*
X153266043Y-127929769D01*
X153083549Y-128027315D01*
X152923590Y-128158589D01*
X152923589Y-128158590D01*
X152792315Y-128318549D01*
X152694769Y-128501043D01*
X152634700Y-128699064D01*
X152618158Y-128867021D01*
X152614417Y-128905000D01*
X152634700Y-129110934D01*
X152694768Y-129308954D01*
X152792315Y-129491450D01*
X152923590Y-129651410D01*
X153083550Y-129782685D01*
X153266046Y-129880232D01*
X153464066Y-129940300D01*
X153670000Y-129960583D01*
X153875934Y-129940300D01*
X154073954Y-129880232D01*
X154256450Y-129782685D01*
X154416410Y-129651410D01*
X154547685Y-129491450D01*
X154645232Y-129308954D01*
X154705300Y-129110934D01*
X154725583Y-128905000D01*
X154705300Y-128699066D01*
X154656895Y-128539494D01*
X154659655Y-128488954D01*
X154694258Y-128452009D01*
X154744513Y-128445950D01*
X154780035Y-128465691D01*
X155135489Y-128821145D01*
X155156881Y-128867021D01*
X155156807Y-128880721D01*
X155154417Y-128904997D01*
X155154417Y-128905000D01*
X155174700Y-129110934D01*
X155234768Y-129308954D01*
X155332315Y-129491450D01*
X155463590Y-129651410D01*
X155623550Y-129782685D01*
X155806046Y-129880232D01*
X156004066Y-129940300D01*
X156210000Y-129960583D01*
X156415934Y-129940300D01*
X156613954Y-129880232D01*
X156796450Y-129782685D01*
X156956410Y-129651410D01*
X157087685Y-129491450D01*
X157185232Y-129308954D01*
X157245300Y-129110934D01*
X157265583Y-128905000D01*
X157694417Y-128905000D01*
X157714700Y-129110934D01*
X157774768Y-129308954D01*
X157872315Y-129491450D01*
X158003590Y-129651410D01*
X158163550Y-129782685D01*
X158346046Y-129880232D01*
X158544066Y-129940300D01*
X158750000Y-129960583D01*
X158955934Y-129940300D01*
X159153954Y-129880232D01*
X159336450Y-129782685D01*
X159496410Y-129651410D01*
X159627685Y-129491450D01*
X159725232Y-129308954D01*
X159785300Y-129110934D01*
X159805583Y-128905000D01*
X162774417Y-128905000D01*
X162794700Y-129110934D01*
X162854768Y-129308954D01*
X162952315Y-129491450D01*
X163083590Y-129651410D01*
X163243550Y-129782685D01*
X163426046Y-129880232D01*
X163624066Y-129940300D01*
X163830000Y-129960583D01*
X164035934Y-129940300D01*
X164233954Y-129880232D01*
X164416450Y-129782685D01*
X164576410Y-129651410D01*
X164707685Y-129491450D01*
X164805232Y-129308954D01*
X164865300Y-129110934D01*
X164885583Y-128905000D01*
X164865300Y-128699066D01*
X164805232Y-128501046D01*
X164707685Y-128318550D01*
X164576410Y-128158590D01*
X164416450Y-128027315D01*
X164233954Y-127929768D01*
X164122158Y-127895855D01*
X164035935Y-127869700D01*
X163830000Y-127849417D01*
X163624064Y-127869700D01*
X163426043Y-127929769D01*
X163243549Y-128027315D01*
X163083590Y-128158589D01*
X163083589Y-128158590D01*
X162952315Y-128318549D01*
X162854769Y-128501043D01*
X162794700Y-128699064D01*
X162778158Y-128867021D01*
X162774417Y-128905000D01*
X159805583Y-128905000D01*
X159785300Y-128699066D01*
X159725232Y-128501046D01*
X159627685Y-128318550D01*
X159496410Y-128158590D01*
X159336450Y-128027315D01*
X159153954Y-127929768D01*
X159042158Y-127895855D01*
X158955935Y-127869700D01*
X158750000Y-127849417D01*
X158544064Y-127869700D01*
X158346043Y-127929769D01*
X158163549Y-128027315D01*
X158003590Y-128158589D01*
X158003589Y-128158590D01*
X157872315Y-128318549D01*
X157774769Y-128501043D01*
X157714700Y-128699064D01*
X157698158Y-128867021D01*
X157694417Y-128905000D01*
X157265583Y-128905000D01*
X157245300Y-128699066D01*
X157185232Y-128501046D01*
X157087685Y-128318550D01*
X156956410Y-128158590D01*
X156796450Y-128027315D01*
X156613954Y-127929768D01*
X156502158Y-127895855D01*
X156415935Y-127869700D01*
X156364450Y-127864629D01*
X156210000Y-127849417D01*
X156209998Y-127849417D01*
X156209997Y-127849417D01*
X156185721Y-127851807D01*
X156136687Y-127839238D01*
X156126145Y-127830489D01*
X154925185Y-126629529D01*
X153722174Y-125426517D01*
X153700782Y-125380641D01*
X153700500Y-125374191D01*
X153700500Y-120320809D01*
X153717813Y-120273243D01*
X153722174Y-120268483D01*
X155447674Y-118542983D01*
X155493550Y-118521591D01*
X155542445Y-118534692D01*
X155552326Y-118542983D01*
X160988917Y-123979575D01*
X160990450Y-123981203D01*
X161032068Y-124028181D01*
X161083735Y-124063844D01*
X161085535Y-124065169D01*
X161129976Y-124099986D01*
X161134943Y-124103877D01*
X161148323Y-124109898D01*
X161159984Y-124116475D01*
X161172070Y-124124818D01*
X161230780Y-124147083D01*
X161232831Y-124147933D01*
X161290063Y-124173692D01*
X161290068Y-124173694D01*
X161304511Y-124176340D01*
X161317398Y-124179932D01*
X161331128Y-124185140D01*
X161393455Y-124192707D01*
X161395641Y-124193041D01*
X161426117Y-124198625D01*
X161457394Y-124204357D01*
X161500833Y-124201729D01*
X161520043Y-124200568D01*
X161522277Y-124200500D01*
X173477713Y-124200500D01*
X173479947Y-124200568D01*
X173500518Y-124201811D01*
X173542606Y-124204358D01*
X173604378Y-124193037D01*
X173606540Y-124192708D01*
X173668872Y-124185140D01*
X173682589Y-124179937D01*
X173695482Y-124176342D01*
X173709932Y-124173695D01*
X173767198Y-124147920D01*
X173769236Y-124147077D01*
X173827930Y-124124818D01*
X173840004Y-124116482D01*
X173851671Y-124109901D01*
X173865057Y-124103878D01*
X173914492Y-124065147D01*
X173916266Y-124063843D01*
X173930367Y-124054110D01*
X173967929Y-124028183D01*
X174009580Y-123981166D01*
X174011056Y-123979599D01*
X182025289Y-115965367D01*
X182092248Y-115879899D01*
X182135212Y-115853133D01*
X182185329Y-115860246D01*
X182219149Y-115897908D01*
X182224500Y-115925537D01*
X182224500Y-118528079D01*
X182223078Y-118542515D01*
X182221449Y-118550708D01*
X182219103Y-118562500D01*
X182224500Y-118589632D01*
X182224500Y-118589633D01*
X182240485Y-118669995D01*
X182260913Y-118700568D01*
X182301377Y-118761125D01*
X182318314Y-118772442D01*
X182329529Y-118781645D01*
X187601994Y-124054110D01*
X187623386Y-124099986D01*
X187619516Y-124130875D01*
X187602276Y-124180145D01*
X187602275Y-124180149D01*
X187602275Y-124180151D01*
X187599500Y-124209744D01*
X187599500Y-124790256D01*
X187602275Y-124819849D01*
X187602275Y-124819851D01*
X187602276Y-124819854D01*
X187645882Y-124944473D01*
X187686962Y-125000135D01*
X187724289Y-125050711D01*
X187802695Y-125108576D01*
X187830526Y-125129117D01*
X187955145Y-125172723D01*
X187955151Y-125172725D01*
X187984744Y-125175500D01*
X187984751Y-125175500D01*
X188890249Y-125175500D01*
X188890256Y-125175500D01*
X188919849Y-125172725D01*
X188976532Y-125152890D01*
X189044473Y-125129117D01*
X189044473Y-125129116D01*
X189044475Y-125129116D01*
X189150711Y-125050711D01*
X189229116Y-124944475D01*
X189272725Y-124819849D01*
X189275500Y-124790256D01*
X189724500Y-124790256D01*
X189727275Y-124819849D01*
X189727275Y-124819851D01*
X189727276Y-124819854D01*
X189770882Y-124944473D01*
X189811962Y-125000135D01*
X189849289Y-125050711D01*
X189927695Y-125108576D01*
X189955526Y-125129117D01*
X190080145Y-125172723D01*
X190080151Y-125172725D01*
X190109744Y-125175500D01*
X190109751Y-125175500D01*
X191015249Y-125175500D01*
X191015256Y-125175500D01*
X191044849Y-125172725D01*
X191101532Y-125152890D01*
X191169473Y-125129117D01*
X191169473Y-125129116D01*
X191169475Y-125129116D01*
X191275711Y-125050711D01*
X191354116Y-124944475D01*
X191397725Y-124819849D01*
X191400500Y-124790256D01*
X191400500Y-124209744D01*
X191397725Y-124180151D01*
X191397723Y-124180145D01*
X191354117Y-124055526D01*
X191333576Y-124027695D01*
X191275711Y-123949289D01*
X191225135Y-123911962D01*
X191169473Y-123870882D01*
X191044854Y-123827276D01*
X191044855Y-123827276D01*
X191044850Y-123827275D01*
X191044849Y-123827275D01*
X191015256Y-123824500D01*
X190109744Y-123824500D01*
X190080151Y-123827275D01*
X190080149Y-123827275D01*
X190080145Y-123827276D01*
X189955526Y-123870882D01*
X189849290Y-123949288D01*
X189849288Y-123949290D01*
X189770882Y-124055526D01*
X189727276Y-124180145D01*
X189727275Y-124180149D01*
X189727275Y-124180151D01*
X189724500Y-124209744D01*
X189724500Y-124790256D01*
X189275500Y-124790256D01*
X189275500Y-124209744D01*
X189272725Y-124180151D01*
X189272723Y-124180145D01*
X189229117Y-124055526D01*
X189208576Y-124027695D01*
X189150711Y-123949289D01*
X189100135Y-123911962D01*
X189044473Y-123870882D01*
X188919854Y-123827276D01*
X188919855Y-123827276D01*
X188919850Y-123827275D01*
X188919849Y-123827275D01*
X188890256Y-123824500D01*
X188890250Y-123824500D01*
X188182268Y-123824500D01*
X188134702Y-123807187D01*
X188129942Y-123802826D01*
X182797174Y-118470058D01*
X182775782Y-118424182D01*
X182775500Y-118417732D01*
X182775500Y-111897300D01*
X182792813Y-111849734D01*
X182794801Y-111847714D01*
X182798046Y-111843968D01*
X182798049Y-111843967D01*
X182882882Y-111746063D01*
X182936697Y-111628226D01*
X182955133Y-111500000D01*
X184544867Y-111500000D01*
X184563302Y-111628223D01*
X184563302Y-111628224D01*
X184563303Y-111628226D01*
X184617118Y-111746063D01*
X184701951Y-111843967D01*
X184701952Y-111843968D01*
X184705417Y-111847966D01*
X184703532Y-111849598D01*
X184723568Y-111885595D01*
X184724500Y-111897300D01*
X184724500Y-119028079D01*
X184723078Y-119042515D01*
X184719103Y-119062499D01*
X184719103Y-119062500D01*
X184724500Y-119089632D01*
X184740485Y-119169995D01*
X184801377Y-119261125D01*
X184818314Y-119272442D01*
X184829529Y-119281645D01*
X187601994Y-122054110D01*
X187623386Y-122099986D01*
X187619516Y-122130875D01*
X187602276Y-122180145D01*
X187602275Y-122180149D01*
X187602275Y-122180151D01*
X187599500Y-122209744D01*
X187599500Y-122790256D01*
X187602275Y-122819849D01*
X187602275Y-122819851D01*
X187602276Y-122819854D01*
X187645882Y-122944473D01*
X187686962Y-123000135D01*
X187724289Y-123050711D01*
X187802695Y-123108576D01*
X187830526Y-123129117D01*
X187955145Y-123172723D01*
X187955151Y-123172725D01*
X187984744Y-123175500D01*
X187984751Y-123175500D01*
X188890249Y-123175500D01*
X188890256Y-123175500D01*
X188919849Y-123172725D01*
X188976532Y-123152890D01*
X189044473Y-123129117D01*
X189044473Y-123129116D01*
X189044475Y-123129116D01*
X189150711Y-123050711D01*
X189229116Y-122944475D01*
X189272725Y-122819849D01*
X189275500Y-122790256D01*
X189724500Y-122790256D01*
X189727275Y-122819849D01*
X189727275Y-122819851D01*
X189727276Y-122819854D01*
X189770882Y-122944473D01*
X189811962Y-123000135D01*
X189849289Y-123050711D01*
X189927695Y-123108576D01*
X189955526Y-123129117D01*
X190080145Y-123172723D01*
X190080151Y-123172725D01*
X190109744Y-123175500D01*
X190109751Y-123175500D01*
X191015249Y-123175500D01*
X191015256Y-123175500D01*
X191044849Y-123172725D01*
X191101532Y-123152890D01*
X191169473Y-123129117D01*
X191169473Y-123129116D01*
X191169475Y-123129116D01*
X191275711Y-123050711D01*
X191354116Y-122944475D01*
X191397725Y-122819849D01*
X191400500Y-122790256D01*
X191400500Y-122209744D01*
X191397725Y-122180151D01*
X191397723Y-122180145D01*
X191354117Y-122055526D01*
X191333576Y-122027695D01*
X191275711Y-121949289D01*
X191225135Y-121911962D01*
X191169473Y-121870882D01*
X191044854Y-121827276D01*
X191044855Y-121827276D01*
X191044850Y-121827275D01*
X191044849Y-121827275D01*
X191015256Y-121824500D01*
X190109744Y-121824500D01*
X190080151Y-121827275D01*
X190080149Y-121827275D01*
X190080145Y-121827276D01*
X189955526Y-121870882D01*
X189849290Y-121949288D01*
X189849288Y-121949290D01*
X189770882Y-122055526D01*
X189727276Y-122180145D01*
X189727275Y-122180149D01*
X189727275Y-122180151D01*
X189724500Y-122209744D01*
X189724500Y-122790256D01*
X189275500Y-122790256D01*
X189275500Y-122209744D01*
X189272725Y-122180151D01*
X189272723Y-122180145D01*
X189229117Y-122055526D01*
X189208576Y-122027695D01*
X189150711Y-121949289D01*
X189100135Y-121911962D01*
X189044473Y-121870882D01*
X188919854Y-121827276D01*
X188919855Y-121827276D01*
X188919850Y-121827275D01*
X188919849Y-121827275D01*
X188890256Y-121824500D01*
X188890250Y-121824500D01*
X188182268Y-121824500D01*
X188134702Y-121807187D01*
X188129942Y-121802826D01*
X185297174Y-118970058D01*
X185275782Y-118924182D01*
X185275500Y-118917732D01*
X185275500Y-113000000D01*
X185544867Y-113000000D01*
X185563302Y-113128223D01*
X185563302Y-113128224D01*
X185563303Y-113128226D01*
X185617118Y-113246063D01*
X185701951Y-113343967D01*
X185701952Y-113343968D01*
X185705417Y-113347966D01*
X185703532Y-113349598D01*
X185723568Y-113385595D01*
X185724500Y-113397300D01*
X185724500Y-118028079D01*
X185723078Y-118042515D01*
X185719103Y-118062500D01*
X185724500Y-118089632D01*
X185724500Y-118089633D01*
X185740485Y-118169995D01*
X185800300Y-118259514D01*
X185801377Y-118261125D01*
X185818314Y-118272442D01*
X185829529Y-118281645D01*
X187601994Y-120054110D01*
X187623386Y-120099986D01*
X187619516Y-120130875D01*
X187602276Y-120180145D01*
X187602275Y-120180149D01*
X187602275Y-120180151D01*
X187599500Y-120209744D01*
X187599500Y-120790256D01*
X187602275Y-120819849D01*
X187602275Y-120819851D01*
X187602276Y-120819854D01*
X187645882Y-120944473D01*
X187686962Y-121000135D01*
X187724289Y-121050711D01*
X187802695Y-121108576D01*
X187830526Y-121129117D01*
X187955145Y-121172723D01*
X187955151Y-121172725D01*
X187984744Y-121175500D01*
X187984751Y-121175500D01*
X188890249Y-121175500D01*
X188890256Y-121175500D01*
X188919849Y-121172725D01*
X188976532Y-121152890D01*
X189044473Y-121129117D01*
X189044473Y-121129116D01*
X189044475Y-121129116D01*
X189150711Y-121050711D01*
X189229116Y-120944475D01*
X189272725Y-120819849D01*
X189275500Y-120790256D01*
X189724500Y-120790256D01*
X189727275Y-120819849D01*
X189727275Y-120819851D01*
X189727276Y-120819854D01*
X189770882Y-120944473D01*
X189811962Y-121000135D01*
X189849289Y-121050711D01*
X189927695Y-121108576D01*
X189955526Y-121129117D01*
X190080145Y-121172723D01*
X190080151Y-121172725D01*
X190109744Y-121175500D01*
X190109751Y-121175500D01*
X191015249Y-121175500D01*
X191015256Y-121175500D01*
X191044849Y-121172725D01*
X191101532Y-121152890D01*
X191169473Y-121129117D01*
X191169473Y-121129116D01*
X191169475Y-121129116D01*
X191275711Y-121050711D01*
X191354116Y-120944475D01*
X191397725Y-120819849D01*
X191400500Y-120790256D01*
X191400500Y-120209744D01*
X191397725Y-120180151D01*
X191396141Y-120175623D01*
X191354117Y-120055526D01*
X191333576Y-120027695D01*
X191275711Y-119949289D01*
X191225135Y-119911962D01*
X191169473Y-119870882D01*
X191044854Y-119827276D01*
X191044855Y-119827276D01*
X191044850Y-119827275D01*
X191044849Y-119827275D01*
X191015256Y-119824500D01*
X190109744Y-119824500D01*
X190080151Y-119827275D01*
X190080149Y-119827275D01*
X190080145Y-119827276D01*
X189955526Y-119870882D01*
X189849290Y-119949288D01*
X189849288Y-119949290D01*
X189770882Y-120055526D01*
X189727276Y-120180145D01*
X189727275Y-120180149D01*
X189727275Y-120180151D01*
X189724500Y-120209744D01*
X189724500Y-120790256D01*
X189275500Y-120790256D01*
X189275500Y-120209744D01*
X189272725Y-120180151D01*
X189271141Y-120175623D01*
X189229117Y-120055526D01*
X189208576Y-120027695D01*
X189150711Y-119949289D01*
X189100135Y-119911962D01*
X189044473Y-119870882D01*
X188919854Y-119827276D01*
X188919855Y-119827276D01*
X188919850Y-119827275D01*
X188919849Y-119827275D01*
X188890256Y-119824500D01*
X188890250Y-119824500D01*
X188182268Y-119824500D01*
X188134702Y-119807187D01*
X188129942Y-119802826D01*
X186297174Y-117970058D01*
X186275782Y-117924182D01*
X186275500Y-117917732D01*
X186275500Y-113397300D01*
X186292813Y-113349734D01*
X186294801Y-113347714D01*
X186298046Y-113343968D01*
X186298049Y-113343967D01*
X186382882Y-113246063D01*
X186436697Y-113128226D01*
X186455133Y-113000000D01*
X186436697Y-112871774D01*
X186382882Y-112753937D01*
X186298049Y-112656033D01*
X186231032Y-112612964D01*
X186189068Y-112585995D01*
X186064772Y-112549500D01*
X185935228Y-112549500D01*
X185810931Y-112585995D01*
X185701954Y-112656031D01*
X185701950Y-112656034D01*
X185617119Y-112753935D01*
X185563302Y-112871776D01*
X185544867Y-113000000D01*
X185275500Y-113000000D01*
X185275500Y-111897300D01*
X185292813Y-111849734D01*
X185294801Y-111847714D01*
X185298046Y-111843968D01*
X185298049Y-111843967D01*
X185382882Y-111746063D01*
X185436697Y-111628226D01*
X185455133Y-111500000D01*
X185436697Y-111371774D01*
X185382882Y-111253937D01*
X185298049Y-111156033D01*
X185231032Y-111112964D01*
X185189068Y-111085995D01*
X185064772Y-111049500D01*
X184935228Y-111049500D01*
X184810931Y-111085995D01*
X184701954Y-111156031D01*
X184701950Y-111156034D01*
X184617119Y-111253935D01*
X184563302Y-111371776D01*
X184544867Y-111500000D01*
X182955133Y-111500000D01*
X182936697Y-111371774D01*
X182882882Y-111253937D01*
X182798049Y-111156033D01*
X182731032Y-111112964D01*
X182689068Y-111085995D01*
X182564772Y-111049500D01*
X182435228Y-111049500D01*
X182310931Y-111085995D01*
X182201954Y-111156031D01*
X182201950Y-111156034D01*
X182117119Y-111253935D01*
X182063302Y-111371776D01*
X182044867Y-111500000D01*
X182063302Y-111628223D01*
X182063302Y-111628224D01*
X182063303Y-111628226D01*
X182117118Y-111746063D01*
X182201951Y-111843967D01*
X182201952Y-111843968D01*
X182205417Y-111847966D01*
X182203532Y-111849598D01*
X182223568Y-111885595D01*
X182224500Y-111897300D01*
X182224500Y-115078971D01*
X182207187Y-115126537D01*
X182163350Y-115151847D01*
X182113500Y-115143057D01*
X182087172Y-115117254D01*
X182055471Y-115064815D01*
X181935184Y-114944528D01*
X181789603Y-114856521D01*
X181627201Y-114805915D01*
X181627189Y-114805913D01*
X181484489Y-114797281D01*
X181457394Y-114795643D01*
X181457393Y-114795643D01*
X181457392Y-114795643D01*
X181290064Y-114826306D01*
X181134948Y-114896120D01*
X181134940Y-114896125D01*
X181034632Y-114974711D01*
X173231517Y-122777826D01*
X173185641Y-122799218D01*
X173179191Y-122799500D01*
X161820809Y-122799500D01*
X161773243Y-122782187D01*
X161768483Y-122777826D01*
X156222174Y-117231517D01*
X156200782Y-117185641D01*
X156200500Y-117179191D01*
X156200500Y-115500000D01*
X160544867Y-115500000D01*
X160563302Y-115628223D01*
X160563302Y-115628224D01*
X160563303Y-115628226D01*
X160617118Y-115746063D01*
X160701951Y-115843967D01*
X160810931Y-115914004D01*
X160935228Y-115950500D01*
X161030232Y-115950500D01*
X161077798Y-115967813D01*
X161082558Y-115972174D01*
X165280854Y-120170470D01*
X165290056Y-120181683D01*
X165301375Y-120198623D01*
X165301376Y-120198624D01*
X165321355Y-120211974D01*
X165321356Y-120211974D01*
X165324376Y-120213992D01*
X165324378Y-120213994D01*
X165350534Y-120231471D01*
X165392505Y-120259515D01*
X165472867Y-120275500D01*
X165472868Y-120275500D01*
X165499999Y-120280897D01*
X165500000Y-120280897D01*
X165519983Y-120276921D01*
X165534420Y-120275500D01*
X165941750Y-120275500D01*
X165989316Y-120292813D01*
X166011597Y-120325059D01*
X166053382Y-120444473D01*
X166094462Y-120500135D01*
X166131789Y-120550711D01*
X166203827Y-120603877D01*
X166238026Y-120629117D01*
X166362645Y-120672723D01*
X166362651Y-120672725D01*
X166392244Y-120675500D01*
X166392251Y-120675500D01*
X167297749Y-120675500D01*
X167297756Y-120675500D01*
X167327349Y-120672725D01*
X167400655Y-120647074D01*
X167451973Y-120629117D01*
X167451973Y-120629116D01*
X167451975Y-120629116D01*
X167558211Y-120550711D01*
X167636616Y-120444475D01*
X167680225Y-120319849D01*
X167683000Y-120290256D01*
X168132000Y-120290256D01*
X168134775Y-120319849D01*
X168134775Y-120319851D01*
X168134776Y-120319854D01*
X168178382Y-120444473D01*
X168219462Y-120500135D01*
X168256789Y-120550711D01*
X168328827Y-120603877D01*
X168363026Y-120629117D01*
X168487645Y-120672723D01*
X168487651Y-120672725D01*
X168517244Y-120675500D01*
X168517251Y-120675500D01*
X169422749Y-120675500D01*
X169422756Y-120675500D01*
X169452349Y-120672725D01*
X169525655Y-120647074D01*
X169576973Y-120629117D01*
X169576973Y-120629116D01*
X169576975Y-120629116D01*
X169683211Y-120550711D01*
X169761616Y-120444475D01*
X169805225Y-120319849D01*
X169808000Y-120290256D01*
X169808000Y-119709744D01*
X169805225Y-119680151D01*
X169803402Y-119674941D01*
X169761617Y-119555526D01*
X169741076Y-119527695D01*
X169683211Y-119449289D01*
X169632635Y-119411962D01*
X169576973Y-119370882D01*
X169452354Y-119327276D01*
X169452355Y-119327276D01*
X169452350Y-119327275D01*
X169452349Y-119327275D01*
X169422756Y-119324500D01*
X168517244Y-119324500D01*
X168487651Y-119327275D01*
X168487649Y-119327275D01*
X168487645Y-119327276D01*
X168363026Y-119370882D01*
X168256790Y-119449288D01*
X168256788Y-119449290D01*
X168178382Y-119555526D01*
X168134776Y-119680145D01*
X168134775Y-119680149D01*
X168134775Y-119680151D01*
X168132000Y-119709744D01*
X168132000Y-120290256D01*
X167683000Y-120290256D01*
X167683000Y-119709744D01*
X167680225Y-119680151D01*
X167678402Y-119674941D01*
X167636617Y-119555526D01*
X167616076Y-119527695D01*
X167558211Y-119449289D01*
X167507635Y-119411962D01*
X167451973Y-119370882D01*
X167327354Y-119327276D01*
X167327355Y-119327276D01*
X167327350Y-119327275D01*
X167327349Y-119327275D01*
X167297756Y-119324500D01*
X166392244Y-119324500D01*
X166362651Y-119327275D01*
X166362649Y-119327275D01*
X166362645Y-119327276D01*
X166238026Y-119370882D01*
X166131790Y-119449288D01*
X166131788Y-119449290D01*
X166053382Y-119555526D01*
X166011597Y-119674941D01*
X165979546Y-119714120D01*
X165941750Y-119724500D01*
X165644768Y-119724500D01*
X165597202Y-119707187D01*
X165592442Y-119702826D01*
X161473089Y-115583473D01*
X161451697Y-115537597D01*
X161452167Y-115520622D01*
X161453610Y-115510590D01*
X161477515Y-115465975D01*
X161524507Y-115447161D01*
X161572599Y-115462956D01*
X161579182Y-115468798D01*
X164280854Y-118170470D01*
X164290056Y-118181683D01*
X164301375Y-118198623D01*
X164301376Y-118198624D01*
X164321355Y-118211974D01*
X164324377Y-118213993D01*
X164324378Y-118213994D01*
X164360488Y-118238122D01*
X164392505Y-118259515D01*
X164472867Y-118275500D01*
X164472871Y-118275500D01*
X164500000Y-118280896D01*
X164519980Y-118276922D01*
X164534416Y-118275500D01*
X166034250Y-118275500D01*
X166081816Y-118292813D01*
X166104097Y-118325059D01*
X166145882Y-118444473D01*
X166186962Y-118500135D01*
X166224289Y-118550711D01*
X166243878Y-118565168D01*
X166330526Y-118629117D01*
X166455145Y-118672723D01*
X166455151Y-118672725D01*
X166484744Y-118675500D01*
X166484751Y-118675500D01*
X167390249Y-118675500D01*
X167390256Y-118675500D01*
X167419849Y-118672725D01*
X167493160Y-118647072D01*
X167544473Y-118629117D01*
X167544473Y-118629116D01*
X167544475Y-118629116D01*
X167650711Y-118550711D01*
X167729116Y-118444475D01*
X167772725Y-118319849D01*
X167775500Y-118290256D01*
X168224500Y-118290256D01*
X168227275Y-118319849D01*
X168227275Y-118319851D01*
X168227276Y-118319854D01*
X168270882Y-118444473D01*
X168311962Y-118500135D01*
X168349289Y-118550711D01*
X168368878Y-118565168D01*
X168455526Y-118629117D01*
X168580145Y-118672723D01*
X168580151Y-118672725D01*
X168609744Y-118675500D01*
X168609751Y-118675500D01*
X169515249Y-118675500D01*
X169515256Y-118675500D01*
X169544849Y-118672725D01*
X169618160Y-118647072D01*
X169669473Y-118629117D01*
X169669473Y-118629116D01*
X169669475Y-118629116D01*
X169775711Y-118550711D01*
X169854116Y-118444475D01*
X169897725Y-118319849D01*
X169900500Y-118290256D01*
X169900500Y-117709744D01*
X169897725Y-117680151D01*
X169859259Y-117570222D01*
X169854117Y-117555526D01*
X169792337Y-117471817D01*
X169775711Y-117449289D01*
X169715777Y-117405056D01*
X169669473Y-117370882D01*
X169544854Y-117327276D01*
X169544855Y-117327276D01*
X169544850Y-117327275D01*
X169544849Y-117327275D01*
X169515256Y-117324500D01*
X168609744Y-117324500D01*
X168580151Y-117327275D01*
X168580149Y-117327275D01*
X168580145Y-117327276D01*
X168455526Y-117370882D01*
X168349290Y-117449288D01*
X168349288Y-117449290D01*
X168270882Y-117555526D01*
X168227276Y-117680145D01*
X168227275Y-117680149D01*
X168227275Y-117680151D01*
X168224500Y-117709744D01*
X168224500Y-118290256D01*
X167775500Y-118290256D01*
X167775500Y-117709744D01*
X167772725Y-117680151D01*
X167734259Y-117570222D01*
X167729117Y-117555526D01*
X167667337Y-117471817D01*
X167650711Y-117449289D01*
X167590777Y-117405056D01*
X167544473Y-117370882D01*
X167419854Y-117327276D01*
X167419855Y-117327276D01*
X167419850Y-117327275D01*
X167419849Y-117327275D01*
X167390256Y-117324500D01*
X166484744Y-117324500D01*
X166455151Y-117327275D01*
X166455149Y-117327275D01*
X166455145Y-117327276D01*
X166330526Y-117370882D01*
X166224290Y-117449288D01*
X166224288Y-117449290D01*
X166145882Y-117555526D01*
X166104097Y-117674941D01*
X166072046Y-117714120D01*
X166034250Y-117724500D01*
X164644768Y-117724500D01*
X164597202Y-117707187D01*
X164592442Y-117702826D01*
X161473089Y-114583473D01*
X161451697Y-114537597D01*
X161452167Y-114520622D01*
X161453610Y-114510590D01*
X161477515Y-114465975D01*
X161524507Y-114447161D01*
X161572599Y-114462956D01*
X161579182Y-114468798D01*
X163280854Y-116170470D01*
X163290056Y-116181683D01*
X163301375Y-116198623D01*
X163301376Y-116198624D01*
X163321355Y-116211974D01*
X163321356Y-116211974D01*
X163324376Y-116213992D01*
X163324378Y-116213994D01*
X163350534Y-116231471D01*
X163392505Y-116259515D01*
X163472867Y-116275500D01*
X163472868Y-116275500D01*
X163499999Y-116280897D01*
X163500000Y-116280897D01*
X163519983Y-116276921D01*
X163534420Y-116275500D01*
X166034250Y-116275500D01*
X166081816Y-116292813D01*
X166104097Y-116325059D01*
X166145882Y-116444473D01*
X166186863Y-116500000D01*
X166224289Y-116550711D01*
X166285990Y-116596248D01*
X166330526Y-116629117D01*
X166455145Y-116672723D01*
X166455151Y-116672725D01*
X166484744Y-116675500D01*
X166484751Y-116675500D01*
X167390249Y-116675500D01*
X167390256Y-116675500D01*
X167419849Y-116672725D01*
X167489048Y-116648511D01*
X167544473Y-116629117D01*
X167544473Y-116629116D01*
X167544475Y-116629116D01*
X167650711Y-116550711D01*
X167729116Y-116444475D01*
X167772725Y-116319849D01*
X167775500Y-116290256D01*
X168224500Y-116290256D01*
X168227275Y-116319849D01*
X168227275Y-116319851D01*
X168227276Y-116319854D01*
X168270882Y-116444473D01*
X168311863Y-116500000D01*
X168349289Y-116550711D01*
X168410990Y-116596248D01*
X168455526Y-116629117D01*
X168580145Y-116672723D01*
X168580151Y-116672725D01*
X168609744Y-116675500D01*
X168609751Y-116675500D01*
X169515249Y-116675500D01*
X169515256Y-116675500D01*
X169544849Y-116672725D01*
X169614048Y-116648511D01*
X169669473Y-116629117D01*
X169669473Y-116629116D01*
X169669475Y-116629116D01*
X169775711Y-116550711D01*
X169854116Y-116444475D01*
X169897725Y-116319849D01*
X169900500Y-116290256D01*
X169900500Y-115709744D01*
X169897725Y-115680151D01*
X169885760Y-115645958D01*
X169854117Y-115555526D01*
X169797292Y-115478531D01*
X169775711Y-115449289D01*
X169713633Y-115403474D01*
X169669473Y-115370882D01*
X169544854Y-115327276D01*
X169544855Y-115327276D01*
X169544850Y-115327275D01*
X169544849Y-115327275D01*
X169515256Y-115324500D01*
X168609744Y-115324500D01*
X168580151Y-115327275D01*
X168580149Y-115327275D01*
X168580145Y-115327276D01*
X168455526Y-115370882D01*
X168349290Y-115449288D01*
X168349288Y-115449290D01*
X168270882Y-115555526D01*
X168227276Y-115680145D01*
X168227275Y-115680149D01*
X168227275Y-115680151D01*
X168224500Y-115709744D01*
X168224500Y-116290256D01*
X167775500Y-116290256D01*
X167775500Y-115709744D01*
X167772725Y-115680151D01*
X167760760Y-115645958D01*
X167729117Y-115555526D01*
X167672292Y-115478531D01*
X167650711Y-115449289D01*
X167588633Y-115403474D01*
X167544473Y-115370882D01*
X167419854Y-115327276D01*
X167419855Y-115327276D01*
X167419850Y-115327275D01*
X167419849Y-115327275D01*
X167390256Y-115324500D01*
X166484744Y-115324500D01*
X166455151Y-115327275D01*
X166455149Y-115327275D01*
X166455145Y-115327276D01*
X166330526Y-115370882D01*
X166224290Y-115449288D01*
X166224288Y-115449290D01*
X166145882Y-115555526D01*
X166104097Y-115674941D01*
X166072046Y-115714120D01*
X166034250Y-115724500D01*
X163644768Y-115724500D01*
X163597202Y-115707187D01*
X163592442Y-115702826D01*
X161473089Y-113583473D01*
X161451697Y-113537597D01*
X161452169Y-113520614D01*
X161455133Y-113500003D01*
X161455133Y-113500001D01*
X161436697Y-113371776D01*
X161436697Y-113371774D01*
X161382882Y-113253937D01*
X161298049Y-113156033D01*
X161231032Y-113112964D01*
X161189068Y-113085995D01*
X161064772Y-113049500D01*
X160935228Y-113049500D01*
X160810931Y-113085995D01*
X160701954Y-113156031D01*
X160701950Y-113156034D01*
X160617119Y-113253935D01*
X160563302Y-113371776D01*
X160544867Y-113500000D01*
X160563302Y-113628223D01*
X160563302Y-113628224D01*
X160563303Y-113628226D01*
X160617118Y-113746063D01*
X160701951Y-113843967D01*
X160810931Y-113914004D01*
X160861993Y-113928997D01*
X160902755Y-113959010D01*
X160914689Y-114008202D01*
X160892211Y-114053556D01*
X160861993Y-114071003D01*
X160810931Y-114085995D01*
X160701954Y-114156031D01*
X160701950Y-114156034D01*
X160617119Y-114253935D01*
X160617118Y-114253936D01*
X160617118Y-114253937D01*
X160598072Y-114295642D01*
X160563302Y-114371776D01*
X160544867Y-114500000D01*
X160563302Y-114628223D01*
X160563302Y-114628224D01*
X160563303Y-114628226D01*
X160617118Y-114746063D01*
X160701951Y-114843967D01*
X160783103Y-114896120D01*
X160810931Y-114914004D01*
X160861993Y-114928997D01*
X160902755Y-114959010D01*
X160914689Y-115008202D01*
X160892211Y-115053556D01*
X160861993Y-115071003D01*
X160810931Y-115085995D01*
X160701954Y-115156031D01*
X160701950Y-115156034D01*
X160617119Y-115253935D01*
X160563302Y-115371776D01*
X160544867Y-115500000D01*
X156200500Y-115500000D01*
X156200500Y-109000000D01*
X163544867Y-109000000D01*
X163563302Y-109128223D01*
X163563302Y-109128224D01*
X163563303Y-109128226D01*
X163617118Y-109246063D01*
X163701951Y-109343967D01*
X163810931Y-109414004D01*
X163935228Y-109450500D01*
X164064772Y-109450500D01*
X164189069Y-109414004D01*
X164298049Y-109343967D01*
X164335244Y-109301041D01*
X164379477Y-109276430D01*
X164391170Y-109275500D01*
X165608830Y-109275500D01*
X165656396Y-109292813D01*
X165664756Y-109301041D01*
X165701947Y-109343963D01*
X165701948Y-109343964D01*
X165701951Y-109343967D01*
X165810931Y-109414004D01*
X165935228Y-109450500D01*
X166064772Y-109450500D01*
X166189069Y-109414004D01*
X166298049Y-109343967D01*
X166382882Y-109246063D01*
X166432688Y-109137003D01*
X166468195Y-109100929D01*
X166518585Y-109096118D01*
X166560279Y-109124822D01*
X166567309Y-109136999D01*
X166617118Y-109246063D01*
X166701951Y-109343967D01*
X166701952Y-109343968D01*
X166705417Y-109347966D01*
X166703532Y-109349598D01*
X166723568Y-109385595D01*
X166724500Y-109397300D01*
X166724500Y-110503049D01*
X166707187Y-110550615D01*
X166691614Y-110564577D01*
X166630448Y-110605448D01*
X166630447Y-110605449D01*
X166586133Y-110671767D01*
X166570572Y-110750000D01*
X166570572Y-112249999D01*
X166586133Y-112328232D01*
X166615608Y-112372343D01*
X166630448Y-112394552D01*
X166674560Y-112424027D01*
X166696767Y-112438866D01*
X166696769Y-112438867D01*
X166775000Y-112454428D01*
X166775001Y-112454428D01*
X167925007Y-112454428D01*
X167925007Y-112454427D01*
X167964672Y-112450542D01*
X168038396Y-112420094D01*
X168038396Y-112420093D01*
X168045132Y-112417312D01*
X168045705Y-112418699D01*
X168086660Y-112408720D01*
X168119646Y-112420744D01*
X168146767Y-112438866D01*
X168146769Y-112438867D01*
X168225000Y-112454428D01*
X168225001Y-112454428D01*
X169224999Y-112454428D01*
X169225000Y-112454428D01*
X169303231Y-112438867D01*
X169369552Y-112394552D01*
X169413867Y-112328231D01*
X169429428Y-112250000D01*
X169429428Y-111854897D01*
X169446741Y-111807331D01*
X169490578Y-111782021D01*
X169497310Y-111781432D01*
X169499999Y-111780896D01*
X169500000Y-111780897D01*
X169527132Y-111775500D01*
X169527133Y-111775500D01*
X169607495Y-111759515D01*
X169649465Y-111731471D01*
X169675622Y-111713994D01*
X169675622Y-111713993D01*
X169683636Y-111708639D01*
X169683639Y-111708636D01*
X169698624Y-111698624D01*
X169709948Y-111681674D01*
X169719141Y-111670473D01*
X171670473Y-109719141D01*
X171681676Y-109709947D01*
X171698624Y-109698624D01*
X171759515Y-109607495D01*
X171775500Y-109527133D01*
X171775500Y-109527132D01*
X171780897Y-109500000D01*
X171776922Y-109480015D01*
X171775500Y-109465579D01*
X171775500Y-108420003D01*
X179894355Y-108420003D01*
X179914859Y-108588871D01*
X179975181Y-108747929D01*
X179987005Y-108765058D01*
X180071817Y-108887929D01*
X180199148Y-109000734D01*
X180349775Y-109079790D01*
X180514944Y-109120500D01*
X180514948Y-109120500D01*
X180685052Y-109120500D01*
X180685056Y-109120500D01*
X180850225Y-109079790D01*
X181000852Y-109000734D01*
X181128183Y-108887929D01*
X181224818Y-108747930D01*
X181285140Y-108588872D01*
X181305645Y-108420003D01*
X185594355Y-108420003D01*
X185614859Y-108588871D01*
X185675181Y-108747929D01*
X185687005Y-108765058D01*
X185771817Y-108887929D01*
X185899148Y-109000734D01*
X186049775Y-109079790D01*
X186214944Y-109120500D01*
X186214948Y-109120500D01*
X186385052Y-109120500D01*
X186385056Y-109120500D01*
X186550225Y-109079790D01*
X186700852Y-109000734D01*
X186828183Y-108887929D01*
X186924818Y-108747930D01*
X186985140Y-108588872D01*
X187005645Y-108420000D01*
X186985140Y-108251128D01*
X186924818Y-108092070D01*
X186828183Y-107952071D01*
X186764475Y-107895631D01*
X186700856Y-107839269D01*
X186700853Y-107839267D01*
X186700852Y-107839266D01*
X186550225Y-107760210D01*
X186550222Y-107760209D01*
X186385058Y-107719500D01*
X186385056Y-107719500D01*
X186214944Y-107719500D01*
X186214941Y-107719500D01*
X186049777Y-107760209D01*
X185899146Y-107839267D01*
X185899143Y-107839269D01*
X185771816Y-107952071D01*
X185675181Y-108092070D01*
X185614859Y-108251128D01*
X185594355Y-108419996D01*
X185594355Y-108420003D01*
X181305645Y-108420003D01*
X181305645Y-108420000D01*
X181285140Y-108251128D01*
X181224818Y-108092070D01*
X181128183Y-107952071D01*
X181064475Y-107895631D01*
X181000856Y-107839269D01*
X181000853Y-107839267D01*
X181000852Y-107839266D01*
X180850225Y-107760210D01*
X180850222Y-107760209D01*
X180685058Y-107719500D01*
X180685056Y-107719500D01*
X180514944Y-107719500D01*
X180514941Y-107719500D01*
X180349777Y-107760209D01*
X180199146Y-107839267D01*
X180199143Y-107839269D01*
X180071816Y-107952071D01*
X179975181Y-108092070D01*
X179914859Y-108251128D01*
X179894355Y-108419996D01*
X179894355Y-108420003D01*
X171775500Y-108420003D01*
X171775500Y-106897300D01*
X171792813Y-106849734D01*
X171794801Y-106847714D01*
X171798046Y-106843968D01*
X171798049Y-106843967D01*
X171882882Y-106746063D01*
X171936697Y-106628226D01*
X171955133Y-106500000D01*
X171936697Y-106371774D01*
X171882882Y-106253937D01*
X171798049Y-106156033D01*
X171731032Y-106112964D01*
X171689068Y-106085995D01*
X171564772Y-106049500D01*
X171435228Y-106049500D01*
X171310931Y-106085995D01*
X171201954Y-106156031D01*
X171201950Y-106156034D01*
X171117119Y-106253935D01*
X171063302Y-106371776D01*
X171044867Y-106500000D01*
X171063302Y-106628223D01*
X171063302Y-106628224D01*
X171063303Y-106628226D01*
X171117118Y-106746063D01*
X171201951Y-106843967D01*
X171201952Y-106843968D01*
X171205417Y-106847966D01*
X171203532Y-106849598D01*
X171223568Y-106885595D01*
X171224500Y-106897300D01*
X171224500Y-109355232D01*
X171207187Y-109402798D01*
X171202826Y-109407558D01*
X169555754Y-111054630D01*
X169509878Y-111076022D01*
X169460983Y-111062921D01*
X169431949Y-111021457D01*
X169429428Y-111002304D01*
X169429428Y-110750000D01*
X169422274Y-110714036D01*
X169413867Y-110671769D01*
X169369552Y-110605448D01*
X169335867Y-110582940D01*
X169303232Y-110561133D01*
X169250353Y-110550615D01*
X169225000Y-110545572D01*
X168225000Y-110545572D01*
X168224999Y-110545572D01*
X168184910Y-110549541D01*
X168184908Y-110549542D01*
X168111248Y-110580143D01*
X168111246Y-110580144D01*
X168104517Y-110582940D01*
X168103864Y-110581370D01*
X168063471Y-110591292D01*
X168030350Y-110579253D01*
X168003231Y-110561133D01*
X168003230Y-110561132D01*
X167940560Y-110548667D01*
X167925000Y-110545572D01*
X167924999Y-110545572D01*
X167349500Y-110545572D01*
X167301934Y-110528259D01*
X167276624Y-110484422D01*
X167275500Y-110471572D01*
X167275500Y-109397300D01*
X167292813Y-109349734D01*
X167294801Y-109347714D01*
X167298046Y-109343968D01*
X167298049Y-109343967D01*
X167382882Y-109246063D01*
X167436697Y-109128226D01*
X167455133Y-109000000D01*
X167436697Y-108871774D01*
X167382882Y-108753937D01*
X167298049Y-108656033D01*
X167231032Y-108612964D01*
X167189068Y-108585995D01*
X167064772Y-108549500D01*
X166935228Y-108549500D01*
X166810931Y-108585995D01*
X166701954Y-108656031D01*
X166701950Y-108656034D01*
X166617119Y-108753935D01*
X166567313Y-108862994D01*
X166531804Y-108899070D01*
X166481415Y-108903881D01*
X166439721Y-108875177D01*
X166432687Y-108862994D01*
X166382882Y-108753937D01*
X166298049Y-108656033D01*
X166231032Y-108612964D01*
X166189068Y-108585995D01*
X166064772Y-108549500D01*
X165935228Y-108549500D01*
X165810931Y-108585995D01*
X165701954Y-108656031D01*
X165701947Y-108656036D01*
X165664756Y-108698959D01*
X165620523Y-108723570D01*
X165608830Y-108724500D01*
X164391170Y-108724500D01*
X164343604Y-108707187D01*
X164335244Y-108698959D01*
X164298052Y-108656036D01*
X164298050Y-108656035D01*
X164298049Y-108656033D01*
X164231032Y-108612964D01*
X164189068Y-108585995D01*
X164064772Y-108549500D01*
X163935228Y-108549500D01*
X163810931Y-108585995D01*
X163701954Y-108656031D01*
X163701950Y-108656034D01*
X163617119Y-108753935D01*
X163563302Y-108871776D01*
X163544867Y-109000000D01*
X156200500Y-109000000D01*
X156200500Y-108320808D01*
X156217813Y-108273242D01*
X156222163Y-108268493D01*
X157445567Y-107045088D01*
X157455850Y-107036519D01*
X157467929Y-107028183D01*
X157509566Y-106981183D01*
X157511058Y-106979597D01*
X157525290Y-106965367D01*
X157537691Y-106949536D01*
X157539097Y-106947848D01*
X157580734Y-106900852D01*
X157587555Y-106887855D01*
X157594829Y-106876605D01*
X157603877Y-106865057D01*
X157629641Y-106807809D01*
X157630616Y-106805808D01*
X157659788Y-106750228D01*
X157659790Y-106750225D01*
X157663302Y-106735971D01*
X157667668Y-106723317D01*
X157673694Y-106709932D01*
X157685011Y-106648170D01*
X157685475Y-106646014D01*
X157689860Y-106628223D01*
X157700500Y-106585056D01*
X157700500Y-106570378D01*
X157701712Y-106557038D01*
X157704357Y-106542606D01*
X157701780Y-106500000D01*
X166544867Y-106500000D01*
X166563302Y-106628223D01*
X166563302Y-106628224D01*
X166563303Y-106628226D01*
X166617118Y-106746063D01*
X166701951Y-106843967D01*
X166810931Y-106914004D01*
X166935228Y-106950500D01*
X167064772Y-106950500D01*
X167189069Y-106914004D01*
X167298049Y-106843967D01*
X167382882Y-106746063D01*
X167436697Y-106628226D01*
X167455133Y-106500000D01*
X167436697Y-106371774D01*
X167382882Y-106253937D01*
X167298049Y-106156033D01*
X167298047Y-106156031D01*
X167294583Y-106152034D01*
X167296460Y-106150406D01*
X167276425Y-106114362D01*
X167275500Y-106102699D01*
X167275500Y-105028428D01*
X167292813Y-104980862D01*
X167336650Y-104955552D01*
X167349500Y-104954428D01*
X167925007Y-104954428D01*
X167925007Y-104954427D01*
X167964672Y-104950542D01*
X168038396Y-104920094D01*
X168038396Y-104920093D01*
X168045132Y-104917312D01*
X168045705Y-104918699D01*
X168086660Y-104908720D01*
X168119646Y-104920744D01*
X168146767Y-104938866D01*
X168146769Y-104938867D01*
X168225000Y-104954428D01*
X168225001Y-104954428D01*
X169224997Y-104954428D01*
X169225000Y-104954428D01*
X169240265Y-104951391D01*
X169290293Y-104959090D01*
X169307027Y-104971643D01*
X170202826Y-105867442D01*
X170224218Y-105913318D01*
X170224500Y-105919768D01*
X170224500Y-108602699D01*
X170207187Y-108650265D01*
X170205198Y-108652286D01*
X170201951Y-108656032D01*
X170201951Y-108656033D01*
X170182416Y-108678577D01*
X170117119Y-108753935D01*
X170063302Y-108871776D01*
X170044867Y-109000000D01*
X170063302Y-109128223D01*
X170063302Y-109128224D01*
X170063303Y-109128226D01*
X170117118Y-109246063D01*
X170201951Y-109343967D01*
X170310931Y-109414004D01*
X170435228Y-109450500D01*
X170564772Y-109450500D01*
X170689069Y-109414004D01*
X170798049Y-109343967D01*
X170882882Y-109246063D01*
X170936697Y-109128226D01*
X170955133Y-109000000D01*
X170936697Y-108871774D01*
X170882882Y-108753937D01*
X170798049Y-108656033D01*
X170798047Y-108656031D01*
X170794583Y-108652034D01*
X170796460Y-108650406D01*
X170776425Y-108614362D01*
X170775500Y-108602699D01*
X170775500Y-105809420D01*
X170776922Y-105794983D01*
X170780897Y-105775000D01*
X170760937Y-105674654D01*
X170760577Y-105671008D01*
X170759516Y-105667508D01*
X170759515Y-105667506D01*
X170759515Y-105667505D01*
X170698624Y-105576376D01*
X170681679Y-105565053D01*
X170670470Y-105555854D01*
X170114616Y-105000000D01*
X185044867Y-105000000D01*
X185063302Y-105128223D01*
X185063302Y-105128224D01*
X185063303Y-105128226D01*
X185117118Y-105246063D01*
X185201951Y-105343967D01*
X185310931Y-105414004D01*
X185435228Y-105450500D01*
X185564772Y-105450500D01*
X185689069Y-105414004D01*
X185798049Y-105343967D01*
X185835244Y-105301041D01*
X185879477Y-105276430D01*
X185891170Y-105275500D01*
X186355232Y-105275500D01*
X186402798Y-105292813D01*
X186407558Y-105297174D01*
X188140326Y-107029942D01*
X188161718Y-107075818D01*
X188162000Y-107082268D01*
X188162000Y-117750500D01*
X188144687Y-117798066D01*
X188100850Y-117823376D01*
X188088000Y-117824500D01*
X187984744Y-117824500D01*
X187955151Y-117827275D01*
X187955149Y-117827275D01*
X187955145Y-117827276D01*
X187830526Y-117870882D01*
X187724290Y-117949288D01*
X187724288Y-117949290D01*
X187645882Y-118055526D01*
X187602276Y-118180145D01*
X187602275Y-118180149D01*
X187602275Y-118180151D01*
X187599500Y-118209744D01*
X187599500Y-118790256D01*
X187602275Y-118819849D01*
X187602275Y-118819851D01*
X187602276Y-118819854D01*
X187645882Y-118944473D01*
X187664765Y-118970058D01*
X187724289Y-119050711D01*
X187740263Y-119062500D01*
X187830526Y-119129117D01*
X187955145Y-119172723D01*
X187955151Y-119172725D01*
X187984744Y-119175500D01*
X187984751Y-119175500D01*
X188890249Y-119175500D01*
X188890256Y-119175500D01*
X188919849Y-119172725D01*
X188976532Y-119152890D01*
X189044473Y-119129117D01*
X189044473Y-119129116D01*
X189044475Y-119129116D01*
X189150711Y-119050711D01*
X189229116Y-118944475D01*
X189272725Y-118819849D01*
X189275500Y-118790256D01*
X189724500Y-118790256D01*
X189727275Y-118819849D01*
X189727275Y-118819851D01*
X189727276Y-118819854D01*
X189770882Y-118944473D01*
X189789765Y-118970058D01*
X189849289Y-119050711D01*
X189865263Y-119062500D01*
X189955526Y-119129117D01*
X190080145Y-119172723D01*
X190080151Y-119172725D01*
X190109744Y-119175500D01*
X190109751Y-119175500D01*
X191015249Y-119175500D01*
X191015256Y-119175500D01*
X191044849Y-119172725D01*
X191101532Y-119152890D01*
X191169473Y-119129117D01*
X191169473Y-119129116D01*
X191169475Y-119129116D01*
X191275711Y-119050711D01*
X191354116Y-118944475D01*
X191397725Y-118819849D01*
X191400500Y-118790256D01*
X191400500Y-118209744D01*
X191397725Y-118180151D01*
X191396141Y-118175623D01*
X191354117Y-118055526D01*
X191328266Y-118020499D01*
X191275711Y-117949289D01*
X191225135Y-117911962D01*
X191169473Y-117870882D01*
X191044854Y-117827276D01*
X191044855Y-117827276D01*
X191044850Y-117827275D01*
X191044849Y-117827275D01*
X191015256Y-117824500D01*
X190109744Y-117824500D01*
X190080151Y-117827275D01*
X190080149Y-117827275D01*
X190080145Y-117827276D01*
X189955526Y-117870882D01*
X189849290Y-117949288D01*
X189849288Y-117949290D01*
X189770882Y-118055526D01*
X189727276Y-118180145D01*
X189727275Y-118180149D01*
X189727275Y-118180151D01*
X189724500Y-118209744D01*
X189724500Y-118790256D01*
X189275500Y-118790256D01*
X189275500Y-118209744D01*
X189272725Y-118180151D01*
X189271141Y-118175623D01*
X189229117Y-118055526D01*
X189203266Y-118020499D01*
X189150711Y-117949289D01*
X189100135Y-117911962D01*
X189044473Y-117870882D01*
X188919854Y-117827276D01*
X188919855Y-117827276D01*
X188919850Y-117827275D01*
X188919849Y-117827275D01*
X188890256Y-117824500D01*
X188890250Y-117824500D01*
X188787000Y-117824500D01*
X188739434Y-117807187D01*
X188714124Y-117763350D01*
X188713000Y-117750500D01*
X188713000Y-108920000D01*
X191794564Y-108920000D01*
X191814289Y-109246102D01*
X191873180Y-109567458D01*
X191970370Y-109879354D01*
X191970372Y-109879359D01*
X191970373Y-109879361D01*
X192057883Y-110073801D01*
X192104456Y-110177281D01*
X192273470Y-110456863D01*
X192474952Y-110714036D01*
X192705964Y-110945048D01*
X192963137Y-111146530D01*
X193242721Y-111315545D01*
X193540639Y-111449627D01*
X193852547Y-111546821D01*
X194173896Y-111605710D01*
X194500000Y-111625436D01*
X194826104Y-111605710D01*
X195147453Y-111546821D01*
X195459361Y-111449627D01*
X195757279Y-111315545D01*
X196036863Y-111146530D01*
X196294036Y-110945048D01*
X196525048Y-110714036D01*
X196726530Y-110456863D01*
X196895545Y-110177279D01*
X197029627Y-109879361D01*
X197126821Y-109567453D01*
X197185710Y-109246104D01*
X197205436Y-108920000D01*
X197185710Y-108593896D01*
X197126821Y-108272547D01*
X197035504Y-107979500D01*
X197029629Y-107960645D01*
X197029628Y-107960644D01*
X197029627Y-107960639D01*
X196895545Y-107662721D01*
X196726530Y-107383137D01*
X196525048Y-107125964D01*
X196294036Y-106894952D01*
X196036863Y-106693470D01*
X195960146Y-106647093D01*
X195757281Y-106524456D01*
X195655929Y-106478841D01*
X195459361Y-106390373D01*
X195459359Y-106390372D01*
X195459354Y-106390370D01*
X195147458Y-106293180D01*
X194826102Y-106234289D01*
X194500000Y-106214564D01*
X194173897Y-106234289D01*
X193852541Y-106293180D01*
X193540645Y-106390370D01*
X193242718Y-106524456D01*
X192963136Y-106693470D01*
X192705963Y-106894952D01*
X192474952Y-107125963D01*
X192273470Y-107383136D01*
X192104456Y-107662718D01*
X191970370Y-107960645D01*
X191873180Y-108272541D01*
X191814289Y-108593897D01*
X191794564Y-108920000D01*
X188713000Y-108920000D01*
X188713000Y-106971920D01*
X188714422Y-106957483D01*
X188718397Y-106937500D01*
X188698437Y-106837154D01*
X188698077Y-106833508D01*
X188697016Y-106830008D01*
X188697015Y-106830006D01*
X188697015Y-106830005D01*
X188636124Y-106738876D01*
X188619179Y-106727553D01*
X188607970Y-106718354D01*
X186719145Y-104829529D01*
X186709942Y-104818314D01*
X186698626Y-104801378D01*
X186698624Y-104801376D01*
X186678644Y-104788025D01*
X186678641Y-104788023D01*
X186627626Y-104753936D01*
X186607496Y-104740485D01*
X186607497Y-104740485D01*
X186567314Y-104732492D01*
X186527133Y-104724500D01*
X186527132Y-104724500D01*
X186527130Y-104724499D01*
X186500001Y-104719103D01*
X186500000Y-104719103D01*
X186480017Y-104723078D01*
X186465580Y-104724500D01*
X185891170Y-104724500D01*
X185843604Y-104707187D01*
X185835244Y-104698959D01*
X185798052Y-104656036D01*
X185798050Y-104656035D01*
X185798049Y-104656033D01*
X185731032Y-104612964D01*
X185689068Y-104585995D01*
X185564772Y-104549500D01*
X185435228Y-104549500D01*
X185310931Y-104585995D01*
X185201954Y-104656031D01*
X185201950Y-104656034D01*
X185117119Y-104753935D01*
X185063302Y-104871776D01*
X185044867Y-105000000D01*
X170114616Y-105000000D01*
X169451102Y-104336486D01*
X169429710Y-104290610D01*
X169429428Y-104284160D01*
X169429428Y-103250000D01*
X169413867Y-103171769D01*
X169369552Y-103105448D01*
X169335867Y-103082940D01*
X169303232Y-103061133D01*
X169264115Y-103053352D01*
X169225000Y-103045572D01*
X168225000Y-103045572D01*
X168224999Y-103045572D01*
X168184910Y-103049541D01*
X168184908Y-103049542D01*
X168111248Y-103080143D01*
X168111246Y-103080144D01*
X168104517Y-103082940D01*
X168103864Y-103081370D01*
X168063471Y-103091292D01*
X168030350Y-103079253D01*
X168003231Y-103061133D01*
X168003230Y-103061132D01*
X167940560Y-103048667D01*
X167925000Y-103045572D01*
X166775000Y-103045572D01*
X166748923Y-103050759D01*
X166696767Y-103061133D01*
X166630449Y-103105447D01*
X166630447Y-103105449D01*
X166586133Y-103171767D01*
X166570572Y-103250000D01*
X166570572Y-104749999D01*
X166586133Y-104828232D01*
X166587000Y-104829529D01*
X166630448Y-104894552D01*
X166691613Y-104935422D01*
X166721544Y-104976242D01*
X166724500Y-104996949D01*
X166724500Y-106102699D01*
X166707187Y-106150265D01*
X166705198Y-106152286D01*
X166701951Y-106156032D01*
X166701951Y-106156033D01*
X166682416Y-106178577D01*
X166617119Y-106253935D01*
X166563302Y-106371776D01*
X166544867Y-106500000D01*
X157701780Y-106500000D01*
X157700568Y-106479956D01*
X157700500Y-106477722D01*
X157700500Y-106414945D01*
X157700500Y-106414944D01*
X157696986Y-106400691D01*
X157694971Y-106387445D01*
X157694086Y-106372807D01*
X157694086Y-106372804D01*
X157675409Y-106312870D01*
X157674815Y-106310735D01*
X157659791Y-106249780D01*
X157659790Y-106249777D01*
X157659790Y-106249775D01*
X157652965Y-106236773D01*
X157647844Y-106224409D01*
X157643478Y-106210394D01*
X157610990Y-106156654D01*
X157609903Y-106154725D01*
X157580734Y-106099148D01*
X157571000Y-106088160D01*
X157563062Y-106077371D01*
X157555473Y-106064816D01*
X157511088Y-106020431D01*
X157509565Y-106018814D01*
X157467929Y-105971817D01*
X157455843Y-105963475D01*
X157445561Y-105954905D01*
X157435184Y-105944528D01*
X157381461Y-105912051D01*
X157379584Y-105910837D01*
X157348116Y-105889116D01*
X157327930Y-105875182D01*
X157327928Y-105875181D01*
X157327929Y-105875181D01*
X157320785Y-105872472D01*
X157314203Y-105869976D01*
X157302164Y-105864114D01*
X157289609Y-105856524D01*
X157289606Y-105856522D01*
X157229674Y-105837846D01*
X157227576Y-105837122D01*
X157168871Y-105814859D01*
X157154301Y-105813090D01*
X157141210Y-105810280D01*
X157127197Y-105805914D01*
X157127194Y-105805913D01*
X157084795Y-105803348D01*
X157064532Y-105802122D01*
X157062321Y-105801921D01*
X157046233Y-105799968D01*
X157042372Y-105799500D01*
X157042371Y-105799500D01*
X157022277Y-105799500D01*
X157020043Y-105799432D01*
X156964206Y-105796055D01*
X156957394Y-105795643D01*
X156957393Y-105795643D01*
X156951172Y-105796783D01*
X156942959Y-105798288D01*
X156929622Y-105799500D01*
X145320809Y-105799500D01*
X145273243Y-105782187D01*
X145268483Y-105777826D01*
X138075713Y-98585056D01*
X139799500Y-98585056D01*
X139840210Y-98750225D01*
X139919266Y-98900852D01*
X139919267Y-98900853D01*
X139919269Y-98900856D01*
X139989014Y-98979582D01*
X140032071Y-99028183D01*
X140172070Y-99124818D01*
X140331128Y-99185140D01*
X140457628Y-99200500D01*
X148477713Y-99200500D01*
X148479947Y-99200568D01*
X148500518Y-99201811D01*
X148542606Y-99204358D01*
X148604378Y-99193037D01*
X148606540Y-99192708D01*
X148668872Y-99185140D01*
X148682589Y-99179937D01*
X148695482Y-99176342D01*
X148709932Y-99173695D01*
X148767198Y-99147920D01*
X148769232Y-99147078D01*
X148827930Y-99124818D01*
X148840004Y-99116482D01*
X148851671Y-99109901D01*
X148865057Y-99103878D01*
X148914492Y-99065147D01*
X148916266Y-99063843D01*
X148967929Y-99028183D01*
X149009580Y-98981166D01*
X149011056Y-98979599D01*
X153506483Y-94484174D01*
X153552359Y-94462782D01*
X153558809Y-94462500D01*
X154281746Y-94462500D01*
X154281748Y-94462500D01*
X154340231Y-94450867D01*
X154406552Y-94406552D01*
X154450867Y-94340231D01*
X154462500Y-94281748D01*
X154462500Y-92718252D01*
X154450867Y-92659769D01*
X154406552Y-92593448D01*
X154369618Y-92568769D01*
X154340232Y-92549133D01*
X154340233Y-92549133D01*
X154310989Y-92543316D01*
X154281748Y-92537500D01*
X152718252Y-92537500D01*
X152689010Y-92543316D01*
X152659767Y-92549133D01*
X152593449Y-92593447D01*
X152593447Y-92593449D01*
X152549133Y-92659767D01*
X152537500Y-92718253D01*
X152537500Y-93441191D01*
X152520187Y-93488757D01*
X152515826Y-93493517D01*
X151964167Y-94045175D01*
X151918290Y-94066567D01*
X151869396Y-94053466D01*
X151840362Y-94012002D01*
X151844774Y-93961575D01*
X151846561Y-93958000D01*
X151893537Y-93870115D01*
X151948573Y-93688683D01*
X151967157Y-93500000D01*
X151948573Y-93311317D01*
X151893537Y-93129885D01*
X151804162Y-92962676D01*
X151683883Y-92816117D01*
X151569344Y-92722117D01*
X151537323Y-92695837D01*
X151370119Y-92606465D01*
X151370118Y-92606464D01*
X151370115Y-92606463D01*
X151267685Y-92575391D01*
X151188685Y-92551427D01*
X151000000Y-92532843D01*
X150811314Y-92551427D01*
X150692812Y-92587374D01*
X150629885Y-92606463D01*
X150629882Y-92606464D01*
X150629880Y-92606465D01*
X150462676Y-92695837D01*
X150316118Y-92816116D01*
X150316116Y-92816118D01*
X150195837Y-92962676D01*
X150106465Y-93129880D01*
X150070814Y-93247407D01*
X150040439Y-93287899D01*
X149991142Y-93299394D01*
X149945990Y-93276512D01*
X149929186Y-93247407D01*
X149893537Y-93129885D01*
X149804162Y-92962676D01*
X149683883Y-92816117D01*
X149569344Y-92722117D01*
X149537323Y-92695837D01*
X149370119Y-92606465D01*
X149370118Y-92606464D01*
X149370115Y-92606463D01*
X149267685Y-92575391D01*
X149188685Y-92551427D01*
X149000000Y-92532843D01*
X148811314Y-92551427D01*
X148692812Y-92587374D01*
X148629885Y-92606463D01*
X148629882Y-92606464D01*
X148629880Y-92606465D01*
X148462676Y-92695837D01*
X148316118Y-92816116D01*
X148316116Y-92816118D01*
X148195837Y-92962676D01*
X148106465Y-93129880D01*
X148051427Y-93311314D01*
X148032843Y-93500000D01*
X148051427Y-93688685D01*
X148070813Y-93752592D01*
X148106463Y-93870115D01*
X148106464Y-93870116D01*
X148106465Y-93870119D01*
X148195837Y-94037323D01*
X148219837Y-94066567D01*
X148316117Y-94183883D01*
X148462676Y-94304162D01*
X148629885Y-94393537D01*
X148811317Y-94448573D01*
X149000000Y-94467157D01*
X149188683Y-94448573D01*
X149370115Y-94393537D01*
X149537324Y-94304162D01*
X149683883Y-94183883D01*
X149804162Y-94037324D01*
X149893537Y-93870115D01*
X149929187Y-93752590D01*
X149959561Y-93712100D01*
X150008858Y-93700605D01*
X150054010Y-93723487D01*
X150070812Y-93752589D01*
X150106463Y-93870115D01*
X150106464Y-93870116D01*
X150106465Y-93870119D01*
X150195837Y-94037323D01*
X150219837Y-94066567D01*
X150316117Y-94183883D01*
X150462676Y-94304162D01*
X150629885Y-94393537D01*
X150811317Y-94448573D01*
X151000000Y-94467157D01*
X151188683Y-94448573D01*
X151370115Y-94393537D01*
X151457968Y-94346578D01*
X151508076Y-94339425D01*
X151551062Y-94366154D01*
X151566809Y-94414262D01*
X151547950Y-94461236D01*
X151545175Y-94464167D01*
X148231517Y-97777826D01*
X148185641Y-97799218D01*
X148179191Y-97799500D01*
X140457620Y-97799500D01*
X140331128Y-97814859D01*
X140172070Y-97875181D01*
X140032071Y-97971816D01*
X139919269Y-98099143D01*
X139919267Y-98099146D01*
X139840209Y-98249777D01*
X139799500Y-98414941D01*
X139799500Y-98414944D01*
X139799500Y-98585056D01*
X138075713Y-98585056D01*
X130280663Y-90790006D01*
X141474518Y-90790006D01*
X141494421Y-91068291D01*
X141553728Y-91340918D01*
X141553733Y-91340937D01*
X141651228Y-91602333D01*
X141784942Y-91847211D01*
X141868544Y-91958890D01*
X141952145Y-92070568D01*
X142149432Y-92267855D01*
X142316948Y-92393255D01*
X142372788Y-92435057D01*
X142617666Y-92568771D01*
X142879062Y-92666266D01*
X142879067Y-92666267D01*
X142879077Y-92666271D01*
X143151706Y-92725578D01*
X143213549Y-92730001D01*
X143429993Y-92745482D01*
X143430000Y-92745482D01*
X143430007Y-92745482D01*
X143624805Y-92731549D01*
X143708294Y-92725578D01*
X143980923Y-92666271D01*
X143980934Y-92666266D01*
X143980937Y-92666266D01*
X144242333Y-92568771D01*
X144299602Y-92537500D01*
X144487213Y-92435056D01*
X144710568Y-92267855D01*
X144907855Y-92070568D01*
X145075056Y-91847213D01*
X145208769Y-91602337D01*
X145208769Y-91602335D01*
X145208771Y-91602333D01*
X145306266Y-91340937D01*
X145306266Y-91340934D01*
X145306271Y-91340923D01*
X145365578Y-91068294D01*
X145385482Y-90790006D01*
X154614518Y-90790006D01*
X154634421Y-91068291D01*
X154693728Y-91340918D01*
X154693733Y-91340937D01*
X154791228Y-91602333D01*
X154924942Y-91847211D01*
X155008544Y-91958890D01*
X155092145Y-92070568D01*
X155289432Y-92267855D01*
X155456948Y-92393255D01*
X155512788Y-92435057D01*
X155757666Y-92568771D01*
X156019062Y-92666266D01*
X156019067Y-92666267D01*
X156019077Y-92666271D01*
X156291706Y-92725578D01*
X156353549Y-92730001D01*
X156569993Y-92745482D01*
X156570000Y-92745482D01*
X156570007Y-92745482D01*
X156764805Y-92731549D01*
X156848294Y-92725578D01*
X157120923Y-92666271D01*
X157120934Y-92666266D01*
X157120937Y-92666266D01*
X157382333Y-92568771D01*
X157439602Y-92537500D01*
X157627213Y-92435056D01*
X157850568Y-92267855D01*
X158047855Y-92070568D01*
X158215056Y-91847213D01*
X158348769Y-91602337D01*
X158348769Y-91602335D01*
X158348771Y-91602333D01*
X158446266Y-91340937D01*
X158446266Y-91340934D01*
X158446271Y-91340923D01*
X158505578Y-91068294D01*
X158525482Y-90790000D01*
X158525482Y-90789993D01*
X158505578Y-90511708D01*
X158505578Y-90511706D01*
X158446271Y-90239077D01*
X158446267Y-90239067D01*
X158446266Y-90239062D01*
X158348771Y-89977666D01*
X158215057Y-89732788D01*
X158173255Y-89676948D01*
X158047855Y-89509432D01*
X157850568Y-89312145D01*
X157738890Y-89228544D01*
X157627211Y-89144942D01*
X157382333Y-89011228D01*
X157120937Y-88913733D01*
X157120925Y-88913730D01*
X157120923Y-88913729D01*
X157065971Y-88901775D01*
X156848291Y-88854421D01*
X156570007Y-88834518D01*
X156569993Y-88834518D01*
X156291708Y-88854421D01*
X156019081Y-88913728D01*
X156019062Y-88913733D01*
X155757666Y-89011228D01*
X155512788Y-89144942D01*
X155289429Y-89312147D01*
X155092147Y-89509429D01*
X154924942Y-89732788D01*
X154791228Y-89977666D01*
X154693733Y-90239062D01*
X154693728Y-90239081D01*
X154634421Y-90511708D01*
X154614518Y-90789993D01*
X154614518Y-90790006D01*
X145385482Y-90790006D01*
X145385482Y-90790000D01*
X145385482Y-90789993D01*
X145365578Y-90511708D01*
X145365578Y-90511706D01*
X145306271Y-90239077D01*
X145306267Y-90239067D01*
X145306266Y-90239062D01*
X145208771Y-89977666D01*
X145075057Y-89732788D01*
X145033255Y-89676948D01*
X144907855Y-89509432D01*
X144710568Y-89312145D01*
X144598890Y-89228544D01*
X144487211Y-89144942D01*
X144242333Y-89011228D01*
X143980937Y-88913733D01*
X143980925Y-88913730D01*
X143980923Y-88913729D01*
X143925971Y-88901775D01*
X143708291Y-88854421D01*
X143430007Y-88834518D01*
X143429993Y-88834518D01*
X143151708Y-88854421D01*
X142879081Y-88913728D01*
X142879062Y-88913733D01*
X142617666Y-89011228D01*
X142372788Y-89144942D01*
X142149429Y-89312147D01*
X141952147Y-89509429D01*
X141784942Y-89732788D01*
X141651228Y-89977666D01*
X141553733Y-90239062D01*
X141553728Y-90239081D01*
X141494421Y-90511708D01*
X141474518Y-90789993D01*
X141474518Y-90790006D01*
X130280663Y-90790006D01*
X126069213Y-86578556D01*
X126047821Y-86532680D01*
X126060922Y-86483785D01*
X126102386Y-86454751D01*
X126116007Y-86452437D01*
X126140492Y-86450602D01*
X126143244Y-86450500D01*
X126189771Y-86450500D01*
X126189772Y-86450500D01*
X126198679Y-86447883D01*
X126214002Y-86445093D01*
X126218411Y-86444762D01*
X126226378Y-86444166D01*
X126269514Y-86427235D01*
X126272602Y-86426179D01*
X126285541Y-86422379D01*
X126314069Y-86414004D01*
X126324911Y-86407035D01*
X126337884Y-86400402D01*
X126352794Y-86394552D01*
X126386438Y-86367720D01*
X126389472Y-86365544D01*
X126423049Y-86343967D01*
X126433850Y-86331500D01*
X126443629Y-86322112D01*
X126458970Y-86309879D01*
X126481333Y-86277077D01*
X126483925Y-86273708D01*
X126507882Y-86246063D01*
X126516223Y-86227795D01*
X126522389Y-86216859D01*
X126535472Y-86197673D01*
X126546192Y-86162915D01*
X126547887Y-86158461D01*
X126561697Y-86128226D01*
X126565066Y-86104792D01*
X126567601Y-86093508D01*
X126571160Y-86081973D01*
X126575500Y-86067902D01*
X126575500Y-86037516D01*
X126576253Y-86026985D01*
X126580133Y-86000000D01*
X126576253Y-85973012D01*
X126575500Y-85962482D01*
X126575500Y-84902382D01*
X126575733Y-84898236D01*
X126577244Y-84884816D01*
X126580270Y-84857965D01*
X126569211Y-84799520D01*
X126560348Y-84740713D01*
X126560346Y-84740708D01*
X126558713Y-84735411D01*
X126558758Y-84735397D01*
X126556899Y-84729748D01*
X126556854Y-84729764D01*
X126555024Y-84724533D01*
X126555023Y-84724528D01*
X126542806Y-84701413D01*
X126527226Y-84671935D01*
X126501426Y-84618359D01*
X126498302Y-84613777D01*
X126498340Y-84613750D01*
X126494896Y-84608895D01*
X126494858Y-84608924D01*
X126491565Y-84604462D01*
X126449517Y-84562413D01*
X126426832Y-84537965D01*
X126409055Y-84518806D01*
X126409048Y-84518802D01*
X126404717Y-84515347D01*
X126404745Y-84515311D01*
X126394723Y-84507620D01*
X125407103Y-83520000D01*
X191294564Y-83520000D01*
X191314289Y-83846102D01*
X191373180Y-84167458D01*
X191470370Y-84479354D01*
X191470372Y-84479359D01*
X191470373Y-84479361D01*
X191585612Y-84735411D01*
X191604456Y-84777281D01*
X191653232Y-84857966D01*
X191773470Y-85056863D01*
X191974952Y-85314036D01*
X192205964Y-85545048D01*
X192463137Y-85746530D01*
X192742721Y-85915545D01*
X193040639Y-86049627D01*
X193352547Y-86146821D01*
X193673896Y-86205710D01*
X194000000Y-86225436D01*
X194326104Y-86205710D01*
X194647453Y-86146821D01*
X194959361Y-86049627D01*
X195257279Y-85915545D01*
X195536863Y-85746530D01*
X195794036Y-85545048D01*
X196025048Y-85314036D01*
X196226530Y-85056863D01*
X196395545Y-84777279D01*
X196529627Y-84479361D01*
X196626821Y-84167453D01*
X196685710Y-83846104D01*
X196705436Y-83520000D01*
X196685710Y-83193896D01*
X196626821Y-82872547D01*
X196529627Y-82560639D01*
X196395545Y-82262721D01*
X196226530Y-81983137D01*
X196025048Y-81725964D01*
X195794036Y-81494952D01*
X195536863Y-81293470D01*
X195257279Y-81124455D01*
X194959361Y-80990373D01*
X194959359Y-80990372D01*
X194959354Y-80990370D01*
X194647458Y-80893180D01*
X194326102Y-80834289D01*
X194000000Y-80814564D01*
X193673897Y-80834289D01*
X193352541Y-80893180D01*
X193040645Y-80990370D01*
X192742718Y-81124456D01*
X192463136Y-81293470D01*
X192205963Y-81494952D01*
X191974952Y-81725963D01*
X191773470Y-81983136D01*
X191604456Y-82262718D01*
X191470370Y-82560645D01*
X191373180Y-82872541D01*
X191314289Y-83193897D01*
X191294564Y-83520000D01*
X125407103Y-83520000D01*
X124972174Y-83085071D01*
X124950782Y-83039195D01*
X124950500Y-83032745D01*
X124950500Y-82480253D01*
X124948822Y-82471816D01*
X124938867Y-82421769D01*
X124894552Y-82355448D01*
X124850939Y-82326306D01*
X124828232Y-82311133D01*
X124828233Y-82311133D01*
X124798989Y-82305316D01*
X124769748Y-82299500D01*
X123730252Y-82299500D01*
X123701010Y-82305316D01*
X123671767Y-82311133D01*
X123605449Y-82355447D01*
X123605447Y-82355449D01*
X123561133Y-82421767D01*
X123558271Y-82436156D01*
X123549500Y-82480252D01*
X123549500Y-83519748D01*
X123557255Y-83558736D01*
X123561133Y-83578232D01*
X123590608Y-83622343D01*
X123605448Y-83644552D01*
X123649560Y-83674027D01*
X123671767Y-83688866D01*
X123671768Y-83688866D01*
X123671769Y-83688867D01*
X123730252Y-83700500D01*
X124282744Y-83700500D01*
X124330310Y-83717813D01*
X124335070Y-83722174D01*
X125652826Y-85039930D01*
X125674218Y-85085806D01*
X125674500Y-85092256D01*
X125674500Y-85962482D01*
X125673747Y-85973012D01*
X125669867Y-86000000D01*
X125669867Y-86000558D01*
X125669734Y-86000922D01*
X125669114Y-86005238D01*
X125668210Y-86005108D01*
X125652554Y-86048124D01*
X125608717Y-86073434D01*
X125558867Y-86064644D01*
X125543541Y-86052884D01*
X122472174Y-82981517D01*
X122450782Y-82935641D01*
X122450500Y-82929191D01*
X122450500Y-82480253D01*
X122448822Y-82471816D01*
X122438867Y-82421769D01*
X122394552Y-82355448D01*
X122350939Y-82326306D01*
X122328232Y-82311133D01*
X122328233Y-82311133D01*
X122298989Y-82305316D01*
X122269748Y-82299500D01*
X122269746Y-82299500D01*
X114222277Y-82299500D01*
X114220043Y-82299432D01*
X114174180Y-82296658D01*
X114157394Y-82295643D01*
X114157393Y-82295643D01*
X114157391Y-82295643D01*
X114095647Y-82306957D01*
X114093439Y-82307293D01*
X114031130Y-82314859D01*
X114031129Y-82314859D01*
X114017404Y-82320064D01*
X114004510Y-82323658D01*
X113990068Y-82326305D01*
X113932828Y-82352066D01*
X113930763Y-82352922D01*
X113872069Y-82375182D01*
X113859986Y-82383523D01*
X113848321Y-82390102D01*
X113834942Y-82396123D01*
X113785532Y-82434832D01*
X113783733Y-82436156D01*
X113732071Y-82471816D01*
X113690450Y-82518796D01*
X113688918Y-82520423D01*
X111269017Y-84940326D01*
X111223141Y-84961718D01*
X111216691Y-84962000D01*
X111109744Y-84962000D01*
X111080151Y-84964775D01*
X111080149Y-84964775D01*
X111080145Y-84964776D01*
X110955526Y-85008382D01*
X110849290Y-85086788D01*
X110849288Y-85086790D01*
X110770882Y-85193026D01*
X110727276Y-85317645D01*
X110727275Y-85317649D01*
X110727275Y-85317651D01*
X110724500Y-85347244D01*
X110724500Y-85927756D01*
X110275500Y-85927756D01*
X110275500Y-85347244D01*
X110272725Y-85317651D01*
X110271460Y-85314036D01*
X110229117Y-85193026D01*
X110208576Y-85165195D01*
X110150711Y-85086789D01*
X110087219Y-85039930D01*
X110044473Y-85008382D01*
X109919854Y-84964776D01*
X109919855Y-84964776D01*
X109919850Y-84964775D01*
X109919849Y-84964775D01*
X109890256Y-84962000D01*
X108984744Y-84962000D01*
X108955151Y-84964775D01*
X108955149Y-84964775D01*
X108955145Y-84964776D01*
X108830526Y-85008382D01*
X108724290Y-85086788D01*
X108724288Y-85086790D01*
X108645882Y-85193026D01*
X108602276Y-85317645D01*
X108602275Y-85317649D01*
X108602275Y-85317651D01*
X108599500Y-85347244D01*
X108599500Y-85927756D01*
X100000500Y-85927756D01*
X100000500Y-80074500D01*
X100017813Y-80026934D01*
X100061650Y-80001624D01*
X100074500Y-80000500D01*
X199925500Y-80000500D01*
X199973066Y-80017813D01*
G37*
G04 #@! TD.AperFunction*
M02*
