G04 #@! TF.GenerationSoftware,KiCad,Pcbnew,7.0.9*
G04 #@! TF.CreationDate,2024-09-01T01:28:20+09:00*
G04 #@! TF.ProjectId,im920sltoDS4,696d3932-3073-46c7-946f-4453342e6b69,rev?*
G04 #@! TF.SameCoordinates,Original*
G04 #@! TF.FileFunction,Copper,L1,Top*
G04 #@! TF.FilePolarity,Positive*
%FSLAX46Y46*%
G04 Gerber Fmt 4.6, Leading zero omitted, Abs format (unit mm)*
G04 Created by KiCad (PCBNEW 7.0.9) date 2024-09-01 01:28:20*
%MOMM*%
%LPD*%
G01*
G04 APERTURE LIST*
G04 Aperture macros list*
%AMRoundRect*
0 Rectangle with rounded corners*
0 $1 Rounding radius*
0 $2 $3 $4 $5 $6 $7 $8 $9 X,Y pos of 4 corners*
0 Add a 4 corners polygon primitive as box body*
4,1,4,$2,$3,$4,$5,$6,$7,$8,$9,$2,$3,0*
0 Add four circle primitives for the rounded corners*
1,1,$1+$1,$2,$3*
1,1,$1+$1,$4,$5*
1,1,$1+$1,$6,$7*
1,1,$1+$1,$8,$9*
0 Add four rect primitives between the rounded corners*
20,1,$1+$1,$2,$3,$4,$5,0*
20,1,$1+$1,$4,$5,$6,$7,0*
20,1,$1+$1,$6,$7,$8,$9,0*
20,1,$1+$1,$8,$9,$2,$3,0*%
G04 Aperture macros list end*
G04 #@! TA.AperFunction,SMDPad,CuDef*
%ADD10RoundRect,0.237500X-0.387500X-0.237500X0.387500X-0.237500X0.387500X0.237500X-0.387500X0.237500X0*%
G04 #@! TD*
G04 #@! TA.AperFunction,SMDPad,CuDef*
%ADD11R,1.500000X1.000000*%
G04 #@! TD*
G04 #@! TA.AperFunction,SMDPad,CuDef*
%ADD12RoundRect,0.100000X-0.100000X-0.450000X0.100000X-0.450000X0.100000X0.450000X-0.100000X0.450000X0*%
G04 #@! TD*
G04 #@! TA.AperFunction,SMDPad,CuDef*
%ADD13RoundRect,0.075000X-0.075000X-0.475000X0.075000X-0.475000X0.075000X0.475000X-0.075000X0.475000X0*%
G04 #@! TD*
G04 #@! TA.AperFunction,ComponentPad*
%ADD14C,1.000000*%
G04 #@! TD*
G04 #@! TA.AperFunction,ComponentPad*
%ADD15C,5.000000*%
G04 #@! TD*
G04 #@! TA.AperFunction,SMDPad,CuDef*
%ADD16RoundRect,0.075000X-0.075000X-0.700000X0.075000X-0.700000X0.075000X0.700000X-0.075000X0.700000X0*%
G04 #@! TD*
G04 #@! TA.AperFunction,SMDPad,CuDef*
%ADD17RoundRect,0.075000X-0.700000X-0.075000X0.700000X-0.075000X0.700000X0.075000X-0.700000X0.075000X0*%
G04 #@! TD*
G04 #@! TA.AperFunction,SMDPad,CuDef*
%ADD18RoundRect,0.250000X-0.250000X-1.150000X0.250000X-1.150000X0.250000X1.150000X-0.250000X1.150000X0*%
G04 #@! TD*
G04 #@! TA.AperFunction,SMDPad,CuDef*
%ADD19RoundRect,0.150000X-0.150000X-0.700000X0.150000X-0.700000X0.150000X0.700000X-0.150000X0.700000X0*%
G04 #@! TD*
G04 #@! TA.AperFunction,SMDPad,CuDef*
%ADD20R,6.400000X5.800000*%
G04 #@! TD*
G04 #@! TA.AperFunction,SMDPad,CuDef*
%ADD21R,2.200000X1.200000*%
G04 #@! TD*
G04 #@! TA.AperFunction,ComponentPad*
%ADD22R,1.700000X1.700000*%
G04 #@! TD*
G04 #@! TA.AperFunction,ComponentPad*
%ADD23O,1.700000X1.700000*%
G04 #@! TD*
G04 #@! TA.AperFunction,ComponentPad*
%ADD24R,1.524000X1.524000*%
G04 #@! TD*
G04 #@! TA.AperFunction,ComponentPad*
%ADD25C,1.524000*%
G04 #@! TD*
G04 #@! TA.AperFunction,ComponentPad*
%ADD26C,3.500000*%
G04 #@! TD*
G04 #@! TA.AperFunction,ComponentPad*
%ADD27O,1.800000X1.000000*%
G04 #@! TD*
G04 #@! TA.AperFunction,ComponentPad*
%ADD28O,2.100000X1.000000*%
G04 #@! TD*
G04 #@! TA.AperFunction,SMDPad,CuDef*
%ADD29R,1.240000X0.600000*%
G04 #@! TD*
G04 #@! TA.AperFunction,SMDPad,CuDef*
%ADD30R,1.240000X0.300000*%
G04 #@! TD*
G04 #@! TA.AperFunction,SMDPad,CuDef*
%ADD31RoundRect,0.237500X-0.287500X-0.237500X0.287500X-0.237500X0.287500X0.237500X-0.287500X0.237500X0*%
G04 #@! TD*
G04 #@! TA.AperFunction,SMDPad,CuDef*
%ADD32RoundRect,0.237500X0.387500X0.237500X-0.387500X0.237500X-0.387500X-0.237500X0.387500X-0.237500X0*%
G04 #@! TD*
G04 #@! TA.AperFunction,SMDPad,CuDef*
%ADD33RoundRect,0.292875X0.394625X0.432125X-0.394625X0.432125X-0.394625X-0.432125X0.394625X-0.432125X0*%
G04 #@! TD*
G04 #@! TA.AperFunction,ComponentPad*
%ADD34C,1.998980*%
G04 #@! TD*
G04 #@! TA.AperFunction,SMDPad,CuDef*
%ADD35RoundRect,0.237500X-0.400000X-0.237500X0.400000X-0.237500X0.400000X0.237500X-0.400000X0.237500X0*%
G04 #@! TD*
G04 #@! TA.AperFunction,SMDPad,CuDef*
%ADD36R,1.000000X1.500000*%
G04 #@! TD*
G04 #@! TA.AperFunction,SMDPad,CuDef*
%ADD37RoundRect,0.292875X-0.394625X-0.432125X0.394625X-0.432125X0.394625X0.432125X-0.394625X0.432125X0*%
G04 #@! TD*
G04 #@! TA.AperFunction,SMDPad,CuDef*
%ADD38RoundRect,0.292875X-0.432125X0.394625X-0.432125X-0.394625X0.432125X-0.394625X0.432125X0.394625X0*%
G04 #@! TD*
G04 #@! TA.AperFunction,ViaPad*
%ADD39C,0.500000*%
G04 #@! TD*
G04 #@! TA.AperFunction,ViaPad*
%ADD40C,0.600000*%
G04 #@! TD*
G04 #@! TA.AperFunction,Conductor*
%ADD41C,0.150000*%
G04 #@! TD*
G04 #@! TA.AperFunction,Conductor*
%ADD42C,1.000000*%
G04 #@! TD*
G04 #@! TA.AperFunction,Conductor*
%ADD43C,0.300000*%
G04 #@! TD*
G04 #@! TA.AperFunction,Conductor*
%ADD44C,0.500000*%
G04 #@! TD*
G04 APERTURE END LIST*
G04 #@! TA.AperFunction,EtchedComponent*
G36*
X168250000Y-109300000D02*
G01*
X167750000Y-109300000D01*
X167750000Y-108700000D01*
X168250000Y-108700000D01*
X168250000Y-109300000D01*
G37*
G04 #@! TD.AperFunction*
G04 #@! TA.AperFunction,EtchedComponent*
G36*
X168250000Y-106800000D02*
G01*
X167750000Y-106800000D01*
X167750000Y-106200000D01*
X168250000Y-106200000D01*
X168250000Y-106800000D01*
G37*
G04 #@! TD.AperFunction*
D10*
X167025000Y-116000000D03*
X168975000Y-116000000D03*
X167025000Y-118000000D03*
X168975000Y-118000000D03*
X167000000Y-120000000D03*
X168950000Y-120000000D03*
D11*
X112800000Y-86887500D03*
X108200000Y-86887500D03*
X112800000Y-84387500D03*
X108200000Y-84387500D03*
D12*
X185750000Y-110370000D03*
X185750000Y-106470000D03*
D13*
X185200000Y-110370000D03*
X185200000Y-106470000D03*
X184700000Y-110370000D03*
X184700000Y-106470000D03*
X184200000Y-110370000D03*
X184200000Y-106470000D03*
X183700000Y-110370000D03*
X183700000Y-106470000D03*
X183200000Y-110370000D03*
X183200000Y-106470000D03*
X182700000Y-110370000D03*
X182700000Y-106470000D03*
X182200000Y-110370000D03*
X182200000Y-106470000D03*
X181700000Y-110370000D03*
X181700000Y-106470000D03*
D12*
X181150000Y-110370000D03*
X181150000Y-106470000D03*
D14*
X180600000Y-108420000D03*
X186300000Y-108420000D03*
D15*
X194000000Y-83520000D03*
X194500000Y-108920000D03*
D11*
X173800000Y-98250000D03*
X169200000Y-98250000D03*
X173800000Y-95750000D03*
X169200000Y-95750000D03*
D16*
X145250000Y-106325000D03*
X145750000Y-106325000D03*
X146250000Y-106325000D03*
X146750000Y-106325000D03*
X147250000Y-106325000D03*
X147750000Y-106325000D03*
X148250000Y-106325000D03*
X148750000Y-106325000D03*
X149250000Y-106325000D03*
X149750000Y-106325000D03*
X150250000Y-106325000D03*
X150750000Y-106325000D03*
X151250000Y-106325000D03*
X151750000Y-106325000D03*
X152250000Y-106325000D03*
X152750000Y-106325000D03*
D17*
X154675000Y-108250000D03*
X154675000Y-108750000D03*
X154675000Y-109250000D03*
X154675000Y-109750000D03*
X154675000Y-110250000D03*
X154675000Y-110750000D03*
X154675000Y-111250000D03*
X154675000Y-111750000D03*
X154675000Y-112250000D03*
X154675000Y-112750000D03*
X154675000Y-113250000D03*
X154675000Y-113750000D03*
X154675000Y-114250000D03*
X154675000Y-114750000D03*
X154675000Y-115250000D03*
X154675000Y-115750000D03*
D16*
X152750000Y-117675000D03*
X152250000Y-117675000D03*
X151750000Y-117675000D03*
X151250000Y-117675000D03*
X150750000Y-117675000D03*
X150250000Y-117675000D03*
X149750000Y-117675000D03*
X149250000Y-117675000D03*
X148750000Y-117675000D03*
X148250000Y-117675000D03*
X147750000Y-117675000D03*
X147250000Y-117675000D03*
X146750000Y-117675000D03*
X146250000Y-117675000D03*
X145750000Y-117675000D03*
X145250000Y-117675000D03*
D17*
X143325000Y-115750000D03*
X143325000Y-115250000D03*
X143325000Y-114750000D03*
X143325000Y-114250000D03*
X143325000Y-113750000D03*
X143325000Y-113250000D03*
X143325000Y-112750000D03*
X143325000Y-112250000D03*
X143325000Y-111750000D03*
X143325000Y-111250000D03*
X143325000Y-110750000D03*
X143325000Y-110250000D03*
X143325000Y-109750000D03*
X143325000Y-109250000D03*
X143325000Y-108750000D03*
X143325000Y-108250000D03*
D18*
X118025000Y-82650000D03*
X127975000Y-82650000D03*
D19*
X126125000Y-86000000D03*
X124875000Y-86000000D03*
X123625000Y-86000000D03*
X122375000Y-86000000D03*
X121125000Y-86000000D03*
X119875000Y-86000000D03*
D20*
X122300000Y-112780000D03*
D21*
X116000000Y-115060000D03*
X116000000Y-112780000D03*
X116000000Y-110500000D03*
D22*
X135890000Y-144145000D03*
D23*
X138430000Y-144145000D03*
X140970000Y-144145000D03*
X143510000Y-144145000D03*
X146050000Y-144145000D03*
X148590000Y-144145000D03*
X151130000Y-144145000D03*
X153670000Y-144145000D03*
X156210000Y-144145000D03*
X158750000Y-144145000D03*
X161290000Y-144145000D03*
X163830000Y-144145000D03*
D24*
X153500000Y-93500000D03*
D25*
X151000000Y-93500000D03*
X149000000Y-93500000D03*
X146500000Y-93500000D03*
D26*
X156570000Y-90790000D03*
X143430000Y-90790000D03*
D27*
X103925000Y-117320000D03*
D28*
X108125000Y-117320000D03*
X108125000Y-108680000D03*
D27*
X103925000Y-108680000D03*
D29*
X108725000Y-109800000D03*
X108725000Y-110600000D03*
D30*
X108725000Y-111250000D03*
X108725000Y-112250000D03*
X108725000Y-113750000D03*
X108725000Y-114750000D03*
D29*
X108725000Y-115400000D03*
X108725000Y-116200000D03*
X108725000Y-116200000D03*
X108725000Y-115400000D03*
D30*
X108725000Y-114250000D03*
X108725000Y-113250000D03*
X108725000Y-112750000D03*
X108725000Y-111750000D03*
D29*
X108725000Y-110600000D03*
X108725000Y-109800000D03*
D31*
X188625000Y-124500000D03*
X190375000Y-124500000D03*
X188625000Y-118500000D03*
X190375000Y-118500000D03*
D32*
X113512500Y-118000000D03*
X111562500Y-118000000D03*
X111562500Y-107500000D03*
X113512500Y-107500000D03*
D33*
X143000000Y-104500000D03*
X140725000Y-104500000D03*
D34*
X136000000Y-113080000D03*
X136000000Y-108000000D03*
D35*
X147000000Y-104000000D03*
X144875000Y-104000000D03*
D22*
X135890000Y-128905000D03*
D23*
X138430000Y-128905000D03*
X140970000Y-128905000D03*
X143510000Y-128905000D03*
X146050000Y-128905000D03*
X148590000Y-128905000D03*
X151130000Y-128905000D03*
X153670000Y-128905000D03*
X156210000Y-128905000D03*
X158750000Y-128905000D03*
X161290000Y-128905000D03*
X163830000Y-128905000D03*
D36*
X167350000Y-109000000D03*
X168650000Y-109000000D03*
X167350000Y-106500000D03*
X168650000Y-106500000D03*
D31*
X188625000Y-122500000D03*
X190375000Y-122500000D03*
X188625000Y-120500000D03*
X190375000Y-120500000D03*
D37*
X159275000Y-106500000D03*
X157000000Y-106500000D03*
X157775000Y-117500000D03*
X155500000Y-117500000D03*
D38*
X144780000Y-122275000D03*
X144780000Y-120000000D03*
X141000000Y-117275000D03*
X141000000Y-115000000D03*
D37*
X157000000Y-108500000D03*
X159275000Y-108500000D03*
D38*
X155000000Y-122275000D03*
X155000000Y-120000000D03*
X153000000Y-120000000D03*
X153000000Y-122275000D03*
D33*
X140725000Y-106500000D03*
X143000000Y-106500000D03*
D38*
X106000000Y-84500000D03*
X106000000Y-86775000D03*
D37*
X132500000Y-113000000D03*
X130225000Y-113000000D03*
X132500000Y-108000000D03*
X130225000Y-108000000D03*
X116000000Y-118000000D03*
X118275000Y-118000000D03*
X118275000Y-107500000D03*
X116000000Y-107500000D03*
D39*
X161000000Y-115500000D03*
X161000000Y-114500000D03*
X161000000Y-113500000D03*
X169000000Y-116000000D03*
X169000000Y-118000000D03*
X168907500Y-120000000D03*
D40*
X167640000Y-142240000D03*
X187960000Y-96520000D03*
X198120000Y-81280000D03*
X198120000Y-91440000D03*
X198120000Y-86360000D03*
X198120000Y-96520000D03*
X198120000Y-101600000D03*
X198120000Y-106680000D03*
X198120000Y-111760000D03*
X193040000Y-116840000D03*
X198120000Y-116840000D03*
X198120000Y-121920000D03*
X187960000Y-127000000D03*
X198120000Y-127000000D03*
X193040000Y-127000000D03*
X142240000Y-121920000D03*
X137160000Y-121920000D03*
X132080000Y-121920000D03*
X132080000Y-142240000D03*
X162560000Y-142240000D03*
X152400000Y-142240000D03*
X147320000Y-142240000D03*
X142240000Y-132080000D03*
X157480000Y-132080000D03*
X167640000Y-132080000D03*
X162560000Y-132080000D03*
X162560000Y-137160000D03*
X167640000Y-137160000D03*
X157480000Y-137160000D03*
X147320000Y-137160000D03*
X132080000Y-127000000D03*
X137160000Y-132080000D03*
X137160000Y-137160000D03*
X132080000Y-132080000D03*
X132080000Y-137160000D03*
X121920000Y-91440000D03*
X116840000Y-101600000D03*
X111760000Y-101600000D03*
X106680000Y-101600000D03*
X137160000Y-91440000D03*
X187960000Y-81280000D03*
X182880000Y-81280000D03*
X177800000Y-81280000D03*
X172720000Y-81280000D03*
X167640000Y-81280000D03*
X162560000Y-81280000D03*
X132080000Y-86360000D03*
X137160000Y-86360000D03*
X132080000Y-81280000D03*
X137160000Y-81280000D03*
X142240000Y-81280000D03*
X147320000Y-86360000D03*
X142240000Y-86360000D03*
X147320000Y-81280000D03*
X152400000Y-81280000D03*
X157480000Y-81280000D03*
X157480000Y-86360000D03*
X152400000Y-86360000D03*
X187960000Y-86360000D03*
X182880000Y-86360000D03*
X177800000Y-86360000D03*
X177800000Y-91440000D03*
X177800000Y-101600000D03*
X172720000Y-101600000D03*
X167640000Y-101600000D03*
X167640000Y-96520000D03*
X162560000Y-101600000D03*
X162560000Y-96520000D03*
X172720000Y-91440000D03*
X167640000Y-91440000D03*
X162560000Y-91440000D03*
X172720000Y-86360000D03*
X167640000Y-86360000D03*
X162560000Y-86360000D03*
X187960000Y-91440000D03*
X193040000Y-91440000D03*
X193040000Y-96520000D03*
X193040000Y-101600000D03*
X187960000Y-101600000D03*
X182880000Y-101600000D03*
X182880000Y-96520000D03*
X182880000Y-91440000D03*
X172720000Y-127000000D03*
X177800000Y-127000000D03*
X182880000Y-127000000D03*
X193040000Y-137160000D03*
X187960000Y-137160000D03*
X182880000Y-137160000D03*
X177800000Y-137160000D03*
X172720000Y-137160000D03*
X172720000Y-132080000D03*
X177800000Y-132080000D03*
X182880000Y-132080000D03*
X187960000Y-132080000D03*
X193040000Y-132080000D03*
X198120000Y-132080000D03*
X198120000Y-137160000D03*
X198120000Y-142240000D03*
X193040000Y-142240000D03*
X187960000Y-142240000D03*
X182880000Y-142240000D03*
X177800000Y-142240000D03*
X172720000Y-142240000D03*
X116840000Y-132080000D03*
X116840000Y-127000000D03*
X121920000Y-127000000D03*
X121920000Y-132080000D03*
X121920000Y-137160000D03*
X116840000Y-137160000D03*
X111760000Y-137160000D03*
X111760000Y-132080000D03*
X111760000Y-127000000D03*
X111760000Y-121920000D03*
X116840000Y-121920000D03*
X121920000Y-121920000D03*
X127000000Y-121920000D03*
X127000000Y-127000000D03*
X127000000Y-132080000D03*
X127000000Y-137160000D03*
X127000000Y-142240000D03*
X121920000Y-142240000D03*
X116840000Y-142240000D03*
X111760000Y-142240000D03*
X106680000Y-142240000D03*
X106680000Y-137160000D03*
X106680000Y-132080000D03*
X106680000Y-127000000D03*
X106680000Y-121920000D03*
X116840000Y-96520000D03*
X121920000Y-96520000D03*
X116840000Y-91440000D03*
X111760000Y-96520000D03*
X111760000Y-91440000D03*
X106680000Y-91440000D03*
X106680000Y-96520000D03*
D39*
X146700000Y-126100000D03*
X145000000Y-126800000D03*
X171500000Y-106500000D03*
X170500000Y-109000000D03*
X167000000Y-109000000D03*
X167000000Y-106500000D03*
X181500000Y-115500000D03*
X186000000Y-113000000D03*
X182500000Y-111500000D03*
X185000000Y-111500000D03*
X185500000Y-105000000D03*
X164000000Y-109000000D03*
X166000000Y-109000000D03*
D40*
X134000000Y-98500000D03*
X140500000Y-98500000D03*
D39*
X109500000Y-85637500D03*
X190500000Y-124500000D03*
X190500000Y-118500000D03*
X190500000Y-122500000D03*
X190500000Y-120500000D03*
X144780000Y-120000000D03*
X155500000Y-117500000D03*
X157000000Y-106500000D03*
X143000000Y-104500000D03*
X143000000Y-106500000D03*
X141000000Y-115000000D03*
X116000000Y-118000000D03*
X116000000Y-107500000D03*
X111562500Y-118000000D03*
X111562500Y-107500000D03*
X126125000Y-86000000D03*
X106000000Y-114000000D03*
X106000000Y-112000000D03*
D41*
X158750000Y-113250000D02*
X161000000Y-115500000D01*
X154675000Y-113250000D02*
X158750000Y-113250000D01*
X159250000Y-112750000D02*
X161000000Y-114500000D01*
X154675000Y-112750000D02*
X159250000Y-112750000D01*
X159750000Y-112250000D02*
X161000000Y-113500000D01*
X154675000Y-112250000D02*
X159750000Y-112250000D01*
D42*
X143430000Y-90790000D02*
X156570000Y-90790000D01*
X103925000Y-117320000D02*
X108125000Y-117320000D01*
X103925000Y-108680000D02*
X103925000Y-117320000D01*
X108125000Y-108680000D02*
X103925000Y-108680000D01*
D41*
X152400000Y-137795000D02*
X158750000Y-144145000D01*
X149250000Y-125120000D02*
X152400000Y-128270000D01*
X152400000Y-128270000D02*
X152400000Y-137795000D01*
X149250000Y-117675000D02*
X149250000Y-125120000D01*
X148250000Y-124550000D02*
X148250000Y-117675000D01*
X146700000Y-126100000D02*
X148250000Y-124550000D01*
X147750000Y-124050000D02*
X147750000Y-117675000D01*
X145000000Y-126800000D02*
X147750000Y-124050000D01*
X147250000Y-123250000D02*
X143510000Y-126990000D01*
X143510000Y-126990000D02*
X143510000Y-128905000D01*
X147250000Y-117675000D02*
X147250000Y-123250000D01*
X139700000Y-125095000D02*
X135890000Y-128905000D01*
X146750000Y-123125000D02*
X144780000Y-125095000D01*
X144780000Y-125095000D02*
X139700000Y-125095000D01*
X146750000Y-117675000D02*
X146750000Y-123125000D01*
X159385000Y-124460000D02*
X163830000Y-128905000D01*
X149750000Y-117675000D02*
X149750000Y-123080000D01*
X149750000Y-123080000D02*
X151130000Y-124460000D01*
X151130000Y-124460000D02*
X159385000Y-124460000D01*
X147320000Y-132715000D02*
X135890000Y-144145000D01*
X148750000Y-126205000D02*
X147320000Y-127635000D01*
X147320000Y-127635000D02*
X147320000Y-132715000D01*
X148750000Y-117675000D02*
X148750000Y-126205000D01*
X146250000Y-118530000D02*
X144780000Y-120000000D01*
X146250000Y-117675000D02*
X146250000Y-118530000D01*
X171500000Y-106500000D02*
X179500000Y-106500000D01*
X170500000Y-109000000D02*
X179500000Y-109000000D01*
X167000000Y-109000000D02*
X166000000Y-109000000D01*
X167000000Y-106850000D02*
X162600000Y-111250000D01*
X167000000Y-106500000D02*
X167000000Y-106850000D01*
X167350000Y-106500000D02*
X167000000Y-106500000D01*
X175750000Y-95750000D02*
X173800000Y-95750000D01*
X182200000Y-106470000D02*
X182200000Y-102200000D01*
X182200000Y-102200000D02*
X175750000Y-95750000D01*
X181700000Y-115300000D02*
X181500000Y-115500000D01*
X181700000Y-110370000D02*
X181700000Y-115300000D01*
X174250000Y-124000000D02*
X185750000Y-112500000D01*
X150250000Y-122750000D02*
X151500000Y-124000000D01*
X151500000Y-124000000D02*
X174250000Y-124000000D01*
X150250000Y-117675000D02*
X150250000Y-122750000D01*
X185750000Y-112750000D02*
X185750000Y-112500000D01*
X186000000Y-113000000D02*
X185750000Y-112750000D01*
X185750000Y-112500000D02*
X185750000Y-110370000D01*
X182200000Y-111200000D02*
X182500000Y-111500000D01*
X182200000Y-110370000D02*
X182200000Y-111200000D01*
X185200000Y-111300000D02*
X185000000Y-111500000D01*
X185200000Y-110370000D02*
X185200000Y-111300000D01*
X185200000Y-105300000D02*
X185500000Y-105000000D01*
X185200000Y-106470000D02*
X185200000Y-105300000D01*
X162250000Y-110750000D02*
X154675000Y-110750000D01*
X164000000Y-109000000D02*
X162250000Y-110750000D01*
X167350000Y-109000000D02*
X167000000Y-109000000D01*
X162600000Y-111250000D02*
X154675000Y-111250000D01*
X167350000Y-106500000D02*
X167350000Y-106500000D01*
X184500000Y-107500000D02*
X184700000Y-107300000D01*
X184700000Y-107300000D02*
X184700000Y-106470000D01*
X180500000Y-107500000D02*
X184500000Y-107500000D01*
X179500000Y-106500000D02*
X180500000Y-107500000D01*
X168650000Y-106500000D02*
X171500000Y-106500000D01*
X184200000Y-109700000D02*
X184200000Y-110370000D01*
X180000000Y-109500000D02*
X184000000Y-109500000D01*
X184000000Y-109500000D02*
X184200000Y-109700000D01*
X179500000Y-109000000D02*
X180000000Y-109500000D01*
X168650000Y-109000000D02*
X170500000Y-109000000D01*
X172500000Y-123500000D02*
X181150000Y-114850000D01*
X181150000Y-114850000D02*
X181150000Y-110370000D01*
X152000000Y-123500000D02*
X172500000Y-123500000D01*
X150750000Y-117675000D02*
X150750000Y-122250000D01*
X150750000Y-122250000D02*
X152000000Y-123500000D01*
X154000000Y-119000000D02*
X155000000Y-120000000D01*
X152500000Y-119000000D02*
X154000000Y-119000000D01*
X152250000Y-118750000D02*
X152500000Y-119000000D01*
X152250000Y-117675000D02*
X152250000Y-118750000D01*
X151750000Y-118750000D02*
X153000000Y-120000000D01*
X151750000Y-117675000D02*
X151750000Y-118750000D01*
D43*
X169200000Y-95750000D02*
X173800000Y-95750000D01*
D41*
X120387500Y-84387500D02*
X112800000Y-84387500D01*
X121125000Y-85125000D02*
X120387500Y-84387500D01*
X121125000Y-86000000D02*
X121125000Y-85125000D01*
D42*
X134000000Y-98500000D02*
X140500000Y-98500000D01*
D41*
X122375000Y-85125000D02*
X122375000Y-86000000D01*
X123000000Y-84500000D02*
X122375000Y-85125000D01*
X145000000Y-95500000D02*
X138000000Y-95500000D01*
X153500000Y-109000000D02*
X153500000Y-104000000D01*
X138000000Y-95500000D02*
X127000000Y-84500000D01*
X153750000Y-109250000D02*
X153500000Y-109000000D01*
X153500000Y-104000000D02*
X145000000Y-95500000D01*
X127000000Y-84500000D02*
X123000000Y-84500000D01*
X154675000Y-109250000D02*
X153750000Y-109250000D01*
X119875000Y-87375000D02*
X119875000Y-86000000D01*
X128000000Y-95500000D02*
X119875000Y-87375000D01*
X128000000Y-115000000D02*
X128000000Y-95500000D01*
X131500000Y-118500000D02*
X128000000Y-115000000D01*
X143325000Y-115750000D02*
X143325000Y-117175000D01*
X143325000Y-117175000D02*
X142000000Y-118500000D01*
X142000000Y-118500000D02*
X131500000Y-118500000D01*
X121125000Y-87125000D02*
X121125000Y-86000000D01*
X129000000Y-95000000D02*
X121125000Y-87125000D01*
X129000000Y-114500000D02*
X129000000Y-95000000D01*
X132000000Y-117500000D02*
X129000000Y-114500000D01*
X137000000Y-117500000D02*
X132000000Y-117500000D01*
X139000000Y-115500000D02*
X137000000Y-117500000D01*
X142250000Y-111250000D02*
X139000000Y-114500000D01*
X139000000Y-114500000D02*
X139000000Y-115500000D01*
X143325000Y-111250000D02*
X142250000Y-111250000D01*
D43*
X108200000Y-84387500D02*
X108250000Y-84387500D01*
X108250000Y-84387500D02*
X109500000Y-85637500D01*
X108200000Y-84387500D02*
X112800000Y-84387500D01*
X108087500Y-84500000D02*
X108200000Y-84387500D01*
X106000000Y-84500000D02*
X108087500Y-84500000D01*
D41*
X134500000Y-96500000D02*
X124875000Y-86875000D01*
X124875000Y-86875000D02*
X124875000Y-86000000D01*
X144500000Y-96500000D02*
X134500000Y-96500000D01*
X152750000Y-104750000D02*
X144500000Y-96500000D01*
X152750000Y-106325000D02*
X152750000Y-104750000D01*
X151000000Y-95500000D02*
X151000000Y-93000000D01*
X161000000Y-109500000D02*
X161000000Y-105500000D01*
X160250000Y-110250000D02*
X161000000Y-109500000D01*
X154675000Y-110250000D02*
X160250000Y-110250000D01*
X161000000Y-105500000D02*
X151000000Y-95500000D01*
X149000000Y-94500000D02*
X149000000Y-93000000D01*
X160500000Y-109000000D02*
X160500000Y-106000000D01*
X160500000Y-106000000D02*
X149000000Y-94500000D01*
X159750000Y-109750000D02*
X160500000Y-109000000D01*
X154675000Y-109750000D02*
X159750000Y-109750000D01*
X152925000Y-117500000D02*
X152750000Y-117675000D01*
X155500000Y-117500000D02*
X152925000Y-117500000D01*
X144825000Y-106325000D02*
X145250000Y-106325000D01*
X143000000Y-104500000D02*
X144825000Y-106325000D01*
X143000000Y-107925000D02*
X143325000Y-108250000D01*
X143000000Y-106500000D02*
X143000000Y-107925000D01*
X143325000Y-110750000D02*
X138330000Y-110750000D01*
X143325000Y-110250000D02*
X138250000Y-110250000D01*
X141750000Y-114250000D02*
X141000000Y-115000000D01*
X143325000Y-114250000D02*
X141750000Y-114250000D01*
X156425000Y-106500000D02*
X157000000Y-106500000D01*
X154675000Y-108250000D02*
X156425000Y-106500000D01*
X156750000Y-108750000D02*
X157000000Y-108500000D01*
X154675000Y-108750000D02*
X156750000Y-108750000D01*
X147250000Y-104250000D02*
X147000000Y-104000000D01*
X147250000Y-106325000D02*
X147250000Y-104250000D01*
D43*
X135920000Y-113000000D02*
X136000000Y-113080000D01*
X132500000Y-113000000D02*
X135920000Y-113000000D01*
X132500000Y-108000000D02*
X136000000Y-108000000D01*
D41*
X138330000Y-110750000D02*
X136000000Y-113080000D01*
X138250000Y-110250000D02*
X136000000Y-108000000D01*
D44*
X115900000Y-110600000D02*
X116000000Y-110500000D01*
X110500000Y-110600000D02*
X115900000Y-110600000D01*
D42*
X116000000Y-118000000D02*
X116000000Y-115060000D01*
X116000000Y-110500000D02*
X116000000Y-107500000D01*
D44*
X108725000Y-110600000D02*
X110500000Y-110600000D01*
X108725000Y-115400000D02*
X110500000Y-115400000D01*
D43*
X107750000Y-113750000D02*
X107500000Y-113500000D01*
X108725000Y-113750000D02*
X107750000Y-113750000D01*
X107500000Y-113000000D02*
X107500000Y-113500000D01*
X107750000Y-112750000D02*
X107500000Y-113000000D01*
X108725000Y-112750000D02*
X107750000Y-112750000D01*
X109750000Y-113250000D02*
X108725000Y-113250000D01*
X108725000Y-112250000D02*
X109750000Y-112250000D01*
X110000000Y-112500000D02*
X110000000Y-113000000D01*
X109750000Y-112250000D02*
X110000000Y-112500000D01*
X110000000Y-113000000D02*
X109750000Y-113250000D01*
D44*
X110500000Y-115400000D02*
X110900000Y-115000000D01*
X110900000Y-111000000D02*
X110900000Y-115000000D01*
X110500000Y-110600000D02*
X110900000Y-111000000D01*
D43*
X108725000Y-114750000D02*
X106750000Y-114750000D01*
X106750000Y-114750000D02*
X106000000Y-114000000D01*
X108725000Y-111750000D02*
X106250000Y-111750000D01*
X106250000Y-111750000D02*
X106000000Y-112000000D01*
G04 #@! TA.AperFunction,Conductor*
G36*
X199973066Y-80017813D02*
G01*
X199998376Y-80061650D01*
X199999500Y-80074500D01*
X199999500Y-145925500D01*
X199982187Y-145973066D01*
X199938350Y-145998376D01*
X199925500Y-145999500D01*
X100074500Y-145999500D01*
X100026934Y-145982187D01*
X100001624Y-145938350D01*
X100000500Y-145925500D01*
X100000500Y-118290256D01*
X110737000Y-118290256D01*
X110739775Y-118319849D01*
X110739775Y-118319851D01*
X110739776Y-118319854D01*
X110783382Y-118444473D01*
X110815059Y-118487394D01*
X110861789Y-118550711D01*
X110937309Y-118606447D01*
X110968026Y-118629117D01*
X111092645Y-118672723D01*
X111092651Y-118672725D01*
X111122244Y-118675500D01*
X111122251Y-118675500D01*
X112002749Y-118675500D01*
X112002756Y-118675500D01*
X112032349Y-118672725D01*
X112116006Y-118643452D01*
X112156973Y-118629117D01*
X112156973Y-118629116D01*
X112156975Y-118629116D01*
X112263211Y-118550711D01*
X112341616Y-118444475D01*
X112344105Y-118437364D01*
X112385223Y-118319854D01*
X112385222Y-118319854D01*
X112385225Y-118319849D01*
X112388000Y-118290256D01*
X112388000Y-117709744D01*
X112385225Y-117680151D01*
X112346759Y-117570222D01*
X112341617Y-117555526D01*
X112272532Y-117461919D01*
X112263211Y-117449289D01*
X112203277Y-117405056D01*
X112156973Y-117370882D01*
X112032354Y-117327276D01*
X112032355Y-117327276D01*
X112032350Y-117327275D01*
X112032349Y-117327275D01*
X112002756Y-117324500D01*
X111122244Y-117324500D01*
X111092651Y-117327275D01*
X111092649Y-117327275D01*
X111092645Y-117327276D01*
X110968026Y-117370882D01*
X110861790Y-117449288D01*
X110861788Y-117449290D01*
X110783382Y-117555526D01*
X110739776Y-117680145D01*
X110739775Y-117680149D01*
X110739775Y-117680151D01*
X110737000Y-117709744D01*
X110737000Y-118290256D01*
X100000500Y-118290256D01*
X100000500Y-117405058D01*
X102824500Y-117405058D01*
X102853001Y-117520690D01*
X102865210Y-117570225D01*
X102940667Y-117713994D01*
X102944268Y-117720855D01*
X103016098Y-117801934D01*
X103057071Y-117848183D01*
X103197070Y-117944818D01*
X103356128Y-118005140D01*
X103482628Y-118020500D01*
X108717372Y-118020500D01*
X108843872Y-118005140D01*
X109002930Y-117944818D01*
X109142929Y-117848183D01*
X109255734Y-117720852D01*
X109334790Y-117570225D01*
X109375500Y-117405056D01*
X109375500Y-117234944D01*
X109334790Y-117069775D01*
X109255734Y-116919148D01*
X109209982Y-116867505D01*
X109142928Y-116791816D01*
X109002929Y-116695181D01*
X108843871Y-116634859D01*
X108717379Y-116619500D01*
X108717372Y-116619500D01*
X108167372Y-116619500D01*
X104699500Y-116619500D01*
X104651934Y-116602187D01*
X104626624Y-116558350D01*
X104625500Y-116545500D01*
X104625500Y-114000000D01*
X105544867Y-114000000D01*
X105563302Y-114128223D01*
X105563302Y-114128224D01*
X105563303Y-114128226D01*
X105617118Y-114246063D01*
X105701951Y-114343967D01*
X105800901Y-114407558D01*
X105810931Y-114414004D01*
X105940306Y-114451991D01*
X105939899Y-114453376D01*
X105975523Y-114471205D01*
X106471030Y-114966712D01*
X106480652Y-114978561D01*
X106488563Y-114990669D01*
X106515731Y-115011814D01*
X106519166Y-115014848D01*
X106522693Y-115018375D01*
X106540435Y-115031042D01*
X106553373Y-115041112D01*
X106580874Y-115062517D01*
X106580878Y-115062518D01*
X106586264Y-115065433D01*
X106586093Y-115065748D01*
X106588270Y-115066869D01*
X106588428Y-115066547D01*
X106593931Y-115069237D01*
X106593934Y-115069239D01*
X106643033Y-115083856D01*
X106691512Y-115100500D01*
X106691514Y-115100500D01*
X106697562Y-115101510D01*
X106697503Y-115101861D01*
X106699916Y-115102213D01*
X106699961Y-115101858D01*
X106706039Y-115102615D01*
X106706046Y-115102617D01*
X106757231Y-115100500D01*
X107830500Y-115100500D01*
X107878066Y-115117813D01*
X107903376Y-115161650D01*
X107904500Y-115174500D01*
X107904500Y-115330595D01*
X107887187Y-115378161D01*
X107843350Y-115403471D01*
X107810535Y-115401851D01*
X107677229Y-115364500D01*
X107677228Y-115364500D01*
X107569051Y-115364500D01*
X107569046Y-115364500D01*
X107461892Y-115379228D01*
X107461890Y-115379228D01*
X107461889Y-115379229D01*
X107329391Y-115436781D01*
X107329389Y-115436782D01*
X107329388Y-115436782D01*
X107217334Y-115527946D01*
X107217333Y-115527947D01*
X107134032Y-115645958D01*
X107134027Y-115645966D01*
X107085655Y-115782075D01*
X107085652Y-115782087D01*
X107075795Y-115926197D01*
X107090700Y-115997924D01*
X107105186Y-116067634D01*
X107105187Y-116067636D01*
X107105189Y-116067642D01*
X107171643Y-116195892D01*
X107171646Y-116195896D01*
X107259766Y-116290249D01*
X107270245Y-116301469D01*
X107393672Y-116376526D01*
X107480204Y-116400771D01*
X107532771Y-116415500D01*
X107532772Y-116415500D01*
X107640942Y-116415500D01*
X107640949Y-116415500D01*
X107748111Y-116400771D01*
X107880609Y-116343219D01*
X107992665Y-116252054D01*
X108075971Y-116134037D01*
X108124346Y-115997921D01*
X108126294Y-115969450D01*
X108146812Y-115923176D01*
X108192274Y-115900917D01*
X108200121Y-115900500D01*
X109364746Y-115900500D01*
X109364748Y-115900500D01*
X109423231Y-115888867D01*
X109461985Y-115862972D01*
X109503098Y-115850500D01*
X110472617Y-115850500D01*
X110476763Y-115850733D01*
X110491538Y-115852397D01*
X110517035Y-115855270D01*
X110575479Y-115844211D01*
X110634287Y-115835348D01*
X110634292Y-115835345D01*
X110639590Y-115833712D01*
X110639604Y-115833759D01*
X110645252Y-115831900D01*
X110645237Y-115831855D01*
X110650467Y-115830025D01*
X110650470Y-115830023D01*
X110650472Y-115830023D01*
X110703072Y-115802222D01*
X110756642Y-115776425D01*
X110756646Y-115776421D01*
X110761222Y-115773302D01*
X110761248Y-115773341D01*
X110766102Y-115769897D01*
X110766075Y-115769860D01*
X110770535Y-115766567D01*
X110770538Y-115766566D01*
X110812600Y-115724503D01*
X110856194Y-115684055D01*
X110856195Y-115684052D01*
X110856197Y-115684051D01*
X110859629Y-115679748D01*
X114699500Y-115679748D01*
X114700356Y-115684051D01*
X114711133Y-115738232D01*
X114740429Y-115782075D01*
X114755448Y-115804552D01*
X114796309Y-115831855D01*
X114821767Y-115848866D01*
X114821768Y-115848866D01*
X114821769Y-115848867D01*
X114880252Y-115860500D01*
X115225500Y-115860500D01*
X115273066Y-115877813D01*
X115298376Y-115921650D01*
X115299500Y-115934500D01*
X115299500Y-117143506D01*
X115282187Y-117191072D01*
X115269848Y-117202745D01*
X115252919Y-117215418D01*
X115252918Y-117215419D01*
X115167897Y-117328994D01*
X115167896Y-117328995D01*
X115118319Y-117461917D01*
X115118317Y-117461923D01*
X115112000Y-117520687D01*
X115112000Y-118479311D01*
X115112001Y-118479312D01*
X115118318Y-118538080D01*
X115167896Y-118671004D01*
X115167897Y-118671005D01*
X115167898Y-118671006D01*
X115252919Y-118784581D01*
X115350321Y-118857495D01*
X115366494Y-118869602D01*
X115366495Y-118869603D01*
X115475856Y-118910392D01*
X115499422Y-118919182D01*
X115558189Y-118925500D01*
X116441810Y-118925499D01*
X116441811Y-118925499D01*
X116441811Y-118925498D01*
X116500578Y-118919182D01*
X116567042Y-118894392D01*
X116633504Y-118869603D01*
X116633504Y-118869602D01*
X116633506Y-118869602D01*
X116747081Y-118784581D01*
X116832102Y-118671006D01*
X116839751Y-118650500D01*
X116868424Y-118573624D01*
X116881682Y-118538078D01*
X116888000Y-118479311D01*
X116887999Y-117520690D01*
X116881682Y-117461922D01*
X116881680Y-117461917D01*
X116832103Y-117328995D01*
X116832102Y-117328994D01*
X116747081Y-117215419D01*
X116747080Y-117215418D01*
X116730152Y-117202745D01*
X116702449Y-117160379D01*
X116700500Y-117143506D01*
X116700500Y-115934500D01*
X116717813Y-115886934D01*
X116761650Y-115861624D01*
X116774500Y-115860500D01*
X117119746Y-115860500D01*
X117119748Y-115860500D01*
X117178231Y-115848867D01*
X117244552Y-115804552D01*
X117288867Y-115738231D01*
X117300500Y-115679748D01*
X117300500Y-114440252D01*
X117288867Y-114381769D01*
X117286232Y-114377826D01*
X117271135Y-114355232D01*
X117244552Y-114315448D01*
X117222343Y-114300608D01*
X117178232Y-114271133D01*
X117178233Y-114271133D01*
X117148989Y-114265316D01*
X117119748Y-114259500D01*
X114880252Y-114259500D01*
X114851010Y-114265316D01*
X114821767Y-114271133D01*
X114755449Y-114315447D01*
X114755447Y-114315449D01*
X114711133Y-114381767D01*
X114703377Y-114420757D01*
X114699500Y-114440252D01*
X114699500Y-115679748D01*
X110859629Y-115679748D01*
X110859653Y-115679718D01*
X110859689Y-115679746D01*
X110867376Y-115669726D01*
X111199198Y-115337905D01*
X111202282Y-115335147D01*
X111233970Y-115309879D01*
X111240706Y-115300000D01*
X111267476Y-115260734D01*
X111298170Y-115219145D01*
X111302792Y-115212883D01*
X111302793Y-115212880D01*
X111305384Y-115207979D01*
X111305426Y-115208001D01*
X111308108Y-115202688D01*
X111308066Y-115202668D01*
X111310468Y-115197677D01*
X111310472Y-115197673D01*
X111328008Y-115140820D01*
X111347646Y-115084700D01*
X111347646Y-115084696D01*
X111348677Y-115079251D01*
X111348723Y-115079259D01*
X111349719Y-115073391D01*
X111349673Y-115073384D01*
X111350500Y-115067899D01*
X111350500Y-115008426D01*
X111352724Y-114948994D01*
X111352103Y-114943481D01*
X111352149Y-114943475D01*
X111350500Y-114930947D01*
X111350500Y-111124500D01*
X111367813Y-111076934D01*
X111411650Y-111051624D01*
X111424500Y-111050500D01*
X114625610Y-111050500D01*
X114673176Y-111067813D01*
X114698486Y-111111650D01*
X114699253Y-111117243D01*
X114699499Y-111119743D01*
X114711133Y-111178232D01*
X114720828Y-111192741D01*
X114755448Y-111244552D01*
X114799560Y-111274027D01*
X114821767Y-111288866D01*
X114821768Y-111288866D01*
X114821769Y-111288867D01*
X114880252Y-111300500D01*
X114880254Y-111300500D01*
X117119746Y-111300500D01*
X117119748Y-111300500D01*
X117178231Y-111288867D01*
X117244552Y-111244552D01*
X117288867Y-111178231D01*
X117300500Y-111119748D01*
X117300500Y-109880252D01*
X117288867Y-109821769D01*
X117277065Y-109804107D01*
X117269519Y-109792813D01*
X117244552Y-109755448D01*
X117222343Y-109740608D01*
X117178232Y-109711133D01*
X117178233Y-109711133D01*
X117148989Y-109705316D01*
X117119748Y-109699500D01*
X117119746Y-109699500D01*
X116774500Y-109699500D01*
X116726934Y-109682187D01*
X116701624Y-109638350D01*
X116700500Y-109625500D01*
X116700500Y-108356492D01*
X116717813Y-108308926D01*
X116730154Y-108297252D01*
X116747081Y-108284581D01*
X116832102Y-108171006D01*
X116840733Y-108147867D01*
X116861544Y-108092070D01*
X116881682Y-108038078D01*
X116888000Y-107979311D01*
X116887999Y-107020690D01*
X116881682Y-106961922D01*
X116877422Y-106950500D01*
X116832103Y-106828995D01*
X116832102Y-106828994D01*
X116811845Y-106801934D01*
X116747081Y-106715419D01*
X116633506Y-106630398D01*
X116633505Y-106630397D01*
X116633504Y-106630396D01*
X116500582Y-106580819D01*
X116500576Y-106580817D01*
X116441812Y-106574500D01*
X115558188Y-106574500D01*
X115558187Y-106574501D01*
X115499419Y-106580818D01*
X115366495Y-106630396D01*
X115366494Y-106630397D01*
X115252919Y-106715419D01*
X115167897Y-106828994D01*
X115167896Y-106828995D01*
X115118319Y-106961917D01*
X115118317Y-106961923D01*
X115112000Y-107020687D01*
X115112000Y-107979311D01*
X115112001Y-107979312D01*
X115118318Y-108038080D01*
X115167896Y-108171004D01*
X115167897Y-108171005D01*
X115168469Y-108171769D01*
X115252919Y-108284581D01*
X115269846Y-108297252D01*
X115297550Y-108339617D01*
X115299500Y-108356492D01*
X115299500Y-109625500D01*
X115282187Y-109673066D01*
X115238350Y-109698376D01*
X115225500Y-109699500D01*
X114880252Y-109699500D01*
X114851010Y-109705316D01*
X114821767Y-109711133D01*
X114755449Y-109755447D01*
X114755447Y-109755449D01*
X114711133Y-109821767D01*
X114709847Y-109828232D01*
X114700518Y-109875137D01*
X114699500Y-109880253D01*
X114699500Y-110075500D01*
X114682187Y-110123066D01*
X114638350Y-110148376D01*
X114625500Y-110149500D01*
X110508426Y-110149500D01*
X110448994Y-110147275D01*
X110443481Y-110147897D01*
X110443475Y-110147850D01*
X110430948Y-110149500D01*
X109503098Y-110149500D01*
X109461985Y-110137028D01*
X109423232Y-110111133D01*
X109423233Y-110111133D01*
X109393989Y-110105316D01*
X109364748Y-110099500D01*
X109364746Y-110099500D01*
X108199748Y-110099500D01*
X108152182Y-110082187D01*
X108127296Y-110040556D01*
X108113569Y-109974500D01*
X108104814Y-109932366D01*
X108104810Y-109932360D01*
X108104810Y-109932357D01*
X108038356Y-109804107D01*
X108038353Y-109804103D01*
X107939754Y-109698530D01*
X107816328Y-109623474D01*
X107677229Y-109584500D01*
X107677228Y-109584500D01*
X107569051Y-109584500D01*
X107569046Y-109584500D01*
X107461892Y-109599228D01*
X107461890Y-109599228D01*
X107461889Y-109599229D01*
X107329391Y-109656781D01*
X107329389Y-109656782D01*
X107329388Y-109656782D01*
X107217334Y-109747946D01*
X107217333Y-109747947D01*
X107134032Y-109865958D01*
X107134027Y-109865966D01*
X107085655Y-110002075D01*
X107085652Y-110002087D01*
X107075795Y-110146197D01*
X107103346Y-110278782D01*
X107105186Y-110287634D01*
X107105187Y-110287636D01*
X107105189Y-110287642D01*
X107171643Y-110415892D01*
X107171646Y-110415896D01*
X107250194Y-110500000D01*
X107270245Y-110521469D01*
X107393672Y-110596526D01*
X107480204Y-110620771D01*
X107532771Y-110635500D01*
X107532772Y-110635500D01*
X107640942Y-110635500D01*
X107640949Y-110635500D01*
X107748111Y-110620771D01*
X107801018Y-110597789D01*
X107851544Y-110594718D01*
X107892223Y-110624843D01*
X107904500Y-110665663D01*
X107904500Y-110919748D01*
X107913301Y-110963992D01*
X107917555Y-110985379D01*
X107914059Y-110986074D01*
X107915257Y-111014164D01*
X107917555Y-111014621D01*
X107916133Y-111021768D01*
X107916133Y-111021769D01*
X107906645Y-111069471D01*
X107904500Y-111080253D01*
X107904500Y-111325500D01*
X107887187Y-111373066D01*
X107843350Y-111398376D01*
X107830500Y-111399500D01*
X106294021Y-111399500D01*
X106278836Y-111397925D01*
X106264685Y-111394958D01*
X106230524Y-111399216D01*
X106225946Y-111399500D01*
X106220952Y-111399500D01*
X106199449Y-111403088D01*
X106148606Y-111409426D01*
X106142729Y-111411176D01*
X106142628Y-111410837D01*
X106140300Y-111411583D01*
X106140415Y-111411918D01*
X106134619Y-111413907D01*
X106089554Y-111438295D01*
X106043516Y-111460801D01*
X106038529Y-111464362D01*
X106038324Y-111464075D01*
X106036365Y-111465535D01*
X106036582Y-111465814D01*
X106031746Y-111469578D01*
X106031742Y-111469581D01*
X106031742Y-111469582D01*
X105997042Y-111507275D01*
X105982787Y-111521530D01*
X105975522Y-111528795D01*
X105939900Y-111546627D01*
X105940306Y-111548009D01*
X105810931Y-111585995D01*
X105701954Y-111656031D01*
X105701950Y-111656034D01*
X105617119Y-111753935D01*
X105563302Y-111871776D01*
X105544867Y-112000000D01*
X105563302Y-112128223D01*
X105563302Y-112128224D01*
X105563303Y-112128226D01*
X105617118Y-112246063D01*
X105701951Y-112343967D01*
X105810931Y-112414004D01*
X105935228Y-112450500D01*
X106064772Y-112450500D01*
X106189069Y-112414004D01*
X106298049Y-112343967D01*
X106382882Y-112246063D01*
X106429604Y-112143756D01*
X106465110Y-112107683D01*
X106496915Y-112100500D01*
X107830500Y-112100500D01*
X107878066Y-112117813D01*
X107903376Y-112161650D01*
X107904500Y-112174500D01*
X107904500Y-112325500D01*
X107887187Y-112373066D01*
X107843350Y-112398376D01*
X107830500Y-112399500D01*
X107794021Y-112399500D01*
X107778836Y-112397925D01*
X107764685Y-112394958D01*
X107730524Y-112399216D01*
X107725946Y-112399500D01*
X107720952Y-112399500D01*
X107699449Y-112403088D01*
X107648606Y-112409426D01*
X107642729Y-112411176D01*
X107642628Y-112410837D01*
X107640300Y-112411583D01*
X107640415Y-112411918D01*
X107634619Y-112413907D01*
X107589554Y-112438295D01*
X107543516Y-112460801D01*
X107538529Y-112464362D01*
X107538324Y-112464075D01*
X107536365Y-112465535D01*
X107536582Y-112465814D01*
X107531742Y-112469581D01*
X107497042Y-112507275D01*
X107283286Y-112721030D01*
X107271438Y-112730652D01*
X107259333Y-112738561D01*
X107259325Y-112738568D01*
X107238185Y-112765728D01*
X107235154Y-112769161D01*
X107231630Y-112772686D01*
X107231625Y-112772692D01*
X107218955Y-112790438D01*
X107187483Y-112830873D01*
X107184567Y-112836262D01*
X107184255Y-112836093D01*
X107183133Y-112838272D01*
X107183452Y-112838428D01*
X107180758Y-112843937D01*
X107166138Y-112893045D01*
X107149499Y-112941513D01*
X107148491Y-112947558D01*
X107148139Y-112947499D01*
X107147787Y-112949916D01*
X107148142Y-112949961D01*
X107147383Y-112956047D01*
X107149500Y-113007231D01*
X107149500Y-113455974D01*
X107147925Y-113471159D01*
X107144957Y-113485311D01*
X107144957Y-113485315D01*
X107149216Y-113519479D01*
X107149500Y-113524060D01*
X107149500Y-113529047D01*
X107153087Y-113550540D01*
X107159315Y-113600500D01*
X107159427Y-113601393D01*
X107159429Y-113601397D01*
X107161176Y-113607265D01*
X107160834Y-113607366D01*
X107161580Y-113609695D01*
X107161916Y-113609580D01*
X107163907Y-113615380D01*
X107188295Y-113660445D01*
X107210801Y-113706483D01*
X107214366Y-113711476D01*
X107214075Y-113711683D01*
X107215533Y-113713639D01*
X107215816Y-113713420D01*
X107219581Y-113718258D01*
X107237648Y-113734889D01*
X107257275Y-113752957D01*
X107376092Y-113871774D01*
X107471030Y-113966712D01*
X107480652Y-113978561D01*
X107488563Y-113990669D01*
X107515731Y-114011814D01*
X107519166Y-114014848D01*
X107522693Y-114018375D01*
X107540437Y-114031044D01*
X107566558Y-114051375D01*
X107580874Y-114062517D01*
X107580875Y-114062517D01*
X107586266Y-114065434D01*
X107586094Y-114065750D01*
X107588269Y-114066869D01*
X107588427Y-114066547D01*
X107593932Y-114069239D01*
X107643037Y-114083858D01*
X107691512Y-114100500D01*
X107697562Y-114101510D01*
X107697503Y-114101861D01*
X107699916Y-114102213D01*
X107699961Y-114101858D01*
X107706039Y-114102615D01*
X107706046Y-114102617D01*
X107757231Y-114100500D01*
X107830500Y-114100500D01*
X107878066Y-114117813D01*
X107903376Y-114161650D01*
X107904500Y-114174500D01*
X107904500Y-114325500D01*
X107887187Y-114373066D01*
X107843350Y-114398376D01*
X107830500Y-114399500D01*
X106925834Y-114399500D01*
X106878268Y-114382187D01*
X106873508Y-114377826D01*
X106465739Y-113970057D01*
X106444818Y-113928261D01*
X106436697Y-113871777D01*
X106436697Y-113871776D01*
X106436697Y-113871774D01*
X106382882Y-113753937D01*
X106298049Y-113656033D01*
X106231032Y-113612964D01*
X106189068Y-113585995D01*
X106064772Y-113549500D01*
X105935228Y-113549500D01*
X105810931Y-113585995D01*
X105701954Y-113656031D01*
X105701950Y-113656034D01*
X105617119Y-113753935D01*
X105563302Y-113871776D01*
X105544867Y-114000000D01*
X104625500Y-114000000D01*
X104625500Y-109454500D01*
X104642813Y-109406934D01*
X104686650Y-109381624D01*
X104699500Y-109380500D01*
X108717372Y-109380500D01*
X108843872Y-109365140D01*
X109002930Y-109304818D01*
X109142929Y-109208183D01*
X109255734Y-109080852D01*
X109334790Y-108930225D01*
X109375500Y-108765056D01*
X109375500Y-108594944D01*
X109334790Y-108429775D01*
X109255734Y-108279148D01*
X109142929Y-108151817D01*
X109137210Y-108147869D01*
X109002929Y-108055181D01*
X108843871Y-107994859D01*
X108717379Y-107979500D01*
X108717372Y-107979500D01*
X108167372Y-107979500D01*
X104367372Y-107979500D01*
X103482628Y-107979500D01*
X103482620Y-107979500D01*
X103356128Y-107994859D01*
X103197070Y-108055181D01*
X103057071Y-108151816D01*
X102944269Y-108279143D01*
X102944267Y-108279146D01*
X102941414Y-108284582D01*
X102870343Y-108419996D01*
X102865209Y-108429777D01*
X102824500Y-108594941D01*
X102824500Y-108765058D01*
X102862690Y-108920000D01*
X102865210Y-108930225D01*
X102944266Y-109080852D01*
X102944267Y-109080853D01*
X102944269Y-109080856D01*
X103018221Y-109164330D01*
X103057071Y-109208183D01*
X103192083Y-109301376D01*
X103192537Y-109301689D01*
X103221848Y-109342958D01*
X103224500Y-109362590D01*
X103224500Y-116637410D01*
X103207187Y-116684976D01*
X103192537Y-116698311D01*
X103057071Y-116791816D01*
X102944269Y-116919143D01*
X102944267Y-116919146D01*
X102865209Y-117069777D01*
X102824500Y-117234941D01*
X102824500Y-117405058D01*
X100000500Y-117405058D01*
X100000500Y-107790256D01*
X110737000Y-107790256D01*
X110739775Y-107819849D01*
X110739775Y-107819851D01*
X110739776Y-107819854D01*
X110783382Y-107944473D01*
X110809233Y-107979500D01*
X110861789Y-108050711D01*
X110903666Y-108081617D01*
X110968026Y-108129117D01*
X111092645Y-108172723D01*
X111092651Y-108172725D01*
X111122244Y-108175500D01*
X111122251Y-108175500D01*
X112002749Y-108175500D01*
X112002756Y-108175500D01*
X112032349Y-108172725D01*
X112103383Y-108147869D01*
X112156973Y-108129117D01*
X112156973Y-108129116D01*
X112156975Y-108129116D01*
X112263211Y-108050711D01*
X112341616Y-107944475D01*
X112345916Y-107932188D01*
X112377874Y-107840856D01*
X112385225Y-107819849D01*
X112388000Y-107790256D01*
X112388000Y-107209744D01*
X112385225Y-107180151D01*
X112377668Y-107158555D01*
X112341617Y-107055526D01*
X112293246Y-106989986D01*
X112263211Y-106949289D01*
X112212635Y-106911962D01*
X112156973Y-106870882D01*
X112032354Y-106827276D01*
X112032355Y-106827276D01*
X112032350Y-106827275D01*
X112032349Y-106827275D01*
X112002756Y-106824500D01*
X111122244Y-106824500D01*
X111092651Y-106827275D01*
X111092649Y-106827275D01*
X111092645Y-106827276D01*
X110968026Y-106870882D01*
X110861790Y-106949288D01*
X110861788Y-106949290D01*
X110783382Y-107055526D01*
X110739776Y-107180145D01*
X110739775Y-107180149D01*
X110739775Y-107180151D01*
X110737000Y-107209744D01*
X110737000Y-107790256D01*
X100000500Y-107790256D01*
X100000500Y-86733264D01*
X119374500Y-86733264D01*
X119384427Y-86801393D01*
X119384427Y-86801394D01*
X119435801Y-86906482D01*
X119435802Y-86906483D01*
X119518517Y-86989198D01*
X119558000Y-87008499D01*
X119593129Y-87044942D01*
X119599500Y-87074980D01*
X119599500Y-87340579D01*
X119598078Y-87355015D01*
X119594103Y-87374999D01*
X119594103Y-87375000D01*
X119599500Y-87402132D01*
X119615485Y-87482495D01*
X119676377Y-87573625D01*
X119693314Y-87584942D01*
X119704529Y-87594145D01*
X127702826Y-95592442D01*
X127724218Y-95638318D01*
X127724500Y-95644768D01*
X127724500Y-114965579D01*
X127723078Y-114980015D01*
X127719103Y-115000000D01*
X127724500Y-115027132D01*
X127724500Y-115027133D01*
X127740485Y-115107495D01*
X127800739Y-115197671D01*
X127801377Y-115198625D01*
X127818314Y-115209942D01*
X127829529Y-115219145D01*
X131280854Y-118670470D01*
X131290056Y-118681683D01*
X131301375Y-118698623D01*
X131301376Y-118698624D01*
X131321355Y-118711974D01*
X131324377Y-118713993D01*
X131324378Y-118713994D01*
X131364025Y-118740485D01*
X131392505Y-118759515D01*
X131472867Y-118775500D01*
X131472871Y-118775500D01*
X131500000Y-118780896D01*
X131519980Y-118776922D01*
X131534416Y-118775500D01*
X141965580Y-118775500D01*
X141980016Y-118776921D01*
X142000000Y-118780897D01*
X142000001Y-118780897D01*
X142004622Y-118779977D01*
X142027132Y-118775500D01*
X142027133Y-118775500D01*
X142107495Y-118759515D01*
X142159898Y-118724500D01*
X142175622Y-118713994D01*
X142175622Y-118713993D01*
X142183636Y-118708639D01*
X142183639Y-118708636D01*
X142185808Y-118707187D01*
X142198624Y-118698624D01*
X142209948Y-118681674D01*
X142219141Y-118670473D01*
X142487484Y-118402130D01*
X144899500Y-118402130D01*
X144915485Y-118482495D01*
X144915485Y-118482496D01*
X144952623Y-118538076D01*
X144976376Y-118573624D01*
X145067505Y-118634515D01*
X145147867Y-118650500D01*
X145352132Y-118650499D01*
X145432495Y-118634515D01*
X145523624Y-118573624D01*
X145584515Y-118482495D01*
X145600500Y-118402133D01*
X145600499Y-116947868D01*
X145584515Y-116867505D01*
X145523624Y-116776376D01*
X145432495Y-116715485D01*
X145352133Y-116699500D01*
X145352131Y-116699500D01*
X145147869Y-116699500D01*
X145067504Y-116715485D01*
X145067503Y-116715485D01*
X144976377Y-116776375D01*
X144976375Y-116776377D01*
X144915485Y-116867504D01*
X144899500Y-116947868D01*
X144899500Y-118402130D01*
X142487484Y-118402130D01*
X143495473Y-117394141D01*
X143506676Y-117384947D01*
X143523624Y-117373624D01*
X143584515Y-117282495D01*
X143600500Y-117202133D01*
X143600500Y-117202132D01*
X143605897Y-117175000D01*
X143601922Y-117155015D01*
X143600500Y-117140579D01*
X143600500Y-116290256D01*
X168149500Y-116290256D01*
X168152275Y-116319849D01*
X168152275Y-116319851D01*
X168152276Y-116319854D01*
X168195882Y-116444473D01*
X168236863Y-116500000D01*
X168274289Y-116550711D01*
X168344037Y-116602187D01*
X168380526Y-116629117D01*
X168505145Y-116672723D01*
X168505151Y-116672725D01*
X168534744Y-116675500D01*
X168534751Y-116675500D01*
X169415249Y-116675500D01*
X169415256Y-116675500D01*
X169444849Y-116672725D01*
X169501532Y-116652890D01*
X169569473Y-116629117D01*
X169569473Y-116629116D01*
X169569475Y-116629116D01*
X169675711Y-116550711D01*
X169754116Y-116444475D01*
X169797725Y-116319849D01*
X169800500Y-116290256D01*
X169800500Y-115709744D01*
X169797725Y-115680151D01*
X169797583Y-115679746D01*
X169754117Y-115555526D01*
X169714591Y-115501970D01*
X169675711Y-115449289D01*
X169611434Y-115401851D01*
X169569473Y-115370882D01*
X169444854Y-115327276D01*
X169444855Y-115327276D01*
X169444850Y-115327275D01*
X169444849Y-115327275D01*
X169415256Y-115324500D01*
X168534744Y-115324500D01*
X168505151Y-115327275D01*
X168505149Y-115327275D01*
X168505145Y-115327276D01*
X168380526Y-115370882D01*
X168274290Y-115449288D01*
X168274288Y-115449290D01*
X168195882Y-115555526D01*
X168152276Y-115680145D01*
X168152275Y-115680149D01*
X168152275Y-115680151D01*
X168149500Y-115709744D01*
X168149500Y-116290256D01*
X143600500Y-116290256D01*
X143600500Y-116174499D01*
X143617813Y-116126933D01*
X143661650Y-116101623D01*
X143674500Y-116100499D01*
X144052131Y-116100499D01*
X144052132Y-116100499D01*
X144132495Y-116084515D01*
X144223624Y-116023624D01*
X144284515Y-115932495D01*
X144300500Y-115852133D01*
X144300499Y-115647868D01*
X144284515Y-115567505D01*
X144266879Y-115541112D01*
X144254848Y-115491945D01*
X144266880Y-115458887D01*
X144267913Y-115457341D01*
X144284515Y-115432495D01*
X144300500Y-115352133D01*
X144300499Y-115147868D01*
X144284515Y-115067505D01*
X144266879Y-115041112D01*
X144254848Y-114991945D01*
X144266880Y-114958887D01*
X144273152Y-114949500D01*
X144284515Y-114932495D01*
X144300500Y-114852133D01*
X144300499Y-114647868D01*
X144284515Y-114567505D01*
X144266879Y-114541112D01*
X144254848Y-114491945D01*
X144266880Y-114458887D01*
X144284515Y-114432495D01*
X144300500Y-114352133D01*
X144300499Y-114147868D01*
X144284515Y-114067505D01*
X144283342Y-114065750D01*
X144249330Y-114014848D01*
X144223624Y-113976376D01*
X144132495Y-113915485D01*
X144052133Y-113899500D01*
X144052131Y-113899500D01*
X142597869Y-113899500D01*
X142517504Y-113915485D01*
X142447848Y-113962029D01*
X142406736Y-113974500D01*
X141784420Y-113974500D01*
X141769983Y-113973078D01*
X141765257Y-113972138D01*
X141750000Y-113969103D01*
X141749999Y-113969103D01*
X141722868Y-113974500D01*
X141722867Y-113974500D01*
X141702441Y-113978563D01*
X141642504Y-113990485D01*
X141600765Y-114018375D01*
X141576304Y-114034719D01*
X141551376Y-114051375D01*
X141551374Y-114051377D01*
X141540053Y-114068319D01*
X141530853Y-114079529D01*
X141520056Y-114090326D01*
X141474180Y-114111718D01*
X141467730Y-114112000D01*
X140520688Y-114112000D01*
X140520687Y-114112001D01*
X140461919Y-114118318D01*
X140328995Y-114167896D01*
X140328994Y-114167897D01*
X140215419Y-114252919D01*
X140130397Y-114366494D01*
X140130396Y-114366495D01*
X140080819Y-114499417D01*
X140080817Y-114499423D01*
X140074500Y-114558187D01*
X140074500Y-115441811D01*
X140074501Y-115441812D01*
X140080818Y-115500580D01*
X140130396Y-115633504D01*
X140130397Y-115633505D01*
X140130398Y-115633506D01*
X140215419Y-115747081D01*
X140326217Y-115830023D01*
X140328994Y-115832102D01*
X140328995Y-115832103D01*
X140411759Y-115862972D01*
X140461922Y-115881682D01*
X140520689Y-115888000D01*
X141479310Y-115887999D01*
X141479311Y-115887999D01*
X141479311Y-115887998D01*
X141538078Y-115881682D01*
X141621055Y-115850733D01*
X141671004Y-115832103D01*
X141671004Y-115832102D01*
X141671006Y-115832102D01*
X141784581Y-115747081D01*
X141869602Y-115633506D01*
X141871572Y-115628226D01*
X141898687Y-115555526D01*
X141919182Y-115500578D01*
X141925500Y-115441811D01*
X141925499Y-114599499D01*
X141942812Y-114551934D01*
X141986649Y-114526624D01*
X141999499Y-114525500D01*
X142283671Y-114525500D01*
X142331237Y-114542813D01*
X142356547Y-114586650D01*
X142356249Y-114613936D01*
X142349500Y-114647867D01*
X142349500Y-114852130D01*
X142365485Y-114932495D01*
X142383120Y-114958888D01*
X142395151Y-115008057D01*
X142383120Y-115041112D01*
X142365485Y-115067504D01*
X142349500Y-115147868D01*
X142349500Y-115352130D01*
X142365485Y-115432495D01*
X142383120Y-115458888D01*
X142395151Y-115508057D01*
X142383120Y-115541112D01*
X142365485Y-115567504D01*
X142365485Y-115567505D01*
X142353408Y-115628223D01*
X142349500Y-115647868D01*
X142349500Y-115852130D01*
X142365485Y-115932495D01*
X142365485Y-115932496D01*
X142390178Y-115969450D01*
X142426376Y-116023624D01*
X142517505Y-116084515D01*
X142597867Y-116100500D01*
X142975500Y-116100499D01*
X143023066Y-116117812D01*
X143048376Y-116161649D01*
X143049500Y-116174499D01*
X143049500Y-117030232D01*
X143032187Y-117077798D01*
X143027826Y-117082558D01*
X141907558Y-118202826D01*
X141861682Y-118224218D01*
X141855232Y-118224500D01*
X131644768Y-118224500D01*
X131597202Y-118207187D01*
X131592442Y-118202826D01*
X128297174Y-114907558D01*
X128275782Y-114861682D01*
X128275500Y-114855232D01*
X128275500Y-95534420D01*
X128276922Y-95519983D01*
X128280897Y-95500000D01*
X128275825Y-95474500D01*
X128259515Y-95392505D01*
X128213994Y-95324378D01*
X128213993Y-95324377D01*
X128211974Y-95321355D01*
X128198624Y-95301376D01*
X128198623Y-95301375D01*
X128181683Y-95290056D01*
X128170470Y-95280854D01*
X120172174Y-87282558D01*
X120150782Y-87236682D01*
X120150500Y-87230232D01*
X120150500Y-87074980D01*
X120167813Y-87027414D01*
X120191997Y-87008500D01*
X120231483Y-86989198D01*
X120314198Y-86906483D01*
X120365573Y-86801393D01*
X120375500Y-86733260D01*
X120375500Y-85266740D01*
X120365573Y-85198607D01*
X120314198Y-85093517D01*
X120231483Y-85010802D01*
X120231482Y-85010801D01*
X120126394Y-84959427D01*
X120058264Y-84949500D01*
X120058260Y-84949500D01*
X119691740Y-84949500D01*
X119691735Y-84949500D01*
X119623606Y-84959427D01*
X119623605Y-84959427D01*
X119518517Y-85010801D01*
X119435801Y-85093517D01*
X119384427Y-85198605D01*
X119384427Y-85198606D01*
X119374500Y-85266735D01*
X119374500Y-86733264D01*
X100000500Y-86733264D01*
X100000500Y-84941811D01*
X105074500Y-84941811D01*
X105074501Y-84941812D01*
X105080818Y-85000580D01*
X105130396Y-85133504D01*
X105130397Y-85133505D01*
X105130398Y-85133506D01*
X105215419Y-85247081D01*
X105304861Y-85314036D01*
X105328994Y-85332102D01*
X105328995Y-85332103D01*
X105438356Y-85372892D01*
X105461922Y-85381682D01*
X105520689Y-85388000D01*
X106479310Y-85387999D01*
X106479311Y-85387999D01*
X106479311Y-85387998D01*
X106538078Y-85381682D01*
X106604542Y-85356892D01*
X106671004Y-85332103D01*
X106671004Y-85332102D01*
X106671006Y-85332102D01*
X106784581Y-85247081D01*
X106869602Y-85133506D01*
X106919182Y-85000578D01*
X106924673Y-84949500D01*
X106925500Y-84941812D01*
X106925500Y-84924500D01*
X106942813Y-84876934D01*
X106986650Y-84851624D01*
X106999500Y-84850500D01*
X107177482Y-84850500D01*
X107225048Y-84867813D01*
X107250060Y-84910063D01*
X107261133Y-84965732D01*
X107284416Y-85000576D01*
X107305448Y-85032052D01*
X107323331Y-85044001D01*
X107371767Y-85076366D01*
X107371768Y-85076366D01*
X107371769Y-85076367D01*
X107430252Y-85088000D01*
X108424166Y-85088000D01*
X108471732Y-85105313D01*
X108476492Y-85109674D01*
X109034260Y-85667442D01*
X109055181Y-85709237D01*
X109063302Y-85765723D01*
X109063302Y-85765724D01*
X109063303Y-85765726D01*
X109117118Y-85883563D01*
X109201951Y-85981467D01*
X109310931Y-86051504D01*
X109435228Y-86088000D01*
X109564772Y-86088000D01*
X109689069Y-86051504D01*
X109798049Y-85981467D01*
X109882882Y-85883563D01*
X109936697Y-85765726D01*
X109955133Y-85637500D01*
X109936697Y-85509274D01*
X109882882Y-85391437D01*
X109798049Y-85293533D01*
X109725767Y-85247080D01*
X109689068Y-85223495D01*
X109559694Y-85185509D01*
X109560099Y-85184127D01*
X109524476Y-85166294D01*
X109222508Y-84864326D01*
X109201116Y-84818450D01*
X109214217Y-84769555D01*
X109255681Y-84740521D01*
X109274834Y-84738000D01*
X111775500Y-84738000D01*
X111823066Y-84755313D01*
X111848376Y-84799150D01*
X111849500Y-84812000D01*
X111849500Y-84907248D01*
X111853450Y-84927104D01*
X111861133Y-84965732D01*
X111884416Y-85000576D01*
X111905448Y-85032052D01*
X111923331Y-85044001D01*
X111971767Y-85076366D01*
X111971768Y-85076366D01*
X111971769Y-85076367D01*
X112030252Y-85088000D01*
X112030254Y-85088000D01*
X113569746Y-85088000D01*
X113569748Y-85088000D01*
X113628231Y-85076367D01*
X113694552Y-85032052D01*
X113738867Y-84965731D01*
X113750500Y-84907248D01*
X113750500Y-84737000D01*
X113767813Y-84689434D01*
X113811650Y-84664124D01*
X113824500Y-84663000D01*
X120242732Y-84663000D01*
X120290298Y-84680313D01*
X120295058Y-84684674D01*
X120654385Y-85044001D01*
X120675777Y-85089877D01*
X120668540Y-85128827D01*
X120634427Y-85198605D01*
X120634427Y-85198606D01*
X120624500Y-85266735D01*
X120624500Y-86733264D01*
X120634427Y-86801393D01*
X120634427Y-86801394D01*
X120685801Y-86906482D01*
X120685802Y-86906483D01*
X120768517Y-86989198D01*
X120808000Y-87008499D01*
X120843129Y-87044942D01*
X120849500Y-87074980D01*
X120849500Y-87090579D01*
X120848078Y-87105015D01*
X120844103Y-87125000D01*
X120849500Y-87152132D01*
X120849500Y-87152133D01*
X120865485Y-87232495D01*
X120898936Y-87282558D01*
X120926377Y-87323625D01*
X120943314Y-87334942D01*
X120954529Y-87344145D01*
X128702826Y-95092442D01*
X128724218Y-95138318D01*
X128724500Y-95144768D01*
X128724500Y-114465579D01*
X128723078Y-114480015D01*
X128719103Y-114500000D01*
X128724500Y-114527132D01*
X128724500Y-114527133D01*
X128735066Y-114580252D01*
X128740485Y-114607495D01*
X128754337Y-114628226D01*
X128777417Y-114662769D01*
X128801376Y-114698624D01*
X128801378Y-114698626D01*
X128818314Y-114709942D01*
X128829529Y-114719145D01*
X131780853Y-117670469D01*
X131790055Y-117681682D01*
X131801375Y-117698623D01*
X131801376Y-117698624D01*
X131818028Y-117709751D01*
X131824376Y-117713992D01*
X131824378Y-117713994D01*
X131834642Y-117720852D01*
X131892505Y-117759515D01*
X131972867Y-117775500D01*
X131972868Y-117775500D01*
X131999999Y-117780897D01*
X132000000Y-117780897D01*
X132019984Y-117776921D01*
X132034420Y-117775500D01*
X136965580Y-117775500D01*
X136980016Y-117776921D01*
X137000000Y-117780897D01*
X137000001Y-117780897D01*
X137004622Y-117779977D01*
X137027132Y-117775500D01*
X137027133Y-117775500D01*
X137107495Y-117759515D01*
X137165358Y-117720852D01*
X137175622Y-117713994D01*
X137175622Y-117713993D01*
X137183636Y-117708639D01*
X137183638Y-117708636D01*
X137198624Y-117698624D01*
X137209944Y-117681681D01*
X137219141Y-117670474D01*
X139170473Y-115719141D01*
X139181676Y-115709947D01*
X139198624Y-115698624D01*
X139259515Y-115607495D01*
X139275500Y-115527133D01*
X139275500Y-115527132D01*
X139280897Y-115500000D01*
X139276922Y-115480015D01*
X139275500Y-115465579D01*
X139275500Y-114644768D01*
X139292813Y-114597202D01*
X139297174Y-114592442D01*
X140751605Y-113138011D01*
X142223175Y-111666440D01*
X142269050Y-111645049D01*
X142317945Y-111658150D01*
X142346979Y-111699614D01*
X142349500Y-111718766D01*
X142349500Y-111852130D01*
X142365485Y-111932495D01*
X142383120Y-111958888D01*
X142395151Y-112008057D01*
X142383120Y-112041112D01*
X142365485Y-112067504D01*
X142365485Y-112067505D01*
X142353408Y-112128223D01*
X142349500Y-112147868D01*
X142349500Y-112352130D01*
X142365485Y-112432495D01*
X142383120Y-112458888D01*
X142395151Y-112508057D01*
X142383120Y-112541112D01*
X142365485Y-112567504D01*
X142349500Y-112647868D01*
X142349500Y-112852130D01*
X142365485Y-112932495D01*
X142383120Y-112958888D01*
X142395151Y-113008057D01*
X142383120Y-113041112D01*
X142365485Y-113067504D01*
X142365485Y-113067505D01*
X142349761Y-113146558D01*
X142349500Y-113147868D01*
X142349500Y-113352130D01*
X142365485Y-113432495D01*
X142365485Y-113432496D01*
X142403512Y-113489406D01*
X142426376Y-113523624D01*
X142517505Y-113584515D01*
X142597867Y-113600500D01*
X144052132Y-113600499D01*
X144132495Y-113584515D01*
X144223624Y-113523624D01*
X144284515Y-113432495D01*
X144300500Y-113352133D01*
X144300499Y-113147868D01*
X144284515Y-113067505D01*
X144266879Y-113041112D01*
X144254848Y-112991945D01*
X144266880Y-112958887D01*
X144268778Y-112956047D01*
X144284515Y-112932495D01*
X144300500Y-112852133D01*
X144300499Y-112647868D01*
X144284515Y-112567505D01*
X144266879Y-112541112D01*
X144254848Y-112491945D01*
X144266880Y-112458887D01*
X144272484Y-112450500D01*
X144284515Y-112432495D01*
X144300500Y-112352133D01*
X144300499Y-112147868D01*
X144284515Y-112067505D01*
X144266879Y-112041112D01*
X144254848Y-111991945D01*
X144266880Y-111958887D01*
X144272484Y-111950500D01*
X144284515Y-111932495D01*
X144300500Y-111852133D01*
X144300499Y-111647868D01*
X144284515Y-111567505D01*
X144266879Y-111541112D01*
X144254848Y-111491945D01*
X144266880Y-111458887D01*
X144267046Y-111458639D01*
X144284515Y-111432495D01*
X144300500Y-111352133D01*
X144300499Y-111147868D01*
X144284515Y-111067505D01*
X144266879Y-111041112D01*
X144254848Y-110991945D01*
X144266880Y-110958887D01*
X144284515Y-110932495D01*
X144300500Y-110852133D01*
X144300499Y-110647868D01*
X144284515Y-110567505D01*
X144266879Y-110541112D01*
X144254848Y-110491945D01*
X144266880Y-110458887D01*
X144268016Y-110457187D01*
X144284515Y-110432495D01*
X144300500Y-110352133D01*
X144300499Y-110147868D01*
X144284515Y-110067505D01*
X144266879Y-110041112D01*
X144254848Y-109991945D01*
X144266880Y-109958887D01*
X144272484Y-109950500D01*
X144284515Y-109932495D01*
X144300500Y-109852133D01*
X144300499Y-109647868D01*
X144284515Y-109567505D01*
X144266879Y-109541112D01*
X144254848Y-109491945D01*
X144266880Y-109458887D01*
X144268016Y-109457187D01*
X144284515Y-109432495D01*
X144300500Y-109352133D01*
X144300499Y-109147868D01*
X144284515Y-109067505D01*
X144266879Y-109041112D01*
X144254848Y-108991945D01*
X144266880Y-108958887D01*
X144284515Y-108932495D01*
X144300500Y-108852133D01*
X144300499Y-108647868D01*
X144284515Y-108567505D01*
X144266879Y-108541112D01*
X144254848Y-108491945D01*
X144266880Y-108458887D01*
X144268016Y-108457187D01*
X144284515Y-108432495D01*
X144300500Y-108352133D01*
X144300499Y-108147868D01*
X144284515Y-108067505D01*
X144280257Y-108061133D01*
X144253233Y-108020689D01*
X144223624Y-107976376D01*
X144132495Y-107915485D01*
X144052133Y-107899500D01*
X144052131Y-107899500D01*
X143394768Y-107899500D01*
X143347202Y-107882187D01*
X143342442Y-107877826D01*
X143297174Y-107832558D01*
X143275782Y-107786682D01*
X143275500Y-107780232D01*
X143275500Y-107499499D01*
X143292813Y-107451933D01*
X143336650Y-107426623D01*
X143349500Y-107425499D01*
X143441812Y-107425499D01*
X143441812Y-107425498D01*
X143500578Y-107419182D01*
X143597218Y-107383137D01*
X143633504Y-107369603D01*
X143633504Y-107369602D01*
X143633506Y-107369602D01*
X143747081Y-107284581D01*
X143832102Y-107171006D01*
X143832317Y-107170431D01*
X143860706Y-107094316D01*
X143881682Y-107038078D01*
X143888000Y-106979311D01*
X143887999Y-106020690D01*
X143881682Y-105961922D01*
X143881681Y-105961919D01*
X143881187Y-105957319D01*
X143883689Y-105957050D01*
X143888503Y-105915728D01*
X143925308Y-105880977D01*
X143975840Y-105878013D01*
X144006971Y-105896587D01*
X144605854Y-106495470D01*
X144615056Y-106506683D01*
X144626375Y-106523623D01*
X144626376Y-106523624D01*
X144646355Y-106536974D01*
X144646356Y-106536974D01*
X144649376Y-106538992D01*
X144649378Y-106538994D01*
X144675534Y-106556471D01*
X144717505Y-106584515D01*
X144797867Y-106600500D01*
X144797868Y-106600500D01*
X144824999Y-106605897D01*
X144825501Y-106605897D01*
X144826105Y-106606117D01*
X144832148Y-106607319D01*
X144831963Y-106608249D01*
X144873067Y-106623210D01*
X144898377Y-106667047D01*
X144899501Y-106679897D01*
X144899501Y-107052132D01*
X144914642Y-107128255D01*
X144915485Y-107132495D01*
X144915485Y-107132496D01*
X144942019Y-107172206D01*
X144976376Y-107223624D01*
X145067505Y-107284515D01*
X145147867Y-107300500D01*
X145352132Y-107300499D01*
X145432495Y-107284515D01*
X145523624Y-107223624D01*
X145584515Y-107132495D01*
X145600500Y-107052133D01*
X145600499Y-105597868D01*
X145584515Y-105517505D01*
X145572818Y-105500000D01*
X145539743Y-105450500D01*
X145523624Y-105426376D01*
X145432495Y-105365485D01*
X145352133Y-105349500D01*
X145352131Y-105349500D01*
X145147869Y-105349500D01*
X145067504Y-105365485D01*
X145067503Y-105365485D01*
X144976377Y-105426375D01*
X144976375Y-105426377D01*
X144915485Y-105517504D01*
X144913570Y-105527133D01*
X144902892Y-105580817D01*
X144899500Y-105597868D01*
X144899500Y-105831232D01*
X144882187Y-105878798D01*
X144838350Y-105904108D01*
X144788500Y-105895318D01*
X144773174Y-105883558D01*
X143909673Y-105020057D01*
X143888281Y-104974181D01*
X143887999Y-104967753D01*
X143887999Y-104020690D01*
X143881682Y-103961922D01*
X143855791Y-103892505D01*
X143832103Y-103828995D01*
X143832102Y-103828994D01*
X143747081Y-103715419D01*
X143633506Y-103630398D01*
X143633505Y-103630397D01*
X143633504Y-103630396D01*
X143500582Y-103580819D01*
X143500576Y-103580817D01*
X143441812Y-103574500D01*
X142558188Y-103574500D01*
X142558187Y-103574501D01*
X142499419Y-103580818D01*
X142366495Y-103630396D01*
X142366494Y-103630397D01*
X142252919Y-103715419D01*
X142167897Y-103828994D01*
X142167896Y-103828995D01*
X142118319Y-103961917D01*
X142118317Y-103961923D01*
X142112000Y-104020687D01*
X142112000Y-104979311D01*
X142112001Y-104979312D01*
X142118318Y-105038080D01*
X142167896Y-105171004D01*
X142167897Y-105171005D01*
X142167898Y-105171006D01*
X142252919Y-105284581D01*
X142348658Y-105356250D01*
X142366494Y-105369602D01*
X142366495Y-105369603D01*
X142475856Y-105410392D01*
X142499422Y-105419182D01*
X142558189Y-105425500D01*
X143441810Y-105425499D01*
X143491551Y-105420152D01*
X143540695Y-105432281D01*
X143551786Y-105441402D01*
X143565911Y-105455527D01*
X143587303Y-105501403D01*
X143574202Y-105550298D01*
X143532738Y-105579332D01*
X143505348Y-105579758D01*
X143505181Y-105581313D01*
X143500578Y-105580818D01*
X143469949Y-105577525D01*
X143441812Y-105574500D01*
X142558188Y-105574500D01*
X142558187Y-105574501D01*
X142499419Y-105580818D01*
X142366495Y-105630396D01*
X142366494Y-105630397D01*
X142252919Y-105715419D01*
X142167897Y-105828994D01*
X142167896Y-105828995D01*
X142118319Y-105961917D01*
X142118317Y-105961923D01*
X142112000Y-106020687D01*
X142112000Y-106979311D01*
X142112001Y-106979312D01*
X142118318Y-107038080D01*
X142167896Y-107171004D01*
X142167897Y-107171005D01*
X142184321Y-107192945D01*
X142252919Y-107284581D01*
X142366494Y-107369602D01*
X142366495Y-107369603D01*
X142468088Y-107407495D01*
X142499422Y-107419182D01*
X142558189Y-107425500D01*
X142650500Y-107425499D01*
X142698066Y-107442811D01*
X142723376Y-107486648D01*
X142724500Y-107499499D01*
X142724500Y-107825500D01*
X142707187Y-107873066D01*
X142663350Y-107898376D01*
X142650501Y-107899500D01*
X142597868Y-107899500D01*
X142517504Y-107915485D01*
X142517503Y-107915485D01*
X142426377Y-107976375D01*
X142426375Y-107976377D01*
X142365485Y-108067504D01*
X142349500Y-108147868D01*
X142349500Y-108352130D01*
X142365485Y-108432495D01*
X142383120Y-108458888D01*
X142395151Y-108508057D01*
X142383120Y-108541112D01*
X142365485Y-108567504D01*
X142349500Y-108647868D01*
X142349500Y-108852130D01*
X142365485Y-108932495D01*
X142383120Y-108958888D01*
X142395151Y-109008057D01*
X142383120Y-109041112D01*
X142365485Y-109067504D01*
X142365485Y-109067505D01*
X142353408Y-109128223D01*
X142349500Y-109147868D01*
X142349500Y-109352130D01*
X142365485Y-109432495D01*
X142383120Y-109458888D01*
X142395151Y-109508057D01*
X142383120Y-109541112D01*
X142365485Y-109567504D01*
X142360512Y-109592505D01*
X142350567Y-109642506D01*
X142349500Y-109647868D01*
X142349500Y-109852131D01*
X142356250Y-109886065D01*
X142348549Y-109936095D01*
X142310491Y-109969469D01*
X142283672Y-109974500D01*
X138574000Y-109974500D01*
X138526434Y-109957187D01*
X138501124Y-109913350D01*
X138500000Y-109900500D01*
X138500000Y-106000000D01*
X137000000Y-104500000D01*
X133500000Y-104500000D01*
X131500000Y-106500000D01*
X131500000Y-114500000D01*
X133500000Y-116500000D01*
X137000000Y-116500000D01*
X138500000Y-115000000D01*
X138500000Y-111099500D01*
X138517313Y-111051934D01*
X138561150Y-111026624D01*
X138574000Y-111025500D01*
X141906231Y-111025500D01*
X141953797Y-111042813D01*
X141979107Y-111086650D01*
X141970317Y-111136500D01*
X141958557Y-111151826D01*
X138829529Y-114280853D01*
X138818319Y-114290053D01*
X138801377Y-114301374D01*
X138801375Y-114301376D01*
X138740485Y-114392505D01*
X138724500Y-114472867D01*
X138719103Y-114499999D01*
X138719103Y-114500000D01*
X138723078Y-114519983D01*
X138724500Y-114534420D01*
X138724500Y-115355232D01*
X138707187Y-115402798D01*
X138702826Y-115407558D01*
X136907558Y-117202826D01*
X136861682Y-117224218D01*
X136855232Y-117224500D01*
X132144768Y-117224500D01*
X132097202Y-117207187D01*
X132092442Y-117202826D01*
X129297174Y-114407558D01*
X129275782Y-114361682D01*
X129275500Y-114355232D01*
X129275500Y-98585056D01*
X133299500Y-98585056D01*
X133340210Y-98750225D01*
X133419266Y-98900852D01*
X133419267Y-98900853D01*
X133419269Y-98900856D01*
X133532071Y-99028183D01*
X133672070Y-99124818D01*
X133831128Y-99185140D01*
X133957628Y-99200500D01*
X140542372Y-99200500D01*
X140668872Y-99185140D01*
X140827930Y-99124818D01*
X140967929Y-99028183D01*
X141080734Y-98900852D01*
X141159790Y-98750225D01*
X141200500Y-98585056D01*
X141200500Y-98414944D01*
X141159790Y-98249775D01*
X141080734Y-98099148D01*
X140967929Y-97971817D01*
X140827930Y-97875182D01*
X140827929Y-97875181D01*
X140668871Y-97814859D01*
X140542379Y-97799500D01*
X140542372Y-97799500D01*
X133957628Y-97799500D01*
X133957620Y-97799500D01*
X133831128Y-97814859D01*
X133672070Y-97875181D01*
X133532071Y-97971816D01*
X133419269Y-98099143D01*
X133419267Y-98099146D01*
X133340209Y-98249777D01*
X133299500Y-98414941D01*
X133299500Y-98414944D01*
X133299500Y-98585056D01*
X129275500Y-98585056D01*
X129275500Y-95034420D01*
X129276922Y-95019983D01*
X129280897Y-95000000D01*
X129260937Y-94899654D01*
X129260577Y-94896008D01*
X129259516Y-94892508D01*
X129259515Y-94892506D01*
X129259515Y-94892505D01*
X129198624Y-94801376D01*
X129181679Y-94790053D01*
X129170470Y-94780854D01*
X121482474Y-87092858D01*
X121461082Y-87046982D01*
X121474183Y-86998087D01*
X121482468Y-86988212D01*
X121564198Y-86906483D01*
X121615573Y-86801393D01*
X121625499Y-86733264D01*
X121874500Y-86733264D01*
X121884427Y-86801393D01*
X121884427Y-86801394D01*
X121935801Y-86906482D01*
X121935802Y-86906483D01*
X122018517Y-86989198D01*
X122123607Y-87040573D01*
X122191740Y-87050500D01*
X122191746Y-87050500D01*
X122558254Y-87050500D01*
X122558260Y-87050500D01*
X122626393Y-87040573D01*
X122731483Y-86989198D01*
X122814198Y-86906483D01*
X122865573Y-86801393D01*
X122875500Y-86733260D01*
X122875500Y-85266740D01*
X122865573Y-85198607D01*
X122831458Y-85128824D01*
X122826122Y-85078490D01*
X122845612Y-85044002D01*
X123092442Y-84797174D01*
X123138319Y-84775782D01*
X123144768Y-84775500D01*
X126855232Y-84775500D01*
X126902798Y-84792813D01*
X126907558Y-84797174D01*
X137780853Y-95670469D01*
X137790055Y-95681682D01*
X137801375Y-95698623D01*
X137801376Y-95698624D01*
X137821355Y-95711974D01*
X137824377Y-95713993D01*
X137824378Y-95713994D01*
X137892505Y-95759515D01*
X138000000Y-95780897D01*
X138019983Y-95776921D01*
X138034420Y-95775500D01*
X144855232Y-95775500D01*
X144902798Y-95792813D01*
X144907558Y-95797174D01*
X153202826Y-104092442D01*
X153224218Y-104138318D01*
X153224500Y-104144768D01*
X153224500Y-105483435D01*
X153207187Y-105531001D01*
X153163350Y-105556311D01*
X153113500Y-105547521D01*
X153091037Y-105521912D01*
X153088564Y-105523565D01*
X153072818Y-105500000D01*
X153037971Y-105447847D01*
X153025500Y-105406735D01*
X153025500Y-104784420D01*
X153026922Y-104769983D01*
X153030897Y-104750000D01*
X153023518Y-104712905D01*
X153009515Y-104642505D01*
X152948624Y-104551376D01*
X152931679Y-104540053D01*
X152920470Y-104530854D01*
X144719145Y-96329529D01*
X144709942Y-96318314D01*
X144698626Y-96301378D01*
X144698624Y-96301376D01*
X144678644Y-96288026D01*
X144678639Y-96288021D01*
X144649465Y-96268528D01*
X144607495Y-96240485D01*
X144527133Y-96224500D01*
X144527132Y-96224500D01*
X144527130Y-96224499D01*
X144500001Y-96219103D01*
X144500000Y-96219103D01*
X144480017Y-96223078D01*
X144465580Y-96224500D01*
X134644768Y-96224500D01*
X134597202Y-96207187D01*
X134592442Y-96202826D01*
X125345614Y-86955998D01*
X125324222Y-86910122D01*
X125331457Y-86871177D01*
X125365573Y-86801393D01*
X125375499Y-86733264D01*
X125624500Y-86733264D01*
X125634427Y-86801393D01*
X125634427Y-86801394D01*
X125685801Y-86906482D01*
X125685802Y-86906483D01*
X125768517Y-86989198D01*
X125873607Y-87040573D01*
X125941740Y-87050500D01*
X125941746Y-87050500D01*
X126308254Y-87050500D01*
X126308260Y-87050500D01*
X126376393Y-87040573D01*
X126481483Y-86989198D01*
X126564198Y-86906483D01*
X126615573Y-86801393D01*
X126625500Y-86733260D01*
X126625500Y-85266740D01*
X126615573Y-85198607D01*
X126564198Y-85093517D01*
X126481483Y-85010802D01*
X126481482Y-85010801D01*
X126376394Y-84959427D01*
X126308264Y-84949500D01*
X126308260Y-84949500D01*
X125941740Y-84949500D01*
X125941735Y-84949500D01*
X125873606Y-84959427D01*
X125873605Y-84959427D01*
X125768517Y-85010801D01*
X125685801Y-85093517D01*
X125634427Y-85198605D01*
X125634427Y-85198606D01*
X125624500Y-85266735D01*
X125624500Y-86733264D01*
X125375499Y-86733264D01*
X125375500Y-86733260D01*
X125375500Y-85266740D01*
X125365573Y-85198607D01*
X125314198Y-85093517D01*
X125231483Y-85010802D01*
X125231482Y-85010801D01*
X125126394Y-84959427D01*
X125058264Y-84949500D01*
X125058260Y-84949500D01*
X124691740Y-84949500D01*
X124691735Y-84949500D01*
X124623606Y-84959427D01*
X124623605Y-84959427D01*
X124518517Y-85010801D01*
X124435801Y-85093517D01*
X124384427Y-85198605D01*
X124384427Y-85198606D01*
X124374500Y-85266735D01*
X124374500Y-86733264D01*
X124384427Y-86801393D01*
X124384427Y-86801394D01*
X124435801Y-86906482D01*
X124435802Y-86906483D01*
X124518517Y-86989198D01*
X124623607Y-87040573D01*
X124625023Y-87040779D01*
X124626033Y-87041322D01*
X124629102Y-87042271D01*
X124628915Y-87042873D01*
X124669598Y-87064765D01*
X124675887Y-87072892D01*
X124676376Y-87073624D01*
X124676378Y-87073626D01*
X124693314Y-87084942D01*
X124704529Y-87094145D01*
X134280853Y-96670469D01*
X134290055Y-96681682D01*
X134301375Y-96698623D01*
X134301376Y-96698624D01*
X134321355Y-96711974D01*
X134392506Y-96759516D01*
X134499999Y-96780897D01*
X134500000Y-96780897D01*
X134500001Y-96780897D01*
X134519985Y-96776922D01*
X134534421Y-96775500D01*
X144355232Y-96775500D01*
X144402798Y-96792813D01*
X144407558Y-96797174D01*
X152452826Y-104842442D01*
X152474218Y-104888318D01*
X152474500Y-104894768D01*
X152474500Y-105283671D01*
X152457187Y-105331237D01*
X152413350Y-105356547D01*
X152386064Y-105356249D01*
X152365732Y-105352205D01*
X152352133Y-105349500D01*
X152352132Y-105349500D01*
X152147869Y-105349500D01*
X152067504Y-105365485D01*
X152041112Y-105383120D01*
X151991943Y-105395151D01*
X151958888Y-105383120D01*
X151932495Y-105365485D01*
X151852133Y-105349500D01*
X151852131Y-105349500D01*
X151647869Y-105349500D01*
X151567504Y-105365485D01*
X151541112Y-105383120D01*
X151491943Y-105395151D01*
X151458888Y-105383120D01*
X151432495Y-105365485D01*
X151352133Y-105349500D01*
X151352131Y-105349500D01*
X151147869Y-105349500D01*
X151067504Y-105365485D01*
X151041112Y-105383120D01*
X150991943Y-105395151D01*
X150958888Y-105383120D01*
X150932495Y-105365485D01*
X150852133Y-105349500D01*
X150852131Y-105349500D01*
X150647869Y-105349500D01*
X150567504Y-105365485D01*
X150541112Y-105383120D01*
X150491943Y-105395151D01*
X150458888Y-105383120D01*
X150432495Y-105365485D01*
X150352133Y-105349500D01*
X150352131Y-105349500D01*
X150147869Y-105349500D01*
X150067504Y-105365485D01*
X150041112Y-105383120D01*
X149991943Y-105395151D01*
X149958888Y-105383120D01*
X149932495Y-105365485D01*
X149852133Y-105349500D01*
X149852131Y-105349500D01*
X149647869Y-105349500D01*
X149567504Y-105365485D01*
X149541112Y-105383120D01*
X149491943Y-105395151D01*
X149458888Y-105383120D01*
X149432495Y-105365485D01*
X149352133Y-105349500D01*
X149352131Y-105349500D01*
X149147869Y-105349500D01*
X149067504Y-105365485D01*
X149041112Y-105383120D01*
X148991943Y-105395151D01*
X148958888Y-105383120D01*
X148932495Y-105365485D01*
X148852133Y-105349500D01*
X148852131Y-105349500D01*
X148647869Y-105349500D01*
X148567504Y-105365485D01*
X148541112Y-105383120D01*
X148491943Y-105395151D01*
X148458888Y-105383120D01*
X148432495Y-105365485D01*
X148352133Y-105349500D01*
X148352131Y-105349500D01*
X148147869Y-105349500D01*
X148067504Y-105365485D01*
X148041112Y-105383120D01*
X147991943Y-105395151D01*
X147958888Y-105383120D01*
X147932495Y-105365485D01*
X147852133Y-105349500D01*
X147852131Y-105349500D01*
X147647868Y-105349500D01*
X147613935Y-105356250D01*
X147563905Y-105348549D01*
X147530531Y-105310491D01*
X147525500Y-105283672D01*
X147525500Y-104710130D01*
X147542813Y-104662564D01*
X147575059Y-104640283D01*
X147606975Y-104629116D01*
X147713211Y-104550711D01*
X147791616Y-104444475D01*
X147835225Y-104319849D01*
X147838000Y-104290256D01*
X147838000Y-103709744D01*
X147835225Y-103680151D01*
X147835223Y-103680145D01*
X147791617Y-103555526D01*
X147771076Y-103527695D01*
X147713211Y-103449289D01*
X147662635Y-103411962D01*
X147606973Y-103370882D01*
X147482354Y-103327276D01*
X147482355Y-103327276D01*
X147482350Y-103327275D01*
X147482349Y-103327275D01*
X147452756Y-103324500D01*
X146547244Y-103324500D01*
X146517651Y-103327275D01*
X146517649Y-103327275D01*
X146517645Y-103327276D01*
X146393026Y-103370882D01*
X146286790Y-103449288D01*
X146286788Y-103449290D01*
X146208382Y-103555526D01*
X146164776Y-103680145D01*
X146164775Y-103680149D01*
X146164775Y-103680151D01*
X146162000Y-103709744D01*
X146162000Y-104290256D01*
X146164775Y-104319849D01*
X146164775Y-104319851D01*
X146164776Y-104319854D01*
X146208382Y-104444473D01*
X146249363Y-104500000D01*
X146286789Y-104550711D01*
X146334598Y-104585995D01*
X146393026Y-104629117D01*
X146517645Y-104672723D01*
X146517651Y-104672725D01*
X146547244Y-104675500D01*
X146900500Y-104675500D01*
X146948066Y-104692813D01*
X146973376Y-104736650D01*
X146974500Y-104749500D01*
X146974500Y-105283671D01*
X146957187Y-105331237D01*
X146913350Y-105356547D01*
X146886064Y-105356249D01*
X146865732Y-105352205D01*
X146852133Y-105349500D01*
X146852132Y-105349500D01*
X146647869Y-105349500D01*
X146567504Y-105365485D01*
X146541112Y-105383120D01*
X146491943Y-105395151D01*
X146458888Y-105383120D01*
X146432495Y-105365485D01*
X146352133Y-105349500D01*
X146352131Y-105349500D01*
X146147869Y-105349500D01*
X146067504Y-105365485D01*
X146067503Y-105365485D01*
X145976377Y-105426375D01*
X145976375Y-105426377D01*
X145915485Y-105517504D01*
X145913570Y-105527133D01*
X145902892Y-105580817D01*
X145899500Y-105597868D01*
X145899500Y-107052130D01*
X145915485Y-107132495D01*
X145915485Y-107132496D01*
X145942019Y-107172206D01*
X145976376Y-107223624D01*
X146067505Y-107284515D01*
X146147867Y-107300500D01*
X146352132Y-107300499D01*
X146432495Y-107284515D01*
X146458887Y-107266879D01*
X146508055Y-107254848D01*
X146541112Y-107266879D01*
X146567505Y-107284515D01*
X146647867Y-107300500D01*
X146852132Y-107300499D01*
X146932495Y-107284515D01*
X146958887Y-107266879D01*
X147008055Y-107254848D01*
X147041112Y-107266879D01*
X147067505Y-107284515D01*
X147147867Y-107300500D01*
X147352132Y-107300499D01*
X147432495Y-107284515D01*
X147458887Y-107266879D01*
X147508055Y-107254848D01*
X147541112Y-107266879D01*
X147567505Y-107284515D01*
X147647867Y-107300500D01*
X147852132Y-107300499D01*
X147932495Y-107284515D01*
X147958887Y-107266879D01*
X148008055Y-107254848D01*
X148041112Y-107266879D01*
X148067505Y-107284515D01*
X148147867Y-107300500D01*
X148352132Y-107300499D01*
X148432495Y-107284515D01*
X148458887Y-107266879D01*
X148508055Y-107254848D01*
X148541112Y-107266879D01*
X148567505Y-107284515D01*
X148647867Y-107300500D01*
X148852132Y-107300499D01*
X148932495Y-107284515D01*
X148958887Y-107266879D01*
X149008055Y-107254848D01*
X149041112Y-107266879D01*
X149067505Y-107284515D01*
X149147867Y-107300500D01*
X149352132Y-107300499D01*
X149432495Y-107284515D01*
X149458887Y-107266879D01*
X149508055Y-107254848D01*
X149541112Y-107266879D01*
X149567505Y-107284515D01*
X149647867Y-107300500D01*
X149852132Y-107300499D01*
X149932495Y-107284515D01*
X149958887Y-107266879D01*
X150008055Y-107254848D01*
X150041112Y-107266879D01*
X150067505Y-107284515D01*
X150147867Y-107300500D01*
X150352132Y-107300499D01*
X150432495Y-107284515D01*
X150458887Y-107266879D01*
X150508055Y-107254848D01*
X150541112Y-107266879D01*
X150567505Y-107284515D01*
X150647867Y-107300500D01*
X150852132Y-107300499D01*
X150932495Y-107284515D01*
X150958887Y-107266879D01*
X151008055Y-107254848D01*
X151041112Y-107266879D01*
X151067505Y-107284515D01*
X151147867Y-107300500D01*
X151352132Y-107300499D01*
X151432495Y-107284515D01*
X151458887Y-107266879D01*
X151508055Y-107254848D01*
X151541112Y-107266879D01*
X151567505Y-107284515D01*
X151647867Y-107300500D01*
X151852132Y-107300499D01*
X151932495Y-107284515D01*
X151958887Y-107266879D01*
X152008055Y-107254848D01*
X152041112Y-107266879D01*
X152067505Y-107284515D01*
X152147867Y-107300500D01*
X152352132Y-107300499D01*
X152432495Y-107284515D01*
X152458887Y-107266879D01*
X152508055Y-107254848D01*
X152541112Y-107266879D01*
X152567505Y-107284515D01*
X152647867Y-107300500D01*
X152852132Y-107300499D01*
X152932495Y-107284515D01*
X153023624Y-107223624D01*
X153084515Y-107132495D01*
X153084514Y-107132495D01*
X153088565Y-107126434D01*
X153091290Y-107128255D01*
X153116321Y-107100930D01*
X153166506Y-107094316D01*
X153209201Y-107121507D01*
X153224500Y-107166564D01*
X153224500Y-108965579D01*
X153223078Y-108980015D01*
X153219103Y-108999999D01*
X153219103Y-109000000D01*
X153224500Y-109027132D01*
X153240485Y-109107496D01*
X153249175Y-109120501D01*
X153283435Y-109171776D01*
X153301373Y-109198621D01*
X153301378Y-109198626D01*
X153318314Y-109209942D01*
X153329529Y-109219145D01*
X153530854Y-109420470D01*
X153540056Y-109431683D01*
X153551375Y-109448623D01*
X153551376Y-109448624D01*
X153571355Y-109461974D01*
X153574377Y-109463993D01*
X153574378Y-109463994D01*
X153592909Y-109476376D01*
X153642505Y-109509515D01*
X153651223Y-109511249D01*
X153694498Y-109537507D01*
X153710770Y-109585440D01*
X153709366Y-109598262D01*
X153699500Y-109647866D01*
X153699500Y-109852130D01*
X153715485Y-109932495D01*
X153733120Y-109958888D01*
X153745151Y-110008057D01*
X153733120Y-110041112D01*
X153715485Y-110067504D01*
X153709121Y-110099500D01*
X153699504Y-110147850D01*
X153699500Y-110147868D01*
X153699500Y-110352130D01*
X153715485Y-110432495D01*
X153733120Y-110458888D01*
X153745151Y-110508057D01*
X153733120Y-110541112D01*
X153715485Y-110567504D01*
X153699500Y-110647868D01*
X153699500Y-110852130D01*
X153715485Y-110932495D01*
X153733120Y-110958888D01*
X153745151Y-111008057D01*
X153733120Y-111041112D01*
X153715485Y-111067504D01*
X153715485Y-111067505D01*
X153700109Y-111144808D01*
X153699500Y-111147868D01*
X153699500Y-111352130D01*
X153715485Y-111432495D01*
X153733120Y-111458888D01*
X153745151Y-111508057D01*
X153733120Y-111541112D01*
X153715485Y-111567504D01*
X153715485Y-111567505D01*
X153703408Y-111628223D01*
X153699500Y-111647868D01*
X153699500Y-111852130D01*
X153715485Y-111932495D01*
X153733120Y-111958888D01*
X153745151Y-112008057D01*
X153733120Y-112041112D01*
X153715485Y-112067504D01*
X153715485Y-112067505D01*
X153703408Y-112128223D01*
X153699500Y-112147868D01*
X153699500Y-112352130D01*
X153715485Y-112432495D01*
X153733120Y-112458888D01*
X153745151Y-112508057D01*
X153733120Y-112541112D01*
X153715485Y-112567504D01*
X153699500Y-112647868D01*
X153699500Y-112852130D01*
X153715485Y-112932495D01*
X153733120Y-112958888D01*
X153745151Y-113008057D01*
X153733120Y-113041112D01*
X153715485Y-113067504D01*
X153715485Y-113067505D01*
X153699761Y-113146558D01*
X153699500Y-113147868D01*
X153699500Y-113352130D01*
X153715485Y-113432495D01*
X153733120Y-113458888D01*
X153745151Y-113508057D01*
X153733120Y-113541112D01*
X153715485Y-113567504D01*
X153710897Y-113590572D01*
X153703408Y-113628223D01*
X153699500Y-113647868D01*
X153699500Y-113852130D01*
X153715485Y-113932495D01*
X153733120Y-113958888D01*
X153745151Y-114008057D01*
X153733120Y-114041112D01*
X153715485Y-114067504D01*
X153715485Y-114067505D01*
X153703408Y-114128223D01*
X153699500Y-114147868D01*
X153699500Y-114352130D01*
X153715485Y-114432495D01*
X153733120Y-114458888D01*
X153745151Y-114508057D01*
X153733120Y-114541112D01*
X153715485Y-114567504D01*
X153715485Y-114567505D01*
X153700117Y-114644768D01*
X153699500Y-114647868D01*
X153699500Y-114852130D01*
X153715485Y-114932495D01*
X153733120Y-114958888D01*
X153745151Y-115008057D01*
X153733120Y-115041112D01*
X153715485Y-115067504D01*
X153699500Y-115147868D01*
X153699500Y-115352130D01*
X153715485Y-115432495D01*
X153733120Y-115458888D01*
X153745151Y-115508057D01*
X153733120Y-115541112D01*
X153715485Y-115567504D01*
X153715485Y-115567505D01*
X153703408Y-115628223D01*
X153699500Y-115647868D01*
X153699500Y-115852130D01*
X153715485Y-115932495D01*
X153715485Y-115932496D01*
X153740178Y-115969450D01*
X153776376Y-116023624D01*
X153867505Y-116084515D01*
X153947867Y-116100500D01*
X155402132Y-116100499D01*
X155482495Y-116084515D01*
X155573624Y-116023624D01*
X155634515Y-115932495D01*
X155650500Y-115852133D01*
X155650499Y-115647868D01*
X155634515Y-115567505D01*
X155616879Y-115541112D01*
X155604848Y-115491945D01*
X155616880Y-115458887D01*
X155617913Y-115457341D01*
X155634515Y-115432495D01*
X155650500Y-115352133D01*
X155650499Y-115147868D01*
X155634515Y-115067505D01*
X155616879Y-115041112D01*
X155604848Y-114991945D01*
X155616880Y-114958887D01*
X155623152Y-114949500D01*
X155634515Y-114932495D01*
X155650500Y-114852133D01*
X155650499Y-114647868D01*
X155634515Y-114567505D01*
X155616879Y-114541112D01*
X155604848Y-114491945D01*
X155616880Y-114458887D01*
X155634515Y-114432495D01*
X155650500Y-114352133D01*
X155650499Y-114147868D01*
X155634515Y-114067505D01*
X155616879Y-114041112D01*
X155604848Y-113991945D01*
X155616880Y-113958887D01*
X155634515Y-113932495D01*
X155650500Y-113852133D01*
X155650499Y-113647868D01*
X155646335Y-113626934D01*
X155643750Y-113613935D01*
X155651451Y-113563905D01*
X155689509Y-113530531D01*
X155716328Y-113525500D01*
X158605232Y-113525500D01*
X158652798Y-113542813D01*
X158657558Y-113547174D01*
X160526910Y-115416526D01*
X160548302Y-115462402D01*
X160547830Y-115479382D01*
X160544867Y-115500000D01*
X160546390Y-115510592D01*
X160563302Y-115628223D01*
X160563302Y-115628224D01*
X160563303Y-115628226D01*
X160617118Y-115746063D01*
X160701951Y-115843967D01*
X160810931Y-115914004D01*
X160935228Y-115950500D01*
X161064772Y-115950500D01*
X161189069Y-115914004D01*
X161298049Y-115843967D01*
X161382882Y-115746063D01*
X161436697Y-115628226D01*
X161455133Y-115500000D01*
X161436697Y-115371774D01*
X161382882Y-115253937D01*
X161298049Y-115156033D01*
X161214932Y-115102617D01*
X161189068Y-115085995D01*
X161138006Y-115071003D01*
X161097244Y-115040991D01*
X161085310Y-114991799D01*
X161107788Y-114946444D01*
X161138006Y-114928997D01*
X161169506Y-114919748D01*
X161189069Y-114914004D01*
X161298049Y-114843967D01*
X161382882Y-114746063D01*
X161436697Y-114628226D01*
X161455133Y-114500000D01*
X161436697Y-114371774D01*
X161382882Y-114253937D01*
X161298049Y-114156033D01*
X161214932Y-114102617D01*
X161189068Y-114085995D01*
X161138006Y-114071003D01*
X161097244Y-114040991D01*
X161085310Y-113991799D01*
X161107788Y-113946444D01*
X161138006Y-113928997D01*
X161169506Y-113919748D01*
X161189069Y-113914004D01*
X161298049Y-113843967D01*
X161382882Y-113746063D01*
X161436697Y-113628226D01*
X161455133Y-113500000D01*
X161436697Y-113371774D01*
X161382882Y-113253937D01*
X161298049Y-113156033D01*
X161211638Y-113100500D01*
X161189068Y-113085995D01*
X161064772Y-113049500D01*
X160969768Y-113049500D01*
X160922202Y-113032187D01*
X160917442Y-113027826D01*
X159969145Y-112079529D01*
X159959942Y-112068314D01*
X159948626Y-112051378D01*
X159948624Y-112051376D01*
X159928644Y-112038026D01*
X159928639Y-112038021D01*
X159899465Y-112018528D01*
X159857495Y-111990485D01*
X159845942Y-111988187D01*
X159777133Y-111974500D01*
X159777132Y-111974500D01*
X159777130Y-111974499D01*
X159750001Y-111969103D01*
X159750000Y-111969103D01*
X159730017Y-111973078D01*
X159715580Y-111974500D01*
X155716329Y-111974500D01*
X155668763Y-111957187D01*
X155643453Y-111913350D01*
X155643751Y-111886064D01*
X155645092Y-111879320D01*
X155650500Y-111852133D01*
X155650499Y-111647868D01*
X155643750Y-111613935D01*
X155651451Y-111563905D01*
X155689509Y-111530531D01*
X155716328Y-111525500D01*
X162565580Y-111525500D01*
X162580016Y-111526921D01*
X162600000Y-111530897D01*
X162600001Y-111530897D01*
X162604622Y-111529977D01*
X162627132Y-111525500D01*
X162627133Y-111525500D01*
X162707495Y-111509515D01*
X162753400Y-111478842D01*
X162775622Y-111463994D01*
X162775622Y-111463993D01*
X162783636Y-111458639D01*
X162783638Y-111458636D01*
X162798624Y-111448624D01*
X162809944Y-111431681D01*
X162819141Y-111420474D01*
X165439543Y-108800071D01*
X165485417Y-108778681D01*
X165534312Y-108791782D01*
X165563346Y-108833246D01*
X165562953Y-108866376D01*
X165564056Y-108866535D01*
X165544867Y-109000000D01*
X165563302Y-109128223D01*
X165563302Y-109128224D01*
X165563303Y-109128226D01*
X165617118Y-109246063D01*
X165701951Y-109343967D01*
X165810931Y-109414004D01*
X165935228Y-109450500D01*
X166064772Y-109450500D01*
X166189069Y-109414004D01*
X166298049Y-109343967D01*
X166334470Y-109301934D01*
X166335244Y-109301041D01*
X166379477Y-109276430D01*
X166391170Y-109275500D01*
X166575500Y-109275500D01*
X166623066Y-109292813D01*
X166648376Y-109336650D01*
X166649500Y-109349500D01*
X166649500Y-109769746D01*
X166661133Y-109828232D01*
X166677103Y-109852132D01*
X166705448Y-109894552D01*
X166733581Y-109913350D01*
X166771767Y-109938866D01*
X166771768Y-109938866D01*
X166771769Y-109938867D01*
X166830252Y-109950500D01*
X166830254Y-109950500D01*
X167869746Y-109950500D01*
X167869748Y-109950500D01*
X167928231Y-109938867D01*
X167958887Y-109918382D01*
X168008055Y-109906351D01*
X168041111Y-109918382D01*
X168071769Y-109938867D01*
X168130252Y-109950500D01*
X168130254Y-109950500D01*
X169169746Y-109950500D01*
X169169748Y-109950500D01*
X169228231Y-109938867D01*
X169294552Y-109894552D01*
X169338867Y-109828231D01*
X169350500Y-109769748D01*
X169350500Y-109349500D01*
X169367813Y-109301934D01*
X169411650Y-109276624D01*
X169424500Y-109275500D01*
X170108830Y-109275500D01*
X170156396Y-109292813D01*
X170164756Y-109301041D01*
X170201947Y-109343963D01*
X170201948Y-109343964D01*
X170201951Y-109343967D01*
X170310931Y-109414004D01*
X170435228Y-109450500D01*
X170564772Y-109450500D01*
X170689069Y-109414004D01*
X170798049Y-109343967D01*
X170834470Y-109301934D01*
X170835244Y-109301041D01*
X170879477Y-109276430D01*
X170891170Y-109275500D01*
X179355232Y-109275500D01*
X179402798Y-109292813D01*
X179407558Y-109297174D01*
X179780853Y-109670469D01*
X179790055Y-109681682D01*
X179801375Y-109698623D01*
X179801376Y-109698624D01*
X179821355Y-109711974D01*
X179821356Y-109711974D01*
X179824376Y-109713992D01*
X179824378Y-109713994D01*
X179850534Y-109731471D01*
X179892505Y-109759515D01*
X179972867Y-109775500D01*
X179972868Y-109775500D01*
X179999999Y-109780897D01*
X180000000Y-109780897D01*
X180019984Y-109776921D01*
X180034420Y-109775500D01*
X180677978Y-109775500D01*
X180725544Y-109792813D01*
X180750854Y-109836650D01*
X180751485Y-109858028D01*
X180749500Y-109875137D01*
X180749500Y-110864863D01*
X180752414Y-110889986D01*
X180752415Y-110889992D01*
X180797794Y-110992765D01*
X180852826Y-111047797D01*
X180874218Y-111093673D01*
X180874500Y-111100123D01*
X180874500Y-114705232D01*
X180857187Y-114752798D01*
X180852826Y-114757558D01*
X172407558Y-123202826D01*
X172361682Y-123224218D01*
X172355232Y-123224500D01*
X152144768Y-123224500D01*
X152097202Y-123207187D01*
X152092442Y-123202826D01*
X151047174Y-122157558D01*
X151025782Y-122111682D01*
X151025500Y-122105232D01*
X151025500Y-118716328D01*
X151042813Y-118668762D01*
X151086650Y-118643452D01*
X151113932Y-118643749D01*
X151147867Y-118650500D01*
X151352132Y-118650499D01*
X151385910Y-118643780D01*
X151435938Y-118651480D01*
X151469314Y-118689538D01*
X151472923Y-118730794D01*
X151470996Y-118740485D01*
X151469103Y-118750000D01*
X151474500Y-118777132D01*
X151474500Y-118777133D01*
X151483897Y-118824376D01*
X151490485Y-118857495D01*
X151498575Y-118869604D01*
X151535924Y-118925500D01*
X151551377Y-118948625D01*
X151551378Y-118948626D01*
X151568314Y-118959942D01*
X151579529Y-118969145D01*
X152058597Y-119448213D01*
X152079989Y-119494089D01*
X152079847Y-119508449D01*
X152074500Y-119558186D01*
X152074500Y-120441811D01*
X152074501Y-120441812D01*
X152080818Y-120500580D01*
X152130396Y-120633504D01*
X152130397Y-120633505D01*
X152130398Y-120633506D01*
X152215419Y-120747081D01*
X152312626Y-120819849D01*
X152328994Y-120832102D01*
X152328995Y-120832103D01*
X152438356Y-120872892D01*
X152461922Y-120881682D01*
X152520689Y-120888000D01*
X153479310Y-120887999D01*
X153479311Y-120887999D01*
X153479311Y-120887998D01*
X153538078Y-120881682D01*
X153604542Y-120856892D01*
X153671004Y-120832103D01*
X153671004Y-120832102D01*
X153671006Y-120832102D01*
X153784581Y-120747081D01*
X153869602Y-120633506D01*
X153871240Y-120629116D01*
X153900484Y-120550709D01*
X153919182Y-120500578D01*
X153925500Y-120441811D01*
X153925499Y-119558190D01*
X153919182Y-119499422D01*
X153919181Y-119499419D01*
X153918687Y-119494819D01*
X153921189Y-119494550D01*
X153926003Y-119453228D01*
X153962808Y-119418477D01*
X154013340Y-119415513D01*
X154044471Y-119434087D01*
X154058597Y-119448213D01*
X154079989Y-119494089D01*
X154079847Y-119508449D01*
X154074500Y-119558186D01*
X154074500Y-120441811D01*
X154074501Y-120441812D01*
X154080818Y-120500580D01*
X154130396Y-120633504D01*
X154130397Y-120633505D01*
X154130398Y-120633506D01*
X154215419Y-120747081D01*
X154312626Y-120819849D01*
X154328994Y-120832102D01*
X154328995Y-120832103D01*
X154438356Y-120872892D01*
X154461922Y-120881682D01*
X154520689Y-120888000D01*
X155479310Y-120887999D01*
X155479311Y-120887999D01*
X155479311Y-120887998D01*
X155538078Y-120881682D01*
X155604542Y-120856892D01*
X155671004Y-120832103D01*
X155671004Y-120832102D01*
X155671006Y-120832102D01*
X155784581Y-120747081D01*
X155869602Y-120633506D01*
X155871240Y-120629116D01*
X155900484Y-120550709D01*
X155919182Y-120500578D01*
X155925500Y-120441811D01*
X155925500Y-120290256D01*
X168124500Y-120290256D01*
X168127275Y-120319849D01*
X168127275Y-120319851D01*
X168127276Y-120319854D01*
X168170882Y-120444473D01*
X168211962Y-120500135D01*
X168249289Y-120550711D01*
X168327695Y-120608576D01*
X168355526Y-120629117D01*
X168480145Y-120672723D01*
X168480151Y-120672725D01*
X168509744Y-120675500D01*
X168509751Y-120675500D01*
X169390249Y-120675500D01*
X169390256Y-120675500D01*
X169419849Y-120672725D01*
X169476532Y-120652890D01*
X169544473Y-120629117D01*
X169544473Y-120629116D01*
X169544475Y-120629116D01*
X169650711Y-120550711D01*
X169729116Y-120444475D01*
X169772725Y-120319849D01*
X169775500Y-120290256D01*
X169775500Y-119709744D01*
X169772725Y-119680151D01*
X169730049Y-119558190D01*
X169729117Y-119555526D01*
X169708576Y-119527695D01*
X169650711Y-119449289D01*
X169600135Y-119411962D01*
X169544473Y-119370882D01*
X169419854Y-119327276D01*
X169419855Y-119327276D01*
X169419850Y-119327275D01*
X169419849Y-119327275D01*
X169390256Y-119324500D01*
X168509744Y-119324500D01*
X168480151Y-119327275D01*
X168480149Y-119327275D01*
X168480145Y-119327276D01*
X168355526Y-119370882D01*
X168249290Y-119449288D01*
X168249288Y-119449290D01*
X168170882Y-119555526D01*
X168127276Y-119680145D01*
X168127275Y-119680149D01*
X168127275Y-119680151D01*
X168124500Y-119709744D01*
X168124500Y-120290256D01*
X155925500Y-120290256D01*
X155925499Y-119558190D01*
X155919182Y-119499422D01*
X155911307Y-119478308D01*
X155869603Y-119366495D01*
X155869602Y-119366494D01*
X155784581Y-119252919D01*
X155677454Y-119172725D01*
X155671005Y-119167897D01*
X155671004Y-119167896D01*
X155538082Y-119118319D01*
X155538076Y-119118317D01*
X155479313Y-119112000D01*
X154532268Y-119112000D01*
X154484702Y-119094687D01*
X154479942Y-119090326D01*
X154219145Y-118829529D01*
X154209942Y-118818314D01*
X154198626Y-118801378D01*
X154198624Y-118801376D01*
X154196638Y-118800049D01*
X154178644Y-118788025D01*
X154178641Y-118788023D01*
X154135975Y-118759515D01*
X154107495Y-118740485D01*
X154027133Y-118724500D01*
X154027132Y-118724500D01*
X154027130Y-118724499D01*
X154000001Y-118719103D01*
X154000000Y-118719103D01*
X153981078Y-118722867D01*
X153980017Y-118723078D01*
X153965580Y-118724500D01*
X153041767Y-118724500D01*
X152994201Y-118707187D01*
X152968891Y-118663350D01*
X152977681Y-118613500D01*
X153000654Y-118588972D01*
X153023624Y-118573624D01*
X153084515Y-118482495D01*
X153100500Y-118402133D01*
X153100500Y-117849500D01*
X153117813Y-117801934D01*
X153161650Y-117776624D01*
X153174500Y-117775500D01*
X154538001Y-117775500D01*
X154585567Y-117792813D01*
X154610877Y-117836650D01*
X154612001Y-117849500D01*
X154612001Y-117979312D01*
X154618318Y-118038080D01*
X154667896Y-118171004D01*
X154667897Y-118171005D01*
X154667898Y-118171006D01*
X154752919Y-118284581D01*
X154866494Y-118369602D01*
X154866495Y-118369603D01*
X154975856Y-118410392D01*
X154999422Y-118419182D01*
X155058189Y-118425500D01*
X155941810Y-118425499D01*
X155941811Y-118425499D01*
X155941811Y-118425498D01*
X156000578Y-118419182D01*
X156067042Y-118394392D01*
X156133504Y-118369603D01*
X156133504Y-118369602D01*
X156133506Y-118369602D01*
X156239500Y-118290256D01*
X168149500Y-118290256D01*
X168152275Y-118319849D01*
X168152275Y-118319851D01*
X168152276Y-118319854D01*
X168195882Y-118444473D01*
X168227559Y-118487394D01*
X168274289Y-118550711D01*
X168349809Y-118606447D01*
X168380526Y-118629117D01*
X168505145Y-118672723D01*
X168505151Y-118672725D01*
X168534744Y-118675500D01*
X168534751Y-118675500D01*
X169415249Y-118675500D01*
X169415256Y-118675500D01*
X169444849Y-118672725D01*
X169528506Y-118643452D01*
X169569473Y-118629117D01*
X169569473Y-118629116D01*
X169569475Y-118629116D01*
X169675711Y-118550711D01*
X169754116Y-118444475D01*
X169756605Y-118437364D01*
X169797723Y-118319854D01*
X169797722Y-118319854D01*
X169797725Y-118319849D01*
X169800500Y-118290256D01*
X169800500Y-117709744D01*
X169797725Y-117680151D01*
X169759259Y-117570222D01*
X169754117Y-117555526D01*
X169685032Y-117461919D01*
X169675711Y-117449289D01*
X169615777Y-117405056D01*
X169569473Y-117370882D01*
X169444854Y-117327276D01*
X169444855Y-117327276D01*
X169444850Y-117327275D01*
X169444849Y-117327275D01*
X169415256Y-117324500D01*
X168534744Y-117324500D01*
X168505151Y-117327275D01*
X168505149Y-117327275D01*
X168505145Y-117327276D01*
X168380526Y-117370882D01*
X168274290Y-117449288D01*
X168274288Y-117449290D01*
X168195882Y-117555526D01*
X168152276Y-117680145D01*
X168152275Y-117680149D01*
X168152275Y-117680151D01*
X168149500Y-117709744D01*
X168149500Y-118290256D01*
X156239500Y-118290256D01*
X156247081Y-118284581D01*
X156332102Y-118171006D01*
X156381682Y-118038078D01*
X156388000Y-117979311D01*
X156387999Y-117020690D01*
X156381682Y-116961922D01*
X156381680Y-116961917D01*
X156332103Y-116828995D01*
X156332102Y-116828994D01*
X156247081Y-116715419D01*
X156133506Y-116630398D01*
X156133505Y-116630397D01*
X156133504Y-116630396D01*
X156000582Y-116580819D01*
X156000576Y-116580817D01*
X155941812Y-116574500D01*
X155058188Y-116574500D01*
X155058187Y-116574501D01*
X154999419Y-116580818D01*
X154866495Y-116630396D01*
X154866494Y-116630397D01*
X154752919Y-116715419D01*
X154667897Y-116828994D01*
X154667896Y-116828995D01*
X154618319Y-116961917D01*
X154618317Y-116961923D01*
X154612000Y-117020687D01*
X154612000Y-117150500D01*
X154594687Y-117198066D01*
X154550850Y-117223376D01*
X154538000Y-117224500D01*
X153174499Y-117224500D01*
X153126933Y-117207187D01*
X153101623Y-117163350D01*
X153100499Y-117150500D01*
X153100499Y-116947869D01*
X153100499Y-116947867D01*
X153084515Y-116867505D01*
X153023624Y-116776376D01*
X152932495Y-116715485D01*
X152852133Y-116699500D01*
X152852131Y-116699500D01*
X152647869Y-116699500D01*
X152567504Y-116715485D01*
X152541112Y-116733120D01*
X152491943Y-116745151D01*
X152458888Y-116733120D01*
X152432495Y-116715485D01*
X152432163Y-116715419D01*
X152352133Y-116699500D01*
X152352131Y-116699500D01*
X152147869Y-116699500D01*
X152067504Y-116715485D01*
X152041112Y-116733120D01*
X151991943Y-116745151D01*
X151958888Y-116733120D01*
X151932495Y-116715485D01*
X151932163Y-116715419D01*
X151852133Y-116699500D01*
X151852131Y-116699500D01*
X151647869Y-116699500D01*
X151567504Y-116715485D01*
X151541112Y-116733120D01*
X151491943Y-116745151D01*
X151458888Y-116733120D01*
X151432495Y-116715485D01*
X151432163Y-116715419D01*
X151352133Y-116699500D01*
X151352131Y-116699500D01*
X151147869Y-116699500D01*
X151067504Y-116715485D01*
X151041112Y-116733120D01*
X150991943Y-116745151D01*
X150958888Y-116733120D01*
X150932495Y-116715485D01*
X150932163Y-116715419D01*
X150852133Y-116699500D01*
X150852131Y-116699500D01*
X150647869Y-116699500D01*
X150567504Y-116715485D01*
X150541112Y-116733120D01*
X150491943Y-116745151D01*
X150458888Y-116733120D01*
X150432495Y-116715485D01*
X150432163Y-116715419D01*
X150352133Y-116699500D01*
X150352131Y-116699500D01*
X150147869Y-116699500D01*
X150067504Y-116715485D01*
X150041112Y-116733120D01*
X149991943Y-116745151D01*
X149958888Y-116733120D01*
X149932495Y-116715485D01*
X149932163Y-116715419D01*
X149852133Y-116699500D01*
X149852131Y-116699500D01*
X149647869Y-116699500D01*
X149567504Y-116715485D01*
X149541112Y-116733120D01*
X149491943Y-116745151D01*
X149458888Y-116733120D01*
X149432495Y-116715485D01*
X149432163Y-116715419D01*
X149352133Y-116699500D01*
X149352131Y-116699500D01*
X149147869Y-116699500D01*
X149067504Y-116715485D01*
X149041112Y-116733120D01*
X148991943Y-116745151D01*
X148958888Y-116733120D01*
X148932495Y-116715485D01*
X148932163Y-116715419D01*
X148852133Y-116699500D01*
X148852131Y-116699500D01*
X148647869Y-116699500D01*
X148567504Y-116715485D01*
X148541112Y-116733120D01*
X148491943Y-116745151D01*
X148458888Y-116733120D01*
X148432495Y-116715485D01*
X148432163Y-116715419D01*
X148352133Y-116699500D01*
X148352131Y-116699500D01*
X148147869Y-116699500D01*
X148067504Y-116715485D01*
X148041112Y-116733120D01*
X147991943Y-116745151D01*
X147958888Y-116733120D01*
X147932495Y-116715485D01*
X147932163Y-116715419D01*
X147852133Y-116699500D01*
X147852131Y-116699500D01*
X147647869Y-116699500D01*
X147567504Y-116715485D01*
X147541112Y-116733120D01*
X147491943Y-116745151D01*
X147458888Y-116733120D01*
X147432495Y-116715485D01*
X147432163Y-116715419D01*
X147352133Y-116699500D01*
X147352131Y-116699500D01*
X147147869Y-116699500D01*
X147067504Y-116715485D01*
X147041112Y-116733120D01*
X146991943Y-116745151D01*
X146958888Y-116733120D01*
X146932495Y-116715485D01*
X146932163Y-116715419D01*
X146852133Y-116699500D01*
X146852131Y-116699500D01*
X146647869Y-116699500D01*
X146567504Y-116715485D01*
X146541112Y-116733120D01*
X146491943Y-116745151D01*
X146458888Y-116733120D01*
X146432495Y-116715485D01*
X146432163Y-116715419D01*
X146352133Y-116699500D01*
X146352131Y-116699500D01*
X146147869Y-116699500D01*
X146067504Y-116715485D01*
X146067503Y-116715485D01*
X145976377Y-116776375D01*
X145976375Y-116776377D01*
X145915485Y-116867504D01*
X145899500Y-116947868D01*
X145899500Y-118402135D01*
X145906508Y-118437364D01*
X145898807Y-118487394D01*
X145886256Y-118504126D01*
X145300056Y-119090326D01*
X145254180Y-119111718D01*
X145247730Y-119112000D01*
X144300688Y-119112000D01*
X144300687Y-119112001D01*
X144241919Y-119118318D01*
X144108995Y-119167896D01*
X144108994Y-119167897D01*
X143995419Y-119252919D01*
X143910397Y-119366494D01*
X143910396Y-119366495D01*
X143860819Y-119499417D01*
X143860817Y-119499423D01*
X143854500Y-119558187D01*
X143854500Y-120441811D01*
X143854501Y-120441812D01*
X143860818Y-120500580D01*
X143910396Y-120633504D01*
X143910397Y-120633505D01*
X143910398Y-120633506D01*
X143995419Y-120747081D01*
X144092626Y-120819849D01*
X144108994Y-120832102D01*
X144108995Y-120832103D01*
X144218356Y-120872892D01*
X144241922Y-120881682D01*
X144300689Y-120888000D01*
X145259310Y-120887999D01*
X145259311Y-120887999D01*
X145259311Y-120887998D01*
X145318078Y-120881682D01*
X145384542Y-120856892D01*
X145451004Y-120832103D01*
X145451004Y-120832102D01*
X145451006Y-120832102D01*
X145564581Y-120747081D01*
X145649602Y-120633506D01*
X145651240Y-120629116D01*
X145680484Y-120550709D01*
X145699182Y-120500578D01*
X145705500Y-120441811D01*
X145705499Y-119558190D01*
X145700152Y-119508446D01*
X145712281Y-119459303D01*
X145721397Y-119448217D01*
X146348174Y-118821441D01*
X146394051Y-118800049D01*
X146442945Y-118813150D01*
X146471979Y-118854614D01*
X146474500Y-118873767D01*
X146474500Y-122980232D01*
X146457187Y-123027798D01*
X146452826Y-123032558D01*
X144687558Y-124797826D01*
X144641682Y-124819218D01*
X144635232Y-124819500D01*
X139734420Y-124819500D01*
X139719984Y-124818078D01*
X139700000Y-124814103D01*
X139699999Y-124814103D01*
X139672868Y-124819500D01*
X139672867Y-124819500D01*
X139632686Y-124827492D01*
X139592504Y-124835485D01*
X139563495Y-124854869D01*
X139526305Y-124879718D01*
X139501376Y-124896375D01*
X139501374Y-124896377D01*
X139490053Y-124913319D01*
X139480853Y-124924529D01*
X136572558Y-127832826D01*
X136526682Y-127854218D01*
X136520232Y-127854500D01*
X135020252Y-127854500D01*
X134991010Y-127860316D01*
X134961767Y-127866133D01*
X134895449Y-127910447D01*
X134895447Y-127910449D01*
X134851133Y-127976767D01*
X134839500Y-128035253D01*
X134839500Y-129774746D01*
X134851133Y-129833232D01*
X134880608Y-129877343D01*
X134895448Y-129899552D01*
X134939560Y-129929027D01*
X134961767Y-129943866D01*
X134961768Y-129943866D01*
X134961769Y-129943867D01*
X135020252Y-129955500D01*
X135020254Y-129955500D01*
X136759746Y-129955500D01*
X136759748Y-129955500D01*
X136818231Y-129943867D01*
X136884552Y-129899552D01*
X136928867Y-129833231D01*
X136940500Y-129774748D01*
X136940500Y-128905000D01*
X137374417Y-128905000D01*
X137394700Y-129110934D01*
X137454768Y-129308954D01*
X137552315Y-129491450D01*
X137683590Y-129651410D01*
X137843550Y-129782685D01*
X138026046Y-129880232D01*
X138224066Y-129940300D01*
X138430000Y-129960583D01*
X138635934Y-129940300D01*
X138833954Y-129880232D01*
X139016450Y-129782685D01*
X139176410Y-129651410D01*
X139307685Y-129491450D01*
X139405232Y-129308954D01*
X139465300Y-129110934D01*
X139485583Y-128905000D01*
X139914417Y-128905000D01*
X139934700Y-129110934D01*
X139994768Y-129308954D01*
X140092315Y-129491450D01*
X140223590Y-129651410D01*
X140383550Y-129782685D01*
X140566046Y-129880232D01*
X140764066Y-129940300D01*
X140970000Y-129960583D01*
X141175934Y-129940300D01*
X141373954Y-129880232D01*
X141556450Y-129782685D01*
X141716410Y-129651410D01*
X141847685Y-129491450D01*
X141945232Y-129308954D01*
X142005300Y-129110934D01*
X142025583Y-128905000D01*
X142005300Y-128699066D01*
X141945232Y-128501046D01*
X141847685Y-128318550D01*
X141716410Y-128158590D01*
X141556450Y-128027315D01*
X141373954Y-127929768D01*
X141221378Y-127883485D01*
X141175935Y-127869700D01*
X140970000Y-127849417D01*
X140764064Y-127869700D01*
X140629736Y-127910448D01*
X140566050Y-127929767D01*
X140566043Y-127929769D01*
X140383549Y-128027315D01*
X140223590Y-128158589D01*
X140223589Y-128158590D01*
X140092315Y-128318549D01*
X139994769Y-128501043D01*
X139934700Y-128699064D01*
X139934700Y-128699066D01*
X139914417Y-128905000D01*
X139485583Y-128905000D01*
X139465300Y-128699066D01*
X139405232Y-128501046D01*
X139307685Y-128318550D01*
X139176410Y-128158590D01*
X139016450Y-128027315D01*
X138833954Y-127929768D01*
X138681378Y-127883485D01*
X138635935Y-127869700D01*
X138430000Y-127849417D01*
X138224064Y-127869700D01*
X138089736Y-127910448D01*
X138026050Y-127929767D01*
X138026043Y-127929769D01*
X137843549Y-128027315D01*
X137683590Y-128158589D01*
X137683589Y-128158590D01*
X137552315Y-128318549D01*
X137454769Y-128501043D01*
X137394700Y-128699064D01*
X137394700Y-128699066D01*
X137374417Y-128905000D01*
X136940500Y-128905000D01*
X136940500Y-128274768D01*
X136957813Y-128227202D01*
X136962174Y-128222442D01*
X139792442Y-125392174D01*
X139838318Y-125370782D01*
X139844768Y-125370500D01*
X144561232Y-125370500D01*
X144608798Y-125387813D01*
X144634108Y-125431650D01*
X144625318Y-125481500D01*
X144613558Y-125496826D01*
X143339529Y-126770853D01*
X143328319Y-126780053D01*
X143311377Y-126791374D01*
X143311375Y-126791376D01*
X143250484Y-126882505D01*
X143241391Y-126928226D01*
X143229103Y-126989999D01*
X143233078Y-127009983D01*
X143234500Y-127024420D01*
X143234500Y-127835919D01*
X143217187Y-127883485D01*
X143181982Y-127906732D01*
X143106047Y-127929767D01*
X142923549Y-128027315D01*
X142763590Y-128158589D01*
X142763589Y-128158590D01*
X142632315Y-128318549D01*
X142534769Y-128501043D01*
X142474700Y-128699064D01*
X142474700Y-128699066D01*
X142454417Y-128905000D01*
X142474700Y-129110934D01*
X142534768Y-129308954D01*
X142632315Y-129491450D01*
X142763590Y-129651410D01*
X142923550Y-129782685D01*
X143106046Y-129880232D01*
X143304066Y-129940300D01*
X143510000Y-129960583D01*
X143715934Y-129940300D01*
X143913954Y-129880232D01*
X144096450Y-129782685D01*
X144256410Y-129651410D01*
X144387685Y-129491450D01*
X144485232Y-129308954D01*
X144545300Y-129110934D01*
X144565583Y-128905000D01*
X144545300Y-128699066D01*
X144485232Y-128501046D01*
X144387685Y-128318550D01*
X144256410Y-128158590D01*
X144096450Y-128027315D01*
X143913954Y-127929768D01*
X143913953Y-127929767D01*
X143838018Y-127906732D01*
X143797526Y-127876357D01*
X143785500Y-127835919D01*
X143785500Y-127134767D01*
X143802813Y-127087201D01*
X143807163Y-127082452D01*
X147348174Y-123541440D01*
X147394050Y-123520049D01*
X147442945Y-123533150D01*
X147471979Y-123574614D01*
X147474500Y-123593767D01*
X147474500Y-123905232D01*
X147457187Y-123952798D01*
X147452826Y-123957558D01*
X145082558Y-126327826D01*
X145036682Y-126349218D01*
X145030232Y-126349500D01*
X144935228Y-126349500D01*
X144810931Y-126385995D01*
X144701954Y-126456031D01*
X144701950Y-126456034D01*
X144617119Y-126553935D01*
X144563302Y-126671776D01*
X144544867Y-126800000D01*
X144563302Y-126928223D01*
X144563302Y-126928224D01*
X144563303Y-126928226D01*
X144617118Y-127046063D01*
X144701951Y-127143967D01*
X144810931Y-127214004D01*
X144935228Y-127250500D01*
X145064772Y-127250500D01*
X145189069Y-127214004D01*
X145298049Y-127143967D01*
X145382882Y-127046063D01*
X145436697Y-126928226D01*
X145455133Y-126800000D01*
X145452168Y-126779381D01*
X145462535Y-126729837D01*
X145473085Y-126716529D01*
X146120818Y-126068796D01*
X146166693Y-126047405D01*
X146215588Y-126060506D01*
X146244622Y-126101970D01*
X146246389Y-126110590D01*
X146249128Y-126129636D01*
X146263302Y-126228223D01*
X146263302Y-126228224D01*
X146263303Y-126228226D01*
X146317118Y-126346063D01*
X146401951Y-126443967D01*
X146510931Y-126514004D01*
X146635228Y-126550500D01*
X146764772Y-126550500D01*
X146889069Y-126514004D01*
X146998049Y-126443967D01*
X147082882Y-126346063D01*
X147136697Y-126228226D01*
X147155133Y-126100000D01*
X147152168Y-126079381D01*
X147162535Y-126029837D01*
X147173085Y-126016529D01*
X148348174Y-124841441D01*
X148394051Y-124820049D01*
X148442945Y-124833150D01*
X148471979Y-124874614D01*
X148474500Y-124893767D01*
X148474500Y-126060231D01*
X148457187Y-126107797D01*
X148452826Y-126112557D01*
X147149529Y-127415853D01*
X147138319Y-127425053D01*
X147121377Y-127436374D01*
X147121375Y-127436376D01*
X147060484Y-127527506D01*
X147059422Y-127531008D01*
X147059063Y-127534654D01*
X147039103Y-127635000D01*
X147043078Y-127654983D01*
X147044500Y-127669420D01*
X147044500Y-128254073D01*
X147027187Y-128301639D01*
X146983350Y-128326949D01*
X146933500Y-128318159D01*
X146913297Y-128301018D01*
X146796410Y-128158590D01*
X146796409Y-128158589D01*
X146636450Y-128027315D01*
X146453956Y-127929769D01*
X146453955Y-127929768D01*
X146453954Y-127929768D01*
X146301378Y-127883485D01*
X146255935Y-127869700D01*
X146050000Y-127849417D01*
X145844064Y-127869700D01*
X145709736Y-127910448D01*
X145646050Y-127929767D01*
X145646043Y-127929769D01*
X145463549Y-128027315D01*
X145303590Y-128158589D01*
X145303589Y-128158590D01*
X145172315Y-128318549D01*
X145074769Y-128501043D01*
X145014700Y-128699064D01*
X145014700Y-128699066D01*
X144994417Y-128905000D01*
X145014700Y-129110934D01*
X145074768Y-129308954D01*
X145172315Y-129491450D01*
X145303590Y-129651410D01*
X145463550Y-129782685D01*
X145646046Y-129880232D01*
X145844066Y-129940300D01*
X146050000Y-129960583D01*
X146255934Y-129940300D01*
X146453954Y-129880232D01*
X146636450Y-129782685D01*
X146796410Y-129651410D01*
X146913298Y-129508980D01*
X146956855Y-129483195D01*
X147006798Y-129491440D01*
X147039757Y-129529859D01*
X147044500Y-129555926D01*
X147044500Y-132570232D01*
X147027187Y-132617798D01*
X147022826Y-132622558D01*
X136572558Y-143072826D01*
X136526682Y-143094218D01*
X136520232Y-143094500D01*
X135020252Y-143094500D01*
X134991010Y-143100316D01*
X134961767Y-143106133D01*
X134895449Y-143150447D01*
X134895447Y-143150449D01*
X134851133Y-143216767D01*
X134839500Y-143275253D01*
X134839500Y-145014746D01*
X134851133Y-145073232D01*
X134880608Y-145117343D01*
X134895448Y-145139552D01*
X134939560Y-145169027D01*
X134961767Y-145183866D01*
X134961768Y-145183866D01*
X134961769Y-145183867D01*
X135020252Y-145195500D01*
X135020254Y-145195500D01*
X136759746Y-145195500D01*
X136759748Y-145195500D01*
X136818231Y-145183867D01*
X136884552Y-145139552D01*
X136928867Y-145073231D01*
X136940500Y-145014748D01*
X136940500Y-144145000D01*
X137374417Y-144145000D01*
X137394700Y-144350934D01*
X137454768Y-144548954D01*
X137552315Y-144731450D01*
X137683590Y-144891410D01*
X137843550Y-145022685D01*
X138026046Y-145120232D01*
X138224066Y-145180300D01*
X138430000Y-145200583D01*
X138635934Y-145180300D01*
X138833954Y-145120232D01*
X139016450Y-145022685D01*
X139176410Y-144891410D01*
X139307685Y-144731450D01*
X139405232Y-144548954D01*
X139465300Y-144350934D01*
X139485583Y-144145000D01*
X139914417Y-144145000D01*
X139934700Y-144350934D01*
X139994768Y-144548954D01*
X140092315Y-144731450D01*
X140223590Y-144891410D01*
X140383550Y-145022685D01*
X140566046Y-145120232D01*
X140764066Y-145180300D01*
X140970000Y-145200583D01*
X141175934Y-145180300D01*
X141373954Y-145120232D01*
X141556450Y-145022685D01*
X141716410Y-144891410D01*
X141847685Y-144731450D01*
X141945232Y-144548954D01*
X142005300Y-144350934D01*
X142025583Y-144145000D01*
X142454417Y-144145000D01*
X142474700Y-144350934D01*
X142534768Y-144548954D01*
X142632315Y-144731450D01*
X142763590Y-144891410D01*
X142923550Y-145022685D01*
X143106046Y-145120232D01*
X143304066Y-145180300D01*
X143510000Y-145200583D01*
X143715934Y-145180300D01*
X143913954Y-145120232D01*
X144096450Y-145022685D01*
X144256410Y-144891410D01*
X144387685Y-144731450D01*
X144485232Y-144548954D01*
X144545300Y-144350934D01*
X144565583Y-144145000D01*
X144994417Y-144145000D01*
X145014700Y-144350934D01*
X145074768Y-144548954D01*
X145172315Y-144731450D01*
X145303590Y-144891410D01*
X145463550Y-145022685D01*
X145646046Y-145120232D01*
X145844066Y-145180300D01*
X146050000Y-145200583D01*
X146255934Y-145180300D01*
X146453954Y-145120232D01*
X146636450Y-145022685D01*
X146796410Y-144891410D01*
X146927685Y-144731450D01*
X147025232Y-144548954D01*
X147085300Y-144350934D01*
X147105583Y-144145000D01*
X147534417Y-144145000D01*
X147554700Y-144350934D01*
X147614768Y-144548954D01*
X147712315Y-144731450D01*
X147843590Y-144891410D01*
X148003550Y-145022685D01*
X148186046Y-145120232D01*
X148384066Y-145180300D01*
X148590000Y-145200583D01*
X148795934Y-145180300D01*
X148993954Y-145120232D01*
X149176450Y-145022685D01*
X149336410Y-144891410D01*
X149467685Y-144731450D01*
X149565232Y-144548954D01*
X149625300Y-144350934D01*
X149645583Y-144145000D01*
X150074417Y-144145000D01*
X150094700Y-144350934D01*
X150154768Y-144548954D01*
X150252315Y-144731450D01*
X150383590Y-144891410D01*
X150543550Y-145022685D01*
X150726046Y-145120232D01*
X150924066Y-145180300D01*
X151130000Y-145200583D01*
X151335934Y-145180300D01*
X151533954Y-145120232D01*
X151716450Y-145022685D01*
X151876410Y-144891410D01*
X152007685Y-144731450D01*
X152105232Y-144548954D01*
X152165300Y-144350934D01*
X152185583Y-144145000D01*
X152614417Y-144145000D01*
X152634700Y-144350934D01*
X152694768Y-144548954D01*
X152792315Y-144731450D01*
X152923590Y-144891410D01*
X153083550Y-145022685D01*
X153266046Y-145120232D01*
X153464066Y-145180300D01*
X153670000Y-145200583D01*
X153875934Y-145180300D01*
X154073954Y-145120232D01*
X154256450Y-145022685D01*
X154416410Y-144891410D01*
X154547685Y-144731450D01*
X154645232Y-144548954D01*
X154705300Y-144350934D01*
X154725583Y-144145000D01*
X154705300Y-143939066D01*
X154645232Y-143741046D01*
X154547685Y-143558550D01*
X154416410Y-143398590D01*
X154256450Y-143267315D01*
X154073954Y-143169768D01*
X153962158Y-143135855D01*
X153875935Y-143109700D01*
X153670000Y-143089417D01*
X153464064Y-143109700D01*
X153266043Y-143169769D01*
X153083549Y-143267315D01*
X152923590Y-143398589D01*
X152923589Y-143398590D01*
X152792315Y-143558549D01*
X152694769Y-143741043D01*
X152634700Y-143939064D01*
X152634700Y-143939066D01*
X152614417Y-144145000D01*
X152185583Y-144145000D01*
X152165300Y-143939066D01*
X152105232Y-143741046D01*
X152007685Y-143558550D01*
X151876410Y-143398590D01*
X151716450Y-143267315D01*
X151533954Y-143169768D01*
X151422158Y-143135855D01*
X151335935Y-143109700D01*
X151130000Y-143089417D01*
X150924064Y-143109700D01*
X150726043Y-143169769D01*
X150543549Y-143267315D01*
X150383590Y-143398589D01*
X150383589Y-143398590D01*
X150252315Y-143558549D01*
X150154769Y-143741043D01*
X150094700Y-143939064D01*
X150094700Y-143939066D01*
X150074417Y-144145000D01*
X149645583Y-144145000D01*
X149625300Y-143939066D01*
X149565232Y-143741046D01*
X149467685Y-143558550D01*
X149336410Y-143398590D01*
X149176450Y-143267315D01*
X148993954Y-143169768D01*
X148882158Y-143135855D01*
X148795935Y-143109700D01*
X148590000Y-143089417D01*
X148384064Y-143109700D01*
X148186043Y-143169769D01*
X148003549Y-143267315D01*
X147843590Y-143398589D01*
X147843589Y-143398590D01*
X147712315Y-143558549D01*
X147614769Y-143741043D01*
X147554700Y-143939064D01*
X147554700Y-143939066D01*
X147534417Y-144145000D01*
X147105583Y-144145000D01*
X147085300Y-143939066D01*
X147025232Y-143741046D01*
X146927685Y-143558550D01*
X146796410Y-143398590D01*
X146636450Y-143267315D01*
X146453954Y-143169768D01*
X146342158Y-143135855D01*
X146255935Y-143109700D01*
X146050000Y-143089417D01*
X145844064Y-143109700D01*
X145646043Y-143169769D01*
X145463549Y-143267315D01*
X145303590Y-143398589D01*
X145303589Y-143398590D01*
X145172315Y-143558549D01*
X145074769Y-143741043D01*
X145014700Y-143939064D01*
X145014700Y-143939066D01*
X144994417Y-144145000D01*
X144565583Y-144145000D01*
X144545300Y-143939066D01*
X144485232Y-143741046D01*
X144387685Y-143558550D01*
X144256410Y-143398590D01*
X144096450Y-143267315D01*
X143913954Y-143169768D01*
X143802158Y-143135855D01*
X143715935Y-143109700D01*
X143510000Y-143089417D01*
X143304064Y-143109700D01*
X143106043Y-143169769D01*
X142923549Y-143267315D01*
X142763590Y-143398589D01*
X142763589Y-143398590D01*
X142632315Y-143558549D01*
X142534769Y-143741043D01*
X142474700Y-143939064D01*
X142474700Y-143939066D01*
X142454417Y-144145000D01*
X142025583Y-144145000D01*
X142005300Y-143939066D01*
X141945232Y-143741046D01*
X141847685Y-143558550D01*
X141716410Y-143398590D01*
X141556450Y-143267315D01*
X141373954Y-143169768D01*
X141262158Y-143135855D01*
X141175935Y-143109700D01*
X140970000Y-143089417D01*
X140764064Y-143109700D01*
X140566043Y-143169769D01*
X140383549Y-143267315D01*
X140223590Y-143398589D01*
X140223589Y-143398590D01*
X140092315Y-143558549D01*
X139994769Y-143741043D01*
X139934700Y-143939064D01*
X139934700Y-143939066D01*
X139914417Y-144145000D01*
X139485583Y-144145000D01*
X139465300Y-143939066D01*
X139405232Y-143741046D01*
X139307685Y-143558550D01*
X139176410Y-143398590D01*
X139016450Y-143267315D01*
X138833954Y-143169768D01*
X138722158Y-143135855D01*
X138635935Y-143109700D01*
X138430000Y-143089417D01*
X138224064Y-143109700D01*
X138026043Y-143169769D01*
X137843549Y-143267315D01*
X137683590Y-143398589D01*
X137683589Y-143398590D01*
X137552315Y-143558549D01*
X137454769Y-143741043D01*
X137394700Y-143939064D01*
X137394700Y-143939066D01*
X137374417Y-144145000D01*
X136940500Y-144145000D01*
X136940500Y-143514767D01*
X136957813Y-143467201D01*
X136962163Y-143462452D01*
X147490473Y-132934141D01*
X147501676Y-132924947D01*
X147518624Y-132913624D01*
X147579515Y-132822495D01*
X147595500Y-132742133D01*
X147595500Y-132742132D01*
X147600897Y-132715000D01*
X147596922Y-132695015D01*
X147595500Y-132680579D01*
X147595500Y-129555926D01*
X147612813Y-129508360D01*
X147656650Y-129483050D01*
X147706500Y-129491840D01*
X147726700Y-129508978D01*
X147843590Y-129651410D01*
X148003550Y-129782685D01*
X148186046Y-129880232D01*
X148384066Y-129940300D01*
X148590000Y-129960583D01*
X148795934Y-129940300D01*
X148993954Y-129880232D01*
X149176450Y-129782685D01*
X149336410Y-129651410D01*
X149467685Y-129491450D01*
X149565232Y-129308954D01*
X149625300Y-129110934D01*
X149645583Y-128905000D01*
X149625300Y-128699066D01*
X149565232Y-128501046D01*
X149467685Y-128318550D01*
X149336410Y-128158590D01*
X149176450Y-128027315D01*
X148993954Y-127929768D01*
X148841378Y-127883485D01*
X148795935Y-127869700D01*
X148590000Y-127849417D01*
X148384064Y-127869700D01*
X148249736Y-127910448D01*
X148186050Y-127929767D01*
X148186043Y-127929769D01*
X148003549Y-128027315D01*
X147843590Y-128158589D01*
X147843589Y-128158590D01*
X147726703Y-128301018D01*
X147683144Y-128326804D01*
X147633201Y-128318559D01*
X147600243Y-128280140D01*
X147595500Y-128254073D01*
X147595500Y-127779767D01*
X147612813Y-127732201D01*
X147617163Y-127727452D01*
X148920472Y-126424142D01*
X148931676Y-126414947D01*
X148948624Y-126403624D01*
X148987086Y-126346063D01*
X149009515Y-126312495D01*
X149012274Y-126298624D01*
X149025500Y-126232133D01*
X149025500Y-126232128D01*
X149030896Y-126205000D01*
X149026922Y-126185020D01*
X149025500Y-126170584D01*
X149025500Y-125463768D01*
X149042813Y-125416202D01*
X149086650Y-125390892D01*
X149136500Y-125399682D01*
X149151826Y-125411442D01*
X151520561Y-127780177D01*
X151541953Y-127826053D01*
X151528852Y-127874948D01*
X151487388Y-127903982D01*
X151446755Y-127903317D01*
X151376861Y-127882115D01*
X151335935Y-127869700D01*
X151130000Y-127849417D01*
X150924064Y-127869700D01*
X150789736Y-127910448D01*
X150726050Y-127929767D01*
X150726043Y-127929769D01*
X150543549Y-128027315D01*
X150383590Y-128158589D01*
X150383589Y-128158590D01*
X150252315Y-128318549D01*
X150154769Y-128501043D01*
X150094700Y-128699064D01*
X150094700Y-128699066D01*
X150074417Y-128905000D01*
X150094700Y-129110934D01*
X150154768Y-129308954D01*
X150252315Y-129491450D01*
X150383590Y-129651410D01*
X150543550Y-129782685D01*
X150726046Y-129880232D01*
X150924066Y-129940300D01*
X151130000Y-129960583D01*
X151335934Y-129940300D01*
X151533954Y-129880232D01*
X151716450Y-129782685D01*
X151876410Y-129651410D01*
X151993298Y-129508980D01*
X152036855Y-129483195D01*
X152086798Y-129491440D01*
X152119757Y-129529859D01*
X152124500Y-129555926D01*
X152124500Y-137760579D01*
X152123078Y-137775015D01*
X152119103Y-137794999D01*
X152119103Y-137795000D01*
X152124500Y-137822132D01*
X152140485Y-137902495D01*
X152201377Y-137993625D01*
X152218314Y-138004942D01*
X152229529Y-138014145D01*
X157799238Y-143583854D01*
X157820630Y-143629730D01*
X157812174Y-143671063D01*
X157774770Y-143741041D01*
X157714700Y-143939064D01*
X157714700Y-143939066D01*
X157694417Y-144145000D01*
X157714700Y-144350934D01*
X157774768Y-144548954D01*
X157872315Y-144731450D01*
X158003590Y-144891410D01*
X158163550Y-145022685D01*
X158346046Y-145120232D01*
X158544066Y-145180300D01*
X158750000Y-145200583D01*
X158955934Y-145180300D01*
X159153954Y-145120232D01*
X159336450Y-145022685D01*
X159496410Y-144891410D01*
X159627685Y-144731450D01*
X159725232Y-144548954D01*
X159785300Y-144350934D01*
X159805583Y-144145000D01*
X160234417Y-144145000D01*
X160254700Y-144350934D01*
X160314768Y-144548954D01*
X160412315Y-144731450D01*
X160543590Y-144891410D01*
X160703550Y-145022685D01*
X160886046Y-145120232D01*
X161084066Y-145180300D01*
X161290000Y-145200583D01*
X161495934Y-145180300D01*
X161693954Y-145120232D01*
X161876450Y-145022685D01*
X162036410Y-144891410D01*
X162167685Y-144731450D01*
X162265232Y-144548954D01*
X162325300Y-144350934D01*
X162345583Y-144145000D01*
X162774417Y-144145000D01*
X162794700Y-144350934D01*
X162854768Y-144548954D01*
X162952315Y-144731450D01*
X163083590Y-144891410D01*
X163243550Y-145022685D01*
X163426046Y-145120232D01*
X163624066Y-145180300D01*
X163830000Y-145200583D01*
X164035934Y-145180300D01*
X164233954Y-145120232D01*
X164416450Y-145022685D01*
X164576410Y-144891410D01*
X164707685Y-144731450D01*
X164805232Y-144548954D01*
X164865300Y-144350934D01*
X164885583Y-144145000D01*
X164865300Y-143939066D01*
X164805232Y-143741046D01*
X164707685Y-143558550D01*
X164576410Y-143398590D01*
X164416450Y-143267315D01*
X164233954Y-143169768D01*
X164122158Y-143135855D01*
X164035935Y-143109700D01*
X163830000Y-143089417D01*
X163624064Y-143109700D01*
X163426043Y-143169769D01*
X163243549Y-143267315D01*
X163083590Y-143398589D01*
X163083589Y-143398590D01*
X162952315Y-143558549D01*
X162854769Y-143741043D01*
X162794700Y-143939064D01*
X162794700Y-143939066D01*
X162774417Y-144145000D01*
X162345583Y-144145000D01*
X162325300Y-143939066D01*
X162265232Y-143741046D01*
X162167685Y-143558550D01*
X162036410Y-143398590D01*
X161876450Y-143267315D01*
X161693954Y-143169768D01*
X161582158Y-143135855D01*
X161495935Y-143109700D01*
X161290000Y-143089417D01*
X161084064Y-143109700D01*
X160886043Y-143169769D01*
X160703549Y-143267315D01*
X160543590Y-143398589D01*
X160543589Y-143398590D01*
X160412315Y-143558549D01*
X160314769Y-143741043D01*
X160254700Y-143939064D01*
X160254700Y-143939066D01*
X160234417Y-144145000D01*
X159805583Y-144145000D01*
X159785300Y-143939066D01*
X159725232Y-143741046D01*
X159627685Y-143558550D01*
X159496410Y-143398590D01*
X159336450Y-143267315D01*
X159153954Y-143169768D01*
X159042158Y-143135855D01*
X158955935Y-143109700D01*
X158750000Y-143089417D01*
X158544064Y-143109700D01*
X158433842Y-143143135D01*
X158346046Y-143169768D01*
X158346043Y-143169769D01*
X158346041Y-143169770D01*
X158276063Y-143207174D01*
X158225952Y-143214328D01*
X158188854Y-143194238D01*
X152697174Y-137702558D01*
X152675782Y-137656682D01*
X152675500Y-137650232D01*
X152675500Y-129555926D01*
X152692813Y-129508360D01*
X152736650Y-129483050D01*
X152786500Y-129491840D01*
X152806700Y-129508978D01*
X152923590Y-129651410D01*
X153083550Y-129782685D01*
X153266046Y-129880232D01*
X153464066Y-129940300D01*
X153670000Y-129960583D01*
X153875934Y-129940300D01*
X154073954Y-129880232D01*
X154256450Y-129782685D01*
X154416410Y-129651410D01*
X154547685Y-129491450D01*
X154645232Y-129308954D01*
X154705300Y-129110934D01*
X154725583Y-128905000D01*
X155154417Y-128905000D01*
X155174700Y-129110934D01*
X155234768Y-129308954D01*
X155332315Y-129491450D01*
X155463590Y-129651410D01*
X155623550Y-129782685D01*
X155806046Y-129880232D01*
X156004066Y-129940300D01*
X156210000Y-129960583D01*
X156415934Y-129940300D01*
X156613954Y-129880232D01*
X156796450Y-129782685D01*
X156956410Y-129651410D01*
X157087685Y-129491450D01*
X157185232Y-129308954D01*
X157245300Y-129110934D01*
X157265583Y-128905000D01*
X157694417Y-128905000D01*
X157714700Y-129110934D01*
X157774768Y-129308954D01*
X157872315Y-129491450D01*
X158003590Y-129651410D01*
X158163550Y-129782685D01*
X158346046Y-129880232D01*
X158544066Y-129940300D01*
X158750000Y-129960583D01*
X158955934Y-129940300D01*
X159153954Y-129880232D01*
X159336450Y-129782685D01*
X159496410Y-129651410D01*
X159627685Y-129491450D01*
X159725232Y-129308954D01*
X159785300Y-129110934D01*
X159805583Y-128905000D01*
X159785300Y-128699066D01*
X159725232Y-128501046D01*
X159627685Y-128318550D01*
X159496410Y-128158590D01*
X159336450Y-128027315D01*
X159153954Y-127929768D01*
X159001378Y-127883485D01*
X158955935Y-127869700D01*
X158750000Y-127849417D01*
X158544064Y-127869700D01*
X158409736Y-127910448D01*
X158346050Y-127929767D01*
X158346043Y-127929769D01*
X158163549Y-128027315D01*
X158003590Y-128158589D01*
X158003589Y-128158590D01*
X157872315Y-128318549D01*
X157774769Y-128501043D01*
X157714700Y-128699064D01*
X157714700Y-128699066D01*
X157694417Y-128905000D01*
X157265583Y-128905000D01*
X157245300Y-128699066D01*
X157185232Y-128501046D01*
X157087685Y-128318550D01*
X156956410Y-128158590D01*
X156796450Y-128027315D01*
X156613954Y-127929768D01*
X156461378Y-127883485D01*
X156415935Y-127869700D01*
X156210000Y-127849417D01*
X156004064Y-127869700D01*
X155869736Y-127910448D01*
X155806050Y-127929767D01*
X155806043Y-127929769D01*
X155623549Y-128027315D01*
X155463590Y-128158589D01*
X155463589Y-128158590D01*
X155332315Y-128318549D01*
X155234769Y-128501043D01*
X155174700Y-128699064D01*
X155174700Y-128699066D01*
X155154417Y-128905000D01*
X154725583Y-128905000D01*
X154705300Y-128699066D01*
X154645232Y-128501046D01*
X154547685Y-128318550D01*
X154416410Y-128158590D01*
X154256450Y-128027315D01*
X154073954Y-127929768D01*
X153921378Y-127883485D01*
X153875935Y-127869700D01*
X153670000Y-127849417D01*
X153464064Y-127869700D01*
X153329736Y-127910448D01*
X153266050Y-127929767D01*
X153266043Y-127929769D01*
X153083549Y-128027315D01*
X152923590Y-128158589D01*
X152923589Y-128158590D01*
X152809663Y-128297410D01*
X152766104Y-128323196D01*
X152716161Y-128314951D01*
X152683203Y-128276531D01*
X152679884Y-128264911D01*
X152676614Y-128248470D01*
X152675500Y-128242865D01*
X152670195Y-128216199D01*
X152659515Y-128162505D01*
X152598624Y-128071376D01*
X152581679Y-128060053D01*
X152570470Y-128050854D01*
X149547174Y-125027558D01*
X149525782Y-124981682D01*
X149525500Y-124975232D01*
X149525500Y-123423768D01*
X149542813Y-123376202D01*
X149586650Y-123350892D01*
X149636500Y-123359682D01*
X149651826Y-123371442D01*
X150910853Y-124630469D01*
X150920055Y-124641682D01*
X150931375Y-124658623D01*
X150931376Y-124658624D01*
X150951355Y-124671974D01*
X150951356Y-124671974D01*
X150954376Y-124673992D01*
X150954378Y-124673994D01*
X150980534Y-124691471D01*
X151022505Y-124719515D01*
X151102867Y-124735500D01*
X151102868Y-124735500D01*
X151129999Y-124740897D01*
X151130000Y-124740897D01*
X151149984Y-124736921D01*
X151164420Y-124735500D01*
X159240232Y-124735500D01*
X159287798Y-124752813D01*
X159292558Y-124757174D01*
X162879238Y-128343854D01*
X162900630Y-128389730D01*
X162892174Y-128431063D01*
X162854770Y-128501041D01*
X162794700Y-128699064D01*
X162794700Y-128699066D01*
X162774417Y-128905000D01*
X162794700Y-129110934D01*
X162854768Y-129308954D01*
X162952315Y-129491450D01*
X163083590Y-129651410D01*
X163243550Y-129782685D01*
X163426046Y-129880232D01*
X163624066Y-129940300D01*
X163830000Y-129960583D01*
X164035934Y-129940300D01*
X164233954Y-129880232D01*
X164416450Y-129782685D01*
X164576410Y-129651410D01*
X164707685Y-129491450D01*
X164805232Y-129308954D01*
X164865300Y-129110934D01*
X164885583Y-128905000D01*
X164865300Y-128699066D01*
X164805232Y-128501046D01*
X164707685Y-128318550D01*
X164576410Y-128158590D01*
X164416450Y-128027315D01*
X164233954Y-127929768D01*
X164081378Y-127883485D01*
X164035935Y-127869700D01*
X163830000Y-127849417D01*
X163624064Y-127869700D01*
X163513842Y-127903135D01*
X163426046Y-127929768D01*
X163426043Y-127929769D01*
X163426041Y-127929770D01*
X163356063Y-127967174D01*
X163305952Y-127974328D01*
X163268854Y-127954238D01*
X160104872Y-124790256D01*
X189649500Y-124790256D01*
X189652275Y-124819849D01*
X189652275Y-124819851D01*
X189652276Y-124819854D01*
X189695882Y-124944473D01*
X189718583Y-124975232D01*
X189774289Y-125050711D01*
X189852695Y-125108576D01*
X189880526Y-125129117D01*
X190005145Y-125172723D01*
X190005151Y-125172725D01*
X190034744Y-125175500D01*
X190034751Y-125175500D01*
X190715249Y-125175500D01*
X190715256Y-125175500D01*
X190744849Y-125172725D01*
X190801532Y-125152890D01*
X190869473Y-125129117D01*
X190869473Y-125129116D01*
X190869475Y-125129116D01*
X190975711Y-125050711D01*
X191054116Y-124944475D01*
X191061096Y-124924529D01*
X191085471Y-124854869D01*
X191097725Y-124819849D01*
X191100500Y-124790256D01*
X191100500Y-124209744D01*
X191097725Y-124180151D01*
X191094337Y-124170468D01*
X191054117Y-124055526D01*
X191033576Y-124027695D01*
X190975711Y-123949289D01*
X190916015Y-123905232D01*
X190869473Y-123870882D01*
X190744854Y-123827276D01*
X190744855Y-123827276D01*
X190744850Y-123827275D01*
X190744849Y-123827275D01*
X190715256Y-123824500D01*
X190034744Y-123824500D01*
X190005151Y-123827275D01*
X190005149Y-123827275D01*
X190005145Y-123827276D01*
X189880526Y-123870882D01*
X189774290Y-123949288D01*
X189774288Y-123949290D01*
X189695882Y-124055526D01*
X189652276Y-124180145D01*
X189652275Y-124180149D01*
X189652275Y-124180151D01*
X189649500Y-124209744D01*
X189649500Y-124790256D01*
X160104872Y-124790256D01*
X159716442Y-124401826D01*
X159695050Y-124355950D01*
X159708151Y-124307055D01*
X159749615Y-124278021D01*
X159768768Y-124275500D01*
X174215580Y-124275500D01*
X174230016Y-124276921D01*
X174250000Y-124280897D01*
X174250001Y-124280897D01*
X174254622Y-124279977D01*
X174277132Y-124275500D01*
X174277133Y-124275500D01*
X174357495Y-124259515D01*
X174408219Y-124225622D01*
X174425622Y-124213994D01*
X174425622Y-124213993D01*
X174433636Y-124208639D01*
X174433639Y-124208636D01*
X174448624Y-124198624D01*
X174459948Y-124181674D01*
X174469141Y-124170473D01*
X175849358Y-122790256D01*
X189649500Y-122790256D01*
X189652275Y-122819849D01*
X189652275Y-122819851D01*
X189652276Y-122819854D01*
X189695882Y-122944473D01*
X189736962Y-123000135D01*
X189774289Y-123050711D01*
X189852695Y-123108576D01*
X189880526Y-123129117D01*
X190005145Y-123172723D01*
X190005151Y-123172725D01*
X190034744Y-123175500D01*
X190034751Y-123175500D01*
X190715249Y-123175500D01*
X190715256Y-123175500D01*
X190744849Y-123172725D01*
X190801532Y-123152890D01*
X190869473Y-123129117D01*
X190869473Y-123129116D01*
X190869475Y-123129116D01*
X190975711Y-123050711D01*
X191054116Y-122944475D01*
X191097725Y-122819849D01*
X191100500Y-122790256D01*
X191100500Y-122209744D01*
X191097725Y-122180151D01*
X191082235Y-122135884D01*
X191054117Y-122055526D01*
X191033576Y-122027695D01*
X190975711Y-121949289D01*
X190925135Y-121911962D01*
X190869473Y-121870882D01*
X190744854Y-121827276D01*
X190744855Y-121827276D01*
X190744850Y-121827275D01*
X190744849Y-121827275D01*
X190715256Y-121824500D01*
X190034744Y-121824500D01*
X190005151Y-121827275D01*
X190005149Y-121827275D01*
X190005145Y-121827276D01*
X189880526Y-121870882D01*
X189774290Y-121949288D01*
X189774288Y-121949290D01*
X189695882Y-122055526D01*
X189652276Y-122180145D01*
X189652275Y-122180149D01*
X189652275Y-122180151D01*
X189649500Y-122209744D01*
X189649500Y-122790256D01*
X175849358Y-122790256D01*
X177849358Y-120790256D01*
X189649500Y-120790256D01*
X189652275Y-120819849D01*
X189652275Y-120819851D01*
X189652276Y-120819854D01*
X189695882Y-120944473D01*
X189736962Y-121000135D01*
X189774289Y-121050711D01*
X189852695Y-121108576D01*
X189880526Y-121129117D01*
X190005145Y-121172723D01*
X190005151Y-121172725D01*
X190034744Y-121175500D01*
X190034751Y-121175500D01*
X190715249Y-121175500D01*
X190715256Y-121175500D01*
X190744849Y-121172725D01*
X190801532Y-121152890D01*
X190869473Y-121129117D01*
X190869473Y-121129116D01*
X190869475Y-121129116D01*
X190975711Y-121050711D01*
X191054116Y-120944475D01*
X191097725Y-120819849D01*
X191100500Y-120790256D01*
X191100500Y-120209744D01*
X191097725Y-120180151D01*
X191097723Y-120180145D01*
X191054117Y-120055526D01*
X191033576Y-120027695D01*
X190975711Y-119949289D01*
X190925135Y-119911962D01*
X190869473Y-119870882D01*
X190744854Y-119827276D01*
X190744855Y-119827276D01*
X190744850Y-119827275D01*
X190744849Y-119827275D01*
X190715256Y-119824500D01*
X190034744Y-119824500D01*
X190005151Y-119827275D01*
X190005149Y-119827275D01*
X190005145Y-119827276D01*
X189880526Y-119870882D01*
X189774290Y-119949288D01*
X189774288Y-119949290D01*
X189695882Y-120055526D01*
X189652276Y-120180145D01*
X189652275Y-120180149D01*
X189652275Y-120180151D01*
X189649500Y-120209744D01*
X189649500Y-120790256D01*
X177849358Y-120790256D01*
X179849358Y-118790256D01*
X189649500Y-118790256D01*
X189652275Y-118819849D01*
X189652275Y-118819851D01*
X189652276Y-118819854D01*
X189695882Y-118944473D01*
X189707299Y-118959942D01*
X189774289Y-119050711D01*
X189827966Y-119090326D01*
X189880526Y-119129117D01*
X190005145Y-119172723D01*
X190005151Y-119172725D01*
X190034744Y-119175500D01*
X190034751Y-119175500D01*
X190715249Y-119175500D01*
X190715256Y-119175500D01*
X190744849Y-119172725D01*
X190801532Y-119152890D01*
X190869473Y-119129117D01*
X190869473Y-119129116D01*
X190869475Y-119129116D01*
X190975711Y-119050711D01*
X191054116Y-118944475D01*
X191060757Y-118925498D01*
X191097723Y-118819854D01*
X191097722Y-118819854D01*
X191097725Y-118819849D01*
X191100500Y-118790256D01*
X191100500Y-118209744D01*
X191097725Y-118180151D01*
X191094524Y-118171004D01*
X191054117Y-118055526D01*
X191028266Y-118020499D01*
X190975711Y-117949289D01*
X190925135Y-117911962D01*
X190869473Y-117870882D01*
X190744854Y-117827276D01*
X190744855Y-117827276D01*
X190744850Y-117827275D01*
X190744849Y-117827275D01*
X190715256Y-117824500D01*
X190034744Y-117824500D01*
X190005151Y-117827275D01*
X190005149Y-117827275D01*
X190005145Y-117827276D01*
X189880526Y-117870882D01*
X189774290Y-117949288D01*
X189774288Y-117949290D01*
X189695882Y-118055526D01*
X189652276Y-118180145D01*
X189652275Y-118180149D01*
X189652275Y-118180151D01*
X189649500Y-118209744D01*
X189649500Y-118790256D01*
X179849358Y-118790256D01*
X185471665Y-113167949D01*
X185517540Y-113146558D01*
X185566435Y-113159659D01*
X185591301Y-113189532D01*
X185617118Y-113246063D01*
X185701951Y-113343967D01*
X185810931Y-113414004D01*
X185935228Y-113450500D01*
X186064772Y-113450500D01*
X186189069Y-113414004D01*
X186298049Y-113343967D01*
X186382882Y-113246063D01*
X186436697Y-113128226D01*
X186455133Y-113000000D01*
X186436697Y-112871774D01*
X186382882Y-112753937D01*
X186298049Y-112656033D01*
X186211638Y-112600500D01*
X186189068Y-112585995D01*
X186082241Y-112554629D01*
X186041479Y-112524616D01*
X186030512Y-112498065D01*
X186026920Y-112480008D01*
X186025500Y-112465579D01*
X186025500Y-111100123D01*
X186042813Y-111052557D01*
X186047174Y-111047797D01*
X186073202Y-111021769D01*
X186102206Y-110992765D01*
X186147585Y-110889991D01*
X186150500Y-110864865D01*
X186150499Y-109875136D01*
X186147585Y-109850009D01*
X186102206Y-109747235D01*
X186022765Y-109667794D01*
X185919991Y-109622415D01*
X185919990Y-109622414D01*
X185919988Y-109622414D01*
X185898659Y-109619940D01*
X185894865Y-109619500D01*
X185894864Y-109619500D01*
X185605136Y-109619500D01*
X185580013Y-109622414D01*
X185580007Y-109622415D01*
X185486500Y-109663703D01*
X185435993Y-109667078D01*
X185415498Y-109657537D01*
X185414368Y-109656782D01*
X185382495Y-109635485D01*
X185302133Y-109619500D01*
X185302131Y-109619500D01*
X185097869Y-109619500D01*
X185017504Y-109635485D01*
X184991112Y-109653120D01*
X184941943Y-109665151D01*
X184908888Y-109653120D01*
X184882495Y-109635485D01*
X184802133Y-109619500D01*
X184802131Y-109619500D01*
X184597872Y-109619500D01*
X184539937Y-109631023D01*
X184489908Y-109623321D01*
X184466166Y-109596825D01*
X184463564Y-109598565D01*
X184418349Y-109530895D01*
X184413072Y-109522998D01*
X184413062Y-109522985D01*
X184398624Y-109501376D01*
X184396563Y-109499999D01*
X184381683Y-109490056D01*
X184370470Y-109480854D01*
X184219145Y-109329529D01*
X184209942Y-109318314D01*
X184198626Y-109301378D01*
X184198624Y-109301376D01*
X184192335Y-109297174D01*
X184178644Y-109288025D01*
X184178641Y-109288023D01*
X184128075Y-109254236D01*
X184107496Y-109240485D01*
X184107497Y-109240485D01*
X184067314Y-109232492D01*
X184027133Y-109224500D01*
X184027132Y-109224500D01*
X184027130Y-109224499D01*
X184000001Y-109219103D01*
X184000000Y-109219103D01*
X183980017Y-109223078D01*
X183965580Y-109224500D01*
X180872462Y-109224500D01*
X180824896Y-109207187D01*
X180799586Y-109163350D01*
X180808376Y-109113500D01*
X180846219Y-109081310D01*
X180850217Y-109079793D01*
X180850220Y-109079791D01*
X180850225Y-109079790D01*
X181000852Y-109000734D01*
X181128183Y-108887929D01*
X181224818Y-108747930D01*
X181285140Y-108588872D01*
X181298207Y-108481255D01*
X181305645Y-108420003D01*
X185594355Y-108420003D01*
X185614859Y-108588871D01*
X185675181Y-108747929D01*
X185771816Y-108887928D01*
X185867692Y-108972867D01*
X185899148Y-109000734D01*
X186049775Y-109079790D01*
X186214944Y-109120500D01*
X186214948Y-109120500D01*
X186385052Y-109120500D01*
X186385056Y-109120500D01*
X186550225Y-109079790D01*
X186700852Y-109000734D01*
X186791982Y-108920000D01*
X191794564Y-108920000D01*
X191814289Y-109246102D01*
X191873180Y-109567458D01*
X191970370Y-109879354D01*
X191970372Y-109879359D01*
X191970373Y-109879361D01*
X192090466Y-110146197D01*
X192104456Y-110177281D01*
X192254585Y-110425623D01*
X192273470Y-110456863D01*
X192474952Y-110714036D01*
X192705964Y-110945048D01*
X192963137Y-111146530D01*
X193242721Y-111315545D01*
X193540639Y-111449627D01*
X193540644Y-111449628D01*
X193540645Y-111449629D01*
X193604664Y-111469578D01*
X193852547Y-111546821D01*
X194173896Y-111605710D01*
X194500000Y-111625436D01*
X194826104Y-111605710D01*
X195147453Y-111546821D01*
X195459361Y-111449627D01*
X195757279Y-111315545D01*
X196036863Y-111146530D01*
X196294036Y-110945048D01*
X196525048Y-110714036D01*
X196726530Y-110456863D01*
X196895545Y-110177279D01*
X197029627Y-109879361D01*
X197126821Y-109567453D01*
X197185710Y-109246104D01*
X197205436Y-108920000D01*
X197185710Y-108593896D01*
X197126821Y-108272547D01*
X197053759Y-108038082D01*
X197029629Y-107960645D01*
X197029628Y-107960644D01*
X197029627Y-107960639D01*
X196895545Y-107662721D01*
X196726530Y-107383137D01*
X196525048Y-107125964D01*
X196294036Y-106894952D01*
X196036863Y-106693470D01*
X195895891Y-106608249D01*
X195757281Y-106524456D01*
X195757279Y-106524455D01*
X195459361Y-106390373D01*
X195459359Y-106390372D01*
X195459354Y-106390370D01*
X195147458Y-106293180D01*
X194826102Y-106234289D01*
X194500000Y-106214564D01*
X194173897Y-106234289D01*
X193852541Y-106293180D01*
X193540645Y-106390370D01*
X193242718Y-106524456D01*
X192963136Y-106693470D01*
X192705963Y-106894952D01*
X192474952Y-107125963D01*
X192273470Y-107383136D01*
X192104456Y-107662718D01*
X191970370Y-107960645D01*
X191873180Y-108272541D01*
X191814289Y-108593897D01*
X191794564Y-108920000D01*
X186791982Y-108920000D01*
X186828183Y-108887929D01*
X186924818Y-108747930D01*
X186985140Y-108588872D01*
X186998207Y-108481255D01*
X187005645Y-108420003D01*
X187005645Y-108419996D01*
X186985140Y-108251128D01*
X186924818Y-108092070D01*
X186828183Y-107952071D01*
X186700856Y-107839269D01*
X186700853Y-107839267D01*
X186700852Y-107839266D01*
X186550225Y-107760210D01*
X186550222Y-107760209D01*
X186385058Y-107719500D01*
X186385056Y-107719500D01*
X186214944Y-107719500D01*
X186214941Y-107719500D01*
X186049777Y-107760209D01*
X185899146Y-107839267D01*
X185899143Y-107839269D01*
X185771816Y-107952071D01*
X185675181Y-108092070D01*
X185614859Y-108251128D01*
X185594355Y-108419996D01*
X185594355Y-108420003D01*
X181305645Y-108420003D01*
X181305645Y-108419996D01*
X181285140Y-108251128D01*
X181224818Y-108092070D01*
X181128183Y-107952071D01*
X181119607Y-107944473D01*
X181074925Y-107904889D01*
X181050803Y-107860389D01*
X181060927Y-107810793D01*
X181100563Y-107779308D01*
X181123997Y-107775500D01*
X184465580Y-107775500D01*
X184480016Y-107776921D01*
X184500000Y-107780897D01*
X184500001Y-107780897D01*
X184507988Y-107779308D01*
X184527132Y-107775500D01*
X184527133Y-107775500D01*
X184607495Y-107759515D01*
X184657091Y-107726376D01*
X184667382Y-107719500D01*
X184683634Y-107708641D01*
X184683638Y-107708636D01*
X184698624Y-107698624D01*
X184709948Y-107681674D01*
X184719141Y-107670473D01*
X184870473Y-107519141D01*
X184881676Y-107509947D01*
X184898624Y-107498624D01*
X184959515Y-107407495D01*
X184975500Y-107327133D01*
X184975500Y-107327132D01*
X184980897Y-107300000D01*
X184980897Y-107292712D01*
X184982590Y-107292712D01*
X184988918Y-107251592D01*
X185026974Y-107218215D01*
X185068231Y-107214605D01*
X185097867Y-107220500D01*
X185302132Y-107220499D01*
X185382495Y-107204515D01*
X185415498Y-107182462D01*
X185464665Y-107170431D01*
X185486494Y-107176294D01*
X185580009Y-107217585D01*
X185605135Y-107220500D01*
X185894864Y-107220499D01*
X185919991Y-107217585D01*
X186022765Y-107172206D01*
X186102206Y-107092765D01*
X186147585Y-106989991D01*
X186150500Y-106964865D01*
X186150499Y-105975136D01*
X186147585Y-105950009D01*
X186102206Y-105847235D01*
X186022765Y-105767794D01*
X185919991Y-105722415D01*
X185919990Y-105722414D01*
X185919988Y-105722414D01*
X185898659Y-105719940D01*
X185894865Y-105719500D01*
X185894864Y-105719500D01*
X185605136Y-105719500D01*
X185580013Y-105722414D01*
X185580009Y-105722414D01*
X185580009Y-105722415D01*
X185580008Y-105722415D01*
X185580006Y-105722416D01*
X185579384Y-105722691D01*
X185578870Y-105722725D01*
X185574637Y-105723877D01*
X185574404Y-105723023D01*
X185528877Y-105726061D01*
X185488020Y-105696178D01*
X185475500Y-105654993D01*
X185475500Y-105524500D01*
X185492813Y-105476934D01*
X185536650Y-105451624D01*
X185549500Y-105450500D01*
X185564772Y-105450500D01*
X185689069Y-105414004D01*
X185798049Y-105343967D01*
X185882882Y-105246063D01*
X185936697Y-105128226D01*
X185955133Y-105000000D01*
X185936697Y-104871774D01*
X185882882Y-104753937D01*
X185798049Y-104656033D01*
X185731032Y-104612964D01*
X185689068Y-104585995D01*
X185564772Y-104549500D01*
X185435228Y-104549500D01*
X185310931Y-104585995D01*
X185201954Y-104656031D01*
X185201950Y-104656034D01*
X185117119Y-104753935D01*
X185063302Y-104871776D01*
X185044867Y-105000000D01*
X185047717Y-105019824D01*
X185037349Y-105069370D01*
X185015584Y-105091881D01*
X185001378Y-105101373D01*
X185001375Y-105101376D01*
X184940484Y-105192506D01*
X184939422Y-105196008D01*
X184939063Y-105199654D01*
X184919103Y-105300000D01*
X184923078Y-105319983D01*
X184924500Y-105334420D01*
X184924500Y-105653671D01*
X184907187Y-105701237D01*
X184863350Y-105726547D01*
X184836064Y-105726249D01*
X184806245Y-105720318D01*
X184802133Y-105719500D01*
X184802132Y-105719500D01*
X184597869Y-105719500D01*
X184517504Y-105735485D01*
X184491112Y-105753120D01*
X184441943Y-105765151D01*
X184408888Y-105753120D01*
X184382495Y-105735485D01*
X184302133Y-105719500D01*
X184302131Y-105719500D01*
X184097869Y-105719500D01*
X184017504Y-105735485D01*
X183991112Y-105753120D01*
X183941943Y-105765151D01*
X183908888Y-105753120D01*
X183882495Y-105735485D01*
X183802133Y-105719500D01*
X183802131Y-105719500D01*
X183597869Y-105719500D01*
X183517504Y-105735485D01*
X183491112Y-105753120D01*
X183441943Y-105765151D01*
X183408888Y-105753120D01*
X183382495Y-105735485D01*
X183302133Y-105719500D01*
X183302131Y-105719500D01*
X183097869Y-105719500D01*
X183017504Y-105735485D01*
X182991112Y-105753120D01*
X182941943Y-105765151D01*
X182908888Y-105753120D01*
X182882495Y-105735485D01*
X182802133Y-105719500D01*
X182802131Y-105719500D01*
X182597868Y-105719500D01*
X182563935Y-105726250D01*
X182513905Y-105718549D01*
X182480531Y-105680491D01*
X182475500Y-105653672D01*
X182475500Y-102234415D01*
X182476922Y-102219978D01*
X182480896Y-102200000D01*
X182475500Y-102172871D01*
X182475500Y-102172867D01*
X182459515Y-102092505D01*
X182398624Y-102001376D01*
X182381679Y-101990053D01*
X182370470Y-101980854D01*
X175969145Y-95579529D01*
X175959942Y-95568314D01*
X175948626Y-95551378D01*
X175948624Y-95551376D01*
X175928644Y-95538026D01*
X175928639Y-95538021D01*
X175899465Y-95518528D01*
X175857495Y-95490485D01*
X175777133Y-95474500D01*
X175777132Y-95474500D01*
X175777130Y-95474499D01*
X175750001Y-95469103D01*
X175750000Y-95469103D01*
X175731078Y-95472867D01*
X175730017Y-95473078D01*
X175715580Y-95474500D01*
X174824500Y-95474500D01*
X174776934Y-95457187D01*
X174751624Y-95413350D01*
X174750500Y-95400500D01*
X174750500Y-95230253D01*
X174749356Y-95224500D01*
X174738867Y-95171769D01*
X174694552Y-95105448D01*
X174672343Y-95090608D01*
X174628232Y-95061133D01*
X174628233Y-95061133D01*
X174598989Y-95055316D01*
X174569748Y-95049500D01*
X173030252Y-95049500D01*
X173001010Y-95055316D01*
X172971767Y-95061133D01*
X172905449Y-95105447D01*
X172905447Y-95105449D01*
X172861133Y-95171767D01*
X172849500Y-95230253D01*
X172849500Y-95325500D01*
X172832187Y-95373066D01*
X172788350Y-95398376D01*
X172775500Y-95399500D01*
X170224500Y-95399500D01*
X170176934Y-95382187D01*
X170151624Y-95338350D01*
X170150500Y-95325500D01*
X170150500Y-95230253D01*
X170149356Y-95224500D01*
X170138867Y-95171769D01*
X170094552Y-95105448D01*
X170072343Y-95090608D01*
X170028232Y-95061133D01*
X170028233Y-95061133D01*
X169998989Y-95055316D01*
X169969748Y-95049500D01*
X168430252Y-95049500D01*
X168401010Y-95055316D01*
X168371767Y-95061133D01*
X168305449Y-95105447D01*
X168305447Y-95105449D01*
X168261133Y-95171767D01*
X168261133Y-95171769D01*
X168249500Y-95230252D01*
X168249500Y-96269748D01*
X168255791Y-96301376D01*
X168261133Y-96328232D01*
X168262000Y-96329529D01*
X168305448Y-96394552D01*
X168349560Y-96424027D01*
X168371767Y-96438866D01*
X168371768Y-96438866D01*
X168371769Y-96438867D01*
X168430252Y-96450500D01*
X168430254Y-96450500D01*
X169969746Y-96450500D01*
X169969748Y-96450500D01*
X170028231Y-96438867D01*
X170094552Y-96394552D01*
X170138867Y-96328231D01*
X170150500Y-96269748D01*
X170150500Y-96174500D01*
X170167813Y-96126934D01*
X170211650Y-96101624D01*
X170224500Y-96100500D01*
X172775500Y-96100500D01*
X172823066Y-96117813D01*
X172848376Y-96161650D01*
X172849500Y-96174500D01*
X172849500Y-96269748D01*
X172855791Y-96301376D01*
X172861133Y-96328232D01*
X172862000Y-96329529D01*
X172905448Y-96394552D01*
X172949560Y-96424027D01*
X172971767Y-96438866D01*
X172971768Y-96438866D01*
X172971769Y-96438867D01*
X173030252Y-96450500D01*
X173030254Y-96450500D01*
X174569746Y-96450500D01*
X174569748Y-96450500D01*
X174628231Y-96438867D01*
X174694552Y-96394552D01*
X174738867Y-96328231D01*
X174750500Y-96269748D01*
X174750500Y-96099500D01*
X174767813Y-96051934D01*
X174811650Y-96026624D01*
X174824500Y-96025500D01*
X175605232Y-96025500D01*
X175652798Y-96042813D01*
X175657558Y-96047174D01*
X181902826Y-102292442D01*
X181924218Y-102338318D01*
X181924500Y-102344768D01*
X181924500Y-105776735D01*
X181912029Y-105817847D01*
X181865485Y-105887504D01*
X181865485Y-105887505D01*
X181850683Y-105961923D01*
X181849500Y-105967868D01*
X181849500Y-106972130D01*
X181859159Y-107020689D01*
X181865485Y-107052495D01*
X181903500Y-107109388D01*
X181915532Y-107158555D01*
X181893145Y-107203954D01*
X181846813Y-107224341D01*
X181841972Y-107224500D01*
X181549123Y-107224500D01*
X181501557Y-107207187D01*
X181476247Y-107163350D01*
X181485037Y-107113500D01*
X181496797Y-107098174D01*
X181502206Y-107092765D01*
X181547585Y-106989991D01*
X181550500Y-106964865D01*
X181550499Y-105975136D01*
X181547585Y-105950009D01*
X181502206Y-105847235D01*
X181422765Y-105767794D01*
X181319991Y-105722415D01*
X181319990Y-105722414D01*
X181319988Y-105722414D01*
X181298659Y-105719940D01*
X181294865Y-105719500D01*
X181294864Y-105719500D01*
X181005136Y-105719500D01*
X180980013Y-105722414D01*
X180980007Y-105722415D01*
X180877234Y-105767794D01*
X180797794Y-105847234D01*
X180752414Y-105950011D01*
X180749500Y-105975135D01*
X180749500Y-106964863D01*
X180752414Y-106989986D01*
X180752415Y-106989992D01*
X180797794Y-107092765D01*
X180803203Y-107098174D01*
X180824595Y-107144050D01*
X180811494Y-107192945D01*
X180770030Y-107221979D01*
X180750877Y-107224500D01*
X180644768Y-107224500D01*
X180597202Y-107207187D01*
X180592442Y-107202826D01*
X179719145Y-106329529D01*
X179709942Y-106318314D01*
X179698626Y-106301378D01*
X179698624Y-106301376D01*
X179678644Y-106288025D01*
X179678641Y-106288023D01*
X179627626Y-106253936D01*
X179607496Y-106240485D01*
X179607497Y-106240485D01*
X179567314Y-106232492D01*
X179527133Y-106224500D01*
X179527132Y-106224500D01*
X179527130Y-106224499D01*
X179500001Y-106219103D01*
X179500000Y-106219103D01*
X179480017Y-106223078D01*
X179465580Y-106224500D01*
X171891170Y-106224500D01*
X171843604Y-106207187D01*
X171835244Y-106198959D01*
X171798052Y-106156036D01*
X171798050Y-106156035D01*
X171798049Y-106156033D01*
X171731032Y-106112964D01*
X171689068Y-106085995D01*
X171564772Y-106049500D01*
X171435228Y-106049500D01*
X171310931Y-106085995D01*
X171201954Y-106156031D01*
X171201947Y-106156036D01*
X171164756Y-106198959D01*
X171120523Y-106223570D01*
X171108830Y-106224500D01*
X169424500Y-106224500D01*
X169376934Y-106207187D01*
X169351624Y-106163350D01*
X169350500Y-106150500D01*
X169350500Y-105730253D01*
X169348172Y-105718549D01*
X169338867Y-105671769D01*
X169327657Y-105654993D01*
X169311223Y-105630398D01*
X169294552Y-105605448D01*
X169257693Y-105580819D01*
X169228232Y-105561133D01*
X169228233Y-105561133D01*
X169198989Y-105555316D01*
X169169748Y-105549500D01*
X168130252Y-105549500D01*
X168101010Y-105555316D01*
X168071767Y-105561133D01*
X168041112Y-105581617D01*
X167991944Y-105593648D01*
X167958888Y-105581617D01*
X167928231Y-105561133D01*
X167928233Y-105561133D01*
X167898989Y-105555316D01*
X167869748Y-105549500D01*
X166830252Y-105549500D01*
X166801010Y-105555316D01*
X166771767Y-105561133D01*
X166705449Y-105605447D01*
X166705447Y-105605449D01*
X166661133Y-105671767D01*
X166661133Y-105671769D01*
X166652451Y-105715419D01*
X166649500Y-105730253D01*
X166649500Y-106188965D01*
X166632187Y-106236531D01*
X166631426Y-106237424D01*
X166617119Y-106253934D01*
X166617118Y-106253936D01*
X166563302Y-106371776D01*
X166544867Y-106500000D01*
X166563302Y-106628223D01*
X166563302Y-106628224D01*
X166563303Y-106628226D01*
X166564295Y-106630398D01*
X166617118Y-106746064D01*
X166617125Y-106746071D01*
X166617127Y-106746078D01*
X166619979Y-106750515D01*
X166619050Y-106751111D01*
X166635191Y-106793356D01*
X166618635Y-106841192D01*
X166613526Y-106846857D01*
X164559368Y-108901014D01*
X164513492Y-108922406D01*
X164464597Y-108909305D01*
X164440558Y-108875828D01*
X164438895Y-108876588D01*
X164436697Y-108871775D01*
X164436697Y-108871774D01*
X164382882Y-108753937D01*
X164298049Y-108656033D01*
X164202997Y-108594947D01*
X164189068Y-108585995D01*
X164064772Y-108549500D01*
X163935228Y-108549500D01*
X163810931Y-108585995D01*
X163701954Y-108656031D01*
X163701950Y-108656034D01*
X163617119Y-108753935D01*
X163563302Y-108871776D01*
X163547841Y-108979312D01*
X163544867Y-109000000D01*
X163546025Y-109008057D01*
X163547831Y-109020615D01*
X163537463Y-109070161D01*
X163526910Y-109083472D01*
X162157558Y-110452826D01*
X162111682Y-110474218D01*
X162105232Y-110474500D01*
X160593767Y-110474500D01*
X160546201Y-110457187D01*
X160520891Y-110413350D01*
X160529681Y-110363500D01*
X160541441Y-110348174D01*
X160849059Y-110040556D01*
X161170472Y-109719142D01*
X161181676Y-109709947D01*
X161198624Y-109698624D01*
X161215835Y-109672867D01*
X161236122Y-109642505D01*
X161259515Y-109607495D01*
X161275500Y-109527133D01*
X161275500Y-109527132D01*
X161280897Y-109500000D01*
X161276922Y-109480015D01*
X161275500Y-109465579D01*
X161275500Y-105534420D01*
X161276922Y-105519983D01*
X161280897Y-105499999D01*
X161280897Y-105499998D01*
X161259516Y-105392506D01*
X161211974Y-105321355D01*
X161198624Y-105301376D01*
X161198623Y-105301375D01*
X161181683Y-105290056D01*
X161170470Y-105280854D01*
X151297174Y-95407558D01*
X151275782Y-95361682D01*
X151275500Y-95355232D01*
X151275500Y-94477120D01*
X151292813Y-94429554D01*
X151328020Y-94406306D01*
X151350094Y-94399610D01*
X151370115Y-94393537D01*
X151537324Y-94304162D01*
X151564635Y-94281748D01*
X152537500Y-94281748D01*
X152545255Y-94320736D01*
X152549133Y-94340232D01*
X152573563Y-94376793D01*
X152593448Y-94406552D01*
X152637554Y-94436023D01*
X152659767Y-94450866D01*
X152659768Y-94450866D01*
X152659769Y-94450867D01*
X152718252Y-94462500D01*
X152718254Y-94462500D01*
X154281746Y-94462500D01*
X154281748Y-94462500D01*
X154340231Y-94450867D01*
X154406552Y-94406552D01*
X154450867Y-94340231D01*
X154462500Y-94281748D01*
X154462500Y-92718252D01*
X154450867Y-92659769D01*
X154406552Y-92593448D01*
X154369618Y-92568769D01*
X154340232Y-92549133D01*
X154340233Y-92549133D01*
X154310989Y-92543316D01*
X154281748Y-92537500D01*
X152718252Y-92537500D01*
X152689010Y-92543316D01*
X152659767Y-92549133D01*
X152593449Y-92593447D01*
X152593447Y-92593449D01*
X152549133Y-92659767D01*
X152541959Y-92695837D01*
X152537500Y-92718252D01*
X152537500Y-94281748D01*
X151564635Y-94281748D01*
X151683883Y-94183883D01*
X151804162Y-94037324D01*
X151893537Y-93870115D01*
X151948573Y-93688683D01*
X151967157Y-93500000D01*
X151948573Y-93311317D01*
X151893537Y-93129885D01*
X151804162Y-92962676D01*
X151683883Y-92816117D01*
X151569344Y-92722117D01*
X151537323Y-92695837D01*
X151370119Y-92606465D01*
X151370118Y-92606464D01*
X151370115Y-92606463D01*
X151267685Y-92575391D01*
X151188685Y-92551427D01*
X151000000Y-92532843D01*
X150811314Y-92551427D01*
X150692812Y-92587374D01*
X150629885Y-92606463D01*
X150629882Y-92606464D01*
X150629880Y-92606465D01*
X150462676Y-92695837D01*
X150316118Y-92816116D01*
X150316116Y-92816118D01*
X150195837Y-92962676D01*
X150106465Y-93129880D01*
X150070814Y-93247407D01*
X150040439Y-93287899D01*
X149991142Y-93299394D01*
X149945990Y-93276512D01*
X149929186Y-93247407D01*
X149893537Y-93129885D01*
X149804162Y-92962676D01*
X149683883Y-92816117D01*
X149569344Y-92722117D01*
X149537323Y-92695837D01*
X149370119Y-92606465D01*
X149370118Y-92606464D01*
X149370115Y-92606463D01*
X149267685Y-92575391D01*
X149188685Y-92551427D01*
X149000000Y-92532843D01*
X148811314Y-92551427D01*
X148692812Y-92587374D01*
X148629885Y-92606463D01*
X148629882Y-92606464D01*
X148629880Y-92606465D01*
X148462676Y-92695837D01*
X148316118Y-92816116D01*
X148316116Y-92816118D01*
X148195837Y-92962676D01*
X148106465Y-93129880D01*
X148051427Y-93311314D01*
X148032843Y-93500000D01*
X148051427Y-93688685D01*
X148070813Y-93752592D01*
X148106463Y-93870115D01*
X148195838Y-94037324D01*
X148316117Y-94183883D01*
X148462676Y-94304162D01*
X148629885Y-94393537D01*
X148669815Y-94405649D01*
X148710308Y-94436023D01*
X148721803Y-94485320D01*
X148720913Y-94490899D01*
X148719103Y-94499998D01*
X148719103Y-94500000D01*
X148724500Y-94527132D01*
X148740485Y-94607495D01*
X148801377Y-94698625D01*
X148818314Y-94709942D01*
X148829529Y-94719145D01*
X160202826Y-106092442D01*
X160224218Y-106138318D01*
X160224500Y-106144768D01*
X160224500Y-108855232D01*
X160207187Y-108902798D01*
X160202826Y-108907558D01*
X159657558Y-109452826D01*
X159611682Y-109474218D01*
X159605232Y-109474500D01*
X157715713Y-109474500D01*
X157668147Y-109457187D01*
X157642837Y-109413350D01*
X157651627Y-109363500D01*
X157671364Y-109341261D01*
X157747081Y-109284581D01*
X157832102Y-109171006D01*
X157840733Y-109147867D01*
X157853228Y-109114366D01*
X157881682Y-109038078D01*
X157888000Y-108979311D01*
X157887999Y-108020690D01*
X157881682Y-107961922D01*
X157881206Y-107960645D01*
X157832103Y-107828995D01*
X157832102Y-107828994D01*
X157803103Y-107790256D01*
X157747081Y-107715419D01*
X157633506Y-107630398D01*
X157633505Y-107630397D01*
X157633504Y-107630396D01*
X157500582Y-107580819D01*
X157500576Y-107580817D01*
X157441812Y-107574500D01*
X156558188Y-107574500D01*
X156558187Y-107574501D01*
X156499419Y-107580818D01*
X156366495Y-107630396D01*
X156366494Y-107630397D01*
X156252919Y-107715419D01*
X156167897Y-107828994D01*
X156167896Y-107828995D01*
X156118319Y-107961917D01*
X156118317Y-107961923D01*
X156112000Y-108020687D01*
X156112000Y-108400500D01*
X156094687Y-108448066D01*
X156050850Y-108473376D01*
X156038000Y-108474500D01*
X155716329Y-108474500D01*
X155668763Y-108457187D01*
X155643453Y-108413350D01*
X155643751Y-108386064D01*
X155645092Y-108379320D01*
X155650500Y-108352133D01*
X155650499Y-108147868D01*
X155634515Y-108067505D01*
X155630257Y-108061133D01*
X155603233Y-108020689D01*
X155573624Y-107976376D01*
X155507493Y-107932188D01*
X155477562Y-107891367D01*
X155480873Y-107840856D01*
X155496277Y-107818337D01*
X156097113Y-107217501D01*
X156142988Y-107196110D01*
X156191883Y-107209211D01*
X156208675Y-107225478D01*
X156252919Y-107284581D01*
X156366494Y-107369602D01*
X156366495Y-107369603D01*
X156468088Y-107407495D01*
X156499422Y-107419182D01*
X156558189Y-107425500D01*
X157441810Y-107425499D01*
X157441811Y-107425499D01*
X157441811Y-107425498D01*
X157500578Y-107419182D01*
X157597218Y-107383137D01*
X157633504Y-107369603D01*
X157633504Y-107369602D01*
X157633506Y-107369602D01*
X157747081Y-107284581D01*
X157832102Y-107171006D01*
X157832317Y-107170431D01*
X157860706Y-107094316D01*
X157881682Y-107038078D01*
X157888000Y-106979311D01*
X157887999Y-106020690D01*
X157881682Y-105961922D01*
X157877240Y-105950013D01*
X157832103Y-105828995D01*
X157832102Y-105828994D01*
X157786288Y-105767794D01*
X157747081Y-105715419D01*
X157633506Y-105630398D01*
X157633505Y-105630397D01*
X157633504Y-105630396D01*
X157500582Y-105580819D01*
X157500576Y-105580817D01*
X157441812Y-105574500D01*
X156558188Y-105574500D01*
X156558187Y-105574501D01*
X156499419Y-105580818D01*
X156366495Y-105630396D01*
X156366494Y-105630397D01*
X156252919Y-105715419D01*
X156167897Y-105828994D01*
X156167896Y-105828995D01*
X156118319Y-105961917D01*
X156118317Y-105961923D01*
X156112000Y-106020687D01*
X156112000Y-106392731D01*
X156094687Y-106440297D01*
X156090326Y-106445057D01*
X154657556Y-107877826D01*
X154611679Y-107899218D01*
X154605230Y-107899500D01*
X153947869Y-107899500D01*
X153863936Y-107916195D01*
X153813906Y-107908494D01*
X153780531Y-107870436D01*
X153775500Y-107843617D01*
X153775500Y-104034420D01*
X153776922Y-104019983D01*
X153780897Y-104000000D01*
X153773322Y-103961917D01*
X153759515Y-103892505D01*
X153713994Y-103824378D01*
X153713993Y-103824377D01*
X153711974Y-103821355D01*
X153698624Y-103801376D01*
X153698623Y-103801375D01*
X153681683Y-103790056D01*
X153670470Y-103780854D01*
X145219145Y-95329529D01*
X145209942Y-95318314D01*
X145198626Y-95301378D01*
X145198624Y-95301376D01*
X145198623Y-95301375D01*
X145178644Y-95288025D01*
X145178641Y-95288023D01*
X145135975Y-95259515D01*
X145107495Y-95240485D01*
X145027133Y-95224500D01*
X145027132Y-95224500D01*
X145027130Y-95224499D01*
X145000001Y-95219103D01*
X145000000Y-95219103D01*
X144980017Y-95223078D01*
X144965580Y-95224500D01*
X138144768Y-95224500D01*
X138097202Y-95207187D01*
X138092442Y-95202826D01*
X133679622Y-90790006D01*
X141474518Y-90790006D01*
X141494421Y-91068291D01*
X141553728Y-91340918D01*
X141553733Y-91340937D01*
X141651228Y-91602333D01*
X141784942Y-91847211D01*
X141868544Y-91958890D01*
X141952145Y-92070568D01*
X142149432Y-92267855D01*
X142316948Y-92393255D01*
X142372788Y-92435057D01*
X142617666Y-92568771D01*
X142879062Y-92666266D01*
X142879067Y-92666267D01*
X142879077Y-92666271D01*
X143151706Y-92725578D01*
X143213549Y-92730001D01*
X143429993Y-92745482D01*
X143430000Y-92745482D01*
X143430007Y-92745482D01*
X143624805Y-92731549D01*
X143708294Y-92725578D01*
X143980923Y-92666271D01*
X143980934Y-92666266D01*
X143980937Y-92666266D01*
X144242333Y-92568771D01*
X144299602Y-92537500D01*
X144487213Y-92435056D01*
X144710568Y-92267855D01*
X144907855Y-92070568D01*
X145075056Y-91847213D01*
X145208769Y-91602337D01*
X145208769Y-91602335D01*
X145208771Y-91602333D01*
X145232527Y-91538640D01*
X145265370Y-91500123D01*
X145301861Y-91490500D01*
X154698139Y-91490500D01*
X154745705Y-91507813D01*
X154767473Y-91538640D01*
X154791228Y-91602333D01*
X154924942Y-91847211D01*
X155008544Y-91958890D01*
X155092145Y-92070568D01*
X155289432Y-92267855D01*
X155456948Y-92393255D01*
X155512788Y-92435057D01*
X155757666Y-92568771D01*
X156019062Y-92666266D01*
X156019067Y-92666267D01*
X156019077Y-92666271D01*
X156291706Y-92725578D01*
X156353549Y-92730001D01*
X156569993Y-92745482D01*
X156570000Y-92745482D01*
X156570007Y-92745482D01*
X156764805Y-92731549D01*
X156848294Y-92725578D01*
X157120923Y-92666271D01*
X157120934Y-92666266D01*
X157120937Y-92666266D01*
X157382333Y-92568771D01*
X157439602Y-92537500D01*
X157627213Y-92435056D01*
X157850568Y-92267855D01*
X158047855Y-92070568D01*
X158215056Y-91847213D01*
X158348769Y-91602337D01*
X158348769Y-91602335D01*
X158348771Y-91602333D01*
X158446266Y-91340937D01*
X158446266Y-91340934D01*
X158446271Y-91340923D01*
X158505578Y-91068294D01*
X158525482Y-90790000D01*
X158525482Y-90789993D01*
X158505578Y-90511708D01*
X158505578Y-90511706D01*
X158446271Y-90239077D01*
X158446267Y-90239067D01*
X158446266Y-90239062D01*
X158348771Y-89977666D01*
X158215057Y-89732788D01*
X158173255Y-89676948D01*
X158047855Y-89509432D01*
X157850568Y-89312145D01*
X157738890Y-89228544D01*
X157627211Y-89144942D01*
X157382333Y-89011228D01*
X157120937Y-88913733D01*
X157120925Y-88913730D01*
X157120923Y-88913729D01*
X157065971Y-88901775D01*
X156848291Y-88854421D01*
X156570007Y-88834518D01*
X156569993Y-88834518D01*
X156291708Y-88854421D01*
X156019081Y-88913728D01*
X156019062Y-88913733D01*
X155757666Y-89011228D01*
X155512788Y-89144942D01*
X155289429Y-89312147D01*
X155092147Y-89509429D01*
X154924942Y-89732788D01*
X154791228Y-89977666D01*
X154767473Y-90041360D01*
X154734630Y-90079877D01*
X154698139Y-90089500D01*
X145301861Y-90089500D01*
X145254295Y-90072187D01*
X145232527Y-90041360D01*
X145208771Y-89977666D01*
X145075057Y-89732788D01*
X145033255Y-89676948D01*
X144907855Y-89509432D01*
X144710568Y-89312145D01*
X144598890Y-89228544D01*
X144487211Y-89144942D01*
X144242333Y-89011228D01*
X143980937Y-88913733D01*
X143980925Y-88913730D01*
X143980923Y-88913729D01*
X143925971Y-88901775D01*
X143708291Y-88854421D01*
X143430007Y-88834518D01*
X143429993Y-88834518D01*
X143151708Y-88854421D01*
X142879081Y-88913728D01*
X142879062Y-88913733D01*
X142617666Y-89011228D01*
X142372788Y-89144942D01*
X142149429Y-89312147D01*
X141952147Y-89509429D01*
X141784942Y-89732788D01*
X141651228Y-89977666D01*
X141553733Y-90239062D01*
X141553728Y-90239081D01*
X141494421Y-90511708D01*
X141474518Y-90789993D01*
X141474518Y-90790006D01*
X133679622Y-90790006D01*
X127219145Y-84329529D01*
X127209942Y-84318314D01*
X127198626Y-84301378D01*
X127198624Y-84301376D01*
X127198623Y-84301375D01*
X127178644Y-84288026D01*
X127178639Y-84288021D01*
X127149465Y-84268528D01*
X127107495Y-84240485D01*
X127027133Y-84224500D01*
X127027132Y-84224500D01*
X127027130Y-84224499D01*
X127000001Y-84219103D01*
X127000000Y-84219103D01*
X126980017Y-84223078D01*
X126965580Y-84224500D01*
X123034416Y-84224500D01*
X123019980Y-84223078D01*
X123000001Y-84219104D01*
X122999997Y-84219104D01*
X122975306Y-84224015D01*
X122975300Y-84224016D01*
X122892504Y-84240485D01*
X122826305Y-84284718D01*
X122801376Y-84301375D01*
X122801374Y-84301377D01*
X122790053Y-84318319D01*
X122780853Y-84329529D01*
X122204529Y-84905853D01*
X122193319Y-84915053D01*
X122176377Y-84926374D01*
X122176372Y-84926379D01*
X122175883Y-84927112D01*
X122174972Y-84927779D01*
X122171223Y-84931529D01*
X122170645Y-84930951D01*
X122135059Y-84957039D01*
X122125032Y-84959219D01*
X122123606Y-84959426D01*
X122018517Y-85010801D01*
X121935801Y-85093517D01*
X121884427Y-85198605D01*
X121884427Y-85198606D01*
X121874500Y-85266735D01*
X121874500Y-86733264D01*
X121625499Y-86733264D01*
X121625500Y-86733260D01*
X121625500Y-85266740D01*
X121615573Y-85198607D01*
X121564198Y-85093517D01*
X121481483Y-85010802D01*
X121481482Y-85010801D01*
X121376394Y-84959427D01*
X121376062Y-84959378D01*
X121374967Y-84959219D01*
X121373954Y-84958673D01*
X121370903Y-84957731D01*
X121371088Y-84957131D01*
X121330396Y-84935228D01*
X121324110Y-84927104D01*
X121323623Y-84926375D01*
X121306683Y-84915056D01*
X121295470Y-84905854D01*
X120606645Y-84217029D01*
X120597442Y-84205814D01*
X120586126Y-84188878D01*
X120586124Y-84188876D01*
X120566144Y-84175525D01*
X120566141Y-84175523D01*
X120527194Y-84149500D01*
X120494995Y-84127985D01*
X120414633Y-84112000D01*
X120414632Y-84112000D01*
X120414630Y-84111999D01*
X120387501Y-84106603D01*
X120387500Y-84106603D01*
X120367517Y-84110578D01*
X120353080Y-84112000D01*
X118747404Y-84112000D01*
X118699838Y-84094687D01*
X118674528Y-84050850D01*
X118677557Y-84013559D01*
X118722644Y-83884704D01*
X118722643Y-83884704D01*
X118722646Y-83884699D01*
X118725500Y-83854266D01*
X127274500Y-83854266D01*
X127277354Y-83884699D01*
X127277354Y-83884701D01*
X127277355Y-83884704D01*
X127322206Y-84012881D01*
X127322207Y-84012883D01*
X127402846Y-84122146D01*
X127402853Y-84122153D01*
X127512116Y-84202792D01*
X127512118Y-84202793D01*
X127640295Y-84247644D01*
X127640301Y-84247646D01*
X127670734Y-84250500D01*
X127670741Y-84250500D01*
X128279258Y-84250500D01*
X128279266Y-84250500D01*
X128309699Y-84247646D01*
X128437882Y-84202793D01*
X128547150Y-84122150D01*
X128627793Y-84012882D01*
X128672646Y-83884699D01*
X128675500Y-83854266D01*
X128675500Y-83520000D01*
X191294564Y-83520000D01*
X191314289Y-83846102D01*
X191373180Y-84167458D01*
X191470370Y-84479354D01*
X191604456Y-84777281D01*
X191714567Y-84959426D01*
X191773470Y-85056863D01*
X191974952Y-85314036D01*
X192205964Y-85545048D01*
X192463137Y-85746530D01*
X192742721Y-85915545D01*
X193040639Y-86049627D01*
X193040644Y-86049628D01*
X193040645Y-86049629D01*
X193163783Y-86088000D01*
X193352547Y-86146821D01*
X193673896Y-86205710D01*
X194000000Y-86225436D01*
X194326104Y-86205710D01*
X194647453Y-86146821D01*
X194959361Y-86049627D01*
X195257279Y-85915545D01*
X195536863Y-85746530D01*
X195794036Y-85545048D01*
X196025048Y-85314036D01*
X196226530Y-85056863D01*
X196395545Y-84777279D01*
X196529627Y-84479361D01*
X196626821Y-84167453D01*
X196685710Y-83846104D01*
X196705436Y-83520000D01*
X196685710Y-83193896D01*
X196626821Y-82872547D01*
X196529627Y-82560639D01*
X196395545Y-82262721D01*
X196226530Y-81983137D01*
X196025048Y-81725964D01*
X195794036Y-81494952D01*
X195536863Y-81293470D01*
X195257279Y-81124455D01*
X194959361Y-80990373D01*
X194959359Y-80990372D01*
X194959354Y-80990370D01*
X194647458Y-80893180D01*
X194326102Y-80834289D01*
X194000000Y-80814564D01*
X193673897Y-80834289D01*
X193352541Y-80893180D01*
X193040645Y-80990370D01*
X192742718Y-81124456D01*
X192463136Y-81293470D01*
X192205963Y-81494952D01*
X191974952Y-81725963D01*
X191773470Y-81983136D01*
X191604456Y-82262718D01*
X191470370Y-82560645D01*
X191373180Y-82872541D01*
X191314289Y-83193897D01*
X191294564Y-83520000D01*
X128675500Y-83520000D01*
X128675500Y-81445734D01*
X128672646Y-81415301D01*
X128627793Y-81287118D01*
X128627792Y-81287116D01*
X128547153Y-81177853D01*
X128547146Y-81177846D01*
X128437883Y-81097207D01*
X128437881Y-81097206D01*
X128309704Y-81052355D01*
X128309705Y-81052355D01*
X128309700Y-81052354D01*
X128309699Y-81052354D01*
X128279266Y-81049500D01*
X127670734Y-81049500D01*
X127640301Y-81052354D01*
X127640299Y-81052354D01*
X127640295Y-81052355D01*
X127512118Y-81097206D01*
X127512116Y-81097207D01*
X127402853Y-81177846D01*
X127402846Y-81177853D01*
X127322207Y-81287116D01*
X127322206Y-81287118D01*
X127277355Y-81415295D01*
X127277354Y-81415299D01*
X127277354Y-81415301D01*
X127274500Y-81445734D01*
X127274500Y-83854266D01*
X118725500Y-83854266D01*
X118725500Y-81445734D01*
X118722646Y-81415301D01*
X118677793Y-81287118D01*
X118677792Y-81287116D01*
X118597153Y-81177853D01*
X118597146Y-81177846D01*
X118487883Y-81097207D01*
X118487881Y-81097206D01*
X118359704Y-81052355D01*
X118359705Y-81052355D01*
X118359700Y-81052354D01*
X118359699Y-81052354D01*
X118329266Y-81049500D01*
X117720734Y-81049500D01*
X117690301Y-81052354D01*
X117690299Y-81052354D01*
X117690295Y-81052355D01*
X117562118Y-81097206D01*
X117562116Y-81097207D01*
X117452853Y-81177846D01*
X117452846Y-81177853D01*
X117372207Y-81287116D01*
X117372206Y-81287118D01*
X117327355Y-81415295D01*
X117327354Y-81415299D01*
X117327354Y-81415301D01*
X117324500Y-81445734D01*
X117324500Y-83854266D01*
X117327354Y-83884699D01*
X117327354Y-83884701D01*
X117327355Y-83884704D01*
X117372443Y-84013559D01*
X117371812Y-84064174D01*
X117338794Y-84102542D01*
X117302596Y-84112000D01*
X113824500Y-84112000D01*
X113776934Y-84094687D01*
X113751624Y-84050850D01*
X113750500Y-84038000D01*
X113750500Y-83867753D01*
X113746194Y-83846104D01*
X113738867Y-83809269D01*
X113694552Y-83742948D01*
X113672343Y-83728108D01*
X113628232Y-83698633D01*
X113628233Y-83698633D01*
X113598989Y-83692816D01*
X113569748Y-83687000D01*
X112030252Y-83687000D01*
X112001010Y-83692816D01*
X111971767Y-83698633D01*
X111905449Y-83742947D01*
X111905447Y-83742949D01*
X111861133Y-83809267D01*
X111849500Y-83867753D01*
X111849500Y-83963000D01*
X111832187Y-84010566D01*
X111788350Y-84035876D01*
X111775500Y-84037000D01*
X109224500Y-84037000D01*
X109176934Y-84019687D01*
X109151624Y-83975850D01*
X109150500Y-83963000D01*
X109150500Y-83867753D01*
X109146194Y-83846104D01*
X109138867Y-83809269D01*
X109094552Y-83742948D01*
X109072343Y-83728108D01*
X109028232Y-83698633D01*
X109028233Y-83698633D01*
X108998989Y-83692816D01*
X108969748Y-83687000D01*
X107430252Y-83687000D01*
X107401010Y-83692816D01*
X107371767Y-83698633D01*
X107305449Y-83742947D01*
X107305447Y-83742949D01*
X107261133Y-83809267D01*
X107249500Y-83867753D01*
X107249500Y-84075500D01*
X107232187Y-84123066D01*
X107188350Y-84148376D01*
X107175500Y-84149500D01*
X106999499Y-84149500D01*
X106951933Y-84132187D01*
X106926623Y-84088350D01*
X106925499Y-84075500D01*
X106925499Y-84058188D01*
X106925498Y-84058187D01*
X106919182Y-83999422D01*
X106905597Y-83963000D01*
X106869603Y-83866495D01*
X106869602Y-83866494D01*
X106854337Y-83846102D01*
X106784581Y-83752919D01*
X106671006Y-83667898D01*
X106671005Y-83667897D01*
X106671004Y-83667896D01*
X106538082Y-83618319D01*
X106538076Y-83618317D01*
X106479312Y-83612000D01*
X105520688Y-83612000D01*
X105520687Y-83612001D01*
X105461919Y-83618318D01*
X105328995Y-83667896D01*
X105328994Y-83667897D01*
X105215419Y-83752919D01*
X105130397Y-83866494D01*
X105130396Y-83866495D01*
X105080819Y-83999417D01*
X105080817Y-83999423D01*
X105074500Y-84058187D01*
X105074500Y-84941811D01*
X100000500Y-84941811D01*
X100000500Y-80074500D01*
X100017813Y-80026934D01*
X100061650Y-80001624D01*
X100074500Y-80000500D01*
X199925500Y-80000500D01*
X199973066Y-80017813D01*
G37*
G04 #@! TD.AperFunction*
M02*
