M48
; DRILL file {KiCad 7.0.9} date Sun Sep  1 01:28:23 2024
; FORMAT={-:-/ absolute / metric / decimal}
; #@! TF.CreationDate,2024-09-01T01:28:23+09:00
; #@! TF.GenerationSoftware,Kicad,Pcbnew,7.0.9
; #@! TF.FileFunction,MixedPlating,1,2
FMAT,2
METRIC
; #@! TA.AperFunction,Plated,PTH,ViaDrill
T1C0.300
; #@! TA.AperFunction,Plated,PTH,ViaDrill
T2C0.400
; #@! TA.AperFunction,Plated,PTH,ComponentDrill
T3C0.600
; #@! TA.AperFunction,Plated,PTH,ComponentDrill
T4C0.800
; #@! TA.AperFunction,Plated,PTH,ComponentDrill
T5C0.920
; #@! TA.AperFunction,Plated,PTH,ComponentDrill
T6C1.000
; #@! TA.AperFunction,Plated,PTH,ComponentDrill
T7C2.200
; #@! TA.AperFunction,Plated,PTH,ComponentDrill
T8C2.300
; #@! TA.AperFunction,NonPlated,NPTH,ComponentDrill
T9C0.650
%
G90
G05
T1
X106.0Y-112.0
X106.0Y-114.0
X109.5Y-85.638
X111.562Y-107.5
X111.562Y-118.0
X116.0Y-107.5
X116.0Y-118.0
X126.125Y-86.0
X141.0Y-115.0
X143.0Y-104.5
X143.0Y-106.5
X144.78Y-120.0
X145.0Y-126.8
X146.7Y-126.1
X155.5Y-117.5
X157.0Y-106.5
X161.0Y-113.5
X161.0Y-114.5
X161.0Y-115.5
X164.0Y-109.0
X166.0Y-109.0
X167.0Y-106.5
X167.0Y-109.0
X168.907Y-120.0
X169.0Y-116.0
X169.0Y-118.0
X170.5Y-109.0
X171.5Y-106.5
X181.5Y-115.5
X182.5Y-111.5
X185.0Y-111.5
X185.5Y-105.0
X186.0Y-113.0
X190.5Y-118.5
X190.5Y-120.5
X190.5Y-122.5
X190.5Y-124.5
T2
X106.68Y-91.44
X106.68Y-96.52
X106.68Y-101.6
X106.68Y-121.92
X106.68Y-127.0
X106.68Y-132.08
X106.68Y-137.16
X106.68Y-142.24
X111.76Y-91.44
X111.76Y-96.52
X111.76Y-101.6
X111.76Y-121.92
X111.76Y-127.0
X111.76Y-132.08
X111.76Y-137.16
X111.76Y-142.24
X116.84Y-91.44
X116.84Y-96.52
X116.84Y-101.6
X116.84Y-121.92
X116.84Y-127.0
X116.84Y-132.08
X116.84Y-137.16
X116.84Y-142.24
X121.92Y-91.44
X121.92Y-96.52
X121.92Y-121.92
X121.92Y-127.0
X121.92Y-132.08
X121.92Y-137.16
X121.92Y-142.24
X127.0Y-121.92
X127.0Y-127.0
X127.0Y-132.08
X127.0Y-137.16
X127.0Y-142.24
X132.08Y-81.28
X132.08Y-86.36
X132.08Y-121.92
X132.08Y-127.0
X132.08Y-132.08
X132.08Y-137.16
X132.08Y-142.24
X134.0Y-98.5
X137.16Y-81.28
X137.16Y-86.36
X137.16Y-91.44
X137.16Y-121.92
X137.16Y-132.08
X137.16Y-137.16
X140.5Y-98.5
X142.24Y-81.28
X142.24Y-86.36
X142.24Y-121.92
X142.24Y-132.08
X147.32Y-81.28
X147.32Y-86.36
X147.32Y-137.16
X147.32Y-142.24
X152.4Y-81.28
X152.4Y-86.36
X152.4Y-142.24
X157.48Y-81.28
X157.48Y-86.36
X157.48Y-132.08
X157.48Y-137.16
X162.56Y-81.28
X162.56Y-86.36
X162.56Y-91.44
X162.56Y-96.52
X162.56Y-101.6
X162.56Y-132.08
X162.56Y-137.16
X162.56Y-142.24
X167.64Y-81.28
X167.64Y-86.36
X167.64Y-91.44
X167.64Y-96.52
X167.64Y-101.6
X167.64Y-132.08
X167.64Y-137.16
X167.64Y-142.24
X172.72Y-81.28
X172.72Y-86.36
X172.72Y-91.44
X172.72Y-101.6
X172.72Y-127.0
X172.72Y-132.08
X172.72Y-137.16
X172.72Y-142.24
X177.8Y-81.28
X177.8Y-86.36
X177.8Y-91.44
X177.8Y-101.6
X177.8Y-127.0
X177.8Y-132.08
X177.8Y-137.16
X177.8Y-142.24
X182.88Y-81.28
X182.88Y-86.36
X182.88Y-91.44
X182.88Y-96.52
X182.88Y-101.6
X182.88Y-127.0
X182.88Y-132.08
X182.88Y-137.16
X182.88Y-142.24
X187.96Y-81.28
X187.96Y-86.36
X187.96Y-91.44
X187.96Y-96.52
X187.96Y-101.6
X187.96Y-127.0
X187.96Y-132.08
X187.96Y-137.16
X187.96Y-142.24
X193.04Y-91.44
X193.04Y-96.52
X193.04Y-101.6
X193.04Y-116.84
X193.04Y-127.0
X193.04Y-132.08
X193.04Y-137.16
X193.04Y-142.24
X198.12Y-81.28
X198.12Y-86.36
X198.12Y-91.44
X198.12Y-96.52
X198.12Y-101.6
X198.12Y-106.68
X198.12Y-111.76
X198.12Y-116.84
X198.12Y-121.92
X198.12Y-127.0
X198.12Y-132.08
X198.12Y-137.16
X198.12Y-142.24
T3
X180.6Y-108.42
X186.3Y-108.42
T4
X136.0Y-108.0
X136.0Y-113.08
T5
X146.5Y-93.5
X149.0Y-93.5
X151.0Y-93.5
X153.5Y-93.5
T6
X135.89Y-128.905
X135.89Y-144.145
X138.43Y-128.905
X138.43Y-144.145
X140.97Y-128.905
X140.97Y-144.145
X143.51Y-128.905
X143.51Y-144.145
X146.05Y-128.905
X146.05Y-144.145
X148.59Y-128.905
X148.59Y-144.145
X151.13Y-128.905
X151.13Y-144.145
X153.67Y-128.905
X153.67Y-144.145
X156.21Y-128.905
X156.21Y-144.145
X158.75Y-128.905
X158.75Y-144.145
X161.29Y-128.905
X161.29Y-144.145
X163.83Y-128.905
X163.83Y-144.145
T7
X194.0Y-83.52
X194.5Y-108.92
T8
X143.43Y-90.79
X156.57Y-90.79
T9
X107.605Y-110.11
X107.605Y-115.89
T3
X104.325Y-108.68G85X103.525Y-108.68
G05
X104.325Y-117.32G85X103.525Y-117.32
G05
X108.675Y-108.68G85X107.575Y-108.68
G05
X108.675Y-117.32G85X107.575Y-117.32
G05
T0
M30
