G04 #@! TF.GenerationSoftware,KiCad,Pcbnew,7.0.9*
G04 #@! TF.CreationDate,2024-09-05T11:52:18+09:00*
G04 #@! TF.ProjectId,CAN_hab,43414e5f-6861-4622-9e6b-696361645f70,rev?*
G04 #@! TF.SameCoordinates,Original*
G04 #@! TF.FileFunction,Legend,Top*
G04 #@! TF.FilePolarity,Positive*
%FSLAX46Y46*%
G04 Gerber Fmt 4.6, Leading zero omitted, Abs format (unit mm)*
G04 Created by KiCad (PCBNEW 7.0.9) date 2024-09-05 11:52:18*
%MOMM*%
%LPD*%
G01*
G04 APERTURE LIST*
G04 Aperture macros list*
%AMRoundRect*
0 Rectangle with rounded corners*
0 $1 Rounding radius*
0 $2 $3 $4 $5 $6 $7 $8 $9 X,Y pos of 4 corners*
0 Add a 4 corners polygon primitive as box body*
4,1,4,$2,$3,$4,$5,$6,$7,$8,$9,$2,$3,0*
0 Add four circle primitives for the rounded corners*
1,1,$1+$1,$2,$3*
1,1,$1+$1,$4,$5*
1,1,$1+$1,$6,$7*
1,1,$1+$1,$8,$9*
0 Add four rect primitives between the rounded corners*
20,1,$1+$1,$2,$3,$4,$5,0*
20,1,$1+$1,$4,$5,$6,$7,0*
20,1,$1+$1,$6,$7,$8,$9,0*
20,1,$1+$1,$8,$9,$2,$3,0*%
G04 Aperture macros list end*
%ADD10C,0.153000*%
%ADD11C,0.150000*%
%ADD12C,0.120000*%
%ADD13RoundRect,0.237500X-0.387500X-0.237500X0.387500X-0.237500X0.387500X0.237500X-0.387500X0.237500X0*%
%ADD14R,3.800000X3.800000*%
%ADD15C,4.000000*%
%ADD16RoundRect,0.237500X0.400000X0.237500X-0.400000X0.237500X-0.400000X-0.237500X0.400000X-0.237500X0*%
%ADD17RoundRect,0.250000X-0.250000X-1.150000X0.250000X-1.150000X0.250000X1.150000X-0.250000X1.150000X0*%
%ADD18RoundRect,0.150000X-0.150000X-0.700000X0.150000X-0.700000X0.150000X0.700000X-0.150000X0.700000X0*%
%ADD19C,1.000000*%
%ADD20C,5.600000*%
%ADD21RoundRect,0.250000X0.250000X1.150000X-0.250000X1.150000X-0.250000X-1.150000X0.250000X-1.150000X0*%
%ADD22RoundRect,0.150000X0.150000X0.700000X-0.150000X0.700000X-0.150000X-0.700000X0.150000X-0.700000X0*%
%ADD23RoundRect,0.250000X-1.150000X0.250000X-1.150000X-0.250000X1.150000X-0.250000X1.150000X0.250000X0*%
%ADD24RoundRect,0.150000X-0.700000X0.150000X-0.700000X-0.150000X0.700000X-0.150000X0.700000X0.150000X0*%
%ADD25R,1.700000X1.700000*%
%ADD26O,1.700000X1.700000*%
%ADD27RoundRect,0.250000X0.725000X-0.600000X0.725000X0.600000X-0.725000X0.600000X-0.725000X-0.600000X0*%
%ADD28O,1.950000X1.700000*%
%ADD29C,1.600000*%
G04 APERTURE END LIST*
D10*
X148596428Y-94859424D02*
X148548809Y-94907044D01*
X148548809Y-94907044D02*
X148405952Y-94954663D01*
X148405952Y-94954663D02*
X148310714Y-94954663D01*
X148310714Y-94954663D02*
X148167857Y-94907044D01*
X148167857Y-94907044D02*
X148072619Y-94811805D01*
X148072619Y-94811805D02*
X148025000Y-94716567D01*
X148025000Y-94716567D02*
X147977381Y-94526091D01*
X147977381Y-94526091D02*
X147977381Y-94383234D01*
X147977381Y-94383234D02*
X148025000Y-94192758D01*
X148025000Y-94192758D02*
X148072619Y-94097520D01*
X148072619Y-94097520D02*
X148167857Y-94002282D01*
X148167857Y-94002282D02*
X148310714Y-93954663D01*
X148310714Y-93954663D02*
X148405952Y-93954663D01*
X148405952Y-93954663D02*
X148548809Y-94002282D01*
X148548809Y-94002282D02*
X148596428Y-94049901D01*
X148977381Y-94668948D02*
X149453571Y-94668948D01*
X148882143Y-94954663D02*
X149215476Y-93954663D01*
X149215476Y-93954663D02*
X149548809Y-94954663D01*
X149882143Y-94954663D02*
X149882143Y-93954663D01*
X149882143Y-93954663D02*
X150453571Y-94954663D01*
X150453571Y-94954663D02*
X150453571Y-93954663D01*
X150691667Y-95049901D02*
X151453571Y-95049901D01*
X152167857Y-94954663D02*
X151691667Y-94954663D01*
X151691667Y-94954663D02*
X151691667Y-93954663D01*
X143977380Y-94859424D02*
X143929761Y-94907044D01*
X143929761Y-94907044D02*
X143786904Y-94954663D01*
X143786904Y-94954663D02*
X143691666Y-94954663D01*
X143691666Y-94954663D02*
X143548809Y-94907044D01*
X143548809Y-94907044D02*
X143453571Y-94811805D01*
X143453571Y-94811805D02*
X143405952Y-94716567D01*
X143405952Y-94716567D02*
X143358333Y-94526091D01*
X143358333Y-94526091D02*
X143358333Y-94383234D01*
X143358333Y-94383234D02*
X143405952Y-94192758D01*
X143405952Y-94192758D02*
X143453571Y-94097520D01*
X143453571Y-94097520D02*
X143548809Y-94002282D01*
X143548809Y-94002282D02*
X143691666Y-93954663D01*
X143691666Y-93954663D02*
X143786904Y-93954663D01*
X143786904Y-93954663D02*
X143929761Y-94002282D01*
X143929761Y-94002282D02*
X143977380Y-94049901D01*
X144358333Y-94668948D02*
X144834523Y-94668948D01*
X144263095Y-94954663D02*
X144596428Y-93954663D01*
X144596428Y-93954663D02*
X144929761Y-94954663D01*
X145263095Y-94954663D02*
X145263095Y-93954663D01*
X145263095Y-93954663D02*
X145834523Y-94954663D01*
X145834523Y-94954663D02*
X145834523Y-93954663D01*
X146072619Y-95049901D02*
X146834523Y-95049901D01*
X147072619Y-94954663D02*
X147072619Y-93954663D01*
X147072619Y-94430853D02*
X147644047Y-94430853D01*
X147644047Y-94954663D02*
X147644047Y-93954663D01*
D11*
X167690476Y-112893819D02*
X167690476Y-113608104D01*
X167690476Y-113608104D02*
X167642857Y-113750961D01*
X167642857Y-113750961D02*
X167547619Y-113846200D01*
X167547619Y-113846200D02*
X167404762Y-113893819D01*
X167404762Y-113893819D02*
X167309524Y-113893819D01*
X168119048Y-112989057D02*
X168166667Y-112941438D01*
X168166667Y-112941438D02*
X168261905Y-112893819D01*
X168261905Y-112893819D02*
X168500000Y-112893819D01*
X168500000Y-112893819D02*
X168595238Y-112941438D01*
X168595238Y-112941438D02*
X168642857Y-112989057D01*
X168642857Y-112989057D02*
X168690476Y-113084295D01*
X168690476Y-113084295D02*
X168690476Y-113179533D01*
X168690476Y-113179533D02*
X168642857Y-113322390D01*
X168642857Y-113322390D02*
X168071429Y-113893819D01*
X168071429Y-113893819D02*
X168690476Y-113893819D01*
X169071429Y-112989057D02*
X169119048Y-112941438D01*
X169119048Y-112941438D02*
X169214286Y-112893819D01*
X169214286Y-112893819D02*
X169452381Y-112893819D01*
X169452381Y-112893819D02*
X169547619Y-112941438D01*
X169547619Y-112941438D02*
X169595238Y-112989057D01*
X169595238Y-112989057D02*
X169642857Y-113084295D01*
X169642857Y-113084295D02*
X169642857Y-113179533D01*
X169642857Y-113179533D02*
X169595238Y-113322390D01*
X169595238Y-113322390D02*
X169023810Y-113893819D01*
X169023810Y-113893819D02*
X169642857Y-113893819D01*
X171928571Y-105614700D02*
X173071429Y-105614700D01*
X162928571Y-105614700D02*
X164071429Y-105614700D01*
X163500000Y-106186128D02*
X163500000Y-105043271D01*
D10*
X139635833Y-99463663D02*
X139064405Y-99463663D01*
X139350119Y-99463663D02*
X139350119Y-98463663D01*
X139350119Y-98463663D02*
X139254881Y-98606520D01*
X139254881Y-98606520D02*
X139159643Y-98701758D01*
X139159643Y-98701758D02*
X139064405Y-98749377D01*
X140016786Y-98558901D02*
X140064405Y-98511282D01*
X140064405Y-98511282D02*
X140159643Y-98463663D01*
X140159643Y-98463663D02*
X140397738Y-98463663D01*
X140397738Y-98463663D02*
X140492976Y-98511282D01*
X140492976Y-98511282D02*
X140540595Y-98558901D01*
X140540595Y-98558901D02*
X140588214Y-98654139D01*
X140588214Y-98654139D02*
X140588214Y-98749377D01*
X140588214Y-98749377D02*
X140540595Y-98892234D01*
X140540595Y-98892234D02*
X139969167Y-99463663D01*
X139969167Y-99463663D02*
X140588214Y-99463663D01*
X141207262Y-98463663D02*
X141302500Y-98463663D01*
X141302500Y-98463663D02*
X141397738Y-98511282D01*
X141397738Y-98511282D02*
X141445357Y-98558901D01*
X141445357Y-98558901D02*
X141492976Y-98654139D01*
X141492976Y-98654139D02*
X141540595Y-98844615D01*
X141540595Y-98844615D02*
X141540595Y-99082710D01*
X141540595Y-99082710D02*
X141492976Y-99273186D01*
X141492976Y-99273186D02*
X141445357Y-99368424D01*
X141445357Y-99368424D02*
X141397738Y-99416044D01*
X141397738Y-99416044D02*
X141302500Y-99463663D01*
X141302500Y-99463663D02*
X141207262Y-99463663D01*
X141207262Y-99463663D02*
X141112024Y-99416044D01*
X141112024Y-99416044D02*
X141064405Y-99368424D01*
X141064405Y-99368424D02*
X141016786Y-99273186D01*
X141016786Y-99273186D02*
X140969167Y-99082710D01*
X140969167Y-99082710D02*
X140969167Y-98844615D01*
X140969167Y-98844615D02*
X141016786Y-98654139D01*
X141016786Y-98654139D02*
X141064405Y-98558901D01*
X141064405Y-98558901D02*
X141112024Y-98511282D01*
X141112024Y-98511282D02*
X141207262Y-98463663D01*
D11*
X154990476Y-112893819D02*
X154990476Y-113608104D01*
X154990476Y-113608104D02*
X154942857Y-113750961D01*
X154942857Y-113750961D02*
X154847619Y-113846200D01*
X154847619Y-113846200D02*
X154704762Y-113893819D01*
X154704762Y-113893819D02*
X154609524Y-113893819D01*
X155419048Y-112989057D02*
X155466667Y-112941438D01*
X155466667Y-112941438D02*
X155561905Y-112893819D01*
X155561905Y-112893819D02*
X155800000Y-112893819D01*
X155800000Y-112893819D02*
X155895238Y-112941438D01*
X155895238Y-112941438D02*
X155942857Y-112989057D01*
X155942857Y-112989057D02*
X155990476Y-113084295D01*
X155990476Y-113084295D02*
X155990476Y-113179533D01*
X155990476Y-113179533D02*
X155942857Y-113322390D01*
X155942857Y-113322390D02*
X155371429Y-113893819D01*
X155371429Y-113893819D02*
X155990476Y-113893819D01*
X156942857Y-113893819D02*
X156371429Y-113893819D01*
X156657143Y-113893819D02*
X156657143Y-112893819D01*
X156657143Y-112893819D02*
X156561905Y-113036676D01*
X156561905Y-113036676D02*
X156466667Y-113131914D01*
X156466667Y-113131914D02*
X156371429Y-113179533D01*
X159428571Y-105614700D02*
X160571429Y-105614700D01*
X150428571Y-105614700D02*
X151571429Y-105614700D01*
X151000000Y-106186128D02*
X151000000Y-105043271D01*
X169815476Y-88893819D02*
X169815476Y-89608104D01*
X169815476Y-89608104D02*
X169767857Y-89750961D01*
X169767857Y-89750961D02*
X169672619Y-89846200D01*
X169672619Y-89846200D02*
X169529762Y-89893819D01*
X169529762Y-89893819D02*
X169434524Y-89893819D01*
X170815476Y-89893819D02*
X170244048Y-89893819D01*
X170529762Y-89893819D02*
X170529762Y-88893819D01*
X170529762Y-88893819D02*
X170434524Y-89036676D01*
X170434524Y-89036676D02*
X170339286Y-89131914D01*
X170339286Y-89131914D02*
X170244048Y-89179533D01*
X171148810Y-88893819D02*
X171767857Y-88893819D01*
X171767857Y-88893819D02*
X171434524Y-89274771D01*
X171434524Y-89274771D02*
X171577381Y-89274771D01*
X171577381Y-89274771D02*
X171672619Y-89322390D01*
X171672619Y-89322390D02*
X171720238Y-89370009D01*
X171720238Y-89370009D02*
X171767857Y-89465247D01*
X171767857Y-89465247D02*
X171767857Y-89703342D01*
X171767857Y-89703342D02*
X171720238Y-89798580D01*
X171720238Y-89798580D02*
X171672619Y-89846200D01*
X171672619Y-89846200D02*
X171577381Y-89893819D01*
X171577381Y-89893819D02*
X171291667Y-89893819D01*
X171291667Y-89893819D02*
X171196429Y-89846200D01*
X171196429Y-89846200D02*
X171148810Y-89798580D01*
X139811666Y-88893819D02*
X139811666Y-89608104D01*
X139811666Y-89608104D02*
X139764047Y-89750961D01*
X139764047Y-89750961D02*
X139668809Y-89846200D01*
X139668809Y-89846200D02*
X139525952Y-89893819D01*
X139525952Y-89893819D02*
X139430714Y-89893819D01*
X140764047Y-88893819D02*
X140287857Y-88893819D01*
X140287857Y-88893819D02*
X140240238Y-89370009D01*
X140240238Y-89370009D02*
X140287857Y-89322390D01*
X140287857Y-89322390D02*
X140383095Y-89274771D01*
X140383095Y-89274771D02*
X140621190Y-89274771D01*
X140621190Y-89274771D02*
X140716428Y-89322390D01*
X140716428Y-89322390D02*
X140764047Y-89370009D01*
X140764047Y-89370009D02*
X140811666Y-89465247D01*
X140811666Y-89465247D02*
X140811666Y-89703342D01*
X140811666Y-89703342D02*
X140764047Y-89798580D01*
X140764047Y-89798580D02*
X140716428Y-89846200D01*
X140716428Y-89846200D02*
X140621190Y-89893819D01*
X140621190Y-89893819D02*
X140383095Y-89893819D01*
X140383095Y-89893819D02*
X140287857Y-89846200D01*
X140287857Y-89846200D02*
X140240238Y-89798580D01*
X146955476Y-101001819D02*
X146955476Y-101716104D01*
X146955476Y-101716104D02*
X146907857Y-101858961D01*
X146907857Y-101858961D02*
X146812619Y-101954200D01*
X146812619Y-101954200D02*
X146669762Y-102001819D01*
X146669762Y-102001819D02*
X146574524Y-102001819D01*
X147955476Y-102001819D02*
X147384048Y-102001819D01*
X147669762Y-102001819D02*
X147669762Y-101001819D01*
X147669762Y-101001819D02*
X147574524Y-101144676D01*
X147574524Y-101144676D02*
X147479286Y-101239914D01*
X147479286Y-101239914D02*
X147384048Y-101287533D01*
X148860238Y-101001819D02*
X148384048Y-101001819D01*
X148384048Y-101001819D02*
X148336429Y-101478009D01*
X148336429Y-101478009D02*
X148384048Y-101430390D01*
X148384048Y-101430390D02*
X148479286Y-101382771D01*
X148479286Y-101382771D02*
X148717381Y-101382771D01*
X148717381Y-101382771D02*
X148812619Y-101430390D01*
X148812619Y-101430390D02*
X148860238Y-101478009D01*
X148860238Y-101478009D02*
X148907857Y-101573247D01*
X148907857Y-101573247D02*
X148907857Y-101811342D01*
X148907857Y-101811342D02*
X148860238Y-101906580D01*
X148860238Y-101906580D02*
X148812619Y-101954200D01*
X148812619Y-101954200D02*
X148717381Y-102001819D01*
X148717381Y-102001819D02*
X148479286Y-102001819D01*
X148479286Y-102001819D02*
X148384048Y-101954200D01*
X148384048Y-101954200D02*
X148336429Y-101906580D01*
X163286819Y-100272333D02*
X164001104Y-100272333D01*
X164001104Y-100272333D02*
X164143961Y-100319952D01*
X164143961Y-100319952D02*
X164239200Y-100415190D01*
X164239200Y-100415190D02*
X164286819Y-100558047D01*
X164286819Y-100558047D02*
X164286819Y-100653285D01*
X163286819Y-99367571D02*
X163286819Y-99558047D01*
X163286819Y-99558047D02*
X163334438Y-99653285D01*
X163334438Y-99653285D02*
X163382057Y-99700904D01*
X163382057Y-99700904D02*
X163524914Y-99796142D01*
X163524914Y-99796142D02*
X163715390Y-99843761D01*
X163715390Y-99843761D02*
X164096342Y-99843761D01*
X164096342Y-99843761D02*
X164191580Y-99796142D01*
X164191580Y-99796142D02*
X164239200Y-99748523D01*
X164239200Y-99748523D02*
X164286819Y-99653285D01*
X164286819Y-99653285D02*
X164286819Y-99462809D01*
X164286819Y-99462809D02*
X164239200Y-99367571D01*
X164239200Y-99367571D02*
X164191580Y-99319952D01*
X164191580Y-99319952D02*
X164096342Y-99272333D01*
X164096342Y-99272333D02*
X163858247Y-99272333D01*
X163858247Y-99272333D02*
X163763009Y-99319952D01*
X163763009Y-99319952D02*
X163715390Y-99367571D01*
X163715390Y-99367571D02*
X163667771Y-99462809D01*
X163667771Y-99462809D02*
X163667771Y-99653285D01*
X163667771Y-99653285D02*
X163715390Y-99748523D01*
X163715390Y-99748523D02*
X163763009Y-99796142D01*
X163763009Y-99796142D02*
X163858247Y-99843761D01*
X162195476Y-88893819D02*
X162195476Y-89608104D01*
X162195476Y-89608104D02*
X162147857Y-89750961D01*
X162147857Y-89750961D02*
X162052619Y-89846200D01*
X162052619Y-89846200D02*
X161909762Y-89893819D01*
X161909762Y-89893819D02*
X161814524Y-89893819D01*
X163195476Y-89893819D02*
X162624048Y-89893819D01*
X162909762Y-89893819D02*
X162909762Y-88893819D01*
X162909762Y-88893819D02*
X162814524Y-89036676D01*
X162814524Y-89036676D02*
X162719286Y-89131914D01*
X162719286Y-89131914D02*
X162624048Y-89179533D01*
X164147857Y-89893819D02*
X163576429Y-89893819D01*
X163862143Y-89893819D02*
X163862143Y-88893819D01*
X163862143Y-88893819D02*
X163766905Y-89036676D01*
X163766905Y-89036676D02*
X163671667Y-89131914D01*
X163671667Y-89131914D02*
X163576429Y-89179533D01*
X170398819Y-100272333D02*
X171113104Y-100272333D01*
X171113104Y-100272333D02*
X171255961Y-100319952D01*
X171255961Y-100319952D02*
X171351200Y-100415190D01*
X171351200Y-100415190D02*
X171398819Y-100558047D01*
X171398819Y-100558047D02*
X171398819Y-100653285D01*
X170732152Y-99367571D02*
X171398819Y-99367571D01*
X170351200Y-99605666D02*
X171065485Y-99843761D01*
X171065485Y-99843761D02*
X171065485Y-99224714D01*
X142370476Y-112893819D02*
X142370476Y-113608104D01*
X142370476Y-113608104D02*
X142322857Y-113750961D01*
X142322857Y-113750961D02*
X142227619Y-113846200D01*
X142227619Y-113846200D02*
X142084762Y-113893819D01*
X142084762Y-113893819D02*
X141989524Y-113893819D01*
X142799048Y-112989057D02*
X142846667Y-112941438D01*
X142846667Y-112941438D02*
X142941905Y-112893819D01*
X142941905Y-112893819D02*
X143180000Y-112893819D01*
X143180000Y-112893819D02*
X143275238Y-112941438D01*
X143275238Y-112941438D02*
X143322857Y-112989057D01*
X143322857Y-112989057D02*
X143370476Y-113084295D01*
X143370476Y-113084295D02*
X143370476Y-113179533D01*
X143370476Y-113179533D02*
X143322857Y-113322390D01*
X143322857Y-113322390D02*
X142751429Y-113893819D01*
X142751429Y-113893819D02*
X143370476Y-113893819D01*
X143989524Y-112893819D02*
X144084762Y-112893819D01*
X144084762Y-112893819D02*
X144180000Y-112941438D01*
X144180000Y-112941438D02*
X144227619Y-112989057D01*
X144227619Y-112989057D02*
X144275238Y-113084295D01*
X144275238Y-113084295D02*
X144322857Y-113274771D01*
X144322857Y-113274771D02*
X144322857Y-113512866D01*
X144322857Y-113512866D02*
X144275238Y-113703342D01*
X144275238Y-113703342D02*
X144227619Y-113798580D01*
X144227619Y-113798580D02*
X144180000Y-113846200D01*
X144180000Y-113846200D02*
X144084762Y-113893819D01*
X144084762Y-113893819D02*
X143989524Y-113893819D01*
X143989524Y-113893819D02*
X143894286Y-113846200D01*
X143894286Y-113846200D02*
X143846667Y-113798580D01*
X143846667Y-113798580D02*
X143799048Y-113703342D01*
X143799048Y-113703342D02*
X143751429Y-113512866D01*
X143751429Y-113512866D02*
X143751429Y-113274771D01*
X143751429Y-113274771D02*
X143799048Y-113084295D01*
X143799048Y-113084295D02*
X143846667Y-112989057D01*
X143846667Y-112989057D02*
X143894286Y-112941438D01*
X143894286Y-112941438D02*
X143989524Y-112893819D01*
X137428571Y-105614700D02*
X138571429Y-105614700D01*
X138000000Y-106186128D02*
X138000000Y-105043271D01*
X146928571Y-105614700D02*
X148071429Y-105614700D01*
X134838819Y-100272333D02*
X135553104Y-100272333D01*
X135553104Y-100272333D02*
X135695961Y-100319952D01*
X135695961Y-100319952D02*
X135791200Y-100415190D01*
X135791200Y-100415190D02*
X135838819Y-100558047D01*
X135838819Y-100558047D02*
X135838819Y-100653285D01*
X134934057Y-99843761D02*
X134886438Y-99796142D01*
X134886438Y-99796142D02*
X134838819Y-99700904D01*
X134838819Y-99700904D02*
X134838819Y-99462809D01*
X134838819Y-99462809D02*
X134886438Y-99367571D01*
X134886438Y-99367571D02*
X134934057Y-99319952D01*
X134934057Y-99319952D02*
X135029295Y-99272333D01*
X135029295Y-99272333D02*
X135124533Y-99272333D01*
X135124533Y-99272333D02*
X135267390Y-99319952D01*
X135267390Y-99319952D02*
X135838819Y-99891380D01*
X135838819Y-99891380D02*
X135838819Y-99272333D01*
X156286819Y-100272333D02*
X157001104Y-100272333D01*
X157001104Y-100272333D02*
X157143961Y-100319952D01*
X157143961Y-100319952D02*
X157239200Y-100415190D01*
X157239200Y-100415190D02*
X157286819Y-100558047D01*
X157286819Y-100558047D02*
X157286819Y-100653285D01*
X156715390Y-99653285D02*
X156667771Y-99748523D01*
X156667771Y-99748523D02*
X156620152Y-99796142D01*
X156620152Y-99796142D02*
X156524914Y-99843761D01*
X156524914Y-99843761D02*
X156477295Y-99843761D01*
X156477295Y-99843761D02*
X156382057Y-99796142D01*
X156382057Y-99796142D02*
X156334438Y-99748523D01*
X156334438Y-99748523D02*
X156286819Y-99653285D01*
X156286819Y-99653285D02*
X156286819Y-99462809D01*
X156286819Y-99462809D02*
X156334438Y-99367571D01*
X156334438Y-99367571D02*
X156382057Y-99319952D01*
X156382057Y-99319952D02*
X156477295Y-99272333D01*
X156477295Y-99272333D02*
X156524914Y-99272333D01*
X156524914Y-99272333D02*
X156620152Y-99319952D01*
X156620152Y-99319952D02*
X156667771Y-99367571D01*
X156667771Y-99367571D02*
X156715390Y-99462809D01*
X156715390Y-99462809D02*
X156715390Y-99653285D01*
X156715390Y-99653285D02*
X156763009Y-99748523D01*
X156763009Y-99748523D02*
X156810628Y-99796142D01*
X156810628Y-99796142D02*
X156905866Y-99843761D01*
X156905866Y-99843761D02*
X157096342Y-99843761D01*
X157096342Y-99843761D02*
X157191580Y-99796142D01*
X157191580Y-99796142D02*
X157239200Y-99748523D01*
X157239200Y-99748523D02*
X157286819Y-99653285D01*
X157286819Y-99653285D02*
X157286819Y-99462809D01*
X157286819Y-99462809D02*
X157239200Y-99367571D01*
X157239200Y-99367571D02*
X157191580Y-99319952D01*
X157191580Y-99319952D02*
X157096342Y-99272333D01*
X157096342Y-99272333D02*
X156905866Y-99272333D01*
X156905866Y-99272333D02*
X156810628Y-99319952D01*
X156810628Y-99319952D02*
X156763009Y-99367571D01*
X156763009Y-99367571D02*
X156715390Y-99462809D01*
X155051666Y-88893819D02*
X155051666Y-89608104D01*
X155051666Y-89608104D02*
X155004047Y-89750961D01*
X155004047Y-89750961D02*
X154908809Y-89846200D01*
X154908809Y-89846200D02*
X154765952Y-89893819D01*
X154765952Y-89893819D02*
X154670714Y-89893819D01*
X155575476Y-89893819D02*
X155765952Y-89893819D01*
X155765952Y-89893819D02*
X155861190Y-89846200D01*
X155861190Y-89846200D02*
X155908809Y-89798580D01*
X155908809Y-89798580D02*
X156004047Y-89655723D01*
X156004047Y-89655723D02*
X156051666Y-89465247D01*
X156051666Y-89465247D02*
X156051666Y-89084295D01*
X156051666Y-89084295D02*
X156004047Y-88989057D01*
X156004047Y-88989057D02*
X155956428Y-88941438D01*
X155956428Y-88941438D02*
X155861190Y-88893819D01*
X155861190Y-88893819D02*
X155670714Y-88893819D01*
X155670714Y-88893819D02*
X155575476Y-88941438D01*
X155575476Y-88941438D02*
X155527857Y-88989057D01*
X155527857Y-88989057D02*
X155480238Y-89084295D01*
X155480238Y-89084295D02*
X155480238Y-89322390D01*
X155480238Y-89322390D02*
X155527857Y-89417628D01*
X155527857Y-89417628D02*
X155575476Y-89465247D01*
X155575476Y-89465247D02*
X155670714Y-89512866D01*
X155670714Y-89512866D02*
X155861190Y-89512866D01*
X155861190Y-89512866D02*
X155956428Y-89465247D01*
X155956428Y-89465247D02*
X156004047Y-89417628D01*
X156004047Y-89417628D02*
X156051666Y-89322390D01*
X147431666Y-88893819D02*
X147431666Y-89608104D01*
X147431666Y-89608104D02*
X147384047Y-89750961D01*
X147384047Y-89750961D02*
X147288809Y-89846200D01*
X147288809Y-89846200D02*
X147145952Y-89893819D01*
X147145952Y-89893819D02*
X147050714Y-89893819D01*
X147812619Y-88893819D02*
X148479285Y-88893819D01*
X148479285Y-88893819D02*
X148050714Y-89893819D01*
D12*
X148365000Y-96735000D02*
X150825000Y-96735000D01*
X148365000Y-95265000D02*
X148365000Y-96735000D01*
X150825000Y-95265000D02*
X148365000Y-95265000D01*
X146325000Y-95265000D02*
X143865000Y-95265000D01*
X143865000Y-95265000D02*
X143865000Y-96735000D01*
X143865000Y-96735000D02*
X146325000Y-96735000D01*
X173710000Y-110849000D02*
X173710000Y-108029000D01*
X173710000Y-110849000D02*
X172010000Y-112149000D01*
X173710000Y-108029000D02*
X172010000Y-106729000D01*
X172010000Y-112149000D02*
X163290000Y-112149000D01*
X172010000Y-106729000D02*
X163290000Y-106729000D01*
X163290000Y-112149000D02*
X163290000Y-106729000D01*
X140557224Y-100961500D02*
X140047776Y-100961500D01*
X140557224Y-99916500D02*
X140047776Y-99916500D01*
X150590000Y-112149000D02*
X150590000Y-106729000D01*
X159310000Y-106729000D02*
X150590000Y-106729000D01*
X159310000Y-112149000D02*
X150590000Y-112149000D01*
X161010000Y-108029000D02*
X159310000Y-106729000D01*
X161010000Y-110849000D02*
X159310000Y-112149000D01*
X161010000Y-110849000D02*
X161010000Y-108029000D01*
X173610000Y-92869000D02*
X171810000Y-92869000D01*
X173610000Y-91269000D02*
X173610000Y-92869000D01*
X169440000Y-92869000D02*
X169440000Y-93809000D01*
X168910000Y-88399000D02*
X172340000Y-88399000D01*
X167640000Y-92869000D02*
X169440000Y-92869000D01*
X167640000Y-91269000D02*
X167640000Y-92869000D01*
X143130000Y-92869000D02*
X141330000Y-92869000D01*
X143130000Y-91269000D02*
X143130000Y-92869000D01*
X138960000Y-92869000D02*
X138960000Y-93809000D01*
X138430000Y-88399000D02*
X141860000Y-88399000D01*
X137160000Y-92869000D02*
X138960000Y-92869000D01*
X137160000Y-91269000D02*
X137160000Y-92869000D01*
X144780000Y-98541000D02*
X146580000Y-98541000D01*
X144780000Y-100141000D02*
X144780000Y-98541000D01*
X148950000Y-98541000D02*
X148950000Y-97601000D01*
X149480000Y-103011000D02*
X146050000Y-103011000D01*
X150750000Y-98541000D02*
X148950000Y-98541000D01*
X150750000Y-100141000D02*
X150750000Y-98541000D01*
X160760000Y-104174000D02*
X160760000Y-102374000D01*
X162360000Y-104174000D02*
X160760000Y-104174000D01*
X160760000Y-97504000D02*
X159820000Y-97504000D01*
X165230000Y-96974000D02*
X165230000Y-102904000D01*
X160760000Y-95704000D02*
X160760000Y-97504000D01*
X162360000Y-95704000D02*
X160760000Y-95704000D01*
X165990000Y-92869000D02*
X164190000Y-92869000D01*
X165990000Y-91269000D02*
X165990000Y-92869000D01*
X161820000Y-92869000D02*
X161820000Y-93809000D01*
X161290000Y-88399000D02*
X164720000Y-88399000D01*
X160020000Y-92869000D02*
X161820000Y-92869000D01*
X160020000Y-91269000D02*
X160020000Y-92869000D01*
X167760000Y-104174000D02*
X167760000Y-102374000D01*
X169360000Y-104174000D02*
X167760000Y-104174000D01*
X167760000Y-97504000D02*
X166820000Y-97504000D01*
X172230000Y-96974000D02*
X172230000Y-102904000D01*
X167760000Y-95704000D02*
X167760000Y-97504000D01*
X169360000Y-95704000D02*
X167760000Y-95704000D01*
X137970000Y-112149000D02*
X137970000Y-106729000D01*
X146690000Y-106729000D02*
X137970000Y-106729000D01*
X146690000Y-112149000D02*
X137970000Y-112149000D01*
X148390000Y-108029000D02*
X146690000Y-106729000D01*
X148390000Y-110849000D02*
X146690000Y-112149000D01*
X148390000Y-110849000D02*
X148390000Y-108029000D01*
X140510000Y-104454000D02*
X143110000Y-104454000D01*
X140510000Y-104454000D02*
X140510000Y-101794000D01*
X143110000Y-104454000D02*
X143110000Y-101794000D01*
X137910000Y-103124000D02*
X137910000Y-101794000D01*
X137910000Y-101794000D02*
X139240000Y-101794000D01*
X140510000Y-101794000D02*
X143110000Y-101794000D01*
X130130000Y-106599000D02*
X131380000Y-106599000D01*
X130430000Y-106299000D02*
X137050000Y-106299000D01*
X133740000Y-106299000D02*
X133740000Y-105289000D01*
X137050000Y-106299000D02*
X137050000Y-93579000D01*
X130130000Y-105349000D02*
X130130000Y-106599000D01*
X132040000Y-105289000D02*
X136340000Y-105289000D01*
X136340000Y-105289000D02*
X136340000Y-94589000D01*
X130430000Y-102639000D02*
X130430000Y-106299000D01*
X131430000Y-102639000D02*
X130430000Y-102639000D01*
X130830000Y-100739000D02*
X131430000Y-100739000D01*
X131430000Y-100739000D02*
X131430000Y-102639000D01*
X130830000Y-99139000D02*
X130830000Y-100739000D01*
X131430000Y-99139000D02*
X130830000Y-99139000D01*
X130430000Y-97239000D02*
X131430000Y-97239000D01*
X131430000Y-97239000D02*
X131430000Y-99139000D01*
X132040000Y-94589000D02*
X132040000Y-105289000D01*
X136340000Y-94589000D02*
X132040000Y-94589000D01*
X130430000Y-93579000D02*
X130430000Y-97239000D01*
X133740000Y-93579000D02*
X133740000Y-94589000D01*
X137050000Y-93579000D02*
X130430000Y-93579000D01*
X140510000Y-95109000D02*
X137910000Y-95109000D01*
X140510000Y-95109000D02*
X140510000Y-97769000D01*
X137910000Y-95109000D02*
X137910000Y-97769000D01*
X143110000Y-96439000D02*
X143110000Y-97769000D01*
X143110000Y-97769000D02*
X141780000Y-97769000D01*
X140510000Y-97769000D02*
X137910000Y-97769000D01*
X153760000Y-104174000D02*
X153760000Y-102374000D01*
X155360000Y-104174000D02*
X153760000Y-104174000D01*
X153760000Y-97504000D02*
X152820000Y-97504000D01*
X158230000Y-96974000D02*
X158230000Y-102904000D01*
X153760000Y-95704000D02*
X153760000Y-97504000D01*
X155360000Y-95704000D02*
X153760000Y-95704000D01*
X158370000Y-92869000D02*
X156570000Y-92869000D01*
X158370000Y-91269000D02*
X158370000Y-92869000D01*
X154200000Y-92869000D02*
X154200000Y-93809000D01*
X153670000Y-88399000D02*
X157100000Y-88399000D01*
X152400000Y-92869000D02*
X154200000Y-92869000D01*
X152400000Y-91269000D02*
X152400000Y-92869000D01*
X150750000Y-92869000D02*
X148950000Y-92869000D01*
X150750000Y-91269000D02*
X150750000Y-92869000D01*
X146580000Y-92869000D02*
X146580000Y-93809000D01*
X146050000Y-88399000D02*
X149480000Y-88399000D01*
X144780000Y-92869000D02*
X146580000Y-92869000D01*
X144780000Y-91269000D02*
X144780000Y-92869000D01*
%LPC*%
D13*
X149050000Y-96000000D03*
X151000000Y-96000000D03*
X146500000Y-96000000D03*
X144550000Y-96000000D03*
D14*
X171000000Y-109439000D03*
D15*
X166000000Y-109439000D03*
D16*
X141365000Y-100439000D03*
X139240000Y-100439000D03*
D15*
X153300000Y-109439000D03*
D14*
X158300000Y-109439000D03*
D17*
X173100000Y-89609000D03*
X168150000Y-89609000D03*
D18*
X171250000Y-92959000D03*
X170000000Y-92959000D03*
D17*
X142620000Y-89609000D03*
X137670000Y-89609000D03*
D18*
X140770000Y-92959000D03*
X139520000Y-92959000D03*
D19*
X131090000Y-109589000D03*
X131734370Y-108033370D03*
X131734370Y-111144630D03*
X133290000Y-107389000D03*
D20*
X133290000Y-109589000D03*
D19*
X133290000Y-111789000D03*
X134845630Y-108033370D03*
X134845630Y-111144630D03*
X135490000Y-109589000D03*
D21*
X145290000Y-101801000D03*
X150240000Y-101801000D03*
D22*
X147140000Y-98451000D03*
X148390000Y-98451000D03*
D23*
X164020000Y-103664000D03*
X164020000Y-96214000D03*
D24*
X160670000Y-101814000D03*
X160670000Y-100564000D03*
X160670000Y-99314000D03*
X160670000Y-98064000D03*
D17*
X165480000Y-89609000D03*
X160530000Y-89609000D03*
D18*
X163630000Y-92959000D03*
X162380000Y-92959000D03*
D23*
X171020000Y-103664000D03*
X171020000Y-96214000D03*
D24*
X167670000Y-101814000D03*
X167670000Y-100564000D03*
X167670000Y-99314000D03*
X167670000Y-98064000D03*
D19*
X175390000Y-90289000D03*
X176034370Y-88733370D03*
X176034370Y-91844630D03*
X177590000Y-88089000D03*
D20*
X177590000Y-90289000D03*
D19*
X177590000Y-92489000D03*
X179145630Y-88733370D03*
X179145630Y-91844630D03*
X179790000Y-90289000D03*
D15*
X140680000Y-109439000D03*
D14*
X145680000Y-109439000D03*
D25*
X139240000Y-103124000D03*
D26*
X141780000Y-103124000D03*
D27*
X133740000Y-103689000D03*
D28*
X133740000Y-101189000D03*
X133740000Y-98689000D03*
X133740000Y-96189000D03*
D19*
X175390000Y-109589000D03*
X176034370Y-108033370D03*
X176034370Y-111144630D03*
X177590000Y-107389000D03*
D20*
X177590000Y-109589000D03*
D19*
X177590000Y-111789000D03*
X179145630Y-108033370D03*
X179145630Y-111144630D03*
X179790000Y-109589000D03*
X131120000Y-90289000D03*
X131764370Y-88733370D03*
X131764370Y-91844630D03*
X133320000Y-88089000D03*
D20*
X133320000Y-90289000D03*
D19*
X133320000Y-92489000D03*
X134875630Y-88733370D03*
X134875630Y-91844630D03*
X135520000Y-90289000D03*
D25*
X141780000Y-96439000D03*
D26*
X139240000Y-96439000D03*
D23*
X157020000Y-103664000D03*
X157020000Y-96214000D03*
D24*
X153670000Y-101814000D03*
X153670000Y-100564000D03*
X153670000Y-99314000D03*
X153670000Y-98064000D03*
D17*
X157860000Y-89609000D03*
X152910000Y-89609000D03*
D18*
X156010000Y-92959000D03*
X154760000Y-92959000D03*
D17*
X150240000Y-89609000D03*
X145290000Y-89609000D03*
D18*
X148390000Y-92959000D03*
X147140000Y-92959000D03*
D29*
X177548000Y-96011000D03*
X177548000Y-102511000D03*
%LPD*%
M02*
