M48
; DRILL file {KiCad 7.0.9} date Sat Jun 29 16:21:16 2024
; FORMAT={-:-/ absolute / metric / decimal}
; #@! TF.CreationDate,2024-06-29T16:21:16+09:00
; #@! TF.GenerationSoftware,Kicad,Pcbnew,7.0.9
; #@! TF.FileFunction,MixedPlating,1,2
FMAT,2
METRIC
; #@! TA.AperFunction,Plated,PTH,ViaDrill
T1C0.300
; #@! TA.AperFunction,Plated,PTH,ComponentDrill
T2C0.300
; #@! TA.AperFunction,Plated,PTH,ComponentDrill
T3C0.950
; #@! TA.AperFunction,Plated,PTH,ComponentDrill
T4C1.000
; #@! TA.AperFunction,Plated,PTH,ComponentDrill
T5C1.800
; #@! TA.AperFunction,Plated,PTH,ComponentDrill
T6C3.200
%
G90
G05
T1
X139.52Y-92.959
X147.14Y-92.959
X148.39Y-98.451
X153.67Y-100.564
X153.67Y-101.814
X154.76Y-92.959
X160.67Y-100.564
X160.67Y-101.814
X162.38Y-92.959
X167.67Y-100.564
X167.67Y-101.814
X170.0Y-92.959
T2
X131.09Y-109.589
X131.12Y-90.289
X131.734Y-108.033
X131.734Y-111.145
X131.764Y-88.733
X131.764Y-91.845
X133.29Y-107.389
X133.29Y-111.789
X133.32Y-88.089
X133.32Y-92.489
X134.846Y-108.033
X134.846Y-111.145
X134.876Y-88.733
X134.876Y-91.845
X135.49Y-109.589
X135.52Y-90.289
X175.39Y-90.289
X175.39Y-109.589
X176.034Y-88.733
X176.034Y-91.845
X176.034Y-108.033
X176.034Y-111.145
X177.59Y-88.089
X177.59Y-92.489
X177.59Y-107.389
X177.59Y-111.789
X179.146Y-88.733
X179.146Y-91.845
X179.146Y-108.033
X179.146Y-111.145
X179.79Y-90.289
X179.79Y-109.589
T3
X133.74Y-96.189
X133.74Y-98.689
X133.74Y-101.189
X133.74Y-103.689
T4
X139.24Y-96.439
X139.24Y-103.124
X141.78Y-96.439
X141.78Y-103.124
X177.548Y-96.011
X177.548Y-102.511
T5
X139.528Y-109.439
X144.528Y-109.439
X152.148Y-109.439
X157.148Y-109.439
X164.848Y-109.439
X169.848Y-109.439
T6
X133.29Y-109.589
X133.32Y-90.289
X177.59Y-90.289
X177.59Y-109.589
T0
M30
