G04 #@! TF.GenerationSoftware,KiCad,Pcbnew,7.0.9*
G04 #@! TF.CreationDate,2024-09-05T11:52:18+09:00*
G04 #@! TF.ProjectId,CAN_hab,43414e5f-6861-4622-9e6b-696361645f70,rev?*
G04 #@! TF.SameCoordinates,Original*
G04 #@! TF.FileFunction,Copper,L2,Bot*
G04 #@! TF.FilePolarity,Positive*
%FSLAX46Y46*%
G04 Gerber Fmt 4.6, Leading zero omitted, Abs format (unit mm)*
G04 Created by KiCad (PCBNEW 7.0.9) date 2024-09-05 11:52:18*
%MOMM*%
%LPD*%
G01*
G04 APERTURE LIST*
G04 Aperture macros list*
%AMRoundRect*
0 Rectangle with rounded corners*
0 $1 Rounding radius*
0 $2 $3 $4 $5 $6 $7 $8 $9 X,Y pos of 4 corners*
0 Add a 4 corners polygon primitive as box body*
4,1,4,$2,$3,$4,$5,$6,$7,$8,$9,$2,$3,0*
0 Add four circle primitives for the rounded corners*
1,1,$1+$1,$2,$3*
1,1,$1+$1,$4,$5*
1,1,$1+$1,$6,$7*
1,1,$1+$1,$8,$9*
0 Add four rect primitives between the rounded corners*
20,1,$1+$1,$2,$3,$4,$5,0*
20,1,$1+$1,$4,$5,$6,$7,0*
20,1,$1+$1,$6,$7,$8,$9,0*
20,1,$1+$1,$8,$9,$2,$3,0*%
G04 Aperture macros list end*
G04 #@! TA.AperFunction,SMDPad,CuDef*
%ADD10RoundRect,0.237500X-0.400000X-0.237500X0.400000X-0.237500X0.400000X0.237500X-0.400000X0.237500X0*%
G04 #@! TD*
G04 #@! TA.AperFunction,ComponentPad*
%ADD11R,3.800000X3.800000*%
G04 #@! TD*
G04 #@! TA.AperFunction,ComponentPad*
%ADD12C,4.000000*%
G04 #@! TD*
G04 #@! TA.AperFunction,ComponentPad*
%ADD13C,1.000000*%
G04 #@! TD*
G04 #@! TA.AperFunction,ComponentPad*
%ADD14C,5.600000*%
G04 #@! TD*
G04 #@! TA.AperFunction,ComponentPad*
%ADD15R,1.700000X1.700000*%
G04 #@! TD*
G04 #@! TA.AperFunction,ComponentPad*
%ADD16O,1.700000X1.700000*%
G04 #@! TD*
G04 #@! TA.AperFunction,ComponentPad*
%ADD17RoundRect,0.250000X0.725000X-0.600000X0.725000X0.600000X-0.725000X0.600000X-0.725000X-0.600000X0*%
G04 #@! TD*
G04 #@! TA.AperFunction,ComponentPad*
%ADD18O,1.950000X1.700000*%
G04 #@! TD*
G04 #@! TA.AperFunction,SMDPad,CuDef*
%ADD19RoundRect,0.225000X2.025000X-2.025000X2.025000X2.025000X-2.025000X2.025000X-2.025000X-2.025000X0*%
G04 #@! TD*
G04 #@! TA.AperFunction,ComponentPad*
%ADD20C,1.600000*%
G04 #@! TD*
G04 #@! TA.AperFunction,ViaPad*
%ADD21C,0.500000*%
G04 #@! TD*
G04 #@! TA.AperFunction,Conductor*
%ADD22C,0.500000*%
G04 #@! TD*
G04 APERTURE END LIST*
D10*
X148875000Y-96000000D03*
X151000000Y-96000000D03*
X146500000Y-96000000D03*
X144375000Y-96000000D03*
D11*
X171000000Y-109439000D03*
D12*
X166000000Y-109439000D03*
X153300000Y-109439000D03*
D11*
X158300000Y-109439000D03*
D13*
X131090000Y-109589000D03*
X131734370Y-108033370D03*
X131734370Y-111144630D03*
X133290000Y-107389000D03*
D14*
X133290000Y-109589000D03*
D13*
X133290000Y-111789000D03*
X134845630Y-108033370D03*
X134845630Y-111144630D03*
X135490000Y-109589000D03*
X175390000Y-90289000D03*
X176034370Y-88733370D03*
X176034370Y-91844630D03*
X177590000Y-88089000D03*
D14*
X177590000Y-90289000D03*
D13*
X177590000Y-92489000D03*
X179145630Y-88733370D03*
X179145630Y-91844630D03*
X179790000Y-90289000D03*
D12*
X140680000Y-109439000D03*
D11*
X145680000Y-109439000D03*
D15*
X139240000Y-103124000D03*
D16*
X141780000Y-103124000D03*
D17*
X133740000Y-103689000D03*
D18*
X133740000Y-101189000D03*
X133740000Y-98689000D03*
X133740000Y-96189000D03*
D13*
X175390000Y-109589000D03*
X176034370Y-108033370D03*
X176034370Y-111144630D03*
X177590000Y-107389000D03*
D14*
X177590000Y-109589000D03*
D13*
X177590000Y-111789000D03*
X179145630Y-108033370D03*
X179145630Y-111144630D03*
X179790000Y-109589000D03*
X131120000Y-90289000D03*
X131764370Y-88733370D03*
X131764370Y-91844630D03*
X133320000Y-88089000D03*
D14*
X133320000Y-90289000D03*
D13*
X133320000Y-92489000D03*
X134875630Y-88733370D03*
X134875630Y-91844630D03*
X135520000Y-90289000D03*
D15*
X141780000Y-96439000D03*
D16*
X139240000Y-96439000D03*
D10*
X141365000Y-98439000D03*
X139240000Y-98439000D03*
D19*
X177548000Y-96011000D03*
D20*
X177548000Y-96011000D03*
D19*
X177548000Y-102511000D03*
D20*
X177548000Y-102511000D03*
D21*
X147750000Y-96000000D03*
X143500000Y-97000000D03*
X145500000Y-97000000D03*
X151000000Y-96000000D03*
X146500000Y-96000000D03*
X153670000Y-101814000D03*
X170000000Y-92959000D03*
X147140000Y-92959000D03*
X160670000Y-101814000D03*
X148390000Y-98451000D03*
X139520000Y-92959000D03*
X162380000Y-92959000D03*
X154760000Y-92959000D03*
X167670000Y-101814000D03*
X167670000Y-100564000D03*
X160670000Y-100564000D03*
X153670000Y-100564000D03*
D22*
X148875000Y-95989000D02*
X150000000Y-94864000D01*
X148875000Y-96000000D02*
X148875000Y-95989000D01*
X150000000Y-94864000D02*
X149045000Y-94864000D01*
X156665000Y-94864000D02*
X150000000Y-94864000D01*
X145375000Y-97000000D02*
X144375000Y-96000000D01*
X145500000Y-97000000D02*
X145375000Y-97000000D01*
X164285000Y-94864000D02*
X156665000Y-94864000D01*
X150307000Y-98451000D02*
X153670000Y-101814000D01*
X139520000Y-92959000D02*
X141425000Y-94864000D01*
X170000000Y-92959000D02*
X168095000Y-94864000D01*
X170000000Y-99484000D02*
X170000000Y-92959000D01*
X148390000Y-98451000D02*
X150307000Y-98451000D01*
X167670000Y-101814000D02*
X170000000Y-99484000D01*
X147140000Y-92959000D02*
X149045000Y-94864000D01*
X141780000Y-103124000D02*
X146453000Y-98451000D01*
X139240000Y-98439000D02*
X135990000Y-98439000D01*
X168095000Y-94864000D02*
X164285000Y-94864000D01*
X135990000Y-98439000D02*
X133740000Y-96189000D01*
X162380000Y-92959000D02*
X164285000Y-94864000D01*
X154760000Y-92959000D02*
X156665000Y-94864000D01*
X167670000Y-101814000D02*
X160670000Y-101814000D01*
X146453000Y-98451000D02*
X148390000Y-98451000D01*
X160670000Y-101814000D02*
X153670000Y-101814000D01*
X149045000Y-94864000D02*
X141425000Y-94864000D01*
X141780000Y-96439000D02*
X141365000Y-96854000D01*
X141365000Y-96854000D02*
X141365000Y-98439000D01*
G04 #@! TA.AperFunction,Conductor*
G36*
X176313538Y-87456813D02*
G01*
X176338848Y-87500650D01*
X176330058Y-87550500D01*
X176299183Y-87579628D01*
X176092997Y-87683178D01*
X176087203Y-87686089D01*
X175795188Y-87878151D01*
X175527451Y-88102808D01*
X175527443Y-88102816D01*
X175287587Y-88357047D01*
X175078872Y-88637400D01*
X175078871Y-88637401D01*
X174904109Y-88940099D01*
X174904109Y-88940100D01*
X174765673Y-89261030D01*
X174765671Y-89261033D01*
X174665432Y-89595856D01*
X174604737Y-89940074D01*
X174584415Y-90289000D01*
X174604737Y-90637925D01*
X174665432Y-90982143D01*
X174765671Y-91316966D01*
X174765673Y-91316969D01*
X174765674Y-91316971D01*
X174904111Y-91637904D01*
X175078870Y-91940596D01*
X175287588Y-92220953D01*
X175513796Y-92460720D01*
X175533845Y-92507197D01*
X175519327Y-92555690D01*
X175477036Y-92583505D01*
X175459970Y-92585500D01*
X173925972Y-92585500D01*
X173903938Y-92586462D01*
X173880108Y-92588546D01*
X173880103Y-92588546D01*
X173880102Y-92588547D01*
X173804968Y-92600875D01*
X173804966Y-92600875D01*
X173804964Y-92600876D01*
X173804963Y-92600876D01*
X173671396Y-92654350D01*
X173658450Y-92661825D01*
X173627558Y-92679661D01*
X173627549Y-92679666D01*
X173627542Y-92679671D01*
X173627541Y-92679671D01*
X173574185Y-92715169D01*
X173574178Y-92715175D01*
X173473251Y-92817715D01*
X173473247Y-92817720D01*
X173405305Y-92944525D01*
X173405302Y-92944532D01*
X173387987Y-92992105D01*
X173377976Y-93022583D01*
X173357500Y-93164995D01*
X173357500Y-103560500D01*
X173340187Y-103608066D01*
X173296350Y-103633376D01*
X173283500Y-103634500D01*
X142821744Y-103634500D01*
X142774178Y-103617187D01*
X142748868Y-103573350D01*
X142755465Y-103531992D01*
X142753838Y-103531319D01*
X142755224Y-103527967D01*
X142755232Y-103527954D01*
X142815300Y-103329934D01*
X142835583Y-103124000D01*
X142815300Y-102918066D01*
X142783427Y-102812994D01*
X142786187Y-102762450D01*
X142801912Y-102739190D01*
X146617929Y-98923174D01*
X146663805Y-98901782D01*
X146670255Y-98901500D01*
X148322098Y-98901500D01*
X148325228Y-98901500D01*
X148454772Y-98901500D01*
X150089744Y-98901500D01*
X150137310Y-98918813D01*
X150142070Y-98923174D01*
X153332090Y-102113193D01*
X153334857Y-102116290D01*
X153360122Y-102147971D01*
X153361248Y-102149016D01*
X153367714Y-102154774D01*
X153367951Y-102154501D01*
X153371949Y-102157966D01*
X153371951Y-102157967D01*
X153413227Y-102184493D01*
X153415136Y-102185809D01*
X153457118Y-102216793D01*
X153457120Y-102216793D01*
X153457122Y-102216795D01*
X153462022Y-102219385D01*
X153461999Y-102219427D01*
X153467313Y-102222109D01*
X153467334Y-102222067D01*
X153472323Y-102224470D01*
X153472324Y-102224470D01*
X153472327Y-102224472D01*
X153472720Y-102224593D01*
X153477187Y-102226294D01*
X153480928Y-102228002D01*
X153480931Y-102228004D01*
X153520085Y-102239500D01*
X153531161Y-102242752D01*
X153532949Y-102243327D01*
X153550155Y-102249348D01*
X153585299Y-102261646D01*
X153590749Y-102262677D01*
X153590740Y-102262723D01*
X153596605Y-102263719D01*
X153596612Y-102263673D01*
X153602097Y-102264499D01*
X153602098Y-102264500D01*
X153605228Y-102264500D01*
X153661573Y-102264500D01*
X153721005Y-102266724D01*
X153721006Y-102266723D01*
X153721010Y-102266724D01*
X153721013Y-102266723D01*
X153726519Y-102266103D01*
X153726524Y-102266149D01*
X153739052Y-102264500D01*
X160602098Y-102264500D01*
X160605228Y-102264500D01*
X160734772Y-102264500D01*
X167605228Y-102264500D01*
X167642617Y-102264500D01*
X167646763Y-102264733D01*
X167687034Y-102269270D01*
X167687034Y-102269269D01*
X167687035Y-102269270D01*
X167705428Y-102265790D01*
X167719185Y-102264500D01*
X167734772Y-102264500D01*
X167765064Y-102255605D01*
X167769973Y-102254520D01*
X167777606Y-102253369D01*
X167804287Y-102249348D01*
X167804292Y-102249345D01*
X167809590Y-102247712D01*
X167809604Y-102247759D01*
X167815246Y-102245902D01*
X167815231Y-102245857D01*
X167820465Y-102244024D01*
X167820472Y-102244023D01*
X167833841Y-102236956D01*
X167847571Y-102231380D01*
X167859066Y-102228005D01*
X167859066Y-102228004D01*
X167859069Y-102228004D01*
X167888443Y-102209125D01*
X167892386Y-102206921D01*
X167926642Y-102190425D01*
X167926648Y-102190418D01*
X167931222Y-102187302D01*
X167931248Y-102187341D01*
X167936101Y-102183898D01*
X167936074Y-102183861D01*
X167940532Y-102180569D01*
X167940538Y-102180566D01*
X167948677Y-102172426D01*
X167960996Y-102162498D01*
X167968049Y-102157967D01*
X167993085Y-102129071D01*
X167995874Y-102126185D01*
X168026194Y-102098055D01*
X168026195Y-102098052D01*
X168029653Y-102093718D01*
X168029689Y-102093746D01*
X168037376Y-102083726D01*
X170299193Y-99821908D01*
X170302277Y-99819151D01*
X170333970Y-99793879D01*
X170367480Y-99744728D01*
X170402793Y-99696882D01*
X170402794Y-99696876D01*
X170405386Y-99691976D01*
X170405429Y-99691999D01*
X170408110Y-99686688D01*
X170408066Y-99686667D01*
X170410467Y-99681680D01*
X170410472Y-99681673D01*
X170428007Y-99624822D01*
X170447646Y-99568699D01*
X170448677Y-99563250D01*
X170448723Y-99563258D01*
X170449719Y-99557391D01*
X170449673Y-99557384D01*
X170450500Y-99551899D01*
X170450500Y-99492441D01*
X170452725Y-99432994D01*
X170452104Y-99427480D01*
X170452149Y-99427474D01*
X170450500Y-99414942D01*
X170450500Y-92996516D01*
X170451253Y-92985985D01*
X170455133Y-92959000D01*
X170452657Y-92941786D01*
X170451957Y-92928486D01*
X170452725Y-92907991D01*
X170452724Y-92907987D01*
X170442667Y-92870454D01*
X170441782Y-92866139D01*
X170436698Y-92830783D01*
X170436697Y-92830774D01*
X170436692Y-92830763D01*
X170436512Y-92830150D01*
X170435427Y-92825237D01*
X170435348Y-92824713D01*
X170435346Y-92824709D01*
X170435346Y-92824707D01*
X170427228Y-92807851D01*
X170422423Y-92794902D01*
X170417576Y-92776813D01*
X170417574Y-92776810D01*
X170417573Y-92776807D01*
X170408727Y-92762731D01*
X170398663Y-92746715D01*
X170396338Y-92742403D01*
X170382883Y-92712938D01*
X170380021Y-92708484D01*
X170380554Y-92708141D01*
X170379696Y-92706836D01*
X170379548Y-92706938D01*
X170376426Y-92702359D01*
X170363694Y-92688637D01*
X170355283Y-92677675D01*
X170345324Y-92661826D01*
X170322971Y-92642590D01*
X170315313Y-92634958D01*
X170298049Y-92615033D01*
X170298048Y-92615032D01*
X170298047Y-92615031D01*
X170294051Y-92611568D01*
X170294118Y-92611489D01*
X170285126Y-92603960D01*
X170284055Y-92602806D01*
X170284052Y-92602804D01*
X170284051Y-92602803D01*
X170267841Y-92593444D01*
X170256573Y-92585449D01*
X170254518Y-92583681D01*
X170242388Y-92573242D01*
X170230802Y-92568187D01*
X170218641Y-92562881D01*
X170208226Y-92557308D01*
X170206514Y-92556208D01*
X170189069Y-92544996D01*
X170189064Y-92544994D01*
X170187089Y-92544414D01*
X170170936Y-92537497D01*
X170166445Y-92534904D01*
X170166447Y-92534904D01*
X170148191Y-92530737D01*
X170135073Y-92526420D01*
X170117914Y-92518934D01*
X170097617Y-92516647D01*
X170095737Y-92516435D01*
X170083180Y-92513904D01*
X170064772Y-92508500D01*
X170064771Y-92508500D01*
X170059100Y-92508500D01*
X170042634Y-92506645D01*
X170034044Y-92504684D01*
X170015377Y-92506083D01*
X170001568Y-92505825D01*
X169982966Y-92503729D01*
X169967785Y-92506602D01*
X169964570Y-92507210D01*
X169950815Y-92508500D01*
X169935223Y-92508500D01*
X169926313Y-92511116D01*
X169911005Y-92513905D01*
X169898622Y-92514833D01*
X169881201Y-92521670D01*
X169867930Y-92525493D01*
X169849527Y-92528975D01*
X169836156Y-92536042D01*
X169822434Y-92541617D01*
X169810932Y-92544995D01*
X169810928Y-92544996D01*
X169800081Y-92551967D01*
X169787115Y-92558596D01*
X169772211Y-92564445D01*
X169772203Y-92564450D01*
X169757567Y-92576120D01*
X169746018Y-92583681D01*
X169729465Y-92592431D01*
X169729464Y-92592431D01*
X169721321Y-92600575D01*
X169709005Y-92610499D01*
X169701953Y-92615031D01*
X169701952Y-92615031D01*
X169691149Y-92627498D01*
X169681368Y-92636888D01*
X169666029Y-92649121D01*
X169666026Y-92649124D01*
X169655484Y-92664586D01*
X169646671Y-92675223D01*
X167930071Y-94391826D01*
X167884195Y-94413218D01*
X167877745Y-94413500D01*
X164502256Y-94413500D01*
X164454690Y-94396187D01*
X164449930Y-94391826D01*
X162710868Y-92652765D01*
X162709076Y-92650840D01*
X162678049Y-92615033D01*
X162675939Y-92613677D01*
X162636795Y-92588520D01*
X162634828Y-92587164D01*
X162592885Y-92556208D01*
X162592883Y-92556207D01*
X162587129Y-92554194D01*
X162571563Y-92546599D01*
X162569069Y-92544996D01*
X162569067Y-92544995D01*
X162569066Y-92544994D01*
X162520507Y-92530737D01*
X162518848Y-92530249D01*
X162517062Y-92529675D01*
X162464697Y-92511353D01*
X162462224Y-92511261D01*
X162449068Y-92509117D01*
X162444772Y-92508500D01*
X162388426Y-92508500D01*
X162328994Y-92506275D01*
X162323481Y-92506897D01*
X162323475Y-92506850D01*
X162320394Y-92507255D01*
X162320465Y-92507747D01*
X162315229Y-92508499D01*
X162261739Y-92524205D01*
X162258231Y-92525235D01*
X162197813Y-92541424D01*
X162197811Y-92541425D01*
X162197804Y-92541428D01*
X162197386Y-92541691D01*
X162193083Y-92544012D01*
X162190932Y-92544994D01*
X162138345Y-92578790D01*
X162082823Y-92613678D01*
X162039070Y-92664519D01*
X161996486Y-92713665D01*
X161994598Y-92716196D01*
X161994247Y-92716603D01*
X161994240Y-92716614D01*
X161968616Y-92775346D01*
X161943302Y-92830775D01*
X161941630Y-92836466D01*
X161940048Y-92840820D01*
X161939938Y-92841070D01*
X161939935Y-92841083D01*
X161933105Y-92901702D01*
X161924867Y-92959000D01*
X161924867Y-92964291D01*
X161924635Y-92964291D01*
X161924804Y-92975370D01*
X161924729Y-92976032D01*
X161935501Y-93032965D01*
X161943302Y-93087225D01*
X161943303Y-93087228D01*
X161943784Y-93088281D01*
X161949179Y-93105254D01*
X161949977Y-93109473D01*
X161975118Y-93157040D01*
X161976062Y-93158958D01*
X161997118Y-93205063D01*
X161997119Y-93205065D01*
X162000243Y-93208670D01*
X162009738Y-93222546D01*
X162013433Y-93229537D01*
X162049137Y-93265241D01*
X162050930Y-93267167D01*
X162066044Y-93284609D01*
X162081947Y-93302963D01*
X162081948Y-93302964D01*
X162081951Y-93302967D01*
X162089004Y-93307499D01*
X162101321Y-93317425D01*
X163071071Y-94287174D01*
X163092463Y-94333050D01*
X163079362Y-94381945D01*
X163037898Y-94410979D01*
X163018745Y-94413500D01*
X156882256Y-94413500D01*
X156834690Y-94396187D01*
X156829930Y-94391826D01*
X155090868Y-92652765D01*
X155089076Y-92650840D01*
X155058049Y-92615033D01*
X155055939Y-92613677D01*
X155016795Y-92588520D01*
X155014828Y-92587164D01*
X154972885Y-92556208D01*
X154972883Y-92556207D01*
X154967129Y-92554194D01*
X154951563Y-92546599D01*
X154949069Y-92544996D01*
X154949067Y-92544995D01*
X154949066Y-92544994D01*
X154900507Y-92530737D01*
X154898848Y-92530249D01*
X154897062Y-92529675D01*
X154844697Y-92511353D01*
X154842224Y-92511261D01*
X154829068Y-92509117D01*
X154824772Y-92508500D01*
X154768426Y-92508500D01*
X154708994Y-92506275D01*
X154703481Y-92506897D01*
X154703475Y-92506850D01*
X154700394Y-92507255D01*
X154700465Y-92507747D01*
X154695229Y-92508499D01*
X154641739Y-92524205D01*
X154638231Y-92525235D01*
X154577813Y-92541424D01*
X154577811Y-92541425D01*
X154577804Y-92541428D01*
X154577386Y-92541691D01*
X154573083Y-92544012D01*
X154570932Y-92544994D01*
X154518345Y-92578790D01*
X154462823Y-92613678D01*
X154419070Y-92664519D01*
X154376486Y-92713665D01*
X154374598Y-92716196D01*
X154374247Y-92716603D01*
X154374240Y-92716614D01*
X154348616Y-92775346D01*
X154323302Y-92830775D01*
X154321630Y-92836466D01*
X154320048Y-92840820D01*
X154319938Y-92841070D01*
X154319935Y-92841083D01*
X154313105Y-92901702D01*
X154304867Y-92959000D01*
X154304867Y-92964291D01*
X154304635Y-92964291D01*
X154304804Y-92975370D01*
X154304729Y-92976032D01*
X154315501Y-93032965D01*
X154323302Y-93087225D01*
X154323303Y-93087228D01*
X154323784Y-93088281D01*
X154329179Y-93105254D01*
X154329977Y-93109473D01*
X154355118Y-93157040D01*
X154356062Y-93158958D01*
X154377118Y-93205063D01*
X154377119Y-93205065D01*
X154380243Y-93208670D01*
X154389738Y-93222546D01*
X154393433Y-93229537D01*
X154429137Y-93265241D01*
X154430930Y-93267167D01*
X154446044Y-93284609D01*
X154461947Y-93302963D01*
X154461948Y-93302964D01*
X154461951Y-93302967D01*
X154469004Y-93307499D01*
X154481321Y-93317425D01*
X155451071Y-94287174D01*
X155472463Y-94333050D01*
X155459362Y-94381945D01*
X155417898Y-94410979D01*
X155398745Y-94413500D01*
X150027383Y-94413500D01*
X150023237Y-94413267D01*
X149982965Y-94408729D01*
X149964572Y-94412210D01*
X149950815Y-94413500D01*
X149262256Y-94413500D01*
X149214690Y-94396187D01*
X149209930Y-94391826D01*
X147470868Y-92652765D01*
X147469076Y-92650840D01*
X147438049Y-92615033D01*
X147435939Y-92613677D01*
X147396795Y-92588520D01*
X147394828Y-92587164D01*
X147352885Y-92556208D01*
X147352883Y-92556207D01*
X147347129Y-92554194D01*
X147331563Y-92546599D01*
X147329069Y-92544996D01*
X147329067Y-92544995D01*
X147329066Y-92544994D01*
X147280507Y-92530737D01*
X147278848Y-92530249D01*
X147277062Y-92529675D01*
X147224697Y-92511353D01*
X147222224Y-92511261D01*
X147209068Y-92509117D01*
X147204772Y-92508500D01*
X147148426Y-92508500D01*
X147088994Y-92506275D01*
X147083481Y-92506897D01*
X147083475Y-92506850D01*
X147080394Y-92507255D01*
X147080465Y-92507747D01*
X147075229Y-92508499D01*
X147021739Y-92524205D01*
X147018231Y-92525235D01*
X146957813Y-92541424D01*
X146957811Y-92541425D01*
X146957804Y-92541428D01*
X146957386Y-92541691D01*
X146953083Y-92544012D01*
X146950932Y-92544994D01*
X146898345Y-92578790D01*
X146842823Y-92613678D01*
X146799070Y-92664519D01*
X146756486Y-92713665D01*
X146754598Y-92716196D01*
X146754247Y-92716603D01*
X146754240Y-92716614D01*
X146728616Y-92775346D01*
X146703302Y-92830775D01*
X146701630Y-92836466D01*
X146700048Y-92840820D01*
X146699938Y-92841070D01*
X146699935Y-92841083D01*
X146693105Y-92901702D01*
X146684867Y-92959000D01*
X146684867Y-92964291D01*
X146684635Y-92964291D01*
X146684804Y-92975370D01*
X146684729Y-92976032D01*
X146695501Y-93032965D01*
X146703302Y-93087225D01*
X146703303Y-93087228D01*
X146703784Y-93088281D01*
X146709179Y-93105254D01*
X146709977Y-93109473D01*
X146735118Y-93157040D01*
X146736062Y-93158958D01*
X146757118Y-93205063D01*
X146757119Y-93205065D01*
X146760243Y-93208670D01*
X146769738Y-93222546D01*
X146773433Y-93229537D01*
X146809137Y-93265241D01*
X146810930Y-93267167D01*
X146826044Y-93284609D01*
X146841947Y-93302963D01*
X146841948Y-93302964D01*
X146841951Y-93302967D01*
X146849004Y-93307499D01*
X146861321Y-93317425D01*
X147831071Y-94287174D01*
X147852463Y-94333050D01*
X147839362Y-94381945D01*
X147797898Y-94410979D01*
X147778745Y-94413500D01*
X141642256Y-94413500D01*
X141594690Y-94396187D01*
X141589930Y-94391826D01*
X139850868Y-92652765D01*
X139849076Y-92650840D01*
X139818049Y-92615033D01*
X139815939Y-92613677D01*
X139776795Y-92588520D01*
X139774828Y-92587164D01*
X139732885Y-92556208D01*
X139732883Y-92556207D01*
X139727129Y-92554194D01*
X139711563Y-92546599D01*
X139709069Y-92544996D01*
X139709067Y-92544995D01*
X139709066Y-92544994D01*
X139660507Y-92530737D01*
X139658848Y-92530249D01*
X139657062Y-92529675D01*
X139604697Y-92511353D01*
X139602224Y-92511261D01*
X139589068Y-92509117D01*
X139584772Y-92508500D01*
X139528426Y-92508500D01*
X139468994Y-92506275D01*
X139463481Y-92506897D01*
X139463475Y-92506850D01*
X139460394Y-92507255D01*
X139460465Y-92507747D01*
X139455229Y-92508499D01*
X139401739Y-92524205D01*
X139398231Y-92525235D01*
X139337813Y-92541424D01*
X139337811Y-92541425D01*
X139337804Y-92541428D01*
X139337386Y-92541691D01*
X139333083Y-92544012D01*
X139330932Y-92544994D01*
X139278345Y-92578790D01*
X139222823Y-92613678D01*
X139179070Y-92664519D01*
X139136486Y-92713665D01*
X139134598Y-92716196D01*
X139134247Y-92716603D01*
X139134240Y-92716614D01*
X139108616Y-92775346D01*
X139083302Y-92830775D01*
X139081630Y-92836466D01*
X139080048Y-92840820D01*
X139079938Y-92841070D01*
X139079935Y-92841083D01*
X139073105Y-92901702D01*
X139064867Y-92959000D01*
X139064867Y-92964291D01*
X139064635Y-92964291D01*
X139064804Y-92975370D01*
X139064729Y-92976032D01*
X139075501Y-93032965D01*
X139083302Y-93087225D01*
X139083303Y-93087228D01*
X139083784Y-93088281D01*
X139089179Y-93105254D01*
X139089977Y-93109473D01*
X139115118Y-93157040D01*
X139116062Y-93158958D01*
X139137118Y-93205063D01*
X139137119Y-93205065D01*
X139140243Y-93208670D01*
X139149738Y-93222546D01*
X139153433Y-93229537D01*
X139189137Y-93265241D01*
X139190930Y-93267167D01*
X139206044Y-93284609D01*
X139221947Y-93302963D01*
X139221948Y-93302964D01*
X139221951Y-93302967D01*
X139229004Y-93307499D01*
X139241321Y-93317425D01*
X141087090Y-95163193D01*
X141089857Y-95166290D01*
X141115122Y-95197971D01*
X141164271Y-95231480D01*
X141196085Y-95254960D01*
X141224076Y-95297136D01*
X141218408Y-95347437D01*
X141181733Y-95382326D01*
X141152142Y-95388500D01*
X140910252Y-95388500D01*
X140881010Y-95394316D01*
X140851767Y-95400133D01*
X140785449Y-95444447D01*
X140785447Y-95444449D01*
X140741133Y-95510767D01*
X140741133Y-95510769D01*
X140729500Y-95569252D01*
X140729500Y-97308748D01*
X140737255Y-97347736D01*
X140741133Y-97367232D01*
X140768446Y-97408107D01*
X140785448Y-97433552D01*
X140806541Y-97447646D01*
X140851766Y-97477866D01*
X140851768Y-97477866D01*
X140851769Y-97477867D01*
X140854931Y-97478496D01*
X140858469Y-97480642D01*
X140858500Y-97480655D01*
X140858498Y-97480659D01*
X140898207Y-97504750D01*
X140914500Y-97551074D01*
X140914500Y-97702624D01*
X140897187Y-97750190D01*
X140864941Y-97772471D01*
X140758026Y-97809882D01*
X140651790Y-97888288D01*
X140651788Y-97888290D01*
X140573382Y-97994526D01*
X140529776Y-98119145D01*
X140529775Y-98119149D01*
X140529775Y-98119151D01*
X140527000Y-98148744D01*
X140527000Y-98729256D01*
X140529775Y-98758849D01*
X140529775Y-98758851D01*
X140529776Y-98758854D01*
X140573382Y-98883473D01*
X140586687Y-98901500D01*
X140651789Y-98989711D01*
X140730195Y-99047576D01*
X140758026Y-99068117D01*
X140882645Y-99111723D01*
X140882651Y-99111725D01*
X140912244Y-99114500D01*
X140912251Y-99114500D01*
X141817749Y-99114500D01*
X141817756Y-99114500D01*
X141847349Y-99111725D01*
X141904032Y-99091890D01*
X141971973Y-99068117D01*
X141971973Y-99068116D01*
X141971975Y-99068116D01*
X142078211Y-98989711D01*
X142156616Y-98883475D01*
X142162379Y-98867007D01*
X142200223Y-98758854D01*
X142200222Y-98758854D01*
X142200225Y-98758849D01*
X142203000Y-98729256D01*
X142203000Y-98148744D01*
X142200225Y-98119151D01*
X142199482Y-98117028D01*
X142156617Y-97994526D01*
X142129986Y-97958442D01*
X142078211Y-97888289D01*
X142027635Y-97850962D01*
X141971973Y-97809882D01*
X141865059Y-97772471D01*
X141825880Y-97740420D01*
X141815500Y-97702624D01*
X141815500Y-97563500D01*
X141832813Y-97515934D01*
X141876650Y-97490624D01*
X141889500Y-97489500D01*
X142649746Y-97489500D01*
X142649748Y-97489500D01*
X142708231Y-97477867D01*
X142774552Y-97433552D01*
X142818867Y-97367231D01*
X142830500Y-97308748D01*
X142830500Y-95569252D01*
X142818867Y-95510769D01*
X142774552Y-95444448D01*
X142774548Y-95444445D01*
X142770929Y-95440826D01*
X142749537Y-95394950D01*
X142762638Y-95346055D01*
X142804102Y-95317021D01*
X142823255Y-95314500D01*
X143619539Y-95314500D01*
X143667105Y-95331813D01*
X143692415Y-95375650D01*
X143683625Y-95425500D01*
X143663486Y-95448036D01*
X143661789Y-95449289D01*
X143661788Y-95449290D01*
X143583382Y-95555526D01*
X143539776Y-95680145D01*
X143539775Y-95680149D01*
X143539775Y-95680151D01*
X143537000Y-95709744D01*
X143537000Y-96290256D01*
X143539775Y-96319849D01*
X143539775Y-96319851D01*
X143539776Y-96319854D01*
X143583382Y-96444473D01*
X143624462Y-96500135D01*
X143661789Y-96550711D01*
X143723035Y-96595912D01*
X143768026Y-96629117D01*
X143892645Y-96672723D01*
X143892651Y-96672725D01*
X143922244Y-96675500D01*
X144382744Y-96675500D01*
X144430310Y-96692813D01*
X144435070Y-96697174D01*
X145037090Y-97299193D01*
X145039855Y-97302288D01*
X145045005Y-97308746D01*
X145065122Y-97333971D01*
X145114271Y-97367480D01*
X145162118Y-97402793D01*
X145167022Y-97405385D01*
X145166999Y-97405427D01*
X145172310Y-97408107D01*
X145172330Y-97408066D01*
X145177322Y-97410470D01*
X145177325Y-97410471D01*
X145177327Y-97410472D01*
X145222804Y-97424499D01*
X145234177Y-97428007D01*
X145290300Y-97447646D01*
X145295750Y-97448677D01*
X145295741Y-97448723D01*
X145301605Y-97449719D01*
X145301612Y-97449673D01*
X145307097Y-97450499D01*
X145307098Y-97450500D01*
X145366559Y-97450500D01*
X145426005Y-97452725D01*
X145426006Y-97452724D01*
X145426010Y-97452725D01*
X145426013Y-97452724D01*
X145431520Y-97452104D01*
X145431525Y-97452149D01*
X145444057Y-97450500D01*
X145564772Y-97450500D01*
X145595064Y-97441605D01*
X145599973Y-97440520D01*
X145613270Y-97438515D01*
X145634287Y-97435348D01*
X145656823Y-97424494D01*
X145668066Y-97420170D01*
X145689069Y-97414004D01*
X145718443Y-97395125D01*
X145722386Y-97392921D01*
X145756642Y-97376425D01*
X145772338Y-97361861D01*
X145782654Y-97353860D01*
X145798049Y-97343967D01*
X145823085Y-97315071D01*
X145825874Y-97312185D01*
X145856194Y-97284055D01*
X145865105Y-97268619D01*
X145873260Y-97257166D01*
X145882882Y-97246063D01*
X145900156Y-97208236D01*
X145901738Y-97205167D01*
X145924096Y-97166445D01*
X145927259Y-97152581D01*
X145932086Y-97138319D01*
X145936697Y-97128226D01*
X145943083Y-97083799D01*
X145943631Y-97080850D01*
X145954315Y-97034046D01*
X145953522Y-97023465D01*
X145954068Y-97007404D01*
X145955133Y-97000000D01*
X145948271Y-96952274D01*
X145948001Y-96949805D01*
X145944166Y-96898622D01*
X145941609Y-96892109D01*
X145937247Y-96875600D01*
X145936697Y-96871774D01*
X145915298Y-96824917D01*
X145914512Y-96823064D01*
X145895825Y-96775450D01*
X145894552Y-96772206D01*
X145894550Y-96772204D01*
X145891779Y-96767403D01*
X145893946Y-96766151D01*
X145880894Y-96727325D01*
X145899379Y-96680202D01*
X145943829Y-96655985D01*
X145979312Y-96659310D01*
X146009060Y-96669719D01*
X146017651Y-96672725D01*
X146047244Y-96675500D01*
X146047251Y-96675500D01*
X146952749Y-96675500D01*
X146952756Y-96675500D01*
X146982349Y-96672725D01*
X147039032Y-96652890D01*
X147106973Y-96629117D01*
X147106973Y-96629116D01*
X147106975Y-96629116D01*
X147213211Y-96550711D01*
X147291616Y-96444475D01*
X147335225Y-96319849D01*
X147338000Y-96290256D01*
X147338000Y-95709744D01*
X147335225Y-95680151D01*
X147296420Y-95569253D01*
X147291617Y-95555526D01*
X147258583Y-95510767D01*
X147213211Y-95449289D01*
X147211515Y-95448037D01*
X147210640Y-95446719D01*
X147209289Y-95445368D01*
X147209562Y-95445094D01*
X147183527Y-95405864D01*
X147189195Y-95355563D01*
X147225870Y-95320674D01*
X147255461Y-95314500D01*
X148119539Y-95314500D01*
X148167105Y-95331813D01*
X148192415Y-95375650D01*
X148183625Y-95425500D01*
X148163486Y-95448036D01*
X148161789Y-95449289D01*
X148161788Y-95449290D01*
X148083382Y-95555526D01*
X148039776Y-95680145D01*
X148039775Y-95680149D01*
X148039775Y-95680151D01*
X148037000Y-95709744D01*
X148037000Y-96290256D01*
X148039775Y-96319849D01*
X148039775Y-96319851D01*
X148039776Y-96319854D01*
X148083382Y-96444473D01*
X148124462Y-96500135D01*
X148161789Y-96550711D01*
X148223035Y-96595912D01*
X148268026Y-96629117D01*
X148392645Y-96672723D01*
X148392651Y-96672725D01*
X148422244Y-96675500D01*
X148422251Y-96675500D01*
X149327749Y-96675500D01*
X149327756Y-96675500D01*
X149357349Y-96672725D01*
X149414032Y-96652890D01*
X149481973Y-96629117D01*
X149481973Y-96629116D01*
X149481975Y-96629116D01*
X149588211Y-96550711D01*
X149666616Y-96444475D01*
X149710225Y-96319849D01*
X149713000Y-96290256D01*
X149713000Y-95818755D01*
X149730313Y-95771189D01*
X149734674Y-95766429D01*
X150164929Y-95336174D01*
X150210805Y-95314782D01*
X150217255Y-95314500D01*
X150244539Y-95314500D01*
X150292105Y-95331813D01*
X150317415Y-95375650D01*
X150308625Y-95425500D01*
X150288486Y-95448036D01*
X150286789Y-95449289D01*
X150286788Y-95449290D01*
X150208382Y-95555526D01*
X150164776Y-95680145D01*
X150164775Y-95680149D01*
X150164775Y-95680151D01*
X150162000Y-95709744D01*
X150162000Y-96290256D01*
X150164775Y-96319849D01*
X150164775Y-96319851D01*
X150164776Y-96319854D01*
X150208382Y-96444473D01*
X150249462Y-96500135D01*
X150286789Y-96550711D01*
X150348035Y-96595912D01*
X150393026Y-96629117D01*
X150517645Y-96672723D01*
X150517651Y-96672725D01*
X150547244Y-96675500D01*
X150547251Y-96675500D01*
X151452749Y-96675500D01*
X151452756Y-96675500D01*
X151482349Y-96672725D01*
X151539032Y-96652890D01*
X151606973Y-96629117D01*
X151606973Y-96629116D01*
X151606975Y-96629116D01*
X151713211Y-96550711D01*
X151791616Y-96444475D01*
X151835225Y-96319849D01*
X151838000Y-96290256D01*
X151838000Y-95709744D01*
X151835225Y-95680151D01*
X151796420Y-95569253D01*
X151791617Y-95555526D01*
X151758583Y-95510767D01*
X151713211Y-95449289D01*
X151711515Y-95448037D01*
X151710640Y-95446719D01*
X151709289Y-95445368D01*
X151709562Y-95445094D01*
X151683527Y-95405864D01*
X151689195Y-95355563D01*
X151725870Y-95320674D01*
X151755461Y-95314500D01*
X156597098Y-95314500D01*
X156656559Y-95314500D01*
X156716005Y-95316725D01*
X156716006Y-95316724D01*
X156716010Y-95316725D01*
X156716013Y-95316724D01*
X156721520Y-95316104D01*
X156721525Y-95316149D01*
X156734057Y-95314500D01*
X164217098Y-95314500D01*
X164276559Y-95314500D01*
X164336005Y-95316725D01*
X164336006Y-95316724D01*
X164336010Y-95316725D01*
X164336013Y-95316724D01*
X164341520Y-95316104D01*
X164341525Y-95316149D01*
X164354057Y-95314500D01*
X168067617Y-95314500D01*
X168071763Y-95314733D01*
X168086538Y-95316397D01*
X168112035Y-95319270D01*
X168170479Y-95308211D01*
X168229287Y-95299348D01*
X168229292Y-95299345D01*
X168234590Y-95297712D01*
X168234604Y-95297759D01*
X168240252Y-95295900D01*
X168240237Y-95295855D01*
X168245467Y-95294025D01*
X168245470Y-95294023D01*
X168245472Y-95294023D01*
X168298072Y-95266222D01*
X168351642Y-95240425D01*
X168351646Y-95240421D01*
X168356222Y-95237302D01*
X168356248Y-95237341D01*
X168361102Y-95233897D01*
X168361075Y-95233860D01*
X168365535Y-95230567D01*
X168365538Y-95230566D01*
X168407599Y-95188504D01*
X168451194Y-95148055D01*
X168451195Y-95148052D01*
X168451197Y-95148051D01*
X168454653Y-95143718D01*
X168454689Y-95143746D01*
X168462376Y-95133726D01*
X169423174Y-94172929D01*
X169469051Y-94151537D01*
X169517945Y-94164638D01*
X169546979Y-94206102D01*
X169549500Y-94225255D01*
X169549500Y-99266745D01*
X169532187Y-99314311D01*
X169527826Y-99319071D01*
X167505071Y-101341826D01*
X167459195Y-101363218D01*
X167452745Y-101363500D01*
X153887255Y-101363500D01*
X153839689Y-101346187D01*
X153834929Y-101341826D01*
X150644912Y-98151809D01*
X150642145Y-98148712D01*
X150618570Y-98119151D01*
X150616879Y-98117030D01*
X150616878Y-98117029D01*
X150616877Y-98117028D01*
X150567728Y-98083519D01*
X150519882Y-98048207D01*
X150514981Y-98045617D01*
X150515002Y-98045575D01*
X150509687Y-98042892D01*
X150509668Y-98042933D01*
X150504673Y-98040527D01*
X150447822Y-98022992D01*
X150442063Y-98020977D01*
X150391699Y-98003354D01*
X150391697Y-98003353D01*
X150391695Y-98003353D01*
X150386251Y-98002323D01*
X150386259Y-98002278D01*
X150380391Y-98001281D01*
X150380385Y-98001326D01*
X150374903Y-98000500D01*
X150374902Y-98000500D01*
X150315426Y-98000500D01*
X150255994Y-97998275D01*
X150250481Y-97998897D01*
X150250475Y-97998850D01*
X150237948Y-98000500D01*
X146480383Y-98000500D01*
X146476237Y-98000267D01*
X146435965Y-97995729D01*
X146377520Y-98006788D01*
X146318715Y-98015651D01*
X146313411Y-98017287D01*
X146313397Y-98017242D01*
X146307746Y-98019102D01*
X146307762Y-98019145D01*
X146302527Y-98020976D01*
X146249927Y-98048777D01*
X146196355Y-98074575D01*
X146191780Y-98077695D01*
X146191755Y-98077659D01*
X146186894Y-98081109D01*
X146186920Y-98081144D01*
X146182456Y-98084438D01*
X146140399Y-98126496D01*
X146096807Y-98166942D01*
X146093350Y-98171278D01*
X146093314Y-98171249D01*
X146085623Y-98181271D01*
X142164811Y-102102084D01*
X142118935Y-102123476D01*
X142091005Y-102120572D01*
X141985937Y-102088700D01*
X141780000Y-102068417D01*
X141574064Y-102088700D01*
X141439736Y-102129448D01*
X141378674Y-102147971D01*
X141376043Y-102148769D01*
X141193549Y-102246315D01*
X141033590Y-102377589D01*
X141033589Y-102377590D01*
X140902315Y-102537549D01*
X140804769Y-102720043D01*
X140744700Y-102918064D01*
X140724417Y-103124000D01*
X140744700Y-103329935D01*
X140804770Y-103527960D01*
X140806160Y-103531315D01*
X140804441Y-103532026D01*
X140810666Y-103575759D01*
X140783917Y-103618733D01*
X140738256Y-103634500D01*
X140613639Y-103634500D01*
X140484749Y-103651209D01*
X140448256Y-103660833D01*
X140430892Y-103665745D01*
X140430889Y-103665746D01*
X140395774Y-103682121D01*
X140345347Y-103686532D01*
X140303883Y-103657499D01*
X140290500Y-103615054D01*
X140290500Y-102254253D01*
X140290500Y-102254252D01*
X140278867Y-102195769D01*
X140273235Y-102187341D01*
X140253607Y-102157965D01*
X140234552Y-102129448D01*
X140187567Y-102098053D01*
X140168232Y-102085133D01*
X140168233Y-102085133D01*
X140138989Y-102079316D01*
X140109748Y-102073500D01*
X138370252Y-102073500D01*
X138341010Y-102079316D01*
X138311767Y-102085133D01*
X138245449Y-102129447D01*
X138245447Y-102129449D01*
X138201133Y-102195767D01*
X138193632Y-102233479D01*
X138190476Y-102249348D01*
X138189500Y-102254253D01*
X138189500Y-103614065D01*
X138172187Y-103661631D01*
X138128350Y-103686941D01*
X138089674Y-103682168D01*
X138089298Y-103683204D01*
X138086819Y-103682301D01*
X138086816Y-103682300D01*
X138039250Y-103664987D01*
X138008771Y-103654976D01*
X137866359Y-103634500D01*
X137866355Y-103634500D01*
X135278472Y-103634500D01*
X135256438Y-103635462D01*
X135232608Y-103637546D01*
X135232603Y-103637546D01*
X135232602Y-103637547D01*
X135157468Y-103649875D01*
X135157466Y-103649875D01*
X135157464Y-103649876D01*
X135157463Y-103649876D01*
X135023892Y-103703351D01*
X135021836Y-103704351D01*
X134971486Y-103709564D01*
X134929565Y-103681193D01*
X134915500Y-103637790D01*
X134915500Y-103034740D01*
X134915500Y-103034734D01*
X134912646Y-103004301D01*
X134882470Y-102918064D01*
X134867793Y-102876118D01*
X134867792Y-102876116D01*
X134787153Y-102766853D01*
X134787146Y-102766846D01*
X134677883Y-102686207D01*
X134677881Y-102686206D01*
X134549704Y-102641355D01*
X134549705Y-102641355D01*
X134549700Y-102641354D01*
X134549699Y-102641354D01*
X134519266Y-102638500D01*
X132960734Y-102638500D01*
X132930301Y-102641354D01*
X132930299Y-102641354D01*
X132930295Y-102641355D01*
X132802118Y-102686206D01*
X132802116Y-102686207D01*
X132692853Y-102766846D01*
X132692846Y-102766853D01*
X132612207Y-102876116D01*
X132612206Y-102876118D01*
X132567355Y-103004295D01*
X132567354Y-103004299D01*
X132567354Y-103004301D01*
X132564500Y-103034734D01*
X132564500Y-103034740D01*
X132564500Y-103640963D01*
X132547187Y-103688529D01*
X132503350Y-103713839D01*
X132455551Y-103706190D01*
X132410969Y-103682303D01*
X132410968Y-103682302D01*
X132363396Y-103664987D01*
X132332917Y-103654976D01*
X132190505Y-103634500D01*
X132190501Y-103634500D01*
X130514500Y-103634500D01*
X130466934Y-103617187D01*
X130441624Y-103573350D01*
X130440500Y-103560500D01*
X130440500Y-101189000D01*
X132559417Y-101189000D01*
X132579700Y-101394934D01*
X132639768Y-101592954D01*
X132737315Y-101775450D01*
X132868590Y-101935410D01*
X133028550Y-102066685D01*
X133211046Y-102164232D01*
X133409066Y-102224300D01*
X133563392Y-102239500D01*
X133563394Y-102239500D01*
X133916606Y-102239500D01*
X133916608Y-102239500D01*
X134070934Y-102224300D01*
X134268954Y-102164232D01*
X134451450Y-102066685D01*
X134611410Y-101935410D01*
X134742685Y-101775450D01*
X134840232Y-101592954D01*
X134900300Y-101394934D01*
X134920583Y-101189000D01*
X134900300Y-100983066D01*
X134840232Y-100785046D01*
X134742685Y-100602550D01*
X134611410Y-100442590D01*
X134451450Y-100311315D01*
X134268954Y-100213768D01*
X134157158Y-100179855D01*
X134070935Y-100153700D01*
X134019492Y-100148633D01*
X133916608Y-100138500D01*
X133563392Y-100138500D01*
X133486229Y-100146100D01*
X133409064Y-100153700D01*
X133211043Y-100213769D01*
X133028549Y-100311315D01*
X132868590Y-100442589D01*
X132868589Y-100442590D01*
X132737315Y-100602549D01*
X132639769Y-100785043D01*
X132579700Y-100983064D01*
X132579700Y-100983066D01*
X132559417Y-101189000D01*
X130440500Y-101189000D01*
X130440500Y-96189000D01*
X132559417Y-96189000D01*
X132579700Y-96394934D01*
X132638169Y-96587684D01*
X132639769Y-96592956D01*
X132737315Y-96775450D01*
X132816365Y-96871774D01*
X132868590Y-96935410D01*
X133028550Y-97066685D01*
X133211046Y-97164232D01*
X133409066Y-97224300D01*
X133563392Y-97239500D01*
X133563394Y-97239500D01*
X133916606Y-97239500D01*
X133916608Y-97239500D01*
X134070934Y-97224300D01*
X134076620Y-97222575D01*
X134080096Y-97221521D01*
X134130640Y-97224280D01*
X134153904Y-97240008D01*
X135652090Y-98738193D01*
X135654857Y-98741290D01*
X135680122Y-98772971D01*
X135729271Y-98806480D01*
X135777118Y-98841793D01*
X135782022Y-98844385D01*
X135781999Y-98844427D01*
X135787310Y-98847107D01*
X135787330Y-98847066D01*
X135792322Y-98849470D01*
X135792325Y-98849471D01*
X135792327Y-98849472D01*
X135849177Y-98867007D01*
X135905300Y-98886646D01*
X135910750Y-98887677D01*
X135910741Y-98887723D01*
X135916605Y-98888719D01*
X135916612Y-98888673D01*
X135922097Y-98889499D01*
X135922098Y-98889500D01*
X135981559Y-98889500D01*
X136041005Y-98891725D01*
X136041006Y-98891724D01*
X136041010Y-98891725D01*
X136041013Y-98891724D01*
X136046520Y-98891104D01*
X136046525Y-98891149D01*
X136059057Y-98889500D01*
X138415474Y-98889500D01*
X138463040Y-98906813D01*
X138475014Y-98919558D01*
X138526789Y-98989711D01*
X138526790Y-98989712D01*
X138526793Y-98989715D01*
X138633023Y-99068115D01*
X138633025Y-99068116D01*
X138757645Y-99111723D01*
X138757651Y-99111725D01*
X138787244Y-99114500D01*
X138787251Y-99114500D01*
X139692749Y-99114500D01*
X139692756Y-99114500D01*
X139722349Y-99111725D01*
X139779032Y-99091890D01*
X139846973Y-99068117D01*
X139846973Y-99068116D01*
X139846975Y-99068116D01*
X139953211Y-98989711D01*
X140031616Y-98883475D01*
X140037379Y-98867007D01*
X140075223Y-98758854D01*
X140075222Y-98758854D01*
X140075225Y-98758849D01*
X140078000Y-98729256D01*
X140078000Y-98148744D01*
X140075225Y-98119151D01*
X140074482Y-98117028D01*
X140031617Y-97994526D01*
X140004986Y-97958442D01*
X139953211Y-97888289D01*
X139902635Y-97850962D01*
X139846973Y-97809882D01*
X139722354Y-97766276D01*
X139722355Y-97766276D01*
X139722350Y-97766275D01*
X139722349Y-97766275D01*
X139692756Y-97763500D01*
X138787244Y-97763500D01*
X138757651Y-97766275D01*
X138757649Y-97766275D01*
X138757645Y-97766276D01*
X138633025Y-97809883D01*
X138633023Y-97809884D01*
X138526793Y-97888284D01*
X138526787Y-97888291D01*
X138475014Y-97958442D01*
X138432839Y-97986434D01*
X138415474Y-97988500D01*
X136207255Y-97988500D01*
X136159689Y-97971187D01*
X136154929Y-97966826D01*
X134857822Y-96669719D01*
X134836430Y-96623843D01*
X134839334Y-96595912D01*
X134840231Y-96592956D01*
X134840232Y-96592954D01*
X134886933Y-96439000D01*
X138184417Y-96439000D01*
X138204700Y-96644935D01*
X138264769Y-96842956D01*
X138362315Y-97025450D01*
X138446660Y-97128226D01*
X138493590Y-97185410D01*
X138653550Y-97316685D01*
X138836046Y-97414232D01*
X139034066Y-97474300D01*
X139240000Y-97494583D01*
X139445934Y-97474300D01*
X139643954Y-97414232D01*
X139826450Y-97316685D01*
X139986410Y-97185410D01*
X140117685Y-97025450D01*
X140215232Y-96842954D01*
X140275300Y-96644934D01*
X140295583Y-96439000D01*
X140275300Y-96233066D01*
X140215232Y-96035046D01*
X140117685Y-95852550D01*
X139986410Y-95692590D01*
X139826450Y-95561315D01*
X139643954Y-95463768D01*
X139517800Y-95425500D01*
X139445935Y-95403700D01*
X139240000Y-95383417D01*
X139034064Y-95403700D01*
X138836043Y-95463769D01*
X138653549Y-95561315D01*
X138493590Y-95692589D01*
X138493589Y-95692590D01*
X138362315Y-95852549D01*
X138264769Y-96035043D01*
X138204700Y-96233064D01*
X138184417Y-96439000D01*
X134886933Y-96439000D01*
X134900300Y-96394934D01*
X134920583Y-96189000D01*
X134900300Y-95983066D01*
X134840232Y-95785046D01*
X134742685Y-95602550D01*
X134611410Y-95442590D01*
X134524035Y-95370884D01*
X134451450Y-95311315D01*
X134268956Y-95213769D01*
X134268955Y-95213768D01*
X134268954Y-95213768D01*
X134157158Y-95179855D01*
X134070935Y-95153700D01*
X134013620Y-95148055D01*
X133916608Y-95138500D01*
X133563392Y-95138500D01*
X133486229Y-95146100D01*
X133409064Y-95153700D01*
X133211043Y-95213769D01*
X133028549Y-95311315D01*
X132868590Y-95442589D01*
X132868589Y-95442590D01*
X132737315Y-95602549D01*
X132639769Y-95785043D01*
X132579700Y-95983064D01*
X132574580Y-96035046D01*
X132559417Y-96189000D01*
X130440500Y-96189000D01*
X130440500Y-91547445D01*
X130457813Y-91499879D01*
X130501650Y-91474569D01*
X130551500Y-91483359D01*
X130582447Y-91518134D01*
X130634111Y-91637904D01*
X130808870Y-91940596D01*
X131017588Y-92220953D01*
X131257442Y-92475183D01*
X131257448Y-92475188D01*
X131257451Y-92475191D01*
X131406879Y-92600575D01*
X131525189Y-92699849D01*
X131817207Y-92891913D01*
X132098065Y-93032965D01*
X132129555Y-93048780D01*
X132457983Y-93168317D01*
X132457995Y-93168321D01*
X132798077Y-93248921D01*
X132798080Y-93248921D01*
X132798086Y-93248923D01*
X133145241Y-93289500D01*
X133494759Y-93289500D01*
X133841914Y-93248923D01*
X133953208Y-93222546D01*
X134182004Y-93168321D01*
X134182007Y-93168319D01*
X134182011Y-93168319D01*
X134343690Y-93109473D01*
X134510444Y-93048780D01*
X134510447Y-93048778D01*
X134510451Y-93048777D01*
X134822793Y-92891913D01*
X135114811Y-92699849D01*
X135382558Y-92475183D01*
X135622412Y-92220953D01*
X135831130Y-91940596D01*
X136005889Y-91637904D01*
X136144326Y-91316971D01*
X136144327Y-91316967D01*
X136144328Y-91316966D01*
X136244567Y-90982143D01*
X136244567Y-90982142D01*
X136244569Y-90982136D01*
X136305262Y-90637927D01*
X136325585Y-90289000D01*
X136305262Y-89940073D01*
X136244569Y-89595864D01*
X136244567Y-89595856D01*
X136144328Y-89261033D01*
X136144326Y-89261030D01*
X136144326Y-89261029D01*
X136005889Y-88940096D01*
X135831130Y-88637404D01*
X135622412Y-88357047D01*
X135382558Y-88102817D01*
X135382551Y-88102811D01*
X135382548Y-88102808D01*
X135114811Y-87878151D01*
X134822793Y-87686087D01*
X134610816Y-87579628D01*
X134576080Y-87542810D01*
X134573137Y-87492276D01*
X134603364Y-87451674D01*
X134644028Y-87439500D01*
X176265972Y-87439500D01*
X176313538Y-87456813D01*
G37*
G04 #@! TD.AperFunction*
G04 #@! TA.AperFunction,Conductor*
G36*
X175862712Y-93101593D02*
G01*
X175898445Y-93123093D01*
X175930277Y-93162450D01*
X175929363Y-93213061D01*
X175896131Y-93251244D01*
X175860294Y-93260500D01*
X175474663Y-93260500D01*
X175474657Y-93260500D01*
X175474656Y-93260501D01*
X175424974Y-93265576D01*
X175375291Y-93270651D01*
X175375286Y-93270652D01*
X175214304Y-93323996D01*
X175069956Y-93413031D01*
X174950031Y-93532956D01*
X174860996Y-93677304D01*
X174807651Y-93838289D01*
X174807651Y-93838291D01*
X174807651Y-93838292D01*
X174798338Y-93929458D01*
X174797500Y-93937658D01*
X174797500Y-98084336D01*
X174797501Y-98084342D01*
X174807651Y-98183708D01*
X174807652Y-98183713D01*
X174821445Y-98225337D01*
X174860997Y-98344697D01*
X174950032Y-98489044D01*
X175069956Y-98608968D01*
X175214303Y-98698003D01*
X175375292Y-98751349D01*
X175474655Y-98761500D01*
X179621344Y-98761499D01*
X179720708Y-98751349D01*
X179881697Y-98698003D01*
X180026044Y-98608968D01*
X180145968Y-98489044D01*
X180235003Y-98344697D01*
X180288349Y-98183708D01*
X180288349Y-98183707D01*
X180289336Y-98180729D01*
X180320732Y-98141022D01*
X180370305Y-98130786D01*
X180414860Y-98154810D01*
X180433549Y-98201853D01*
X180433578Y-98204489D01*
X180372360Y-107570871D01*
X180354737Y-107618323D01*
X180310735Y-107643345D01*
X180260944Y-107634230D01*
X180237114Y-107611916D01*
X180221365Y-107588689D01*
X180206230Y-107570871D01*
X179989668Y-107315914D01*
X179729837Y-107069789D01*
X179729833Y-107069786D01*
X179729829Y-107069782D01*
X179444913Y-106853195D01*
X179138258Y-106668687D01*
X178953852Y-106583372D01*
X178813435Y-106518409D01*
X178813433Y-106518408D01*
X178813428Y-106518406D01*
X178813422Y-106518404D01*
X178474286Y-106404136D01*
X178474283Y-106404135D01*
X178474274Y-106404132D01*
X178474272Y-106404131D01*
X178474264Y-106404129D01*
X178124752Y-106327196D01*
X178124749Y-106327195D01*
X178124746Y-106327195D01*
X177967897Y-106310136D01*
X177768961Y-106288501D01*
X177768954Y-106288500D01*
X177768948Y-106288500D01*
X177411052Y-106288500D01*
X177411046Y-106288500D01*
X177411038Y-106288501D01*
X177159819Y-106315822D01*
X177055254Y-106327195D01*
X177055251Y-106327195D01*
X177055247Y-106327196D01*
X176705735Y-106404129D01*
X176705713Y-106404136D01*
X176366577Y-106518404D01*
X176366571Y-106518406D01*
X176041741Y-106668687D01*
X175735086Y-106853195D01*
X175450170Y-107069782D01*
X175450163Y-107069789D01*
X175190332Y-107315914D01*
X175149255Y-107364273D01*
X174958636Y-107588687D01*
X174757789Y-107884913D01*
X174590151Y-108201110D01*
X174590144Y-108201127D01*
X174457681Y-108533581D01*
X174457675Y-108533601D01*
X174361927Y-108878454D01*
X174304027Y-109231634D01*
X174304026Y-109231638D01*
X174284652Y-109588990D01*
X174284652Y-109589009D01*
X174304026Y-109946361D01*
X174304027Y-109946365D01*
X174361927Y-110299545D01*
X174361929Y-110299552D01*
X174457676Y-110644403D01*
X174457678Y-110644408D01*
X174457681Y-110644418D01*
X174590144Y-110976872D01*
X174590151Y-110976889D01*
X174757789Y-111293086D01*
X174893966Y-111493932D01*
X174958635Y-111589311D01*
X175190332Y-111862086D01*
X175450163Y-112108211D01*
X175450166Y-112108213D01*
X175450170Y-112108217D01*
X175601195Y-112223022D01*
X175709810Y-112305589D01*
X175737200Y-112348157D01*
X175730819Y-112398373D01*
X175693654Y-112432739D01*
X175665027Y-112438500D01*
X135214973Y-112438500D01*
X135167407Y-112421187D01*
X135142097Y-112377350D01*
X135150887Y-112327500D01*
X135170188Y-112305590D01*
X135429837Y-112108211D01*
X135689668Y-111862086D01*
X135921365Y-111589311D01*
X136122211Y-111293085D01*
X136289853Y-110976880D01*
X136422324Y-110644403D01*
X136518071Y-110299552D01*
X136575972Y-109946371D01*
X136586455Y-109753028D01*
X136595348Y-109589009D01*
X136595348Y-109588990D01*
X136587216Y-109439000D01*
X138174556Y-109439000D01*
X138194311Y-109753005D01*
X138194314Y-109753028D01*
X138253268Y-110062076D01*
X138253272Y-110062092D01*
X138350492Y-110361304D01*
X138350494Y-110361308D01*
X138484463Y-110646008D01*
X138653052Y-110911662D01*
X138853606Y-111154090D01*
X138853609Y-111154092D01*
X138853610Y-111154094D01*
X139082970Y-111369478D01*
X139337516Y-111554416D01*
X139613234Y-111705994D01*
X139696817Y-111739086D01*
X139905760Y-111821814D01*
X139905772Y-111821817D01*
X139905775Y-111821819D01*
X139905778Y-111821819D01*
X139905782Y-111821821D01*
X139971085Y-111838587D01*
X140210527Y-111900066D01*
X140522682Y-111939500D01*
X140522683Y-111939500D01*
X140837317Y-111939500D01*
X140837318Y-111939500D01*
X141149473Y-111900066D01*
X141454225Y-111821819D01*
X141454232Y-111821816D01*
X141454239Y-111821814D01*
X141575073Y-111773971D01*
X141746766Y-111705994D01*
X142022484Y-111554416D01*
X142277030Y-111369478D01*
X142506390Y-111154094D01*
X142706947Y-110911663D01*
X142875537Y-110646007D01*
X143009503Y-110361315D01*
X143029574Y-110299545D01*
X143106727Y-110062092D01*
X143106727Y-110062089D01*
X143106731Y-110062079D01*
X143165688Y-109753015D01*
X143185444Y-109439000D01*
X150794556Y-109439000D01*
X150814311Y-109753005D01*
X150814314Y-109753028D01*
X150873268Y-110062076D01*
X150873272Y-110062092D01*
X150970492Y-110361304D01*
X150970494Y-110361308D01*
X151104463Y-110646008D01*
X151273052Y-110911662D01*
X151473606Y-111154090D01*
X151473609Y-111154092D01*
X151473610Y-111154094D01*
X151702970Y-111369478D01*
X151957516Y-111554416D01*
X152233234Y-111705994D01*
X152316817Y-111739086D01*
X152525760Y-111821814D01*
X152525772Y-111821817D01*
X152525775Y-111821819D01*
X152525778Y-111821819D01*
X152525782Y-111821821D01*
X152591085Y-111838587D01*
X152830527Y-111900066D01*
X153142682Y-111939500D01*
X153142683Y-111939500D01*
X153457317Y-111939500D01*
X153457318Y-111939500D01*
X153769473Y-111900066D01*
X154074225Y-111821819D01*
X154074232Y-111821816D01*
X154074239Y-111821814D01*
X154195073Y-111773971D01*
X154366766Y-111705994D01*
X154642484Y-111554416D01*
X154897030Y-111369478D01*
X155126390Y-111154094D01*
X155326947Y-110911663D01*
X155495537Y-110646007D01*
X155629503Y-110361315D01*
X155649574Y-110299545D01*
X155726727Y-110062092D01*
X155726727Y-110062089D01*
X155726731Y-110062079D01*
X155785688Y-109753015D01*
X155805444Y-109439000D01*
X163494556Y-109439000D01*
X163514311Y-109753005D01*
X163514314Y-109753028D01*
X163573268Y-110062076D01*
X163573272Y-110062092D01*
X163670492Y-110361304D01*
X163670494Y-110361308D01*
X163804463Y-110646008D01*
X163973052Y-110911662D01*
X164173606Y-111154090D01*
X164173609Y-111154092D01*
X164173610Y-111154094D01*
X164402970Y-111369478D01*
X164657516Y-111554416D01*
X164933234Y-111705994D01*
X165016817Y-111739086D01*
X165225760Y-111821814D01*
X165225772Y-111821817D01*
X165225775Y-111821819D01*
X165225778Y-111821819D01*
X165225782Y-111821821D01*
X165291085Y-111838587D01*
X165530527Y-111900066D01*
X165842682Y-111939500D01*
X165842683Y-111939500D01*
X166157317Y-111939500D01*
X166157318Y-111939500D01*
X166469473Y-111900066D01*
X166774225Y-111821819D01*
X166774232Y-111821816D01*
X166774239Y-111821814D01*
X166895073Y-111773971D01*
X167066766Y-111705994D01*
X167342484Y-111554416D01*
X167597030Y-111369478D01*
X167826390Y-111154094D01*
X168026947Y-110911663D01*
X168195537Y-110646007D01*
X168329503Y-110361315D01*
X168349574Y-110299545D01*
X168426727Y-110062092D01*
X168426727Y-110062089D01*
X168426731Y-110062079D01*
X168485688Y-109753015D01*
X168505444Y-109439000D01*
X168485688Y-109124985D01*
X168426731Y-108815921D01*
X168426728Y-108815914D01*
X168426727Y-108815907D01*
X168329507Y-108516695D01*
X168329505Y-108516691D01*
X168329504Y-108516690D01*
X168329503Y-108516685D01*
X168195537Y-108231993D01*
X168175944Y-108201120D01*
X168026947Y-107966337D01*
X167826393Y-107723909D01*
X167802729Y-107701687D01*
X167597030Y-107508522D01*
X167490812Y-107431350D01*
X167342489Y-107323587D01*
X167328530Y-107315913D01*
X167066766Y-107172006D01*
X167066759Y-107172003D01*
X166774239Y-107056185D01*
X166774217Y-107056178D01*
X166469473Y-106977934D01*
X166469462Y-106977932D01*
X166157325Y-106938500D01*
X166157318Y-106938500D01*
X165842682Y-106938500D01*
X165842674Y-106938500D01*
X165530537Y-106977932D01*
X165530526Y-106977934D01*
X165225782Y-107056178D01*
X165225760Y-107056185D01*
X164933240Y-107172003D01*
X164933233Y-107172006D01*
X164657510Y-107323587D01*
X164402971Y-107508521D01*
X164173606Y-107723909D01*
X163973052Y-107966337D01*
X163804463Y-108231991D01*
X163670494Y-108516691D01*
X163670492Y-108516695D01*
X163573272Y-108815907D01*
X163573268Y-108815923D01*
X163514314Y-109124971D01*
X163514311Y-109124994D01*
X163494556Y-109438999D01*
X163494556Y-109439000D01*
X155805444Y-109439000D01*
X155785688Y-109124985D01*
X155726731Y-108815921D01*
X155726728Y-108815914D01*
X155726727Y-108815907D01*
X155629507Y-108516695D01*
X155629505Y-108516691D01*
X155629504Y-108516690D01*
X155629503Y-108516685D01*
X155495537Y-108231993D01*
X155475944Y-108201120D01*
X155326947Y-107966337D01*
X155126393Y-107723909D01*
X155102729Y-107701687D01*
X154897030Y-107508522D01*
X154790812Y-107431350D01*
X154642489Y-107323587D01*
X154628530Y-107315913D01*
X154366766Y-107172006D01*
X154366759Y-107172003D01*
X154074239Y-107056185D01*
X154074217Y-107056178D01*
X153769473Y-106977934D01*
X153769462Y-106977932D01*
X153457325Y-106938500D01*
X153457318Y-106938500D01*
X153142682Y-106938500D01*
X153142674Y-106938500D01*
X152830537Y-106977932D01*
X152830526Y-106977934D01*
X152525782Y-107056178D01*
X152525760Y-107056185D01*
X152233240Y-107172003D01*
X152233233Y-107172006D01*
X151957510Y-107323587D01*
X151702971Y-107508521D01*
X151473606Y-107723909D01*
X151273052Y-107966337D01*
X151104463Y-108231991D01*
X150970494Y-108516691D01*
X150970492Y-108516695D01*
X150873272Y-108815907D01*
X150873268Y-108815923D01*
X150814314Y-109124971D01*
X150814311Y-109124994D01*
X150794556Y-109438999D01*
X150794556Y-109439000D01*
X143185444Y-109439000D01*
X143165688Y-109124985D01*
X143106731Y-108815921D01*
X143106728Y-108815914D01*
X143106727Y-108815907D01*
X143009507Y-108516695D01*
X143009505Y-108516691D01*
X143009504Y-108516690D01*
X143009503Y-108516685D01*
X142875537Y-108231993D01*
X142855944Y-108201120D01*
X142706947Y-107966337D01*
X142506393Y-107723909D01*
X142482729Y-107701687D01*
X142277030Y-107508522D01*
X142170812Y-107431350D01*
X142022489Y-107323587D01*
X142008530Y-107315913D01*
X141746766Y-107172006D01*
X141746759Y-107172003D01*
X141454239Y-107056185D01*
X141454217Y-107056178D01*
X141149473Y-106977934D01*
X141149462Y-106977932D01*
X140837325Y-106938500D01*
X140837318Y-106938500D01*
X140522682Y-106938500D01*
X140522674Y-106938500D01*
X140210537Y-106977932D01*
X140210526Y-106977934D01*
X139905782Y-107056178D01*
X139905760Y-107056185D01*
X139613240Y-107172003D01*
X139613233Y-107172006D01*
X139337510Y-107323587D01*
X139082971Y-107508521D01*
X138853606Y-107723909D01*
X138653052Y-107966337D01*
X138484463Y-108231991D01*
X138350494Y-108516691D01*
X138350492Y-108516695D01*
X138253272Y-108815907D01*
X138253268Y-108815923D01*
X138194314Y-109124971D01*
X138194311Y-109124994D01*
X138174556Y-109438999D01*
X138174556Y-109439000D01*
X136587216Y-109439000D01*
X136575973Y-109231638D01*
X136575972Y-109231634D01*
X136575972Y-109231629D01*
X136518071Y-108878448D01*
X136422324Y-108533597D01*
X136289853Y-108201120D01*
X136165378Y-107966337D01*
X136122210Y-107884913D01*
X135997979Y-107701687D01*
X135921365Y-107588689D01*
X135689668Y-107315914D01*
X135429837Y-107069789D01*
X135429833Y-107069786D01*
X135429829Y-107069782D01*
X135144913Y-106853195D01*
X134838258Y-106668687D01*
X134653852Y-106583372D01*
X134513435Y-106518409D01*
X134513433Y-106518408D01*
X134513428Y-106518406D01*
X134513422Y-106518404D01*
X134174286Y-106404136D01*
X134174283Y-106404135D01*
X134174274Y-106404132D01*
X134174272Y-106404131D01*
X134174264Y-106404129D01*
X133824752Y-106327196D01*
X133824749Y-106327195D01*
X133824746Y-106327195D01*
X133667897Y-106310136D01*
X133468961Y-106288501D01*
X133468954Y-106288500D01*
X133468948Y-106288500D01*
X133111052Y-106288500D01*
X133111046Y-106288500D01*
X133111038Y-106288501D01*
X132859819Y-106315822D01*
X132755254Y-106327195D01*
X132755251Y-106327195D01*
X132755247Y-106327196D01*
X132405735Y-106404129D01*
X132405713Y-106404136D01*
X132066577Y-106518404D01*
X132066571Y-106518406D01*
X131741741Y-106668687D01*
X131435086Y-106853195D01*
X131150170Y-107069782D01*
X131150163Y-107069789D01*
X130890332Y-107315914D01*
X130849255Y-107364273D01*
X130658636Y-107588687D01*
X130575749Y-107710936D01*
X130534726Y-107740590D01*
X130484239Y-107736938D01*
X130447911Y-107701687D01*
X130440500Y-107669408D01*
X130440500Y-104214000D01*
X130457813Y-104166434D01*
X130501650Y-104141124D01*
X130514500Y-104140000D01*
X132190501Y-104140000D01*
X132238067Y-104157313D01*
X132263377Y-104201150D01*
X132264500Y-104213998D01*
X132264501Y-104339008D01*
X132275001Y-104441797D01*
X132330186Y-104608334D01*
X132422288Y-104757656D01*
X132546344Y-104881712D01*
X132695666Y-104973814D01*
X132862203Y-105028999D01*
X132964991Y-105039500D01*
X134515008Y-105039499D01*
X134617797Y-105028999D01*
X134784334Y-104973814D01*
X134933656Y-104881712D01*
X135057712Y-104757656D01*
X135149814Y-104608334D01*
X135204999Y-104441797D01*
X135215500Y-104339009D01*
X135215500Y-104214000D01*
X135232813Y-104166434D01*
X135276650Y-104141124D01*
X135289500Y-104140000D01*
X137866355Y-104140000D01*
X137913921Y-104157313D01*
X137935689Y-104188140D01*
X137946202Y-104216329D01*
X137946203Y-104216330D01*
X137946204Y-104216331D01*
X138032454Y-104331546D01*
X138147669Y-104417796D01*
X138147670Y-104417797D01*
X138258312Y-104459063D01*
X138282517Y-104468091D01*
X138342127Y-104474500D01*
X140137872Y-104474499D01*
X140197483Y-104468091D01*
X140267981Y-104441797D01*
X140332329Y-104417797D01*
X140332329Y-104417796D01*
X140332331Y-104417796D01*
X140447546Y-104331546D01*
X140533796Y-104216331D01*
X140533797Y-104216329D01*
X140544311Y-104188140D01*
X140577154Y-104149623D01*
X140613645Y-104140000D01*
X140855453Y-104140000D01*
X140903019Y-104157313D01*
X140907767Y-104161663D01*
X140908599Y-104162495D01*
X141102170Y-104298035D01*
X141316337Y-104397903D01*
X141544592Y-104459063D01*
X141662296Y-104469361D01*
X141779996Y-104479659D01*
X141780000Y-104479659D01*
X141780004Y-104479659D01*
X141884625Y-104470505D01*
X142015408Y-104459063D01*
X142243663Y-104397903D01*
X142457830Y-104298035D01*
X142651401Y-104162495D01*
X142652222Y-104161673D01*
X142652575Y-104161508D01*
X142653873Y-104160420D01*
X142654164Y-104160767D01*
X142698097Y-104140282D01*
X142704547Y-104140000D01*
X173863000Y-104140000D01*
X173863000Y-93165000D01*
X173880313Y-93117434D01*
X173924150Y-93092124D01*
X173937000Y-93091000D01*
X175824561Y-93091000D01*
X175862712Y-93101593D01*
G37*
G04 #@! TD.AperFunction*
M02*
