G04 #@! TF.GenerationSoftware,KiCad,Pcbnew,7.0.9*
G04 #@! TF.CreationDate,2024-06-29T16:21:14+09:00*
G04 #@! TF.ProjectId,CAN_hab,43414e5f-6861-4622-9e6b-696361645f70,rev?*
G04 #@! TF.SameCoordinates,Original*
G04 #@! TF.FileFunction,Copper,L1,Top*
G04 #@! TF.FilePolarity,Positive*
%FSLAX46Y46*%
G04 Gerber Fmt 4.6, Leading zero omitted, Abs format (unit mm)*
G04 Created by KiCad (PCBNEW 7.0.9) date 2024-06-29 16:21:14*
%MOMM*%
%LPD*%
G01*
G04 APERTURE LIST*
G04 Aperture macros list*
%AMRoundRect*
0 Rectangle with rounded corners*
0 $1 Rounding radius*
0 $2 $3 $4 $5 $6 $7 $8 $9 X,Y pos of 4 corners*
0 Add a 4 corners polygon primitive as box body*
4,1,4,$2,$3,$4,$5,$6,$7,$8,$9,$2,$3,0*
0 Add four circle primitives for the rounded corners*
1,1,$1+$1,$2,$3*
1,1,$1+$1,$4,$5*
1,1,$1+$1,$6,$7*
1,1,$1+$1,$8,$9*
0 Add four rect primitives between the rounded corners*
20,1,$1+$1,$2,$3,$4,$5,0*
20,1,$1+$1,$4,$5,$6,$7,0*
20,1,$1+$1,$6,$7,$8,$9,0*
20,1,$1+$1,$8,$9,$2,$3,0*%
G04 Aperture macros list end*
G04 #@! TA.AperFunction,ComponentPad*
%ADD10R,3.000000X3.000000*%
G04 #@! TD*
G04 #@! TA.AperFunction,ComponentPad*
%ADD11C,3.000000*%
G04 #@! TD*
G04 #@! TA.AperFunction,SMDPad,CuDef*
%ADD12RoundRect,0.237500X0.400000X0.237500X-0.400000X0.237500X-0.400000X-0.237500X0.400000X-0.237500X0*%
G04 #@! TD*
G04 #@! TA.AperFunction,SMDPad,CuDef*
%ADD13RoundRect,0.150000X-0.150000X-0.700000X0.150000X-0.700000X0.150000X0.700000X-0.150000X0.700000X0*%
G04 #@! TD*
G04 #@! TA.AperFunction,SMDPad,CuDef*
%ADD14RoundRect,0.250000X-0.250000X-1.150000X0.250000X-1.150000X0.250000X1.150000X-0.250000X1.150000X0*%
G04 #@! TD*
G04 #@! TA.AperFunction,ComponentPad*
%ADD15C,1.000000*%
G04 #@! TD*
G04 #@! TA.AperFunction,ComponentPad*
%ADD16C,5.600000*%
G04 #@! TD*
G04 #@! TA.AperFunction,SMDPad,CuDef*
%ADD17RoundRect,0.150000X0.150000X0.700000X-0.150000X0.700000X-0.150000X-0.700000X0.150000X-0.700000X0*%
G04 #@! TD*
G04 #@! TA.AperFunction,SMDPad,CuDef*
%ADD18RoundRect,0.250000X0.250000X1.150000X-0.250000X1.150000X-0.250000X-1.150000X0.250000X-1.150000X0*%
G04 #@! TD*
G04 #@! TA.AperFunction,SMDPad,CuDef*
%ADD19RoundRect,0.150000X-0.700000X0.150000X-0.700000X-0.150000X0.700000X-0.150000X0.700000X0.150000X0*%
G04 #@! TD*
G04 #@! TA.AperFunction,SMDPad,CuDef*
%ADD20RoundRect,0.250000X-1.150000X0.250000X-1.150000X-0.250000X1.150000X-0.250000X1.150000X0.250000X0*%
G04 #@! TD*
G04 #@! TA.AperFunction,ComponentPad*
%ADD21R,1.700000X1.700000*%
G04 #@! TD*
G04 #@! TA.AperFunction,ComponentPad*
%ADD22O,1.700000X1.700000*%
G04 #@! TD*
G04 #@! TA.AperFunction,ComponentPad*
%ADD23RoundRect,0.250000X0.725000X-0.600000X0.725000X0.600000X-0.725000X0.600000X-0.725000X-0.600000X0*%
G04 #@! TD*
G04 #@! TA.AperFunction,ComponentPad*
%ADD24O,1.950000X1.700000*%
G04 #@! TD*
G04 #@! TA.AperFunction,ComponentPad*
%ADD25C,1.600000*%
G04 #@! TD*
G04 #@! TA.AperFunction,ViaPad*
%ADD26C,0.500000*%
G04 #@! TD*
G04 #@! TA.AperFunction,Conductor*
%ADD27C,0.500000*%
G04 #@! TD*
G04 APERTURE END LIST*
D10*
X164848000Y-109439000D03*
D11*
X169848000Y-109439000D03*
D12*
X141365000Y-100439000D03*
X139240000Y-100439000D03*
D10*
X152148000Y-109439000D03*
D11*
X157148000Y-109439000D03*
D13*
X170000000Y-92959000D03*
X171250000Y-92959000D03*
D14*
X168150000Y-89609000D03*
X173100000Y-89609000D03*
D13*
X139520000Y-92959000D03*
X140770000Y-92959000D03*
D14*
X137670000Y-89609000D03*
X142620000Y-89609000D03*
D15*
X131090000Y-109589000D03*
X131734370Y-108033370D03*
X131734370Y-111144630D03*
X133290000Y-107389000D03*
D16*
X133290000Y-109589000D03*
D15*
X133290000Y-111789000D03*
X134845630Y-108033370D03*
X134845630Y-111144630D03*
X135490000Y-109589000D03*
D17*
X148390000Y-98451000D03*
X147140000Y-98451000D03*
D18*
X150240000Y-101801000D03*
X145290000Y-101801000D03*
D19*
X160670000Y-98064000D03*
X160670000Y-99314000D03*
X160670000Y-100564000D03*
X160670000Y-101814000D03*
D20*
X164020000Y-96214000D03*
X164020000Y-103664000D03*
D13*
X162380000Y-92959000D03*
X163630000Y-92959000D03*
D14*
X160530000Y-89609000D03*
X165480000Y-89609000D03*
D19*
X167670000Y-98064000D03*
X167670000Y-99314000D03*
X167670000Y-100564000D03*
X167670000Y-101814000D03*
D20*
X171020000Y-96214000D03*
X171020000Y-103664000D03*
D15*
X175390000Y-90289000D03*
X176034370Y-88733370D03*
X176034370Y-91844630D03*
X177590000Y-88089000D03*
D16*
X177590000Y-90289000D03*
D15*
X177590000Y-92489000D03*
X179145630Y-88733370D03*
X179145630Y-91844630D03*
X179790000Y-90289000D03*
D10*
X139528000Y-109439000D03*
D11*
X144528000Y-109439000D03*
D21*
X139240000Y-103124000D03*
D22*
X141780000Y-103124000D03*
D23*
X133740000Y-103689000D03*
D24*
X133740000Y-101189000D03*
X133740000Y-98689000D03*
X133740000Y-96189000D03*
D15*
X175390000Y-109589000D03*
X176034370Y-108033370D03*
X176034370Y-111144630D03*
X177590000Y-107389000D03*
D16*
X177590000Y-109589000D03*
D15*
X177590000Y-111789000D03*
X179145630Y-108033370D03*
X179145630Y-111144630D03*
X179790000Y-109589000D03*
X131120000Y-90289000D03*
X131764370Y-88733370D03*
X131764370Y-91844630D03*
X133320000Y-88089000D03*
D16*
X133320000Y-90289000D03*
D15*
X133320000Y-92489000D03*
X134875630Y-88733370D03*
X134875630Y-91844630D03*
X135520000Y-90289000D03*
D21*
X141780000Y-96439000D03*
D22*
X139240000Y-96439000D03*
D19*
X153670000Y-98064000D03*
X153670000Y-99314000D03*
X153670000Y-100564000D03*
X153670000Y-101814000D03*
D20*
X157020000Y-96214000D03*
X157020000Y-103664000D03*
D13*
X154760000Y-92959000D03*
X156010000Y-92959000D03*
D14*
X152910000Y-89609000D03*
X157860000Y-89609000D03*
D13*
X147140000Y-92959000D03*
X148390000Y-92959000D03*
D14*
X145290000Y-89609000D03*
X150240000Y-89609000D03*
D25*
X177548000Y-96011000D03*
X177548000Y-102511000D03*
D26*
X153670000Y-101814000D03*
X170000000Y-92959000D03*
X147140000Y-92959000D03*
X160670000Y-101814000D03*
X148390000Y-98451000D03*
X139520000Y-92959000D03*
X162380000Y-92959000D03*
X154760000Y-92959000D03*
X167670000Y-101814000D03*
X167670000Y-100564000D03*
X160670000Y-100564000D03*
X153670000Y-100564000D03*
D27*
X139240000Y-100439000D02*
X139240000Y-103124000D01*
X133740000Y-96189000D02*
X136970000Y-92959000D01*
X136970000Y-92959000D02*
X139520000Y-92959000D01*
X147140000Y-97665000D02*
X147830000Y-96975000D01*
X141365000Y-100439000D02*
X144829000Y-96975000D01*
X139240000Y-96439000D02*
X136027500Y-96439000D01*
X167670000Y-96999000D02*
X167670000Y-98064000D01*
X160670000Y-98064000D02*
X153670000Y-98064000D01*
X152581000Y-96975000D02*
X153670000Y-98064000D01*
X137602500Y-94864000D02*
X135240000Y-97226500D01*
X147830000Y-96975000D02*
X152581000Y-96975000D01*
X171250000Y-93621000D02*
X171250000Y-92959000D01*
X156010000Y-92959000D02*
X157915000Y-94864000D01*
X160670000Y-98064000D02*
X167670000Y-98064000D01*
X135240000Y-102189000D02*
X133740000Y-103689000D01*
X135240000Y-97226500D02*
X135240000Y-102189000D01*
X140770000Y-92959000D02*
X142675000Y-94864000D01*
X147140000Y-98451000D02*
X147140000Y-97665000D01*
X148390000Y-92959000D02*
X150295000Y-94864000D01*
X163630000Y-92959000D02*
X167670000Y-96999000D01*
X144829000Y-96975000D02*
X147830000Y-96975000D01*
X142675000Y-94864000D02*
X137602500Y-94864000D01*
X142675000Y-94864000D02*
X170007000Y-94864000D01*
X170007000Y-94864000D02*
X171250000Y-93621000D01*
G04 #@! TA.AperFunction,Conductor*
G36*
X175712593Y-87456813D02*
G01*
X175737903Y-87500650D01*
X175729113Y-87550500D01*
X175709811Y-87572409D01*
X175651320Y-87616873D01*
X175450170Y-87769782D01*
X175190333Y-88015913D01*
X174958636Y-88288687D01*
X174757789Y-88584913D01*
X174590151Y-88901110D01*
X174590144Y-88901127D01*
X174457681Y-89233581D01*
X174457675Y-89233601D01*
X174361927Y-89578454D01*
X174304027Y-89931634D01*
X174304026Y-89931638D01*
X174284652Y-90288990D01*
X174284652Y-90289009D01*
X174304026Y-90646361D01*
X174304027Y-90646365D01*
X174361927Y-90999545D01*
X174361929Y-90999552D01*
X174457676Y-91344403D01*
X174457678Y-91344408D01*
X174457681Y-91344418D01*
X174590144Y-91676872D01*
X174590151Y-91676889D01*
X174757789Y-91993086D01*
X174855643Y-92137409D01*
X174958635Y-92289311D01*
X175106672Y-92463594D01*
X175124271Y-92511054D01*
X175107245Y-92558724D01*
X175063560Y-92584297D01*
X175050272Y-92585500D01*
X173925972Y-92585500D01*
X173903938Y-92586462D01*
X173880108Y-92588546D01*
X173880103Y-92588546D01*
X173880102Y-92588547D01*
X173804968Y-92600875D01*
X173804966Y-92600875D01*
X173804964Y-92600876D01*
X173804963Y-92600876D01*
X173671396Y-92654350D01*
X173655752Y-92663382D01*
X173627558Y-92679661D01*
X173627549Y-92679666D01*
X173627542Y-92679671D01*
X173627541Y-92679671D01*
X173574185Y-92715169D01*
X173574178Y-92715175D01*
X173473251Y-92817715D01*
X173473247Y-92817720D01*
X173405305Y-92944525D01*
X173405302Y-92944532D01*
X173387987Y-92992105D01*
X173377976Y-93022583D01*
X173357500Y-93164995D01*
X173357500Y-103560500D01*
X173340187Y-103608066D01*
X173296350Y-103633376D01*
X173283500Y-103634500D01*
X172994499Y-103634500D01*
X172946933Y-103617187D01*
X172921623Y-103573350D01*
X172920499Y-103560500D01*
X172920499Y-103363999D01*
X172920499Y-103363992D01*
X172909999Y-103261203D01*
X172854814Y-103094666D01*
X172762712Y-102945344D01*
X172638656Y-102821288D01*
X172489334Y-102729186D01*
X172367370Y-102688771D01*
X172322798Y-102674001D01*
X172305665Y-102672250D01*
X172220009Y-102663500D01*
X172220004Y-102663500D01*
X169819999Y-102663500D01*
X169819993Y-102663500D01*
X169819992Y-102663501D01*
X169768597Y-102668751D01*
X169717202Y-102674001D01*
X169550666Y-102729186D01*
X169401344Y-102821288D01*
X169277288Y-102945344D01*
X169185186Y-103094666D01*
X169130001Y-103261201D01*
X169119500Y-103363994D01*
X169119500Y-103560500D01*
X169102187Y-103608066D01*
X169058350Y-103633376D01*
X169045500Y-103634500D01*
X165994499Y-103634500D01*
X165946933Y-103617187D01*
X165921623Y-103573350D01*
X165920499Y-103560500D01*
X165920499Y-103363999D01*
X165920499Y-103363992D01*
X165909999Y-103261203D01*
X165854814Y-103094666D01*
X165762712Y-102945344D01*
X165638656Y-102821288D01*
X165489334Y-102729186D01*
X165367370Y-102688771D01*
X165322798Y-102674001D01*
X165305665Y-102672250D01*
X165220009Y-102663500D01*
X165220004Y-102663500D01*
X162819999Y-102663500D01*
X162819993Y-102663500D01*
X162819992Y-102663501D01*
X162768597Y-102668751D01*
X162717202Y-102674001D01*
X162550666Y-102729186D01*
X162401344Y-102821288D01*
X162277288Y-102945344D01*
X162185186Y-103094666D01*
X162130001Y-103261201D01*
X162119500Y-103363994D01*
X162119500Y-103560500D01*
X162102187Y-103608066D01*
X162058350Y-103633376D01*
X162045500Y-103634500D01*
X158994499Y-103634500D01*
X158946933Y-103617187D01*
X158921623Y-103573350D01*
X158920499Y-103560500D01*
X158920499Y-103363999D01*
X158920499Y-103363992D01*
X158909999Y-103261203D01*
X158854814Y-103094666D01*
X158762712Y-102945344D01*
X158638656Y-102821288D01*
X158489334Y-102729186D01*
X158367370Y-102688771D01*
X158322798Y-102674001D01*
X158305665Y-102672250D01*
X158220009Y-102663500D01*
X158220004Y-102663500D01*
X155819999Y-102663500D01*
X155819993Y-102663500D01*
X155819992Y-102663501D01*
X155768597Y-102668751D01*
X155717202Y-102674001D01*
X155550666Y-102729186D01*
X155401344Y-102821288D01*
X155277288Y-102945344D01*
X155185186Y-103094666D01*
X155130001Y-103261201D01*
X155119500Y-103363994D01*
X155119500Y-103560500D01*
X155102187Y-103608066D01*
X155058350Y-103633376D01*
X155045500Y-103634500D01*
X151046520Y-103634500D01*
X150998954Y-103617187D01*
X150973644Y-103573350D01*
X150982434Y-103523500D01*
X150994194Y-103508174D01*
X151082709Y-103419659D01*
X151082712Y-103419656D01*
X151174814Y-103270334D01*
X151229999Y-103103797D01*
X151240500Y-103001009D01*
X151240500Y-102029695D01*
X152319500Y-102029695D01*
X152322402Y-102066570D01*
X152368256Y-102224399D01*
X152435569Y-102338218D01*
X152451919Y-102365865D01*
X152568135Y-102482081D01*
X152709602Y-102565744D01*
X152867431Y-102611598D01*
X152901155Y-102614252D01*
X152904305Y-102614500D01*
X152904306Y-102614500D01*
X154435695Y-102614500D01*
X154438597Y-102614271D01*
X154472569Y-102611598D01*
X154630398Y-102565744D01*
X154771865Y-102482081D01*
X154888081Y-102365865D01*
X154971744Y-102224398D01*
X155017598Y-102066569D01*
X155020271Y-102032597D01*
X155020500Y-102029695D01*
X159319500Y-102029695D01*
X159322402Y-102066570D01*
X159368256Y-102224399D01*
X159435569Y-102338218D01*
X159451919Y-102365865D01*
X159568135Y-102482081D01*
X159709602Y-102565744D01*
X159867431Y-102611598D01*
X159901155Y-102614252D01*
X159904305Y-102614500D01*
X159904306Y-102614500D01*
X161435695Y-102614500D01*
X161438597Y-102614271D01*
X161472569Y-102611598D01*
X161630398Y-102565744D01*
X161771865Y-102482081D01*
X161888081Y-102365865D01*
X161971744Y-102224398D01*
X162017598Y-102066569D01*
X162020271Y-102032597D01*
X162020500Y-102029695D01*
X166319500Y-102029695D01*
X166322402Y-102066570D01*
X166368256Y-102224399D01*
X166435569Y-102338218D01*
X166451919Y-102365865D01*
X166568135Y-102482081D01*
X166709602Y-102565744D01*
X166867431Y-102611598D01*
X166901155Y-102614252D01*
X166904305Y-102614500D01*
X166904306Y-102614500D01*
X168435695Y-102614500D01*
X168438597Y-102614271D01*
X168472569Y-102611598D01*
X168630398Y-102565744D01*
X168771865Y-102482081D01*
X168888081Y-102365865D01*
X168971744Y-102224398D01*
X169017598Y-102066569D01*
X169020271Y-102032597D01*
X169020500Y-102029695D01*
X169020500Y-101598305D01*
X169020252Y-101595155D01*
X169017598Y-101561431D01*
X168971744Y-101403602D01*
X168888081Y-101262135D01*
X168867272Y-101241326D01*
X168845880Y-101195450D01*
X168858981Y-101146555D01*
X168867272Y-101136674D01*
X168888081Y-101115865D01*
X168971744Y-100974398D01*
X169017598Y-100816569D01*
X169020500Y-100779694D01*
X169020500Y-100348306D01*
X169017598Y-100311431D01*
X168971744Y-100153602D01*
X168970989Y-100152326D01*
X168915377Y-100058291D01*
X168888081Y-100012135D01*
X168771865Y-99895919D01*
X168757602Y-99887484D01*
X168630399Y-99812256D01*
X168472570Y-99766402D01*
X168435695Y-99763500D01*
X168435694Y-99763500D01*
X166904306Y-99763500D01*
X166904305Y-99763500D01*
X166867429Y-99766402D01*
X166709600Y-99812256D01*
X166568134Y-99895919D01*
X166451919Y-100012134D01*
X166368256Y-100153600D01*
X166322402Y-100311429D01*
X166319500Y-100348305D01*
X166319500Y-100779695D01*
X166322402Y-100816570D01*
X166368256Y-100974399D01*
X166451919Y-101115865D01*
X166472728Y-101136674D01*
X166494120Y-101182550D01*
X166481019Y-101231445D01*
X166472728Y-101241326D01*
X166451919Y-101262134D01*
X166368256Y-101403600D01*
X166322402Y-101561429D01*
X166319500Y-101598305D01*
X166319500Y-102029695D01*
X162020500Y-102029695D01*
X162020500Y-101598305D01*
X162020252Y-101595155D01*
X162017598Y-101561431D01*
X161971744Y-101403602D01*
X161888081Y-101262135D01*
X161867272Y-101241326D01*
X161845880Y-101195450D01*
X161858981Y-101146555D01*
X161867272Y-101136674D01*
X161888081Y-101115865D01*
X161971744Y-100974398D01*
X162017598Y-100816569D01*
X162020500Y-100779694D01*
X162020500Y-100348306D01*
X162017598Y-100311431D01*
X161971744Y-100153602D01*
X161970989Y-100152326D01*
X161915377Y-100058291D01*
X161888081Y-100012135D01*
X161771865Y-99895919D01*
X161757602Y-99887484D01*
X161630399Y-99812256D01*
X161472570Y-99766402D01*
X161435695Y-99763500D01*
X161435694Y-99763500D01*
X159904306Y-99763500D01*
X159904305Y-99763500D01*
X159867429Y-99766402D01*
X159709600Y-99812256D01*
X159568134Y-99895919D01*
X159451919Y-100012134D01*
X159368256Y-100153600D01*
X159322402Y-100311429D01*
X159319500Y-100348305D01*
X159319500Y-100779695D01*
X159322402Y-100816570D01*
X159368256Y-100974399D01*
X159451919Y-101115865D01*
X159472728Y-101136674D01*
X159494120Y-101182550D01*
X159481019Y-101231445D01*
X159472728Y-101241326D01*
X159451919Y-101262134D01*
X159368256Y-101403600D01*
X159322402Y-101561429D01*
X159319500Y-101598305D01*
X159319500Y-102029695D01*
X155020500Y-102029695D01*
X155020500Y-101598305D01*
X155020252Y-101595155D01*
X155017598Y-101561431D01*
X154971744Y-101403602D01*
X154888081Y-101262135D01*
X154867272Y-101241326D01*
X154845880Y-101195450D01*
X154858981Y-101146555D01*
X154867272Y-101136674D01*
X154888081Y-101115865D01*
X154971744Y-100974398D01*
X155017598Y-100816569D01*
X155020500Y-100779694D01*
X155020500Y-100348306D01*
X155017598Y-100311431D01*
X154971744Y-100153602D01*
X154970989Y-100152326D01*
X154915377Y-100058291D01*
X154888081Y-100012135D01*
X154771865Y-99895919D01*
X154757602Y-99887484D01*
X154630399Y-99812256D01*
X154472570Y-99766402D01*
X154435695Y-99763500D01*
X154435694Y-99763500D01*
X152904306Y-99763500D01*
X152904305Y-99763500D01*
X152867429Y-99766402D01*
X152709600Y-99812256D01*
X152568134Y-99895919D01*
X152451919Y-100012134D01*
X152368256Y-100153600D01*
X152322402Y-100311429D01*
X152319500Y-100348305D01*
X152319500Y-100779695D01*
X152322402Y-100816570D01*
X152368256Y-100974399D01*
X152451919Y-101115865D01*
X152472728Y-101136674D01*
X152494120Y-101182550D01*
X152481019Y-101231445D01*
X152472728Y-101241326D01*
X152451919Y-101262134D01*
X152368256Y-101403600D01*
X152322402Y-101561429D01*
X152319500Y-101598305D01*
X152319500Y-102029695D01*
X151240500Y-102029695D01*
X151240499Y-100600992D01*
X151229999Y-100498203D01*
X151174814Y-100331666D01*
X151082712Y-100182344D01*
X150958656Y-100058288D01*
X150809334Y-99966186D01*
X150707918Y-99932580D01*
X150642798Y-99911001D01*
X150625665Y-99909250D01*
X150540009Y-99900500D01*
X150540004Y-99900500D01*
X149939999Y-99900500D01*
X149939993Y-99900500D01*
X149939992Y-99900501D01*
X149888597Y-99905751D01*
X149837202Y-99911001D01*
X149670666Y-99966186D01*
X149521344Y-100058288D01*
X149397288Y-100182344D01*
X149305186Y-100331666D01*
X149250001Y-100498201D01*
X149239500Y-100600994D01*
X149239500Y-103001000D01*
X149239500Y-103001005D01*
X149239501Y-103001008D01*
X149250001Y-103103797D01*
X149305186Y-103270334D01*
X149397288Y-103419656D01*
X149397291Y-103419659D01*
X149485806Y-103508174D01*
X149507198Y-103554050D01*
X149494097Y-103602945D01*
X149452633Y-103631979D01*
X149433480Y-103634500D01*
X146096520Y-103634500D01*
X146048954Y-103617187D01*
X146023644Y-103573350D01*
X146032434Y-103523500D01*
X146044194Y-103508174D01*
X146132709Y-103419659D01*
X146132712Y-103419656D01*
X146224814Y-103270334D01*
X146279999Y-103103797D01*
X146290500Y-103001009D01*
X146290499Y-100600992D01*
X146279999Y-100498203D01*
X146224814Y-100331666D01*
X146132712Y-100182344D01*
X146008656Y-100058288D01*
X145859334Y-99966186D01*
X145757918Y-99932580D01*
X145692798Y-99911001D01*
X145675665Y-99909250D01*
X145590009Y-99900500D01*
X145590004Y-99900500D01*
X144989999Y-99900500D01*
X144989993Y-99900500D01*
X144989992Y-99900501D01*
X144938597Y-99905751D01*
X144887202Y-99911001D01*
X144720666Y-99966186D01*
X144571344Y-100058288D01*
X144447288Y-100182344D01*
X144355186Y-100331666D01*
X144300001Y-100498201D01*
X144289500Y-100600994D01*
X144289500Y-103001000D01*
X144289500Y-103001005D01*
X144289501Y-103001008D01*
X144300001Y-103103797D01*
X144355186Y-103270334D01*
X144447288Y-103419656D01*
X144447291Y-103419659D01*
X144535806Y-103508174D01*
X144557198Y-103554050D01*
X144544097Y-103602945D01*
X144502633Y-103631979D01*
X144483480Y-103634500D01*
X143137791Y-103634500D01*
X143090225Y-103617187D01*
X143064915Y-103573350D01*
X143066313Y-103541347D01*
X143115062Y-103359412D01*
X143115063Y-103359405D01*
X143135659Y-103124004D01*
X143135659Y-103123995D01*
X143120028Y-102945341D01*
X143115063Y-102888592D01*
X143053903Y-102660337D01*
X142954035Y-102446171D01*
X142818495Y-102252599D01*
X142651401Y-102085505D01*
X142651398Y-102085503D01*
X142651399Y-102085503D01*
X142571695Y-102029694D01*
X142457830Y-101949965D01*
X142243663Y-101850097D01*
X142015408Y-101788937D01*
X142015406Y-101788936D01*
X142015403Y-101788936D01*
X141780004Y-101768341D01*
X141779996Y-101768341D01*
X141544596Y-101788936D01*
X141544592Y-101788936D01*
X141544592Y-101788937D01*
X141316337Y-101850097D01*
X141316336Y-101850097D01*
X141316334Y-101850098D01*
X141316333Y-101850098D01*
X141219947Y-101895045D01*
X141102167Y-101949967D01*
X140908602Y-102085502D01*
X140908599Y-102085504D01*
X140741505Y-102252598D01*
X140725116Y-102276005D01*
X140683651Y-102305039D01*
X140633225Y-102300627D01*
X140597432Y-102264833D01*
X140590499Y-102233560D01*
X140590499Y-102226126D01*
X140585336Y-102178102D01*
X140584091Y-102166517D01*
X140553876Y-102085505D01*
X140533797Y-102031670D01*
X140533796Y-102031669D01*
X140532318Y-102029695D01*
X140447546Y-101916454D01*
X140332331Y-101830204D01*
X140332330Y-101830203D01*
X140332329Y-101830202D01*
X140197487Y-101779910D01*
X140197484Y-101779909D01*
X140197483Y-101779909D01*
X140167678Y-101776704D01*
X140137874Y-101773500D01*
X140137873Y-101773500D01*
X140064500Y-101773500D01*
X140016934Y-101756187D01*
X139991624Y-101712350D01*
X139990500Y-101699500D01*
X139990500Y-101368705D01*
X140007813Y-101321139D01*
X140025652Y-101305722D01*
X140100850Y-101259340D01*
X140222840Y-101137350D01*
X140239518Y-101110309D01*
X140279223Y-101078915D01*
X140329821Y-101080387D01*
X140365481Y-101110309D01*
X140382160Y-101137350D01*
X140504150Y-101259340D01*
X140650984Y-101349908D01*
X140814747Y-101404174D01*
X140915823Y-101414500D01*
X141814176Y-101414499D01*
X141915253Y-101404174D01*
X142079016Y-101349908D01*
X142225850Y-101259340D01*
X142347840Y-101137350D01*
X142438408Y-100990516D01*
X142492674Y-100826753D01*
X142503000Y-100725677D01*
X142502999Y-100393018D01*
X142520312Y-100345453D01*
X142524661Y-100340705D01*
X145118194Y-97747174D01*
X145164071Y-97725782D01*
X145170520Y-97725500D01*
X146265500Y-97725500D01*
X146313066Y-97742813D01*
X146338376Y-97786650D01*
X146339500Y-97799500D01*
X146339500Y-99216695D01*
X146342402Y-99253570D01*
X146388256Y-99411399D01*
X146457268Y-99528092D01*
X146471919Y-99552865D01*
X146588135Y-99669081D01*
X146729602Y-99752744D01*
X146887431Y-99798598D01*
X146921155Y-99801252D01*
X146924305Y-99801500D01*
X146924306Y-99801500D01*
X147355695Y-99801500D01*
X147358597Y-99801271D01*
X147392569Y-99798598D01*
X147550398Y-99752744D01*
X147691865Y-99669081D01*
X147712674Y-99648272D01*
X147758550Y-99626880D01*
X147807445Y-99639981D01*
X147817326Y-99648272D01*
X147838135Y-99669081D01*
X147979602Y-99752744D01*
X148137431Y-99798598D01*
X148171155Y-99801252D01*
X148174305Y-99801500D01*
X148174306Y-99801500D01*
X148605695Y-99801500D01*
X148608597Y-99801271D01*
X148642569Y-99798598D01*
X148800398Y-99752744D01*
X148941865Y-99669081D01*
X149058081Y-99552865D01*
X149141744Y-99411398D01*
X149187598Y-99253569D01*
X149190500Y-99216694D01*
X149190500Y-97799500D01*
X149207813Y-97751934D01*
X149251650Y-97726624D01*
X149264500Y-97725500D01*
X152239480Y-97725500D01*
X152287046Y-97742813D01*
X152291806Y-97747174D01*
X152300735Y-97756103D01*
X152322127Y-97801979D01*
X152322181Y-97814234D01*
X152319500Y-97848305D01*
X152319500Y-98279695D01*
X152322402Y-98316570D01*
X152368256Y-98474399D01*
X152451919Y-98615865D01*
X152568135Y-98732081D01*
X152665874Y-98789884D01*
X152707498Y-98814500D01*
X152709602Y-98815744D01*
X152867431Y-98861598D01*
X152901155Y-98864252D01*
X152904305Y-98864500D01*
X152904306Y-98864500D01*
X154435695Y-98864500D01*
X154438597Y-98864271D01*
X154472569Y-98861598D01*
X154624569Y-98817437D01*
X154645211Y-98814500D01*
X159694789Y-98814500D01*
X159715430Y-98817437D01*
X159867431Y-98861598D01*
X159901155Y-98864252D01*
X159904305Y-98864500D01*
X159904306Y-98864500D01*
X161435695Y-98864500D01*
X161438597Y-98864271D01*
X161472569Y-98861598D01*
X161624569Y-98817437D01*
X161645211Y-98814500D01*
X166694789Y-98814500D01*
X166715430Y-98817437D01*
X166867431Y-98861598D01*
X166901155Y-98864252D01*
X166904305Y-98864500D01*
X166904306Y-98864500D01*
X168435695Y-98864500D01*
X168438597Y-98864271D01*
X168472569Y-98861598D01*
X168630398Y-98815744D01*
X168771865Y-98732081D01*
X168888081Y-98615865D01*
X168971744Y-98474398D01*
X169017598Y-98316569D01*
X169020500Y-98279694D01*
X169020500Y-97848306D01*
X169017598Y-97811431D01*
X168971744Y-97653602D01*
X168969912Y-97650505D01*
X168945884Y-97609874D01*
X168888081Y-97512135D01*
X168771865Y-97395919D01*
X168758309Y-97387902D01*
X168630399Y-97312256D01*
X168473854Y-97266775D01*
X168433007Y-97236878D01*
X168420500Y-97195713D01*
X168420500Y-97059063D01*
X168421281Y-97048339D01*
X168425289Y-97020977D01*
X168420640Y-96967843D01*
X168420500Y-96964624D01*
X168420500Y-96955291D01*
X168416693Y-96922724D01*
X168409999Y-96846204D01*
X168408903Y-96842896D01*
X168405645Y-96828203D01*
X168405241Y-96824745D01*
X168378974Y-96752576D01*
X168354814Y-96679666D01*
X168352979Y-96676692D01*
X168346432Y-96663166D01*
X168345237Y-96659883D01*
X168303028Y-96595708D01*
X168262712Y-96530345D01*
X168260246Y-96527879D01*
X168250747Y-96516218D01*
X168248830Y-96513304D01*
X168192964Y-96460597D01*
X167473193Y-95740826D01*
X167451801Y-95694950D01*
X167464902Y-95646055D01*
X167506366Y-95617021D01*
X167525519Y-95614500D01*
X169092704Y-95614500D01*
X169140270Y-95631813D01*
X169165580Y-95675650D01*
X169162948Y-95711775D01*
X169153322Y-95740826D01*
X169130001Y-95811201D01*
X169119500Y-95913994D01*
X169119500Y-96514000D01*
X169119500Y-96514005D01*
X169119501Y-96514008D01*
X169130001Y-96616797D01*
X169185186Y-96783334D01*
X169277288Y-96932656D01*
X169401344Y-97056712D01*
X169550666Y-97148814D01*
X169717203Y-97203999D01*
X169819991Y-97214500D01*
X172220008Y-97214499D01*
X172322797Y-97203999D01*
X172489334Y-97148814D01*
X172638656Y-97056712D01*
X172762712Y-96932656D01*
X172854814Y-96783334D01*
X172909999Y-96616797D01*
X172920500Y-96514009D01*
X172920499Y-95913992D01*
X172909999Y-95811203D01*
X172854814Y-95644666D01*
X172762712Y-95495344D01*
X172638656Y-95371288D01*
X172489334Y-95279186D01*
X172406065Y-95251593D01*
X172322798Y-95224001D01*
X172302239Y-95221900D01*
X172220009Y-95213500D01*
X172220005Y-95213500D01*
X170897519Y-95213500D01*
X170849953Y-95196187D01*
X170824643Y-95152350D01*
X170833433Y-95102500D01*
X170845193Y-95087174D01*
X171017270Y-94915097D01*
X171681262Y-94251103D01*
X171695916Y-94239738D01*
X171801865Y-94177081D01*
X171918081Y-94060865D01*
X172001744Y-93919398D01*
X172047598Y-93761569D01*
X172050500Y-93724694D01*
X172050500Y-92193306D01*
X172047598Y-92156431D01*
X172001744Y-91998602D01*
X171918081Y-91857135D01*
X171801865Y-91740919D01*
X171693581Y-91676880D01*
X171660399Y-91657256D01*
X171502570Y-91611402D01*
X171465695Y-91608500D01*
X171465694Y-91608500D01*
X171034306Y-91608500D01*
X171034305Y-91608500D01*
X170997429Y-91611402D01*
X170839600Y-91657256D01*
X170698134Y-91740919D01*
X170677326Y-91761728D01*
X170631450Y-91783120D01*
X170582555Y-91770019D01*
X170572674Y-91761728D01*
X170551865Y-91740919D01*
X170410399Y-91657256D01*
X170252570Y-91611402D01*
X170215695Y-91608500D01*
X170215694Y-91608500D01*
X169784306Y-91608500D01*
X169784305Y-91608500D01*
X169747429Y-91611402D01*
X169589600Y-91657256D01*
X169448134Y-91740919D01*
X169331919Y-91857134D01*
X169248256Y-91998600D01*
X169202402Y-92156429D01*
X169199500Y-92193305D01*
X169199500Y-93724695D01*
X169202402Y-93761570D01*
X169248256Y-93919399D01*
X169297007Y-94001831D01*
X169306318Y-94051586D01*
X169281470Y-94095686D01*
X169234087Y-94113496D01*
X169233312Y-94113500D01*
X165876520Y-94113500D01*
X165828954Y-94096187D01*
X165824194Y-94091826D01*
X164452174Y-92719806D01*
X164430782Y-92673930D01*
X164430500Y-92667480D01*
X164430500Y-92193305D01*
X164430252Y-92190155D01*
X164427598Y-92156431D01*
X164381744Y-91998602D01*
X164298081Y-91857135D01*
X164181865Y-91740919D01*
X164073581Y-91676880D01*
X164040399Y-91657256D01*
X163882570Y-91611402D01*
X163845695Y-91608500D01*
X163845694Y-91608500D01*
X163414306Y-91608500D01*
X163414305Y-91608500D01*
X163377429Y-91611402D01*
X163219600Y-91657256D01*
X163078134Y-91740919D01*
X163057326Y-91761728D01*
X163011450Y-91783120D01*
X162962555Y-91770019D01*
X162952674Y-91761728D01*
X162931865Y-91740919D01*
X162790399Y-91657256D01*
X162632570Y-91611402D01*
X162595695Y-91608500D01*
X162595694Y-91608500D01*
X162164306Y-91608500D01*
X162164305Y-91608500D01*
X162127429Y-91611402D01*
X161969600Y-91657256D01*
X161828134Y-91740919D01*
X161711919Y-91857134D01*
X161628256Y-91998600D01*
X161582402Y-92156429D01*
X161579500Y-92193305D01*
X161579500Y-93724695D01*
X161582402Y-93761570D01*
X161628256Y-93919399D01*
X161677007Y-94001831D01*
X161686318Y-94051586D01*
X161661470Y-94095686D01*
X161614087Y-94113496D01*
X161613312Y-94113500D01*
X158256519Y-94113500D01*
X158208953Y-94096187D01*
X158204193Y-94091826D01*
X156832174Y-92719806D01*
X156810782Y-92673929D01*
X156810500Y-92667480D01*
X156810500Y-92193305D01*
X156810252Y-92190155D01*
X156807598Y-92156431D01*
X156761744Y-91998602D01*
X156678081Y-91857135D01*
X156561865Y-91740919D01*
X156453581Y-91676880D01*
X156420399Y-91657256D01*
X156262570Y-91611402D01*
X156225695Y-91608500D01*
X156225694Y-91608500D01*
X155794306Y-91608500D01*
X155794305Y-91608500D01*
X155757429Y-91611402D01*
X155599600Y-91657256D01*
X155458134Y-91740919D01*
X155437326Y-91761728D01*
X155391450Y-91783120D01*
X155342555Y-91770019D01*
X155332674Y-91761728D01*
X155311865Y-91740919D01*
X155170399Y-91657256D01*
X155012570Y-91611402D01*
X154975695Y-91608500D01*
X154975694Y-91608500D01*
X154544306Y-91608500D01*
X154544305Y-91608500D01*
X154507429Y-91611402D01*
X154349600Y-91657256D01*
X154208134Y-91740919D01*
X154091919Y-91857134D01*
X154008256Y-91998600D01*
X153962402Y-92156429D01*
X153959500Y-92193305D01*
X153959500Y-93724695D01*
X153962402Y-93761570D01*
X154008256Y-93919399D01*
X154057007Y-94001831D01*
X154066318Y-94051586D01*
X154041470Y-94095686D01*
X153994087Y-94113496D01*
X153993312Y-94113500D01*
X150636519Y-94113500D01*
X150588953Y-94096187D01*
X150584193Y-94091826D01*
X149212174Y-92719806D01*
X149190782Y-92673929D01*
X149190500Y-92667480D01*
X149190500Y-92193305D01*
X149190252Y-92190155D01*
X149187598Y-92156431D01*
X149141744Y-91998602D01*
X149058081Y-91857135D01*
X148941865Y-91740919D01*
X148833581Y-91676880D01*
X148800399Y-91657256D01*
X148642570Y-91611402D01*
X148605695Y-91608500D01*
X148605694Y-91608500D01*
X148174306Y-91608500D01*
X148174305Y-91608500D01*
X148137429Y-91611402D01*
X147979600Y-91657256D01*
X147838134Y-91740919D01*
X147817326Y-91761728D01*
X147771450Y-91783120D01*
X147722555Y-91770019D01*
X147712674Y-91761728D01*
X147691865Y-91740919D01*
X147550399Y-91657256D01*
X147392570Y-91611402D01*
X147355695Y-91608500D01*
X147355694Y-91608500D01*
X146924306Y-91608500D01*
X146924305Y-91608500D01*
X146887429Y-91611402D01*
X146729600Y-91657256D01*
X146588134Y-91740919D01*
X146471919Y-91857134D01*
X146388256Y-91998600D01*
X146342402Y-92156429D01*
X146339500Y-92193305D01*
X146339500Y-93724695D01*
X146342402Y-93761570D01*
X146388256Y-93919399D01*
X146437007Y-94001831D01*
X146446318Y-94051586D01*
X146421470Y-94095686D01*
X146374087Y-94113496D01*
X146373312Y-94113500D01*
X143016519Y-94113500D01*
X142968953Y-94096187D01*
X142964193Y-94091826D01*
X141592174Y-92719806D01*
X141570782Y-92673929D01*
X141570500Y-92667480D01*
X141570500Y-92193305D01*
X141570252Y-92190155D01*
X141567598Y-92156431D01*
X141521744Y-91998602D01*
X141438081Y-91857135D01*
X141321865Y-91740919D01*
X141213581Y-91676880D01*
X141180399Y-91657256D01*
X141022570Y-91611402D01*
X140985695Y-91608500D01*
X140985694Y-91608500D01*
X140554306Y-91608500D01*
X140554305Y-91608500D01*
X140517429Y-91611402D01*
X140359600Y-91657256D01*
X140218134Y-91740919D01*
X140197326Y-91761728D01*
X140151450Y-91783120D01*
X140102555Y-91770019D01*
X140092674Y-91761728D01*
X140071865Y-91740919D01*
X139930399Y-91657256D01*
X139772570Y-91611402D01*
X139735695Y-91608500D01*
X139735694Y-91608500D01*
X139304306Y-91608500D01*
X139304305Y-91608500D01*
X139267429Y-91611402D01*
X139109600Y-91657256D01*
X138968134Y-91740919D01*
X138851919Y-91857134D01*
X138768256Y-91998600D01*
X138722775Y-92155146D01*
X138692878Y-92195993D01*
X138651713Y-92208500D01*
X137030064Y-92208500D01*
X137019340Y-92207719D01*
X136991978Y-92203711D01*
X136991969Y-92203711D01*
X136954328Y-92207004D01*
X136938844Y-92208359D01*
X136935625Y-92208500D01*
X136926291Y-92208500D01*
X136893724Y-92212306D01*
X136817208Y-92218999D01*
X136817196Y-92219002D01*
X136813873Y-92220103D01*
X136799221Y-92223351D01*
X136795750Y-92223757D01*
X136723576Y-92250025D01*
X136650663Y-92274187D01*
X136650662Y-92274187D01*
X136647686Y-92276023D01*
X136634175Y-92282564D01*
X136630884Y-92283762D01*
X136630875Y-92283766D01*
X136566709Y-92325970D01*
X136501343Y-92366289D01*
X136498872Y-92368760D01*
X136487221Y-92378251D01*
X136484306Y-92380168D01*
X136431597Y-92436035D01*
X134045070Y-94822560D01*
X133999193Y-94843952D01*
X133986295Y-94843952D01*
X133930890Y-94839105D01*
X133923966Y-94838500D01*
X133556034Y-94838500D01*
X133518614Y-94841773D01*
X133379596Y-94853936D01*
X133379592Y-94853936D01*
X133379592Y-94853937D01*
X133151337Y-94915097D01*
X133151336Y-94915097D01*
X133151334Y-94915098D01*
X133151333Y-94915099D01*
X132937167Y-95014967D01*
X132743602Y-95150502D01*
X132743599Y-95150504D01*
X132576503Y-95317601D01*
X132538909Y-95371291D01*
X132440965Y-95511170D01*
X132341097Y-95725337D01*
X132279938Y-95953588D01*
X132279936Y-95953596D01*
X132259341Y-96188995D01*
X132259341Y-96189004D01*
X132279936Y-96424403D01*
X132279936Y-96424406D01*
X132279937Y-96424408D01*
X132341097Y-96652663D01*
X132440965Y-96866829D01*
X132440966Y-96866831D01*
X132440967Y-96866832D01*
X132576502Y-97060397D01*
X132576504Y-97060400D01*
X132743599Y-97227495D01*
X132743602Y-97227497D01*
X132937168Y-97363033D01*
X132937171Y-97363035D01*
X132956254Y-97371934D01*
X132992046Y-97407728D01*
X132996457Y-97458154D01*
X132967422Y-97499618D01*
X132956254Y-97506066D01*
X132937171Y-97514964D01*
X132937168Y-97514966D01*
X132743602Y-97650502D01*
X132743599Y-97650504D01*
X132576503Y-97817601D01*
X132486145Y-97946646D01*
X132440965Y-98011170D01*
X132341097Y-98225337D01*
X132279937Y-98453592D01*
X132279936Y-98453596D01*
X132259341Y-98688995D01*
X132259341Y-98689004D01*
X132279936Y-98924403D01*
X132279936Y-98924406D01*
X132279937Y-98924408D01*
X132341097Y-99152663D01*
X132440965Y-99366829D01*
X132576505Y-99560401D01*
X132743599Y-99727495D01*
X132937171Y-99863035D01*
X133151337Y-99962903D01*
X133379592Y-100024063D01*
X133556034Y-100039500D01*
X133556036Y-100039500D01*
X133923964Y-100039500D01*
X133923966Y-100039500D01*
X134100408Y-100024063D01*
X134328663Y-99962903D01*
X134384226Y-99936992D01*
X134434651Y-99932580D01*
X134476117Y-99961613D01*
X134489500Y-100004059D01*
X134489500Y-101847479D01*
X134472187Y-101895045D01*
X134467826Y-101899805D01*
X134050805Y-102316826D01*
X134004929Y-102338218D01*
X133998479Y-102338500D01*
X132964999Y-102338500D01*
X132964993Y-102338500D01*
X132964992Y-102338501D01*
X132913597Y-102343751D01*
X132862202Y-102349001D01*
X132695666Y-102404186D01*
X132546344Y-102496288D01*
X132422288Y-102620344D01*
X132330186Y-102769666D01*
X132275001Y-102936201D01*
X132275001Y-102936203D01*
X132268381Y-103001008D01*
X132264500Y-103038994D01*
X132264500Y-103560500D01*
X132247187Y-103608066D01*
X132203350Y-103633376D01*
X132190500Y-103634500D01*
X130514500Y-103634500D01*
X130466934Y-103617187D01*
X130441624Y-103573350D01*
X130440500Y-103560500D01*
X130440500Y-92164344D01*
X130457813Y-92116778D01*
X130501650Y-92091468D01*
X130551500Y-92100258D01*
X130575748Y-92122815D01*
X130688635Y-92289311D01*
X130920332Y-92562086D01*
X131180163Y-92808211D01*
X131180166Y-92808213D01*
X131180170Y-92808217D01*
X131465086Y-93024804D01*
X131771741Y-93209312D01*
X131771745Y-93209314D01*
X131771747Y-93209315D01*
X132096565Y-93359591D01*
X132435726Y-93473868D01*
X132785254Y-93550805D01*
X133141052Y-93589500D01*
X133141061Y-93589500D01*
X133498939Y-93589500D01*
X133498948Y-93589500D01*
X133854746Y-93550805D01*
X134204274Y-93473868D01*
X134543435Y-93359591D01*
X134868253Y-93209315D01*
X134941905Y-93165000D01*
X135174913Y-93024804D01*
X135174915Y-93024802D01*
X135174919Y-93024800D01*
X135459837Y-92808211D01*
X135719668Y-92562086D01*
X135951365Y-92289311D01*
X136152211Y-91993085D01*
X136319853Y-91676880D01*
X136452324Y-91344403D01*
X136548071Y-90999552D01*
X136552703Y-90971299D01*
X136577482Y-90927160D01*
X136624837Y-90909275D01*
X136672608Y-90926014D01*
X136695971Y-90959991D01*
X136735186Y-91078334D01*
X136827288Y-91227656D01*
X136951344Y-91351712D01*
X137100666Y-91443814D01*
X137267203Y-91498999D01*
X137369991Y-91509500D01*
X137970008Y-91509499D01*
X138072797Y-91498999D01*
X138239334Y-91443814D01*
X138388656Y-91351712D01*
X138512712Y-91227656D01*
X138604814Y-91078334D01*
X138659999Y-90911797D01*
X138670500Y-90809009D01*
X138670500Y-90809005D01*
X141619500Y-90809005D01*
X141619501Y-90809008D01*
X141630001Y-90911797D01*
X141685186Y-91078334D01*
X141777288Y-91227656D01*
X141901344Y-91351712D01*
X142050666Y-91443814D01*
X142217203Y-91498999D01*
X142319991Y-91509500D01*
X142920008Y-91509499D01*
X143022797Y-91498999D01*
X143189334Y-91443814D01*
X143338656Y-91351712D01*
X143462712Y-91227656D01*
X143554814Y-91078334D01*
X143609999Y-90911797D01*
X143620500Y-90809009D01*
X143620500Y-90809005D01*
X144289500Y-90809005D01*
X144289501Y-90809008D01*
X144300001Y-90911797D01*
X144355186Y-91078334D01*
X144447288Y-91227656D01*
X144571344Y-91351712D01*
X144720666Y-91443814D01*
X144887203Y-91498999D01*
X144989991Y-91509500D01*
X145590008Y-91509499D01*
X145692797Y-91498999D01*
X145859334Y-91443814D01*
X146008656Y-91351712D01*
X146132712Y-91227656D01*
X146224814Y-91078334D01*
X146279999Y-90911797D01*
X146290500Y-90809009D01*
X146290500Y-90809005D01*
X149239500Y-90809005D01*
X149239501Y-90809008D01*
X149250001Y-90911797D01*
X149305186Y-91078334D01*
X149397288Y-91227656D01*
X149521344Y-91351712D01*
X149670666Y-91443814D01*
X149837203Y-91498999D01*
X149939991Y-91509500D01*
X150540008Y-91509499D01*
X150642797Y-91498999D01*
X150809334Y-91443814D01*
X150958656Y-91351712D01*
X151082712Y-91227656D01*
X151174814Y-91078334D01*
X151229999Y-90911797D01*
X151240500Y-90809009D01*
X151240500Y-90809005D01*
X151909500Y-90809005D01*
X151909501Y-90809008D01*
X151920001Y-90911797D01*
X151975186Y-91078334D01*
X152067288Y-91227656D01*
X152191344Y-91351712D01*
X152340666Y-91443814D01*
X152507203Y-91498999D01*
X152609991Y-91509500D01*
X153210008Y-91509499D01*
X153312797Y-91498999D01*
X153479334Y-91443814D01*
X153628656Y-91351712D01*
X153752712Y-91227656D01*
X153844814Y-91078334D01*
X153899999Y-90911797D01*
X153910500Y-90809009D01*
X153910500Y-90809005D01*
X156859500Y-90809005D01*
X156859501Y-90809008D01*
X156870001Y-90911797D01*
X156925186Y-91078334D01*
X157017288Y-91227656D01*
X157141344Y-91351712D01*
X157290666Y-91443814D01*
X157457203Y-91498999D01*
X157559991Y-91509500D01*
X158160008Y-91509499D01*
X158262797Y-91498999D01*
X158429334Y-91443814D01*
X158578656Y-91351712D01*
X158702712Y-91227656D01*
X158794814Y-91078334D01*
X158849999Y-90911797D01*
X158860500Y-90809009D01*
X158860500Y-90809005D01*
X159529500Y-90809005D01*
X159529501Y-90809008D01*
X159540001Y-90911797D01*
X159595186Y-91078334D01*
X159687288Y-91227656D01*
X159811344Y-91351712D01*
X159960666Y-91443814D01*
X160127203Y-91498999D01*
X160229991Y-91509500D01*
X160830008Y-91509499D01*
X160932797Y-91498999D01*
X161099334Y-91443814D01*
X161248656Y-91351712D01*
X161372712Y-91227656D01*
X161464814Y-91078334D01*
X161519999Y-90911797D01*
X161530500Y-90809009D01*
X161530500Y-90809005D01*
X164479500Y-90809005D01*
X164479501Y-90809008D01*
X164490001Y-90911797D01*
X164545186Y-91078334D01*
X164637288Y-91227656D01*
X164761344Y-91351712D01*
X164910666Y-91443814D01*
X165077203Y-91498999D01*
X165179991Y-91509500D01*
X165780008Y-91509499D01*
X165882797Y-91498999D01*
X166049334Y-91443814D01*
X166198656Y-91351712D01*
X166322712Y-91227656D01*
X166414814Y-91078334D01*
X166469999Y-90911797D01*
X166480500Y-90809009D01*
X166480500Y-90809005D01*
X167149500Y-90809005D01*
X167149501Y-90809008D01*
X167160001Y-90911797D01*
X167215186Y-91078334D01*
X167307288Y-91227656D01*
X167431344Y-91351712D01*
X167580666Y-91443814D01*
X167747203Y-91498999D01*
X167849991Y-91509500D01*
X168450008Y-91509499D01*
X168552797Y-91498999D01*
X168719334Y-91443814D01*
X168868656Y-91351712D01*
X168992712Y-91227656D01*
X169084814Y-91078334D01*
X169139999Y-90911797D01*
X169150500Y-90809009D01*
X169150500Y-90809005D01*
X172099500Y-90809005D01*
X172099501Y-90809008D01*
X172110001Y-90911797D01*
X172165186Y-91078334D01*
X172257288Y-91227656D01*
X172381344Y-91351712D01*
X172530666Y-91443814D01*
X172697203Y-91498999D01*
X172799991Y-91509500D01*
X173400008Y-91509499D01*
X173502797Y-91498999D01*
X173669334Y-91443814D01*
X173818656Y-91351712D01*
X173942712Y-91227656D01*
X174034814Y-91078334D01*
X174089999Y-90911797D01*
X174100500Y-90809009D01*
X174100499Y-88408992D01*
X174089999Y-88306203D01*
X174034814Y-88139666D01*
X173942712Y-87990344D01*
X173818656Y-87866288D01*
X173669334Y-87774186D01*
X173586065Y-87746593D01*
X173502798Y-87719001D01*
X173485665Y-87717250D01*
X173400009Y-87708500D01*
X173400004Y-87708500D01*
X172799999Y-87708500D01*
X172799993Y-87708500D01*
X172799992Y-87708501D01*
X172748597Y-87713751D01*
X172697202Y-87719001D01*
X172530666Y-87774186D01*
X172381344Y-87866288D01*
X172257288Y-87990344D01*
X172165186Y-88139666D01*
X172110001Y-88306201D01*
X172099500Y-88408994D01*
X172099500Y-90809000D01*
X172099500Y-90809005D01*
X169150500Y-90809005D01*
X169150499Y-88408992D01*
X169139999Y-88306203D01*
X169084814Y-88139666D01*
X168992712Y-87990344D01*
X168868656Y-87866288D01*
X168719334Y-87774186D01*
X168636065Y-87746593D01*
X168552798Y-87719001D01*
X168535665Y-87717250D01*
X168450009Y-87708500D01*
X168450004Y-87708500D01*
X167849999Y-87708500D01*
X167849993Y-87708500D01*
X167849992Y-87708501D01*
X167798597Y-87713751D01*
X167747202Y-87719001D01*
X167580666Y-87774186D01*
X167431344Y-87866288D01*
X167307288Y-87990344D01*
X167215186Y-88139666D01*
X167160001Y-88306201D01*
X167149500Y-88408994D01*
X167149500Y-90809000D01*
X167149500Y-90809005D01*
X166480500Y-90809005D01*
X166480499Y-88408992D01*
X166469999Y-88306203D01*
X166414814Y-88139666D01*
X166322712Y-87990344D01*
X166198656Y-87866288D01*
X166049334Y-87774186D01*
X165966065Y-87746593D01*
X165882798Y-87719001D01*
X165865665Y-87717250D01*
X165780009Y-87708500D01*
X165780004Y-87708500D01*
X165179999Y-87708500D01*
X165179993Y-87708500D01*
X165179992Y-87708501D01*
X165128597Y-87713751D01*
X165077202Y-87719001D01*
X164910666Y-87774186D01*
X164761344Y-87866288D01*
X164637288Y-87990344D01*
X164545186Y-88139666D01*
X164490001Y-88306201D01*
X164479500Y-88408994D01*
X164479500Y-90809000D01*
X164479500Y-90809005D01*
X161530500Y-90809005D01*
X161530499Y-88408992D01*
X161519999Y-88306203D01*
X161464814Y-88139666D01*
X161372712Y-87990344D01*
X161248656Y-87866288D01*
X161099334Y-87774186D01*
X161016065Y-87746593D01*
X160932798Y-87719001D01*
X160915665Y-87717250D01*
X160830009Y-87708500D01*
X160830004Y-87708500D01*
X160229999Y-87708500D01*
X160229993Y-87708500D01*
X160229992Y-87708501D01*
X160178597Y-87713751D01*
X160127202Y-87719001D01*
X159960666Y-87774186D01*
X159811344Y-87866288D01*
X159687288Y-87990344D01*
X159595186Y-88139666D01*
X159540001Y-88306201D01*
X159529500Y-88408994D01*
X159529500Y-90809000D01*
X159529500Y-90809005D01*
X158860500Y-90809005D01*
X158860499Y-88408992D01*
X158849999Y-88306203D01*
X158794814Y-88139666D01*
X158702712Y-87990344D01*
X158578656Y-87866288D01*
X158429334Y-87774186D01*
X158346065Y-87746593D01*
X158262798Y-87719001D01*
X158245665Y-87717250D01*
X158160009Y-87708500D01*
X158160004Y-87708500D01*
X157559999Y-87708500D01*
X157559993Y-87708500D01*
X157559992Y-87708501D01*
X157508597Y-87713751D01*
X157457202Y-87719001D01*
X157290666Y-87774186D01*
X157141344Y-87866288D01*
X157017288Y-87990344D01*
X156925186Y-88139666D01*
X156870001Y-88306201D01*
X156859500Y-88408994D01*
X156859500Y-90809000D01*
X156859500Y-90809005D01*
X153910500Y-90809005D01*
X153910499Y-88408992D01*
X153899999Y-88306203D01*
X153844814Y-88139666D01*
X153752712Y-87990344D01*
X153628656Y-87866288D01*
X153479334Y-87774186D01*
X153396065Y-87746593D01*
X153312798Y-87719001D01*
X153295665Y-87717250D01*
X153210009Y-87708500D01*
X153210004Y-87708500D01*
X152609999Y-87708500D01*
X152609993Y-87708500D01*
X152609992Y-87708501D01*
X152558597Y-87713751D01*
X152507202Y-87719001D01*
X152340666Y-87774186D01*
X152191344Y-87866288D01*
X152067288Y-87990344D01*
X151975186Y-88139666D01*
X151920001Y-88306201D01*
X151909500Y-88408994D01*
X151909500Y-90809000D01*
X151909500Y-90809005D01*
X151240500Y-90809005D01*
X151240499Y-88408992D01*
X151229999Y-88306203D01*
X151174814Y-88139666D01*
X151082712Y-87990344D01*
X150958656Y-87866288D01*
X150809334Y-87774186D01*
X150726065Y-87746593D01*
X150642798Y-87719001D01*
X150625665Y-87717250D01*
X150540009Y-87708500D01*
X150540004Y-87708500D01*
X149939999Y-87708500D01*
X149939993Y-87708500D01*
X149939992Y-87708501D01*
X149888597Y-87713751D01*
X149837202Y-87719001D01*
X149670666Y-87774186D01*
X149521344Y-87866288D01*
X149397288Y-87990344D01*
X149305186Y-88139666D01*
X149250001Y-88306201D01*
X149239500Y-88408994D01*
X149239500Y-90809000D01*
X149239500Y-90809005D01*
X146290500Y-90809005D01*
X146290499Y-88408992D01*
X146279999Y-88306203D01*
X146224814Y-88139666D01*
X146132712Y-87990344D01*
X146008656Y-87866288D01*
X145859334Y-87774186D01*
X145776065Y-87746593D01*
X145692798Y-87719001D01*
X145675665Y-87717250D01*
X145590009Y-87708500D01*
X145590004Y-87708500D01*
X144989999Y-87708500D01*
X144989993Y-87708500D01*
X144989992Y-87708501D01*
X144938597Y-87713751D01*
X144887202Y-87719001D01*
X144720666Y-87774186D01*
X144571344Y-87866288D01*
X144447288Y-87990344D01*
X144355186Y-88139666D01*
X144300001Y-88306201D01*
X144289500Y-88408994D01*
X144289500Y-90809000D01*
X144289500Y-90809005D01*
X143620500Y-90809005D01*
X143620499Y-88408992D01*
X143609999Y-88306203D01*
X143554814Y-88139666D01*
X143462712Y-87990344D01*
X143338656Y-87866288D01*
X143189334Y-87774186D01*
X143106065Y-87746593D01*
X143022798Y-87719001D01*
X143005665Y-87717250D01*
X142920009Y-87708500D01*
X142920004Y-87708500D01*
X142319999Y-87708500D01*
X142319993Y-87708500D01*
X142319992Y-87708501D01*
X142268597Y-87713751D01*
X142217202Y-87719001D01*
X142050666Y-87774186D01*
X141901344Y-87866288D01*
X141777288Y-87990344D01*
X141685186Y-88139666D01*
X141630001Y-88306201D01*
X141619500Y-88408994D01*
X141619500Y-90809000D01*
X141619500Y-90809005D01*
X138670500Y-90809005D01*
X138670499Y-88408992D01*
X138659999Y-88306203D01*
X138604814Y-88139666D01*
X138512712Y-87990344D01*
X138388656Y-87866288D01*
X138239334Y-87774186D01*
X138156065Y-87746593D01*
X138072798Y-87719001D01*
X138055665Y-87717250D01*
X137970009Y-87708500D01*
X137970004Y-87708500D01*
X137369999Y-87708500D01*
X137369993Y-87708500D01*
X137369992Y-87708501D01*
X137318597Y-87713751D01*
X137267202Y-87719001D01*
X137100666Y-87774186D01*
X136951344Y-87866288D01*
X136827288Y-87990344D01*
X136735186Y-88139666D01*
X136680001Y-88306201D01*
X136669500Y-88408994D01*
X136669500Y-89472667D01*
X136652187Y-89520233D01*
X136608350Y-89545543D01*
X136558500Y-89536753D01*
X136525963Y-89497976D01*
X136524202Y-89492481D01*
X136452324Y-89233597D01*
X136319853Y-88901120D01*
X136152211Y-88584915D01*
X135951365Y-88288689D01*
X135719668Y-88015914D01*
X135459837Y-87769789D01*
X135459833Y-87769786D01*
X135459829Y-87769782D01*
X135290287Y-87640900D01*
X135200189Y-87572410D01*
X135172800Y-87529843D01*
X135179181Y-87479627D01*
X135216346Y-87445261D01*
X135244973Y-87439500D01*
X175665027Y-87439500D01*
X175712593Y-87456813D01*
G37*
G04 #@! TD.AperFunction*
G04 #@! TA.AperFunction,Conductor*
G36*
X175862712Y-93101593D02*
G01*
X176041741Y-93209312D01*
X176041745Y-93209314D01*
X176041747Y-93209315D01*
X176366565Y-93359591D01*
X176705726Y-93473868D01*
X177055254Y-93550805D01*
X177411052Y-93589500D01*
X177411061Y-93589500D01*
X177768939Y-93589500D01*
X177768948Y-93589500D01*
X178124746Y-93550805D01*
X178474274Y-93473868D01*
X178813435Y-93359591D01*
X179138253Y-93209315D01*
X179317288Y-93101592D01*
X179355439Y-93091000D01*
X180365500Y-93091000D01*
X180413066Y-93108313D01*
X180438376Y-93152150D01*
X180439500Y-93165000D01*
X180439500Y-97298499D01*
X180372360Y-107570871D01*
X180354737Y-107618323D01*
X180310735Y-107643345D01*
X180260944Y-107634230D01*
X180237114Y-107611916D01*
X180221365Y-107588689D01*
X180093793Y-107438500D01*
X179989668Y-107315914D01*
X179729837Y-107069789D01*
X179729833Y-107069786D01*
X179729829Y-107069782D01*
X179444913Y-106853195D01*
X179138258Y-106668687D01*
X178953852Y-106583372D01*
X178813435Y-106518409D01*
X178813433Y-106518408D01*
X178813428Y-106518406D01*
X178813422Y-106518404D01*
X178474286Y-106404136D01*
X178474283Y-106404135D01*
X178474274Y-106404132D01*
X178474272Y-106404131D01*
X178474264Y-106404129D01*
X178124752Y-106327196D01*
X178124749Y-106327195D01*
X178124746Y-106327195D01*
X177967897Y-106310136D01*
X177768961Y-106288501D01*
X177768954Y-106288500D01*
X177768948Y-106288500D01*
X177411052Y-106288500D01*
X177411046Y-106288500D01*
X177411038Y-106288501D01*
X177159819Y-106315822D01*
X177055254Y-106327195D01*
X177055251Y-106327195D01*
X177055247Y-106327196D01*
X176705735Y-106404129D01*
X176705713Y-106404136D01*
X176366577Y-106518404D01*
X176366571Y-106518406D01*
X176041741Y-106668687D01*
X175735086Y-106853195D01*
X175450170Y-107069782D01*
X175190333Y-107315913D01*
X174958636Y-107588687D01*
X174757789Y-107884913D01*
X174590151Y-108201110D01*
X174590144Y-108201127D01*
X174457681Y-108533581D01*
X174457675Y-108533601D01*
X174361927Y-108878454D01*
X174304027Y-109231634D01*
X174304026Y-109231638D01*
X174284652Y-109588990D01*
X174284652Y-109589009D01*
X174304026Y-109946361D01*
X174304027Y-109946365D01*
X174361927Y-110299545D01*
X174361929Y-110299552D01*
X174457676Y-110644403D01*
X174457678Y-110644408D01*
X174457681Y-110644418D01*
X174590144Y-110976872D01*
X174590151Y-110976889D01*
X174757789Y-111293086D01*
X174852715Y-111433091D01*
X174958635Y-111589311D01*
X175190332Y-111862086D01*
X175450163Y-112108211D01*
X175450166Y-112108213D01*
X175450170Y-112108217D01*
X175601195Y-112223022D01*
X175709810Y-112305589D01*
X175737200Y-112348157D01*
X175730819Y-112398373D01*
X175693654Y-112432739D01*
X175665027Y-112438500D01*
X135214973Y-112438500D01*
X135167407Y-112421187D01*
X135142097Y-112377350D01*
X135150887Y-112327500D01*
X135170188Y-112305590D01*
X135429837Y-112108211D01*
X135689668Y-111862086D01*
X135921365Y-111589311D01*
X136122211Y-111293085D01*
X136284555Y-110986873D01*
X137527500Y-110986873D01*
X137533909Y-111046485D01*
X137584202Y-111181329D01*
X137584203Y-111181330D01*
X137584204Y-111181331D01*
X137670454Y-111296546D01*
X137785669Y-111382796D01*
X137785670Y-111382797D01*
X137896605Y-111424172D01*
X137920517Y-111433091D01*
X137980127Y-111439500D01*
X141075872Y-111439499D01*
X141135483Y-111433091D01*
X141202907Y-111407943D01*
X141270329Y-111382797D01*
X141270329Y-111382796D01*
X141270331Y-111382796D01*
X141385546Y-111296546D01*
X141471796Y-111181331D01*
X141522091Y-111046483D01*
X141528500Y-110986873D01*
X150147500Y-110986873D01*
X150153909Y-111046485D01*
X150204202Y-111181329D01*
X150204203Y-111181330D01*
X150204204Y-111181331D01*
X150290454Y-111296546D01*
X150405669Y-111382796D01*
X150405670Y-111382797D01*
X150516605Y-111424172D01*
X150540517Y-111433091D01*
X150600127Y-111439500D01*
X153695872Y-111439499D01*
X153755483Y-111433091D01*
X153822907Y-111407943D01*
X153890329Y-111382797D01*
X153890329Y-111382796D01*
X153890331Y-111382796D01*
X154005546Y-111296546D01*
X154091796Y-111181331D01*
X154142091Y-111046483D01*
X154148500Y-110986873D01*
X162847500Y-110986873D01*
X162853909Y-111046485D01*
X162904202Y-111181329D01*
X162904203Y-111181330D01*
X162904204Y-111181331D01*
X162990454Y-111296546D01*
X163105669Y-111382796D01*
X163105670Y-111382797D01*
X163216605Y-111424172D01*
X163240517Y-111433091D01*
X163300127Y-111439500D01*
X166395872Y-111439499D01*
X166455483Y-111433091D01*
X166522907Y-111407943D01*
X166590329Y-111382797D01*
X166590329Y-111382796D01*
X166590331Y-111382796D01*
X166705546Y-111296546D01*
X166791796Y-111181331D01*
X166842091Y-111046483D01*
X166848500Y-110986873D01*
X166848499Y-107891128D01*
X166842091Y-107831517D01*
X166842089Y-107831512D01*
X166791797Y-107696670D01*
X166791796Y-107696669D01*
X166771388Y-107669408D01*
X166705546Y-107581454D01*
X166590331Y-107495204D01*
X166590330Y-107495203D01*
X166590329Y-107495202D01*
X166455487Y-107444910D01*
X166455484Y-107444909D01*
X166455483Y-107444909D01*
X166395873Y-107438500D01*
X163300126Y-107438500D01*
X163240514Y-107444909D01*
X163105670Y-107495202D01*
X163105669Y-107495203D01*
X162990454Y-107581454D01*
X162904203Y-107696669D01*
X162904202Y-107696670D01*
X162853910Y-107831512D01*
X162853909Y-107831517D01*
X162847500Y-107891126D01*
X162847500Y-110986873D01*
X154148500Y-110986873D01*
X154148499Y-107891128D01*
X154142091Y-107831517D01*
X154142089Y-107831512D01*
X154091797Y-107696670D01*
X154091796Y-107696669D01*
X154071388Y-107669408D01*
X154005546Y-107581454D01*
X153890331Y-107495204D01*
X153890330Y-107495203D01*
X153890329Y-107495202D01*
X153755487Y-107444910D01*
X153755484Y-107444909D01*
X153755483Y-107444909D01*
X153695873Y-107438500D01*
X150600126Y-107438500D01*
X150540514Y-107444909D01*
X150405670Y-107495202D01*
X150405669Y-107495203D01*
X150290454Y-107581454D01*
X150204203Y-107696669D01*
X150204202Y-107696670D01*
X150153910Y-107831512D01*
X150153909Y-107831517D01*
X150147500Y-107891126D01*
X150147500Y-110986873D01*
X141528500Y-110986873D01*
X141528499Y-107891128D01*
X141522091Y-107831517D01*
X141522089Y-107831512D01*
X141471797Y-107696670D01*
X141471796Y-107696669D01*
X141451388Y-107669408D01*
X141385546Y-107581454D01*
X141270331Y-107495204D01*
X141270330Y-107495203D01*
X141270329Y-107495202D01*
X141135487Y-107444910D01*
X141135484Y-107444909D01*
X141135483Y-107444909D01*
X141075873Y-107438500D01*
X137980126Y-107438500D01*
X137920514Y-107444909D01*
X137785670Y-107495202D01*
X137785669Y-107495203D01*
X137670454Y-107581454D01*
X137584203Y-107696669D01*
X137584202Y-107696670D01*
X137533910Y-107831512D01*
X137533909Y-107831517D01*
X137527500Y-107891126D01*
X137527500Y-110986873D01*
X136284555Y-110986873D01*
X136289853Y-110976880D01*
X136422324Y-110644403D01*
X136518071Y-110299552D01*
X136575972Y-109946371D01*
X136595348Y-109589000D01*
X136595348Y-109588990D01*
X136575973Y-109231638D01*
X136575972Y-109231634D01*
X136575972Y-109231629D01*
X136518071Y-108878448D01*
X136422324Y-108533597D01*
X136289853Y-108201120D01*
X136122211Y-107884915D01*
X135921365Y-107588689D01*
X135689668Y-107315914D01*
X135429837Y-107069789D01*
X135429833Y-107069786D01*
X135429829Y-107069782D01*
X135144913Y-106853195D01*
X134838258Y-106668687D01*
X134653852Y-106583372D01*
X134513435Y-106518409D01*
X134513433Y-106518408D01*
X134513428Y-106518406D01*
X134513422Y-106518404D01*
X134174286Y-106404136D01*
X134174283Y-106404135D01*
X134174274Y-106404132D01*
X134174272Y-106404131D01*
X134174264Y-106404129D01*
X133824752Y-106327196D01*
X133824749Y-106327195D01*
X133824746Y-106327195D01*
X133667897Y-106310136D01*
X133468961Y-106288501D01*
X133468954Y-106288500D01*
X133468948Y-106288500D01*
X133111052Y-106288500D01*
X133111046Y-106288500D01*
X133111038Y-106288501D01*
X132859819Y-106315822D01*
X132755254Y-106327195D01*
X132755251Y-106327195D01*
X132755247Y-106327196D01*
X132405735Y-106404129D01*
X132405713Y-106404136D01*
X132066577Y-106518404D01*
X132066571Y-106518406D01*
X131741741Y-106668687D01*
X131435086Y-106853195D01*
X131150170Y-107069782D01*
X130890333Y-107315913D01*
X130658636Y-107588687D01*
X130575749Y-107710936D01*
X130534726Y-107740590D01*
X130484239Y-107736938D01*
X130447911Y-107701687D01*
X130440500Y-107669408D01*
X130440500Y-104214000D01*
X130457813Y-104166434D01*
X130501650Y-104141124D01*
X130514500Y-104140000D01*
X132190501Y-104140000D01*
X132238067Y-104157313D01*
X132263377Y-104201150D01*
X132264500Y-104213998D01*
X132264501Y-104339008D01*
X132275001Y-104441797D01*
X132330186Y-104608334D01*
X132422288Y-104757656D01*
X132546344Y-104881712D01*
X132695666Y-104973814D01*
X132862203Y-105028999D01*
X132964991Y-105039500D01*
X134515008Y-105039499D01*
X134617797Y-105028999D01*
X134784334Y-104973814D01*
X134933656Y-104881712D01*
X135057712Y-104757656D01*
X135149814Y-104608334D01*
X135204999Y-104441797D01*
X135215500Y-104339009D01*
X135215500Y-104214000D01*
X135232813Y-104166434D01*
X135276650Y-104141124D01*
X135289500Y-104140000D01*
X137866355Y-104140000D01*
X137913921Y-104157313D01*
X137935689Y-104188140D01*
X137946202Y-104216329D01*
X137946203Y-104216330D01*
X137946204Y-104216331D01*
X138032454Y-104331546D01*
X138147669Y-104417796D01*
X138147670Y-104417797D01*
X138258312Y-104459063D01*
X138282517Y-104468091D01*
X138342127Y-104474500D01*
X140137872Y-104474499D01*
X140197483Y-104468091D01*
X140267981Y-104441797D01*
X140332329Y-104417797D01*
X140332329Y-104417796D01*
X140332331Y-104417796D01*
X140447546Y-104331546D01*
X140533796Y-104216331D01*
X140533797Y-104216329D01*
X140544311Y-104188140D01*
X140577154Y-104149623D01*
X140613645Y-104140000D01*
X140855453Y-104140000D01*
X140903019Y-104157313D01*
X140907767Y-104161663D01*
X140908599Y-104162495D01*
X141102170Y-104298035D01*
X141316337Y-104397903D01*
X141544592Y-104459063D01*
X141662296Y-104469361D01*
X141779996Y-104479659D01*
X141780000Y-104479659D01*
X141780004Y-104479659D01*
X141884625Y-104470505D01*
X142015408Y-104459063D01*
X142243663Y-104397903D01*
X142457830Y-104298035D01*
X142651401Y-104162495D01*
X142652222Y-104161673D01*
X142652575Y-104161508D01*
X142653873Y-104160420D01*
X142654164Y-104160767D01*
X142698097Y-104140282D01*
X142704547Y-104140000D01*
X155100822Y-104140000D01*
X155148388Y-104157313D01*
X155171066Y-104190723D01*
X155185186Y-104233334D01*
X155277288Y-104382656D01*
X155401344Y-104506712D01*
X155550666Y-104598814D01*
X155717203Y-104653999D01*
X155819991Y-104664500D01*
X158220008Y-104664499D01*
X158322797Y-104653999D01*
X158489334Y-104598814D01*
X158638656Y-104506712D01*
X158762712Y-104382656D01*
X158854814Y-104233334D01*
X158868934Y-104190723D01*
X158900331Y-104151017D01*
X158939178Y-104140000D01*
X162100822Y-104140000D01*
X162148388Y-104157313D01*
X162171066Y-104190723D01*
X162185186Y-104233334D01*
X162277288Y-104382656D01*
X162401344Y-104506712D01*
X162550666Y-104598814D01*
X162717203Y-104653999D01*
X162819991Y-104664500D01*
X165220008Y-104664499D01*
X165322797Y-104653999D01*
X165489334Y-104598814D01*
X165638656Y-104506712D01*
X165762712Y-104382656D01*
X165854814Y-104233334D01*
X165868934Y-104190723D01*
X165900331Y-104151017D01*
X165939178Y-104140000D01*
X169100822Y-104140000D01*
X169148388Y-104157313D01*
X169171066Y-104190723D01*
X169185186Y-104233334D01*
X169277288Y-104382656D01*
X169401344Y-104506712D01*
X169550666Y-104598814D01*
X169717203Y-104653999D01*
X169819991Y-104664500D01*
X172220008Y-104664499D01*
X172322797Y-104653999D01*
X172489334Y-104598814D01*
X172638656Y-104506712D01*
X172762712Y-104382656D01*
X172854814Y-104233334D01*
X172868934Y-104190723D01*
X172900331Y-104151017D01*
X172939178Y-104140000D01*
X173863000Y-104140000D01*
X173863000Y-102511005D01*
X176242532Y-102511005D01*
X176262364Y-102737688D01*
X176262365Y-102737696D01*
X176321258Y-102957488D01*
X176321260Y-102957492D01*
X176321261Y-102957496D01*
X176417432Y-103163734D01*
X176417434Y-103163736D01*
X176417435Y-103163739D01*
X176485680Y-103261203D01*
X176547953Y-103350139D01*
X176708861Y-103511047D01*
X176895266Y-103641568D01*
X177101504Y-103737739D01*
X177101510Y-103737740D01*
X177101511Y-103737741D01*
X177321303Y-103796634D01*
X177321305Y-103796634D01*
X177321308Y-103796635D01*
X177406317Y-103804072D01*
X177547995Y-103816468D01*
X177548000Y-103816468D01*
X177548005Y-103816468D01*
X177673940Y-103805449D01*
X177774692Y-103796635D01*
X177994496Y-103737739D01*
X178200734Y-103641568D01*
X178387139Y-103511047D01*
X178548047Y-103350139D01*
X178678568Y-103163734D01*
X178774739Y-102957496D01*
X178833635Y-102737692D01*
X178853468Y-102511000D01*
X178853468Y-102510994D01*
X178833635Y-102284311D01*
X178833634Y-102284303D01*
X178774741Y-102064511D01*
X178774740Y-102064510D01*
X178774739Y-102064504D01*
X178678568Y-101858266D01*
X178548047Y-101671861D01*
X178387139Y-101510953D01*
X178249389Y-101414500D01*
X178200739Y-101380435D01*
X178200736Y-101380434D01*
X178200734Y-101380432D01*
X177994496Y-101284261D01*
X177994492Y-101284260D01*
X177994488Y-101284258D01*
X177774696Y-101225365D01*
X177774688Y-101225364D01*
X177548005Y-101205532D01*
X177547995Y-101205532D01*
X177321311Y-101225364D01*
X177321303Y-101225365D01*
X177101511Y-101284258D01*
X177101504Y-101284260D01*
X177101504Y-101284261D01*
X176960725Y-101349908D01*
X176895260Y-101380435D01*
X176708860Y-101510953D01*
X176547953Y-101671860D01*
X176417435Y-101858260D01*
X176321263Y-102064500D01*
X176321258Y-102064511D01*
X176262365Y-102284303D01*
X176262364Y-102284311D01*
X176242532Y-102510994D01*
X176242532Y-102511005D01*
X173863000Y-102511005D01*
X173863000Y-93165000D01*
X173880313Y-93117434D01*
X173924150Y-93092124D01*
X173937000Y-93091000D01*
X175824561Y-93091000D01*
X175862712Y-93101593D01*
G37*
G04 #@! TD.AperFunction*
M02*
