G04 #@! TF.GenerationSoftware,KiCad,Pcbnew,7.0.9*
G04 #@! TF.CreationDate,2024-06-29T15:51:42+09:00*
G04 #@! TF.ProjectId,CAN_hab,43414e5f-6861-4622-9e6b-696361645f70,rev?*
G04 #@! TF.SameCoordinates,Original*
G04 #@! TF.FileFunction,Copper,L2,Inr*
G04 #@! TF.FilePolarity,Positive*
%FSLAX46Y46*%
G04 Gerber Fmt 4.6, Leading zero omitted, Abs format (unit mm)*
G04 Created by KiCad (PCBNEW 7.0.9) date 2024-06-29 15:51:42*
%MOMM*%
%LPD*%
G01*
G04 APERTURE LIST*
G04 Aperture macros list*
%AMRoundRect*
0 Rectangle with rounded corners*
0 $1 Rounding radius*
0 $2 $3 $4 $5 $6 $7 $8 $9 X,Y pos of 4 corners*
0 Add a 4 corners polygon primitive as box body*
4,1,4,$2,$3,$4,$5,$6,$7,$8,$9,$2,$3,0*
0 Add four circle primitives for the rounded corners*
1,1,$1+$1,$2,$3*
1,1,$1+$1,$4,$5*
1,1,$1+$1,$6,$7*
1,1,$1+$1,$8,$9*
0 Add four rect primitives between the rounded corners*
20,1,$1+$1,$2,$3,$4,$5,0*
20,1,$1+$1,$4,$5,$6,$7,0*
20,1,$1+$1,$6,$7,$8,$9,0*
20,1,$1+$1,$8,$9,$2,$3,0*%
G04 Aperture macros list end*
G04 #@! TA.AperFunction,ComponentPad*
%ADD10R,3.000000X3.000000*%
G04 #@! TD*
G04 #@! TA.AperFunction,ComponentPad*
%ADD11C,3.000000*%
G04 #@! TD*
G04 #@! TA.AperFunction,ComponentPad*
%ADD12C,1.000000*%
G04 #@! TD*
G04 #@! TA.AperFunction,ComponentPad*
%ADD13C,5.600000*%
G04 #@! TD*
G04 #@! TA.AperFunction,ComponentPad*
%ADD14R,1.700000X1.700000*%
G04 #@! TD*
G04 #@! TA.AperFunction,ComponentPad*
%ADD15O,1.700000X1.700000*%
G04 #@! TD*
G04 #@! TA.AperFunction,ComponentPad*
%ADD16RoundRect,0.250000X0.725000X-0.600000X0.725000X0.600000X-0.725000X0.600000X-0.725000X-0.600000X0*%
G04 #@! TD*
G04 #@! TA.AperFunction,ComponentPad*
%ADD17O,1.950000X1.700000*%
G04 #@! TD*
G04 #@! TA.AperFunction,ComponentPad*
%ADD18C,1.600000*%
G04 #@! TD*
G04 #@! TA.AperFunction,ViaPad*
%ADD19C,0.500000*%
G04 #@! TD*
G04 APERTURE END LIST*
D10*
X164848000Y-109439000D03*
D11*
X169848000Y-109439000D03*
D10*
X152148000Y-109439000D03*
D11*
X157148000Y-109439000D03*
D12*
X131090000Y-109589000D03*
X131734370Y-108033370D03*
X131734370Y-111144630D03*
X133290000Y-107389000D03*
D13*
X133290000Y-109589000D03*
D12*
X133290000Y-111789000D03*
X134845630Y-108033370D03*
X134845630Y-111144630D03*
X135490000Y-109589000D03*
X175390000Y-90289000D03*
X176034370Y-88733370D03*
X176034370Y-91844630D03*
X177590000Y-88089000D03*
D13*
X177590000Y-90289000D03*
D12*
X177590000Y-92489000D03*
X179145630Y-88733370D03*
X179145630Y-91844630D03*
X179790000Y-90289000D03*
D10*
X139528000Y-109439000D03*
D11*
X144528000Y-109439000D03*
D14*
X139240000Y-103439000D03*
D15*
X141780000Y-103439000D03*
D16*
X133740000Y-103689000D03*
D17*
X133740000Y-101189000D03*
X133740000Y-98689000D03*
X133740000Y-96189000D03*
D12*
X175390000Y-109589000D03*
X176034370Y-108033370D03*
X176034370Y-111144630D03*
X177590000Y-107389000D03*
D13*
X177590000Y-109589000D03*
D12*
X177590000Y-111789000D03*
X179145630Y-108033370D03*
X179145630Y-111144630D03*
X179790000Y-109589000D03*
X131120000Y-90289000D03*
X131764370Y-88733370D03*
X131764370Y-91844630D03*
X133320000Y-88089000D03*
D13*
X133320000Y-90289000D03*
D12*
X133320000Y-92489000D03*
X134875630Y-88733370D03*
X134875630Y-91844630D03*
X135520000Y-90289000D03*
D14*
X141780000Y-96439000D03*
D15*
X139240000Y-96439000D03*
D18*
X177548000Y-102511000D03*
X177548000Y-96011000D03*
D19*
X153670000Y-99314000D03*
X160670000Y-99314000D03*
X167670000Y-99314000D03*
X153670000Y-101814000D03*
X170000000Y-92959000D03*
X147140000Y-92959000D03*
X160670000Y-101814000D03*
X148390000Y-98451000D03*
X139520000Y-92959000D03*
X162380000Y-92959000D03*
X154760000Y-92959000D03*
X167670000Y-101814000D03*
X167670000Y-100564000D03*
X160670000Y-100564000D03*
X153670000Y-100564000D03*
G04 #@! TA.AperFunction,Conductor*
G36*
X175712593Y-87456813D02*
G01*
X175737903Y-87500650D01*
X175729113Y-87550500D01*
X175709811Y-87572409D01*
X175651320Y-87616873D01*
X175450170Y-87769782D01*
X175190333Y-88015913D01*
X174958636Y-88288687D01*
X174757789Y-88584913D01*
X174590151Y-88901110D01*
X174590144Y-88901127D01*
X174457681Y-89233581D01*
X174457675Y-89233601D01*
X174361927Y-89578454D01*
X174304027Y-89931634D01*
X174304026Y-89931638D01*
X174284652Y-90288990D01*
X174284652Y-90289009D01*
X174304026Y-90646361D01*
X174304027Y-90646365D01*
X174361927Y-90999545D01*
X174361929Y-90999552D01*
X174457676Y-91344403D01*
X174457678Y-91344408D01*
X174457681Y-91344418D01*
X174590144Y-91676872D01*
X174590151Y-91676889D01*
X174757789Y-91993086D01*
X174855643Y-92137409D01*
X174958635Y-92289311D01*
X175190332Y-92562086D01*
X175450163Y-92808211D01*
X175450166Y-92808213D01*
X175450170Y-92808217D01*
X175735086Y-93024804D01*
X176041741Y-93209312D01*
X176041745Y-93209314D01*
X176041747Y-93209315D01*
X176366565Y-93359591D01*
X176705726Y-93473868D01*
X177055254Y-93550805D01*
X177411052Y-93589500D01*
X177411061Y-93589500D01*
X177768939Y-93589500D01*
X177768948Y-93589500D01*
X178124746Y-93550805D01*
X178474274Y-93473868D01*
X178813435Y-93359591D01*
X179138253Y-93209315D01*
X179274950Y-93127067D01*
X179444913Y-93024804D01*
X179444915Y-93024802D01*
X179444919Y-93024800D01*
X179729837Y-92808211D01*
X179989668Y-92562086D01*
X180221365Y-92289311D01*
X180304251Y-92167062D01*
X180345274Y-92137409D01*
X180395761Y-92141061D01*
X180432089Y-92176312D01*
X180439500Y-92208591D01*
X180439500Y-105365000D01*
X180422187Y-105412566D01*
X180378350Y-105437876D01*
X180365500Y-105439000D01*
X130514500Y-105439000D01*
X130466934Y-105421687D01*
X130441624Y-105377850D01*
X130440500Y-105365000D01*
X130440500Y-104339005D01*
X132264500Y-104339005D01*
X132264501Y-104339008D01*
X132275001Y-104441797D01*
X132330186Y-104608334D01*
X132422288Y-104757656D01*
X132546344Y-104881712D01*
X132695666Y-104973814D01*
X132862203Y-105028999D01*
X132964991Y-105039500D01*
X134515008Y-105039499D01*
X134617797Y-105028999D01*
X134784334Y-104973814D01*
X134933656Y-104881712D01*
X135057712Y-104757656D01*
X135149814Y-104608334D01*
X135204999Y-104441797D01*
X135215500Y-104339009D01*
X135215500Y-104336873D01*
X137889500Y-104336873D01*
X137895909Y-104396485D01*
X137946202Y-104531329D01*
X137946203Y-104531330D01*
X137946204Y-104531331D01*
X138032454Y-104646546D01*
X138147669Y-104732796D01*
X138147670Y-104732797D01*
X138214319Y-104757655D01*
X138282517Y-104783091D01*
X138342127Y-104789500D01*
X140137872Y-104789499D01*
X140197483Y-104783091D01*
X140265681Y-104757655D01*
X140332329Y-104732797D01*
X140332329Y-104732796D01*
X140332331Y-104732796D01*
X140447546Y-104646546D01*
X140533796Y-104531331D01*
X140584091Y-104396483D01*
X140590500Y-104336873D01*
X140590499Y-104329446D01*
X140607807Y-104281881D01*
X140651641Y-104256567D01*
X140701492Y-104265351D01*
X140725115Y-104286995D01*
X140741501Y-104310396D01*
X140741505Y-104310401D01*
X140908599Y-104477495D01*
X141102170Y-104613035D01*
X141316337Y-104712903D01*
X141544592Y-104774063D01*
X141662296Y-104784361D01*
X141779996Y-104794659D01*
X141780000Y-104794659D01*
X141780004Y-104794659D01*
X141884625Y-104785505D01*
X142015408Y-104774063D01*
X142243663Y-104712903D01*
X142457830Y-104613035D01*
X142651401Y-104477495D01*
X142818495Y-104310401D01*
X142954035Y-104116830D01*
X143053903Y-103902663D01*
X143115063Y-103674408D01*
X143135659Y-103439000D01*
X143127884Y-103350139D01*
X143115063Y-103203596D01*
X143115063Y-103203592D01*
X143053903Y-102975337D01*
X142954035Y-102761171D01*
X142818495Y-102567599D01*
X142651401Y-102400505D01*
X142651398Y-102400503D01*
X142651399Y-102400503D01*
X142562849Y-102338500D01*
X142457830Y-102264965D01*
X142243663Y-102165097D01*
X142015408Y-102103937D01*
X142015406Y-102103936D01*
X142015403Y-102103936D01*
X141780004Y-102083341D01*
X141779996Y-102083341D01*
X141544596Y-102103936D01*
X141544592Y-102103936D01*
X141544592Y-102103937D01*
X141316337Y-102165097D01*
X141316336Y-102165097D01*
X141316334Y-102165098D01*
X141316333Y-102165099D01*
X141102167Y-102264967D01*
X140908602Y-102400502D01*
X140908599Y-102400504D01*
X140741505Y-102567598D01*
X140725116Y-102591005D01*
X140683651Y-102620039D01*
X140633225Y-102615627D01*
X140597432Y-102579833D01*
X140590499Y-102548560D01*
X140590499Y-102541126D01*
X140587260Y-102511000D01*
X140584091Y-102481517D01*
X140555357Y-102404477D01*
X140533797Y-102346670D01*
X140533796Y-102346669D01*
X140487544Y-102284885D01*
X140447546Y-102231454D01*
X140332331Y-102145204D01*
X140332330Y-102145203D01*
X140332329Y-102145202D01*
X140197487Y-102094910D01*
X140197484Y-102094909D01*
X140197483Y-102094909D01*
X140137873Y-102088500D01*
X138342126Y-102088500D01*
X138282514Y-102094909D01*
X138147670Y-102145202D01*
X138147669Y-102145203D01*
X138032454Y-102231454D01*
X137946203Y-102346669D01*
X137946202Y-102346670D01*
X137895910Y-102481512D01*
X137895909Y-102481517D01*
X137889500Y-102541126D01*
X137889500Y-104336873D01*
X135215500Y-104336873D01*
X135215499Y-103038992D01*
X135204999Y-102936203D01*
X135149814Y-102769666D01*
X135057712Y-102620344D01*
X134933656Y-102496288D01*
X134784334Y-102404186D01*
X134701065Y-102376593D01*
X134617798Y-102349001D01*
X134594970Y-102346669D01*
X134515009Y-102338500D01*
X134515004Y-102338500D01*
X132964999Y-102338500D01*
X132964993Y-102338500D01*
X132964992Y-102338501D01*
X132913597Y-102343751D01*
X132862202Y-102349001D01*
X132695666Y-102404186D01*
X132546344Y-102496288D01*
X132422288Y-102620344D01*
X132330186Y-102769666D01*
X132275001Y-102936201D01*
X132264500Y-103038994D01*
X132264500Y-104339000D01*
X132264500Y-104339005D01*
X130440500Y-104339005D01*
X130440500Y-101814000D01*
X152914751Y-101814000D01*
X152933687Y-101982059D01*
X152933689Y-101982067D01*
X152989544Y-102141691D01*
X153079519Y-102284885D01*
X153079521Y-102284887D01*
X153079523Y-102284890D01*
X153199110Y-102404477D01*
X153199112Y-102404478D01*
X153199114Y-102404480D01*
X153342308Y-102494455D01*
X153342310Y-102494456D01*
X153389605Y-102511005D01*
X153475691Y-102541128D01*
X153501941Y-102550313D01*
X153670000Y-102569249D01*
X153838059Y-102550313D01*
X153997690Y-102494456D01*
X154140890Y-102404477D01*
X154260477Y-102284890D01*
X154350456Y-102141690D01*
X154406313Y-101982059D01*
X154425249Y-101814000D01*
X159914751Y-101814000D01*
X159933687Y-101982059D01*
X159933689Y-101982067D01*
X159989544Y-102141691D01*
X160079519Y-102284885D01*
X160079521Y-102284887D01*
X160079523Y-102284890D01*
X160199110Y-102404477D01*
X160199112Y-102404478D01*
X160199114Y-102404480D01*
X160342308Y-102494455D01*
X160342310Y-102494456D01*
X160389605Y-102511005D01*
X160475691Y-102541128D01*
X160501941Y-102550313D01*
X160670000Y-102569249D01*
X160838059Y-102550313D01*
X160997690Y-102494456D01*
X161140890Y-102404477D01*
X161260477Y-102284890D01*
X161350456Y-102141690D01*
X161406313Y-101982059D01*
X161425249Y-101814000D01*
X166914751Y-101814000D01*
X166933687Y-101982059D01*
X166933689Y-101982067D01*
X166989544Y-102141691D01*
X167079519Y-102284885D01*
X167079521Y-102284887D01*
X167079523Y-102284890D01*
X167199110Y-102404477D01*
X167199112Y-102404478D01*
X167199114Y-102404480D01*
X167342308Y-102494455D01*
X167342310Y-102494456D01*
X167389605Y-102511005D01*
X167475691Y-102541128D01*
X167501941Y-102550313D01*
X167670000Y-102569249D01*
X167838059Y-102550313D01*
X167950395Y-102511005D01*
X176242532Y-102511005D01*
X176262364Y-102737688D01*
X176262365Y-102737696D01*
X176321258Y-102957488D01*
X176321260Y-102957492D01*
X176321261Y-102957496D01*
X176417432Y-103163734D01*
X176417434Y-103163736D01*
X176417435Y-103163739D01*
X176445343Y-103203596D01*
X176547953Y-103350139D01*
X176708861Y-103511047D01*
X176895266Y-103641568D01*
X177101504Y-103737739D01*
X177101510Y-103737740D01*
X177101511Y-103737741D01*
X177321303Y-103796634D01*
X177321305Y-103796634D01*
X177321308Y-103796635D01*
X177406317Y-103804072D01*
X177547995Y-103816468D01*
X177548000Y-103816468D01*
X177548005Y-103816468D01*
X177673940Y-103805449D01*
X177774692Y-103796635D01*
X177994496Y-103737739D01*
X178200734Y-103641568D01*
X178387139Y-103511047D01*
X178548047Y-103350139D01*
X178678568Y-103163734D01*
X178774739Y-102957496D01*
X178833635Y-102737692D01*
X178844314Y-102615627D01*
X178853468Y-102511005D01*
X178853468Y-102510994D01*
X178833635Y-102284311D01*
X178833634Y-102284303D01*
X178774741Y-102064511D01*
X178774740Y-102064510D01*
X178774739Y-102064504D01*
X178678568Y-101858266D01*
X178548047Y-101671861D01*
X178387139Y-101510953D01*
X178351942Y-101486308D01*
X178200739Y-101380435D01*
X178200736Y-101380434D01*
X178200734Y-101380432D01*
X177994496Y-101284261D01*
X177994492Y-101284260D01*
X177994488Y-101284258D01*
X177774696Y-101225365D01*
X177774688Y-101225364D01*
X177548005Y-101205532D01*
X177547995Y-101205532D01*
X177321311Y-101225364D01*
X177321303Y-101225365D01*
X177101511Y-101284258D01*
X177101504Y-101284260D01*
X177101504Y-101284261D01*
X176975295Y-101343114D01*
X176895260Y-101380435D01*
X176708860Y-101510953D01*
X176547953Y-101671860D01*
X176417435Y-101858260D01*
X176321263Y-102064500D01*
X176321258Y-102064511D01*
X176262365Y-102284303D01*
X176262364Y-102284311D01*
X176242532Y-102510994D01*
X176242532Y-102511005D01*
X167950395Y-102511005D01*
X167997690Y-102494456D01*
X168140890Y-102404477D01*
X168260477Y-102284890D01*
X168350456Y-102141690D01*
X168406313Y-101982059D01*
X168425249Y-101814000D01*
X168406313Y-101645941D01*
X168350456Y-101486310D01*
X168283930Y-101380435D01*
X168260480Y-101343114D01*
X168260478Y-101343112D01*
X168260477Y-101343110D01*
X168158691Y-101241324D01*
X168137300Y-101195450D01*
X168150401Y-101146555D01*
X168158686Y-101136680D01*
X168260477Y-101034890D01*
X168350456Y-100891690D01*
X168406313Y-100732059D01*
X168425249Y-100564000D01*
X168406313Y-100395941D01*
X168350456Y-100236310D01*
X168260477Y-100093110D01*
X168140890Y-99973523D01*
X168140887Y-99973521D01*
X168140885Y-99973519D01*
X167997691Y-99883544D01*
X167838067Y-99827689D01*
X167838059Y-99827687D01*
X167670000Y-99808751D01*
X167501940Y-99827687D01*
X167501932Y-99827689D01*
X167342308Y-99883544D01*
X167199114Y-99973519D01*
X167079519Y-100093114D01*
X166989544Y-100236308D01*
X166933689Y-100395932D01*
X166933687Y-100395940D01*
X166914751Y-100564000D01*
X166933687Y-100732059D01*
X166933689Y-100732067D01*
X166989544Y-100891691D01*
X167079519Y-101034885D01*
X167079520Y-101034886D01*
X167079523Y-101034890D01*
X167181308Y-101136675D01*
X167202700Y-101182550D01*
X167189599Y-101231445D01*
X167181313Y-101241319D01*
X167079523Y-101343110D01*
X167079520Y-101343113D01*
X167079519Y-101343114D01*
X166989544Y-101486308D01*
X166933689Y-101645932D01*
X166933687Y-101645940D01*
X166914751Y-101814000D01*
X161425249Y-101814000D01*
X161406313Y-101645941D01*
X161350456Y-101486310D01*
X161283930Y-101380435D01*
X161260480Y-101343114D01*
X161260478Y-101343112D01*
X161260477Y-101343110D01*
X161158691Y-101241324D01*
X161137300Y-101195450D01*
X161150401Y-101146555D01*
X161158686Y-101136680D01*
X161260477Y-101034890D01*
X161350456Y-100891690D01*
X161406313Y-100732059D01*
X161425249Y-100564000D01*
X161406313Y-100395941D01*
X161350456Y-100236310D01*
X161260477Y-100093110D01*
X161140890Y-99973523D01*
X161140887Y-99973521D01*
X161140885Y-99973519D01*
X160997691Y-99883544D01*
X160838067Y-99827689D01*
X160838059Y-99827687D01*
X160670000Y-99808751D01*
X160501940Y-99827687D01*
X160501932Y-99827689D01*
X160342308Y-99883544D01*
X160199114Y-99973519D01*
X160079519Y-100093114D01*
X159989544Y-100236308D01*
X159933689Y-100395932D01*
X159933687Y-100395940D01*
X159914751Y-100564000D01*
X159933687Y-100732059D01*
X159933689Y-100732067D01*
X159989544Y-100891691D01*
X160079519Y-101034885D01*
X160079520Y-101034886D01*
X160079523Y-101034890D01*
X160181308Y-101136675D01*
X160202700Y-101182550D01*
X160189599Y-101231445D01*
X160181313Y-101241319D01*
X160079523Y-101343110D01*
X160079520Y-101343113D01*
X160079519Y-101343114D01*
X159989544Y-101486308D01*
X159933689Y-101645932D01*
X159933687Y-101645940D01*
X159914751Y-101814000D01*
X154425249Y-101814000D01*
X154406313Y-101645941D01*
X154350456Y-101486310D01*
X154283930Y-101380435D01*
X154260480Y-101343114D01*
X154260478Y-101343112D01*
X154260477Y-101343110D01*
X154158691Y-101241324D01*
X154137300Y-101195450D01*
X154150401Y-101146555D01*
X154158686Y-101136680D01*
X154260477Y-101034890D01*
X154350456Y-100891690D01*
X154406313Y-100732059D01*
X154425249Y-100564000D01*
X154406313Y-100395941D01*
X154350456Y-100236310D01*
X154260477Y-100093110D01*
X154140890Y-99973523D01*
X154140887Y-99973521D01*
X154140885Y-99973519D01*
X153997691Y-99883544D01*
X153838067Y-99827689D01*
X153838059Y-99827687D01*
X153670000Y-99808751D01*
X153501940Y-99827687D01*
X153501932Y-99827689D01*
X153342308Y-99883544D01*
X153199114Y-99973519D01*
X153079519Y-100093114D01*
X152989544Y-100236308D01*
X152933689Y-100395932D01*
X152933687Y-100395940D01*
X152914751Y-100564000D01*
X152933687Y-100732059D01*
X152933689Y-100732067D01*
X152989544Y-100891691D01*
X153079519Y-101034885D01*
X153079520Y-101034886D01*
X153079523Y-101034890D01*
X153181308Y-101136675D01*
X153202700Y-101182550D01*
X153189599Y-101231445D01*
X153181313Y-101241319D01*
X153079523Y-101343110D01*
X153079520Y-101343113D01*
X153079519Y-101343114D01*
X152989544Y-101486308D01*
X152933689Y-101645932D01*
X152933687Y-101645940D01*
X152914751Y-101814000D01*
X130440500Y-101814000D01*
X130440500Y-98689004D01*
X132259341Y-98689004D01*
X132279936Y-98924403D01*
X132279936Y-98924406D01*
X132279937Y-98924408D01*
X132341097Y-99152663D01*
X132440965Y-99366829D01*
X132576505Y-99560401D01*
X132743599Y-99727495D01*
X132937171Y-99863035D01*
X133151337Y-99962903D01*
X133379592Y-100024063D01*
X133556034Y-100039500D01*
X133556036Y-100039500D01*
X133923964Y-100039500D01*
X133923966Y-100039500D01*
X134100408Y-100024063D01*
X134328663Y-99962903D01*
X134542829Y-99863035D01*
X134736401Y-99727495D01*
X134903495Y-99560401D01*
X135039035Y-99366830D01*
X135138903Y-99152663D01*
X135200063Y-98924408D01*
X135220659Y-98689000D01*
X135200063Y-98453592D01*
X135199368Y-98451000D01*
X147634751Y-98451000D01*
X147653687Y-98619059D01*
X147653689Y-98619067D01*
X147709544Y-98778691D01*
X147799519Y-98921885D01*
X147799521Y-98921887D01*
X147799523Y-98921890D01*
X147919110Y-99041477D01*
X147919112Y-99041478D01*
X147919114Y-99041480D01*
X148062308Y-99131455D01*
X148062310Y-99131456D01*
X148221941Y-99187313D01*
X148390000Y-99206249D01*
X148558059Y-99187313D01*
X148717690Y-99131456D01*
X148860890Y-99041477D01*
X148980477Y-98921890D01*
X149070456Y-98778690D01*
X149126313Y-98619059D01*
X149145249Y-98451000D01*
X149126313Y-98282941D01*
X149070456Y-98123310D01*
X148999994Y-98011171D01*
X148980480Y-97980114D01*
X148980478Y-97980112D01*
X148980477Y-97980110D01*
X148860890Y-97860523D01*
X148860887Y-97860521D01*
X148860885Y-97860519D01*
X148717691Y-97770544D01*
X148558067Y-97714689D01*
X148558059Y-97714687D01*
X148390000Y-97695751D01*
X148221940Y-97714687D01*
X148221932Y-97714689D01*
X148062308Y-97770544D01*
X147919114Y-97860519D01*
X147799519Y-97980114D01*
X147709544Y-98123308D01*
X147653689Y-98282932D01*
X147653687Y-98282940D01*
X147634751Y-98451000D01*
X135199368Y-98451000D01*
X135138903Y-98225337D01*
X135039035Y-98011171D01*
X134903495Y-97817599D01*
X134736401Y-97650505D01*
X134542829Y-97514965D01*
X134523744Y-97506065D01*
X134487953Y-97470273D01*
X134483542Y-97419847D01*
X134512576Y-97378383D01*
X134523740Y-97371935D01*
X134542829Y-97363035D01*
X134736401Y-97227495D01*
X134903495Y-97060401D01*
X135039035Y-96866830D01*
X135138903Y-96652663D01*
X135196152Y-96439004D01*
X137884341Y-96439004D01*
X137904936Y-96674403D01*
X137904936Y-96674406D01*
X137904937Y-96674408D01*
X137966097Y-96902663D01*
X138065965Y-97116830D01*
X138201505Y-97310401D01*
X138368599Y-97477495D01*
X138562170Y-97613035D01*
X138776337Y-97712903D01*
X139004592Y-97774063D01*
X139122296Y-97784361D01*
X139239996Y-97794659D01*
X139240000Y-97794659D01*
X139240004Y-97794659D01*
X139344625Y-97785505D01*
X139475408Y-97774063D01*
X139703663Y-97712903D01*
X139917830Y-97613035D01*
X140111401Y-97477495D01*
X140278495Y-97310401D01*
X140294884Y-97286994D01*
X140336345Y-97257961D01*
X140386771Y-97262371D01*
X140422566Y-97298163D01*
X140429500Y-97329431D01*
X140429500Y-97336872D01*
X140435909Y-97396485D01*
X140486202Y-97531329D01*
X140486203Y-97531330D01*
X140486204Y-97531331D01*
X140572454Y-97646546D01*
X140663479Y-97714687D01*
X140687669Y-97732796D01*
X140687670Y-97732797D01*
X140788877Y-97770544D01*
X140822517Y-97783091D01*
X140882127Y-97789500D01*
X142677872Y-97789499D01*
X142737483Y-97783091D01*
X142804907Y-97757943D01*
X142872329Y-97732797D01*
X142872329Y-97732796D01*
X142872331Y-97732796D01*
X142987546Y-97646546D01*
X143073796Y-97531331D01*
X143079900Y-97514967D01*
X143093875Y-97477496D01*
X143124091Y-97396483D01*
X143130500Y-97336873D01*
X143130499Y-96011005D01*
X176242532Y-96011005D01*
X176262364Y-96237688D01*
X176262365Y-96237696D01*
X176321258Y-96457488D01*
X176321260Y-96457492D01*
X176321261Y-96457496D01*
X176417432Y-96663734D01*
X176417434Y-96663736D01*
X176417435Y-96663739D01*
X176547953Y-96850139D01*
X176708861Y-97011047D01*
X176895266Y-97141568D01*
X177101504Y-97237739D01*
X177101510Y-97237740D01*
X177101511Y-97237741D01*
X177321303Y-97296634D01*
X177321305Y-97296634D01*
X177321308Y-97296635D01*
X177406317Y-97304072D01*
X177547995Y-97316468D01*
X177548000Y-97316468D01*
X177548005Y-97316468D01*
X177673940Y-97305449D01*
X177774692Y-97296635D01*
X177994496Y-97237739D01*
X178200734Y-97141568D01*
X178387139Y-97011047D01*
X178548047Y-96850139D01*
X178678568Y-96663734D01*
X178774739Y-96457496D01*
X178833635Y-96237692D01*
X178853468Y-96011000D01*
X178853468Y-96010994D01*
X178833635Y-95784311D01*
X178833634Y-95784303D01*
X178774741Y-95564511D01*
X178774740Y-95564510D01*
X178774739Y-95564504D01*
X178678568Y-95358266D01*
X178670448Y-95346670D01*
X178613239Y-95264966D01*
X178548047Y-95171861D01*
X178387139Y-95010953D01*
X178200739Y-94880435D01*
X178200736Y-94880434D01*
X178200734Y-94880432D01*
X177994496Y-94784261D01*
X177994492Y-94784260D01*
X177994488Y-94784258D01*
X177774696Y-94725365D01*
X177774688Y-94725364D01*
X177548005Y-94705532D01*
X177547995Y-94705532D01*
X177321311Y-94725364D01*
X177321303Y-94725365D01*
X177101511Y-94784258D01*
X177101504Y-94784260D01*
X177101504Y-94784261D01*
X176952085Y-94853937D01*
X176895260Y-94880435D01*
X176708860Y-95010953D01*
X176547953Y-95171860D01*
X176417435Y-95358260D01*
X176417432Y-95358265D01*
X176417432Y-95358266D01*
X176328697Y-95548558D01*
X176321263Y-95564500D01*
X176321258Y-95564511D01*
X176262365Y-95784303D01*
X176262364Y-95784311D01*
X176242532Y-96010994D01*
X176242532Y-96011005D01*
X143130499Y-96011005D01*
X143130499Y-95541128D01*
X143124091Y-95481517D01*
X143093876Y-95400505D01*
X143073797Y-95346670D01*
X143073796Y-95346669D01*
X143052036Y-95317602D01*
X142987546Y-95231454D01*
X142872331Y-95145204D01*
X142872330Y-95145203D01*
X142872329Y-95145202D01*
X142737487Y-95094910D01*
X142737484Y-95094909D01*
X142737483Y-95094909D01*
X142677873Y-95088500D01*
X140882126Y-95088500D01*
X140822514Y-95094909D01*
X140687670Y-95145202D01*
X140687669Y-95145203D01*
X140572454Y-95231454D01*
X140486203Y-95346669D01*
X140486202Y-95346670D01*
X140435910Y-95481512D01*
X140435909Y-95481517D01*
X140429500Y-95541126D01*
X140429500Y-95548558D01*
X140412187Y-95596124D01*
X140368350Y-95621434D01*
X140318500Y-95612644D01*
X140294883Y-95591004D01*
X140278495Y-95567599D01*
X140111401Y-95400505D01*
X140111398Y-95400503D01*
X140111399Y-95400503D01*
X139993003Y-95317602D01*
X139917830Y-95264965D01*
X139703663Y-95165097D01*
X139475408Y-95103937D01*
X139475406Y-95103936D01*
X139475403Y-95103936D01*
X139240004Y-95083341D01*
X139239996Y-95083341D01*
X139004596Y-95103936D01*
X139004592Y-95103936D01*
X139004592Y-95103937D01*
X138776337Y-95165097D01*
X138776336Y-95165097D01*
X138776334Y-95165098D01*
X138776333Y-95165099D01*
X138562167Y-95264967D01*
X138368602Y-95400502D01*
X138368599Y-95400504D01*
X138201504Y-95567599D01*
X138201502Y-95567602D01*
X138065967Y-95761167D01*
X137966099Y-95975333D01*
X137966098Y-95975334D01*
X137904936Y-96203596D01*
X137884341Y-96438995D01*
X137884341Y-96439004D01*
X135196152Y-96439004D01*
X135200063Y-96424408D01*
X135219382Y-96203596D01*
X135220659Y-96189004D01*
X135220659Y-96188995D01*
X135200063Y-95953596D01*
X135200063Y-95953592D01*
X135138903Y-95725337D01*
X135039035Y-95511171D01*
X134903495Y-95317599D01*
X134736401Y-95150505D01*
X134728830Y-95145204D01*
X134542832Y-95014967D01*
X134542831Y-95014966D01*
X134542829Y-95014965D01*
X134328663Y-94915097D01*
X134100408Y-94853937D01*
X134100406Y-94853936D01*
X134100403Y-94853936D01*
X133965824Y-94842162D01*
X133923966Y-94838500D01*
X133556034Y-94838500D01*
X133518614Y-94841773D01*
X133379596Y-94853936D01*
X133379592Y-94853936D01*
X133379592Y-94853937D01*
X133151337Y-94915097D01*
X133151336Y-94915097D01*
X133151334Y-94915098D01*
X133151333Y-94915099D01*
X132937167Y-95014967D01*
X132743602Y-95150502D01*
X132743599Y-95150504D01*
X132576503Y-95317601D01*
X132486145Y-95446646D01*
X132440965Y-95511170D01*
X132341097Y-95725337D01*
X132325297Y-95784303D01*
X132279936Y-95953596D01*
X132259341Y-96188995D01*
X132259341Y-96189004D01*
X132279936Y-96424403D01*
X132279936Y-96424406D01*
X132279937Y-96424408D01*
X132341097Y-96652663D01*
X132440965Y-96866829D01*
X132440966Y-96866830D01*
X132440967Y-96866832D01*
X132576502Y-97060397D01*
X132576504Y-97060400D01*
X132743599Y-97227495D01*
X132743602Y-97227497D01*
X132937168Y-97363033D01*
X132937171Y-97363035D01*
X132956254Y-97371934D01*
X132992046Y-97407728D01*
X132996457Y-97458154D01*
X132967422Y-97499618D01*
X132956254Y-97506066D01*
X132937171Y-97514964D01*
X132937168Y-97514966D01*
X132743602Y-97650502D01*
X132743599Y-97650504D01*
X132576503Y-97817601D01*
X132546452Y-97860519D01*
X132440965Y-98011170D01*
X132440965Y-98011171D01*
X132341099Y-98225333D01*
X132341098Y-98225334D01*
X132279936Y-98453596D01*
X132259341Y-98688995D01*
X132259341Y-98689004D01*
X130440500Y-98689004D01*
X130440500Y-92164344D01*
X130457813Y-92116778D01*
X130501650Y-92091468D01*
X130551500Y-92100258D01*
X130575748Y-92122815D01*
X130688635Y-92289311D01*
X130920332Y-92562086D01*
X131180163Y-92808211D01*
X131180166Y-92808213D01*
X131180170Y-92808217D01*
X131465086Y-93024804D01*
X131771741Y-93209312D01*
X131771745Y-93209314D01*
X131771747Y-93209315D01*
X132096565Y-93359591D01*
X132435726Y-93473868D01*
X132785254Y-93550805D01*
X133141052Y-93589500D01*
X133141061Y-93589500D01*
X133498939Y-93589500D01*
X133498948Y-93589500D01*
X133854746Y-93550805D01*
X134204274Y-93473868D01*
X134543435Y-93359591D01*
X134868253Y-93209315D01*
X135004950Y-93127067D01*
X135174913Y-93024804D01*
X135174915Y-93024802D01*
X135174919Y-93024800D01*
X135261477Y-92959000D01*
X138764751Y-92959000D01*
X138783687Y-93127059D01*
X138783689Y-93127067D01*
X138839544Y-93286691D01*
X138929519Y-93429885D01*
X138929521Y-93429887D01*
X138929523Y-93429890D01*
X139049110Y-93549477D01*
X139049112Y-93549478D01*
X139049114Y-93549480D01*
X139192308Y-93639455D01*
X139192310Y-93639456D01*
X139351941Y-93695313D01*
X139520000Y-93714249D01*
X139688059Y-93695313D01*
X139847690Y-93639456D01*
X139990890Y-93549477D01*
X140110477Y-93429890D01*
X140200456Y-93286690D01*
X140256313Y-93127059D01*
X140275249Y-92959000D01*
X146384751Y-92959000D01*
X146403687Y-93127059D01*
X146403689Y-93127067D01*
X146459544Y-93286691D01*
X146549519Y-93429885D01*
X146549521Y-93429887D01*
X146549523Y-93429890D01*
X146669110Y-93549477D01*
X146669112Y-93549478D01*
X146669114Y-93549480D01*
X146812308Y-93639455D01*
X146812310Y-93639456D01*
X146971941Y-93695313D01*
X147140000Y-93714249D01*
X147308059Y-93695313D01*
X147467690Y-93639456D01*
X147610890Y-93549477D01*
X147730477Y-93429890D01*
X147820456Y-93286690D01*
X147876313Y-93127059D01*
X147895249Y-92959000D01*
X154004751Y-92959000D01*
X154023687Y-93127059D01*
X154023689Y-93127067D01*
X154079544Y-93286691D01*
X154169519Y-93429885D01*
X154169521Y-93429887D01*
X154169523Y-93429890D01*
X154289110Y-93549477D01*
X154289112Y-93549478D01*
X154289114Y-93549480D01*
X154432308Y-93639455D01*
X154432310Y-93639456D01*
X154591941Y-93695313D01*
X154760000Y-93714249D01*
X154928059Y-93695313D01*
X155087690Y-93639456D01*
X155230890Y-93549477D01*
X155350477Y-93429890D01*
X155440456Y-93286690D01*
X155496313Y-93127059D01*
X155515249Y-92959000D01*
X161624751Y-92959000D01*
X161643687Y-93127059D01*
X161643689Y-93127067D01*
X161699544Y-93286691D01*
X161789519Y-93429885D01*
X161789521Y-93429887D01*
X161789523Y-93429890D01*
X161909110Y-93549477D01*
X161909112Y-93549478D01*
X161909114Y-93549480D01*
X162052308Y-93639455D01*
X162052310Y-93639456D01*
X162211941Y-93695313D01*
X162380000Y-93714249D01*
X162548059Y-93695313D01*
X162707690Y-93639456D01*
X162850890Y-93549477D01*
X162970477Y-93429890D01*
X163060456Y-93286690D01*
X163116313Y-93127059D01*
X163135249Y-92959000D01*
X169244751Y-92959000D01*
X169263687Y-93127059D01*
X169263689Y-93127067D01*
X169319544Y-93286691D01*
X169409519Y-93429885D01*
X169409521Y-93429887D01*
X169409523Y-93429890D01*
X169529110Y-93549477D01*
X169529112Y-93549478D01*
X169529114Y-93549480D01*
X169672308Y-93639455D01*
X169672310Y-93639456D01*
X169831941Y-93695313D01*
X170000000Y-93714249D01*
X170168059Y-93695313D01*
X170327690Y-93639456D01*
X170470890Y-93549477D01*
X170590477Y-93429890D01*
X170680456Y-93286690D01*
X170736313Y-93127059D01*
X170755249Y-92959000D01*
X170736313Y-92790941D01*
X170680456Y-92631310D01*
X170680455Y-92631308D01*
X170590480Y-92488114D01*
X170590478Y-92488112D01*
X170590477Y-92488110D01*
X170470890Y-92368523D01*
X170470887Y-92368521D01*
X170470885Y-92368519D01*
X170327691Y-92278544D01*
X170168067Y-92222689D01*
X170168059Y-92222687D01*
X170000000Y-92203751D01*
X169831940Y-92222687D01*
X169831932Y-92222689D01*
X169672308Y-92278544D01*
X169529114Y-92368519D01*
X169409519Y-92488114D01*
X169319544Y-92631308D01*
X169263689Y-92790932D01*
X169263687Y-92790940D01*
X169244751Y-92959000D01*
X163135249Y-92959000D01*
X163116313Y-92790941D01*
X163060456Y-92631310D01*
X163060455Y-92631308D01*
X162970480Y-92488114D01*
X162970478Y-92488112D01*
X162970477Y-92488110D01*
X162850890Y-92368523D01*
X162850887Y-92368521D01*
X162850885Y-92368519D01*
X162707691Y-92278544D01*
X162548067Y-92222689D01*
X162548059Y-92222687D01*
X162380000Y-92203751D01*
X162211940Y-92222687D01*
X162211932Y-92222689D01*
X162052308Y-92278544D01*
X161909114Y-92368519D01*
X161789519Y-92488114D01*
X161699544Y-92631308D01*
X161643689Y-92790932D01*
X161643687Y-92790940D01*
X161624751Y-92959000D01*
X155515249Y-92959000D01*
X155496313Y-92790941D01*
X155440456Y-92631310D01*
X155440455Y-92631308D01*
X155350480Y-92488114D01*
X155350478Y-92488112D01*
X155350477Y-92488110D01*
X155230890Y-92368523D01*
X155230887Y-92368521D01*
X155230885Y-92368519D01*
X155087691Y-92278544D01*
X154928067Y-92222689D01*
X154928059Y-92222687D01*
X154760000Y-92203751D01*
X154591940Y-92222687D01*
X154591932Y-92222689D01*
X154432308Y-92278544D01*
X154289114Y-92368519D01*
X154169519Y-92488114D01*
X154079544Y-92631308D01*
X154023689Y-92790932D01*
X154023687Y-92790940D01*
X154004751Y-92959000D01*
X147895249Y-92959000D01*
X147876313Y-92790941D01*
X147820456Y-92631310D01*
X147820455Y-92631308D01*
X147730480Y-92488114D01*
X147730478Y-92488112D01*
X147730477Y-92488110D01*
X147610890Y-92368523D01*
X147610887Y-92368521D01*
X147610885Y-92368519D01*
X147467691Y-92278544D01*
X147308067Y-92222689D01*
X147308059Y-92222687D01*
X147140000Y-92203751D01*
X146971940Y-92222687D01*
X146971932Y-92222689D01*
X146812308Y-92278544D01*
X146669114Y-92368519D01*
X146549519Y-92488114D01*
X146459544Y-92631308D01*
X146403689Y-92790932D01*
X146403687Y-92790940D01*
X146384751Y-92959000D01*
X140275249Y-92959000D01*
X140256313Y-92790941D01*
X140200456Y-92631310D01*
X140200455Y-92631308D01*
X140110480Y-92488114D01*
X140110478Y-92488112D01*
X140110477Y-92488110D01*
X139990890Y-92368523D01*
X139990887Y-92368521D01*
X139990885Y-92368519D01*
X139847691Y-92278544D01*
X139688067Y-92222689D01*
X139688059Y-92222687D01*
X139520000Y-92203751D01*
X139351940Y-92222687D01*
X139351932Y-92222689D01*
X139192308Y-92278544D01*
X139049114Y-92368519D01*
X138929519Y-92488114D01*
X138839544Y-92631308D01*
X138783689Y-92790932D01*
X138783687Y-92790940D01*
X138764751Y-92959000D01*
X135261477Y-92959000D01*
X135459837Y-92808211D01*
X135719668Y-92562086D01*
X135951365Y-92289311D01*
X136152211Y-91993085D01*
X136319853Y-91676880D01*
X136452324Y-91344403D01*
X136548071Y-90999552D01*
X136605972Y-90646371D01*
X136625348Y-90289000D01*
X136625348Y-90288990D01*
X136605973Y-89931638D01*
X136605972Y-89931634D01*
X136605972Y-89931629D01*
X136548071Y-89578448D01*
X136452324Y-89233597D01*
X136319853Y-88901120D01*
X136152211Y-88584915D01*
X135951365Y-88288689D01*
X135719668Y-88015914D01*
X135459837Y-87769789D01*
X135459833Y-87769786D01*
X135459829Y-87769782D01*
X135290287Y-87640900D01*
X135200189Y-87572410D01*
X135172800Y-87529843D01*
X135179181Y-87479627D01*
X135216346Y-87445261D01*
X135244973Y-87439500D01*
X175665027Y-87439500D01*
X175712593Y-87456813D01*
G37*
G04 #@! TD.AperFunction*
M02*
