G04 #@! TF.GenerationSoftware,KiCad,Pcbnew,7.0.9*
G04 #@! TF.CreationDate,2024-06-29T16:21:15+09:00*
G04 #@! TF.ProjectId,CAN_hab,43414e5f-6861-4622-9e6b-696361645f70,rev?*
G04 #@! TF.SameCoordinates,Original*
G04 #@! TF.FileFunction,Paste,Top*
G04 #@! TF.FilePolarity,Positive*
%FSLAX46Y46*%
G04 Gerber Fmt 4.6, Leading zero omitted, Abs format (unit mm)*
G04 Created by KiCad (PCBNEW 7.0.9) date 2024-06-29 16:21:15*
%MOMM*%
%LPD*%
G01*
G04 APERTURE LIST*
G04 Aperture macros list*
%AMRoundRect*
0 Rectangle with rounded corners*
0 $1 Rounding radius*
0 $2 $3 $4 $5 $6 $7 $8 $9 X,Y pos of 4 corners*
0 Add a 4 corners polygon primitive as box body*
4,1,4,$2,$3,$4,$5,$6,$7,$8,$9,$2,$3,0*
0 Add four circle primitives for the rounded corners*
1,1,$1+$1,$2,$3*
1,1,$1+$1,$4,$5*
1,1,$1+$1,$6,$7*
1,1,$1+$1,$8,$9*
0 Add four rect primitives between the rounded corners*
20,1,$1+$1,$2,$3,$4,$5,0*
20,1,$1+$1,$4,$5,$6,$7,0*
20,1,$1+$1,$6,$7,$8,$9,0*
20,1,$1+$1,$8,$9,$2,$3,0*%
G04 Aperture macros list end*
%ADD10RoundRect,0.237500X0.400000X0.237500X-0.400000X0.237500X-0.400000X-0.237500X0.400000X-0.237500X0*%
%ADD11RoundRect,0.150000X-0.150000X-0.700000X0.150000X-0.700000X0.150000X0.700000X-0.150000X0.700000X0*%
%ADD12RoundRect,0.250000X-0.250000X-1.150000X0.250000X-1.150000X0.250000X1.150000X-0.250000X1.150000X0*%
%ADD13RoundRect,0.150000X0.150000X0.700000X-0.150000X0.700000X-0.150000X-0.700000X0.150000X-0.700000X0*%
%ADD14RoundRect,0.250000X0.250000X1.150000X-0.250000X1.150000X-0.250000X-1.150000X0.250000X-1.150000X0*%
%ADD15RoundRect,0.150000X-0.700000X0.150000X-0.700000X-0.150000X0.700000X-0.150000X0.700000X0.150000X0*%
%ADD16RoundRect,0.250000X-1.150000X0.250000X-1.150000X-0.250000X1.150000X-0.250000X1.150000X0.250000X0*%
G04 APERTURE END LIST*
D10*
X141365000Y-100439000D03*
X139240000Y-100439000D03*
D11*
X170000000Y-92959000D03*
X171250000Y-92959000D03*
D12*
X168150000Y-89609000D03*
X173100000Y-89609000D03*
D11*
X139520000Y-92959000D03*
X140770000Y-92959000D03*
D12*
X137670000Y-89609000D03*
X142620000Y-89609000D03*
D13*
X148390000Y-98451000D03*
X147140000Y-98451000D03*
D14*
X150240000Y-101801000D03*
X145290000Y-101801000D03*
D15*
X160670000Y-98064000D03*
X160670000Y-99314000D03*
X160670000Y-100564000D03*
X160670000Y-101814000D03*
D16*
X164020000Y-96214000D03*
X164020000Y-103664000D03*
D11*
X162380000Y-92959000D03*
X163630000Y-92959000D03*
D12*
X160530000Y-89609000D03*
X165480000Y-89609000D03*
D15*
X167670000Y-98064000D03*
X167670000Y-99314000D03*
X167670000Y-100564000D03*
X167670000Y-101814000D03*
D16*
X171020000Y-96214000D03*
X171020000Y-103664000D03*
D15*
X153670000Y-98064000D03*
X153670000Y-99314000D03*
X153670000Y-100564000D03*
X153670000Y-101814000D03*
D16*
X157020000Y-96214000D03*
X157020000Y-103664000D03*
D11*
X154760000Y-92959000D03*
X156010000Y-92959000D03*
D12*
X152910000Y-89609000D03*
X157860000Y-89609000D03*
D11*
X147140000Y-92959000D03*
X148390000Y-92959000D03*
D12*
X145290000Y-89609000D03*
X150240000Y-89609000D03*
M02*
