G04 #@! TF.GenerationSoftware,KiCad,Pcbnew,7.0.9*
G04 #@! TF.CreationDate,2024-07-05T17:08:16+09:00*
G04 #@! TF.ProjectId,YAMADAmain_correct,59414d41-4441-46d6-9169-6e5f636f7272,rev?*
G04 #@! TF.SameCoordinates,Original*
G04 #@! TF.FileFunction,Paste,Bot*
G04 #@! TF.FilePolarity,Positive*
%FSLAX46Y46*%
G04 Gerber Fmt 4.6, Leading zero omitted, Abs format (unit mm)*
G04 Created by KiCad (PCBNEW 7.0.9) date 2024-07-05 17:08:16*
%MOMM*%
%LPD*%
G01*
G04 APERTURE LIST*
G04 Aperture macros list*
%AMRoundRect*
0 Rectangle with rounded corners*
0 $1 Rounding radius*
0 $2 $3 $4 $5 $6 $7 $8 $9 X,Y pos of 4 corners*
0 Add a 4 corners polygon primitive as box body*
4,1,4,$2,$3,$4,$5,$6,$7,$8,$9,$2,$3,0*
0 Add four circle primitives for the rounded corners*
1,1,$1+$1,$2,$3*
1,1,$1+$1,$4,$5*
1,1,$1+$1,$6,$7*
1,1,$1+$1,$8,$9*
0 Add four rect primitives between the rounded corners*
20,1,$1+$1,$2,$3,$4,$5,0*
20,1,$1+$1,$4,$5,$6,$7,0*
20,1,$1+$1,$6,$7,$8,$9,0*
20,1,$1+$1,$8,$9,$2,$3,0*%
G04 Aperture macros list end*
%ADD10RoundRect,0.635000X0.635000X0.635000X-0.635000X0.635000X-0.635000X-0.635000X0.635000X-0.635000X0*%
%ADD11RoundRect,0.292875X0.394625X0.432125X-0.394625X0.432125X-0.394625X-0.432125X0.394625X-0.432125X0*%
%ADD12RoundRect,0.250000X-0.350000X-0.450000X0.350000X-0.450000X0.350000X0.450000X-0.350000X0.450000X0*%
%ADD13RoundRect,0.250000X-1.100000X0.250000X-1.100000X-0.250000X1.100000X-0.250000X1.100000X0.250000X0*%
%ADD14RoundRect,0.150000X-0.700000X0.150000X-0.700000X-0.150000X0.700000X-0.150000X0.700000X0.150000X0*%
%ADD15RoundRect,0.292875X-0.394625X-0.432125X0.394625X-0.432125X0.394625X0.432125X-0.394625X0.432125X0*%
%ADD16RoundRect,0.508000X2.032000X-0.508000X2.032000X0.508000X-2.032000X0.508000X-2.032000X-0.508000X0*%
%ADD17RoundRect,0.250000X0.337500X0.475000X-0.337500X0.475000X-0.337500X-0.475000X0.337500X-0.475000X0*%
%ADD18RoundRect,0.225000X0.375000X-0.225000X0.375000X0.225000X-0.375000X0.225000X-0.375000X-0.225000X0*%
%ADD19RoundRect,0.250000X0.350000X0.450000X-0.350000X0.450000X-0.350000X-0.450000X0.350000X-0.450000X0*%
%ADD20RoundRect,0.250000X0.475000X-0.337500X0.475000X0.337500X-0.475000X0.337500X-0.475000X-0.337500X0*%
%ADD21R,2.200000X1.200000*%
%ADD22R,6.400000X5.800000*%
%ADD23RoundRect,0.250000X0.450000X-0.350000X0.450000X0.350000X-0.450000X0.350000X-0.450000X-0.350000X0*%
G04 APERTURE END LIST*
D10*
X123824000Y-114300000D03*
X120776000Y-114300000D03*
D11*
X128585000Y-99560000D03*
X130860000Y-99560000D03*
D12*
X116914000Y-90322400D03*
X114914000Y-90322400D03*
D13*
X161058000Y-103233000D03*
X161058000Y-93283000D03*
D14*
X157858000Y-101383000D03*
X157858000Y-100133000D03*
X157858000Y-98883000D03*
X157858000Y-97633000D03*
X157858000Y-96383000D03*
X157858000Y-95133000D03*
D15*
X153255900Y-114686400D03*
X150980900Y-114686400D03*
D16*
X123755000Y-98607999D03*
X123755000Y-101147999D03*
D17*
X131708500Y-84960000D03*
X133783500Y-84960000D03*
D12*
X116914000Y-92506800D03*
X114914000Y-92506800D03*
X116914000Y-94691200D03*
X114914000Y-94691200D03*
X116914000Y-88176000D03*
X114914000Y-88176000D03*
D16*
X116634600Y-106685199D03*
X116634600Y-109225199D03*
X116634600Y-98552000D03*
X116634600Y-101092000D03*
X123704200Y-106730800D03*
X123704200Y-109270800D03*
D18*
X135964000Y-73210000D03*
X135964000Y-76510000D03*
D19*
X134560000Y-69850000D03*
X136560000Y-69850000D03*
X119638400Y-76708000D03*
X121638400Y-76708000D03*
D20*
X116152000Y-78412500D03*
X116152000Y-80487500D03*
D19*
X129960000Y-69850000D03*
X131960000Y-69850000D03*
D21*
X156160000Y-85640000D03*
D22*
X149860000Y-83360000D03*
D21*
X156160000Y-83360000D03*
X156160000Y-81080000D03*
D23*
X141128000Y-82987000D03*
X141128000Y-84987000D03*
D19*
X124718400Y-76708000D03*
X126718400Y-76708000D03*
D23*
X129060000Y-91560000D03*
X129060000Y-93560000D03*
M02*
