G04 #@! TF.GenerationSoftware,KiCad,Pcbnew,7.0.9*
G04 #@! TF.CreationDate,2024-07-05T17:08:16+09:00*
G04 #@! TF.ProjectId,YAMADAmain_correct,59414d41-4441-46d6-9169-6e5f636f7272,rev?*
G04 #@! TF.SameCoordinates,Original*
G04 #@! TF.FileFunction,Legend,Top*
G04 #@! TF.FilePolarity,Positive*
%FSLAX46Y46*%
G04 Gerber Fmt 4.6, Leading zero omitted, Abs format (unit mm)*
G04 Created by KiCad (PCBNEW 7.0.9) date 2024-07-05 17:08:16*
%MOMM*%
%LPD*%
G01*
G04 APERTURE LIST*
G04 Aperture macros list*
%AMRoundRect*
0 Rectangle with rounded corners*
0 $1 Rounding radius*
0 $2 $3 $4 $5 $6 $7 $8 $9 X,Y pos of 4 corners*
0 Add a 4 corners polygon primitive as box body*
4,1,4,$2,$3,$4,$5,$6,$7,$8,$9,$2,$3,0*
0 Add four circle primitives for the rounded corners*
1,1,$1+$1,$2,$3*
1,1,$1+$1,$4,$5*
1,1,$1+$1,$6,$7*
1,1,$1+$1,$8,$9*
0 Add four rect primitives between the rounded corners*
20,1,$1+$1,$2,$3,$4,$5,0*
20,1,$1+$1,$4,$5,$6,$7,0*
20,1,$1+$1,$6,$7,$8,$9,0*
20,1,$1+$1,$8,$9,$2,$3,0*%
G04 Aperture macros list end*
%ADD10C,0.153000*%
%ADD11C,0.150000*%
%ADD12C,0.120000*%
%ADD13C,0.203200*%
%ADD14O,1.800000X2.200000*%
%ADD15R,1.800000X2.200000*%
%ADD16RoundRect,0.292875X0.394625X0.432125X-0.394625X0.432125X-0.394625X-0.432125X0.394625X-0.432125X0*%
%ADD17RoundRect,0.075000X0.700000X-0.075000X0.700000X0.075000X-0.700000X0.075000X-0.700000X-0.075000X0*%
%ADD18RoundRect,0.075000X0.075000X-0.700000X0.075000X0.700000X-0.075000X0.700000X-0.075000X-0.700000X0*%
%ADD19RoundRect,0.237500X0.237500X-0.400000X0.237500X0.400000X-0.237500X0.400000X-0.237500X-0.400000X0*%
%ADD20C,1.000000*%
%ADD21C,5.600000*%
%ADD22C,1.524000*%
%ADD23RoundRect,0.625000X-0.875000X-0.625000X0.875000X-0.625000X0.875000X0.625000X-0.875000X0.625000X0*%
%ADD24RoundRect,0.237500X-0.287500X-0.237500X0.287500X-0.237500X0.287500X0.237500X-0.287500X0.237500X0*%
%ADD25R,0.760000X1.100000*%
%ADD26R,1.700000X1.700000*%
%ADD27O,1.700000X1.700000*%
%ADD28RoundRect,0.292875X-0.394625X-0.432125X0.394625X-0.432125X0.394625X0.432125X-0.394625X0.432125X0*%
%ADD29RoundRect,0.237500X0.287500X0.237500X-0.287500X0.237500X-0.287500X-0.237500X0.287500X-0.237500X0*%
%ADD30RoundRect,0.225000X2.025000X-2.025000X2.025000X2.025000X-2.025000X2.025000X-2.025000X-2.025000X0*%
%ADD31C,1.600000*%
%ADD32R,1.500000X1.000000*%
%ADD33RoundRect,0.237500X0.237500X-0.287500X0.237500X0.287500X-0.237500X0.287500X-0.237500X-0.287500X0*%
%ADD34R,1.000000X1.000000*%
%ADD35O,1.700000X2.000000*%
%ADD36RoundRect,0.250000X-0.600000X-0.750000X0.600000X-0.750000X0.600000X0.750000X-0.600000X0.750000X0*%
G04 APERTURE END LIST*
D10*
X118184000Y-85852000D02*
X119200000Y-85852000D01*
D11*
X133332843Y-98350000D02*
G75*
G03*
X133332843Y-98350000I-282843J0D01*
G01*
D10*
X118692000Y-72644000D02*
X118692000Y-73660000D01*
X118692000Y-85344000D02*
X118692000Y-86360000D01*
X150526752Y-112391663D02*
X150526752Y-111724996D01*
X150526752Y-111915472D02*
X150574371Y-111820234D01*
X150574371Y-111820234D02*
X150621990Y-111772615D01*
X150621990Y-111772615D02*
X150717228Y-111724996D01*
X150717228Y-111724996D02*
X150812466Y-111724996D01*
X151526752Y-112344044D02*
X151431514Y-112391663D01*
X151431514Y-112391663D02*
X151241038Y-112391663D01*
X151241038Y-112391663D02*
X151145800Y-112344044D01*
X151145800Y-112344044D02*
X151098181Y-112248805D01*
X151098181Y-112248805D02*
X151098181Y-111867853D01*
X151098181Y-111867853D02*
X151145800Y-111772615D01*
X151145800Y-111772615D02*
X151241038Y-111724996D01*
X151241038Y-111724996D02*
X151431514Y-111724996D01*
X151431514Y-111724996D02*
X151526752Y-111772615D01*
X151526752Y-111772615D02*
X151574371Y-111867853D01*
X151574371Y-111867853D02*
X151574371Y-111963091D01*
X151574371Y-111963091D02*
X151098181Y-112058329D01*
X151955324Y-112344044D02*
X152050562Y-112391663D01*
X152050562Y-112391663D02*
X152241038Y-112391663D01*
X152241038Y-112391663D02*
X152336276Y-112344044D01*
X152336276Y-112344044D02*
X152383895Y-112248805D01*
X152383895Y-112248805D02*
X152383895Y-112201186D01*
X152383895Y-112201186D02*
X152336276Y-112105948D01*
X152336276Y-112105948D02*
X152241038Y-112058329D01*
X152241038Y-112058329D02*
X152098181Y-112058329D01*
X152098181Y-112058329D02*
X152002943Y-112010710D01*
X152002943Y-112010710D02*
X151955324Y-111915472D01*
X151955324Y-111915472D02*
X151955324Y-111867853D01*
X151955324Y-111867853D02*
X152002943Y-111772615D01*
X152002943Y-111772615D02*
X152098181Y-111724996D01*
X152098181Y-111724996D02*
X152241038Y-111724996D01*
X152241038Y-111724996D02*
X152336276Y-111772615D01*
X153193419Y-112344044D02*
X153098181Y-112391663D01*
X153098181Y-112391663D02*
X152907705Y-112391663D01*
X152907705Y-112391663D02*
X152812467Y-112344044D01*
X152812467Y-112344044D02*
X152764848Y-112248805D01*
X152764848Y-112248805D02*
X152764848Y-111867853D01*
X152764848Y-111867853D02*
X152812467Y-111772615D01*
X152812467Y-111772615D02*
X152907705Y-111724996D01*
X152907705Y-111724996D02*
X153098181Y-111724996D01*
X153098181Y-111724996D02*
X153193419Y-111772615D01*
X153193419Y-111772615D02*
X153241038Y-111867853D01*
X153241038Y-111867853D02*
X153241038Y-111963091D01*
X153241038Y-111963091D02*
X152764848Y-112058329D01*
X153526753Y-111724996D02*
X153907705Y-111724996D01*
X153669610Y-111391663D02*
X153669610Y-112248805D01*
X153669610Y-112248805D02*
X153717229Y-112344044D01*
X153717229Y-112344044D02*
X153812467Y-112391663D01*
X153812467Y-112391663D02*
X153907705Y-112391663D01*
X130389228Y-75353472D02*
X130389228Y-75829663D01*
X130055895Y-74829663D02*
X130389228Y-75353472D01*
X130389228Y-75353472D02*
X130722561Y-74829663D01*
X131579704Y-75829663D02*
X131008276Y-75829663D01*
X131293990Y-75829663D02*
X131293990Y-74829663D01*
X131293990Y-74829663D02*
X131198752Y-74972520D01*
X131198752Y-74972520D02*
X131103514Y-75067758D01*
X131103514Y-75067758D02*
X131008276Y-75115377D01*
X132436847Y-75162996D02*
X132436847Y-75829663D01*
X132198752Y-74782044D02*
X131960657Y-75496329D01*
X131960657Y-75496329D02*
X132579704Y-75496329D01*
X132960657Y-75829663D02*
X132960657Y-74829663D01*
X132960657Y-75305853D02*
X133532085Y-75305853D01*
X133532085Y-75829663D02*
X133532085Y-74829663D01*
X134008276Y-75448710D02*
X134770181Y-75448710D01*
X135770180Y-75829663D02*
X135198752Y-75829663D01*
X135484466Y-75829663D02*
X135484466Y-74829663D01*
X135484466Y-74829663D02*
X135389228Y-74972520D01*
X135389228Y-74972520D02*
X135293990Y-75067758D01*
X135293990Y-75067758D02*
X135198752Y-75115377D01*
X136770180Y-75734424D02*
X136722561Y-75782044D01*
X136722561Y-75782044D02*
X136579704Y-75829663D01*
X136579704Y-75829663D02*
X136484466Y-75829663D01*
X136484466Y-75829663D02*
X136341609Y-75782044D01*
X136341609Y-75782044D02*
X136246371Y-75686805D01*
X136246371Y-75686805D02*
X136198752Y-75591567D01*
X136198752Y-75591567D02*
X136151133Y-75401091D01*
X136151133Y-75401091D02*
X136151133Y-75258234D01*
X136151133Y-75258234D02*
X136198752Y-75067758D01*
X136198752Y-75067758D02*
X136246371Y-74972520D01*
X136246371Y-74972520D02*
X136341609Y-74877282D01*
X136341609Y-74877282D02*
X136484466Y-74829663D01*
X136484466Y-74829663D02*
X136579704Y-74829663D01*
X136579704Y-74829663D02*
X136722561Y-74877282D01*
X136722561Y-74877282D02*
X136770180Y-74924901D01*
X137198752Y-75448710D02*
X137960657Y-75448710D01*
X138341609Y-74829663D02*
X138960656Y-74829663D01*
X138960656Y-74829663D02*
X138627323Y-75210615D01*
X138627323Y-75210615D02*
X138770180Y-75210615D01*
X138770180Y-75210615D02*
X138865418Y-75258234D01*
X138865418Y-75258234D02*
X138913037Y-75305853D01*
X138913037Y-75305853D02*
X138960656Y-75401091D01*
X138960656Y-75401091D02*
X138960656Y-75639186D01*
X138960656Y-75639186D02*
X138913037Y-75734424D01*
X138913037Y-75734424D02*
X138865418Y-75782044D01*
X138865418Y-75782044D02*
X138770180Y-75829663D01*
X138770180Y-75829663D02*
X138484466Y-75829663D01*
X138484466Y-75829663D02*
X138389228Y-75782044D01*
X138389228Y-75782044D02*
X138341609Y-75734424D01*
X139389228Y-75829663D02*
X139389228Y-74829663D01*
X139389228Y-74829663D02*
X139627323Y-74829663D01*
X139627323Y-74829663D02*
X139770180Y-74877282D01*
X139770180Y-74877282D02*
X139865418Y-74972520D01*
X139865418Y-74972520D02*
X139913037Y-75067758D01*
X139913037Y-75067758D02*
X139960656Y-75258234D01*
X139960656Y-75258234D02*
X139960656Y-75401091D01*
X139960656Y-75401091D02*
X139913037Y-75591567D01*
X139913037Y-75591567D02*
X139865418Y-75686805D01*
X139865418Y-75686805D02*
X139770180Y-75782044D01*
X139770180Y-75782044D02*
X139627323Y-75829663D01*
X139627323Y-75829663D02*
X139389228Y-75829663D01*
X140341609Y-75782044D02*
X140484466Y-75829663D01*
X140484466Y-75829663D02*
X140722561Y-75829663D01*
X140722561Y-75829663D02*
X140817799Y-75782044D01*
X140817799Y-75782044D02*
X140865418Y-75734424D01*
X140865418Y-75734424D02*
X140913037Y-75639186D01*
X140913037Y-75639186D02*
X140913037Y-75543948D01*
X140913037Y-75543948D02*
X140865418Y-75448710D01*
X140865418Y-75448710D02*
X140817799Y-75401091D01*
X140817799Y-75401091D02*
X140722561Y-75353472D01*
X140722561Y-75353472D02*
X140532085Y-75305853D01*
X140532085Y-75305853D02*
X140436847Y-75258234D01*
X140436847Y-75258234D02*
X140389228Y-75210615D01*
X140389228Y-75210615D02*
X140341609Y-75115377D01*
X140341609Y-75115377D02*
X140341609Y-75020139D01*
X140341609Y-75020139D02*
X140389228Y-74924901D01*
X140389228Y-74924901D02*
X140436847Y-74877282D01*
X140436847Y-74877282D02*
X140532085Y-74829663D01*
X140532085Y-74829663D02*
X140770180Y-74829663D01*
X140770180Y-74829663D02*
X140913037Y-74877282D01*
X153815619Y-87064901D02*
X153863238Y-87017282D01*
X153863238Y-87017282D02*
X153958476Y-86969663D01*
X153958476Y-86969663D02*
X154196571Y-86969663D01*
X154196571Y-86969663D02*
X154291809Y-87017282D01*
X154291809Y-87017282D02*
X154339428Y-87064901D01*
X154339428Y-87064901D02*
X154387047Y-87160139D01*
X154387047Y-87160139D02*
X154387047Y-87255377D01*
X154387047Y-87255377D02*
X154339428Y-87398234D01*
X154339428Y-87398234D02*
X153768000Y-87969663D01*
X153768000Y-87969663D02*
X154387047Y-87969663D01*
X154815619Y-87874424D02*
X154863238Y-87922044D01*
X154863238Y-87922044D02*
X154815619Y-87969663D01*
X154815619Y-87969663D02*
X154768000Y-87922044D01*
X154768000Y-87922044D02*
X154815619Y-87874424D01*
X154815619Y-87874424D02*
X154815619Y-87969663D01*
X155244190Y-87064901D02*
X155291809Y-87017282D01*
X155291809Y-87017282D02*
X155387047Y-86969663D01*
X155387047Y-86969663D02*
X155625142Y-86969663D01*
X155625142Y-86969663D02*
X155720380Y-87017282D01*
X155720380Y-87017282D02*
X155767999Y-87064901D01*
X155767999Y-87064901D02*
X155815618Y-87160139D01*
X155815618Y-87160139D02*
X155815618Y-87255377D01*
X155815618Y-87255377D02*
X155767999Y-87398234D01*
X155767999Y-87398234D02*
X155196571Y-87969663D01*
X155196571Y-87969663D02*
X155815618Y-87969663D01*
X156672761Y-87302996D02*
X156672761Y-87969663D01*
X156244190Y-87302996D02*
X156244190Y-87826805D01*
X156244190Y-87826805D02*
X156291809Y-87922044D01*
X156291809Y-87922044D02*
X156387047Y-87969663D01*
X156387047Y-87969663D02*
X156529904Y-87969663D01*
X156529904Y-87969663D02*
X156625142Y-87922044D01*
X156625142Y-87922044D02*
X156672761Y-87874424D01*
X156535533Y-72810336D02*
X156535533Y-72096051D01*
X156535533Y-72096051D02*
X156583152Y-71953194D01*
X156583152Y-71953194D02*
X156678390Y-71857956D01*
X156678390Y-71857956D02*
X156821247Y-71810336D01*
X156821247Y-71810336D02*
X156916485Y-71810336D01*
X155630771Y-72477003D02*
X155630771Y-71810336D01*
X156059342Y-72477003D02*
X156059342Y-71953194D01*
X156059342Y-71953194D02*
X156011723Y-71857956D01*
X156011723Y-71857956D02*
X155916485Y-71810336D01*
X155916485Y-71810336D02*
X155773628Y-71810336D01*
X155773628Y-71810336D02*
X155678390Y-71857956D01*
X155678390Y-71857956D02*
X155630771Y-71905575D01*
X155011723Y-71810336D02*
X155106961Y-71857956D01*
X155106961Y-71857956D02*
X155154580Y-71953194D01*
X155154580Y-71953194D02*
X155154580Y-72810336D01*
X154726008Y-72477003D02*
X154487913Y-71810336D01*
X154249818Y-72477003D02*
X154487913Y-71810336D01*
X154487913Y-71810336D02*
X154583151Y-71572241D01*
X154583151Y-71572241D02*
X154630770Y-71524622D01*
X154630770Y-71524622D02*
X154726008Y-71477003D01*
X153868865Y-71905575D02*
X153821246Y-71857956D01*
X153821246Y-71857956D02*
X153868865Y-71810336D01*
X153868865Y-71810336D02*
X153916484Y-71857956D01*
X153916484Y-71857956D02*
X153868865Y-71905575D01*
X153868865Y-71905575D02*
X153868865Y-71810336D01*
X153202199Y-72810336D02*
X153106961Y-72810336D01*
X153106961Y-72810336D02*
X153011723Y-72762717D01*
X153011723Y-72762717D02*
X152964104Y-72715098D01*
X152964104Y-72715098D02*
X152916485Y-72619860D01*
X152916485Y-72619860D02*
X152868866Y-72429384D01*
X152868866Y-72429384D02*
X152868866Y-72191289D01*
X152868866Y-72191289D02*
X152916485Y-72000813D01*
X152916485Y-72000813D02*
X152964104Y-71905575D01*
X152964104Y-71905575D02*
X153011723Y-71857956D01*
X153011723Y-71857956D02*
X153106961Y-71810336D01*
X153106961Y-71810336D02*
X153202199Y-71810336D01*
X153202199Y-71810336D02*
X153297437Y-71857956D01*
X153297437Y-71857956D02*
X153345056Y-71905575D01*
X153345056Y-71905575D02*
X153392675Y-72000813D01*
X153392675Y-72000813D02*
X153440294Y-72191289D01*
X153440294Y-72191289D02*
X153440294Y-72429384D01*
X153440294Y-72429384D02*
X153392675Y-72619860D01*
X153392675Y-72619860D02*
X153345056Y-72715098D01*
X153345056Y-72715098D02*
X153297437Y-72762717D01*
X153297437Y-72762717D02*
X153202199Y-72810336D01*
X151964104Y-72810336D02*
X152440294Y-72810336D01*
X152440294Y-72810336D02*
X152487913Y-72334146D01*
X152487913Y-72334146D02*
X152440294Y-72381765D01*
X152440294Y-72381765D02*
X152345056Y-72429384D01*
X152345056Y-72429384D02*
X152106961Y-72429384D01*
X152106961Y-72429384D02*
X152011723Y-72381765D01*
X152011723Y-72381765D02*
X151964104Y-72334146D01*
X151964104Y-72334146D02*
X151916485Y-72238908D01*
X151916485Y-72238908D02*
X151916485Y-72000813D01*
X151916485Y-72000813D02*
X151964104Y-71905575D01*
X151964104Y-71905575D02*
X152011723Y-71857956D01*
X152011723Y-71857956D02*
X152106961Y-71810336D01*
X152106961Y-71810336D02*
X152345056Y-71810336D01*
X152345056Y-71810336D02*
X152440294Y-71857956D01*
X152440294Y-71857956D02*
X152487913Y-71905575D01*
X151487913Y-71905575D02*
X151440294Y-71857956D01*
X151440294Y-71857956D02*
X151487913Y-71810336D01*
X151487913Y-71810336D02*
X151535532Y-71857956D01*
X151535532Y-71857956D02*
X151487913Y-71905575D01*
X151487913Y-71905575D02*
X151487913Y-71810336D01*
X150297437Y-72715098D02*
X150249818Y-72762717D01*
X150249818Y-72762717D02*
X150154580Y-72810336D01*
X150154580Y-72810336D02*
X149916485Y-72810336D01*
X149916485Y-72810336D02*
X149821247Y-72762717D01*
X149821247Y-72762717D02*
X149773628Y-72715098D01*
X149773628Y-72715098D02*
X149726009Y-72619860D01*
X149726009Y-72619860D02*
X149726009Y-72524622D01*
X149726009Y-72524622D02*
X149773628Y-72381765D01*
X149773628Y-72381765D02*
X150345056Y-71810336D01*
X150345056Y-71810336D02*
X149726009Y-71810336D01*
X149106961Y-72810336D02*
X149011723Y-72810336D01*
X149011723Y-72810336D02*
X148916485Y-72762717D01*
X148916485Y-72762717D02*
X148868866Y-72715098D01*
X148868866Y-72715098D02*
X148821247Y-72619860D01*
X148821247Y-72619860D02*
X148773628Y-72429384D01*
X148773628Y-72429384D02*
X148773628Y-72191289D01*
X148773628Y-72191289D02*
X148821247Y-72000813D01*
X148821247Y-72000813D02*
X148868866Y-71905575D01*
X148868866Y-71905575D02*
X148916485Y-71857956D01*
X148916485Y-71857956D02*
X149011723Y-71810336D01*
X149011723Y-71810336D02*
X149106961Y-71810336D01*
X149106961Y-71810336D02*
X149202199Y-71857956D01*
X149202199Y-71857956D02*
X149249818Y-71905575D01*
X149249818Y-71905575D02*
X149297437Y-72000813D01*
X149297437Y-72000813D02*
X149345056Y-72191289D01*
X149345056Y-72191289D02*
X149345056Y-72429384D01*
X149345056Y-72429384D02*
X149297437Y-72619860D01*
X149297437Y-72619860D02*
X149249818Y-72715098D01*
X149249818Y-72715098D02*
X149202199Y-72762717D01*
X149202199Y-72762717D02*
X149106961Y-72810336D01*
X148392675Y-72715098D02*
X148345056Y-72762717D01*
X148345056Y-72762717D02*
X148249818Y-72810336D01*
X148249818Y-72810336D02*
X148011723Y-72810336D01*
X148011723Y-72810336D02*
X147916485Y-72762717D01*
X147916485Y-72762717D02*
X147868866Y-72715098D01*
X147868866Y-72715098D02*
X147821247Y-72619860D01*
X147821247Y-72619860D02*
X147821247Y-72524622D01*
X147821247Y-72524622D02*
X147868866Y-72381765D01*
X147868866Y-72381765D02*
X148440294Y-71810336D01*
X148440294Y-71810336D02*
X147821247Y-71810336D01*
X146964104Y-72477003D02*
X146964104Y-71810336D01*
X147202199Y-72857956D02*
X147440294Y-72143670D01*
X147440294Y-72143670D02*
X146821247Y-72143670D01*
X156202200Y-70676527D02*
X156249819Y-70724146D01*
X156249819Y-70724146D02*
X156345057Y-70771765D01*
X156345057Y-70771765D02*
X156440295Y-70771765D01*
X156440295Y-70771765D02*
X156535533Y-70724146D01*
X156535533Y-70724146D02*
X156583152Y-70676527D01*
X156583152Y-70676527D02*
X156630771Y-70581289D01*
X156630771Y-70581289D02*
X156630771Y-70486051D01*
X156630771Y-70486051D02*
X156583152Y-70390813D01*
X156583152Y-70390813D02*
X156535533Y-70343194D01*
X156535533Y-70343194D02*
X156440295Y-70295575D01*
X156440295Y-70295575D02*
X156345057Y-70295575D01*
X156345057Y-70295575D02*
X156249819Y-70343194D01*
X156249819Y-70343194D02*
X156202200Y-70390813D01*
X156202200Y-70771765D02*
X156202200Y-70390813D01*
X156202200Y-70390813D02*
X156154581Y-70343194D01*
X156154581Y-70343194D02*
X156106962Y-70343194D01*
X156106962Y-70343194D02*
X156011723Y-70390813D01*
X156011723Y-70390813D02*
X155964104Y-70486051D01*
X155964104Y-70486051D02*
X155964104Y-70724146D01*
X155964104Y-70724146D02*
X156059343Y-70867003D01*
X156059343Y-70867003D02*
X156202200Y-70962241D01*
X156202200Y-70962241D02*
X156392676Y-71009860D01*
X156392676Y-71009860D02*
X156583152Y-70962241D01*
X156583152Y-70962241D02*
X156726009Y-70867003D01*
X156726009Y-70867003D02*
X156821247Y-70724146D01*
X156821247Y-70724146D02*
X156868866Y-70533670D01*
X156868866Y-70533670D02*
X156821247Y-70343194D01*
X156821247Y-70343194D02*
X156726009Y-70200336D01*
X156726009Y-70200336D02*
X156583152Y-70105098D01*
X156583152Y-70105098D02*
X156392676Y-70057479D01*
X156392676Y-70057479D02*
X156202200Y-70105098D01*
X156202200Y-70105098D02*
X156059343Y-70200336D01*
X155535533Y-70867003D02*
X155535533Y-70200336D01*
X155535533Y-70771765D02*
X155487914Y-70819384D01*
X155487914Y-70819384D02*
X155392676Y-70867003D01*
X155392676Y-70867003D02*
X155249819Y-70867003D01*
X155249819Y-70867003D02*
X155154581Y-70819384D01*
X155154581Y-70819384D02*
X155106962Y-70724146D01*
X155106962Y-70724146D02*
X155106962Y-70200336D01*
X154630771Y-70867003D02*
X154630771Y-70200336D01*
X154630771Y-70771765D02*
X154583152Y-70819384D01*
X154583152Y-70819384D02*
X154487914Y-70867003D01*
X154487914Y-70867003D02*
X154345057Y-70867003D01*
X154345057Y-70867003D02*
X154249819Y-70819384D01*
X154249819Y-70819384D02*
X154202200Y-70724146D01*
X154202200Y-70724146D02*
X154202200Y-70200336D01*
X153297438Y-70247956D02*
X153392676Y-70200336D01*
X153392676Y-70200336D02*
X153583152Y-70200336D01*
X153583152Y-70200336D02*
X153678390Y-70247956D01*
X153678390Y-70247956D02*
X153726009Y-70295575D01*
X153726009Y-70295575D02*
X153773628Y-70390813D01*
X153773628Y-70390813D02*
X153773628Y-70676527D01*
X153773628Y-70676527D02*
X153726009Y-70771765D01*
X153726009Y-70771765D02*
X153678390Y-70819384D01*
X153678390Y-70819384D02*
X153583152Y-70867003D01*
X153583152Y-70867003D02*
X153392676Y-70867003D01*
X153392676Y-70867003D02*
X153297438Y-70819384D01*
X153011723Y-70867003D02*
X152630771Y-70867003D01*
X152868866Y-71200336D02*
X152868866Y-70343194D01*
X152868866Y-70343194D02*
X152821247Y-70247956D01*
X152821247Y-70247956D02*
X152726009Y-70200336D01*
X152726009Y-70200336D02*
X152630771Y-70200336D01*
X152535533Y-70105098D02*
X151773628Y-70105098D01*
X151535532Y-70200336D02*
X151535532Y-70867003D01*
X151535532Y-70676527D02*
X151487913Y-70771765D01*
X151487913Y-70771765D02*
X151440294Y-70819384D01*
X151440294Y-70819384D02*
X151345056Y-70867003D01*
X151345056Y-70867003D02*
X151249818Y-70867003D01*
X150773627Y-70200336D02*
X150868865Y-70247956D01*
X150868865Y-70247956D02*
X150916484Y-70295575D01*
X150916484Y-70295575D02*
X150964103Y-70390813D01*
X150964103Y-70390813D02*
X150964103Y-70676527D01*
X150964103Y-70676527D02*
X150916484Y-70771765D01*
X150916484Y-70771765D02*
X150868865Y-70819384D01*
X150868865Y-70819384D02*
X150773627Y-70867003D01*
X150773627Y-70867003D02*
X150630770Y-70867003D01*
X150630770Y-70867003D02*
X150535532Y-70819384D01*
X150535532Y-70819384D02*
X150487913Y-70771765D01*
X150487913Y-70771765D02*
X150440294Y-70676527D01*
X150440294Y-70676527D02*
X150440294Y-70390813D01*
X150440294Y-70390813D02*
X150487913Y-70295575D01*
X150487913Y-70295575D02*
X150535532Y-70247956D01*
X150535532Y-70247956D02*
X150630770Y-70200336D01*
X150630770Y-70200336D02*
X150773627Y-70200336D01*
X150011722Y-70200336D02*
X150011722Y-71200336D01*
X150011722Y-70819384D02*
X149916484Y-70867003D01*
X149916484Y-70867003D02*
X149726008Y-70867003D01*
X149726008Y-70867003D02*
X149630770Y-70819384D01*
X149630770Y-70819384D02*
X149583151Y-70771765D01*
X149583151Y-70771765D02*
X149535532Y-70676527D01*
X149535532Y-70676527D02*
X149535532Y-70390813D01*
X149535532Y-70390813D02*
X149583151Y-70295575D01*
X149583151Y-70295575D02*
X149630770Y-70247956D01*
X149630770Y-70247956D02*
X149726008Y-70200336D01*
X149726008Y-70200336D02*
X149916484Y-70200336D01*
X149916484Y-70200336D02*
X150011722Y-70247956D01*
X148964103Y-70200336D02*
X149059341Y-70247956D01*
X149059341Y-70247956D02*
X149106960Y-70295575D01*
X149106960Y-70295575D02*
X149154579Y-70390813D01*
X149154579Y-70390813D02*
X149154579Y-70676527D01*
X149154579Y-70676527D02*
X149106960Y-70771765D01*
X149106960Y-70771765D02*
X149059341Y-70819384D01*
X149059341Y-70819384D02*
X148964103Y-70867003D01*
X148964103Y-70867003D02*
X148821246Y-70867003D01*
X148821246Y-70867003D02*
X148726008Y-70819384D01*
X148726008Y-70819384D02*
X148678389Y-70771765D01*
X148678389Y-70771765D02*
X148630770Y-70676527D01*
X148630770Y-70676527D02*
X148630770Y-70390813D01*
X148630770Y-70390813D02*
X148678389Y-70295575D01*
X148678389Y-70295575D02*
X148726008Y-70247956D01*
X148726008Y-70247956D02*
X148821246Y-70200336D01*
X148821246Y-70200336D02*
X148964103Y-70200336D01*
X156821247Y-68590336D02*
X156821247Y-69257003D01*
X156821247Y-69066527D02*
X156773628Y-69161765D01*
X156773628Y-69161765D02*
X156726009Y-69209384D01*
X156726009Y-69209384D02*
X156630771Y-69257003D01*
X156630771Y-69257003D02*
X156535533Y-69257003D01*
X156059342Y-68590336D02*
X156154580Y-68637956D01*
X156154580Y-68637956D02*
X156202199Y-68685575D01*
X156202199Y-68685575D02*
X156249818Y-68780813D01*
X156249818Y-68780813D02*
X156249818Y-69066527D01*
X156249818Y-69066527D02*
X156202199Y-69161765D01*
X156202199Y-69161765D02*
X156154580Y-69209384D01*
X156154580Y-69209384D02*
X156059342Y-69257003D01*
X156059342Y-69257003D02*
X155916485Y-69257003D01*
X155916485Y-69257003D02*
X155821247Y-69209384D01*
X155821247Y-69209384D02*
X155773628Y-69161765D01*
X155773628Y-69161765D02*
X155726009Y-69066527D01*
X155726009Y-69066527D02*
X155726009Y-68780813D01*
X155726009Y-68780813D02*
X155773628Y-68685575D01*
X155773628Y-68685575D02*
X155821247Y-68637956D01*
X155821247Y-68637956D02*
X155916485Y-68590336D01*
X155916485Y-68590336D02*
X156059342Y-68590336D01*
X155297437Y-68590336D02*
X155297437Y-69590336D01*
X155297437Y-69209384D02*
X155202199Y-69257003D01*
X155202199Y-69257003D02*
X155011723Y-69257003D01*
X155011723Y-69257003D02*
X154916485Y-69209384D01*
X154916485Y-69209384D02*
X154868866Y-69161765D01*
X154868866Y-69161765D02*
X154821247Y-69066527D01*
X154821247Y-69066527D02*
X154821247Y-68780813D01*
X154821247Y-68780813D02*
X154868866Y-68685575D01*
X154868866Y-68685575D02*
X154916485Y-68637956D01*
X154916485Y-68637956D02*
X155011723Y-68590336D01*
X155011723Y-68590336D02*
X155202199Y-68590336D01*
X155202199Y-68590336D02*
X155297437Y-68637956D01*
X154249818Y-68590336D02*
X154345056Y-68637956D01*
X154345056Y-68637956D02*
X154392675Y-68685575D01*
X154392675Y-68685575D02*
X154440294Y-68780813D01*
X154440294Y-68780813D02*
X154440294Y-69066527D01*
X154440294Y-69066527D02*
X154392675Y-69161765D01*
X154392675Y-69161765D02*
X154345056Y-69209384D01*
X154345056Y-69209384D02*
X154249818Y-69257003D01*
X154249818Y-69257003D02*
X154106961Y-69257003D01*
X154106961Y-69257003D02*
X154011723Y-69209384D01*
X154011723Y-69209384D02*
X153964104Y-69161765D01*
X153964104Y-69161765D02*
X153916485Y-69066527D01*
X153916485Y-69066527D02*
X153916485Y-68780813D01*
X153916485Y-68780813D02*
X153964104Y-68685575D01*
X153964104Y-68685575D02*
X154011723Y-68637956D01*
X154011723Y-68637956D02*
X154106961Y-68590336D01*
X154106961Y-68590336D02*
X154249818Y-68590336D01*
X153535532Y-69495098D02*
X153487913Y-69542717D01*
X153487913Y-69542717D02*
X153392675Y-69590336D01*
X153392675Y-69590336D02*
X153154580Y-69590336D01*
X153154580Y-69590336D02*
X153059342Y-69542717D01*
X153059342Y-69542717D02*
X153011723Y-69495098D01*
X153011723Y-69495098D02*
X152964104Y-69399860D01*
X152964104Y-69399860D02*
X152964104Y-69304622D01*
X152964104Y-69304622D02*
X153011723Y-69161765D01*
X153011723Y-69161765D02*
X153583151Y-68590336D01*
X153583151Y-68590336D02*
X152964104Y-68590336D01*
X152487913Y-69590336D02*
X152583151Y-69399860D01*
X152297438Y-68495098D02*
X151535533Y-68495098D01*
X151297437Y-68590336D02*
X151297437Y-69257003D01*
X151297437Y-69161765D02*
X151249818Y-69209384D01*
X151249818Y-69209384D02*
X151154580Y-69257003D01*
X151154580Y-69257003D02*
X151011723Y-69257003D01*
X151011723Y-69257003D02*
X150916485Y-69209384D01*
X150916485Y-69209384D02*
X150868866Y-69114146D01*
X150868866Y-69114146D02*
X150868866Y-68590336D01*
X150868866Y-69114146D02*
X150821247Y-69209384D01*
X150821247Y-69209384D02*
X150726009Y-69257003D01*
X150726009Y-69257003D02*
X150583152Y-69257003D01*
X150583152Y-69257003D02*
X150487913Y-69209384D01*
X150487913Y-69209384D02*
X150440294Y-69114146D01*
X150440294Y-69114146D02*
X150440294Y-68590336D01*
X149535533Y-68590336D02*
X149535533Y-69114146D01*
X149535533Y-69114146D02*
X149583152Y-69209384D01*
X149583152Y-69209384D02*
X149678390Y-69257003D01*
X149678390Y-69257003D02*
X149868866Y-69257003D01*
X149868866Y-69257003D02*
X149964104Y-69209384D01*
X149535533Y-68637956D02*
X149630771Y-68590336D01*
X149630771Y-68590336D02*
X149868866Y-68590336D01*
X149868866Y-68590336D02*
X149964104Y-68637956D01*
X149964104Y-68637956D02*
X150011723Y-68733194D01*
X150011723Y-68733194D02*
X150011723Y-68828432D01*
X150011723Y-68828432D02*
X149964104Y-68923670D01*
X149964104Y-68923670D02*
X149868866Y-68971289D01*
X149868866Y-68971289D02*
X149630771Y-68971289D01*
X149630771Y-68971289D02*
X149535533Y-69018908D01*
X149059342Y-68590336D02*
X149059342Y-69257003D01*
X149059342Y-69590336D02*
X149106961Y-69542717D01*
X149106961Y-69542717D02*
X149059342Y-69495098D01*
X149059342Y-69495098D02*
X149011723Y-69542717D01*
X149011723Y-69542717D02*
X149059342Y-69590336D01*
X149059342Y-69590336D02*
X149059342Y-69495098D01*
X148583152Y-69257003D02*
X148583152Y-68590336D01*
X148583152Y-69161765D02*
X148535533Y-69209384D01*
X148535533Y-69209384D02*
X148440295Y-69257003D01*
X148440295Y-69257003D02*
X148297438Y-69257003D01*
X148297438Y-69257003D02*
X148202200Y-69209384D01*
X148202200Y-69209384D02*
X148154581Y-69114146D01*
X148154581Y-69114146D02*
X148154581Y-68590336D01*
X147916486Y-68495098D02*
X147154581Y-68495098D01*
X146916485Y-68590336D02*
X146916485Y-69590336D01*
X146916485Y-69209384D02*
X146821247Y-69257003D01*
X146821247Y-69257003D02*
X146630771Y-69257003D01*
X146630771Y-69257003D02*
X146535533Y-69209384D01*
X146535533Y-69209384D02*
X146487914Y-69161765D01*
X146487914Y-69161765D02*
X146440295Y-69066527D01*
X146440295Y-69066527D02*
X146440295Y-68780813D01*
X146440295Y-68780813D02*
X146487914Y-68685575D01*
X146487914Y-68685575D02*
X146535533Y-68637956D01*
X146535533Y-68637956D02*
X146630771Y-68590336D01*
X146630771Y-68590336D02*
X146821247Y-68590336D01*
X146821247Y-68590336D02*
X146916485Y-68637956D01*
X145868866Y-68590336D02*
X145964104Y-68637956D01*
X145964104Y-68637956D02*
X146011723Y-68685575D01*
X146011723Y-68685575D02*
X146059342Y-68780813D01*
X146059342Y-68780813D02*
X146059342Y-69066527D01*
X146059342Y-69066527D02*
X146011723Y-69161765D01*
X146011723Y-69161765D02*
X145964104Y-69209384D01*
X145964104Y-69209384D02*
X145868866Y-69257003D01*
X145868866Y-69257003D02*
X145726009Y-69257003D01*
X145726009Y-69257003D02*
X145630771Y-69209384D01*
X145630771Y-69209384D02*
X145583152Y-69161765D01*
X145583152Y-69161765D02*
X145535533Y-69066527D01*
X145535533Y-69066527D02*
X145535533Y-68780813D01*
X145535533Y-68780813D02*
X145583152Y-68685575D01*
X145583152Y-68685575D02*
X145630771Y-68637956D01*
X145630771Y-68637956D02*
X145726009Y-68590336D01*
X145726009Y-68590336D02*
X145868866Y-68590336D01*
X144678390Y-68590336D02*
X144678390Y-69114146D01*
X144678390Y-69114146D02*
X144726009Y-69209384D01*
X144726009Y-69209384D02*
X144821247Y-69257003D01*
X144821247Y-69257003D02*
X145011723Y-69257003D01*
X145011723Y-69257003D02*
X145106961Y-69209384D01*
X144678390Y-68637956D02*
X144773628Y-68590336D01*
X144773628Y-68590336D02*
X145011723Y-68590336D01*
X145011723Y-68590336D02*
X145106961Y-68637956D01*
X145106961Y-68637956D02*
X145154580Y-68733194D01*
X145154580Y-68733194D02*
X145154580Y-68828432D01*
X145154580Y-68828432D02*
X145106961Y-68923670D01*
X145106961Y-68923670D02*
X145011723Y-68971289D01*
X145011723Y-68971289D02*
X144773628Y-68971289D01*
X144773628Y-68971289D02*
X144678390Y-69018908D01*
X144202199Y-68590336D02*
X144202199Y-69257003D01*
X144202199Y-69066527D02*
X144154580Y-69161765D01*
X144154580Y-69161765D02*
X144106961Y-69209384D01*
X144106961Y-69209384D02*
X144011723Y-69257003D01*
X144011723Y-69257003D02*
X143916485Y-69257003D01*
X143154580Y-68590336D02*
X143154580Y-69590336D01*
X143154580Y-68637956D02*
X143249818Y-68590336D01*
X143249818Y-68590336D02*
X143440294Y-68590336D01*
X143440294Y-68590336D02*
X143535532Y-68637956D01*
X143535532Y-68637956D02*
X143583151Y-68685575D01*
X143583151Y-68685575D02*
X143630770Y-68780813D01*
X143630770Y-68780813D02*
X143630770Y-69066527D01*
X143630770Y-69066527D02*
X143583151Y-69161765D01*
X143583151Y-69161765D02*
X143535532Y-69209384D01*
X143535532Y-69209384D02*
X143440294Y-69257003D01*
X143440294Y-69257003D02*
X143249818Y-69257003D01*
X143249818Y-69257003D02*
X143154580Y-69209384D01*
X142678389Y-68685575D02*
X142630770Y-68637956D01*
X142630770Y-68637956D02*
X142678389Y-68590336D01*
X142678389Y-68590336D02*
X142726008Y-68637956D01*
X142726008Y-68637956D02*
X142678389Y-68685575D01*
X142678389Y-68685575D02*
X142678389Y-68590336D01*
X142297437Y-69257003D02*
X142059342Y-68590336D01*
X142059342Y-68590336D02*
X141821247Y-69257003D01*
X141059342Y-68637956D02*
X141154580Y-68590336D01*
X141154580Y-68590336D02*
X141345056Y-68590336D01*
X141345056Y-68590336D02*
X141440294Y-68637956D01*
X141440294Y-68637956D02*
X141487913Y-68733194D01*
X141487913Y-68733194D02*
X141487913Y-69114146D01*
X141487913Y-69114146D02*
X141440294Y-69209384D01*
X141440294Y-69209384D02*
X141345056Y-69257003D01*
X141345056Y-69257003D02*
X141154580Y-69257003D01*
X141154580Y-69257003D02*
X141059342Y-69209384D01*
X141059342Y-69209384D02*
X141011723Y-69114146D01*
X141011723Y-69114146D02*
X141011723Y-69018908D01*
X141011723Y-69018908D02*
X141487913Y-68923670D01*
X140583151Y-68590336D02*
X140583151Y-69257003D01*
X140583151Y-69066527D02*
X140535532Y-69161765D01*
X140535532Y-69161765D02*
X140487913Y-69209384D01*
X140487913Y-69209384D02*
X140392675Y-69257003D01*
X140392675Y-69257003D02*
X140297437Y-69257003D01*
X139440294Y-68590336D02*
X140011722Y-68590336D01*
X139726008Y-68590336D02*
X139726008Y-69590336D01*
X139726008Y-69590336D02*
X139821246Y-69447479D01*
X139821246Y-69447479D02*
X139916484Y-69352241D01*
X139916484Y-69352241D02*
X140011722Y-69304622D01*
X139011722Y-68685575D02*
X138964103Y-68637956D01*
X138964103Y-68637956D02*
X139011722Y-68590336D01*
X139011722Y-68590336D02*
X139059341Y-68637956D01*
X139059341Y-68637956D02*
X139011722Y-68685575D01*
X139011722Y-68685575D02*
X139011722Y-68590336D01*
X138059342Y-69590336D02*
X138535532Y-69590336D01*
X138535532Y-69590336D02*
X138583151Y-69114146D01*
X138583151Y-69114146D02*
X138535532Y-69161765D01*
X138535532Y-69161765D02*
X138440294Y-69209384D01*
X138440294Y-69209384D02*
X138202199Y-69209384D01*
X138202199Y-69209384D02*
X138106961Y-69161765D01*
X138106961Y-69161765D02*
X138059342Y-69114146D01*
X138059342Y-69114146D02*
X138011723Y-69018908D01*
X138011723Y-69018908D02*
X138011723Y-68780813D01*
X138011723Y-68780813D02*
X138059342Y-68685575D01*
X138059342Y-68685575D02*
X138106961Y-68637956D01*
X138106961Y-68637956D02*
X138202199Y-68590336D01*
X138202199Y-68590336D02*
X138440294Y-68590336D01*
X138440294Y-68590336D02*
X138535532Y-68637956D01*
X138535532Y-68637956D02*
X138583151Y-68685575D01*
X153577524Y-78969663D02*
X153672762Y-78969663D01*
X153672762Y-78969663D02*
X153768000Y-79017282D01*
X153768000Y-79017282D02*
X153815619Y-79064901D01*
X153815619Y-79064901D02*
X153863238Y-79160139D01*
X153863238Y-79160139D02*
X153910857Y-79350615D01*
X153910857Y-79350615D02*
X153910857Y-79588710D01*
X153910857Y-79588710D02*
X153863238Y-79779186D01*
X153863238Y-79779186D02*
X153815619Y-79874424D01*
X153815619Y-79874424D02*
X153768000Y-79922044D01*
X153768000Y-79922044D02*
X153672762Y-79969663D01*
X153672762Y-79969663D02*
X153577524Y-79969663D01*
X153577524Y-79969663D02*
X153482286Y-79922044D01*
X153482286Y-79922044D02*
X153434667Y-79874424D01*
X153434667Y-79874424D02*
X153387048Y-79779186D01*
X153387048Y-79779186D02*
X153339429Y-79588710D01*
X153339429Y-79588710D02*
X153339429Y-79350615D01*
X153339429Y-79350615D02*
X153387048Y-79160139D01*
X153387048Y-79160139D02*
X153434667Y-79064901D01*
X153434667Y-79064901D02*
X153482286Y-79017282D01*
X153482286Y-79017282D02*
X153577524Y-78969663D01*
X154339429Y-79874424D02*
X154387048Y-79922044D01*
X154387048Y-79922044D02*
X154339429Y-79969663D01*
X154339429Y-79969663D02*
X154291810Y-79922044D01*
X154291810Y-79922044D02*
X154339429Y-79874424D01*
X154339429Y-79874424D02*
X154339429Y-79969663D01*
X154720381Y-78969663D02*
X155339428Y-78969663D01*
X155339428Y-78969663D02*
X155006095Y-79350615D01*
X155006095Y-79350615D02*
X155148952Y-79350615D01*
X155148952Y-79350615D02*
X155244190Y-79398234D01*
X155244190Y-79398234D02*
X155291809Y-79445853D01*
X155291809Y-79445853D02*
X155339428Y-79541091D01*
X155339428Y-79541091D02*
X155339428Y-79779186D01*
X155339428Y-79779186D02*
X155291809Y-79874424D01*
X155291809Y-79874424D02*
X155244190Y-79922044D01*
X155244190Y-79922044D02*
X155148952Y-79969663D01*
X155148952Y-79969663D02*
X154863238Y-79969663D01*
X154863238Y-79969663D02*
X154768000Y-79922044D01*
X154768000Y-79922044D02*
X154720381Y-79874424D01*
X155672762Y-78969663D02*
X156291809Y-78969663D01*
X156291809Y-78969663D02*
X155958476Y-79350615D01*
X155958476Y-79350615D02*
X156101333Y-79350615D01*
X156101333Y-79350615D02*
X156196571Y-79398234D01*
X156196571Y-79398234D02*
X156244190Y-79445853D01*
X156244190Y-79445853D02*
X156291809Y-79541091D01*
X156291809Y-79541091D02*
X156291809Y-79779186D01*
X156291809Y-79779186D02*
X156244190Y-79874424D01*
X156244190Y-79874424D02*
X156196571Y-79922044D01*
X156196571Y-79922044D02*
X156101333Y-79969663D01*
X156101333Y-79969663D02*
X155815619Y-79969663D01*
X155815619Y-79969663D02*
X155720381Y-79922044D01*
X155720381Y-79922044D02*
X155672762Y-79874424D01*
X157148952Y-79302996D02*
X157148952Y-79969663D01*
X156720381Y-79302996D02*
X156720381Y-79826805D01*
X156720381Y-79826805D02*
X156768000Y-79922044D01*
X156768000Y-79922044D02*
X156863238Y-79969663D01*
X156863238Y-79969663D02*
X157006095Y-79969663D01*
X157006095Y-79969663D02*
X157101333Y-79922044D01*
X157101333Y-79922044D02*
X157148952Y-79874424D01*
X137705853Y-96287914D02*
X137705853Y-96621247D01*
X138229663Y-96621247D02*
X137229663Y-96621247D01*
X137229663Y-96621247D02*
X137229663Y-96145057D01*
X137562996Y-95335533D02*
X138229663Y-95335533D01*
X137182044Y-95573628D02*
X137896329Y-95811723D01*
X137896329Y-95811723D02*
X137896329Y-95192676D01*
X137562996Y-94383152D02*
X138229663Y-94383152D01*
X137182044Y-94621247D02*
X137896329Y-94859342D01*
X137896329Y-94859342D02*
X137896329Y-94240295D01*
X137229663Y-93430771D02*
X137229663Y-93621247D01*
X137229663Y-93621247D02*
X137277282Y-93716485D01*
X137277282Y-93716485D02*
X137324901Y-93764104D01*
X137324901Y-93764104D02*
X137467758Y-93859342D01*
X137467758Y-93859342D02*
X137658234Y-93906961D01*
X137658234Y-93906961D02*
X138039186Y-93906961D01*
X138039186Y-93906961D02*
X138134424Y-93859342D01*
X138134424Y-93859342D02*
X138182044Y-93811723D01*
X138182044Y-93811723D02*
X138229663Y-93716485D01*
X138229663Y-93716485D02*
X138229663Y-93526009D01*
X138229663Y-93526009D02*
X138182044Y-93430771D01*
X138182044Y-93430771D02*
X138134424Y-93383152D01*
X138134424Y-93383152D02*
X138039186Y-93335533D01*
X138039186Y-93335533D02*
X137801091Y-93335533D01*
X137801091Y-93335533D02*
X137705853Y-93383152D01*
X137705853Y-93383152D02*
X137658234Y-93430771D01*
X137658234Y-93430771D02*
X137610615Y-93526009D01*
X137610615Y-93526009D02*
X137610615Y-93716485D01*
X137610615Y-93716485D02*
X137658234Y-93811723D01*
X137658234Y-93811723D02*
X137705853Y-93859342D01*
X137705853Y-93859342D02*
X137801091Y-93906961D01*
X138229663Y-92335533D02*
X137753472Y-92668866D01*
X138229663Y-92906961D02*
X137229663Y-92906961D01*
X137229663Y-92906961D02*
X137229663Y-92526009D01*
X137229663Y-92526009D02*
X137277282Y-92430771D01*
X137277282Y-92430771D02*
X137324901Y-92383152D01*
X137324901Y-92383152D02*
X137420139Y-92335533D01*
X137420139Y-92335533D02*
X137562996Y-92335533D01*
X137562996Y-92335533D02*
X137658234Y-92383152D01*
X137658234Y-92383152D02*
X137705853Y-92430771D01*
X137705853Y-92430771D02*
X137753472Y-92526009D01*
X137753472Y-92526009D02*
X137753472Y-92906961D01*
X138182044Y-91526009D02*
X138229663Y-91621247D01*
X138229663Y-91621247D02*
X138229663Y-91811723D01*
X138229663Y-91811723D02*
X138182044Y-91906961D01*
X138182044Y-91906961D02*
X138086805Y-91954580D01*
X138086805Y-91954580D02*
X137705853Y-91954580D01*
X137705853Y-91954580D02*
X137610615Y-91906961D01*
X137610615Y-91906961D02*
X137562996Y-91811723D01*
X137562996Y-91811723D02*
X137562996Y-91621247D01*
X137562996Y-91621247D02*
X137610615Y-91526009D01*
X137610615Y-91526009D02*
X137705853Y-91478390D01*
X137705853Y-91478390D02*
X137801091Y-91478390D01*
X137801091Y-91478390D02*
X137896329Y-91954580D01*
X153928853Y-97376952D02*
X153928853Y-97710285D01*
X154452663Y-97710285D02*
X153452663Y-97710285D01*
X153452663Y-97710285D02*
X153452663Y-97234095D01*
X153928853Y-96853142D02*
X153928853Y-96519809D01*
X154452663Y-96376952D02*
X154452663Y-96853142D01*
X154452663Y-96853142D02*
X153452663Y-96853142D01*
X153452663Y-96853142D02*
X153452663Y-96376952D01*
X154452663Y-95948380D02*
X153452663Y-95948380D01*
X153452663Y-95948380D02*
X153452663Y-95567428D01*
X153452663Y-95567428D02*
X153500282Y-95472190D01*
X153500282Y-95472190D02*
X153547901Y-95424571D01*
X153547901Y-95424571D02*
X153643139Y-95376952D01*
X153643139Y-95376952D02*
X153785996Y-95376952D01*
X153785996Y-95376952D02*
X153881234Y-95424571D01*
X153881234Y-95424571D02*
X153928853Y-95472190D01*
X153928853Y-95472190D02*
X153976472Y-95567428D01*
X153976472Y-95567428D02*
X153976472Y-95948380D01*
X154071710Y-94948380D02*
X154071710Y-94186476D01*
X153452663Y-93519809D02*
X153452663Y-93424571D01*
X153452663Y-93424571D02*
X153500282Y-93329333D01*
X153500282Y-93329333D02*
X153547901Y-93281714D01*
X153547901Y-93281714D02*
X153643139Y-93234095D01*
X153643139Y-93234095D02*
X153833615Y-93186476D01*
X153833615Y-93186476D02*
X154071710Y-93186476D01*
X154071710Y-93186476D02*
X154262186Y-93234095D01*
X154262186Y-93234095D02*
X154357424Y-93281714D01*
X154357424Y-93281714D02*
X154405044Y-93329333D01*
X154405044Y-93329333D02*
X154452663Y-93424571D01*
X154452663Y-93424571D02*
X154452663Y-93519809D01*
X154452663Y-93519809D02*
X154405044Y-93615047D01*
X154405044Y-93615047D02*
X154357424Y-93662666D01*
X154357424Y-93662666D02*
X154262186Y-93710285D01*
X154262186Y-93710285D02*
X154071710Y-93757904D01*
X154071710Y-93757904D02*
X153833615Y-93757904D01*
X153833615Y-93757904D02*
X153643139Y-93710285D01*
X153643139Y-93710285D02*
X153547901Y-93662666D01*
X153547901Y-93662666D02*
X153500282Y-93615047D01*
X153500282Y-93615047D02*
X153452663Y-93519809D01*
X153547901Y-92805523D02*
X153500282Y-92757904D01*
X153500282Y-92757904D02*
X153452663Y-92662666D01*
X153452663Y-92662666D02*
X153452663Y-92424571D01*
X153452663Y-92424571D02*
X153500282Y-92329333D01*
X153500282Y-92329333D02*
X153547901Y-92281714D01*
X153547901Y-92281714D02*
X153643139Y-92234095D01*
X153643139Y-92234095D02*
X153738377Y-92234095D01*
X153738377Y-92234095D02*
X153881234Y-92281714D01*
X153881234Y-92281714D02*
X154452663Y-92853142D01*
X154452663Y-92853142D02*
X154452663Y-92234095D01*
X127383714Y-97244663D02*
X127478952Y-97244663D01*
X127478952Y-97244663D02*
X127574190Y-97292282D01*
X127574190Y-97292282D02*
X127621809Y-97339901D01*
X127621809Y-97339901D02*
X127669428Y-97435139D01*
X127669428Y-97435139D02*
X127717047Y-97625615D01*
X127717047Y-97625615D02*
X127717047Y-97863710D01*
X127717047Y-97863710D02*
X127669428Y-98054186D01*
X127669428Y-98054186D02*
X127621809Y-98149424D01*
X127621809Y-98149424D02*
X127574190Y-98197044D01*
X127574190Y-98197044D02*
X127478952Y-98244663D01*
X127478952Y-98244663D02*
X127383714Y-98244663D01*
X127383714Y-98244663D02*
X127288476Y-98197044D01*
X127288476Y-98197044D02*
X127240857Y-98149424D01*
X127240857Y-98149424D02*
X127193238Y-98054186D01*
X127193238Y-98054186D02*
X127145619Y-97863710D01*
X127145619Y-97863710D02*
X127145619Y-97625615D01*
X127145619Y-97625615D02*
X127193238Y-97435139D01*
X127193238Y-97435139D02*
X127240857Y-97339901D01*
X127240857Y-97339901D02*
X127288476Y-97292282D01*
X127288476Y-97292282D02*
X127383714Y-97244663D01*
X128145619Y-98149424D02*
X128193238Y-98197044D01*
X128193238Y-98197044D02*
X128145619Y-98244663D01*
X128145619Y-98244663D02*
X128098000Y-98197044D01*
X128098000Y-98197044D02*
X128145619Y-98149424D01*
X128145619Y-98149424D02*
X128145619Y-98244663D01*
X129145618Y-98244663D02*
X128574190Y-98244663D01*
X128859904Y-98244663D02*
X128859904Y-97244663D01*
X128859904Y-97244663D02*
X128764666Y-97387520D01*
X128764666Y-97387520D02*
X128669428Y-97482758D01*
X128669428Y-97482758D02*
X128574190Y-97530377D01*
X130002761Y-97577996D02*
X130002761Y-98244663D01*
X129574190Y-97577996D02*
X129574190Y-98101805D01*
X129574190Y-98101805D02*
X129621809Y-98197044D01*
X129621809Y-98197044D02*
X129717047Y-98244663D01*
X129717047Y-98244663D02*
X129859904Y-98244663D01*
X129859904Y-98244663D02*
X129955142Y-98197044D01*
X129955142Y-98197044D02*
X130002761Y-98149424D01*
X146419996Y-115614971D02*
X147086663Y-115614971D01*
X146039044Y-115853066D02*
X146753329Y-116091161D01*
X146753329Y-116091161D02*
X146753329Y-115472114D01*
X146991424Y-115091161D02*
X147039044Y-115043542D01*
X147039044Y-115043542D02*
X147086663Y-115091161D01*
X147086663Y-115091161D02*
X147039044Y-115138780D01*
X147039044Y-115138780D02*
X146991424Y-115091161D01*
X146991424Y-115091161D02*
X147086663Y-115091161D01*
X146086663Y-114710209D02*
X146086663Y-114043543D01*
X146086663Y-114043543D02*
X147086663Y-114472114D01*
X147086663Y-113662590D02*
X146086663Y-113662590D01*
X146705710Y-113567352D02*
X147086663Y-113281638D01*
X146419996Y-113281638D02*
X146800948Y-113662590D01*
X124736114Y-88298663D02*
X124831352Y-88298663D01*
X124831352Y-88298663D02*
X124926590Y-88346282D01*
X124926590Y-88346282D02*
X124974209Y-88393901D01*
X124974209Y-88393901D02*
X125021828Y-88489139D01*
X125021828Y-88489139D02*
X125069447Y-88679615D01*
X125069447Y-88679615D02*
X125069447Y-88917710D01*
X125069447Y-88917710D02*
X125021828Y-89108186D01*
X125021828Y-89108186D02*
X124974209Y-89203424D01*
X124974209Y-89203424D02*
X124926590Y-89251044D01*
X124926590Y-89251044D02*
X124831352Y-89298663D01*
X124831352Y-89298663D02*
X124736114Y-89298663D01*
X124736114Y-89298663D02*
X124640876Y-89251044D01*
X124640876Y-89251044D02*
X124593257Y-89203424D01*
X124593257Y-89203424D02*
X124545638Y-89108186D01*
X124545638Y-89108186D02*
X124498019Y-88917710D01*
X124498019Y-88917710D02*
X124498019Y-88679615D01*
X124498019Y-88679615D02*
X124545638Y-88489139D01*
X124545638Y-88489139D02*
X124593257Y-88393901D01*
X124593257Y-88393901D02*
X124640876Y-88346282D01*
X124640876Y-88346282D02*
X124736114Y-88298663D01*
X125498019Y-89203424D02*
X125545638Y-89251044D01*
X125545638Y-89251044D02*
X125498019Y-89298663D01*
X125498019Y-89298663D02*
X125450400Y-89251044D01*
X125450400Y-89251044D02*
X125498019Y-89203424D01*
X125498019Y-89203424D02*
X125498019Y-89298663D01*
X126498018Y-89298663D02*
X125926590Y-89298663D01*
X126212304Y-89298663D02*
X126212304Y-88298663D01*
X126212304Y-88298663D02*
X126117066Y-88441520D01*
X126117066Y-88441520D02*
X126021828Y-88536758D01*
X126021828Y-88536758D02*
X125926590Y-88584377D01*
X127355161Y-88631996D02*
X127355161Y-89298663D01*
X126926590Y-88631996D02*
X126926590Y-89155805D01*
X126926590Y-89155805D02*
X126974209Y-89251044D01*
X126974209Y-89251044D02*
X127069447Y-89298663D01*
X127069447Y-89298663D02*
X127212304Y-89298663D01*
X127212304Y-89298663D02*
X127307542Y-89251044D01*
X127307542Y-89251044D02*
X127355161Y-89203424D01*
X128917142Y-83190853D02*
X128583809Y-83190853D01*
X128583809Y-83714663D02*
X128583809Y-82714663D01*
X128583809Y-82714663D02*
X129059999Y-82714663D01*
X129869523Y-83047996D02*
X129869523Y-83714663D01*
X129440952Y-83047996D02*
X129440952Y-83571805D01*
X129440952Y-83571805D02*
X129488571Y-83667044D01*
X129488571Y-83667044D02*
X129583809Y-83714663D01*
X129583809Y-83714663D02*
X129726666Y-83714663D01*
X129726666Y-83714663D02*
X129821904Y-83667044D01*
X129821904Y-83667044D02*
X129869523Y-83619424D01*
X130298095Y-83667044D02*
X130393333Y-83714663D01*
X130393333Y-83714663D02*
X130583809Y-83714663D01*
X130583809Y-83714663D02*
X130679047Y-83667044D01*
X130679047Y-83667044D02*
X130726666Y-83571805D01*
X130726666Y-83571805D02*
X130726666Y-83524186D01*
X130726666Y-83524186D02*
X130679047Y-83428948D01*
X130679047Y-83428948D02*
X130583809Y-83381329D01*
X130583809Y-83381329D02*
X130440952Y-83381329D01*
X130440952Y-83381329D02*
X130345714Y-83333710D01*
X130345714Y-83333710D02*
X130298095Y-83238472D01*
X130298095Y-83238472D02*
X130298095Y-83190853D01*
X130298095Y-83190853D02*
X130345714Y-83095615D01*
X130345714Y-83095615D02*
X130440952Y-83047996D01*
X130440952Y-83047996D02*
X130583809Y-83047996D01*
X130583809Y-83047996D02*
X130679047Y-83095615D01*
X131536190Y-83667044D02*
X131440952Y-83714663D01*
X131440952Y-83714663D02*
X131250476Y-83714663D01*
X131250476Y-83714663D02*
X131155238Y-83667044D01*
X131155238Y-83667044D02*
X131107619Y-83571805D01*
X131107619Y-83571805D02*
X131107619Y-83190853D01*
X131107619Y-83190853D02*
X131155238Y-83095615D01*
X131155238Y-83095615D02*
X131250476Y-83047996D01*
X131250476Y-83047996D02*
X131440952Y-83047996D01*
X131440952Y-83047996D02*
X131536190Y-83095615D01*
X131536190Y-83095615D02*
X131583809Y-83190853D01*
X131583809Y-83190853D02*
X131583809Y-83286091D01*
X131583809Y-83286091D02*
X131107619Y-83381329D01*
X129886713Y-68780663D02*
X129553380Y-68304472D01*
X129315285Y-68780663D02*
X129315285Y-67780663D01*
X129315285Y-67780663D02*
X129696237Y-67780663D01*
X129696237Y-67780663D02*
X129791475Y-67828282D01*
X129791475Y-67828282D02*
X129839094Y-67875901D01*
X129839094Y-67875901D02*
X129886713Y-67971139D01*
X129886713Y-67971139D02*
X129886713Y-68113996D01*
X129886713Y-68113996D02*
X129839094Y-68209234D01*
X129839094Y-68209234D02*
X129791475Y-68256853D01*
X129791475Y-68256853D02*
X129696237Y-68304472D01*
X129696237Y-68304472D02*
X129315285Y-68304472D01*
X130696237Y-68733044D02*
X130600999Y-68780663D01*
X130600999Y-68780663D02*
X130410523Y-68780663D01*
X130410523Y-68780663D02*
X130315285Y-68733044D01*
X130315285Y-68733044D02*
X130267666Y-68637805D01*
X130267666Y-68637805D02*
X130267666Y-68256853D01*
X130267666Y-68256853D02*
X130315285Y-68161615D01*
X130315285Y-68161615D02*
X130410523Y-68113996D01*
X130410523Y-68113996D02*
X130600999Y-68113996D01*
X130600999Y-68113996D02*
X130696237Y-68161615D01*
X130696237Y-68161615D02*
X130743856Y-68256853D01*
X130743856Y-68256853D02*
X130743856Y-68352091D01*
X130743856Y-68352091D02*
X130267666Y-68447329D01*
X131315285Y-68780663D02*
X131220047Y-68733044D01*
X131220047Y-68733044D02*
X131172428Y-68637805D01*
X131172428Y-68637805D02*
X131172428Y-67780663D01*
X132124809Y-68780663D02*
X132124809Y-68256853D01*
X132124809Y-68256853D02*
X132077190Y-68161615D01*
X132077190Y-68161615D02*
X131981952Y-68113996D01*
X131981952Y-68113996D02*
X131791476Y-68113996D01*
X131791476Y-68113996D02*
X131696238Y-68161615D01*
X132124809Y-68733044D02*
X132029571Y-68780663D01*
X132029571Y-68780663D02*
X131791476Y-68780663D01*
X131791476Y-68780663D02*
X131696238Y-68733044D01*
X131696238Y-68733044D02*
X131648619Y-68637805D01*
X131648619Y-68637805D02*
X131648619Y-68542567D01*
X131648619Y-68542567D02*
X131696238Y-68447329D01*
X131696238Y-68447329D02*
X131791476Y-68399710D01*
X131791476Y-68399710D02*
X132029571Y-68399710D01*
X132029571Y-68399710D02*
X132124809Y-68352091D01*
X132505762Y-68113996D02*
X132743857Y-68780663D01*
X132981952Y-68113996D02*
X132743857Y-68780663D01*
X132743857Y-68780663D02*
X132648619Y-69018758D01*
X132648619Y-69018758D02*
X132601000Y-69066377D01*
X132601000Y-69066377D02*
X132505762Y-69113996D01*
X144835714Y-98804663D02*
X144930952Y-98804663D01*
X144930952Y-98804663D02*
X145026190Y-98852282D01*
X145026190Y-98852282D02*
X145073809Y-98899901D01*
X145073809Y-98899901D02*
X145121428Y-98995139D01*
X145121428Y-98995139D02*
X145169047Y-99185615D01*
X145169047Y-99185615D02*
X145169047Y-99423710D01*
X145169047Y-99423710D02*
X145121428Y-99614186D01*
X145121428Y-99614186D02*
X145073809Y-99709424D01*
X145073809Y-99709424D02*
X145026190Y-99757044D01*
X145026190Y-99757044D02*
X144930952Y-99804663D01*
X144930952Y-99804663D02*
X144835714Y-99804663D01*
X144835714Y-99804663D02*
X144740476Y-99757044D01*
X144740476Y-99757044D02*
X144692857Y-99709424D01*
X144692857Y-99709424D02*
X144645238Y-99614186D01*
X144645238Y-99614186D02*
X144597619Y-99423710D01*
X144597619Y-99423710D02*
X144597619Y-99185615D01*
X144597619Y-99185615D02*
X144645238Y-98995139D01*
X144645238Y-98995139D02*
X144692857Y-98899901D01*
X144692857Y-98899901D02*
X144740476Y-98852282D01*
X144740476Y-98852282D02*
X144835714Y-98804663D01*
X145597619Y-99709424D02*
X145645238Y-99757044D01*
X145645238Y-99757044D02*
X145597619Y-99804663D01*
X145597619Y-99804663D02*
X145550000Y-99757044D01*
X145550000Y-99757044D02*
X145597619Y-99709424D01*
X145597619Y-99709424D02*
X145597619Y-99804663D01*
X146597618Y-99804663D02*
X146026190Y-99804663D01*
X146311904Y-99804663D02*
X146311904Y-98804663D01*
X146311904Y-98804663D02*
X146216666Y-98947520D01*
X146216666Y-98947520D02*
X146121428Y-99042758D01*
X146121428Y-99042758D02*
X146026190Y-99090377D01*
X147454761Y-99137996D02*
X147454761Y-99804663D01*
X147026190Y-99137996D02*
X147026190Y-99661805D01*
X147026190Y-99661805D02*
X147073809Y-99757044D01*
X147073809Y-99757044D02*
X147169047Y-99804663D01*
X147169047Y-99804663D02*
X147311904Y-99804663D01*
X147311904Y-99804663D02*
X147407142Y-99757044D01*
X147407142Y-99757044D02*
X147454761Y-99709424D01*
X119597618Y-78280853D02*
X119740475Y-78328472D01*
X119740475Y-78328472D02*
X119788094Y-78376091D01*
X119788094Y-78376091D02*
X119835713Y-78471329D01*
X119835713Y-78471329D02*
X119835713Y-78614186D01*
X119835713Y-78614186D02*
X119788094Y-78709424D01*
X119788094Y-78709424D02*
X119740475Y-78757044D01*
X119740475Y-78757044D02*
X119645237Y-78804663D01*
X119645237Y-78804663D02*
X119264285Y-78804663D01*
X119264285Y-78804663D02*
X119264285Y-77804663D01*
X119264285Y-77804663D02*
X119597618Y-77804663D01*
X119597618Y-77804663D02*
X119692856Y-77852282D01*
X119692856Y-77852282D02*
X119740475Y-77899901D01*
X119740475Y-77899901D02*
X119788094Y-77995139D01*
X119788094Y-77995139D02*
X119788094Y-78090377D01*
X119788094Y-78090377D02*
X119740475Y-78185615D01*
X119740475Y-78185615D02*
X119692856Y-78233234D01*
X119692856Y-78233234D02*
X119597618Y-78280853D01*
X119597618Y-78280853D02*
X119264285Y-78280853D01*
X120692856Y-78804663D02*
X120692856Y-78280853D01*
X120692856Y-78280853D02*
X120645237Y-78185615D01*
X120645237Y-78185615D02*
X120549999Y-78137996D01*
X120549999Y-78137996D02*
X120359523Y-78137996D01*
X120359523Y-78137996D02*
X120264285Y-78185615D01*
X120692856Y-78757044D02*
X120597618Y-78804663D01*
X120597618Y-78804663D02*
X120359523Y-78804663D01*
X120359523Y-78804663D02*
X120264285Y-78757044D01*
X120264285Y-78757044D02*
X120216666Y-78661805D01*
X120216666Y-78661805D02*
X120216666Y-78566567D01*
X120216666Y-78566567D02*
X120264285Y-78471329D01*
X120264285Y-78471329D02*
X120359523Y-78423710D01*
X120359523Y-78423710D02*
X120597618Y-78423710D01*
X120597618Y-78423710D02*
X120692856Y-78376091D01*
X121026190Y-78137996D02*
X121407142Y-78137996D01*
X121169047Y-77804663D02*
X121169047Y-78661805D01*
X121169047Y-78661805D02*
X121216666Y-78757044D01*
X121216666Y-78757044D02*
X121311904Y-78804663D01*
X121311904Y-78804663D02*
X121407142Y-78804663D01*
X121597619Y-78137996D02*
X121978571Y-78137996D01*
X121740476Y-77804663D02*
X121740476Y-78661805D01*
X121740476Y-78661805D02*
X121788095Y-78757044D01*
X121788095Y-78757044D02*
X121883333Y-78804663D01*
X121883333Y-78804663D02*
X121978571Y-78804663D01*
X118136476Y-90878663D02*
X118136476Y-89878663D01*
X118136476Y-89878663D02*
X118469809Y-90592948D01*
X118469809Y-90592948D02*
X118803142Y-89878663D01*
X118803142Y-89878663D02*
X118803142Y-90878663D01*
X119184095Y-89878663D02*
X119803142Y-89878663D01*
X119803142Y-89878663D02*
X119469809Y-90259615D01*
X119469809Y-90259615D02*
X119612666Y-90259615D01*
X119612666Y-90259615D02*
X119707904Y-90307234D01*
X119707904Y-90307234D02*
X119755523Y-90354853D01*
X119755523Y-90354853D02*
X119803142Y-90450091D01*
X119803142Y-90450091D02*
X119803142Y-90688186D01*
X119803142Y-90688186D02*
X119755523Y-90783424D01*
X119755523Y-90783424D02*
X119707904Y-90831044D01*
X119707904Y-90831044D02*
X119612666Y-90878663D01*
X119612666Y-90878663D02*
X119326952Y-90878663D01*
X119326952Y-90878663D02*
X119231714Y-90831044D01*
X119231714Y-90831044D02*
X119184095Y-90783424D01*
X134083810Y-67780663D02*
X134702857Y-67780663D01*
X134702857Y-67780663D02*
X134369524Y-68161615D01*
X134369524Y-68161615D02*
X134512381Y-68161615D01*
X134512381Y-68161615D02*
X134607619Y-68209234D01*
X134607619Y-68209234D02*
X134655238Y-68256853D01*
X134655238Y-68256853D02*
X134702857Y-68352091D01*
X134702857Y-68352091D02*
X134702857Y-68590186D01*
X134702857Y-68590186D02*
X134655238Y-68685424D01*
X134655238Y-68685424D02*
X134607619Y-68733044D01*
X134607619Y-68733044D02*
X134512381Y-68780663D01*
X134512381Y-68780663D02*
X134226667Y-68780663D01*
X134226667Y-68780663D02*
X134131429Y-68733044D01*
X134131429Y-68733044D02*
X134083810Y-68685424D01*
X135131429Y-68685424D02*
X135179048Y-68733044D01*
X135179048Y-68733044D02*
X135131429Y-68780663D01*
X135131429Y-68780663D02*
X135083810Y-68733044D01*
X135083810Y-68733044D02*
X135131429Y-68685424D01*
X135131429Y-68685424D02*
X135131429Y-68780663D01*
X135512381Y-67780663D02*
X136131428Y-67780663D01*
X136131428Y-67780663D02*
X135798095Y-68161615D01*
X135798095Y-68161615D02*
X135940952Y-68161615D01*
X135940952Y-68161615D02*
X136036190Y-68209234D01*
X136036190Y-68209234D02*
X136083809Y-68256853D01*
X136083809Y-68256853D02*
X136131428Y-68352091D01*
X136131428Y-68352091D02*
X136131428Y-68590186D01*
X136131428Y-68590186D02*
X136083809Y-68685424D01*
X136083809Y-68685424D02*
X136036190Y-68733044D01*
X136036190Y-68733044D02*
X135940952Y-68780663D01*
X135940952Y-68780663D02*
X135655238Y-68780663D01*
X135655238Y-68780663D02*
X135560000Y-68733044D01*
X135560000Y-68733044D02*
X135512381Y-68685424D01*
X136417143Y-67780663D02*
X136750476Y-68780663D01*
X136750476Y-68780663D02*
X137083809Y-67780663D01*
X118136476Y-92910663D02*
X118136476Y-91910663D01*
X118136476Y-91910663D02*
X118469809Y-92624948D01*
X118469809Y-92624948D02*
X118803142Y-91910663D01*
X118803142Y-91910663D02*
X118803142Y-92910663D01*
X119231714Y-92005901D02*
X119279333Y-91958282D01*
X119279333Y-91958282D02*
X119374571Y-91910663D01*
X119374571Y-91910663D02*
X119612666Y-91910663D01*
X119612666Y-91910663D02*
X119707904Y-91958282D01*
X119707904Y-91958282D02*
X119755523Y-92005901D01*
X119755523Y-92005901D02*
X119803142Y-92101139D01*
X119803142Y-92101139D02*
X119803142Y-92196377D01*
X119803142Y-92196377D02*
X119755523Y-92339234D01*
X119755523Y-92339234D02*
X119184095Y-92910663D01*
X119184095Y-92910663D02*
X119803142Y-92910663D01*
X148264114Y-88379663D02*
X148359352Y-88379663D01*
X148359352Y-88379663D02*
X148454590Y-88427282D01*
X148454590Y-88427282D02*
X148502209Y-88474901D01*
X148502209Y-88474901D02*
X148549828Y-88570139D01*
X148549828Y-88570139D02*
X148597447Y-88760615D01*
X148597447Y-88760615D02*
X148597447Y-88998710D01*
X148597447Y-88998710D02*
X148549828Y-89189186D01*
X148549828Y-89189186D02*
X148502209Y-89284424D01*
X148502209Y-89284424D02*
X148454590Y-89332044D01*
X148454590Y-89332044D02*
X148359352Y-89379663D01*
X148359352Y-89379663D02*
X148264114Y-89379663D01*
X148264114Y-89379663D02*
X148168876Y-89332044D01*
X148168876Y-89332044D02*
X148121257Y-89284424D01*
X148121257Y-89284424D02*
X148073638Y-89189186D01*
X148073638Y-89189186D02*
X148026019Y-88998710D01*
X148026019Y-88998710D02*
X148026019Y-88760615D01*
X148026019Y-88760615D02*
X148073638Y-88570139D01*
X148073638Y-88570139D02*
X148121257Y-88474901D01*
X148121257Y-88474901D02*
X148168876Y-88427282D01*
X148168876Y-88427282D02*
X148264114Y-88379663D01*
X149026019Y-89284424D02*
X149073638Y-89332044D01*
X149073638Y-89332044D02*
X149026019Y-89379663D01*
X149026019Y-89379663D02*
X148978400Y-89332044D01*
X148978400Y-89332044D02*
X149026019Y-89284424D01*
X149026019Y-89284424D02*
X149026019Y-89379663D01*
X150026018Y-89379663D02*
X149454590Y-89379663D01*
X149740304Y-89379663D02*
X149740304Y-88379663D01*
X149740304Y-88379663D02*
X149645066Y-88522520D01*
X149645066Y-88522520D02*
X149549828Y-88617758D01*
X149549828Y-88617758D02*
X149454590Y-88665377D01*
X150883161Y-88712996D02*
X150883161Y-89379663D01*
X150454590Y-88712996D02*
X150454590Y-89236805D01*
X150454590Y-89236805D02*
X150502209Y-89332044D01*
X150502209Y-89332044D02*
X150597447Y-89379663D01*
X150597447Y-89379663D02*
X150740304Y-89379663D01*
X150740304Y-89379663D02*
X150835542Y-89332044D01*
X150835542Y-89332044D02*
X150883161Y-89284424D01*
X140980853Y-81492857D02*
X140980853Y-81826190D01*
X141504663Y-81826190D02*
X140504663Y-81826190D01*
X140504663Y-81826190D02*
X140504663Y-81350000D01*
X140837996Y-80540476D02*
X141504663Y-80540476D01*
X140837996Y-80969047D02*
X141361805Y-80969047D01*
X141361805Y-80969047D02*
X141457044Y-80921428D01*
X141457044Y-80921428D02*
X141504663Y-80826190D01*
X141504663Y-80826190D02*
X141504663Y-80683333D01*
X141504663Y-80683333D02*
X141457044Y-80588095D01*
X141457044Y-80588095D02*
X141409424Y-80540476D01*
X141457044Y-80111904D02*
X141504663Y-80016666D01*
X141504663Y-80016666D02*
X141504663Y-79826190D01*
X141504663Y-79826190D02*
X141457044Y-79730952D01*
X141457044Y-79730952D02*
X141361805Y-79683333D01*
X141361805Y-79683333D02*
X141314186Y-79683333D01*
X141314186Y-79683333D02*
X141218948Y-79730952D01*
X141218948Y-79730952D02*
X141171329Y-79826190D01*
X141171329Y-79826190D02*
X141171329Y-79969047D01*
X141171329Y-79969047D02*
X141123710Y-80064285D01*
X141123710Y-80064285D02*
X141028472Y-80111904D01*
X141028472Y-80111904D02*
X140980853Y-80111904D01*
X140980853Y-80111904D02*
X140885615Y-80064285D01*
X140885615Y-80064285D02*
X140837996Y-79969047D01*
X140837996Y-79969047D02*
X140837996Y-79826190D01*
X140837996Y-79826190D02*
X140885615Y-79730952D01*
X141457044Y-78873809D02*
X141504663Y-78969047D01*
X141504663Y-78969047D02*
X141504663Y-79159523D01*
X141504663Y-79159523D02*
X141457044Y-79254761D01*
X141457044Y-79254761D02*
X141361805Y-79302380D01*
X141361805Y-79302380D02*
X140980853Y-79302380D01*
X140980853Y-79302380D02*
X140885615Y-79254761D01*
X140885615Y-79254761D02*
X140837996Y-79159523D01*
X140837996Y-79159523D02*
X140837996Y-78969047D01*
X140837996Y-78969047D02*
X140885615Y-78873809D01*
X140885615Y-78873809D02*
X140980853Y-78826190D01*
X140980853Y-78826190D02*
X141076091Y-78826190D01*
X141076091Y-78826190D02*
X141171329Y-79302380D01*
X124395238Y-78804663D02*
X124395238Y-77804663D01*
X124395238Y-77804663D02*
X124633333Y-77804663D01*
X124633333Y-77804663D02*
X124776190Y-77852282D01*
X124776190Y-77852282D02*
X124871428Y-77947520D01*
X124871428Y-77947520D02*
X124919047Y-78042758D01*
X124919047Y-78042758D02*
X124966666Y-78233234D01*
X124966666Y-78233234D02*
X124966666Y-78376091D01*
X124966666Y-78376091D02*
X124919047Y-78566567D01*
X124919047Y-78566567D02*
X124871428Y-78661805D01*
X124871428Y-78661805D02*
X124776190Y-78757044D01*
X124776190Y-78757044D02*
X124633333Y-78804663D01*
X124633333Y-78804663D02*
X124395238Y-78804663D01*
X125157143Y-78899901D02*
X125919047Y-78899901D01*
X126157143Y-78804663D02*
X126157143Y-77804663D01*
X126633333Y-78804663D02*
X126633333Y-77804663D01*
X126633333Y-77804663D02*
X127204761Y-78804663D01*
X127204761Y-78804663D02*
X127204761Y-77804663D01*
X118136476Y-95196663D02*
X118136476Y-94196663D01*
X118136476Y-94196663D02*
X118469809Y-94910948D01*
X118469809Y-94910948D02*
X118803142Y-94196663D01*
X118803142Y-94196663D02*
X118803142Y-95196663D01*
X119803142Y-95196663D02*
X119231714Y-95196663D01*
X119517428Y-95196663D02*
X119517428Y-94196663D01*
X119517428Y-94196663D02*
X119422190Y-94339520D01*
X119422190Y-94339520D02*
X119326952Y-94434758D01*
X119326952Y-94434758D02*
X119231714Y-94482377D01*
X159532663Y-102107524D02*
X158532663Y-102107524D01*
X158532663Y-102107524D02*
X158532663Y-101869429D01*
X158532663Y-101869429D02*
X158580282Y-101726572D01*
X158580282Y-101726572D02*
X158675520Y-101631334D01*
X158675520Y-101631334D02*
X158770758Y-101583715D01*
X158770758Y-101583715D02*
X158961234Y-101536096D01*
X158961234Y-101536096D02*
X159104091Y-101536096D01*
X159104091Y-101536096D02*
X159294567Y-101583715D01*
X159294567Y-101583715D02*
X159389805Y-101631334D01*
X159389805Y-101631334D02*
X159485044Y-101726572D01*
X159485044Y-101726572D02*
X159532663Y-101869429D01*
X159532663Y-101869429D02*
X159532663Y-102107524D01*
X159627901Y-101345620D02*
X159627901Y-100583715D01*
X159485044Y-100393238D02*
X159532663Y-100250381D01*
X159532663Y-100250381D02*
X159532663Y-100012286D01*
X159532663Y-100012286D02*
X159485044Y-99917048D01*
X159485044Y-99917048D02*
X159437424Y-99869429D01*
X159437424Y-99869429D02*
X159342186Y-99821810D01*
X159342186Y-99821810D02*
X159246948Y-99821810D01*
X159246948Y-99821810D02*
X159151710Y-99869429D01*
X159151710Y-99869429D02*
X159104091Y-99917048D01*
X159104091Y-99917048D02*
X159056472Y-100012286D01*
X159056472Y-100012286D02*
X159008853Y-100202762D01*
X159008853Y-100202762D02*
X158961234Y-100298000D01*
X158961234Y-100298000D02*
X158913615Y-100345619D01*
X158913615Y-100345619D02*
X158818377Y-100393238D01*
X158818377Y-100393238D02*
X158723139Y-100393238D01*
X158723139Y-100393238D02*
X158627901Y-100345619D01*
X158627901Y-100345619D02*
X158580282Y-100298000D01*
X158580282Y-100298000D02*
X158532663Y-100202762D01*
X158532663Y-100202762D02*
X158532663Y-99964667D01*
X158532663Y-99964667D02*
X158580282Y-99821810D01*
X159485044Y-98964667D02*
X159532663Y-99059905D01*
X159532663Y-99059905D02*
X159532663Y-99250381D01*
X159532663Y-99250381D02*
X159485044Y-99345619D01*
X159485044Y-99345619D02*
X159437424Y-99393238D01*
X159437424Y-99393238D02*
X159342186Y-99440857D01*
X159342186Y-99440857D02*
X159056472Y-99440857D01*
X159056472Y-99440857D02*
X158961234Y-99393238D01*
X158961234Y-99393238D02*
X158913615Y-99345619D01*
X158913615Y-99345619D02*
X158865996Y-99250381D01*
X158865996Y-99250381D02*
X158865996Y-99059905D01*
X158865996Y-99059905D02*
X158913615Y-98964667D01*
X159532663Y-98536095D02*
X158532663Y-98536095D01*
X159532663Y-98107524D02*
X159008853Y-98107524D01*
X159008853Y-98107524D02*
X158913615Y-98155143D01*
X158913615Y-98155143D02*
X158865996Y-98250381D01*
X158865996Y-98250381D02*
X158865996Y-98393238D01*
X158865996Y-98393238D02*
X158913615Y-98488476D01*
X158913615Y-98488476D02*
X158961234Y-98536095D01*
X159532663Y-97488476D02*
X159485044Y-97583714D01*
X159485044Y-97583714D02*
X159437424Y-97631333D01*
X159437424Y-97631333D02*
X159342186Y-97678952D01*
X159342186Y-97678952D02*
X159056472Y-97678952D01*
X159056472Y-97678952D02*
X158961234Y-97631333D01*
X158961234Y-97631333D02*
X158913615Y-97583714D01*
X158913615Y-97583714D02*
X158865996Y-97488476D01*
X158865996Y-97488476D02*
X158865996Y-97345619D01*
X158865996Y-97345619D02*
X158913615Y-97250381D01*
X158913615Y-97250381D02*
X158961234Y-97202762D01*
X158961234Y-97202762D02*
X159056472Y-97155143D01*
X159056472Y-97155143D02*
X159342186Y-97155143D01*
X159342186Y-97155143D02*
X159437424Y-97202762D01*
X159437424Y-97202762D02*
X159485044Y-97250381D01*
X159485044Y-97250381D02*
X159532663Y-97345619D01*
X159532663Y-97345619D02*
X159532663Y-97488476D01*
X158865996Y-96869428D02*
X158865996Y-96488476D01*
X158532663Y-96726571D02*
X159389805Y-96726571D01*
X159389805Y-96726571D02*
X159485044Y-96678952D01*
X159485044Y-96678952D02*
X159532663Y-96583714D01*
X159532663Y-96583714D02*
X159532663Y-96488476D01*
X158865996Y-96297999D02*
X158865996Y-95917047D01*
X158532663Y-96155142D02*
X159389805Y-96155142D01*
X159389805Y-96155142D02*
X159485044Y-96107523D01*
X159485044Y-96107523D02*
X159532663Y-96012285D01*
X159532663Y-96012285D02*
X159532663Y-95917047D01*
X159532663Y-95583713D02*
X158532663Y-95583713D01*
X159151710Y-95488475D02*
X159532663Y-95202761D01*
X158865996Y-95202761D02*
X159246948Y-95583713D01*
X158865996Y-94869427D02*
X159532663Y-94631332D01*
X158865996Y-94393237D02*
X159532663Y-94631332D01*
X159532663Y-94631332D02*
X159770758Y-94726570D01*
X159770758Y-94726570D02*
X159818377Y-94774189D01*
X159818377Y-94774189D02*
X159865996Y-94869427D01*
X148502209Y-90744996D02*
X148502209Y-91411663D01*
X148264114Y-90364044D02*
X148026019Y-91078329D01*
X148026019Y-91078329D02*
X148645066Y-91078329D01*
X149026019Y-91316424D02*
X149073638Y-91364044D01*
X149073638Y-91364044D02*
X149026019Y-91411663D01*
X149026019Y-91411663D02*
X148978400Y-91364044D01*
X148978400Y-91364044D02*
X149026019Y-91316424D01*
X149026019Y-91316424D02*
X149026019Y-91411663D01*
X149406971Y-90411663D02*
X150073637Y-90411663D01*
X150073637Y-90411663D02*
X149645066Y-91411663D01*
X150883161Y-90744996D02*
X150883161Y-91411663D01*
X150454590Y-90744996D02*
X150454590Y-91268805D01*
X150454590Y-91268805D02*
X150502209Y-91364044D01*
X150502209Y-91364044D02*
X150597447Y-91411663D01*
X150597447Y-91411663D02*
X150740304Y-91411663D01*
X150740304Y-91411663D02*
X150835542Y-91364044D01*
X150835542Y-91364044D02*
X150883161Y-91316424D01*
X121319619Y-75337044D02*
X121224381Y-75384663D01*
X121224381Y-75384663D02*
X121033905Y-75384663D01*
X121033905Y-75384663D02*
X120938667Y-75337044D01*
X120938667Y-75337044D02*
X120891048Y-75241805D01*
X120891048Y-75241805D02*
X120891048Y-74860853D01*
X120891048Y-74860853D02*
X120938667Y-74765615D01*
X120938667Y-74765615D02*
X121033905Y-74717996D01*
X121033905Y-74717996D02*
X121224381Y-74717996D01*
X121224381Y-74717996D02*
X121319619Y-74765615D01*
X121319619Y-74765615D02*
X121367238Y-74860853D01*
X121367238Y-74860853D02*
X121367238Y-74956091D01*
X121367238Y-74956091D02*
X120891048Y-75051329D01*
X121795810Y-75384663D02*
X121795810Y-74717996D01*
X121795810Y-74813234D02*
X121843429Y-74765615D01*
X121843429Y-74765615D02*
X121938667Y-74717996D01*
X121938667Y-74717996D02*
X122081524Y-74717996D01*
X122081524Y-74717996D02*
X122176762Y-74765615D01*
X122176762Y-74765615D02*
X122224381Y-74860853D01*
X122224381Y-74860853D02*
X122224381Y-75384663D01*
X122224381Y-74860853D02*
X122272000Y-74765615D01*
X122272000Y-74765615D02*
X122367238Y-74717996D01*
X122367238Y-74717996D02*
X122510095Y-74717996D01*
X122510095Y-74717996D02*
X122605334Y-74765615D01*
X122605334Y-74765615D02*
X122652953Y-74860853D01*
X122652953Y-74860853D02*
X122652953Y-75384663D01*
X123557714Y-75337044D02*
X123462476Y-75384663D01*
X123462476Y-75384663D02*
X123272000Y-75384663D01*
X123272000Y-75384663D02*
X123176762Y-75337044D01*
X123176762Y-75337044D02*
X123129143Y-75289424D01*
X123129143Y-75289424D02*
X123081524Y-75194186D01*
X123081524Y-75194186D02*
X123081524Y-74908472D01*
X123081524Y-74908472D02*
X123129143Y-74813234D01*
X123129143Y-74813234D02*
X123176762Y-74765615D01*
X123176762Y-74765615D02*
X123272000Y-74717996D01*
X123272000Y-74717996D02*
X123462476Y-74717996D01*
X123462476Y-74717996D02*
X123557714Y-74765615D01*
X123986286Y-75003710D02*
X124748191Y-75003710D01*
X125176762Y-75337044D02*
X125272000Y-75384663D01*
X125272000Y-75384663D02*
X125462476Y-75384663D01*
X125462476Y-75384663D02*
X125557714Y-75337044D01*
X125557714Y-75337044D02*
X125605333Y-75241805D01*
X125605333Y-75241805D02*
X125605333Y-75194186D01*
X125605333Y-75194186D02*
X125557714Y-75098948D01*
X125557714Y-75098948D02*
X125462476Y-75051329D01*
X125462476Y-75051329D02*
X125319619Y-75051329D01*
X125319619Y-75051329D02*
X125224381Y-75003710D01*
X125224381Y-75003710D02*
X125176762Y-74908472D01*
X125176762Y-74908472D02*
X125176762Y-74860853D01*
X125176762Y-74860853D02*
X125224381Y-74765615D01*
X125224381Y-74765615D02*
X125319619Y-74717996D01*
X125319619Y-74717996D02*
X125462476Y-74717996D01*
X125462476Y-74717996D02*
X125557714Y-74765615D01*
X125938667Y-74717996D02*
X126129143Y-75384663D01*
X126129143Y-75384663D02*
X126319619Y-74908472D01*
X126319619Y-74908472D02*
X126510095Y-75384663D01*
X126510095Y-75384663D02*
X126700571Y-74717996D01*
X118136476Y-88592663D02*
X118136476Y-87592663D01*
X118136476Y-87592663D02*
X118469809Y-88306948D01*
X118469809Y-88306948D02*
X118803142Y-87592663D01*
X118803142Y-87592663D02*
X118803142Y-88592663D01*
X119707904Y-87925996D02*
X119707904Y-88592663D01*
X119469809Y-87545044D02*
X119231714Y-88259329D01*
X119231714Y-88259329D02*
X119850761Y-88259329D01*
X140358714Y-101641663D02*
X140453952Y-101641663D01*
X140453952Y-101641663D02*
X140549190Y-101689282D01*
X140549190Y-101689282D02*
X140596809Y-101736901D01*
X140596809Y-101736901D02*
X140644428Y-101832139D01*
X140644428Y-101832139D02*
X140692047Y-102022615D01*
X140692047Y-102022615D02*
X140692047Y-102260710D01*
X140692047Y-102260710D02*
X140644428Y-102451186D01*
X140644428Y-102451186D02*
X140596809Y-102546424D01*
X140596809Y-102546424D02*
X140549190Y-102594044D01*
X140549190Y-102594044D02*
X140453952Y-102641663D01*
X140453952Y-102641663D02*
X140358714Y-102641663D01*
X140358714Y-102641663D02*
X140263476Y-102594044D01*
X140263476Y-102594044D02*
X140215857Y-102546424D01*
X140215857Y-102546424D02*
X140168238Y-102451186D01*
X140168238Y-102451186D02*
X140120619Y-102260710D01*
X140120619Y-102260710D02*
X140120619Y-102022615D01*
X140120619Y-102022615D02*
X140168238Y-101832139D01*
X140168238Y-101832139D02*
X140215857Y-101736901D01*
X140215857Y-101736901D02*
X140263476Y-101689282D01*
X140263476Y-101689282D02*
X140358714Y-101641663D01*
X141120619Y-102546424D02*
X141168238Y-102594044D01*
X141168238Y-102594044D02*
X141120619Y-102641663D01*
X141120619Y-102641663D02*
X141073000Y-102594044D01*
X141073000Y-102594044D02*
X141120619Y-102546424D01*
X141120619Y-102546424D02*
X141120619Y-102641663D01*
X142120618Y-102641663D02*
X141549190Y-102641663D01*
X141834904Y-102641663D02*
X141834904Y-101641663D01*
X141834904Y-101641663D02*
X141739666Y-101784520D01*
X141739666Y-101784520D02*
X141644428Y-101879758D01*
X141644428Y-101879758D02*
X141549190Y-101927377D01*
X142977761Y-101974996D02*
X142977761Y-102641663D01*
X142549190Y-101974996D02*
X142549190Y-102498805D01*
X142549190Y-102498805D02*
X142596809Y-102594044D01*
X142596809Y-102594044D02*
X142692047Y-102641663D01*
X142692047Y-102641663D02*
X142834904Y-102641663D01*
X142834904Y-102641663D02*
X142930142Y-102594044D01*
X142930142Y-102594044D02*
X142977761Y-102546424D01*
G36*
X121779819Y-90090169D02*
G01*
X121772748Y-90090169D01*
X121772748Y-90083098D01*
X121779819Y-90083098D01*
X121779819Y-90090169D01*
G37*
G36*
X122062662Y-89849753D02*
G01*
X122055591Y-89849753D01*
X122055591Y-89842682D01*
X122062662Y-89842682D01*
X122062662Y-89849753D01*
G37*
G36*
X122083875Y-89870966D02*
G01*
X122076804Y-89870966D01*
X122076804Y-89863895D01*
X122083875Y-89863895D01*
X122083875Y-89870966D01*
G37*
G36*
X121811018Y-89842061D02*
G01*
X121797476Y-89857472D01*
X121793340Y-89859739D01*
X121789871Y-89858046D01*
X121798613Y-89847333D01*
X121809763Y-89838406D01*
X121811018Y-89842061D01*
G37*
G36*
X121221004Y-89377233D02*
G01*
X121264799Y-89382100D01*
X121302511Y-89387722D01*
X121318385Y-89390088D01*
X121378558Y-89400619D01*
X121442113Y-89413116D01*
X121505848Y-89427002D01*
X121566559Y-89441699D01*
X121621041Y-89456630D01*
X121642951Y-89463362D01*
X121692532Y-89479601D01*
X121735963Y-89494825D01*
X121777411Y-89510776D01*
X121821040Y-89529194D01*
X121871020Y-89551821D01*
X121931515Y-89580400D01*
X121987148Y-89607198D01*
X122299202Y-89763974D01*
X122596620Y-89925399D01*
X122884699Y-90094426D01*
X123081624Y-90217562D01*
X123128130Y-90247535D01*
X123168763Y-90274028D01*
X123200506Y-90295046D01*
X123220331Y-90308595D01*
X123225368Y-90312424D01*
X123228841Y-90319544D01*
X123223454Y-90327351D01*
X123206975Y-90336998D01*
X123177176Y-90349634D01*
X123131826Y-90366411D01*
X123097066Y-90378650D01*
X122929655Y-90426698D01*
X122760469Y-90455286D01*
X122590926Y-90464618D01*
X122422440Y-90454897D01*
X122256429Y-90426329D01*
X122094306Y-90379119D01*
X121937489Y-90313467D01*
X121787393Y-90229582D01*
X121712662Y-90178961D01*
X121670814Y-90145936D01*
X121621144Y-90102339D01*
X121568645Y-90052955D01*
X121518314Y-90002563D01*
X121491282Y-89973371D01*
X121718154Y-89973371D01*
X121724010Y-90040191D01*
X121747323Y-90097759D01*
X121787158Y-90144677D01*
X121842580Y-90179547D01*
X121861272Y-90187148D01*
X121923235Y-90199989D01*
X121983438Y-90194533D01*
X122038854Y-90172439D01*
X122086459Y-90135370D01*
X122123228Y-90084986D01*
X122143966Y-90031921D01*
X122150377Y-89971640D01*
X122139425Y-89914747D01*
X122113719Y-89863670D01*
X122075876Y-89820840D01*
X122028505Y-89788685D01*
X121974220Y-89769636D01*
X121915635Y-89766119D01*
X121868475Y-89775774D01*
X121807655Y-89804972D01*
X121761907Y-89847117D01*
X121731962Y-89901250D01*
X121718552Y-89966411D01*
X121718154Y-89973371D01*
X121491282Y-89973371D01*
X121475146Y-89955946D01*
X121455928Y-89933228D01*
X121411985Y-89874455D01*
X121365459Y-89804951D01*
X121321349Y-89732485D01*
X121290017Y-89675387D01*
X121269998Y-89634292D01*
X121248882Y-89587185D01*
X121228054Y-89537648D01*
X121208897Y-89489263D01*
X121192794Y-89445610D01*
X121181129Y-89410273D01*
X121175286Y-89386834D01*
X121175602Y-89379168D01*
X121190203Y-89376063D01*
X121221004Y-89377233D01*
G37*
G36*
X123458635Y-90473263D02*
G01*
X123474231Y-90482727D01*
X123501787Y-90501740D01*
X123538637Y-90528274D01*
X123582113Y-90560304D01*
X123629554Y-90595802D01*
X123678292Y-90632741D01*
X123725662Y-90669094D01*
X123769000Y-90702836D01*
X123805641Y-90731939D01*
X123832918Y-90754377D01*
X123848168Y-90768123D01*
X123850463Y-90771223D01*
X123842021Y-90782633D01*
X123818353Y-90801643D01*
X123781952Y-90826566D01*
X123735309Y-90855719D01*
X123680914Y-90887420D01*
X123667352Y-90895015D01*
X123543887Y-90957936D01*
X123411122Y-91015473D01*
X123299650Y-91056405D01*
X123257634Y-91070943D01*
X123223694Y-91083611D01*
X123201677Y-91092911D01*
X123195211Y-91097048D01*
X123203826Y-91103134D01*
X123226492Y-91113770D01*
X123258442Y-91126735D01*
X123260914Y-91127677D01*
X123306847Y-91145996D01*
X123356577Y-91167176D01*
X123387847Y-91181311D01*
X123422222Y-91196372D01*
X123446473Y-91202704D01*
X123468098Y-91201032D01*
X123494597Y-91192081D01*
X123495490Y-91191729D01*
X123552701Y-91167015D01*
X123621157Y-91134044D01*
X123695472Y-91095675D01*
X123770267Y-91054766D01*
X123840158Y-91014176D01*
X123897967Y-90977952D01*
X123939745Y-90950831D01*
X123975823Y-90928203D01*
X124002799Y-90912146D01*
X124017266Y-90904737D01*
X124018372Y-90904475D01*
X124028835Y-90910643D01*
X124052165Y-90928246D01*
X124086228Y-90955495D01*
X124128889Y-90990600D01*
X124178013Y-91031768D01*
X124231466Y-91077211D01*
X124287112Y-91125138D01*
X124342817Y-91173757D01*
X124396448Y-91221280D01*
X124402007Y-91226254D01*
X124493391Y-91308111D01*
X124466751Y-91334751D01*
X124429498Y-91367556D01*
X124377354Y-91407139D01*
X124313428Y-91451556D01*
X124240830Y-91498865D01*
X124162667Y-91547126D01*
X124082050Y-91594395D01*
X124002087Y-91638731D01*
X123925888Y-91678193D01*
X123886097Y-91697401D01*
X123840481Y-91719069D01*
X123801313Y-91738280D01*
X123772232Y-91753207D01*
X123756879Y-91762018D01*
X123755700Y-91762960D01*
X123753723Y-91767306D01*
X123756562Y-91773991D01*
X123766093Y-91784760D01*
X123784192Y-91801358D01*
X123812735Y-91825529D01*
X123853599Y-91859017D01*
X123895466Y-91892919D01*
X123921063Y-91912608D01*
X123938217Y-91920862D01*
X123953723Y-91919200D01*
X123972547Y-91910124D01*
X123993792Y-91898745D01*
X124028261Y-91880334D01*
X124071526Y-91857254D01*
X124119158Y-91831869D01*
X124128817Y-91826723D01*
X124219825Y-91775544D01*
X124317725Y-91715785D01*
X124416086Y-91651629D01*
X124508480Y-91587262D01*
X124583555Y-91530769D01*
X124665660Y-91465961D01*
X124844961Y-91652293D01*
X124893326Y-91702917D01*
X124936749Y-91749062D01*
X124973388Y-91788713D01*
X125001400Y-91819857D01*
X125018944Y-91840478D01*
X125024261Y-91848351D01*
X125016209Y-91860560D01*
X124993533Y-91881960D01*
X124958457Y-91910962D01*
X124913206Y-91945977D01*
X124860002Y-91985417D01*
X124801069Y-92027693D01*
X124738629Y-92071216D01*
X124674907Y-92114397D01*
X124612125Y-92155647D01*
X124552507Y-92193379D01*
X124498277Y-92226002D01*
X124485376Y-92233428D01*
X124444719Y-92257498D01*
X124410619Y-92279428D01*
X124386848Y-92296672D01*
X124377360Y-92306190D01*
X124376563Y-92314984D01*
X124382723Y-92327150D01*
X124397982Y-92345339D01*
X124424483Y-92372206D01*
X124452317Y-92398973D01*
X124534000Y-92476655D01*
X124556336Y-92456564D01*
X124575528Y-92441908D01*
X124606114Y-92421295D01*
X124642136Y-92398708D01*
X124649575Y-92394240D01*
X124741109Y-92337061D01*
X124840571Y-92270272D01*
X124941634Y-92198287D01*
X125037966Y-92125518D01*
X125060581Y-92107710D01*
X125181325Y-92011753D01*
X125237265Y-92076733D01*
X125273876Y-92119635D01*
X125314603Y-92167984D01*
X125357042Y-92218857D01*
X125398788Y-92269333D01*
X125437436Y-92316490D01*
X125470578Y-92357404D01*
X125495812Y-92389155D01*
X125510731Y-92408818D01*
X125511455Y-92409852D01*
X125531088Y-92438201D01*
X125455290Y-92505406D01*
X125382662Y-92565999D01*
X125293731Y-92633635D01*
X125190351Y-92706969D01*
X125074370Y-92784654D01*
X125047203Y-92802287D01*
X125003066Y-92831411D01*
X124965624Y-92857320D01*
X124937809Y-92877891D01*
X124922554Y-92891000D01*
X124920552Y-92894066D01*
X124927192Y-92904973D01*
X124945104Y-92926411D01*
X124971274Y-92954910D01*
X124992441Y-92976750D01*
X125064330Y-93049411D01*
X125126363Y-93012449D01*
X125168154Y-92986192D01*
X125221853Y-92950425D01*
X125283580Y-92907909D01*
X125349451Y-92861407D01*
X125415584Y-92813680D01*
X125478097Y-92767490D01*
X125533106Y-92725598D01*
X125564390Y-92700860D01*
X125603264Y-92669807D01*
X125629825Y-92649922D01*
X125647091Y-92639522D01*
X125658078Y-92636928D01*
X125665801Y-92640456D01*
X125668362Y-92642901D01*
X125677533Y-92655638D01*
X125695109Y-92682822D01*
X125719354Y-92721663D01*
X125748534Y-92769370D01*
X125780911Y-92823154D01*
X125790572Y-92839357D01*
X125826367Y-92899647D01*
X125852992Y-92945184D01*
X125871519Y-92978389D01*
X125883025Y-93001690D01*
X125888583Y-93017507D01*
X125889266Y-93028265D01*
X125886152Y-93036386D01*
X125881023Y-93043398D01*
X125864192Y-93059954D01*
X125833280Y-93085831D01*
X125790788Y-93119169D01*
X125739215Y-93158108D01*
X125681066Y-93200787D01*
X125618840Y-93245347D01*
X125555037Y-93289927D01*
X125492159Y-93332667D01*
X125491737Y-93332950D01*
X125440256Y-93367749D01*
X125403573Y-93393574D01*
X125379575Y-93412125D01*
X125366149Y-93425107D01*
X125361181Y-93434219D01*
X125361251Y-93438051D01*
X125369513Y-93455616D01*
X125386369Y-93481705D01*
X125408277Y-93511767D01*
X125431690Y-93541249D01*
X125453066Y-93565603D01*
X125468857Y-93580274D01*
X125473802Y-93582569D01*
X125487852Y-93576918D01*
X125515486Y-93561098D01*
X125554189Y-93536812D01*
X125601446Y-93505762D01*
X125654746Y-93469648D01*
X125711573Y-93430173D01*
X125769414Y-93389038D01*
X125825755Y-93347947D01*
X125874913Y-93311025D01*
X126005969Y-93210884D01*
X126018323Y-93233873D01*
X126071088Y-93332216D01*
X126114816Y-93414082D01*
X126150069Y-93480544D01*
X126177403Y-93532674D01*
X126197380Y-93571545D01*
X126210557Y-93598227D01*
X126217492Y-93613793D01*
X126218930Y-93618582D01*
X126211325Y-93629219D01*
X126189114Y-93649430D01*
X126154313Y-93677664D01*
X126108936Y-93712366D01*
X126054996Y-93751986D01*
X125994507Y-93794970D01*
X125951289Y-93824899D01*
X125874780Y-93877335D01*
X125920759Y-93959526D01*
X125940871Y-93995032D01*
X125957088Y-94022825D01*
X125967153Y-94039080D01*
X125969262Y-94041718D01*
X125978513Y-94036152D01*
X126000847Y-94020913D01*
X126033240Y-93998180D01*
X126072669Y-93970136D01*
X126116111Y-93938962D01*
X126160542Y-93906840D01*
X126202937Y-93875953D01*
X126240275Y-93848481D01*
X126269531Y-93826607D01*
X126287680Y-93812512D01*
X126291574Y-93809137D01*
X126308564Y-93792148D01*
X126378681Y-93937698D01*
X126416366Y-94017269D01*
X126457351Y-94106146D01*
X126499835Y-94200235D01*
X126542014Y-94295443D01*
X126582090Y-94387677D01*
X126618257Y-94472845D01*
X126648716Y-94546856D01*
X126665061Y-94588233D01*
X126685662Y-94640790D01*
X126701178Y-94677304D01*
X126713317Y-94700538D01*
X126723791Y-94713256D01*
X126734310Y-94718226D01*
X126745544Y-94718324D01*
X126762468Y-94718422D01*
X126795713Y-94720112D01*
X126841689Y-94723118D01*
X126896802Y-94727164D01*
X126957464Y-94731973D01*
X127020080Y-94737267D01*
X127081061Y-94742769D01*
X127136816Y-94748205D01*
X127147457Y-94749305D01*
X127330231Y-94772230D01*
X127519025Y-94802976D01*
X127705394Y-94840009D01*
X127880891Y-94881796D01*
X127889517Y-94884058D01*
X127943169Y-94898857D01*
X127992072Y-94913553D01*
X128033025Y-94927059D01*
X128062827Y-94938285D01*
X128078277Y-94946143D01*
X128079465Y-94948669D01*
X128063284Y-94957000D01*
X128029762Y-94968218D01*
X127981263Y-94981818D01*
X127920155Y-94997295D01*
X127848806Y-95014144D01*
X127769583Y-95031860D01*
X127684853Y-95049939D01*
X127596982Y-95067874D01*
X127508338Y-95085161D01*
X127421288Y-95101297D01*
X127338201Y-95115773D01*
X127261441Y-95128087D01*
X127193378Y-95137734D01*
X127192943Y-95137790D01*
X127133607Y-95145676D01*
X127081325Y-95153041D01*
X127039245Y-95159407D01*
X127010511Y-95164296D01*
X126998269Y-95167231D01*
X126998117Y-95167346D01*
X126994700Y-95178943D01*
X126989984Y-95205445D01*
X126984816Y-95241869D01*
X126983118Y-95255532D01*
X126977163Y-95303856D01*
X126969737Y-95362186D01*
X126962096Y-95420718D01*
X126959084Y-95443298D01*
X126950159Y-95503272D01*
X126938446Y-95572214D01*
X126924478Y-95647766D01*
X126908788Y-95727568D01*
X126891909Y-95809260D01*
X126874374Y-95890483D01*
X126856716Y-95968877D01*
X126839468Y-96042084D01*
X126823162Y-96107743D01*
X126808334Y-96163495D01*
X126795513Y-96206982D01*
X126785235Y-96235842D01*
X126778032Y-96247717D01*
X126777334Y-96247891D01*
X126772448Y-96238999D01*
X126763544Y-96215179D01*
X126752166Y-96180716D01*
X126746179Y-96161329D01*
X126702563Y-96002348D01*
X126663099Y-95829535D01*
X126628705Y-95648552D01*
X126600299Y-95465056D01*
X126578801Y-95284711D01*
X126565127Y-95113175D01*
X126561166Y-95020805D01*
X126558007Y-94905666D01*
X126431413Y-94778578D01*
X126376223Y-94723646D01*
X126332262Y-94681491D01*
X126296982Y-94650395D01*
X126267836Y-94628638D01*
X126242276Y-94614499D01*
X126217754Y-94606260D01*
X126191724Y-94602198D01*
X126168077Y-94600801D01*
X126040476Y-94587772D01*
X125911678Y-94558693D01*
X125803561Y-94521166D01*
X125766899Y-94506073D01*
X125807394Y-94498320D01*
X125832561Y-94491089D01*
X125868273Y-94477869D01*
X125909346Y-94460940D01*
X125950596Y-94442579D01*
X125986839Y-94425065D01*
X126012889Y-94410676D01*
X126021946Y-94404035D01*
X126023485Y-94390202D01*
X126014451Y-94369437D01*
X126013621Y-94368165D01*
X126000106Y-94351611D01*
X125974862Y-94323987D01*
X125940630Y-94288033D01*
X125900147Y-94246485D01*
X125856157Y-94202083D01*
X125811395Y-94157565D01*
X125768605Y-94115670D01*
X125730524Y-94079136D01*
X125699893Y-94050701D01*
X125679450Y-94033104D01*
X125675490Y-94030196D01*
X125660135Y-94022227D01*
X125642789Y-94019927D01*
X125618599Y-94023749D01*
X125582712Y-94034149D01*
X125562350Y-94040799D01*
X125477704Y-94066527D01*
X125401827Y-94083707D01*
X125326202Y-94093858D01*
X125242315Y-94098500D01*
X125238462Y-94098598D01*
X125132952Y-94096646D01*
X125037826Y-94084508D01*
X124945619Y-94061017D01*
X124902070Y-94046057D01*
X124862144Y-94030978D01*
X124835891Y-94019115D01*
X124818170Y-94006900D01*
X124803841Y-93990765D01*
X124787762Y-93967143D01*
X124787274Y-93966399D01*
X124770662Y-93939650D01*
X124760363Y-93920449D01*
X124758518Y-93913837D01*
X124769254Y-93912242D01*
X124795877Y-93910454D01*
X124834280Y-93908699D01*
X124876636Y-93907306D01*
X124994911Y-93898117D01*
X125111310Y-93877812D01*
X125220666Y-93847615D01*
X125317813Y-93808748D01*
X125339846Y-93797684D01*
X125370891Y-93779639D01*
X125385378Y-93764774D01*
X125385310Y-93748811D01*
X125372688Y-93727470D01*
X125372687Y-93727469D01*
X125355743Y-93707107D01*
X125327201Y-93676292D01*
X125290184Y-93638109D01*
X125247812Y-93595646D01*
X125203207Y-93551987D01*
X125159493Y-93510221D01*
X125119790Y-93473432D01*
X125087218Y-93444707D01*
X125083595Y-93441664D01*
X125030371Y-93397289D01*
X124912778Y-93435260D01*
X124858472Y-93451938D01*
X124802547Y-93467674D01*
X124752335Y-93480478D01*
X124721192Y-93487276D01*
X124571708Y-93505695D01*
X124419513Y-93505370D01*
X124267825Y-93486654D01*
X124119860Y-93449902D01*
X124008086Y-93408509D01*
X123917505Y-93369641D01*
X123869346Y-93289871D01*
X123821186Y-93210101D01*
X123903936Y-93232773D01*
X124005838Y-93257326D01*
X124100086Y-93272156D01*
X124195805Y-93278425D01*
X124262833Y-93278464D01*
X124354291Y-93273100D01*
X124445490Y-93261243D01*
X124532746Y-93243818D01*
X124612376Y-93221744D01*
X124680696Y-93195942D01*
X124734023Y-93167336D01*
X124748177Y-93157060D01*
X124783327Y-93129032D01*
X124614391Y-92960252D01*
X124552973Y-92899048D01*
X124503789Y-92850691D01*
X124465003Y-92813812D01*
X124434778Y-92787046D01*
X124411281Y-92769020D01*
X124392675Y-92758369D01*
X124377126Y-92753725D01*
X124362795Y-92753718D01*
X124347851Y-92756980D01*
X124343415Y-92758261D01*
X124315354Y-92766525D01*
X124275417Y-92778239D01*
X124230930Y-92791256D01*
X124217623Y-92795145D01*
X124063000Y-92830441D01*
X123909526Y-92845798D01*
X123757637Y-92841260D01*
X123607769Y-92816870D01*
X123460357Y-92772673D01*
X123315838Y-92708714D01*
X123304025Y-92702539D01*
X123265069Y-92680256D01*
X123239488Y-92660756D01*
X123221929Y-92639798D01*
X123218929Y-92635091D01*
X123198580Y-92601893D01*
X123281690Y-92624664D01*
X123418451Y-92652382D01*
X123561703Y-92663059D01*
X123707283Y-92656579D01*
X123820266Y-92639443D01*
X123890580Y-92623092D01*
X123956839Y-92603532D01*
X124016492Y-92581917D01*
X124066991Y-92559396D01*
X124105787Y-92537120D01*
X124130330Y-92516241D01*
X124138070Y-92497908D01*
X124137789Y-92496102D01*
X124129368Y-92483084D01*
X124108693Y-92458865D01*
X124078181Y-92425831D01*
X124040255Y-92386369D01*
X123997333Y-92342866D01*
X123951837Y-92297707D01*
X123906186Y-92253278D01*
X123862802Y-92211966D01*
X123824102Y-92176158D01*
X123792511Y-92148239D01*
X123770446Y-92130596D01*
X123762083Y-92125675D01*
X123740694Y-92124767D01*
X123705293Y-92129702D01*
X123660739Y-92139684D01*
X123637658Y-92145998D01*
X123480239Y-92183154D01*
X123328650Y-92201585D01*
X123181652Y-92201273D01*
X123038009Y-92182203D01*
X122896482Y-92144360D01*
X122872361Y-92135993D01*
X122784749Y-92104586D01*
X122744874Y-92041930D01*
X122726276Y-92011207D01*
X122713684Y-91987463D01*
X122709441Y-91975182D01*
X122709693Y-91974581D01*
X122721122Y-91973967D01*
X122746706Y-91976805D01*
X122781015Y-91982483D01*
X122782675Y-91982794D01*
X122876960Y-91994159D01*
X122982702Y-91995831D01*
X123094144Y-91988300D01*
X123205531Y-91972057D01*
X123311103Y-91947592D01*
X123355030Y-91934080D01*
X123404067Y-91914840D01*
X123444416Y-91893584D01*
X123473007Y-91872366D01*
X123486773Y-91853241D01*
X123487251Y-91845564D01*
X123479086Y-91833243D01*
X123458957Y-91809799D01*
X123429436Y-91777835D01*
X123393102Y-91739960D01*
X123352531Y-91698776D01*
X123310300Y-91656890D01*
X123268985Y-91616906D01*
X123231164Y-91581429D01*
X123199414Y-91553066D01*
X123190553Y-91545584D01*
X123161507Y-91522516D01*
X123142211Y-91510810D01*
X123127635Y-91508351D01*
X123112938Y-91512941D01*
X123083319Y-91521681D01*
X123059472Y-91524496D01*
X123038041Y-91526721D01*
X123002495Y-91532391D01*
X122958237Y-91540583D01*
X122921614Y-91548031D01*
X122812088Y-91565039D01*
X122696750Y-91571882D01*
X122581607Y-91568699D01*
X122472666Y-91555624D01*
X122386177Y-91535892D01*
X122329182Y-91519195D01*
X122292748Y-91460925D01*
X122274432Y-91431231D01*
X122261094Y-91408849D01*
X122255551Y-91398513D01*
X122255537Y-91398446D01*
X122264442Y-91395872D01*
X122289023Y-91392375D01*
X122325011Y-91388505D01*
X122350201Y-91386242D01*
X122417972Y-91378761D01*
X122490205Y-91367651D01*
X122563804Y-91353701D01*
X122635669Y-91337701D01*
X122702703Y-91320438D01*
X122761809Y-91302702D01*
X122809889Y-91285281D01*
X122843844Y-91268964D01*
X122859226Y-91256635D01*
X122865459Y-91244049D01*
X122860965Y-91231371D01*
X122843374Y-91213034D01*
X122838918Y-91208959D01*
X122816172Y-91187991D01*
X122798917Y-91171470D01*
X122795271Y-91167753D01*
X122786077Y-91158204D01*
X122764627Y-91136057D01*
X122732609Y-91103049D01*
X122691712Y-91060920D01*
X122643623Y-91011410D01*
X122590029Y-90956256D01*
X122546312Y-90911280D01*
X122307617Y-90665755D01*
X122399508Y-90676246D01*
X122580179Y-90686918D01*
X122761435Y-90678172D01*
X122941081Y-90650395D01*
X123116928Y-90603977D01*
X123286783Y-90539306D01*
X123355591Y-90506901D01*
X123404119Y-90484471D01*
X123437668Y-90473249D01*
X123457530Y-90472813D01*
X123458635Y-90473263D01*
G37*
D11*
X142822000Y-111506000D02*
X142822000Y-75946000D01*
X142822000Y-73406000D02*
X142822000Y-75946000D01*
X163142000Y-73406000D02*
X163142000Y-111506000D01*
D12*
X129983752Y-100295000D02*
X129461248Y-100295000D01*
X129983752Y-98825000D02*
X129461248Y-98825000D01*
X132727600Y-99455000D02*
X132727600Y-100795000D01*
X141997600Y-99455000D02*
X141047600Y-99455000D01*
X131777600Y-89235000D02*
X132727600Y-89235000D01*
X131777600Y-99455000D02*
X132727600Y-99455000D01*
X141997600Y-98505000D02*
X141997600Y-99455000D01*
X141997600Y-90185000D02*
X141997600Y-89235000D01*
X141997600Y-89235000D02*
X141047600Y-89235000D01*
X131777600Y-90185000D02*
X131777600Y-89235000D01*
X131777600Y-98505000D02*
X131777600Y-99455000D01*
X148576900Y-114941124D02*
X148576900Y-114431676D01*
X147531900Y-114941124D02*
X147531900Y-114431676D01*
X129783752Y-88025000D02*
X129261248Y-88025000D01*
X129783752Y-89495000D02*
X129261248Y-89495000D01*
X132916000Y-73844000D02*
X133424000Y-73844000D01*
X133424000Y-73844000D02*
X133424000Y-76130000D01*
X133424000Y-76130000D02*
X132916000Y-76130000D01*
X132916000Y-76130000D02*
X132916000Y-73844000D01*
X129360000Y-71050000D02*
X142060000Y-71050000D01*
X142060000Y-71050000D02*
X142060000Y-78670000D01*
X142060000Y-78670000D02*
X129360000Y-78670000D01*
X129360000Y-78670000D02*
X129360000Y-71050000D01*
X140790000Y-74860000D02*
X133424000Y-74860000D01*
X140790000Y-73336000D02*
X140790000Y-76384000D01*
X133170000Y-76130000D02*
X133170000Y-76384000D01*
X133170000Y-73336000D02*
X133170000Y-73844000D01*
X132916000Y-74860000D02*
X130630000Y-76384000D01*
X120160000Y-78860000D02*
X120160000Y-87660000D01*
X120160000Y-87660000D02*
X139960000Y-87660000D01*
X139960000Y-78860000D02*
X120160000Y-78860000D01*
X139960000Y-78860000D02*
X139960000Y-87660000D01*
X131760000Y-69115000D02*
X129300000Y-69115000D01*
X129300000Y-70585000D02*
X131760000Y-70585000D01*
X129300000Y-69115000D02*
X129300000Y-70585000D01*
X122006981Y-101401999D02*
G75*
G03*
X122006981Y-101401999I-283981J0D01*
G01*
D13*
X126482000Y-97450998D02*
X126268600Y-97450998D01*
X121241400Y-97450998D02*
X121028000Y-97450998D01*
X121028000Y-97450998D02*
X121028000Y-102305000D01*
X126482000Y-102305000D02*
X126482000Y-97450998D01*
X126268600Y-102305000D02*
X126482000Y-102305000D01*
X121028000Y-102305000D02*
X121241400Y-102305000D01*
D12*
X128772000Y-101286000D02*
X128772000Y-116646000D01*
X128772000Y-101286000D02*
X131372000Y-101286000D01*
X128772000Y-116646000D02*
X133972000Y-116646000D01*
X131372000Y-101286000D02*
X131372000Y-103886000D01*
X131372000Y-103886000D02*
X133972000Y-103886000D01*
X132642000Y-101286000D02*
X133972000Y-101286000D01*
X133972000Y-101286000D02*
X133972000Y-102616000D01*
X133972000Y-103886000D02*
X133972000Y-116646000D01*
X145736248Y-97025000D02*
X146258752Y-97025000D01*
X145736248Y-98495000D02*
X146258752Y-98495000D01*
X121438400Y-75973000D02*
X118978400Y-75973000D01*
X118978400Y-77443000D02*
X121438400Y-77443000D01*
X118978400Y-75973000D02*
X118978400Y-77443000D01*
X115114000Y-91057400D02*
X117574000Y-91057400D01*
X117574000Y-89587400D02*
X115114000Y-89587400D01*
X117574000Y-91057400D02*
X117574000Y-89587400D01*
X136360000Y-69115000D02*
X133900000Y-69115000D01*
X133900000Y-70585000D02*
X136360000Y-70585000D01*
X133900000Y-69115000D02*
X133900000Y-70585000D01*
X141358000Y-106426000D02*
X141358000Y-116646000D01*
X141358000Y-103826000D02*
X141358000Y-105156000D01*
X140028000Y-103826000D02*
X141358000Y-103826000D01*
X138758000Y-106426000D02*
X141358000Y-106426000D01*
X138758000Y-103826000D02*
X138758000Y-106426000D01*
X136158000Y-116646000D02*
X141358000Y-116646000D01*
X136158000Y-103826000D02*
X138758000Y-103826000D01*
X136158000Y-103826000D02*
X136158000Y-116646000D01*
D11*
X152868400Y-114686400D02*
G75*
G03*
X152868400Y-114686400I-750000J0D01*
G01*
D12*
X154023400Y-115321400D02*
X154023400Y-114051400D01*
X150848400Y-115956400D02*
X153388400Y-115956400D01*
X150848400Y-113416400D02*
X153388400Y-113416400D01*
X150213400Y-114051400D02*
X150213400Y-115321400D01*
X115114000Y-93241800D02*
X117574000Y-93241800D01*
X117574000Y-91771800D02*
X115114000Y-91771800D01*
X117574000Y-93241800D02*
X117574000Y-91771800D01*
X145436248Y-88190000D02*
X145958752Y-88190000D01*
X145436248Y-89660000D02*
X145958752Y-89660000D01*
X140393000Y-85647000D02*
X141863000Y-85647000D01*
X141863000Y-85647000D02*
X141863000Y-83187000D01*
X140393000Y-83187000D02*
X140393000Y-85647000D01*
X114886581Y-109479199D02*
G75*
G03*
X114886581Y-109479199I-283981J0D01*
G01*
D13*
X119361600Y-105528198D02*
X119148200Y-105528198D01*
X114121000Y-105528198D02*
X113907600Y-105528198D01*
X113907600Y-105528198D02*
X113907600Y-110382200D01*
X119361600Y-110382200D02*
X119361600Y-105528198D01*
X119148200Y-110382200D02*
X119361600Y-110382200D01*
X113907600Y-110382200D02*
X114121000Y-110382200D01*
D12*
X155283752Y-80333000D02*
X154761248Y-80333000D01*
X155283752Y-81803000D02*
X154761248Y-81803000D01*
X126518400Y-75973000D02*
X124058400Y-75973000D01*
X124058400Y-77443000D02*
X126518400Y-77443000D01*
X124058400Y-75973000D02*
X124058400Y-77443000D01*
X115114000Y-95426200D02*
X117574000Y-95426200D01*
X117574000Y-93956200D02*
X115114000Y-93956200D01*
X117574000Y-95426200D02*
X117574000Y-93956200D01*
X121956181Y-109524800D02*
G75*
G03*
X121956181Y-109524800I-283981J0D01*
G01*
D13*
X126431200Y-105573799D02*
X126217800Y-105573799D01*
X121190600Y-105573799D02*
X120977200Y-105573799D01*
X120977200Y-105573799D02*
X120977200Y-110427801D01*
X126431200Y-110427801D02*
X126431200Y-105573799D01*
X126217800Y-110427801D02*
X126431200Y-110427801D01*
X120977200Y-110427801D02*
X121190600Y-110427801D01*
D12*
X161574000Y-100218000D02*
X161574000Y-97068000D01*
X159874000Y-100218000D02*
X159874000Y-97068000D01*
X159874000Y-100218000D02*
X161574000Y-100218000D01*
X145427048Y-90222000D02*
X145949552Y-90222000D01*
X145427048Y-91692000D02*
X145949552Y-91692000D01*
X127836000Y-73851000D02*
X127836000Y-67881000D01*
X127836000Y-67881000D02*
X120216000Y-67881000D01*
X127826000Y-70141000D02*
X127076000Y-70141000D01*
X127826000Y-68641000D02*
X127826000Y-67891000D01*
X127826000Y-67891000D02*
X126026000Y-67891000D01*
X127076000Y-73091000D02*
X124026000Y-73091000D01*
X127076000Y-70141000D02*
X127076000Y-73091000D01*
X126026000Y-68641000D02*
X127826000Y-68641000D01*
X126026000Y-67891000D02*
X126026000Y-68641000D01*
X124526000Y-68641000D02*
X124526000Y-67891000D01*
X124526000Y-67891000D02*
X123526000Y-67891000D01*
X123526000Y-68641000D02*
X124526000Y-68641000D01*
X123526000Y-67891000D02*
X123526000Y-68641000D01*
X122026000Y-68641000D02*
X122026000Y-67891000D01*
X122026000Y-67891000D02*
X120226000Y-67891000D01*
X121176000Y-67591000D02*
X119926000Y-67591000D01*
X120976000Y-73091000D02*
X124026000Y-73091000D01*
X120976000Y-70141000D02*
X120976000Y-73091000D01*
X120226000Y-70141000D02*
X120976000Y-70141000D01*
X120226000Y-68641000D02*
X122026000Y-68641000D01*
X120226000Y-67891000D02*
X120226000Y-68641000D01*
X120216000Y-73851000D02*
X127836000Y-73851000D01*
X120216000Y-67881000D02*
X120216000Y-73851000D01*
X119926000Y-67591000D02*
X119926000Y-68841000D01*
X115114000Y-88911000D02*
X117574000Y-88911000D01*
X117574000Y-87441000D02*
X115114000Y-87441000D01*
X117574000Y-88911000D02*
X117574000Y-87441000D01*
X155283752Y-84905000D02*
X154761248Y-84905000D01*
X155283752Y-86375000D02*
X154761248Y-86375000D01*
X114886581Y-101346000D02*
G75*
G03*
X114886581Y-101346000I-283981J0D01*
G01*
D13*
X119361600Y-97394999D02*
X119148200Y-97394999D01*
X114121000Y-97394999D02*
X113907600Y-97394999D01*
X113907600Y-97394999D02*
X113907600Y-102249001D01*
X119361600Y-102249001D02*
X119361600Y-97394999D01*
X119148200Y-102249001D02*
X119361600Y-102249001D01*
X113907600Y-102249001D02*
X114121000Y-102249001D01*
D12*
X138283752Y-102795000D02*
X137761248Y-102795000D01*
X138283752Y-101325000D02*
X137761248Y-101325000D01*
D14*
X145362000Y-74676000D03*
X147902000Y-74676000D03*
X150442000Y-74676000D03*
X152982000Y-74676000D03*
X155522000Y-74676000D03*
X158062000Y-74676000D03*
X160602000Y-74676000D03*
X160602000Y-110236000D03*
X158062000Y-110236000D03*
X155522000Y-110236000D03*
X152982000Y-110236000D03*
X150442000Y-110236000D03*
X147902000Y-110236000D03*
D15*
X145362000Y-110236000D03*
%LPC*%
D14*
X145362000Y-74676000D03*
X147902000Y-74676000D03*
X150442000Y-74676000D03*
X152982000Y-74676000D03*
X155522000Y-74676000D03*
X158062000Y-74676000D03*
X160602000Y-74676000D03*
X160602000Y-110236000D03*
X158062000Y-110236000D03*
X155522000Y-110236000D03*
X152982000Y-110236000D03*
X150442000Y-110236000D03*
X147902000Y-110236000D03*
D15*
X145362000Y-110236000D03*
D16*
X130860000Y-99560000D03*
X128585000Y-99560000D03*
D17*
X131212600Y-98095000D03*
X131212600Y-97595000D03*
X131212600Y-97095000D03*
X131212600Y-96595000D03*
X131212600Y-96095000D03*
X131212600Y-95595000D03*
X131212600Y-95095000D03*
X131212600Y-94595000D03*
X131212600Y-94095000D03*
X131212600Y-93595000D03*
X131212600Y-93095000D03*
X131212600Y-92595000D03*
X131212600Y-92095000D03*
X131212600Y-91595000D03*
X131212600Y-91095000D03*
X131212600Y-90595000D03*
D18*
X133137600Y-88670000D03*
X133637600Y-88670000D03*
X134137600Y-88670000D03*
X134637600Y-88670000D03*
X135137600Y-88670000D03*
X135637600Y-88670000D03*
X136137600Y-88670000D03*
X136637600Y-88670000D03*
X137137600Y-88670000D03*
X137637600Y-88670000D03*
X138137600Y-88670000D03*
X138637600Y-88670000D03*
X139137600Y-88670000D03*
X139637600Y-88670000D03*
X140137600Y-88670000D03*
X140637600Y-88670000D03*
D17*
X142562600Y-90595000D03*
X142562600Y-91095000D03*
X142562600Y-91595000D03*
X142562600Y-92095000D03*
X142562600Y-92595000D03*
X142562600Y-93095000D03*
X142562600Y-93595000D03*
X142562600Y-94095000D03*
X142562600Y-94595000D03*
X142562600Y-95095000D03*
X142562600Y-95595000D03*
X142562600Y-96095000D03*
X142562600Y-96595000D03*
X142562600Y-97095000D03*
X142562600Y-97595000D03*
X142562600Y-98095000D03*
D18*
X140637600Y-100020000D03*
X140137600Y-100020000D03*
X139637600Y-100020000D03*
X139137600Y-100020000D03*
X138637600Y-100020000D03*
X138137600Y-100020000D03*
X137637600Y-100020000D03*
X137137600Y-100020000D03*
X136637600Y-100020000D03*
X136137600Y-100020000D03*
X135637600Y-100020000D03*
X135137600Y-100020000D03*
X134637600Y-100020000D03*
X134137600Y-100020000D03*
X133637600Y-100020000D03*
X133137600Y-100020000D03*
D19*
X148054400Y-113623900D03*
X148054400Y-115748900D03*
D16*
X128385000Y-88760000D03*
X130660000Y-88760000D03*
D20*
X114040000Y-70310000D03*
X114684370Y-68754370D03*
X114684370Y-71865630D03*
X116240000Y-68110000D03*
D21*
X116240000Y-70310000D03*
D20*
X116240000Y-72510000D03*
X117795630Y-68754370D03*
X117795630Y-71865630D03*
X118440000Y-70310000D03*
D22*
X140790000Y-72320000D03*
X133170000Y-72320000D03*
X130630000Y-72320000D03*
X140790000Y-77400000D03*
X133170000Y-77400000D03*
X130630000Y-77400000D03*
D23*
X123310000Y-81560000D03*
X123310000Y-84960000D03*
X136810000Y-81560000D03*
X136810000Y-84960000D03*
D24*
X131835000Y-69850000D03*
X130085000Y-69850000D03*
D25*
X121850000Y-97028000D03*
X123120000Y-97028000D03*
X124390000Y-97028000D03*
X125660000Y-97028000D03*
X125660000Y-102727998D03*
X124390000Y-102727998D03*
X123120000Y-102727998D03*
X121850000Y-102727998D03*
D26*
X132642000Y-102616000D03*
D27*
X130102000Y-102616000D03*
X132642000Y-105156000D03*
X130102000Y-105156000D03*
X132642000Y-107696000D03*
X130102000Y-107696000D03*
X132642000Y-110236000D03*
X130102000Y-110236000D03*
X132642000Y-112776000D03*
X130102000Y-112776000D03*
X132642000Y-115316000D03*
X130102000Y-115316000D03*
D28*
X144860000Y-97760000D03*
X147135000Y-97760000D03*
D24*
X121513400Y-76708000D03*
X119763400Y-76708000D03*
D29*
X115039000Y-90322400D03*
X116789000Y-90322400D03*
D24*
X136435000Y-69850000D03*
X134685000Y-69850000D03*
D20*
X158310000Y-70310000D03*
X158954370Y-68754370D03*
X158954370Y-71865630D03*
X160510000Y-68110000D03*
D21*
X160510000Y-70310000D03*
D20*
X160510000Y-72510000D03*
X162065630Y-68754370D03*
X162065630Y-71865630D03*
X162710000Y-70310000D03*
D27*
X137488000Y-115316000D03*
X140028000Y-115316000D03*
X137488000Y-112776000D03*
X140028000Y-112776000D03*
X137488000Y-110236000D03*
X140028000Y-110236000D03*
X137488000Y-107696000D03*
X140028000Y-107696000D03*
X137488000Y-105156000D03*
D26*
X140028000Y-105156000D03*
D30*
X116152000Y-76200000D03*
D31*
X116152000Y-76200000D03*
D30*
X116152000Y-82700000D03*
D31*
X116152000Y-82700000D03*
D32*
X154418400Y-115936400D03*
X154418400Y-113436400D03*
X149818400Y-115936400D03*
X149818400Y-113436400D03*
D20*
X114010000Y-114610000D03*
X114654370Y-113054370D03*
X114654370Y-116165630D03*
X116210000Y-112410000D03*
D21*
X116210000Y-114610000D03*
D20*
X116210000Y-116810000D03*
X117765630Y-113054370D03*
X117765630Y-116165630D03*
X118410000Y-114610000D03*
D29*
X115039000Y-92506800D03*
X116789000Y-92506800D03*
D28*
X144560000Y-88925000D03*
X146835000Y-88925000D03*
D20*
X158310000Y-114610000D03*
X158954370Y-113054370D03*
X158954370Y-116165630D03*
X160510000Y-112410000D03*
D21*
X160510000Y-114610000D03*
D20*
X160510000Y-116810000D03*
X162065630Y-113054370D03*
X162065630Y-116165630D03*
X162710000Y-114610000D03*
D33*
X141128000Y-84862000D03*
X141128000Y-83112000D03*
D25*
X114729600Y-105105200D03*
X115999600Y-105105200D03*
X117269600Y-105105200D03*
X118539600Y-105105200D03*
X118539600Y-110805198D03*
X117269600Y-110805198D03*
X115999600Y-110805198D03*
X114729600Y-110805198D03*
D16*
X153885000Y-81068000D03*
X156160000Y-81068000D03*
D24*
X126593400Y-76708000D03*
X124843400Y-76708000D03*
D29*
X115039000Y-94691200D03*
X116789000Y-94691200D03*
D25*
X121799200Y-105150801D03*
X123069200Y-105150801D03*
X124339200Y-105150801D03*
X125609200Y-105150801D03*
X125609200Y-110850799D03*
X124339200Y-110850799D03*
X123069200Y-110850799D03*
X121799200Y-110850799D03*
D34*
X160724000Y-97068000D03*
X160724000Y-99568000D03*
D28*
X144550800Y-90957000D03*
X146825800Y-90957000D03*
D35*
X125276000Y-70341000D03*
D36*
X122776000Y-70341000D03*
D29*
X115039000Y-88176000D03*
X116789000Y-88176000D03*
D16*
X153885000Y-85640000D03*
X156160000Y-85640000D03*
D25*
X114729600Y-96972001D03*
X115999600Y-96972001D03*
X117269600Y-96972001D03*
X118539600Y-96972001D03*
X118539600Y-102671999D03*
X117269600Y-102671999D03*
X115999600Y-102671999D03*
X114729600Y-102671999D03*
D16*
X136885000Y-102060000D03*
X139160000Y-102060000D03*
%LPD*%
M02*
