M48
; DRILL file {KiCad 7.0.9} date Fri Jul  5 17:08:35 2024
; FORMAT={-:-/ absolute / metric / decimal}
; #@! TF.CreationDate,2024-07-05T17:08:35+09:00
; #@! TF.GenerationSoftware,Kicad,Pcbnew,7.0.9
; #@! TF.FileFunction,MixedPlating,1,2
FMAT,2
METRIC
; #@! TA.AperFunction,Plated,PTH,ViaDrill
T1C0.300
; #@! TA.AperFunction,Plated,PTH,ComponentDrill
T2C0.300
; #@! TA.AperFunction,Plated,PTH,ViaDrill
T3C0.400
; #@! TA.AperFunction,Plated,PTH,ComponentDrill
T4C0.762
; #@! TA.AperFunction,Plated,PTH,ComponentDrill
T5C0.800
; #@! TA.AperFunction,Plated,PTH,ComponentDrill
T6C1.000
; #@! TA.AperFunction,Plated,PTH,ComponentDrill
T7C1.500
; #@! TA.AperFunction,Plated,PTH,ComponentDrill
T8C3.200
%
G90
G05
T1
X114.12Y-73.66
X114.12Y-86.36
X114.12Y-104.14
X114.12Y-111.76
X114.577Y-98.806
X114.603Y-100.838
X114.603Y-108.966
X114.628Y-88.163
X114.628Y-90.297
X114.628Y-94.691
X114.653Y-92.507
X114.653Y-106.959
X116.152Y-78.461
X116.152Y-80.442
X116.66Y-86.36
X117.27Y-96.825
X117.27Y-102.87
X117.27Y-104.724
X119.2Y-68.58
X119.2Y-73.66
X119.2Y-83.82
X119.2Y-86.36
X119.2Y-111.76
X119.2Y-116.84
X119.327Y-94.393
X121.36Y-83.82
X121.672Y-109.017
X121.698Y-98.882
X121.723Y-100.914
X121.74Y-68.58
X121.74Y-73.66
X121.74Y-116.84
X121.918Y-76.708
X121.926Y-106.985
X121.994Y-93.26
X123.935Y-92.085
X123.96Y-93.06
X124.28Y-68.58
X124.28Y-93.98
X124.28Y-116.84
X124.314Y-111.125
X124.339Y-104.902
X124.365Y-102.946
X124.39Y-96.876
X125.06Y-91.36
X126.66Y-97.46
X126.82Y-68.58
X126.82Y-116.84
X126.998Y-76.708
X127.06Y-96.06
X127.66Y-94.86
X128.827Y-94.86
X129.36Y-68.58
X129.36Y-81.28
X129.36Y-83.82
X129.56Y-89.66
X129.642Y-94.841
X130.66Y-88.76
X131.9Y-73.66
X131.9Y-81.28
X132.244Y-69.85
X132.36Y-88.06
X134.44Y-68.58
X134.44Y-81.28
X134.44Y-92.71
X134.44Y-93.98
X134.44Y-95.25
X134.44Y-96.52
X134.44Y-114.3
X135.71Y-92.71
X135.71Y-93.98
X135.71Y-95.25
X135.71Y-96.52
X136.592Y-69.85
X136.98Y-92.71
X136.98Y-93.98
X136.98Y-95.25
X136.98Y-96.52
X138.25Y-92.71
X138.25Y-93.98
X138.25Y-95.25
X138.25Y-96.52
X138.66Y-106.46
X139.52Y-68.58
X139.52Y-73.66
X139.52Y-76.2
X139.52Y-81.28
X139.52Y-92.71
X139.52Y-93.98
X139.52Y-95.25
X139.52Y-96.52
X141.134Y-82.701
X142.06Y-68.58
X142.06Y-73.66
X142.06Y-76.2
X142.06Y-81.28
X142.16Y-101.36
X142.36Y-98.96
X142.86Y-99.46
X142.86Y-100.66
X143.025Y-114.3
X143.584Y-114.757
X144.06Y-92.26
X144.06Y-93.022
X144.06Y-94.374
X144.06Y-95.136
X144.06Y-95.898
X144.06Y-96.66
X144.36Y-106.46
X144.551Y-88.874
X144.6Y-68.58
X144.6Y-81.28
X144.6Y-83.82
X144.6Y-116.84
X146.26Y-87.36
X147.14Y-68.58
X147.14Y-71.12
X147.14Y-104.14
X147.14Y-106.68
X147.14Y-116.84
X147.41Y-100.71
X148.054Y-113.64
X149.26Y-87.36
X149.68Y-68.58
X149.68Y-71.12
X149.68Y-104.14
X149.68Y-106.68
X149.68Y-116.84
X150.21Y-100.71
X150.442Y-79.26
X151.86Y-101.383
X152.22Y-68.58
X152.22Y-71.12
X152.22Y-116.84
X152.982Y-79.26
X153.388Y-114.681
X154.76Y-68.58
X154.76Y-71.12
X154.76Y-91.44
X154.76Y-96.52
X154.76Y-104.14
X154.76Y-106.68
X154.76Y-116.84
X156.157Y-81.088
X156.157Y-85.66
X157.3Y-68.58
X157.3Y-71.12
X157.3Y-88.9
X157.3Y-91.44
X157.3Y-104.14
X157.3Y-106.68
X157.3Y-116.84
X157.808Y-95.123
X159.84Y-78.74
X159.84Y-81.28
X159.84Y-83.82
X159.84Y-86.36
X159.84Y-91.44
X159.84Y-101.6
X159.84Y-106.68
X162.38Y-73.66
X162.38Y-76.2
X162.38Y-78.74
X162.38Y-81.28
X162.38Y-83.82
X162.38Y-86.36
X162.38Y-88.9
X162.38Y-101.6
X162.38Y-106.68
X162.38Y-109.22
X162.38Y-111.76
T2
X114.01Y-114.61
X114.04Y-70.31
X114.654Y-113.054
X114.654Y-116.166
X114.684Y-68.754
X114.684Y-71.866
X116.21Y-112.41
X116.21Y-116.81
X116.24Y-68.11
X116.24Y-72.51
X117.766Y-113.054
X117.766Y-116.166
X117.796Y-68.754
X117.796Y-71.866
X118.41Y-114.61
X118.44Y-70.31
X158.31Y-70.31
X158.31Y-114.61
X158.954Y-68.754
X158.954Y-71.866
X158.954Y-113.054
X158.954Y-116.166
X160.51Y-68.11
X160.51Y-72.51
X160.51Y-112.41
X160.51Y-116.81
X162.066Y-68.754
X162.066Y-71.866
X162.066Y-113.054
X162.066Y-116.166
X162.71Y-70.31
X162.71Y-114.61
T3
X128.36Y-88.76
X130.86Y-99.56
X136.56Y-103.56
X145.36Y-104.36
X149.16Y-95.86
X150.96Y-91.66
T4
X130.63Y-72.32
X130.63Y-77.4
X133.17Y-72.32
X133.17Y-77.4
X140.79Y-72.32
X140.79Y-77.4
T5
X145.362Y-74.676
X145.362Y-110.236
X147.902Y-74.676
X147.902Y-110.236
X150.442Y-74.676
X150.442Y-110.236
X152.982Y-74.676
X152.982Y-110.236
X155.522Y-74.676
X155.522Y-110.236
X158.062Y-74.676
X158.062Y-110.236
X160.602Y-74.676
X160.602Y-110.236
T6
X116.152Y-76.2
X116.152Y-82.7
X122.776Y-70.341
X125.276Y-70.341
X130.102Y-102.616
X130.102Y-105.156
X130.102Y-107.696
X130.102Y-110.236
X130.102Y-112.776
X130.102Y-115.316
X132.642Y-102.616
X132.642Y-105.156
X132.642Y-107.696
X132.642Y-110.236
X132.642Y-112.776
X132.642Y-115.316
X137.488Y-105.156
X137.488Y-107.696
X137.488Y-110.236
X137.488Y-112.776
X137.488Y-115.316
X140.028Y-105.156
X140.028Y-107.696
X140.028Y-110.236
X140.028Y-112.776
X140.028Y-115.316
T8
X116.21Y-114.61
X116.24Y-70.31
X160.51Y-70.31
X160.51Y-114.61
T7
X123.16Y-81.56G85X123.46Y-81.56
G05
X123.16Y-84.96G85X123.46Y-84.96
G05
X136.66Y-81.56G85X136.96Y-81.56
G05
X136.66Y-84.96G85X136.96Y-84.96
G05
T0
M30
