G04 #@! TF.GenerationSoftware,KiCad,Pcbnew,7.0.9*
G04 #@! TF.CreationDate,2024-07-05T17:08:16+09:00*
G04 #@! TF.ProjectId,YAMADAmain_correct,59414d41-4441-46d6-9169-6e5f636f7272,rev?*
G04 #@! TF.SameCoordinates,Original*
G04 #@! TF.FileFunction,Soldermask,Bot*
G04 #@! TF.FilePolarity,Negative*
%FSLAX46Y46*%
G04 Gerber Fmt 4.6, Leading zero omitted, Abs format (unit mm)*
G04 Created by KiCad (PCBNEW 7.0.9) date 2024-07-05 17:08:16*
%MOMM*%
%LPD*%
G01*
G04 APERTURE LIST*
G04 Aperture macros list*
%AMRoundRect*
0 Rectangle with rounded corners*
0 $1 Rounding radius*
0 $2 $3 $4 $5 $6 $7 $8 $9 X,Y pos of 4 corners*
0 Add a 4 corners polygon primitive as box body*
4,1,4,$2,$3,$4,$5,$6,$7,$8,$9,$2,$3,0*
0 Add four circle primitives for the rounded corners*
1,1,$1+$1,$2,$3*
1,1,$1+$1,$4,$5*
1,1,$1+$1,$6,$7*
1,1,$1+$1,$8,$9*
0 Add four rect primitives between the rounded corners*
20,1,$1+$1,$2,$3,$4,$5,0*
20,1,$1+$1,$4,$5,$6,$7,0*
20,1,$1+$1,$6,$7,$8,$9,0*
20,1,$1+$1,$8,$9,$2,$3,0*%
G04 Aperture macros list end*
%ADD10RoundRect,0.635000X0.635000X0.635000X-0.635000X0.635000X-0.635000X-0.635000X0.635000X-0.635000X0*%
%ADD11O,1.800000X2.200000*%
%ADD12R,1.800000X2.200000*%
%ADD13C,1.000000*%
%ADD14C,5.600000*%
%ADD15C,1.524000*%
%ADD16RoundRect,0.625000X-0.875000X-0.625000X0.875000X-0.625000X0.875000X0.625000X-0.875000X0.625000X0*%
%ADD17R,1.700000X1.700000*%
%ADD18O,1.700000X1.700000*%
%ADD19C,1.600000*%
%ADD20RoundRect,0.292875X0.394625X0.432125X-0.394625X0.432125X-0.394625X-0.432125X0.394625X-0.432125X0*%
%ADD21O,1.700000X2.000000*%
%ADD22RoundRect,0.250000X-0.600000X-0.750000X0.600000X-0.750000X0.600000X0.750000X-0.600000X0.750000X0*%
%ADD23RoundRect,0.250000X-0.350000X-0.450000X0.350000X-0.450000X0.350000X0.450000X-0.350000X0.450000X0*%
%ADD24RoundRect,0.250000X-1.100000X0.250000X-1.100000X-0.250000X1.100000X-0.250000X1.100000X0.250000X0*%
%ADD25RoundRect,0.150000X-0.700000X0.150000X-0.700000X-0.150000X0.700000X-0.150000X0.700000X0.150000X0*%
%ADD26RoundRect,0.292875X-0.394625X-0.432125X0.394625X-0.432125X0.394625X0.432125X-0.394625X0.432125X0*%
%ADD27RoundRect,0.508000X2.032000X-0.508000X2.032000X0.508000X-2.032000X0.508000X-2.032000X-0.508000X0*%
%ADD28RoundRect,0.250000X0.337500X0.475000X-0.337500X0.475000X-0.337500X-0.475000X0.337500X-0.475000X0*%
%ADD29RoundRect,0.225000X0.375000X-0.225000X0.375000X0.225000X-0.375000X0.225000X-0.375000X-0.225000X0*%
%ADD30RoundRect,0.250000X0.350000X0.450000X-0.350000X0.450000X-0.350000X-0.450000X0.350000X-0.450000X0*%
%ADD31RoundRect,0.250000X0.475000X-0.337500X0.475000X0.337500X-0.475000X0.337500X-0.475000X-0.337500X0*%
%ADD32R,2.200000X1.200000*%
%ADD33R,6.400000X5.800000*%
%ADD34RoundRect,0.250000X0.450000X-0.350000X0.450000X0.350000X-0.450000X0.350000X-0.450000X-0.350000X0*%
G04 APERTURE END LIST*
D10*
X123824000Y-114300000D03*
X120776000Y-114300000D03*
D11*
X145362000Y-74676000D03*
X147902000Y-74676000D03*
X150442000Y-74676000D03*
X152982000Y-74676000D03*
X155522000Y-74676000D03*
X158062000Y-74676000D03*
X160602000Y-74676000D03*
X160602000Y-110236000D03*
X158062000Y-110236000D03*
X155522000Y-110236000D03*
X152982000Y-110236000D03*
X150442000Y-110236000D03*
X147902000Y-110236000D03*
D12*
X145362000Y-110236000D03*
D13*
X114040000Y-70310000D03*
X114684370Y-68754370D03*
X114684370Y-71865630D03*
X116240000Y-68110000D03*
D14*
X116240000Y-70310000D03*
D13*
X116240000Y-72510000D03*
X117795630Y-68754370D03*
X117795630Y-71865630D03*
X118440000Y-70310000D03*
D15*
X140790000Y-72320000D03*
X133170000Y-72320000D03*
X130630000Y-72320000D03*
X140790000Y-77400000D03*
X133170000Y-77400000D03*
X130630000Y-77400000D03*
D16*
X123310000Y-81560000D03*
X123310000Y-84960000D03*
X136810000Y-81560000D03*
X136810000Y-84960000D03*
D17*
X132642000Y-102616000D03*
D18*
X130102000Y-102616000D03*
X132642000Y-105156000D03*
X130102000Y-105156000D03*
X132642000Y-107696000D03*
X130102000Y-107696000D03*
X132642000Y-110236000D03*
X130102000Y-110236000D03*
X132642000Y-112776000D03*
X130102000Y-112776000D03*
X132642000Y-115316000D03*
X130102000Y-115316000D03*
D13*
X158310000Y-70310000D03*
X158954370Y-68754370D03*
X158954370Y-71865630D03*
X160510000Y-68110000D03*
D14*
X160510000Y-70310000D03*
D13*
X160510000Y-72510000D03*
X162065630Y-68754370D03*
X162065630Y-71865630D03*
X162710000Y-70310000D03*
D18*
X137488000Y-115316000D03*
X140028000Y-115316000D03*
X137488000Y-112776000D03*
X140028000Y-112776000D03*
X137488000Y-110236000D03*
X140028000Y-110236000D03*
X137488000Y-107696000D03*
X140028000Y-107696000D03*
X137488000Y-105156000D03*
D17*
X140028000Y-105156000D03*
D19*
X116152000Y-76200000D03*
X116152000Y-82700000D03*
D20*
X128585000Y-99560000D03*
X130860000Y-99560000D03*
D13*
X114010000Y-114610000D03*
X114654370Y-113054370D03*
X114654370Y-116165630D03*
X116210000Y-112410000D03*
D14*
X116210000Y-114610000D03*
D13*
X116210000Y-116810000D03*
X117765630Y-113054370D03*
X117765630Y-116165630D03*
X118410000Y-114610000D03*
X158310000Y-114610000D03*
X158954370Y-113054370D03*
X158954370Y-116165630D03*
X160510000Y-112410000D03*
D14*
X160510000Y-114610000D03*
D13*
X160510000Y-116810000D03*
X162065630Y-113054370D03*
X162065630Y-116165630D03*
X162710000Y-114610000D03*
D21*
X125276000Y-70341000D03*
D22*
X122776000Y-70341000D03*
D23*
X116914000Y-90322400D03*
X114914000Y-90322400D03*
D24*
X161058000Y-103233000D03*
X161058000Y-93283000D03*
D25*
X157858000Y-101383000D03*
X157858000Y-100133000D03*
X157858000Y-98883000D03*
X157858000Y-97633000D03*
X157858000Y-96383000D03*
X157858000Y-95133000D03*
D26*
X153255900Y-114686400D03*
X150980900Y-114686400D03*
D27*
X123755000Y-98607999D03*
X123755000Y-101147999D03*
D28*
X131708500Y-84960000D03*
X133783500Y-84960000D03*
D23*
X116914000Y-92506800D03*
X114914000Y-92506800D03*
X116914000Y-94691200D03*
X114914000Y-94691200D03*
X116914000Y-88176000D03*
X114914000Y-88176000D03*
D27*
X116634600Y-106685199D03*
X116634600Y-109225199D03*
X116634600Y-98552000D03*
X116634600Y-101092000D03*
X123704200Y-106730800D03*
X123704200Y-109270800D03*
D29*
X135964000Y-73210000D03*
X135964000Y-76510000D03*
D30*
X134560000Y-69850000D03*
X136560000Y-69850000D03*
X119638400Y-76708000D03*
X121638400Y-76708000D03*
D31*
X116152000Y-78412500D03*
X116152000Y-80487500D03*
D30*
X129960000Y-69850000D03*
X131960000Y-69850000D03*
D32*
X156160000Y-85640000D03*
D33*
X149860000Y-83360000D03*
D32*
X156160000Y-83360000D03*
X156160000Y-81080000D03*
D34*
X141128000Y-82987000D03*
X141128000Y-84987000D03*
D30*
X124718400Y-76708000D03*
X126718400Y-76708000D03*
D34*
X129060000Y-91560000D03*
X129060000Y-93560000D03*
M02*
