G04 #@! TF.GenerationSoftware,KiCad,Pcbnew,7.0.9*
G04 #@! TF.CreationDate,2024-07-05T17:08:16+09:00*
G04 #@! TF.ProjectId,YAMADAmain_correct,59414d41-4441-46d6-9169-6e5f636f7272,rev?*
G04 #@! TF.SameCoordinates,Original*
G04 #@! TF.FileFunction,Copper,L1,Top*
G04 #@! TF.FilePolarity,Positive*
%FSLAX46Y46*%
G04 Gerber Fmt 4.6, Leading zero omitted, Abs format (unit mm)*
G04 Created by KiCad (PCBNEW 7.0.9) date 2024-07-05 17:08:16*
%MOMM*%
%LPD*%
G01*
G04 APERTURE LIST*
G04 Aperture macros list*
%AMRoundRect*
0 Rectangle with rounded corners*
0 $1 Rounding radius*
0 $2 $3 $4 $5 $6 $7 $8 $9 X,Y pos of 4 corners*
0 Add a 4 corners polygon primitive as box body*
4,1,4,$2,$3,$4,$5,$6,$7,$8,$9,$2,$3,0*
0 Add four circle primitives for the rounded corners*
1,1,$1+$1,$2,$3*
1,1,$1+$1,$4,$5*
1,1,$1+$1,$6,$7*
1,1,$1+$1,$8,$9*
0 Add four rect primitives between the rounded corners*
20,1,$1+$1,$2,$3,$4,$5,0*
20,1,$1+$1,$4,$5,$6,$7,0*
20,1,$1+$1,$6,$7,$8,$9,0*
20,1,$1+$1,$8,$9,$2,$3,0*%
G04 Aperture macros list end*
G04 #@! TA.AperFunction,ComponentPad*
%ADD10O,1.800000X2.200000*%
G04 #@! TD*
G04 #@! TA.AperFunction,ComponentPad*
%ADD11R,1.800000X2.200000*%
G04 #@! TD*
G04 #@! TA.AperFunction,SMDPad,CuDef*
%ADD12RoundRect,0.292875X0.394625X0.432125X-0.394625X0.432125X-0.394625X-0.432125X0.394625X-0.432125X0*%
G04 #@! TD*
G04 #@! TA.AperFunction,SMDPad,CuDef*
%ADD13RoundRect,0.075000X0.700000X-0.075000X0.700000X0.075000X-0.700000X0.075000X-0.700000X-0.075000X0*%
G04 #@! TD*
G04 #@! TA.AperFunction,SMDPad,CuDef*
%ADD14RoundRect,0.075000X0.075000X-0.700000X0.075000X0.700000X-0.075000X0.700000X-0.075000X-0.700000X0*%
G04 #@! TD*
G04 #@! TA.AperFunction,SMDPad,CuDef*
%ADD15RoundRect,0.237500X0.237500X-0.400000X0.237500X0.400000X-0.237500X0.400000X-0.237500X-0.400000X0*%
G04 #@! TD*
G04 #@! TA.AperFunction,ComponentPad*
%ADD16C,1.000000*%
G04 #@! TD*
G04 #@! TA.AperFunction,ComponentPad*
%ADD17C,5.600000*%
G04 #@! TD*
G04 #@! TA.AperFunction,ComponentPad*
%ADD18C,1.524000*%
G04 #@! TD*
G04 #@! TA.AperFunction,ComponentPad*
%ADD19RoundRect,0.625000X-0.875000X-0.625000X0.875000X-0.625000X0.875000X0.625000X-0.875000X0.625000X0*%
G04 #@! TD*
G04 #@! TA.AperFunction,SMDPad,CuDef*
%ADD20RoundRect,0.237500X-0.287500X-0.237500X0.287500X-0.237500X0.287500X0.237500X-0.287500X0.237500X0*%
G04 #@! TD*
G04 #@! TA.AperFunction,SMDPad,CuDef*
%ADD21R,0.760000X1.100000*%
G04 #@! TD*
G04 #@! TA.AperFunction,ComponentPad*
%ADD22R,1.700000X1.700000*%
G04 #@! TD*
G04 #@! TA.AperFunction,ComponentPad*
%ADD23O,1.700000X1.700000*%
G04 #@! TD*
G04 #@! TA.AperFunction,SMDPad,CuDef*
%ADD24RoundRect,0.292875X-0.394625X-0.432125X0.394625X-0.432125X0.394625X0.432125X-0.394625X0.432125X0*%
G04 #@! TD*
G04 #@! TA.AperFunction,SMDPad,CuDef*
%ADD25RoundRect,0.237500X0.287500X0.237500X-0.287500X0.237500X-0.287500X-0.237500X0.287500X-0.237500X0*%
G04 #@! TD*
G04 #@! TA.AperFunction,SMDPad,CuDef*
%ADD26RoundRect,0.225000X2.025000X-2.025000X2.025000X2.025000X-2.025000X2.025000X-2.025000X-2.025000X0*%
G04 #@! TD*
G04 #@! TA.AperFunction,ComponentPad*
%ADD27C,1.600000*%
G04 #@! TD*
G04 #@! TA.AperFunction,SMDPad,CuDef*
%ADD28R,1.500000X1.000000*%
G04 #@! TD*
G04 #@! TA.AperFunction,SMDPad,CuDef*
%ADD29RoundRect,0.237500X0.237500X-0.287500X0.237500X0.287500X-0.237500X0.287500X-0.237500X-0.287500X0*%
G04 #@! TD*
G04 #@! TA.AperFunction,SMDPad,CuDef*
%ADD30R,1.000000X1.000000*%
G04 #@! TD*
G04 #@! TA.AperFunction,ComponentPad*
%ADD31O,1.700000X2.000000*%
G04 #@! TD*
G04 #@! TA.AperFunction,ComponentPad*
%ADD32RoundRect,0.250000X-0.600000X-0.750000X0.600000X-0.750000X0.600000X0.750000X-0.600000X0.750000X0*%
G04 #@! TD*
G04 #@! TA.AperFunction,ViaPad*
%ADD33C,0.500000*%
G04 #@! TD*
G04 #@! TA.AperFunction,ViaPad*
%ADD34C,0.600000*%
G04 #@! TD*
G04 #@! TA.AperFunction,Conductor*
%ADD35C,1.000000*%
G04 #@! TD*
G04 #@! TA.AperFunction,Conductor*
%ADD36C,0.150000*%
G04 #@! TD*
G04 #@! TA.AperFunction,Conductor*
%ADD37C,0.500000*%
G04 #@! TD*
G04 APERTURE END LIST*
D10*
X145362000Y-74676000D03*
X147902000Y-74676000D03*
X150442000Y-74676000D03*
X152982000Y-74676000D03*
X155522000Y-74676000D03*
X158062000Y-74676000D03*
X160602000Y-74676000D03*
X160602000Y-110236000D03*
X158062000Y-110236000D03*
X155522000Y-110236000D03*
X152982000Y-110236000D03*
X150442000Y-110236000D03*
X147902000Y-110236000D03*
D11*
X145362000Y-110236000D03*
D12*
X130860000Y-99560000D03*
X128585000Y-99560000D03*
D13*
X131212600Y-98095000D03*
X131212600Y-97595000D03*
X131212600Y-97095000D03*
X131212600Y-96595000D03*
X131212600Y-96095000D03*
X131212600Y-95595000D03*
X131212600Y-95095000D03*
X131212600Y-94595000D03*
X131212600Y-94095000D03*
X131212600Y-93595000D03*
X131212600Y-93095000D03*
X131212600Y-92595000D03*
X131212600Y-92095000D03*
X131212600Y-91595000D03*
X131212600Y-91095000D03*
X131212600Y-90595000D03*
D14*
X133137600Y-88670000D03*
X133637600Y-88670000D03*
X134137600Y-88670000D03*
X134637600Y-88670000D03*
X135137600Y-88670000D03*
X135637600Y-88670000D03*
X136137600Y-88670000D03*
X136637600Y-88670000D03*
X137137600Y-88670000D03*
X137637600Y-88670000D03*
X138137600Y-88670000D03*
X138637600Y-88670000D03*
X139137600Y-88670000D03*
X139637600Y-88670000D03*
X140137600Y-88670000D03*
X140637600Y-88670000D03*
D13*
X142562600Y-90595000D03*
X142562600Y-91095000D03*
X142562600Y-91595000D03*
X142562600Y-92095000D03*
X142562600Y-92595000D03*
X142562600Y-93095000D03*
X142562600Y-93595000D03*
X142562600Y-94095000D03*
X142562600Y-94595000D03*
X142562600Y-95095000D03*
X142562600Y-95595000D03*
X142562600Y-96095000D03*
X142562600Y-96595000D03*
X142562600Y-97095000D03*
X142562600Y-97595000D03*
X142562600Y-98095000D03*
D14*
X140637600Y-100020000D03*
X140137600Y-100020000D03*
X139637600Y-100020000D03*
X139137600Y-100020000D03*
X138637600Y-100020000D03*
X138137600Y-100020000D03*
X137637600Y-100020000D03*
X137137600Y-100020000D03*
X136637600Y-100020000D03*
X136137600Y-100020000D03*
X135637600Y-100020000D03*
X135137600Y-100020000D03*
X134637600Y-100020000D03*
X134137600Y-100020000D03*
X133637600Y-100020000D03*
X133137600Y-100020000D03*
D15*
X148054400Y-113623900D03*
X148054400Y-115748900D03*
D12*
X128385000Y-88760000D03*
X130660000Y-88760000D03*
D16*
X114040000Y-70310000D03*
X114684370Y-68754370D03*
X114684370Y-71865630D03*
X116240000Y-68110000D03*
D17*
X116240000Y-70310000D03*
D16*
X116240000Y-72510000D03*
X117795630Y-68754370D03*
X117795630Y-71865630D03*
X118440000Y-70310000D03*
D18*
X140790000Y-72320000D03*
X133170000Y-72320000D03*
X130630000Y-72320000D03*
X140790000Y-77400000D03*
X133170000Y-77400000D03*
X130630000Y-77400000D03*
D19*
X123310000Y-81560000D03*
X123310000Y-84960000D03*
X136810000Y-81560000D03*
X136810000Y-84960000D03*
D20*
X131835000Y-69850000D03*
X130085000Y-69850000D03*
D21*
X121850000Y-97028000D03*
X123120000Y-97028000D03*
X124390000Y-97028000D03*
X125660000Y-97028000D03*
X125660000Y-102727998D03*
X124390000Y-102727998D03*
X123120000Y-102727998D03*
X121850000Y-102727998D03*
D22*
X132642000Y-102616000D03*
D23*
X130102000Y-102616000D03*
X132642000Y-105156000D03*
X130102000Y-105156000D03*
X132642000Y-107696000D03*
X130102000Y-107696000D03*
X132642000Y-110236000D03*
X130102000Y-110236000D03*
X132642000Y-112776000D03*
X130102000Y-112776000D03*
X132642000Y-115316000D03*
X130102000Y-115316000D03*
D24*
X144860000Y-97760000D03*
X147135000Y-97760000D03*
D20*
X121513400Y-76708000D03*
X119763400Y-76708000D03*
D25*
X115039000Y-90322400D03*
X116789000Y-90322400D03*
D20*
X136435000Y-69850000D03*
X134685000Y-69850000D03*
D16*
X158310000Y-70310000D03*
X158954370Y-68754370D03*
X158954370Y-71865630D03*
X160510000Y-68110000D03*
D17*
X160510000Y-70310000D03*
D16*
X160510000Y-72510000D03*
X162065630Y-68754370D03*
X162065630Y-71865630D03*
X162710000Y-70310000D03*
D23*
X137488000Y-115316000D03*
X140028000Y-115316000D03*
X137488000Y-112776000D03*
X140028000Y-112776000D03*
X137488000Y-110236000D03*
X140028000Y-110236000D03*
X137488000Y-107696000D03*
X140028000Y-107696000D03*
X137488000Y-105156000D03*
D22*
X140028000Y-105156000D03*
D26*
X116152000Y-76200000D03*
D27*
X116152000Y-76200000D03*
D26*
X116152000Y-82700000D03*
D27*
X116152000Y-82700000D03*
D28*
X154418400Y-115936400D03*
X154418400Y-113436400D03*
X149818400Y-115936400D03*
X149818400Y-113436400D03*
D16*
X114010000Y-114610000D03*
X114654370Y-113054370D03*
X114654370Y-116165630D03*
X116210000Y-112410000D03*
D17*
X116210000Y-114610000D03*
D16*
X116210000Y-116810000D03*
X117765630Y-113054370D03*
X117765630Y-116165630D03*
X118410000Y-114610000D03*
D25*
X115039000Y-92506800D03*
X116789000Y-92506800D03*
D24*
X144560000Y-88925000D03*
X146835000Y-88925000D03*
D16*
X158310000Y-114610000D03*
X158954370Y-113054370D03*
X158954370Y-116165630D03*
X160510000Y-112410000D03*
D17*
X160510000Y-114610000D03*
D16*
X160510000Y-116810000D03*
X162065630Y-113054370D03*
X162065630Y-116165630D03*
X162710000Y-114610000D03*
D29*
X141128000Y-84862000D03*
X141128000Y-83112000D03*
D21*
X114729600Y-105105200D03*
X115999600Y-105105200D03*
X117269600Y-105105200D03*
X118539600Y-105105200D03*
X118539600Y-110805198D03*
X117269600Y-110805198D03*
X115999600Y-110805198D03*
X114729600Y-110805198D03*
D12*
X153885000Y-81068000D03*
X156160000Y-81068000D03*
D20*
X126593400Y-76708000D03*
X124843400Y-76708000D03*
D25*
X115039000Y-94691200D03*
X116789000Y-94691200D03*
D21*
X121799200Y-105150801D03*
X123069200Y-105150801D03*
X124339200Y-105150801D03*
X125609200Y-105150801D03*
X125609200Y-110850799D03*
X124339200Y-110850799D03*
X123069200Y-110850799D03*
X121799200Y-110850799D03*
D30*
X160724000Y-97068000D03*
X160724000Y-99568000D03*
D24*
X144550800Y-90957000D03*
X146825800Y-90957000D03*
D31*
X125276000Y-70341000D03*
D32*
X122776000Y-70341000D03*
D25*
X115039000Y-88176000D03*
X116789000Y-88176000D03*
D12*
X153885000Y-85640000D03*
X156160000Y-85640000D03*
D21*
X114729600Y-96972001D03*
X115999600Y-96972001D03*
X117269600Y-96972001D03*
X118539600Y-96972001D03*
X118539600Y-102671999D03*
X117269600Y-102671999D03*
X115999600Y-102671999D03*
X114729600Y-102671999D03*
D12*
X136885000Y-102060000D03*
X139160000Y-102060000D03*
D33*
X157300000Y-104140000D03*
X149680000Y-106680000D03*
X147140000Y-106680000D03*
X147140000Y-104140000D03*
X149680000Y-104140000D03*
X124280000Y-93980000D03*
X129360000Y-83820000D03*
X129360000Y-81280000D03*
D34*
X128360000Y-88760000D03*
X130860000Y-99560000D03*
X150960000Y-91660000D03*
X136560000Y-103560000D03*
X145360000Y-104360000D03*
X149160000Y-95860000D03*
D33*
X132360000Y-88060000D03*
X129560000Y-89660000D03*
X130660000Y-88760000D03*
X144360000Y-106460000D03*
X138660000Y-106460000D03*
X142860000Y-100660000D03*
X142160000Y-101360000D03*
X142360000Y-98960000D03*
X142860000Y-99460000D03*
X144060000Y-93022000D03*
X127660000Y-94860000D03*
X116152000Y-80441800D03*
X156157000Y-81088000D03*
X156157000Y-85660000D03*
X144550800Y-88874200D03*
X136592000Y-69850000D03*
X121917800Y-76708000D03*
X141134400Y-82701200D03*
X126997800Y-76708000D03*
X132244000Y-69850000D03*
X114628000Y-88163400D03*
X114628000Y-90297000D03*
X114653400Y-92506800D03*
X114628000Y-94691200D03*
X129641500Y-94841500D03*
X128826600Y-94860000D03*
X148054400Y-113639600D03*
X150210000Y-100710000D03*
X153388400Y-114681000D03*
X147410000Y-100710000D03*
X125060000Y-91360000D03*
X144060000Y-95898000D03*
X144060000Y-95136000D03*
X144060000Y-94374000D03*
X144060000Y-96660000D03*
X114602600Y-100838000D03*
X114577200Y-98806000D03*
X114602600Y-108966000D03*
X114653400Y-106959400D03*
X121723000Y-100914200D03*
X121697600Y-98882200D03*
X121672200Y-109016800D03*
X121926200Y-106984800D03*
X117269600Y-96824800D03*
X117269600Y-104724200D03*
X124390000Y-96875600D03*
X117269600Y-102870000D03*
X124313800Y-111125000D03*
X124339200Y-104902000D03*
X124364600Y-102946200D03*
X144060000Y-92260000D03*
X143584000Y-114757200D03*
X123960000Y-93060000D03*
X126660000Y-97459800D03*
X127060000Y-96060000D03*
X123934700Y-92085300D03*
X121994000Y-93260000D03*
X119327000Y-94393000D03*
X152982000Y-79260000D03*
X150442000Y-79260000D03*
X149260000Y-87360000D03*
X146260000Y-87360000D03*
X143025200Y-114300000D03*
X157808000Y-95123000D03*
X151860000Y-101383000D03*
X138250000Y-95250000D03*
X138250000Y-92710000D03*
X119200000Y-68580000D03*
X162380000Y-88900000D03*
X114120000Y-73660000D03*
X159840000Y-101600000D03*
X119200000Y-111760000D03*
X162380000Y-101600000D03*
X159840000Y-81280000D03*
X144600000Y-83820000D03*
X154760000Y-71120000D03*
X162380000Y-111760000D03*
X135710000Y-92710000D03*
X139520000Y-93980000D03*
X152220000Y-71120000D03*
X147140000Y-71120000D03*
X162380000Y-78740000D03*
X116660000Y-86360000D03*
X157300000Y-116840000D03*
X139520000Y-68580000D03*
X162380000Y-73660000D03*
X119200000Y-86360000D03*
X142060000Y-68580000D03*
X131900000Y-81280000D03*
X136980000Y-92710000D03*
X159840000Y-78740000D03*
X147140000Y-116840000D03*
X136980000Y-96520000D03*
X114120000Y-86360000D03*
X162380000Y-106680000D03*
X134440000Y-96520000D03*
X124280000Y-116840000D03*
X134440000Y-81280000D03*
X119200000Y-116840000D03*
X147140000Y-68580000D03*
X124280000Y-68580000D03*
X119200000Y-83820000D03*
X154760000Y-116840000D03*
X134440000Y-114300000D03*
X162380000Y-86360000D03*
X114120000Y-104140000D03*
X154760000Y-68580000D03*
X149680000Y-71120000D03*
X139520000Y-76200000D03*
X162380000Y-76200000D03*
X162380000Y-81280000D03*
X138250000Y-96520000D03*
X134440000Y-95250000D03*
X121740000Y-116840000D03*
X142060000Y-73660000D03*
X162380000Y-109220000D03*
X149680000Y-68580000D03*
X139520000Y-81280000D03*
X162380000Y-83820000D03*
X159840000Y-91440000D03*
X157300000Y-106680000D03*
X121740000Y-68580000D03*
X154760000Y-96520000D03*
X135710000Y-96520000D03*
X139520000Y-96520000D03*
X144600000Y-116840000D03*
X121740000Y-73660000D03*
X121360000Y-83820000D03*
X159840000Y-106680000D03*
X114120000Y-111760000D03*
X144600000Y-68580000D03*
X139520000Y-73660000D03*
X139520000Y-95250000D03*
X126820000Y-68580000D03*
X144600000Y-81280000D03*
X159840000Y-83820000D03*
X136980000Y-95250000D03*
X152220000Y-68580000D03*
X134440000Y-92710000D03*
X135710000Y-93980000D03*
X119200000Y-73660000D03*
X142060000Y-76200000D03*
X139520000Y-92710000D03*
X142060000Y-81280000D03*
X159840000Y-86360000D03*
X157300000Y-88900000D03*
X154760000Y-106680000D03*
X154760000Y-91440000D03*
X157300000Y-91440000D03*
X138250000Y-93980000D03*
X152220000Y-116840000D03*
X134440000Y-93980000D03*
X134440000Y-68580000D03*
X129360000Y-68580000D03*
X135710000Y-95250000D03*
X126820000Y-116840000D03*
X157300000Y-68580000D03*
X131900000Y-73660000D03*
X149680000Y-116840000D03*
X157300000Y-71120000D03*
X154760000Y-104140000D03*
X116152000Y-78460600D03*
X136980000Y-93980000D03*
D35*
X150960000Y-91660000D02*
X149160000Y-93460000D01*
X149160000Y-93460000D02*
X149160000Y-95860000D01*
X149160000Y-93460000D02*
X144860000Y-97760000D01*
D36*
X143495000Y-97095000D02*
X144160000Y-97760000D01*
X144160000Y-97760000D02*
X144860000Y-97760000D01*
X142562600Y-97095000D02*
X143495000Y-97095000D01*
X130860000Y-98447600D02*
X131212600Y-98095000D01*
X130860000Y-99560000D02*
X130860000Y-98447600D01*
X126560000Y-114548000D02*
X126560000Y-106101601D01*
X128852000Y-116840000D02*
X126560000Y-114548000D01*
X126560000Y-106101601D02*
X125609200Y-105150801D01*
X140485200Y-116840000D02*
X128852000Y-116840000D01*
X143025200Y-114300000D02*
X140485200Y-116840000D01*
X127660000Y-94860000D02*
X128895000Y-96095000D01*
X128895000Y-96095000D02*
X131212600Y-96095000D01*
X127024800Y-97095000D02*
X131212600Y-97095000D01*
X125660000Y-98459800D02*
X125660000Y-102727998D01*
X126660000Y-97459800D02*
X127024800Y-97095000D01*
X126660000Y-97459800D02*
X125660000Y-98459800D01*
X127060000Y-95210600D02*
X127060000Y-96060000D01*
X123934700Y-92085300D02*
X127060000Y-95210600D01*
X125325000Y-91095000D02*
X131212600Y-91095000D01*
X125060000Y-91360000D02*
X125325000Y-91095000D01*
X126093000Y-96595000D02*
X125660000Y-97028000D01*
X131212600Y-96595000D02*
X126093000Y-96595000D01*
X125609200Y-111110800D02*
X125609200Y-110850799D01*
X121088000Y-111760000D02*
X124960000Y-111760000D01*
X124960000Y-111760000D02*
X125609200Y-111110800D01*
X120622400Y-111294400D02*
X121088000Y-111760000D01*
X120622400Y-96397600D02*
X120622400Y-111294400D01*
X123960000Y-93060000D02*
X120622400Y-96397600D01*
X125609200Y-114105200D02*
X125609200Y-110850799D01*
X128699600Y-117195600D02*
X125609200Y-114105200D01*
X141145600Y-117195600D02*
X128699600Y-117195600D01*
X143584000Y-114757200D02*
X141145600Y-117195600D01*
D35*
X136560000Y-103560000D02*
X137660000Y-103560000D01*
X137660000Y-103560000D02*
X139160000Y-102060000D01*
X135710000Y-104410000D02*
X136560000Y-103560000D01*
X135710000Y-109708000D02*
X135710000Y-104410000D01*
X132642000Y-112776000D02*
X135710000Y-109708000D01*
D36*
X136637600Y-87637600D02*
X136637600Y-88670000D01*
X127160000Y-85760000D02*
X134760000Y-85760000D01*
X118539600Y-94380400D02*
X127160000Y-85760000D01*
X118539600Y-96972001D02*
X118539600Y-94380400D01*
X134760000Y-85760000D02*
X136637600Y-87637600D01*
X136137600Y-87637600D02*
X136137600Y-88670000D01*
X134660000Y-86160000D02*
X136137600Y-87637600D01*
X119327000Y-94393000D02*
X127560000Y-86160000D01*
X127560000Y-86160000D02*
X134660000Y-86160000D01*
X135637600Y-87737600D02*
X135637600Y-88670000D01*
X119835000Y-94585000D02*
X127860000Y-86560000D01*
X119835000Y-104013000D02*
X119835000Y-94585000D01*
X127860000Y-86560000D02*
X134460000Y-86560000D01*
X118742800Y-105105200D02*
X119835000Y-104013000D01*
X134460000Y-86560000D02*
X135637600Y-87737600D01*
X118539600Y-105105200D02*
X118742800Y-105105200D01*
X135137600Y-87837600D02*
X135137600Y-88670000D01*
X134260000Y-86960000D02*
X135137600Y-87837600D01*
X128294000Y-86960000D02*
X134260000Y-86960000D01*
X121994000Y-93260000D02*
X128294000Y-86960000D01*
X132660000Y-87360000D02*
X132360000Y-87660000D01*
X132360000Y-87660000D02*
X132360000Y-88060000D01*
X133760000Y-87360000D02*
X132660000Y-87360000D01*
X134137600Y-87737600D02*
X133760000Y-87360000D01*
X134137600Y-88670000D02*
X134137600Y-87737600D01*
X130495000Y-90595000D02*
X131212600Y-90595000D01*
X129560000Y-89660000D02*
X130495000Y-90595000D01*
X138137600Y-87682400D02*
X138137600Y-88670000D01*
X152460000Y-105678000D02*
X152460000Y-91360000D01*
X152460000Y-91360000D02*
X147860000Y-86760000D01*
X139060000Y-86760000D02*
X138137600Y-87682400D01*
X147902000Y-110236000D02*
X152460000Y-105678000D01*
X147860000Y-86760000D02*
X139060000Y-86760000D01*
X152960000Y-107718000D02*
X150442000Y-110236000D01*
X152960000Y-91060000D02*
X152960000Y-107718000D01*
X149260000Y-87360000D02*
X152960000Y-91060000D01*
X130750000Y-88670000D02*
X130660000Y-88760000D01*
X133137600Y-88670000D02*
X130750000Y-88670000D01*
X144360000Y-106460000D02*
X138660000Y-106460000D01*
D35*
X140560000Y-102060000D02*
X139160000Y-102060000D01*
X141960000Y-103460000D02*
X140560000Y-102060000D01*
X144460000Y-103460000D02*
X141960000Y-103460000D01*
X145360000Y-104360000D02*
X144460000Y-103460000D01*
D36*
X134860000Y-105478000D02*
X132642000Y-107696000D01*
X136137600Y-100982400D02*
X134860000Y-102260000D01*
X134860000Y-102260000D02*
X134860000Y-105478000D01*
X136137600Y-100020000D02*
X136137600Y-100982400D01*
X142160000Y-99160000D02*
X142360000Y-98960000D01*
X142160000Y-101360000D02*
X142160000Y-99160000D01*
X140637600Y-100637600D02*
X140637600Y-100020000D01*
X151283000Y-101960000D02*
X141960000Y-101960000D01*
X141960000Y-101960000D02*
X140637600Y-100637600D01*
X151860000Y-101383000D02*
X151283000Y-101960000D01*
X142860000Y-100660000D02*
X142860000Y-99460000D01*
X139160000Y-102015200D02*
X139137600Y-102037600D01*
X139137600Y-100020000D02*
X139160000Y-100042400D01*
X139160000Y-100042400D02*
X139160000Y-102015200D01*
X131212600Y-98095000D02*
X133137600Y-100020000D01*
X150210000Y-100710000D02*
X147410000Y-100710000D01*
X143633000Y-92595000D02*
X144060000Y-93022000D01*
X142562600Y-92595000D02*
X143633000Y-92595000D01*
X143895000Y-92095000D02*
X142562600Y-92095000D01*
X144060000Y-92260000D02*
X143895000Y-92095000D01*
X143339000Y-95095000D02*
X144060000Y-94374000D01*
X142562600Y-95095000D02*
X143339000Y-95095000D01*
X143601000Y-95595000D02*
X144060000Y-95136000D01*
X142562600Y-95595000D02*
X143601000Y-95595000D01*
X143863000Y-96095000D02*
X144060000Y-95898000D01*
X142562600Y-96095000D02*
X143863000Y-96095000D01*
X143995000Y-96595000D02*
X142562600Y-96595000D01*
X144060000Y-96660000D02*
X143995000Y-96595000D01*
D35*
X153152000Y-78060000D02*
X156151000Y-81059000D01*
X141960000Y-79160000D02*
X143060000Y-78060000D01*
X123310000Y-81560000D02*
X125710000Y-79160000D01*
X125710000Y-79160000D02*
X141960000Y-79160000D01*
X143060000Y-78060000D02*
X153152000Y-78060000D01*
X150086000Y-76860000D02*
X147902000Y-74676000D01*
X155060000Y-76860000D02*
X150086000Y-76860000D01*
X158106800Y-79906800D02*
X155060000Y-76860000D01*
X158106800Y-83693200D02*
X158106800Y-79906800D01*
X156160000Y-85640000D02*
X158106800Y-83693200D01*
D36*
X137137600Y-87682400D02*
X137137600Y-88670000D01*
X138860000Y-85960000D02*
X137137600Y-87682400D01*
X143742000Y-85960000D02*
X138860000Y-85960000D01*
X150442000Y-79260000D02*
X143742000Y-85960000D01*
X137637600Y-87682400D02*
X137637600Y-88670000D01*
X145882000Y-86360000D02*
X138960000Y-86360000D01*
X138960000Y-86360000D02*
X137637600Y-87682400D01*
X152982000Y-79260000D02*
X145882000Y-86360000D01*
D37*
X162253000Y-98039000D02*
X160724000Y-99568000D01*
X162253000Y-91733000D02*
X162253000Y-98039000D01*
X156160000Y-85640000D02*
X162253000Y-91733000D01*
D36*
X138960000Y-87360000D02*
X138637600Y-87682400D01*
X146260000Y-87360000D02*
X138960000Y-87360000D01*
X138637600Y-87682400D02*
X138637600Y-88670000D01*
X143912800Y-91595000D02*
X144550800Y-90957000D01*
X142562600Y-91595000D02*
X143912800Y-91595000D01*
X142830000Y-90595000D02*
X144550800Y-88874200D01*
X142562600Y-90595000D02*
X142830000Y-90595000D01*
X144453800Y-90860000D02*
X144550800Y-90957000D01*
D35*
X117292000Y-81560000D02*
X123310000Y-81560000D01*
X116152000Y-82700000D02*
X117292000Y-81560000D01*
X116513500Y-82338500D02*
X116152000Y-82700000D01*
X116513500Y-81560000D02*
X116513500Y-82338500D01*
X123310000Y-84960000D02*
X123310000Y-81560000D01*
D36*
X120216000Y-109128798D02*
X118539600Y-110805198D01*
X120216000Y-95038000D02*
X120216000Y-109128798D01*
X121994000Y-93260000D02*
X120216000Y-95038000D01*
X119327000Y-101884599D02*
X118539600Y-102671999D01*
X119327000Y-94393000D02*
X119327000Y-101884599D01*
X129561600Y-95595000D02*
X131212600Y-95595000D01*
X128826600Y-94860000D02*
X129561600Y-95595000D01*
X129895000Y-95095000D02*
X131212600Y-95095000D01*
X129641500Y-94841500D02*
X129895000Y-95095000D01*
D35*
X140790000Y-72722000D02*
X140790000Y-77400000D01*
X130446000Y-74676000D02*
X133170000Y-77400000D01*
X125042000Y-74676000D02*
X130446000Y-74676000D01*
X122776000Y-72410000D02*
X125042000Y-74676000D01*
X122776000Y-70341000D02*
X122776000Y-72410000D01*
X130102000Y-112776000D02*
X132642000Y-112776000D01*
X145362000Y-110236000D02*
X145362000Y-113056500D01*
X145362000Y-113056500D02*
X148054400Y-115748900D01*
X136810000Y-81560000D02*
X136810000Y-84960000D01*
X136872000Y-81720000D02*
X136872000Y-82120000D01*
X130102000Y-102616000D02*
X132642000Y-102616000D01*
X130102000Y-105156000D02*
X132642000Y-105156000D01*
D37*
X149818400Y-113436400D02*
X148257600Y-113436400D01*
X154418400Y-113436400D02*
X149818400Y-113436400D01*
X148257600Y-113436400D02*
X148054400Y-113639600D01*
X154418400Y-113436400D02*
X153388400Y-114466400D01*
X153388400Y-114681000D02*
X153388400Y-114686400D01*
D35*
X130102000Y-107696000D02*
X132642000Y-107696000D01*
D37*
X153388400Y-114466400D02*
X153388400Y-114681000D01*
X148054400Y-113639600D02*
X148241900Y-113436400D01*
D35*
X130102000Y-115316000D02*
X132642000Y-115316000D01*
X130102000Y-110236000D02*
X132642000Y-110236000D01*
X137488000Y-105156000D02*
X140028000Y-105156000D01*
D36*
X144060000Y-95898000D02*
X144047000Y-95885000D01*
D35*
X137488000Y-107696000D02*
X140028000Y-107696000D01*
X140028000Y-110236000D02*
X137488000Y-110236000D01*
X140028000Y-112776000D02*
X137488000Y-112776000D01*
X114602600Y-102544999D02*
X114602600Y-100838000D01*
X114729600Y-102671999D02*
X114602600Y-102544999D01*
X115999600Y-96972001D02*
X115999600Y-97917000D01*
X115110600Y-98806000D02*
X114577200Y-98806000D01*
X115999600Y-97917000D02*
X115110600Y-98806000D01*
X114577200Y-98806000D02*
X114602600Y-98806000D01*
X114602600Y-108966000D02*
X114602600Y-108971199D01*
X114602600Y-110678198D02*
X114602600Y-108966000D01*
X114729600Y-110805198D02*
X114602600Y-110678198D01*
X114653400Y-106959400D02*
X114633199Y-106939199D01*
X115999600Y-105923199D02*
X114983600Y-106939199D01*
X114673601Y-106939199D02*
X114653400Y-106959400D01*
X114983600Y-106939199D02*
X114673601Y-106939199D01*
X114633199Y-106939199D02*
X114602600Y-106939199D01*
X115999600Y-105105200D02*
X115999600Y-105923199D01*
X121723000Y-100914200D02*
X121723000Y-100893999D01*
X121723000Y-102600998D02*
X121723000Y-100914200D01*
X121850000Y-102727998D02*
X121723000Y-102600998D01*
X123120000Y-97972999D02*
X122231000Y-98861999D01*
X123120000Y-97028000D02*
X123120000Y-97972999D01*
X121743201Y-98861999D02*
X121697600Y-98882200D01*
X122231000Y-98861999D02*
X121743201Y-98861999D01*
X121702799Y-98861999D02*
X121723000Y-98861999D01*
X121697600Y-98882200D02*
X121702799Y-98861999D01*
X121799200Y-110850799D02*
X121672200Y-110723799D01*
X121672200Y-110723799D02*
X121672200Y-109016800D01*
X123069200Y-105150801D02*
X123069200Y-105841800D01*
X123069200Y-105841800D02*
X121926200Y-106984800D01*
X117269600Y-96824800D02*
X117269600Y-102666800D01*
X117269600Y-96972001D02*
X117269600Y-96824800D01*
X115999600Y-102671999D02*
X117269600Y-102671999D01*
X124390000Y-96875600D02*
X124390000Y-102727998D01*
X117269600Y-105105200D02*
X117269600Y-110805198D01*
X124339200Y-105150801D02*
X124339200Y-104902000D01*
X123120000Y-102727998D02*
X124390000Y-102727998D01*
X115999600Y-110805198D02*
X117269600Y-110805198D01*
X117269600Y-102666800D02*
X117269600Y-102671999D01*
X124390000Y-97028000D02*
X124390000Y-96875600D01*
X124339200Y-104902000D02*
X124339200Y-110850799D01*
X124339200Y-110850799D02*
X123069200Y-110850799D01*
D37*
X157808000Y-95123000D02*
X158779000Y-95123000D01*
X158779000Y-95123000D02*
X160724000Y-97068000D01*
D35*
X140028000Y-115316000D02*
X137488000Y-115316000D01*
G04 #@! TA.AperFunction,Conductor*
G36*
X120315345Y-109505549D02*
G01*
X120344379Y-109547013D01*
X120346900Y-109566166D01*
X120346900Y-111259979D01*
X120345478Y-111274415D01*
X120342064Y-111291582D01*
X120341503Y-111294400D01*
X120346900Y-111321532D01*
X120346900Y-111321533D01*
X120362885Y-111401895D01*
X120371128Y-111414231D01*
X120405042Y-111464988D01*
X120418080Y-111484500D01*
X120423775Y-111493023D01*
X120423778Y-111493026D01*
X120440714Y-111504342D01*
X120451929Y-111513545D01*
X120868854Y-111930470D01*
X120878056Y-111941683D01*
X120889375Y-111958623D01*
X120889376Y-111958624D01*
X120909355Y-111971974D01*
X120909356Y-111971974D01*
X120912376Y-111973992D01*
X120912378Y-111973994D01*
X120938534Y-111991471D01*
X120980505Y-112019515D01*
X121060867Y-112035500D01*
X121060868Y-112035500D01*
X121087999Y-112040897D01*
X121088000Y-112040897D01*
X121107983Y-112036921D01*
X121122420Y-112035500D01*
X124925580Y-112035500D01*
X124940016Y-112036921D01*
X124960000Y-112040897D01*
X124960001Y-112040897D01*
X124964622Y-112039977D01*
X124987132Y-112035500D01*
X124987133Y-112035500D01*
X125067495Y-112019515D01*
X125109465Y-111991471D01*
X125135622Y-111973994D01*
X125135622Y-111973993D01*
X125143636Y-111968639D01*
X125143639Y-111968636D01*
X125158624Y-111958624D01*
X125169948Y-111941674D01*
X125179145Y-111930470D01*
X125207375Y-111902239D01*
X125253252Y-111880848D01*
X125302146Y-111893951D01*
X125331179Y-111935416D01*
X125333700Y-111954567D01*
X125333700Y-114070779D01*
X125332278Y-114085215D01*
X125328303Y-114105200D01*
X125333700Y-114132332D01*
X125333700Y-114132333D01*
X125338920Y-114158574D01*
X125349685Y-114212695D01*
X125376962Y-114253518D01*
X125395124Y-114280700D01*
X125410577Y-114303825D01*
X125410578Y-114303826D01*
X125427514Y-114315142D01*
X125438729Y-114324345D01*
X128447558Y-117333174D01*
X128468950Y-117379050D01*
X128455849Y-117427945D01*
X128414385Y-117456979D01*
X128395232Y-117459500D01*
X117534028Y-117459500D01*
X117486462Y-117442187D01*
X117461152Y-117398350D01*
X117469942Y-117348500D01*
X117500816Y-117319371D01*
X117712793Y-117212913D01*
X118004811Y-117020849D01*
X118272558Y-116796183D01*
X118512412Y-116541953D01*
X118721130Y-116261596D01*
X118895889Y-115958904D01*
X119034326Y-115637971D01*
X119034327Y-115637967D01*
X119034328Y-115637966D01*
X119134567Y-115303143D01*
X119134567Y-115303142D01*
X119134569Y-115303136D01*
X119195262Y-114958927D01*
X119215585Y-114610000D01*
X119195262Y-114261073D01*
X119134569Y-113916864D01*
X119134567Y-113916856D01*
X119034328Y-113582033D01*
X119034326Y-113582030D01*
X119034326Y-113582029D01*
X118895889Y-113261096D01*
X118721130Y-112958404D01*
X118512412Y-112678047D01*
X118272558Y-112423817D01*
X118272551Y-112423811D01*
X118272548Y-112423808D01*
X118004811Y-112199151D01*
X117990212Y-112189549D01*
X117712793Y-112007087D01*
X117555202Y-111927942D01*
X117400444Y-111850219D01*
X117072016Y-111730682D01*
X117072004Y-111730678D01*
X116949745Y-111701703D01*
X116907453Y-111673888D01*
X116892935Y-111625395D01*
X116912984Y-111578916D01*
X116958219Y-111556198D01*
X116966810Y-111555698D01*
X117669346Y-111555698D01*
X117669348Y-111555698D01*
X117727831Y-111544065D01*
X117794152Y-111499750D01*
X117833005Y-111441604D01*
X117842517Y-111427369D01*
X117845131Y-111429116D01*
X117870411Y-111401512D01*
X117920595Y-111394890D01*
X117963295Y-111422075D01*
X117966443Y-111427528D01*
X117966683Y-111427369D01*
X117976195Y-111441604D01*
X118015048Y-111499750D01*
X118052636Y-111524866D01*
X118081367Y-111544064D01*
X118081368Y-111544064D01*
X118081369Y-111544065D01*
X118139852Y-111555698D01*
X118139854Y-111555698D01*
X118939346Y-111555698D01*
X118939348Y-111555698D01*
X118997831Y-111544065D01*
X119064152Y-111499750D01*
X119108467Y-111433429D01*
X119120100Y-111374946D01*
X119120100Y-110644966D01*
X119137413Y-110597400D01*
X119141774Y-110592640D01*
X120220574Y-109513840D01*
X120266450Y-109492448D01*
X120315345Y-109505549D01*
G37*
G04 #@! TD.AperFunction*
G04 #@! TA.AperFunction,Conductor*
G36*
X159233538Y-67477813D02*
G01*
X159258848Y-67521650D01*
X159250058Y-67571500D01*
X159219183Y-67600628D01*
X159012997Y-67704178D01*
X159007203Y-67707089D01*
X158715188Y-67899151D01*
X158447451Y-68123808D01*
X158447443Y-68123816D01*
X158207587Y-68378047D01*
X157998872Y-68658400D01*
X157998871Y-68658401D01*
X157824109Y-68961099D01*
X157824109Y-68961100D01*
X157685673Y-69282030D01*
X157685671Y-69282033D01*
X157585432Y-69616856D01*
X157524737Y-69961074D01*
X157504415Y-70310000D01*
X157524737Y-70658925D01*
X157585432Y-71003143D01*
X157685671Y-71337966D01*
X157685673Y-71337969D01*
X157824109Y-71658899D01*
X157824109Y-71658900D01*
X157998871Y-71961598D01*
X157998872Y-71961599D01*
X158125222Y-72131317D01*
X158207588Y-72241953D01*
X158447442Y-72496183D01*
X158447448Y-72496188D01*
X158447451Y-72496191D01*
X158644452Y-72661493D01*
X158715189Y-72720849D01*
X159007207Y-72912913D01*
X159319549Y-73069777D01*
X159319555Y-73069780D01*
X159647983Y-73189317D01*
X159647995Y-73189321D01*
X159988077Y-73269921D01*
X159988080Y-73269921D01*
X159988086Y-73269923D01*
X160207213Y-73295535D01*
X160252447Y-73318253D01*
X160272496Y-73364732D01*
X160257978Y-73413225D01*
X160229362Y-73436347D01*
X160049247Y-73518604D01*
X160049245Y-73518605D01*
X159878047Y-73640514D01*
X159733014Y-73792620D01*
X159619385Y-73969431D01*
X159541274Y-74164544D01*
X159501500Y-74370916D01*
X159501500Y-74928424D01*
X159516472Y-75085220D01*
X159575683Y-75286873D01*
X159575685Y-75286877D01*
X159671986Y-75473678D01*
X159671988Y-75473681D01*
X159671989Y-75473682D01*
X159801908Y-75638886D01*
X159960740Y-75776516D01*
X159960741Y-75776516D01*
X159960744Y-75776519D01*
X160142756Y-75881604D01*
X160341367Y-75950344D01*
X160549398Y-75980254D01*
X160759330Y-75970254D01*
X160963576Y-75920704D01*
X161154753Y-75833396D01*
X161325952Y-75711486D01*
X161470986Y-75559378D01*
X161584613Y-75382572D01*
X161662725Y-75187457D01*
X161702500Y-74981085D01*
X161702500Y-74423575D01*
X161687528Y-74266782D01*
X161628316Y-74065125D01*
X161532011Y-73878318D01*
X161402092Y-73713114D01*
X161318308Y-73640514D01*
X161243259Y-73575483D01*
X161243256Y-73575481D01*
X161061244Y-73470396D01*
X161061240Y-73470394D01*
X161061239Y-73470394D01*
X160926692Y-73423827D01*
X160887404Y-73391909D01*
X160877825Y-73342205D01*
X160902435Y-73297971D01*
X160942304Y-73280397D01*
X161031914Y-73269923D01*
X161111391Y-73251086D01*
X161372004Y-73189321D01*
X161372007Y-73189319D01*
X161372011Y-73189319D01*
X161551029Y-73124162D01*
X161700444Y-73069780D01*
X161700447Y-73069778D01*
X161700451Y-73069777D01*
X162012793Y-72912913D01*
X162304811Y-72720849D01*
X162572558Y-72496183D01*
X162812412Y-72241953D01*
X163021130Y-71961596D01*
X163195889Y-71658904D01*
X163217552Y-71608682D01*
X163252289Y-71571864D01*
X163302566Y-71565988D01*
X163344857Y-71593803D01*
X163359500Y-71637993D01*
X163359500Y-113282006D01*
X163342187Y-113329572D01*
X163298350Y-113354882D01*
X163248500Y-113346092D01*
X163217552Y-113311316D01*
X163212799Y-113300298D01*
X163195889Y-113261096D01*
X163021130Y-112958404D01*
X162812412Y-112678047D01*
X162572558Y-112423817D01*
X162572551Y-112423811D01*
X162572548Y-112423808D01*
X162304811Y-112199151D01*
X162290212Y-112189549D01*
X162012793Y-112007087D01*
X161855202Y-111927942D01*
X161700444Y-111850219D01*
X161372016Y-111730682D01*
X161372004Y-111730678D01*
X161031922Y-111650078D01*
X161031912Y-111650076D01*
X160925123Y-111637594D01*
X160879888Y-111614875D01*
X160859839Y-111568396D01*
X160874357Y-111519904D01*
X160916267Y-111492181D01*
X160963576Y-111480704D01*
X161154753Y-111393396D01*
X161325952Y-111271486D01*
X161470986Y-111119378D01*
X161584613Y-110942572D01*
X161662725Y-110747457D01*
X161702500Y-110541085D01*
X161702500Y-109983575D01*
X161687528Y-109826782D01*
X161628316Y-109625125D01*
X161559917Y-109492448D01*
X161532013Y-109438321D01*
X161529209Y-109434756D01*
X161402092Y-109273114D01*
X161387844Y-109260768D01*
X161243259Y-109135483D01*
X161243256Y-109135481D01*
X161061244Y-109030396D01*
X161061240Y-109030394D01*
X161061239Y-109030394D01*
X160862636Y-108961657D01*
X160862633Y-108961656D01*
X160654602Y-108931746D01*
X160654598Y-108931746D01*
X160654596Y-108931746D01*
X160444668Y-108941746D01*
X160240427Y-108991295D01*
X160240425Y-108991295D01*
X160240424Y-108991296D01*
X160094869Y-109057769D01*
X160049245Y-109078605D01*
X159878047Y-109200514D01*
X159733014Y-109352620D01*
X159619385Y-109529431D01*
X159541274Y-109724544D01*
X159501500Y-109930916D01*
X159501500Y-110488424D01*
X159516472Y-110645220D01*
X159575683Y-110846873D01*
X159575685Y-110846877D01*
X159671986Y-111033678D01*
X159671988Y-111033681D01*
X159671989Y-111033682D01*
X159760417Y-111146126D01*
X159801908Y-111198886D01*
X159960740Y-111336516D01*
X159960741Y-111336516D01*
X159960744Y-111336519D01*
X160142756Y-111441604D01*
X160210320Y-111464988D01*
X160248135Y-111478076D01*
X160287423Y-111509994D01*
X160297002Y-111559698D01*
X160272392Y-111603932D01*
X160232523Y-111621506D01*
X159988087Y-111650076D01*
X159988077Y-111650078D01*
X159647995Y-111730678D01*
X159647983Y-111730682D01*
X159319555Y-111850219D01*
X159007203Y-112007089D01*
X158715188Y-112199151D01*
X158447451Y-112423808D01*
X158447443Y-112423816D01*
X158207587Y-112678047D01*
X157998872Y-112958400D01*
X157998871Y-112958401D01*
X157824109Y-113261099D01*
X157824109Y-113261100D01*
X157685673Y-113582030D01*
X157685671Y-113582033D01*
X157585432Y-113916856D01*
X157524737Y-114261074D01*
X157504415Y-114610000D01*
X157524737Y-114958925D01*
X157585432Y-115303143D01*
X157685671Y-115637966D01*
X157685673Y-115637969D01*
X157685674Y-115637971D01*
X157824111Y-115958904D01*
X157902517Y-116094708D01*
X157998871Y-116261598D01*
X157998872Y-116261599D01*
X158080751Y-116371582D01*
X158207588Y-116541953D01*
X158447442Y-116796183D01*
X158447448Y-116796188D01*
X158447451Y-116796191D01*
X158574488Y-116902787D01*
X158715189Y-117020849D01*
X159007207Y-117212913D01*
X159219183Y-117319371D01*
X159253920Y-117356190D01*
X159256863Y-117406724D01*
X159226636Y-117447326D01*
X159185972Y-117459500D01*
X141449967Y-117459500D01*
X141402401Y-117442187D01*
X141377091Y-117398350D01*
X141385881Y-117348500D01*
X141397641Y-117333174D01*
X143501442Y-115229374D01*
X143547318Y-115207982D01*
X143553768Y-115207700D01*
X143648772Y-115207700D01*
X143773069Y-115171204D01*
X143882049Y-115101167D01*
X143966882Y-115003263D01*
X144020697Y-114885426D01*
X144039133Y-114757200D01*
X144020697Y-114628974D01*
X143966882Y-114511137D01*
X143882049Y-114413233D01*
X143794986Y-114357281D01*
X143773068Y-114343195D01*
X143648772Y-114306700D01*
X143545418Y-114306700D01*
X143497852Y-114289387D01*
X143472542Y-114245550D01*
X143472171Y-114243231D01*
X143469543Y-114224954D01*
X143461897Y-114171774D01*
X143408082Y-114053937D01*
X143323249Y-113956033D01*
X143242615Y-113904213D01*
X143214268Y-113885995D01*
X143089972Y-113849500D01*
X142960428Y-113849500D01*
X142836131Y-113885995D01*
X142727154Y-113956031D01*
X142727150Y-113956034D01*
X142642319Y-114053935D01*
X142642318Y-114053936D01*
X142642318Y-114053937D01*
X142631298Y-114078067D01*
X142588502Y-114171776D01*
X142570067Y-114299999D01*
X142573031Y-114320615D01*
X142562663Y-114370161D01*
X142552110Y-114383472D01*
X140392758Y-116542826D01*
X140346882Y-116564218D01*
X140340432Y-116564500D01*
X128996768Y-116564500D01*
X128949202Y-116547187D01*
X128944442Y-116542826D01*
X127717616Y-115316000D01*
X129046417Y-115316000D01*
X129066700Y-115521934D01*
X129122624Y-115706294D01*
X129126769Y-115719956D01*
X129224315Y-115902450D01*
X129339153Y-116042382D01*
X129355590Y-116062410D01*
X129515550Y-116193685D01*
X129698046Y-116291232D01*
X129896066Y-116351300D01*
X130102000Y-116371583D01*
X130307934Y-116351300D01*
X130505954Y-116291232D01*
X130688450Y-116193685D01*
X130848410Y-116062410D01*
X130863884Y-116043555D01*
X130907443Y-116017769D01*
X130921087Y-116016500D01*
X131822913Y-116016500D01*
X131870479Y-116033813D01*
X131880116Y-116043555D01*
X131895590Y-116062410D01*
X132055550Y-116193685D01*
X132238046Y-116291232D01*
X132436066Y-116351300D01*
X132642000Y-116371583D01*
X132847934Y-116351300D01*
X133045954Y-116291232D01*
X133228450Y-116193685D01*
X133388410Y-116062410D01*
X133519685Y-115902450D01*
X133617232Y-115719954D01*
X133677300Y-115521934D01*
X133697583Y-115316000D01*
X133677300Y-115110066D01*
X133617232Y-114912046D01*
X133519685Y-114729550D01*
X133388410Y-114569590D01*
X133346812Y-114535452D01*
X133228450Y-114438315D01*
X133045956Y-114340769D01*
X133045955Y-114340768D01*
X133045954Y-114340768D01*
X132924165Y-114303824D01*
X132847935Y-114280700D01*
X132642000Y-114260417D01*
X132436064Y-114280700D01*
X132238043Y-114340769D01*
X132055549Y-114438315D01*
X131895590Y-114569589D01*
X131895589Y-114569590D01*
X131880116Y-114588445D01*
X131836557Y-114614231D01*
X131822913Y-114615500D01*
X130921087Y-114615500D01*
X130873521Y-114598187D01*
X130863884Y-114588445D01*
X130848410Y-114569590D01*
X130848409Y-114569589D01*
X130688450Y-114438315D01*
X130505956Y-114340769D01*
X130505955Y-114340768D01*
X130505954Y-114340768D01*
X130384165Y-114303824D01*
X130307935Y-114280700D01*
X130102000Y-114260417D01*
X129896064Y-114280700D01*
X129698043Y-114340769D01*
X129515549Y-114438315D01*
X129355590Y-114569589D01*
X129355589Y-114569590D01*
X129224315Y-114729549D01*
X129126769Y-114912043D01*
X129126768Y-114912045D01*
X129126768Y-114912046D01*
X129122789Y-114925162D01*
X129066700Y-115110064D01*
X129064681Y-115130565D01*
X129046417Y-115316000D01*
X127717616Y-115316000D01*
X126857174Y-114455558D01*
X126835782Y-114409682D01*
X126835500Y-114403232D01*
X126835500Y-106136021D01*
X126836922Y-106121584D01*
X126840897Y-106101600D01*
X126830977Y-106051732D01*
X126827387Y-106033684D01*
X126819515Y-105994106D01*
X126800605Y-105965805D01*
X126773994Y-105925979D01*
X126773992Y-105925977D01*
X126758624Y-105902977D01*
X126757775Y-105902410D01*
X126741683Y-105891657D01*
X126730470Y-105882455D01*
X126211374Y-105363359D01*
X126189982Y-105317483D01*
X126189700Y-105311033D01*
X126189700Y-105156000D01*
X129046417Y-105156000D01*
X129066700Y-105361935D01*
X129126769Y-105559956D01*
X129224315Y-105742450D01*
X129335240Y-105877614D01*
X129355590Y-105902410D01*
X129515550Y-106033685D01*
X129698046Y-106131232D01*
X129896066Y-106191300D01*
X130102000Y-106211583D01*
X130307934Y-106191300D01*
X130505954Y-106131232D01*
X130688450Y-106033685D01*
X130848410Y-105902410D01*
X130863884Y-105883555D01*
X130907443Y-105857769D01*
X130921087Y-105856500D01*
X131822913Y-105856500D01*
X131870479Y-105873813D01*
X131880116Y-105883555D01*
X131895590Y-105902410D01*
X132055550Y-106033685D01*
X132238046Y-106131232D01*
X132436066Y-106191300D01*
X132642000Y-106211583D01*
X132847934Y-106191300D01*
X133045954Y-106131232D01*
X133228450Y-106033685D01*
X133388410Y-105902410D01*
X133519685Y-105742450D01*
X133617232Y-105559954D01*
X133677300Y-105361934D01*
X133697583Y-105156000D01*
X133677300Y-104950066D01*
X133617232Y-104752046D01*
X133519685Y-104569550D01*
X133388410Y-104409590D01*
X133379222Y-104402050D01*
X133228450Y-104278315D01*
X133045956Y-104180769D01*
X133045955Y-104180768D01*
X133045954Y-104180768D01*
X132903492Y-104137553D01*
X132847935Y-104120700D01*
X132642000Y-104100417D01*
X132436064Y-104120700D01*
X132292146Y-104164357D01*
X132247788Y-104177813D01*
X132238043Y-104180769D01*
X132055549Y-104278315D01*
X131895590Y-104409589D01*
X131895589Y-104409590D01*
X131880116Y-104428445D01*
X131836557Y-104454231D01*
X131822913Y-104455500D01*
X130921087Y-104455500D01*
X130873521Y-104438187D01*
X130863884Y-104428445D01*
X130848410Y-104409590D01*
X130848409Y-104409589D01*
X130688450Y-104278315D01*
X130505956Y-104180769D01*
X130505955Y-104180768D01*
X130505954Y-104180768D01*
X130363492Y-104137553D01*
X130307935Y-104120700D01*
X130102000Y-104100417D01*
X129896064Y-104120700D01*
X129752146Y-104164357D01*
X129707788Y-104177813D01*
X129698043Y-104180769D01*
X129515549Y-104278315D01*
X129355590Y-104409589D01*
X129355589Y-104409590D01*
X129224315Y-104569549D01*
X129126769Y-104752043D01*
X129066700Y-104950064D01*
X129046417Y-105156000D01*
X126189700Y-105156000D01*
X126189700Y-104581054D01*
X126187412Y-104569550D01*
X126178067Y-104522570D01*
X126172556Y-104514323D01*
X126147597Y-104476969D01*
X126133752Y-104456249D01*
X126106721Y-104438187D01*
X126067432Y-104411934D01*
X126067433Y-104411934D01*
X126038189Y-104406117D01*
X126008948Y-104400301D01*
X125209452Y-104400301D01*
X125180210Y-104406117D01*
X125150967Y-104411934D01*
X125084649Y-104456248D01*
X125084648Y-104456249D01*
X125045843Y-104514323D01*
X125005021Y-104544253D01*
X124954510Y-104540941D01*
X124923414Y-104515246D01*
X124922777Y-104514323D01*
X124867383Y-104434071D01*
X124764532Y-104342953D01*
X124740056Y-104321269D01*
X124740053Y-104321267D01*
X124740052Y-104321266D01*
X124589425Y-104242210D01*
X124589422Y-104242209D01*
X124424258Y-104201500D01*
X124424256Y-104201500D01*
X124254144Y-104201500D01*
X124254141Y-104201500D01*
X124088977Y-104242209D01*
X123938346Y-104321267D01*
X123938343Y-104321269D01*
X123811015Y-104434072D01*
X123811013Y-104434074D01*
X123754984Y-104515246D01*
X123713715Y-104544558D01*
X123663261Y-104540484D01*
X123632556Y-104514322D01*
X123607597Y-104476969D01*
X123593752Y-104456249D01*
X123566721Y-104438187D01*
X123527432Y-104411934D01*
X123527433Y-104411934D01*
X123498189Y-104406117D01*
X123468948Y-104400301D01*
X122669452Y-104400301D01*
X122640210Y-104406117D01*
X122610967Y-104411934D01*
X122544649Y-104456248D01*
X122544647Y-104456250D01*
X122500333Y-104522568D01*
X122488700Y-104581054D01*
X122488700Y-104735605D01*
X122475601Y-104777642D01*
X122444381Y-104822871D01*
X122384059Y-104981929D01*
X122368700Y-105108421D01*
X122368700Y-105520991D01*
X122351387Y-105568557D01*
X122347026Y-105573317D01*
X121400910Y-106519432D01*
X121322324Y-106619740D01*
X121322319Y-106619748D01*
X121252505Y-106774864D01*
X121227650Y-106910500D01*
X121221842Y-106942194D01*
X121222320Y-106950089D01*
X121232113Y-107111990D01*
X121232115Y-107112002D01*
X121282720Y-107274401D01*
X121282722Y-107274407D01*
X121322408Y-107340055D01*
X121370728Y-107419985D01*
X121491015Y-107540272D01*
X121530291Y-107564015D01*
X121617102Y-107616495D01*
X121636594Y-107628278D01*
X121684000Y-107643050D01*
X121798997Y-107678884D01*
X121798998Y-107678884D01*
X121799004Y-107678886D01*
X121968806Y-107689158D01*
X122136132Y-107658495D01*
X122136133Y-107658494D01*
X122136135Y-107658494D01*
X122203268Y-107628279D01*
X122291257Y-107588678D01*
X122391567Y-107510090D01*
X123512374Y-106389281D01*
X123558250Y-106367890D01*
X123607145Y-106380991D01*
X123636179Y-106422455D01*
X123638700Y-106441608D01*
X123638700Y-110047834D01*
X123621387Y-110095400D01*
X123577550Y-110120710D01*
X123534809Y-110113173D01*
X123534168Y-110114722D01*
X123527433Y-110111932D01*
X123491063Y-110104698D01*
X123468948Y-110100299D01*
X122669452Y-110100299D01*
X122647337Y-110104698D01*
X122610967Y-110111932D01*
X122544649Y-110156246D01*
X122544648Y-110156247D01*
X122508228Y-110210752D01*
X122467406Y-110240682D01*
X122416895Y-110237370D01*
X122380331Y-110202366D01*
X122372700Y-110169638D01*
X122372700Y-108974428D01*
X122372699Y-108974420D01*
X122357340Y-108847928D01*
X122297018Y-108688870D01*
X122200383Y-108548871D01*
X122073056Y-108436069D01*
X122073053Y-108436067D01*
X122073052Y-108436066D01*
X121922425Y-108357010D01*
X121922422Y-108357009D01*
X121757258Y-108316300D01*
X121757256Y-108316300D01*
X121587144Y-108316300D01*
X121587141Y-108316300D01*
X121421977Y-108357009D01*
X121271346Y-108436067D01*
X121271343Y-108436069D01*
X121144016Y-108548871D01*
X121047381Y-108688870D01*
X121041091Y-108705457D01*
X121008036Y-108743793D01*
X120958072Y-108751913D01*
X120914579Y-108726016D01*
X120897900Y-108679216D01*
X120897900Y-102804631D01*
X120915213Y-102757065D01*
X120959050Y-102731755D01*
X121008900Y-102740545D01*
X121041095Y-102778400D01*
X121043064Y-102783594D01*
X121046656Y-102796482D01*
X121049304Y-102810929D01*
X121075071Y-102868182D01*
X121075927Y-102870247D01*
X121098180Y-102928925D01*
X121098181Y-102928927D01*
X121098182Y-102928928D01*
X121100176Y-102931817D01*
X121106517Y-102941003D01*
X121113096Y-102952667D01*
X121119121Y-102966053D01*
X121119123Y-102966056D01*
X121157840Y-103015476D01*
X121159165Y-103017277D01*
X121188987Y-103060482D01*
X121194817Y-103068927D01*
X121241806Y-103110556D01*
X121243424Y-103112079D01*
X121247826Y-103116481D01*
X121269218Y-103162357D01*
X121269500Y-103168807D01*
X121269500Y-103297746D01*
X121273467Y-103317690D01*
X121281133Y-103356230D01*
X121310608Y-103400341D01*
X121325448Y-103422550D01*
X121334350Y-103428498D01*
X121391767Y-103466864D01*
X121391768Y-103466864D01*
X121391769Y-103466865D01*
X121450252Y-103478498D01*
X121450254Y-103478498D01*
X122249746Y-103478498D01*
X122249748Y-103478498D01*
X122308231Y-103466865D01*
X122374552Y-103422550D01*
X122411970Y-103366551D01*
X122422917Y-103350169D01*
X122425531Y-103351916D01*
X122450811Y-103324312D01*
X122500995Y-103317690D01*
X122543695Y-103344875D01*
X122546843Y-103350328D01*
X122547083Y-103350169D01*
X122580759Y-103400566D01*
X122595448Y-103422550D01*
X122604350Y-103428498D01*
X122661767Y-103466864D01*
X122661768Y-103466864D01*
X122661769Y-103466865D01*
X122720252Y-103478498D01*
X122720254Y-103478498D01*
X123519746Y-103478498D01*
X123519748Y-103478498D01*
X123578231Y-103466865D01*
X123616985Y-103440970D01*
X123658098Y-103428498D01*
X123851902Y-103428498D01*
X123893015Y-103440970D01*
X123931767Y-103466864D01*
X123931768Y-103466864D01*
X123931769Y-103466865D01*
X123990252Y-103478498D01*
X123990254Y-103478498D01*
X124789746Y-103478498D01*
X124789748Y-103478498D01*
X124848231Y-103466865D01*
X124914552Y-103422550D01*
X124951970Y-103366551D01*
X124962917Y-103350169D01*
X124965531Y-103351916D01*
X124990811Y-103324312D01*
X125040995Y-103317690D01*
X125083695Y-103344875D01*
X125086843Y-103350328D01*
X125087083Y-103350169D01*
X125120759Y-103400566D01*
X125135448Y-103422550D01*
X125144350Y-103428498D01*
X125201767Y-103466864D01*
X125201768Y-103466864D01*
X125201769Y-103466865D01*
X125260252Y-103478498D01*
X125260254Y-103478498D01*
X126059746Y-103478498D01*
X126059748Y-103478498D01*
X126118231Y-103466865D01*
X126184552Y-103422550D01*
X126228867Y-103356229D01*
X126240500Y-103297746D01*
X126240500Y-102616000D01*
X129046417Y-102616000D01*
X129066700Y-102821935D01*
X129089023Y-102895523D01*
X129125573Y-103016016D01*
X129126769Y-103019956D01*
X129224315Y-103202450D01*
X129345674Y-103350328D01*
X129355590Y-103362410D01*
X129515550Y-103493685D01*
X129698046Y-103591232D01*
X129896066Y-103651300D01*
X130102000Y-103671583D01*
X130307934Y-103651300D01*
X130505954Y-103591232D01*
X130688450Y-103493685D01*
X130848410Y-103362410D01*
X130860264Y-103347965D01*
X130863884Y-103343555D01*
X130907443Y-103317769D01*
X130921087Y-103316500D01*
X131517500Y-103316500D01*
X131565066Y-103333813D01*
X131590376Y-103377650D01*
X131591500Y-103390500D01*
X131591500Y-103485746D01*
X131603133Y-103544232D01*
X131632608Y-103588343D01*
X131647448Y-103610552D01*
X131691560Y-103640027D01*
X131713767Y-103654866D01*
X131713768Y-103654866D01*
X131713769Y-103654867D01*
X131772252Y-103666500D01*
X131772254Y-103666500D01*
X133511746Y-103666500D01*
X133511748Y-103666500D01*
X133570231Y-103654867D01*
X133636552Y-103610552D01*
X133680867Y-103544231D01*
X133692500Y-103485748D01*
X133692500Y-101746252D01*
X133680867Y-101687769D01*
X133678494Y-101684218D01*
X133649461Y-101640768D01*
X133636552Y-101621448D01*
X133613527Y-101606063D01*
X133570232Y-101577133D01*
X133570233Y-101577133D01*
X133540989Y-101571316D01*
X133511748Y-101565500D01*
X131772252Y-101565500D01*
X131743010Y-101571316D01*
X131713767Y-101577133D01*
X131647449Y-101621447D01*
X131647447Y-101621449D01*
X131603133Y-101687767D01*
X131591500Y-101746253D01*
X131591500Y-101841500D01*
X131574187Y-101889066D01*
X131530350Y-101914376D01*
X131517500Y-101915500D01*
X130921087Y-101915500D01*
X130873521Y-101898187D01*
X130863884Y-101888445D01*
X130848410Y-101869590D01*
X130848409Y-101869589D01*
X130688450Y-101738315D01*
X130505956Y-101640769D01*
X130505955Y-101640768D01*
X130505954Y-101640768D01*
X130391546Y-101606063D01*
X130307935Y-101580700D01*
X130102000Y-101560417D01*
X129896064Y-101580700D01*
X129698043Y-101640769D01*
X129515549Y-101738315D01*
X129355590Y-101869589D01*
X129355589Y-101869590D01*
X129224315Y-102029549D01*
X129126769Y-102212043D01*
X129066700Y-102410064D01*
X129046417Y-102616000D01*
X126240500Y-102616000D01*
X126240500Y-102158250D01*
X126228867Y-102099767D01*
X126228081Y-102098591D01*
X126207012Y-102067059D01*
X126184552Y-102033446D01*
X126132389Y-101998591D01*
X126118232Y-101989131D01*
X126118233Y-101989131D01*
X126088989Y-101983314D01*
X126059748Y-101977498D01*
X126059746Y-101977498D01*
X126009500Y-101977498D01*
X125961934Y-101960185D01*
X125936624Y-101916348D01*
X125935500Y-101903498D01*
X125935500Y-98604568D01*
X125952813Y-98557002D01*
X125957174Y-98552242D01*
X126577442Y-97931974D01*
X126623318Y-97910582D01*
X126629768Y-97910300D01*
X126724772Y-97910300D01*
X126849069Y-97873804D01*
X126958049Y-97803767D01*
X127042882Y-97705863D01*
X127096697Y-97588026D01*
X127115133Y-97459800D01*
X127114447Y-97455031D01*
X127124814Y-97405487D01*
X127164602Y-97374195D01*
X127187694Y-97370500D01*
X130294336Y-97370500D01*
X130335447Y-97382970D01*
X130405105Y-97429515D01*
X130485467Y-97445500D01*
X131939732Y-97445499D01*
X132020095Y-97429515D01*
X132111224Y-97368624D01*
X132172115Y-97277495D01*
X132188100Y-97197133D01*
X132188100Y-97197130D01*
X141587100Y-97197130D01*
X141603085Y-97277495D01*
X141603085Y-97277496D01*
X141643586Y-97338108D01*
X141663976Y-97368624D01*
X141755105Y-97429515D01*
X141835467Y-97445500D01*
X143289732Y-97445499D01*
X143370095Y-97429515D01*
X143370098Y-97429512D01*
X143373777Y-97427990D01*
X143424348Y-97425785D01*
X143454417Y-97444033D01*
X143940854Y-97930470D01*
X143950053Y-97941679D01*
X143959528Y-97955859D01*
X143972000Y-97996971D01*
X143972000Y-98239311D01*
X143972001Y-98239312D01*
X143978318Y-98298080D01*
X144027896Y-98431004D01*
X144027897Y-98431005D01*
X144036944Y-98443090D01*
X144112919Y-98544581D01*
X144202675Y-98611771D01*
X144226494Y-98629602D01*
X144226495Y-98629603D01*
X144335856Y-98670392D01*
X144359422Y-98679182D01*
X144418189Y-98685500D01*
X145301810Y-98685499D01*
X145301811Y-98685499D01*
X145301811Y-98685498D01*
X145360578Y-98679182D01*
X145450319Y-98645710D01*
X145493504Y-98629603D01*
X145493504Y-98629602D01*
X145493506Y-98629602D01*
X145607081Y-98544581D01*
X145692102Y-98431006D01*
X145692659Y-98429514D01*
X145715370Y-98368622D01*
X145741682Y-98298078D01*
X145748000Y-98239311D01*
X145747999Y-97893307D01*
X145765312Y-97845742D01*
X145769661Y-97840994D01*
X148333175Y-95277481D01*
X148379050Y-95256090D01*
X148427945Y-95269191D01*
X148456979Y-95310655D01*
X148459500Y-95329808D01*
X148459500Y-95902379D01*
X148474859Y-96028871D01*
X148535181Y-96187929D01*
X148631816Y-96327928D01*
X148756402Y-96438302D01*
X148759148Y-96440734D01*
X148909775Y-96519790D01*
X149074944Y-96560500D01*
X149074948Y-96560500D01*
X149245052Y-96560500D01*
X149245056Y-96560500D01*
X149410225Y-96519790D01*
X149560852Y-96440734D01*
X149688183Y-96327929D01*
X149784818Y-96187930D01*
X149845140Y-96028872D01*
X149860500Y-95902372D01*
X149860500Y-93780809D01*
X149877813Y-93733243D01*
X149882174Y-93728483D01*
X150678883Y-92931774D01*
X151485290Y-92125367D01*
X151563877Y-92025057D01*
X151615734Y-91909837D01*
X151633693Y-91869935D01*
X151638263Y-91845000D01*
X151664357Y-91702606D01*
X151654086Y-91532805D01*
X151653192Y-91529935D01*
X151603478Y-91370396D01*
X151600591Y-91365620D01*
X151515472Y-91224816D01*
X151395184Y-91104528D01*
X151321524Y-91059999D01*
X151249603Y-91016521D01*
X151087201Y-90965915D01*
X151087189Y-90965913D01*
X150944489Y-90957281D01*
X150917394Y-90955643D01*
X150917393Y-90955643D01*
X150917392Y-90955643D01*
X150750064Y-90986306D01*
X150594946Y-91056121D01*
X150594944Y-91056122D01*
X150594943Y-91056123D01*
X150564488Y-91079983D01*
X150494632Y-91134710D01*
X148694632Y-92934711D01*
X148680421Y-92948920D01*
X148678796Y-92950450D01*
X148631816Y-92992071D01*
X148631813Y-92992074D01*
X148623479Y-93004148D01*
X148614907Y-93014434D01*
X144816516Y-96812826D01*
X144770640Y-96834218D01*
X144764190Y-96834500D01*
X144575445Y-96834500D01*
X144527879Y-96817187D01*
X144502569Y-96773350D01*
X144502198Y-96749969D01*
X144506556Y-96719650D01*
X144515133Y-96660000D01*
X144496697Y-96531774D01*
X144442882Y-96413937D01*
X144442880Y-96413935D01*
X144442880Y-96413934D01*
X144442878Y-96413932D01*
X144383864Y-96345826D01*
X144367949Y-96327459D01*
X144349884Y-96280174D01*
X144366440Y-96232339D01*
X144367950Y-96230540D01*
X144371695Y-96226218D01*
X144442882Y-96144063D01*
X144496697Y-96026226D01*
X144515133Y-95898000D01*
X144496697Y-95769774D01*
X144442882Y-95651937D01*
X144442880Y-95651935D01*
X144442880Y-95651934D01*
X144442878Y-95651932D01*
X144393697Y-95595174D01*
X144367949Y-95565459D01*
X144349884Y-95518174D01*
X144366440Y-95470339D01*
X144367950Y-95468540D01*
X144442882Y-95382063D01*
X144496697Y-95264226D01*
X144515133Y-95136000D01*
X144496697Y-95007774D01*
X144442882Y-94889937D01*
X144442880Y-94889935D01*
X144442880Y-94889934D01*
X144442878Y-94889932D01*
X144396965Y-94836945D01*
X144367949Y-94803459D01*
X144349884Y-94756174D01*
X144366440Y-94708339D01*
X144367950Y-94706540D01*
X144371164Y-94702831D01*
X144442882Y-94620063D01*
X144496697Y-94502226D01*
X144515133Y-94374000D01*
X144496697Y-94245774D01*
X144442882Y-94127937D01*
X144358049Y-94030033D01*
X144291032Y-93986964D01*
X144249068Y-93959995D01*
X144124772Y-93923500D01*
X143995228Y-93923500D01*
X143870931Y-93959995D01*
X143761954Y-94030031D01*
X143761950Y-94030034D01*
X143677115Y-94127940D01*
X143674352Y-94132240D01*
X143634072Y-94162896D01*
X143583510Y-94160488D01*
X143546326Y-94126143D01*
X143538099Y-94092233D01*
X143538099Y-93992869D01*
X143538099Y-93992867D01*
X143522115Y-93912505D01*
X143504479Y-93886112D01*
X143492448Y-93836945D01*
X143504480Y-93803887D01*
X143522115Y-93777495D01*
X143538100Y-93697133D01*
X143538099Y-93492868D01*
X143522115Y-93412505D01*
X143504479Y-93386112D01*
X143492448Y-93336945D01*
X143504480Y-93303887D01*
X143522115Y-93277495D01*
X143525748Y-93259229D01*
X143552005Y-93215957D01*
X143599937Y-93199685D01*
X143647115Y-93218029D01*
X143665637Y-93242925D01*
X143673436Y-93260001D01*
X143677118Y-93268063D01*
X143761951Y-93365967D01*
X143870931Y-93436004D01*
X143995228Y-93472500D01*
X144124772Y-93472500D01*
X144249069Y-93436004D01*
X144358049Y-93365967D01*
X144442882Y-93268063D01*
X144496697Y-93150226D01*
X144515133Y-93022000D01*
X144496697Y-92893774D01*
X144442882Y-92775937D01*
X144442880Y-92775935D01*
X144442880Y-92775934D01*
X144442878Y-92775932D01*
X144408880Y-92736696D01*
X144367949Y-92689459D01*
X144349884Y-92642174D01*
X144366440Y-92594339D01*
X144367950Y-92592540D01*
X144442882Y-92506063D01*
X144496697Y-92388226D01*
X144515133Y-92260000D01*
X144496697Y-92131774D01*
X144442882Y-92013937D01*
X144442880Y-92013935D01*
X144442880Y-92013934D01*
X144442879Y-92013932D01*
X144435102Y-92004957D01*
X144417038Y-91957671D01*
X144433595Y-91909837D01*
X144477026Y-91883836D01*
X144491029Y-91882499D01*
X144992612Y-91882499D01*
X144992612Y-91882498D01*
X145051378Y-91876182D01*
X145117842Y-91851392D01*
X145184304Y-91826603D01*
X145184304Y-91826602D01*
X145184306Y-91826602D01*
X145297881Y-91741581D01*
X145382902Y-91628006D01*
X145391087Y-91606063D01*
X145412471Y-91548729D01*
X145432482Y-91495078D01*
X145438800Y-91436311D01*
X145438799Y-90477690D01*
X145432482Y-90418922D01*
X145422091Y-90391063D01*
X145382903Y-90285995D01*
X145382902Y-90285994D01*
X145363806Y-90260485D01*
X145297881Y-90172419D01*
X145184306Y-90087398D01*
X145184305Y-90087397D01*
X145184304Y-90087396D01*
X145051382Y-90037819D01*
X145051376Y-90037817D01*
X144992612Y-90031500D01*
X144108988Y-90031500D01*
X144108987Y-90031501D01*
X144050219Y-90037818D01*
X143932875Y-90081585D01*
X143882258Y-90081987D01*
X143843224Y-90049758D01*
X143834040Y-89999979D01*
X143854687Y-89959927D01*
X143960980Y-89853634D01*
X144006855Y-89832243D01*
X144039165Y-89836627D01*
X144056005Y-89842907D01*
X144059422Y-89844182D01*
X144118189Y-89850500D01*
X145001810Y-89850499D01*
X145001811Y-89850499D01*
X145001811Y-89850498D01*
X145060578Y-89844182D01*
X145167044Y-89804472D01*
X145193504Y-89794603D01*
X145193504Y-89794602D01*
X145193506Y-89794602D01*
X145307081Y-89709581D01*
X145392102Y-89596006D01*
X145396428Y-89584409D01*
X145416059Y-89531776D01*
X145441682Y-89463078D01*
X145448000Y-89404311D01*
X145447999Y-88445690D01*
X145441682Y-88386922D01*
X145411523Y-88306063D01*
X145392103Y-88253995D01*
X145392102Y-88253994D01*
X145368091Y-88221919D01*
X145307081Y-88140419D01*
X145193506Y-88055398D01*
X145193505Y-88055397D01*
X145193504Y-88055396D01*
X145060582Y-88005819D01*
X145060576Y-88005817D01*
X145001812Y-87999500D01*
X144118188Y-87999500D01*
X144118187Y-87999501D01*
X144059419Y-88005818D01*
X143926495Y-88055396D01*
X143926494Y-88055397D01*
X143812919Y-88140419D01*
X143727897Y-88253994D01*
X143727896Y-88253995D01*
X143678319Y-88386917D01*
X143678317Y-88386923D01*
X143672000Y-88445687D01*
X143672000Y-89332731D01*
X143654687Y-89380297D01*
X143650326Y-89385057D01*
X142812556Y-90222826D01*
X142766679Y-90244218D01*
X142760230Y-90244500D01*
X141835469Y-90244500D01*
X141755104Y-90260485D01*
X141755103Y-90260485D01*
X141663977Y-90321375D01*
X141663975Y-90321377D01*
X141603085Y-90412504D01*
X141595092Y-90452686D01*
X141590120Y-90477687D01*
X141587100Y-90492868D01*
X141587100Y-90697130D01*
X141603085Y-90777495D01*
X141603085Y-90777496D01*
X141630202Y-90818078D01*
X141663976Y-90868624D01*
X141755105Y-90929515D01*
X141835467Y-90945500D01*
X143289732Y-90945499D01*
X143370095Y-90929515D01*
X143461224Y-90868624D01*
X143522115Y-90777495D01*
X143522114Y-90777495D01*
X143526165Y-90771434D01*
X143528363Y-90772903D01*
X143554618Y-90744241D01*
X143604803Y-90737624D01*
X143647499Y-90764813D01*
X143662800Y-90809873D01*
X143662801Y-91245500D01*
X143645488Y-91293066D01*
X143601651Y-91318376D01*
X143588801Y-91319500D01*
X143480864Y-91319500D01*
X143439752Y-91307029D01*
X143418855Y-91293066D01*
X143370095Y-91260485D01*
X143289733Y-91244500D01*
X143289731Y-91244500D01*
X141835469Y-91244500D01*
X141755104Y-91260485D01*
X141755103Y-91260485D01*
X141663977Y-91321375D01*
X141663975Y-91321377D01*
X141603085Y-91412504D01*
X141598350Y-91436311D01*
X141591301Y-91471750D01*
X141587100Y-91492868D01*
X141587100Y-91697130D01*
X141603085Y-91777495D01*
X141620720Y-91803888D01*
X141632751Y-91853057D01*
X141620720Y-91886112D01*
X141603085Y-91912504D01*
X141587100Y-91992868D01*
X141587100Y-92197130D01*
X141603085Y-92277495D01*
X141620720Y-92303888D01*
X141632751Y-92353057D01*
X141620720Y-92386112D01*
X141603085Y-92412504D01*
X141587100Y-92492868D01*
X141587100Y-92697130D01*
X141603085Y-92777495D01*
X141620720Y-92803888D01*
X141632751Y-92853057D01*
X141620720Y-92886112D01*
X141603085Y-92912504D01*
X141603085Y-92912505D01*
X141587259Y-92992071D01*
X141587100Y-92992868D01*
X141587100Y-93197130D01*
X141603085Y-93277495D01*
X141620720Y-93303888D01*
X141632751Y-93353057D01*
X141620720Y-93386112D01*
X141603085Y-93412504D01*
X141587100Y-93492868D01*
X141587100Y-93697130D01*
X141603085Y-93777495D01*
X141620720Y-93803888D01*
X141632751Y-93853057D01*
X141620720Y-93886112D01*
X141603085Y-93912504D01*
X141587100Y-93992868D01*
X141587100Y-94197130D01*
X141603085Y-94277495D01*
X141620720Y-94303888D01*
X141632751Y-94353057D01*
X141620720Y-94386112D01*
X141603085Y-94412504D01*
X141587100Y-94492868D01*
X141587100Y-94697130D01*
X141603085Y-94777495D01*
X141620720Y-94803888D01*
X141632751Y-94853057D01*
X141620720Y-94886112D01*
X141603085Y-94912504D01*
X141603085Y-94912505D01*
X141588024Y-94988225D01*
X141587100Y-94992868D01*
X141587100Y-95197130D01*
X141603085Y-95277495D01*
X141620720Y-95303888D01*
X141632751Y-95353057D01*
X141620720Y-95386112D01*
X141603085Y-95412504D01*
X141603085Y-95412505D01*
X141592252Y-95466969D01*
X141587100Y-95492868D01*
X141587100Y-95697130D01*
X141603085Y-95777495D01*
X141620720Y-95803888D01*
X141632751Y-95853057D01*
X141620720Y-95886112D01*
X141603085Y-95912504D01*
X141587100Y-95992868D01*
X141587100Y-96197130D01*
X141603085Y-96277495D01*
X141620720Y-96303888D01*
X141632751Y-96353057D01*
X141620720Y-96386112D01*
X141603085Y-96412504D01*
X141600908Y-96423448D01*
X141588971Y-96483464D01*
X141587100Y-96492868D01*
X141587100Y-96697130D01*
X141603085Y-96777495D01*
X141620720Y-96803888D01*
X141632751Y-96853057D01*
X141620720Y-96886112D01*
X141603085Y-96912504D01*
X141587100Y-96992868D01*
X141587100Y-97197130D01*
X132188100Y-97197130D01*
X132188099Y-96992868D01*
X132172115Y-96912505D01*
X132154479Y-96886112D01*
X132142448Y-96836945D01*
X132154480Y-96803887D01*
X132172115Y-96777495D01*
X132188100Y-96697133D01*
X132188099Y-96492868D01*
X132172115Y-96412505D01*
X132154479Y-96386112D01*
X132142448Y-96336945D01*
X132154480Y-96303887D01*
X132155616Y-96302187D01*
X132172115Y-96277495D01*
X132188100Y-96197133D01*
X132188099Y-95992868D01*
X132172115Y-95912505D01*
X132154479Y-95886112D01*
X132142448Y-95836945D01*
X132154480Y-95803887D01*
X132158530Y-95797826D01*
X132172115Y-95777495D01*
X132188100Y-95697133D01*
X132188099Y-95492868D01*
X132172115Y-95412505D01*
X132154479Y-95386112D01*
X132142448Y-95336945D01*
X132154480Y-95303887D01*
X132158358Y-95298083D01*
X132172115Y-95277495D01*
X132188100Y-95197133D01*
X132188099Y-94992868D01*
X132172115Y-94912505D01*
X132154479Y-94886112D01*
X132142448Y-94836945D01*
X132154480Y-94803887D01*
X132172115Y-94777495D01*
X132188100Y-94697133D01*
X132188099Y-94492868D01*
X132172115Y-94412505D01*
X132154479Y-94386112D01*
X132142448Y-94336945D01*
X132154480Y-94303887D01*
X132172115Y-94277495D01*
X132188100Y-94197133D01*
X132188099Y-93992868D01*
X132172115Y-93912505D01*
X132154479Y-93886112D01*
X132142448Y-93836945D01*
X132154480Y-93803887D01*
X132172115Y-93777495D01*
X132188100Y-93697133D01*
X132188099Y-93492868D01*
X132172115Y-93412505D01*
X132154479Y-93386112D01*
X132142448Y-93336945D01*
X132154480Y-93303887D01*
X132172115Y-93277495D01*
X132188100Y-93197133D01*
X132188099Y-92992868D01*
X132172115Y-92912505D01*
X132154479Y-92886112D01*
X132142448Y-92836945D01*
X132154480Y-92803887D01*
X132154990Y-92803124D01*
X132172115Y-92777495D01*
X132188100Y-92697133D01*
X132188099Y-92492868D01*
X132172115Y-92412505D01*
X132154479Y-92386112D01*
X132142448Y-92336945D01*
X132154480Y-92303887D01*
X132172115Y-92277495D01*
X132188100Y-92197133D01*
X132188099Y-91992868D01*
X132172115Y-91912505D01*
X132154479Y-91886112D01*
X132142448Y-91836945D01*
X132154480Y-91803887D01*
X132172115Y-91777495D01*
X132188100Y-91697133D01*
X132188099Y-91492868D01*
X132172115Y-91412505D01*
X132154479Y-91386112D01*
X132142448Y-91336945D01*
X132154480Y-91303887D01*
X132172115Y-91277495D01*
X132188100Y-91197133D01*
X132188099Y-90992868D01*
X132172115Y-90912505D01*
X132154479Y-90886112D01*
X132142448Y-90836945D01*
X132154480Y-90803887D01*
X132165132Y-90787945D01*
X132172115Y-90777495D01*
X132188100Y-90697133D01*
X132188099Y-90492868D01*
X132172115Y-90412505D01*
X132172112Y-90412501D01*
X132124934Y-90341895D01*
X132111224Y-90321376D01*
X132020095Y-90260485D01*
X131939733Y-90244500D01*
X131939731Y-90244500D01*
X130564768Y-90244500D01*
X130517202Y-90227187D01*
X130512442Y-90222826D01*
X130094088Y-89804472D01*
X130072696Y-89758596D01*
X130085797Y-89709701D01*
X130127261Y-89680667D01*
X130154649Y-89680260D01*
X130154819Y-89678687D01*
X130159421Y-89679181D01*
X130159422Y-89679182D01*
X130218189Y-89685500D01*
X131101810Y-89685499D01*
X131101811Y-89685499D01*
X131101811Y-89685498D01*
X131160578Y-89679182D01*
X131250885Y-89645499D01*
X131293504Y-89629603D01*
X131293504Y-89629602D01*
X131293506Y-89629602D01*
X131407081Y-89544581D01*
X131492102Y-89431006D01*
X131498469Y-89413937D01*
X131528757Y-89332731D01*
X131541682Y-89298078D01*
X131548000Y-89239311D01*
X131548000Y-89019500D01*
X131565313Y-88971934D01*
X131609150Y-88946624D01*
X131622000Y-88945500D01*
X132713101Y-88945500D01*
X132760667Y-88962813D01*
X132785977Y-89006650D01*
X132787101Y-89019500D01*
X132787101Y-89397132D01*
X132800218Y-89463082D01*
X132803085Y-89477495D01*
X132803085Y-89477496D01*
X132839353Y-89531774D01*
X132863976Y-89568624D01*
X132955105Y-89629515D01*
X133035467Y-89645500D01*
X133239732Y-89645499D01*
X133320095Y-89629515D01*
X133411224Y-89568624D01*
X133472115Y-89477495D01*
X133488100Y-89397133D01*
X133488099Y-87942868D01*
X133472115Y-87862505D01*
X133467869Y-87856151D01*
X133444155Y-87820660D01*
X133411224Y-87771376D01*
X133410700Y-87771026D01*
X133410225Y-87770378D01*
X133406070Y-87766223D01*
X133406709Y-87765583D01*
X133380771Y-87730204D01*
X133384084Y-87679694D01*
X133419089Y-87643130D01*
X133451816Y-87635500D01*
X133615232Y-87635500D01*
X133662798Y-87652813D01*
X133667558Y-87657174D01*
X133788567Y-87778183D01*
X133809959Y-87824059D01*
X133804609Y-87858825D01*
X133803085Y-87862503D01*
X133787100Y-87942868D01*
X133787100Y-89397130D01*
X133803085Y-89477495D01*
X133803085Y-89477496D01*
X133839353Y-89531774D01*
X133863976Y-89568624D01*
X133955105Y-89629515D01*
X134035467Y-89645500D01*
X134239732Y-89645499D01*
X134320095Y-89629515D01*
X134346487Y-89611879D01*
X134395655Y-89599848D01*
X134428712Y-89611879D01*
X134455105Y-89629515D01*
X134535467Y-89645500D01*
X134739732Y-89645499D01*
X134820095Y-89629515D01*
X134846487Y-89611879D01*
X134895655Y-89599848D01*
X134928712Y-89611879D01*
X134955105Y-89629515D01*
X135035467Y-89645500D01*
X135239732Y-89645499D01*
X135320095Y-89629515D01*
X135346487Y-89611879D01*
X135395655Y-89599848D01*
X135428712Y-89611879D01*
X135455105Y-89629515D01*
X135535467Y-89645500D01*
X135739732Y-89645499D01*
X135820095Y-89629515D01*
X135846487Y-89611879D01*
X135895655Y-89599848D01*
X135928712Y-89611879D01*
X135955105Y-89629515D01*
X136035467Y-89645500D01*
X136239732Y-89645499D01*
X136320095Y-89629515D01*
X136346487Y-89611879D01*
X136395655Y-89599848D01*
X136428712Y-89611879D01*
X136455105Y-89629515D01*
X136535467Y-89645500D01*
X136739732Y-89645499D01*
X136820095Y-89629515D01*
X136846487Y-89611879D01*
X136895655Y-89599848D01*
X136928712Y-89611879D01*
X136955105Y-89629515D01*
X137035467Y-89645500D01*
X137239732Y-89645499D01*
X137320095Y-89629515D01*
X137346487Y-89611879D01*
X137395655Y-89599848D01*
X137428712Y-89611879D01*
X137455105Y-89629515D01*
X137535467Y-89645500D01*
X137739732Y-89645499D01*
X137820095Y-89629515D01*
X137846487Y-89611879D01*
X137895655Y-89599848D01*
X137928712Y-89611879D01*
X137955105Y-89629515D01*
X138035467Y-89645500D01*
X138239732Y-89645499D01*
X138320095Y-89629515D01*
X138346487Y-89611879D01*
X138395655Y-89599848D01*
X138428712Y-89611879D01*
X138455105Y-89629515D01*
X138535467Y-89645500D01*
X138739732Y-89645499D01*
X138820095Y-89629515D01*
X138846487Y-89611879D01*
X138895655Y-89599848D01*
X138928712Y-89611879D01*
X138955105Y-89629515D01*
X139035467Y-89645500D01*
X139239732Y-89645499D01*
X139320095Y-89629515D01*
X139346487Y-89611879D01*
X139395655Y-89599848D01*
X139428712Y-89611879D01*
X139455105Y-89629515D01*
X139535467Y-89645500D01*
X139739732Y-89645499D01*
X139820095Y-89629515D01*
X139846487Y-89611879D01*
X139895655Y-89599848D01*
X139928712Y-89611879D01*
X139955105Y-89629515D01*
X140035467Y-89645500D01*
X140239732Y-89645499D01*
X140320095Y-89629515D01*
X140346487Y-89611879D01*
X140395655Y-89599848D01*
X140428712Y-89611879D01*
X140455105Y-89629515D01*
X140535467Y-89645500D01*
X140739732Y-89645499D01*
X140820095Y-89629515D01*
X140911224Y-89568624D01*
X140972115Y-89477495D01*
X140988100Y-89397133D01*
X140988099Y-87942868D01*
X140972115Y-87862505D01*
X140967869Y-87856151D01*
X140944155Y-87820660D01*
X140911224Y-87771376D01*
X140910700Y-87771026D01*
X140910225Y-87770378D01*
X140906070Y-87766223D01*
X140906709Y-87765583D01*
X140880771Y-87730204D01*
X140884084Y-87679694D01*
X140919089Y-87643130D01*
X140951816Y-87635500D01*
X145868830Y-87635500D01*
X145916396Y-87652813D01*
X145924756Y-87661041D01*
X145961947Y-87703963D01*
X145961948Y-87703964D01*
X145961951Y-87703967D01*
X146070931Y-87774004D01*
X146195228Y-87810500D01*
X146324772Y-87810500D01*
X146449069Y-87774004D01*
X146558049Y-87703967D01*
X146642882Y-87606063D01*
X146696697Y-87488226D01*
X146715133Y-87360000D01*
X146696697Y-87231774D01*
X146654893Y-87140238D01*
X146650883Y-87089781D01*
X146680244Y-87048548D01*
X146722207Y-87035500D01*
X147715232Y-87035500D01*
X147762798Y-87052813D01*
X147767558Y-87057174D01*
X152162826Y-91452442D01*
X152184218Y-91498318D01*
X152184500Y-91504768D01*
X152184500Y-100920511D01*
X152167187Y-100968077D01*
X152123350Y-100993387D01*
X152073500Y-100984597D01*
X152070493Y-100982764D01*
X152049068Y-100968995D01*
X151924772Y-100932500D01*
X151795228Y-100932500D01*
X151670931Y-100968995D01*
X151561954Y-101039031D01*
X151561950Y-101039034D01*
X151477119Y-101136935D01*
X151423302Y-101254776D01*
X151404867Y-101383000D01*
X151407831Y-101403617D01*
X151397463Y-101453163D01*
X151386910Y-101466473D01*
X151190558Y-101662826D01*
X151144682Y-101684218D01*
X151138232Y-101684500D01*
X142622207Y-101684500D01*
X142574641Y-101667187D01*
X142549331Y-101623350D01*
X142554893Y-101579761D01*
X142596697Y-101488226D01*
X142615133Y-101360000D01*
X142596697Y-101231774D01*
X142568514Y-101170064D01*
X142564502Y-101119606D01*
X142593864Y-101078372D01*
X142642860Y-101065659D01*
X142666571Y-101072013D01*
X142670928Y-101074003D01*
X142670930Y-101074003D01*
X142670931Y-101074004D01*
X142795228Y-101110500D01*
X142924772Y-101110500D01*
X143049069Y-101074004D01*
X143158049Y-101003967D01*
X143242882Y-100906063D01*
X143296697Y-100788226D01*
X143307944Y-100710000D01*
X146954867Y-100710000D01*
X146973302Y-100838223D01*
X146973302Y-100838224D01*
X146973303Y-100838226D01*
X147027118Y-100956063D01*
X147111951Y-101053967D01*
X147220931Y-101124004D01*
X147345228Y-101160500D01*
X147474772Y-101160500D01*
X147599069Y-101124004D01*
X147708049Y-101053967D01*
X147745244Y-101011041D01*
X147789477Y-100986430D01*
X147801170Y-100985500D01*
X149818830Y-100985500D01*
X149866396Y-101002813D01*
X149874756Y-101011041D01*
X149911947Y-101053963D01*
X149911948Y-101053964D01*
X149911951Y-101053967D01*
X150020931Y-101124004D01*
X150145228Y-101160500D01*
X150274772Y-101160500D01*
X150399069Y-101124004D01*
X150508049Y-101053967D01*
X150592882Y-100956063D01*
X150646697Y-100838226D01*
X150665133Y-100710000D01*
X150646697Y-100581774D01*
X150592882Y-100463937D01*
X150508049Y-100366033D01*
X150424025Y-100312034D01*
X150399068Y-100295995D01*
X150274772Y-100259500D01*
X150145228Y-100259500D01*
X150020931Y-100295995D01*
X149911954Y-100366031D01*
X149911947Y-100366036D01*
X149874756Y-100408959D01*
X149830523Y-100433570D01*
X149818830Y-100434500D01*
X147801170Y-100434500D01*
X147753604Y-100417187D01*
X147745244Y-100408959D01*
X147708052Y-100366036D01*
X147708050Y-100366035D01*
X147708049Y-100366033D01*
X147624025Y-100312034D01*
X147599068Y-100295995D01*
X147474772Y-100259500D01*
X147345228Y-100259500D01*
X147220931Y-100295995D01*
X147111954Y-100366031D01*
X147111950Y-100366034D01*
X147027119Y-100463935D01*
X146973302Y-100581776D01*
X146954867Y-100710000D01*
X143307944Y-100710000D01*
X143315133Y-100660000D01*
X143296697Y-100531774D01*
X143242882Y-100413937D01*
X143158049Y-100316033D01*
X143158047Y-100316031D01*
X143154583Y-100312034D01*
X143156460Y-100310406D01*
X143136425Y-100274362D01*
X143135500Y-100262699D01*
X143135500Y-99857300D01*
X143152813Y-99809734D01*
X143154801Y-99807714D01*
X143158046Y-99803968D01*
X143158049Y-99803967D01*
X143242882Y-99706063D01*
X143296697Y-99588226D01*
X143315133Y-99460000D01*
X143296697Y-99331774D01*
X143242882Y-99213937D01*
X143158049Y-99116033D01*
X143079539Y-99065578D01*
X143049068Y-99045995D01*
X142924772Y-99009500D01*
X142886372Y-99009500D01*
X142838806Y-98992187D01*
X142813496Y-98948350D01*
X142813125Y-98946031D01*
X142796697Y-98831776D01*
X142796697Y-98831774D01*
X142742882Y-98713937D01*
X142658049Y-98616033D01*
X142604705Y-98581751D01*
X142574050Y-98541471D01*
X142576459Y-98490910D01*
X142610804Y-98453725D01*
X142644711Y-98445499D01*
X143289732Y-98445499D01*
X143370095Y-98429515D01*
X143461224Y-98368624D01*
X143522115Y-98277495D01*
X143538100Y-98197133D01*
X143538099Y-97992868D01*
X143522115Y-97912505D01*
X143461224Y-97821376D01*
X143370095Y-97760485D01*
X143289733Y-97744500D01*
X143289731Y-97744500D01*
X141835469Y-97744500D01*
X141755104Y-97760485D01*
X141755103Y-97760485D01*
X141663977Y-97821375D01*
X141663975Y-97821377D01*
X141603085Y-97912504D01*
X141587100Y-97992868D01*
X141587100Y-98197130D01*
X141603085Y-98277495D01*
X141603085Y-98277496D01*
X141623929Y-98308690D01*
X141663976Y-98368624D01*
X141755105Y-98429515D01*
X141835467Y-98445500D01*
X142075287Y-98445499D01*
X142122851Y-98462812D01*
X142148161Y-98506649D01*
X142139371Y-98556499D01*
X142115293Y-98581751D01*
X142061956Y-98616029D01*
X142061950Y-98616034D01*
X141977119Y-98713935D01*
X141923302Y-98831776D01*
X141904867Y-98960000D01*
X141911000Y-99002662D01*
X141902082Y-99045278D01*
X141903274Y-99045772D01*
X141900656Y-99052091D01*
X141900632Y-99052208D01*
X141900565Y-99052311D01*
X141900485Y-99052504D01*
X141886786Y-99121376D01*
X141879103Y-99159999D01*
X141883078Y-99179983D01*
X141884500Y-99194420D01*
X141884500Y-100962699D01*
X141867187Y-101010265D01*
X141865198Y-101012286D01*
X141777118Y-101113936D01*
X141777117Y-101113938D01*
X141735626Y-101204788D01*
X141700118Y-101240863D01*
X141649728Y-101245674D01*
X141615988Y-101226372D01*
X141009773Y-100620157D01*
X140988381Y-100574281D01*
X140988099Y-100567831D01*
X140988099Y-99292869D01*
X140987939Y-99292066D01*
X140972115Y-99212505D01*
X140968340Y-99206856D01*
X140934512Y-99156229D01*
X140911224Y-99121376D01*
X140820095Y-99060485D01*
X140739733Y-99044500D01*
X140739731Y-99044500D01*
X140535469Y-99044500D01*
X140455104Y-99060485D01*
X140428712Y-99078120D01*
X140379543Y-99090151D01*
X140346488Y-99078120D01*
X140320095Y-99060485D01*
X140239733Y-99044500D01*
X140239731Y-99044500D01*
X140035469Y-99044500D01*
X139955104Y-99060485D01*
X139928712Y-99078120D01*
X139879543Y-99090151D01*
X139846488Y-99078120D01*
X139820095Y-99060485D01*
X139739733Y-99044500D01*
X139739731Y-99044500D01*
X139535469Y-99044500D01*
X139455104Y-99060485D01*
X139428712Y-99078120D01*
X139379543Y-99090151D01*
X139346488Y-99078120D01*
X139320095Y-99060485D01*
X139239733Y-99044500D01*
X139239731Y-99044500D01*
X139035469Y-99044500D01*
X138955104Y-99060485D01*
X138955103Y-99060485D01*
X138863977Y-99121375D01*
X138863975Y-99121377D01*
X138803085Y-99212504D01*
X138802800Y-99213937D01*
X138787260Y-99292066D01*
X138787100Y-99292868D01*
X138787100Y-100747130D01*
X138803085Y-100827495D01*
X138868026Y-100924685D01*
X138866623Y-100925622D01*
X138884218Y-100963340D01*
X138884500Y-100969799D01*
X138884500Y-101060500D01*
X138867187Y-101108066D01*
X138823350Y-101133376D01*
X138810501Y-101134500D01*
X138718188Y-101134500D01*
X138718187Y-101134501D01*
X138659419Y-101140818D01*
X138526495Y-101190396D01*
X138526494Y-101190397D01*
X138412919Y-101275419D01*
X138327897Y-101388994D01*
X138327896Y-101388995D01*
X138278319Y-101521917D01*
X138278317Y-101521923D01*
X138272000Y-101580687D01*
X138272000Y-101926690D01*
X138254687Y-101974256D01*
X138250326Y-101979016D01*
X137391517Y-102837826D01*
X137345641Y-102859218D01*
X137339191Y-102859500D01*
X136582287Y-102859500D01*
X136580053Y-102859432D01*
X136529824Y-102856393D01*
X136517394Y-102855642D01*
X136517393Y-102855642D01*
X136517392Y-102855642D01*
X136455631Y-102866959D01*
X136453432Y-102867294D01*
X136433328Y-102869735D01*
X136391130Y-102874859D01*
X136391126Y-102874860D01*
X136377405Y-102880063D01*
X136364511Y-102883657D01*
X136350070Y-102886304D01*
X136292820Y-102912069D01*
X136290755Y-102912925D01*
X136232070Y-102935182D01*
X136219988Y-102943521D01*
X136208328Y-102950097D01*
X136194943Y-102956121D01*
X136145528Y-102994835D01*
X136143728Y-102996160D01*
X136092074Y-103031813D01*
X136092072Y-103031815D01*
X136050443Y-103078804D01*
X136048911Y-103080431D01*
X135261826Y-103867516D01*
X135215950Y-103888908D01*
X135167055Y-103875807D01*
X135138021Y-103834343D01*
X135135500Y-103815190D01*
X135135500Y-102404767D01*
X135152813Y-102357201D01*
X135157163Y-102352452D01*
X136308072Y-101201542D01*
X136319276Y-101192347D01*
X136336224Y-101181024D01*
X136365683Y-101136937D01*
X136397115Y-101089895D01*
X136401936Y-101065659D01*
X136402093Y-101064871D01*
X136403064Y-101059983D01*
X136406005Y-101045198D01*
X136432262Y-101001925D01*
X136480194Y-100985652D01*
X136493011Y-100987055D01*
X136535467Y-100995500D01*
X136739732Y-100995499D01*
X136820095Y-100979515D01*
X136846487Y-100961879D01*
X136895655Y-100949848D01*
X136928712Y-100961879D01*
X136955105Y-100979515D01*
X137035467Y-100995500D01*
X137239732Y-100995499D01*
X137320095Y-100979515D01*
X137346487Y-100961879D01*
X137395655Y-100949848D01*
X137428712Y-100961879D01*
X137455105Y-100979515D01*
X137535467Y-100995500D01*
X137739732Y-100995499D01*
X137820095Y-100979515D01*
X137846487Y-100961879D01*
X137895655Y-100949848D01*
X137928712Y-100961879D01*
X137955105Y-100979515D01*
X138035467Y-100995500D01*
X138239732Y-100995499D01*
X138320095Y-100979515D01*
X138411224Y-100918624D01*
X138472115Y-100827495D01*
X138488100Y-100747133D01*
X138488099Y-99292868D01*
X138472115Y-99212505D01*
X138468340Y-99206856D01*
X138434512Y-99156229D01*
X138411224Y-99121376D01*
X138320095Y-99060485D01*
X138239733Y-99044500D01*
X138239731Y-99044500D01*
X138035469Y-99044500D01*
X137955104Y-99060485D01*
X137928712Y-99078120D01*
X137879543Y-99090151D01*
X137846488Y-99078120D01*
X137820095Y-99060485D01*
X137739733Y-99044500D01*
X137739731Y-99044500D01*
X137535469Y-99044500D01*
X137455104Y-99060485D01*
X137428712Y-99078120D01*
X137379543Y-99090151D01*
X137346488Y-99078120D01*
X137320095Y-99060485D01*
X137239733Y-99044500D01*
X137239731Y-99044500D01*
X137035469Y-99044500D01*
X136955104Y-99060485D01*
X136928712Y-99078120D01*
X136879543Y-99090151D01*
X136846488Y-99078120D01*
X136820095Y-99060485D01*
X136739733Y-99044500D01*
X136739731Y-99044500D01*
X136535469Y-99044500D01*
X136455104Y-99060485D01*
X136428712Y-99078120D01*
X136379543Y-99090151D01*
X136346488Y-99078120D01*
X136320095Y-99060485D01*
X136239733Y-99044500D01*
X136239731Y-99044500D01*
X136035469Y-99044500D01*
X135955104Y-99060485D01*
X135928712Y-99078120D01*
X135879543Y-99090151D01*
X135846488Y-99078120D01*
X135820095Y-99060485D01*
X135739733Y-99044500D01*
X135739731Y-99044500D01*
X135535469Y-99044500D01*
X135455104Y-99060485D01*
X135428712Y-99078120D01*
X135379543Y-99090151D01*
X135346488Y-99078120D01*
X135320095Y-99060485D01*
X135239733Y-99044500D01*
X135239731Y-99044500D01*
X135035469Y-99044500D01*
X134955104Y-99060485D01*
X134928712Y-99078120D01*
X134879543Y-99090151D01*
X134846488Y-99078120D01*
X134820095Y-99060485D01*
X134739733Y-99044500D01*
X134739731Y-99044500D01*
X134535469Y-99044500D01*
X134455104Y-99060485D01*
X134428712Y-99078120D01*
X134379543Y-99090151D01*
X134346488Y-99078120D01*
X134320095Y-99060485D01*
X134239733Y-99044500D01*
X134239731Y-99044500D01*
X134035469Y-99044500D01*
X133955104Y-99060485D01*
X133928712Y-99078120D01*
X133879543Y-99090151D01*
X133846488Y-99078120D01*
X133820095Y-99060485D01*
X133739733Y-99044500D01*
X133739731Y-99044500D01*
X133535469Y-99044500D01*
X133455104Y-99060485D01*
X133428712Y-99078120D01*
X133379543Y-99090151D01*
X133346488Y-99078120D01*
X133320095Y-99060485D01*
X133239733Y-99044500D01*
X133239731Y-99044500D01*
X133035469Y-99044500D01*
X132955104Y-99060485D01*
X132955103Y-99060485D01*
X132863977Y-99121375D01*
X132863976Y-99121376D01*
X132819788Y-99187506D01*
X132778966Y-99217436D01*
X132728455Y-99214124D01*
X132705934Y-99198718D01*
X132033881Y-98526665D01*
X132012489Y-98480789D01*
X132025590Y-98431894D01*
X132045094Y-98412811D01*
X132056570Y-98405143D01*
X132111224Y-98368624D01*
X132172115Y-98277495D01*
X132188100Y-98197133D01*
X132188099Y-97992868D01*
X132172115Y-97912505D01*
X132111224Y-97821376D01*
X132020095Y-97760485D01*
X131939733Y-97744500D01*
X131939731Y-97744500D01*
X130485469Y-97744500D01*
X130405104Y-97760485D01*
X130405103Y-97760485D01*
X130313977Y-97821375D01*
X130313975Y-97821377D01*
X130253085Y-97912504D01*
X130237100Y-97992868D01*
X130237100Y-98197130D01*
X130253085Y-98277495D01*
X130253085Y-98277496D01*
X130273929Y-98308690D01*
X130313976Y-98368624D01*
X130405105Y-98429515D01*
X130485467Y-98445500D01*
X130510499Y-98445499D01*
X130558064Y-98462810D01*
X130583375Y-98506646D01*
X130584500Y-98519499D01*
X130584500Y-98560500D01*
X130567187Y-98608066D01*
X130523350Y-98633376D01*
X130510501Y-98634500D01*
X130418188Y-98634500D01*
X130418187Y-98634501D01*
X130359419Y-98640818D01*
X130226495Y-98690396D01*
X130226494Y-98690397D01*
X130112919Y-98775419D01*
X130027897Y-98888994D01*
X130027896Y-98888995D01*
X129978319Y-99021917D01*
X129978317Y-99021923D01*
X129972000Y-99080687D01*
X129972000Y-100039311D01*
X129972001Y-100039312D01*
X129978318Y-100098080D01*
X130027896Y-100231004D01*
X130027897Y-100231005D01*
X130047257Y-100256867D01*
X130112919Y-100344581D01*
X130221776Y-100426070D01*
X130226494Y-100429602D01*
X130226495Y-100429603D01*
X130318549Y-100463937D01*
X130359422Y-100479182D01*
X130418189Y-100485500D01*
X131301810Y-100485499D01*
X131301811Y-100485499D01*
X131301811Y-100485498D01*
X131360578Y-100479182D01*
X131427042Y-100454392D01*
X131493504Y-100429603D01*
X131493504Y-100429602D01*
X131493506Y-100429602D01*
X131607081Y-100344581D01*
X131692102Y-100231006D01*
X131741682Y-100098078D01*
X131748000Y-100039311D01*
X131747999Y-99198666D01*
X131765312Y-99151101D01*
X131809149Y-99125791D01*
X131858999Y-99134581D01*
X131874325Y-99146341D01*
X132765426Y-100037442D01*
X132786818Y-100083318D01*
X132787100Y-100089768D01*
X132787100Y-100747130D01*
X132803085Y-100827495D01*
X132803085Y-100827496D01*
X132843586Y-100888108D01*
X132863976Y-100918624D01*
X132955105Y-100979515D01*
X133035467Y-100995500D01*
X133239732Y-100995499D01*
X133320095Y-100979515D01*
X133346487Y-100961879D01*
X133395655Y-100949848D01*
X133428712Y-100961879D01*
X133455105Y-100979515D01*
X133535467Y-100995500D01*
X133739732Y-100995499D01*
X133820095Y-100979515D01*
X133846487Y-100961879D01*
X133895655Y-100949848D01*
X133928712Y-100961879D01*
X133955105Y-100979515D01*
X134035467Y-100995500D01*
X134239732Y-100995499D01*
X134320095Y-100979515D01*
X134346487Y-100961879D01*
X134395655Y-100949848D01*
X134428712Y-100961879D01*
X134455105Y-100979515D01*
X134535467Y-100995500D01*
X134739732Y-100995499D01*
X134820095Y-100979515D01*
X134846487Y-100961879D01*
X134895655Y-100949848D01*
X134928712Y-100961879D01*
X134955105Y-100979515D01*
X135035467Y-100995500D01*
X135239732Y-100995499D01*
X135320095Y-100979515D01*
X135346487Y-100961879D01*
X135395655Y-100949848D01*
X135428712Y-100961879D01*
X135455105Y-100979515D01*
X135535467Y-100995500D01*
X135556230Y-100995499D01*
X135603795Y-101012810D01*
X135629106Y-101056646D01*
X135620318Y-101106496D01*
X135608557Y-101121825D01*
X134689529Y-102040853D01*
X134678319Y-102050053D01*
X134661377Y-102061374D01*
X134661376Y-102061375D01*
X134649222Y-102079565D01*
X134646007Y-102084376D01*
X134646006Y-102084378D01*
X134635724Y-102099767D01*
X134620161Y-102123058D01*
X134600484Y-102152506D01*
X134588642Y-102212046D01*
X134583976Y-102235505D01*
X134579103Y-102260000D01*
X134581268Y-102270882D01*
X134583078Y-102279983D01*
X134584500Y-102294420D01*
X134584500Y-105333231D01*
X134567187Y-105380797D01*
X134562826Y-105385557D01*
X133203144Y-106745238D01*
X133157267Y-106766630D01*
X133115935Y-106758174D01*
X133045954Y-106720768D01*
X132908003Y-106678921D01*
X132847935Y-106660700D01*
X132642000Y-106640417D01*
X132436064Y-106660700D01*
X132238043Y-106720769D01*
X132055549Y-106818315D01*
X131895590Y-106949589D01*
X131895589Y-106949590D01*
X131880116Y-106968445D01*
X131836557Y-106994231D01*
X131822913Y-106995500D01*
X130921087Y-106995500D01*
X130873521Y-106978187D01*
X130863884Y-106968445D01*
X130848410Y-106949590D01*
X130848409Y-106949589D01*
X130688450Y-106818315D01*
X130505956Y-106720769D01*
X130505955Y-106720768D01*
X130505954Y-106720768D01*
X130394158Y-106686855D01*
X130307935Y-106660700D01*
X130102000Y-106640417D01*
X129896064Y-106660700D01*
X129698043Y-106720769D01*
X129515549Y-106818315D01*
X129355590Y-106949589D01*
X129355589Y-106949590D01*
X129224315Y-107109549D01*
X129126769Y-107292043D01*
X129066700Y-107490064D01*
X129046417Y-107696000D01*
X129066700Y-107901935D01*
X129126769Y-108099956D01*
X129224315Y-108282450D01*
X129350383Y-108436066D01*
X129355590Y-108442410D01*
X129515550Y-108573685D01*
X129698046Y-108671232D01*
X129896066Y-108731300D01*
X130102000Y-108751583D01*
X130307934Y-108731300D01*
X130505954Y-108671232D01*
X130688450Y-108573685D01*
X130848410Y-108442410D01*
X130863884Y-108423555D01*
X130907443Y-108397769D01*
X130921087Y-108396500D01*
X131822913Y-108396500D01*
X131870479Y-108413813D01*
X131880116Y-108423555D01*
X131890384Y-108436067D01*
X131895590Y-108442410D01*
X132055550Y-108573685D01*
X132238046Y-108671232D01*
X132436066Y-108731300D01*
X132642000Y-108751583D01*
X132847934Y-108731300D01*
X133045954Y-108671232D01*
X133228450Y-108573685D01*
X133388410Y-108442410D01*
X133519685Y-108282450D01*
X133617232Y-108099954D01*
X133677300Y-107901934D01*
X133697583Y-107696000D01*
X133677300Y-107490066D01*
X133617232Y-107292046D01*
X133607803Y-107274406D01*
X133579825Y-107222063D01*
X133572671Y-107171952D01*
X133592759Y-107134855D01*
X134883175Y-105844440D01*
X134929051Y-105823049D01*
X134977945Y-105836150D01*
X135006979Y-105877614D01*
X135009500Y-105896767D01*
X135009500Y-109387190D01*
X134992187Y-109434756D01*
X134987826Y-109439516D01*
X133752036Y-110675305D01*
X133706159Y-110696697D01*
X133657265Y-110683596D01*
X133628231Y-110642132D01*
X133628895Y-110601502D01*
X133677300Y-110441934D01*
X133697583Y-110236000D01*
X133677300Y-110030066D01*
X133617232Y-109832046D01*
X133519685Y-109649550D01*
X133388410Y-109489590D01*
X133263634Y-109387190D01*
X133228450Y-109358315D01*
X133045956Y-109260769D01*
X133045955Y-109260768D01*
X133045954Y-109260768D01*
X132934158Y-109226855D01*
X132847935Y-109200700D01*
X132642000Y-109180417D01*
X132436064Y-109200700D01*
X132238043Y-109260769D01*
X132055549Y-109358315D01*
X131895590Y-109489589D01*
X131895589Y-109489590D01*
X131880116Y-109508445D01*
X131836557Y-109534231D01*
X131822913Y-109535500D01*
X130921087Y-109535500D01*
X130873521Y-109518187D01*
X130863884Y-109508445D01*
X130848410Y-109489590D01*
X130848409Y-109489589D01*
X130688450Y-109358315D01*
X130505956Y-109260769D01*
X130505955Y-109260768D01*
X130505954Y-109260768D01*
X130394158Y-109226855D01*
X130307935Y-109200700D01*
X130102000Y-109180417D01*
X129896064Y-109200700D01*
X129698043Y-109260769D01*
X129515549Y-109358315D01*
X129355590Y-109489589D01*
X129355589Y-109489590D01*
X129224315Y-109649549D01*
X129126769Y-109832043D01*
X129066700Y-110030064D01*
X129046417Y-110236000D01*
X129066700Y-110441935D01*
X129070937Y-110455902D01*
X129118990Y-110614314D01*
X129126769Y-110639956D01*
X129224315Y-110822450D01*
X129348745Y-110974070D01*
X129355590Y-110982410D01*
X129515550Y-111113685D01*
X129698046Y-111211232D01*
X129896066Y-111271300D01*
X130102000Y-111291583D01*
X130307934Y-111271300D01*
X130505954Y-111211232D01*
X130688450Y-111113685D01*
X130848410Y-110982410D01*
X130863884Y-110963555D01*
X130907443Y-110937769D01*
X130921087Y-110936500D01*
X131822913Y-110936500D01*
X131870479Y-110953813D01*
X131880116Y-110963555D01*
X131895589Y-110982409D01*
X131895590Y-110982410D01*
X132055550Y-111113685D01*
X132238046Y-111211232D01*
X132436066Y-111271300D01*
X132642000Y-111291583D01*
X132847934Y-111271300D01*
X133007501Y-111222896D01*
X133058041Y-111225656D01*
X133094987Y-111260258D01*
X133101046Y-111310513D01*
X133081305Y-111346036D01*
X132725852Y-111701489D01*
X132679976Y-111722881D01*
X132666275Y-111722807D01*
X132642001Y-111720417D01*
X132642000Y-111720417D01*
X132582899Y-111726238D01*
X132436064Y-111740700D01*
X132238043Y-111800769D01*
X132055549Y-111898315D01*
X131895590Y-112029589D01*
X131895589Y-112029590D01*
X131880116Y-112048445D01*
X131836557Y-112074231D01*
X131822913Y-112075500D01*
X130921087Y-112075500D01*
X130873521Y-112058187D01*
X130863884Y-112048445D01*
X130848410Y-112029590D01*
X130848409Y-112029589D01*
X130688450Y-111898315D01*
X130505956Y-111800769D01*
X130505955Y-111800768D01*
X130505954Y-111800768D01*
X130394158Y-111766855D01*
X130307935Y-111740700D01*
X130102000Y-111720417D01*
X129896064Y-111740700D01*
X129698043Y-111800769D01*
X129515549Y-111898315D01*
X129355590Y-112029589D01*
X129355589Y-112029590D01*
X129224315Y-112189549D01*
X129126769Y-112372043D01*
X129066700Y-112570064D01*
X129046417Y-112776000D01*
X129066700Y-112981935D01*
X129083236Y-113036446D01*
X129126768Y-113179954D01*
X129224315Y-113362450D01*
X129355590Y-113522410D01*
X129515550Y-113653685D01*
X129698046Y-113751232D01*
X129896066Y-113811300D01*
X130102000Y-113831583D01*
X130307934Y-113811300D01*
X130505954Y-113751232D01*
X130688450Y-113653685D01*
X130848410Y-113522410D01*
X130863884Y-113503555D01*
X130907443Y-113477769D01*
X130921087Y-113476500D01*
X131822913Y-113476500D01*
X131870479Y-113493813D01*
X131880116Y-113503555D01*
X131895590Y-113522410D01*
X132055550Y-113653685D01*
X132238046Y-113751232D01*
X132436066Y-113811300D01*
X132642000Y-113831583D01*
X132847934Y-113811300D01*
X133045954Y-113751232D01*
X133228450Y-113653685D01*
X133388410Y-113522410D01*
X133519685Y-113362450D01*
X133617232Y-113179954D01*
X133677300Y-112981934D01*
X133697583Y-112776000D01*
X136432417Y-112776000D01*
X136452700Y-112981935D01*
X136469236Y-113036446D01*
X136512768Y-113179954D01*
X136610315Y-113362450D01*
X136741590Y-113522410D01*
X136901550Y-113653685D01*
X137084046Y-113751232D01*
X137282066Y-113811300D01*
X137488000Y-113831583D01*
X137693934Y-113811300D01*
X137891954Y-113751232D01*
X138074450Y-113653685D01*
X138234410Y-113522410D01*
X138249884Y-113503555D01*
X138293443Y-113477769D01*
X138307087Y-113476500D01*
X139208913Y-113476500D01*
X139256479Y-113493813D01*
X139266116Y-113503555D01*
X139281590Y-113522410D01*
X139441550Y-113653685D01*
X139624046Y-113751232D01*
X139822066Y-113811300D01*
X140028000Y-113831583D01*
X140233934Y-113811300D01*
X140431954Y-113751232D01*
X140614450Y-113653685D01*
X140774410Y-113522410D01*
X140905685Y-113362450D01*
X141003232Y-113179954D01*
X141063300Y-112981934D01*
X141083583Y-112776000D01*
X141063300Y-112570066D01*
X141003232Y-112372046D01*
X140905685Y-112189550D01*
X140774410Y-112029590D01*
X140614450Y-111898315D01*
X140431954Y-111800768D01*
X140320158Y-111766855D01*
X140233935Y-111740700D01*
X140028000Y-111720417D01*
X139822064Y-111740700D01*
X139624043Y-111800769D01*
X139441549Y-111898315D01*
X139281590Y-112029589D01*
X139281589Y-112029590D01*
X139266116Y-112048445D01*
X139222557Y-112074231D01*
X139208913Y-112075500D01*
X138307087Y-112075500D01*
X138259521Y-112058187D01*
X138249884Y-112048445D01*
X138234410Y-112029590D01*
X138234409Y-112029589D01*
X138074450Y-111898315D01*
X137891956Y-111800769D01*
X137891955Y-111800768D01*
X137891954Y-111800768D01*
X137780158Y-111766855D01*
X137693935Y-111740700D01*
X137488000Y-111720417D01*
X137282064Y-111740700D01*
X137084043Y-111800769D01*
X136901549Y-111898315D01*
X136741590Y-112029589D01*
X136741589Y-112029590D01*
X136610315Y-112189549D01*
X136512769Y-112372043D01*
X136452700Y-112570064D01*
X136432417Y-112776000D01*
X133697583Y-112776000D01*
X133695192Y-112751727D01*
X133707757Y-112702693D01*
X133716504Y-112692151D01*
X135052907Y-111355748D01*
X144261500Y-111355748D01*
X144265319Y-111374946D01*
X144273133Y-111414231D01*
X144273133Y-111414232D01*
X144291423Y-111441604D01*
X144317448Y-111480552D01*
X144353052Y-111504342D01*
X144383767Y-111524866D01*
X144383768Y-111524866D01*
X144383769Y-111524867D01*
X144442252Y-111536500D01*
X144587500Y-111536500D01*
X144635066Y-111553813D01*
X144660376Y-111597650D01*
X144661500Y-111610500D01*
X144661500Y-113034212D01*
X144661432Y-113036446D01*
X144657642Y-113099105D01*
X144668959Y-113160868D01*
X144669296Y-113163078D01*
X144676859Y-113225369D01*
X144676860Y-113225374D01*
X144682061Y-113239089D01*
X144685656Y-113251984D01*
X144688304Y-113266431D01*
X144714071Y-113323684D01*
X144714927Y-113325749D01*
X144737180Y-113384427D01*
X144745517Y-113396505D01*
X144752096Y-113408169D01*
X144758121Y-113421555D01*
X144758123Y-113421558D01*
X144796840Y-113470978D01*
X144798165Y-113472779D01*
X144832422Y-113522409D01*
X144833817Y-113524429D01*
X144880806Y-113566058D01*
X144882424Y-113567581D01*
X146129324Y-114814481D01*
X147357226Y-116042382D01*
X147378618Y-116088258D01*
X147378900Y-116094708D01*
X147378900Y-116201656D01*
X147381675Y-116231249D01*
X147381675Y-116231251D01*
X147381676Y-116231254D01*
X147425282Y-116355873D01*
X147436876Y-116371582D01*
X147503689Y-116462111D01*
X147582095Y-116519976D01*
X147609926Y-116540517D01*
X147734545Y-116584123D01*
X147734551Y-116584125D01*
X147764144Y-116586900D01*
X147764151Y-116586900D01*
X148344649Y-116586900D01*
X148344656Y-116586900D01*
X148374249Y-116584125D01*
X148479811Y-116547187D01*
X148498873Y-116540517D01*
X148498873Y-116540516D01*
X148498875Y-116540516D01*
X148605111Y-116462111D01*
X148683516Y-116355875D01*
X148685118Y-116351299D01*
X148727123Y-116231254D01*
X148727122Y-116231254D01*
X148727125Y-116231249D01*
X148729900Y-116201656D01*
X148729900Y-115947002D01*
X148733251Y-115924986D01*
X148748486Y-115876096D01*
X148758758Y-115706294D01*
X148731112Y-115555431D01*
X148729900Y-115542092D01*
X148729900Y-115296151D01*
X148729900Y-115296144D01*
X148727125Y-115266551D01*
X148706532Y-115207700D01*
X148683517Y-115141926D01*
X148653436Y-115101168D01*
X148605111Y-115035689D01*
X148551712Y-114996279D01*
X148498873Y-114957282D01*
X148374254Y-114913676D01*
X148374255Y-114913676D01*
X148374250Y-114913675D01*
X148374249Y-114913675D01*
X148344656Y-114910900D01*
X148344650Y-114910900D01*
X148237708Y-114910900D01*
X148190142Y-114893587D01*
X148185382Y-114889226D01*
X147884382Y-114588226D01*
X147862990Y-114542350D01*
X147876091Y-114493455D01*
X147917555Y-114464421D01*
X147936708Y-114461900D01*
X148344649Y-114461900D01*
X148344656Y-114461900D01*
X148374249Y-114459125D01*
X148446383Y-114433884D01*
X148498873Y-114415517D01*
X148498873Y-114415516D01*
X148498875Y-114415516D01*
X148605111Y-114337111D01*
X148683516Y-114230875D01*
X148692336Y-114205671D01*
X148708815Y-114158574D01*
X148727125Y-114106249D01*
X148729900Y-114076656D01*
X148729900Y-114013708D01*
X148747213Y-113966142D01*
X148791050Y-113940832D01*
X148840900Y-113949622D01*
X148873437Y-113988399D01*
X148876478Y-113999272D01*
X148879533Y-114014632D01*
X148905797Y-114053937D01*
X148923848Y-114080952D01*
X148967960Y-114110427D01*
X148990167Y-114125266D01*
X148990168Y-114125266D01*
X148990169Y-114125267D01*
X149048652Y-114136900D01*
X149048654Y-114136900D01*
X150588146Y-114136900D01*
X150588148Y-114136900D01*
X150646631Y-114125267D01*
X150712952Y-114080952D01*
X150757267Y-114014631D01*
X150768900Y-113956148D01*
X150768900Y-113956143D01*
X150769147Y-113953643D01*
X150769575Y-113952749D01*
X150769609Y-113952582D01*
X150769651Y-113952590D01*
X150791041Y-113908004D01*
X150837149Y-113887115D01*
X150842790Y-113886900D01*
X153152144Y-113886900D01*
X153199710Y-113904213D01*
X153225020Y-113948050D01*
X153216230Y-113997900D01*
X153204470Y-114013226D01*
X153089208Y-114128487D01*
X153086113Y-114131252D01*
X153054432Y-114156518D01*
X153054429Y-114156522D01*
X153020919Y-114205671D01*
X152985608Y-114253515D01*
X152983018Y-114258418D01*
X152982978Y-114258396D01*
X152980293Y-114263715D01*
X152980333Y-114263735D01*
X152977926Y-114268732D01*
X152960391Y-114325577D01*
X152940753Y-114381702D01*
X152939724Y-114387144D01*
X152939680Y-114387135D01*
X152938682Y-114393011D01*
X152938726Y-114393018D01*
X152937900Y-114398499D01*
X152937900Y-114457973D01*
X152935675Y-114517405D01*
X152936297Y-114522919D01*
X152936250Y-114522924D01*
X152937900Y-114535452D01*
X152937900Y-114643482D01*
X152937147Y-114654012D01*
X152933267Y-114680999D01*
X152937147Y-114707985D01*
X152937900Y-114718516D01*
X152937900Y-114720168D01*
X152953051Y-114820685D01*
X153011974Y-114943041D01*
X153104342Y-115042592D01*
X153104344Y-115042593D01*
X153104345Y-115042594D01*
X153221955Y-115110496D01*
X153354354Y-115140715D01*
X153489778Y-115130566D01*
X153616194Y-115080952D01*
X153684686Y-115026329D01*
X153685776Y-115025549D01*
X153686440Y-115024972D01*
X153686449Y-115024967D01*
X153686455Y-115024959D01*
X153687029Y-115024461D01*
X153722370Y-114996279D01*
X153762009Y-114938137D01*
X153764614Y-114934757D01*
X153771279Y-114927066D01*
X153771278Y-114927066D01*
X153771282Y-114927063D01*
X153772153Y-114925153D01*
X153778318Y-114914217D01*
X153798872Y-114884073D01*
X153814725Y-114832673D01*
X153816417Y-114828229D01*
X153825097Y-114809226D01*
X153827012Y-114795906D01*
X153829547Y-114784622D01*
X153838900Y-114754302D01*
X153838900Y-114718516D01*
X153839653Y-114707985D01*
X153843533Y-114680998D01*
X153843533Y-114679022D01*
X153844002Y-114677731D01*
X153844286Y-114675761D01*
X153844698Y-114675820D01*
X153860846Y-114631456D01*
X153865207Y-114626696D01*
X154333329Y-114158574D01*
X154379205Y-114137182D01*
X154385655Y-114136900D01*
X155188146Y-114136900D01*
X155188148Y-114136900D01*
X155246631Y-114125267D01*
X155312952Y-114080952D01*
X155357267Y-114014631D01*
X155368900Y-113956148D01*
X155368900Y-112916652D01*
X155357267Y-112858169D01*
X155312952Y-112791848D01*
X155274782Y-112766343D01*
X155246632Y-112747533D01*
X155246633Y-112747533D01*
X155217389Y-112741716D01*
X155188148Y-112735900D01*
X153648652Y-112735900D01*
X153619410Y-112741716D01*
X153590167Y-112747533D01*
X153523849Y-112791847D01*
X153523847Y-112791849D01*
X153479533Y-112858167D01*
X153467899Y-112916656D01*
X153467653Y-112919157D01*
X153467224Y-112920050D01*
X153467191Y-112920218D01*
X153467148Y-112920209D01*
X153445759Y-112964796D01*
X153399651Y-112985685D01*
X153394010Y-112985900D01*
X150842790Y-112985900D01*
X150795224Y-112968587D01*
X150769914Y-112924750D01*
X150769147Y-112919157D01*
X150768900Y-112916656D01*
X150768900Y-112916652D01*
X150757267Y-112858169D01*
X150712952Y-112791848D01*
X150674782Y-112766343D01*
X150646632Y-112747533D01*
X150646633Y-112747533D01*
X150617389Y-112741716D01*
X150588148Y-112735900D01*
X149048652Y-112735900D01*
X149019410Y-112741716D01*
X148990167Y-112747533D01*
X148923849Y-112791847D01*
X148923847Y-112791849D01*
X148879533Y-112858167D01*
X148867899Y-112916656D01*
X148867653Y-112919157D01*
X148867224Y-112920050D01*
X148867191Y-112920218D01*
X148867148Y-112920209D01*
X148845759Y-112964796D01*
X148799651Y-112985685D01*
X148794010Y-112985900D01*
X148697976Y-112985900D01*
X148650410Y-112968587D01*
X148638436Y-112955842D01*
X148605115Y-112910694D01*
X148605113Y-112910692D01*
X148605111Y-112910689D01*
X148533946Y-112858167D01*
X148498873Y-112832282D01*
X148374254Y-112788676D01*
X148374255Y-112788676D01*
X148374250Y-112788675D01*
X148374249Y-112788675D01*
X148344656Y-112785900D01*
X147764144Y-112785900D01*
X147734551Y-112788675D01*
X147734549Y-112788675D01*
X147734545Y-112788676D01*
X147609926Y-112832282D01*
X147503690Y-112910688D01*
X147503688Y-112910690D01*
X147425282Y-113016926D01*
X147381676Y-113141545D01*
X147381675Y-113141549D01*
X147381675Y-113141551D01*
X147379657Y-113163078D01*
X147378900Y-113171149D01*
X147378900Y-113904091D01*
X147361587Y-113951657D01*
X147317750Y-113976967D01*
X147267900Y-113968177D01*
X147252574Y-113956417D01*
X146084174Y-112788017D01*
X146062782Y-112742141D01*
X146062500Y-112735691D01*
X146062500Y-111610500D01*
X146079813Y-111562934D01*
X146123650Y-111537624D01*
X146136500Y-111536500D01*
X146281746Y-111536500D01*
X146281748Y-111536500D01*
X146340231Y-111524867D01*
X146406552Y-111480552D01*
X146450867Y-111414231D01*
X146462500Y-111355748D01*
X146462500Y-109116252D01*
X146450867Y-109057769D01*
X146406552Y-108991448D01*
X146381068Y-108974420D01*
X146340232Y-108947133D01*
X146340233Y-108947133D01*
X146310989Y-108941316D01*
X146281748Y-108935500D01*
X144442252Y-108935500D01*
X144413010Y-108941316D01*
X144383767Y-108947133D01*
X144317449Y-108991447D01*
X144317447Y-108991449D01*
X144273133Y-109057767D01*
X144268988Y-109078605D01*
X144261500Y-109116252D01*
X144261500Y-111355748D01*
X135052907Y-111355748D01*
X136189599Y-110219056D01*
X136191166Y-110217580D01*
X136238183Y-110175929D01*
X136273847Y-110124259D01*
X136275158Y-110122477D01*
X136311000Y-110076729D01*
X136353964Y-110049964D01*
X136404081Y-110057077D01*
X136437900Y-110094741D01*
X136442894Y-110129619D01*
X136436447Y-110195081D01*
X136432417Y-110235999D01*
X136452700Y-110441935D01*
X136456937Y-110455902D01*
X136504990Y-110614314D01*
X136512769Y-110639956D01*
X136610315Y-110822450D01*
X136734745Y-110974070D01*
X136741590Y-110982410D01*
X136901550Y-111113685D01*
X137084046Y-111211232D01*
X137282066Y-111271300D01*
X137488000Y-111291583D01*
X137693934Y-111271300D01*
X137891954Y-111211232D01*
X138074450Y-111113685D01*
X138234410Y-110982410D01*
X138249884Y-110963555D01*
X138293443Y-110937769D01*
X138307087Y-110936500D01*
X139208913Y-110936500D01*
X139256479Y-110953813D01*
X139266116Y-110963555D01*
X139281589Y-110982409D01*
X139281590Y-110982410D01*
X139441550Y-111113685D01*
X139624046Y-111211232D01*
X139822066Y-111271300D01*
X140028000Y-111291583D01*
X140233934Y-111271300D01*
X140431954Y-111211232D01*
X140614450Y-111113685D01*
X140774410Y-110982410D01*
X140905685Y-110822450D01*
X141003232Y-110639954D01*
X141063300Y-110441934D01*
X141083583Y-110236000D01*
X141063300Y-110030066D01*
X141003232Y-109832046D01*
X140905685Y-109649550D01*
X140774410Y-109489590D01*
X140649634Y-109387190D01*
X140614450Y-109358315D01*
X140431956Y-109260769D01*
X140431955Y-109260768D01*
X140431954Y-109260768D01*
X140320158Y-109226855D01*
X140233935Y-109200700D01*
X140028000Y-109180417D01*
X139822064Y-109200700D01*
X139624043Y-109260769D01*
X139441549Y-109358315D01*
X139281590Y-109489589D01*
X139281589Y-109489590D01*
X139266116Y-109508445D01*
X139222557Y-109534231D01*
X139208913Y-109535500D01*
X138307087Y-109535500D01*
X138259521Y-109518187D01*
X138249884Y-109508445D01*
X138234410Y-109489590D01*
X138234409Y-109489589D01*
X138074450Y-109358315D01*
X137891956Y-109260769D01*
X137891955Y-109260768D01*
X137891954Y-109260768D01*
X137780158Y-109226855D01*
X137693935Y-109200700D01*
X137488000Y-109180417D01*
X137282064Y-109200700D01*
X137084043Y-109260769D01*
X136901549Y-109358315D01*
X136741590Y-109489589D01*
X136741589Y-109489590D01*
X136610315Y-109649549D01*
X136552117Y-109758429D01*
X136514426Y-109792217D01*
X136463834Y-109793873D01*
X136424014Y-109762621D01*
X136412990Y-109728012D01*
X136410566Y-109687941D01*
X136410500Y-109685722D01*
X136410500Y-108204047D01*
X136427813Y-108156481D01*
X136471650Y-108131171D01*
X136521500Y-108139961D01*
X136549762Y-108169164D01*
X136610314Y-108282449D01*
X136736384Y-108436066D01*
X136741590Y-108442410D01*
X136901550Y-108573685D01*
X137084046Y-108671232D01*
X137282066Y-108731300D01*
X137488000Y-108751583D01*
X137693934Y-108731300D01*
X137891954Y-108671232D01*
X138074450Y-108573685D01*
X138234410Y-108442410D01*
X138249884Y-108423555D01*
X138293443Y-108397769D01*
X138307087Y-108396500D01*
X139208913Y-108396500D01*
X139256479Y-108413813D01*
X139266116Y-108423555D01*
X139276384Y-108436067D01*
X139281590Y-108442410D01*
X139441550Y-108573685D01*
X139624046Y-108671232D01*
X139822066Y-108731300D01*
X140028000Y-108751583D01*
X140233934Y-108731300D01*
X140431954Y-108671232D01*
X140614450Y-108573685D01*
X140774410Y-108442410D01*
X140905685Y-108282450D01*
X141003232Y-108099954D01*
X141063300Y-107901934D01*
X141083583Y-107696000D01*
X141063300Y-107490066D01*
X141003232Y-107292046D01*
X140905685Y-107109550D01*
X140774410Y-106949590D01*
X140765395Y-106942192D01*
X140695097Y-106884500D01*
X140673410Y-106866702D01*
X140647625Y-106823144D01*
X140655870Y-106773202D01*
X140694289Y-106740243D01*
X140720356Y-106735500D01*
X143968830Y-106735500D01*
X144016396Y-106752813D01*
X144024756Y-106761041D01*
X144061947Y-106803963D01*
X144061948Y-106803964D01*
X144061951Y-106803967D01*
X144170931Y-106874004D01*
X144295228Y-106910500D01*
X144424772Y-106910500D01*
X144549069Y-106874004D01*
X144658049Y-106803967D01*
X144742882Y-106706063D01*
X144796697Y-106588226D01*
X144815133Y-106460000D01*
X144796697Y-106331774D01*
X144742882Y-106213937D01*
X144658049Y-106116033D01*
X144566344Y-106057098D01*
X144549068Y-106045995D01*
X144424772Y-106009500D01*
X144295228Y-106009500D01*
X144170931Y-106045995D01*
X144061954Y-106116031D01*
X144061947Y-106116036D01*
X144024756Y-106158959D01*
X143980523Y-106183570D01*
X143968830Y-106184500D01*
X141136083Y-106184500D01*
X141088517Y-106167187D01*
X141063207Y-106123350D01*
X141066681Y-106091624D01*
X141065445Y-106091379D01*
X141066867Y-106084231D01*
X141078500Y-106025748D01*
X141078500Y-104286252D01*
X141066867Y-104227769D01*
X141022552Y-104161448D01*
X140986791Y-104137553D01*
X140956232Y-104117133D01*
X140956233Y-104117133D01*
X140926989Y-104111316D01*
X140897748Y-104105500D01*
X139158252Y-104105500D01*
X139129010Y-104111316D01*
X139099767Y-104117133D01*
X139033449Y-104161447D01*
X139033447Y-104161449D01*
X138989133Y-104227767D01*
X138977500Y-104286253D01*
X138977500Y-104381500D01*
X138960187Y-104429066D01*
X138916350Y-104454376D01*
X138903500Y-104455500D01*
X138307087Y-104455500D01*
X138259521Y-104438187D01*
X138249884Y-104428445D01*
X138234410Y-104409590D01*
X138234409Y-104409589D01*
X138074450Y-104278315D01*
X138058365Y-104269717D01*
X138024578Y-104232025D01*
X138022924Y-104181433D01*
X138047611Y-104146207D01*
X138074477Y-104125159D01*
X138076266Y-104123843D01*
X138127929Y-104088183D01*
X138169580Y-104041166D01*
X138171056Y-104039599D01*
X139203483Y-103007173D01*
X139249360Y-102985781D01*
X139255809Y-102985499D01*
X139601812Y-102985499D01*
X139601812Y-102985498D01*
X139660578Y-102979182D01*
X139762939Y-102941003D01*
X139793504Y-102929603D01*
X139793504Y-102929602D01*
X139793506Y-102929602D01*
X139907081Y-102844581D01*
X139947824Y-102790153D01*
X139990189Y-102762450D01*
X140007064Y-102760500D01*
X140239191Y-102760500D01*
X140286757Y-102777813D01*
X140291517Y-102782174D01*
X141448917Y-103939574D01*
X141450441Y-103941193D01*
X141492071Y-103988183D01*
X141543730Y-104023841D01*
X141545530Y-104025166D01*
X141563931Y-104039582D01*
X141594943Y-104063878D01*
X141608322Y-104069899D01*
X141619990Y-104076479D01*
X141632070Y-104084818D01*
X141690780Y-104107083D01*
X141692798Y-104107919D01*
X141731122Y-104125168D01*
X141750063Y-104133693D01*
X141750068Y-104133695D01*
X141764519Y-104136342D01*
X141777407Y-104139936D01*
X141791128Y-104145140D01*
X141853439Y-104152705D01*
X141855625Y-104153039D01*
X141886079Y-104158619D01*
X141917394Y-104164358D01*
X141961026Y-104161718D01*
X141980053Y-104160568D01*
X141982287Y-104160500D01*
X144139191Y-104160500D01*
X144186757Y-104177813D01*
X144191517Y-104182174D01*
X144894633Y-104885290D01*
X144994943Y-104963878D01*
X145150068Y-105033694D01*
X145317394Y-105064357D01*
X145487196Y-105054086D01*
X145649606Y-105003478D01*
X145795184Y-104915472D01*
X145915472Y-104795184D01*
X146003478Y-104649606D01*
X146054086Y-104487196D01*
X146064357Y-104317394D01*
X146033694Y-104150068D01*
X145963878Y-103994943D01*
X145885290Y-103894633D01*
X144971081Y-102980424D01*
X144969558Y-102978806D01*
X144927929Y-102931817D01*
X144923739Y-102928925D01*
X144876279Y-102896165D01*
X144874478Y-102894840D01*
X144825058Y-102856123D01*
X144825057Y-102856122D01*
X144825055Y-102856121D01*
X144811669Y-102850096D01*
X144800005Y-102843517D01*
X144787927Y-102835180D01*
X144738422Y-102816405D01*
X144729244Y-102812925D01*
X144727184Y-102812071D01*
X144669931Y-102786304D01*
X144655484Y-102783656D01*
X144642589Y-102780061D01*
X144628874Y-102774860D01*
X144628869Y-102774859D01*
X144593438Y-102770557D01*
X144566562Y-102767293D01*
X144564368Y-102766959D01*
X144502607Y-102755642D01*
X144502606Y-102755642D01*
X144495705Y-102756059D01*
X144439947Y-102759432D01*
X144437713Y-102759500D01*
X142280809Y-102759500D01*
X142233243Y-102742187D01*
X142228483Y-102737826D01*
X141847325Y-102356668D01*
X141825933Y-102310792D01*
X141839034Y-102261897D01*
X141880498Y-102232863D01*
X141914080Y-102231763D01*
X141932867Y-102235500D01*
X141932868Y-102235500D01*
X141940017Y-102236922D01*
X141959999Y-102240897D01*
X141960000Y-102240897D01*
X141979983Y-102236921D01*
X141994420Y-102235500D01*
X151248580Y-102235500D01*
X151263016Y-102236921D01*
X151283000Y-102240897D01*
X151283001Y-102240897D01*
X151287622Y-102239977D01*
X151310132Y-102235500D01*
X151310133Y-102235500D01*
X151390495Y-102219515D01*
X151433437Y-102190822D01*
X151458622Y-102173994D01*
X151458622Y-102173993D01*
X151466636Y-102168639D01*
X151466639Y-102168636D01*
X151479940Y-102159749D01*
X151481624Y-102158624D01*
X151492948Y-102141674D01*
X151502141Y-102130473D01*
X151777442Y-101855174D01*
X151823319Y-101833782D01*
X151829768Y-101833500D01*
X151924772Y-101833500D01*
X152049069Y-101797004D01*
X152070492Y-101783235D01*
X152119867Y-101772083D01*
X152164859Y-101795278D01*
X152184416Y-101841966D01*
X152184500Y-101845488D01*
X152184500Y-105533231D01*
X152167187Y-105580797D01*
X152162826Y-105585557D01*
X148627560Y-109120822D01*
X148581684Y-109142214D01*
X148538235Y-109132582D01*
X148361244Y-109030396D01*
X148361240Y-109030394D01*
X148361239Y-109030394D01*
X148162636Y-108961657D01*
X148162633Y-108961656D01*
X147954602Y-108931746D01*
X147954598Y-108931746D01*
X147954596Y-108931746D01*
X147744668Y-108941746D01*
X147540427Y-108991295D01*
X147540425Y-108991295D01*
X147540424Y-108991296D01*
X147394869Y-109057769D01*
X147349245Y-109078605D01*
X147178047Y-109200514D01*
X147033014Y-109352620D01*
X146919385Y-109529431D01*
X146841274Y-109724544D01*
X146801500Y-109930916D01*
X146801500Y-110488424D01*
X146816472Y-110645220D01*
X146875683Y-110846873D01*
X146875685Y-110846877D01*
X146971986Y-111033678D01*
X146971988Y-111033681D01*
X146971989Y-111033682D01*
X147060417Y-111146126D01*
X147101908Y-111198886D01*
X147260740Y-111336516D01*
X147260741Y-111336516D01*
X147260744Y-111336519D01*
X147442756Y-111441604D01*
X147641367Y-111510344D01*
X147849398Y-111540254D01*
X148059330Y-111530254D01*
X148263576Y-111480704D01*
X148454753Y-111393396D01*
X148625952Y-111271486D01*
X148770986Y-111119378D01*
X148884613Y-110942572D01*
X148962725Y-110747457D01*
X149002500Y-110541085D01*
X149002500Y-109983575D01*
X148987528Y-109826782D01*
X148983612Y-109813446D01*
X148934824Y-109647288D01*
X148938034Y-109596771D01*
X148953497Y-109574117D01*
X152558174Y-105969441D01*
X152604050Y-105948049D01*
X152652945Y-105961150D01*
X152681979Y-106002614D01*
X152684500Y-106021767D01*
X152684500Y-107573231D01*
X152667187Y-107620797D01*
X152662826Y-107625557D01*
X151167560Y-109120822D01*
X151121684Y-109142214D01*
X151078235Y-109132582D01*
X150901244Y-109030396D01*
X150901240Y-109030394D01*
X150901239Y-109030394D01*
X150702636Y-108961657D01*
X150702633Y-108961656D01*
X150494602Y-108931746D01*
X150494598Y-108931746D01*
X150494596Y-108931746D01*
X150284668Y-108941746D01*
X150080427Y-108991295D01*
X150080425Y-108991295D01*
X150080424Y-108991296D01*
X149934869Y-109057769D01*
X149889245Y-109078605D01*
X149718047Y-109200514D01*
X149573014Y-109352620D01*
X149459385Y-109529431D01*
X149381274Y-109724544D01*
X149341500Y-109930916D01*
X149341500Y-110488424D01*
X149356472Y-110645220D01*
X149415683Y-110846873D01*
X149415685Y-110846877D01*
X149511986Y-111033678D01*
X149511988Y-111033681D01*
X149511989Y-111033682D01*
X149600417Y-111146126D01*
X149641908Y-111198886D01*
X149800740Y-111336516D01*
X149800741Y-111336516D01*
X149800744Y-111336519D01*
X149982756Y-111441604D01*
X150181367Y-111510344D01*
X150389398Y-111540254D01*
X150599330Y-111530254D01*
X150803576Y-111480704D01*
X150994753Y-111393396D01*
X151165952Y-111271486D01*
X151310986Y-111119378D01*
X151424613Y-110942572D01*
X151502725Y-110747457D01*
X151542500Y-110541085D01*
X151542500Y-110488424D01*
X151881500Y-110488424D01*
X151896472Y-110645220D01*
X151955683Y-110846873D01*
X151955685Y-110846877D01*
X152051986Y-111033678D01*
X152051988Y-111033681D01*
X152051989Y-111033682D01*
X152140417Y-111146126D01*
X152181908Y-111198886D01*
X152340740Y-111336516D01*
X152340741Y-111336516D01*
X152340744Y-111336519D01*
X152522756Y-111441604D01*
X152721367Y-111510344D01*
X152929398Y-111540254D01*
X153139330Y-111530254D01*
X153343576Y-111480704D01*
X153534753Y-111393396D01*
X153705952Y-111271486D01*
X153850986Y-111119378D01*
X153964613Y-110942572D01*
X154042725Y-110747457D01*
X154082500Y-110541085D01*
X154082500Y-110488424D01*
X154421500Y-110488424D01*
X154436472Y-110645220D01*
X154495683Y-110846873D01*
X154495685Y-110846877D01*
X154591986Y-111033678D01*
X154591988Y-111033681D01*
X154591989Y-111033682D01*
X154680417Y-111146126D01*
X154721908Y-111198886D01*
X154880740Y-111336516D01*
X154880741Y-111336516D01*
X154880744Y-111336519D01*
X155062756Y-111441604D01*
X155261367Y-111510344D01*
X155469398Y-111540254D01*
X155679330Y-111530254D01*
X155883576Y-111480704D01*
X156074753Y-111393396D01*
X156245952Y-111271486D01*
X156390986Y-111119378D01*
X156504613Y-110942572D01*
X156582725Y-110747457D01*
X156622500Y-110541085D01*
X156622500Y-110488424D01*
X156961500Y-110488424D01*
X156976472Y-110645220D01*
X157035683Y-110846873D01*
X157035685Y-110846877D01*
X157131986Y-111033678D01*
X157131988Y-111033681D01*
X157131989Y-111033682D01*
X157220417Y-111146126D01*
X157261908Y-111198886D01*
X157420740Y-111336516D01*
X157420741Y-111336516D01*
X157420744Y-111336519D01*
X157602756Y-111441604D01*
X157801367Y-111510344D01*
X158009398Y-111540254D01*
X158219330Y-111530254D01*
X158423576Y-111480704D01*
X158614753Y-111393396D01*
X158785952Y-111271486D01*
X158930986Y-111119378D01*
X159044613Y-110942572D01*
X159122725Y-110747457D01*
X159162500Y-110541085D01*
X159162500Y-109983575D01*
X159147528Y-109826782D01*
X159088316Y-109625125D01*
X159019917Y-109492448D01*
X158992013Y-109438321D01*
X158989209Y-109434756D01*
X158862092Y-109273114D01*
X158847844Y-109260768D01*
X158703259Y-109135483D01*
X158703256Y-109135481D01*
X158521244Y-109030396D01*
X158521240Y-109030394D01*
X158521239Y-109030394D01*
X158322636Y-108961657D01*
X158322633Y-108961656D01*
X158114602Y-108931746D01*
X158114598Y-108931746D01*
X158114596Y-108931746D01*
X157904668Y-108941746D01*
X157700427Y-108991295D01*
X157700425Y-108991295D01*
X157700424Y-108991296D01*
X157554869Y-109057769D01*
X157509245Y-109078605D01*
X157338047Y-109200514D01*
X157193014Y-109352620D01*
X157079385Y-109529431D01*
X157001274Y-109724544D01*
X156961500Y-109930916D01*
X156961500Y-110488424D01*
X156622500Y-110488424D01*
X156622500Y-109983575D01*
X156607528Y-109826782D01*
X156548316Y-109625125D01*
X156479917Y-109492448D01*
X156452013Y-109438321D01*
X156449209Y-109434756D01*
X156322092Y-109273114D01*
X156307844Y-109260768D01*
X156163259Y-109135483D01*
X156163256Y-109135481D01*
X155981244Y-109030396D01*
X155981240Y-109030394D01*
X155981239Y-109030394D01*
X155782636Y-108961657D01*
X155782633Y-108961656D01*
X155574602Y-108931746D01*
X155574598Y-108931746D01*
X155574596Y-108931746D01*
X155364668Y-108941746D01*
X155160427Y-108991295D01*
X155160425Y-108991295D01*
X155160424Y-108991296D01*
X155014869Y-109057769D01*
X154969245Y-109078605D01*
X154798047Y-109200514D01*
X154653014Y-109352620D01*
X154539385Y-109529431D01*
X154461274Y-109724544D01*
X154421500Y-109930916D01*
X154421500Y-110488424D01*
X154082500Y-110488424D01*
X154082500Y-109983575D01*
X154067528Y-109826782D01*
X154008316Y-109625125D01*
X153939917Y-109492448D01*
X153912013Y-109438321D01*
X153909209Y-109434756D01*
X153782092Y-109273114D01*
X153767844Y-109260768D01*
X153623259Y-109135483D01*
X153623256Y-109135481D01*
X153441244Y-109030396D01*
X153441240Y-109030394D01*
X153441239Y-109030394D01*
X153242636Y-108961657D01*
X153242633Y-108961656D01*
X153034602Y-108931746D01*
X153034598Y-108931746D01*
X153034596Y-108931746D01*
X152824668Y-108941746D01*
X152620427Y-108991295D01*
X152620425Y-108991295D01*
X152620424Y-108991296D01*
X152474869Y-109057769D01*
X152429245Y-109078605D01*
X152258047Y-109200514D01*
X152113014Y-109352620D01*
X151999385Y-109529431D01*
X151921274Y-109724544D01*
X151881500Y-109930916D01*
X151881500Y-110488424D01*
X151542500Y-110488424D01*
X151542500Y-109983575D01*
X151527528Y-109826782D01*
X151523612Y-109813446D01*
X151474824Y-109647288D01*
X151478034Y-109596771D01*
X151493497Y-109574117D01*
X153130473Y-107937141D01*
X153141676Y-107927947D01*
X153158624Y-107916624D01*
X153219515Y-107825495D01*
X153235500Y-107745133D01*
X153235500Y-107745132D01*
X153240897Y-107718000D01*
X153236922Y-107698015D01*
X153235500Y-107683579D01*
X153235500Y-95123000D01*
X157352867Y-95123000D01*
X157359725Y-95170703D01*
X157359997Y-95173200D01*
X157361792Y-95197131D01*
X157363834Y-95224378D01*
X157363835Y-95224380D01*
X157366390Y-95230891D01*
X157370751Y-95247388D01*
X157371302Y-95251224D01*
X157371303Y-95251226D01*
X157392701Y-95298083D01*
X157393487Y-95299935D01*
X157413445Y-95350789D01*
X157413451Y-95350799D01*
X157415561Y-95353445D01*
X157425009Y-95368826D01*
X157425114Y-95369057D01*
X157425119Y-95369064D01*
X157461517Y-95411071D01*
X157498122Y-95456971D01*
X157499248Y-95458016D01*
X157505714Y-95463774D01*
X157505952Y-95463501D01*
X157509945Y-95466961D01*
X157509951Y-95466967D01*
X157527879Y-95478488D01*
X157559294Y-95498678D01*
X157610324Y-95533470D01*
X157610327Y-95533472D01*
X157610718Y-95533592D01*
X157615184Y-95535293D01*
X157618931Y-95537004D01*
X157678134Y-95554387D01*
X157740098Y-95573500D01*
X157743228Y-95573500D01*
X157872772Y-95573500D01*
X158561744Y-95573500D01*
X158609310Y-95590813D01*
X158614070Y-95595174D01*
X160001826Y-96982930D01*
X160023218Y-97028806D01*
X160023500Y-97035256D01*
X160023500Y-97587748D01*
X160025350Y-97597049D01*
X160035133Y-97646232D01*
X160048712Y-97666553D01*
X160079448Y-97712552D01*
X160101668Y-97727399D01*
X160145767Y-97756866D01*
X160145768Y-97756866D01*
X160145769Y-97756867D01*
X160204252Y-97768500D01*
X160204254Y-97768500D01*
X161243746Y-97768500D01*
X161243748Y-97768500D01*
X161302231Y-97756867D01*
X161368552Y-97712552D01*
X161412867Y-97646231D01*
X161424500Y-97587748D01*
X161424500Y-96548252D01*
X161412867Y-96489769D01*
X161368552Y-96423448D01*
X161339571Y-96404083D01*
X161302232Y-96379133D01*
X161302233Y-96379133D01*
X161272989Y-96373316D01*
X161243748Y-96367500D01*
X161243746Y-96367500D01*
X160691255Y-96367500D01*
X160643689Y-96350187D01*
X160638929Y-96345826D01*
X159116912Y-94823809D01*
X159114145Y-94820712D01*
X159099371Y-94802187D01*
X159088879Y-94789030D01*
X159088878Y-94789029D01*
X159088877Y-94789028D01*
X159039728Y-94755519D01*
X158991882Y-94720207D01*
X158986981Y-94717617D01*
X158987002Y-94717575D01*
X158981687Y-94714892D01*
X158981668Y-94714933D01*
X158976673Y-94712527D01*
X158919822Y-94694992D01*
X158908985Y-94691200D01*
X158863699Y-94675354D01*
X158863697Y-94675353D01*
X158863695Y-94675353D01*
X158858251Y-94674323D01*
X158858259Y-94674278D01*
X158852391Y-94673281D01*
X158852385Y-94673326D01*
X158846903Y-94672500D01*
X158846902Y-94672500D01*
X158787426Y-94672500D01*
X158727994Y-94670275D01*
X158722481Y-94670897D01*
X158722475Y-94670850D01*
X158709948Y-94672500D01*
X157743228Y-94672500D01*
X157712934Y-94681393D01*
X157708022Y-94682479D01*
X157673713Y-94687651D01*
X157673711Y-94687652D01*
X157651182Y-94698501D01*
X157639926Y-94702831D01*
X157618927Y-94708997D01*
X157589564Y-94727867D01*
X157585613Y-94730077D01*
X157551357Y-94746575D01*
X157535659Y-94761139D01*
X157525342Y-94769140D01*
X157509952Y-94779031D01*
X157484919Y-94807921D01*
X157482121Y-94810815D01*
X157451806Y-94838944D01*
X157451802Y-94838949D01*
X157442892Y-94854381D01*
X157434738Y-94865833D01*
X157425118Y-94876936D01*
X157425117Y-94876938D01*
X157407856Y-94914731D01*
X157406243Y-94917860D01*
X157383902Y-94956556D01*
X157380739Y-94970417D01*
X157375908Y-94984689D01*
X157371304Y-94994770D01*
X157371302Y-94994775D01*
X157364916Y-95039189D01*
X157364365Y-95042157D01*
X157353685Y-95088949D01*
X157354478Y-95099540D01*
X157353932Y-95115588D01*
X157352867Y-95123000D01*
X153235500Y-95123000D01*
X153235500Y-91094420D01*
X153236922Y-91079983D01*
X153240897Y-91059999D01*
X153232151Y-91016033D01*
X153227992Y-90995123D01*
X153219515Y-90952505D01*
X153214834Y-90945499D01*
X153173994Y-90884378D01*
X153173993Y-90884377D01*
X153171974Y-90881355D01*
X153158624Y-90861376D01*
X153158623Y-90861375D01*
X153141683Y-90850056D01*
X153130470Y-90840854D01*
X149733089Y-87443473D01*
X149711697Y-87397597D01*
X149712169Y-87380614D01*
X149715133Y-87360003D01*
X149715133Y-87360001D01*
X149709508Y-87320876D01*
X149696697Y-87231774D01*
X149642882Y-87113937D01*
X149558049Y-87016033D01*
X149491032Y-86972964D01*
X149449068Y-86945995D01*
X149324772Y-86909500D01*
X149195228Y-86909500D01*
X149070931Y-86945995D01*
X148961954Y-87016031D01*
X148961950Y-87016034D01*
X148877118Y-87113936D01*
X148877117Y-87113938D01*
X148835626Y-87204788D01*
X148800118Y-87240863D01*
X148749728Y-87245674D01*
X148715988Y-87226372D01*
X148079145Y-86589529D01*
X148069942Y-86578314D01*
X148058626Y-86561378D01*
X148058624Y-86561376D01*
X148055340Y-86559182D01*
X148038644Y-86548025D01*
X148038641Y-86548023D01*
X147981140Y-86509603D01*
X147981139Y-86509602D01*
X147967495Y-86500485D01*
X147887133Y-86484500D01*
X147887132Y-86484500D01*
X147887130Y-86484499D01*
X147860001Y-86479103D01*
X147860000Y-86479103D01*
X147840017Y-86483078D01*
X147825580Y-86484500D01*
X146325768Y-86484500D01*
X146278202Y-86467187D01*
X146252892Y-86423350D01*
X146261682Y-86373500D01*
X146273442Y-86358174D01*
X152899442Y-79732174D01*
X152945318Y-79710782D01*
X152951768Y-79710500D01*
X153046772Y-79710500D01*
X153171069Y-79674004D01*
X153280049Y-79603967D01*
X153364882Y-79506063D01*
X153396642Y-79436518D01*
X153432148Y-79400446D01*
X153482538Y-79395634D01*
X153516279Y-79414936D01*
X155250326Y-81148982D01*
X155271718Y-81194858D01*
X155272000Y-81201308D01*
X155272000Y-81547311D01*
X155272001Y-81547312D01*
X155278318Y-81606080D01*
X155327896Y-81739004D01*
X155327897Y-81739005D01*
X155327898Y-81739006D01*
X155412919Y-81852581D01*
X155526494Y-81937602D01*
X155526495Y-81937603D01*
X155635856Y-81978392D01*
X155659422Y-81987182D01*
X155718189Y-81993500D01*
X156601810Y-81993499D01*
X156601811Y-81993499D01*
X156601811Y-81993498D01*
X156660578Y-81987182D01*
X156727042Y-81962392D01*
X156793504Y-81937603D01*
X156793504Y-81937602D01*
X156793506Y-81937602D01*
X156907081Y-81852581D01*
X156992102Y-81739006D01*
X157041682Y-81606078D01*
X157048000Y-81547311D01*
X157047999Y-80588690D01*
X157041682Y-80529922D01*
X157025968Y-80487791D01*
X156992103Y-80396995D01*
X156992102Y-80396994D01*
X156907081Y-80283419D01*
X156793506Y-80198398D01*
X156793505Y-80198397D01*
X156793504Y-80198396D01*
X156660582Y-80148819D01*
X156660576Y-80148817D01*
X156601813Y-80142500D01*
X156601811Y-80142500D01*
X156255808Y-80142500D01*
X156208242Y-80125187D01*
X156203482Y-80120826D01*
X153769483Y-77686826D01*
X153748091Y-77640950D01*
X153761192Y-77592055D01*
X153802656Y-77563021D01*
X153821809Y-77560500D01*
X154739191Y-77560500D01*
X154786757Y-77577813D01*
X154791517Y-77582174D01*
X157384626Y-80175283D01*
X157406018Y-80221159D01*
X157406300Y-80227609D01*
X157406300Y-83372390D01*
X157388987Y-83419956D01*
X157384626Y-83424716D01*
X156116515Y-84692826D01*
X156070638Y-84714218D01*
X156064189Y-84714500D01*
X155718188Y-84714500D01*
X155718187Y-84714501D01*
X155659419Y-84720818D01*
X155526495Y-84770396D01*
X155526494Y-84770397D01*
X155412919Y-84855419D01*
X155327897Y-84968994D01*
X155327896Y-84968995D01*
X155278319Y-85101917D01*
X155278317Y-85101923D01*
X155272000Y-85160687D01*
X155272000Y-86119311D01*
X155272001Y-86119312D01*
X155278318Y-86178080D01*
X155327896Y-86311004D01*
X155327897Y-86311005D01*
X155327898Y-86311006D01*
X155412919Y-86424581D01*
X155501578Y-86490950D01*
X155526494Y-86509602D01*
X155526495Y-86509603D01*
X155624096Y-86546006D01*
X155659422Y-86559182D01*
X155718189Y-86565500D01*
X156417743Y-86565499D01*
X156465309Y-86582812D01*
X156470069Y-86587173D01*
X161780826Y-91897929D01*
X161802218Y-91943805D01*
X161802500Y-91950255D01*
X161802500Y-97821745D01*
X161785187Y-97869311D01*
X161780826Y-97874071D01*
X160809071Y-98845826D01*
X160763195Y-98867218D01*
X160756745Y-98867500D01*
X160204252Y-98867500D01*
X160175010Y-98873316D01*
X160145767Y-98879133D01*
X160079449Y-98923447D01*
X160079447Y-98923449D01*
X160035133Y-98989767D01*
X160031208Y-99009500D01*
X160023500Y-99048252D01*
X160023500Y-100087748D01*
X160025555Y-100098078D01*
X160035133Y-100146232D01*
X160056500Y-100178209D01*
X160079448Y-100212552D01*
X160123560Y-100242027D01*
X160145767Y-100256866D01*
X160145768Y-100256866D01*
X160145769Y-100256867D01*
X160204252Y-100268500D01*
X160204254Y-100268500D01*
X161243746Y-100268500D01*
X161243748Y-100268500D01*
X161302231Y-100256867D01*
X161368552Y-100212552D01*
X161412867Y-100146231D01*
X161424500Y-100087748D01*
X161424500Y-99535254D01*
X161441813Y-99487688D01*
X161446163Y-99482939D01*
X162552193Y-98376908D01*
X162555277Y-98374151D01*
X162586970Y-98348879D01*
X162620480Y-98299728D01*
X162655793Y-98251882D01*
X162655794Y-98251876D01*
X162658386Y-98246976D01*
X162658429Y-98246999D01*
X162661110Y-98241688D01*
X162661066Y-98241667D01*
X162663467Y-98236680D01*
X162663472Y-98236673D01*
X162681007Y-98179822D01*
X162700646Y-98123699D01*
X162701677Y-98118250D01*
X162701723Y-98118258D01*
X162702719Y-98112391D01*
X162702673Y-98112384D01*
X162703500Y-98106899D01*
X162703500Y-98047441D01*
X162705725Y-97987994D01*
X162705104Y-97982480D01*
X162705149Y-97982474D01*
X162703500Y-97969942D01*
X162703500Y-91760382D01*
X162703733Y-91756236D01*
X162705412Y-91741331D01*
X162708270Y-91715965D01*
X162697211Y-91657520D01*
X162688348Y-91598713D01*
X162688346Y-91598708D01*
X162686713Y-91593411D01*
X162686758Y-91593397D01*
X162684899Y-91587748D01*
X162684854Y-91587764D01*
X162683024Y-91582533D01*
X162683023Y-91582528D01*
X162665159Y-91548729D01*
X162655226Y-91529935D01*
X162629426Y-91476359D01*
X162626302Y-91471777D01*
X162626340Y-91471750D01*
X162622896Y-91466895D01*
X162622858Y-91466924D01*
X162619565Y-91462462D01*
X162577517Y-91420413D01*
X162547268Y-91387813D01*
X162537055Y-91376806D01*
X162537048Y-91376802D01*
X162532717Y-91373347D01*
X162532745Y-91373311D01*
X162522723Y-91365620D01*
X157069673Y-85912570D01*
X157048281Y-85866694D01*
X157047999Y-85860244D01*
X157047999Y-85773309D01*
X157065312Y-85725743D01*
X157069673Y-85720983D01*
X157821662Y-84968994D01*
X158586399Y-84204256D01*
X158587966Y-84202780D01*
X158634983Y-84161129D01*
X158670643Y-84109464D01*
X158671947Y-84107692D01*
X158710678Y-84058257D01*
X158716701Y-84044871D01*
X158723283Y-84033204D01*
X158731618Y-84021130D01*
X158753877Y-83962435D01*
X158754733Y-83960369D01*
X158780495Y-83903131D01*
X158783142Y-83888682D01*
X158786738Y-83875787D01*
X158791940Y-83862072D01*
X158799508Y-83799738D01*
X158799837Y-83797577D01*
X158811158Y-83735806D01*
X158808765Y-83696263D01*
X158807368Y-83673146D01*
X158807300Y-83670912D01*
X158807300Y-79929086D01*
X158807368Y-79926852D01*
X158810070Y-79882174D01*
X158811158Y-79864194D01*
X158799838Y-79802426D01*
X158799507Y-79800255D01*
X158791940Y-79737928D01*
X158786736Y-79724207D01*
X158783142Y-79711318D01*
X158780495Y-79696869D01*
X158754726Y-79639616D01*
X158753873Y-79637554D01*
X158731618Y-79578870D01*
X158723279Y-79566790D01*
X158716699Y-79555122D01*
X158710678Y-79541744D01*
X158710677Y-79541742D01*
X158671966Y-79492330D01*
X158670641Y-79490530D01*
X158634983Y-79438871D01*
X158591610Y-79400446D01*
X158587993Y-79397241D01*
X158586374Y-79395717D01*
X155571081Y-76380424D01*
X155569558Y-76378806D01*
X155527929Y-76331817D01*
X155476277Y-76296164D01*
X155474478Y-76294840D01*
X155437856Y-76266149D01*
X155425057Y-76256122D01*
X155425055Y-76256121D01*
X155411669Y-76250096D01*
X155400005Y-76243517D01*
X155387927Y-76235180D01*
X155329249Y-76212927D01*
X155327184Y-76212071D01*
X155269931Y-76186304D01*
X155255484Y-76183656D01*
X155242589Y-76180061D01*
X155228874Y-76174860D01*
X155228869Y-76174859D01*
X155193438Y-76170557D01*
X155166562Y-76167293D01*
X155164368Y-76166959D01*
X155102607Y-76155642D01*
X155102606Y-76155642D01*
X155095705Y-76156059D01*
X155039947Y-76159432D01*
X155037713Y-76159500D01*
X150406809Y-76159500D01*
X150359243Y-76142187D01*
X150354483Y-76137826D01*
X150321802Y-76105145D01*
X150300410Y-76059269D01*
X150313511Y-76010374D01*
X150354975Y-75981340D01*
X150384655Y-75979572D01*
X150389398Y-75980254D01*
X150599330Y-75970254D01*
X150803576Y-75920704D01*
X150994753Y-75833396D01*
X151165952Y-75711486D01*
X151310986Y-75559378D01*
X151424613Y-75382572D01*
X151502725Y-75187457D01*
X151542500Y-74981085D01*
X151542500Y-74928424D01*
X151881500Y-74928424D01*
X151896472Y-75085220D01*
X151955683Y-75286873D01*
X151955685Y-75286877D01*
X152051986Y-75473678D01*
X152051988Y-75473681D01*
X152051989Y-75473682D01*
X152181908Y-75638886D01*
X152340740Y-75776516D01*
X152340741Y-75776516D01*
X152340744Y-75776519D01*
X152522756Y-75881604D01*
X152721367Y-75950344D01*
X152929398Y-75980254D01*
X153139330Y-75970254D01*
X153343576Y-75920704D01*
X153534753Y-75833396D01*
X153705952Y-75711486D01*
X153850986Y-75559378D01*
X153964613Y-75382572D01*
X154042725Y-75187457D01*
X154082500Y-74981085D01*
X154082500Y-74928424D01*
X154421500Y-74928424D01*
X154436472Y-75085220D01*
X154495683Y-75286873D01*
X154495685Y-75286877D01*
X154591986Y-75473678D01*
X154591988Y-75473681D01*
X154591989Y-75473682D01*
X154721908Y-75638886D01*
X154880740Y-75776516D01*
X154880741Y-75776516D01*
X154880744Y-75776519D01*
X155062756Y-75881604D01*
X155261367Y-75950344D01*
X155469398Y-75980254D01*
X155679330Y-75970254D01*
X155883576Y-75920704D01*
X156074753Y-75833396D01*
X156245952Y-75711486D01*
X156390986Y-75559378D01*
X156504613Y-75382572D01*
X156582725Y-75187457D01*
X156622500Y-74981085D01*
X156622500Y-74928424D01*
X156961500Y-74928424D01*
X156976472Y-75085220D01*
X157035683Y-75286873D01*
X157035685Y-75286877D01*
X157131986Y-75473678D01*
X157131988Y-75473681D01*
X157131989Y-75473682D01*
X157261908Y-75638886D01*
X157420740Y-75776516D01*
X157420741Y-75776516D01*
X157420744Y-75776519D01*
X157602756Y-75881604D01*
X157801367Y-75950344D01*
X158009398Y-75980254D01*
X158219330Y-75970254D01*
X158423576Y-75920704D01*
X158614753Y-75833396D01*
X158785952Y-75711486D01*
X158930986Y-75559378D01*
X159044613Y-75382572D01*
X159122725Y-75187457D01*
X159162500Y-74981085D01*
X159162500Y-74423575D01*
X159147528Y-74266782D01*
X159088316Y-74065125D01*
X158992011Y-73878318D01*
X158862092Y-73713114D01*
X158778308Y-73640514D01*
X158703259Y-73575483D01*
X158703256Y-73575481D01*
X158521244Y-73470396D01*
X158521240Y-73470394D01*
X158521239Y-73470394D01*
X158322636Y-73401657D01*
X158322633Y-73401656D01*
X158114602Y-73371746D01*
X158114598Y-73371746D01*
X158114596Y-73371746D01*
X157904668Y-73381746D01*
X157700427Y-73431295D01*
X157700425Y-73431295D01*
X157700424Y-73431296D01*
X157509247Y-73518604D01*
X157509245Y-73518605D01*
X157338047Y-73640514D01*
X157193014Y-73792620D01*
X157079385Y-73969431D01*
X157001274Y-74164544D01*
X156961500Y-74370916D01*
X156961500Y-74928424D01*
X156622500Y-74928424D01*
X156622500Y-74423575D01*
X156607528Y-74266782D01*
X156548316Y-74065125D01*
X156452011Y-73878318D01*
X156322092Y-73713114D01*
X156238308Y-73640514D01*
X156163259Y-73575483D01*
X156163256Y-73575481D01*
X155981244Y-73470396D01*
X155981240Y-73470394D01*
X155981239Y-73470394D01*
X155782636Y-73401657D01*
X155782633Y-73401656D01*
X155574602Y-73371746D01*
X155574598Y-73371746D01*
X155574596Y-73371746D01*
X155364668Y-73381746D01*
X155160427Y-73431295D01*
X155160425Y-73431295D01*
X155160424Y-73431296D01*
X154969247Y-73518604D01*
X154969245Y-73518605D01*
X154798047Y-73640514D01*
X154653014Y-73792620D01*
X154539385Y-73969431D01*
X154461274Y-74164544D01*
X154421500Y-74370916D01*
X154421500Y-74928424D01*
X154082500Y-74928424D01*
X154082500Y-74423575D01*
X154067528Y-74266782D01*
X154008316Y-74065125D01*
X153912011Y-73878318D01*
X153782092Y-73713114D01*
X153698308Y-73640514D01*
X153623259Y-73575483D01*
X153623256Y-73575481D01*
X153441244Y-73470396D01*
X153441240Y-73470394D01*
X153441239Y-73470394D01*
X153242636Y-73401657D01*
X153242633Y-73401656D01*
X153034602Y-73371746D01*
X153034598Y-73371746D01*
X153034596Y-73371746D01*
X152824668Y-73381746D01*
X152620427Y-73431295D01*
X152620425Y-73431295D01*
X152620424Y-73431296D01*
X152429247Y-73518604D01*
X152429245Y-73518605D01*
X152258047Y-73640514D01*
X152113014Y-73792620D01*
X151999385Y-73969431D01*
X151921274Y-74164544D01*
X151881500Y-74370916D01*
X151881500Y-74928424D01*
X151542500Y-74928424D01*
X151542500Y-74423575D01*
X151527528Y-74266782D01*
X151468316Y-74065125D01*
X151372011Y-73878318D01*
X151242092Y-73713114D01*
X151158308Y-73640514D01*
X151083259Y-73575483D01*
X151083256Y-73575481D01*
X150901244Y-73470396D01*
X150901240Y-73470394D01*
X150901239Y-73470394D01*
X150702636Y-73401657D01*
X150702633Y-73401656D01*
X150494602Y-73371746D01*
X150494598Y-73371746D01*
X150494596Y-73371746D01*
X150284668Y-73381746D01*
X150080427Y-73431295D01*
X150080425Y-73431295D01*
X150080424Y-73431296D01*
X149889247Y-73518604D01*
X149889245Y-73518605D01*
X149718047Y-73640514D01*
X149573014Y-73792620D01*
X149459385Y-73969431D01*
X149381274Y-74164544D01*
X149341500Y-74370916D01*
X149341500Y-74928432D01*
X149342668Y-74940663D01*
X149329953Y-74989659D01*
X149288719Y-75019019D01*
X149238259Y-75015005D01*
X149216677Y-75000020D01*
X149024174Y-74807517D01*
X149002782Y-74761641D01*
X149002500Y-74755191D01*
X149002500Y-74423582D01*
X149002500Y-74423575D01*
X148987528Y-74266782D01*
X148928316Y-74065125D01*
X148832011Y-73878318D01*
X148702092Y-73713114D01*
X148618308Y-73640514D01*
X148543259Y-73575483D01*
X148543256Y-73575481D01*
X148361244Y-73470396D01*
X148361240Y-73470394D01*
X148361239Y-73470394D01*
X148162636Y-73401657D01*
X148162633Y-73401656D01*
X147954602Y-73371746D01*
X147954598Y-73371746D01*
X147954596Y-73371746D01*
X147744668Y-73381746D01*
X147540427Y-73431295D01*
X147540425Y-73431295D01*
X147540424Y-73431296D01*
X147349247Y-73518604D01*
X147349245Y-73518605D01*
X147178047Y-73640514D01*
X147033014Y-73792620D01*
X146919385Y-73969431D01*
X146841274Y-74164544D01*
X146801500Y-74370916D01*
X146801500Y-74928424D01*
X146816472Y-75085220D01*
X146875683Y-75286873D01*
X146875685Y-75286877D01*
X146971986Y-75473678D01*
X146971988Y-75473681D01*
X146971989Y-75473682D01*
X147101908Y-75638886D01*
X147260740Y-75776516D01*
X147260741Y-75776516D01*
X147260744Y-75776519D01*
X147442756Y-75881604D01*
X147641367Y-75950344D01*
X147849398Y-75980254D01*
X148059330Y-75970254D01*
X148136653Y-75951495D01*
X148186961Y-75957105D01*
X148206426Y-75971083D01*
X149468517Y-77233174D01*
X149489909Y-77279050D01*
X149476808Y-77327945D01*
X149435344Y-77356979D01*
X149416191Y-77359500D01*
X143082287Y-77359500D01*
X143080053Y-77359432D01*
X143029824Y-77356393D01*
X143017394Y-77355642D01*
X143017393Y-77355642D01*
X143017392Y-77355642D01*
X142955631Y-77366959D01*
X142953432Y-77367294D01*
X142933328Y-77369735D01*
X142891130Y-77374859D01*
X142891126Y-77374860D01*
X142877405Y-77380063D01*
X142864511Y-77383657D01*
X142850070Y-77386304D01*
X142792818Y-77412070D01*
X142790753Y-77412926D01*
X142732068Y-77435182D01*
X142719988Y-77443520D01*
X142708331Y-77450095D01*
X142694946Y-77456120D01*
X142645535Y-77494829D01*
X142643735Y-77496153D01*
X142592072Y-77531815D01*
X142550450Y-77578796D01*
X142548918Y-77580423D01*
X141691517Y-78437826D01*
X141645641Y-78459218D01*
X141639191Y-78459500D01*
X141111874Y-78459500D01*
X141064308Y-78442187D01*
X141038998Y-78398350D01*
X141047788Y-78348500D01*
X141086565Y-78315963D01*
X141090372Y-78314692D01*
X141160115Y-78293537D01*
X141327324Y-78204162D01*
X141473883Y-78083883D01*
X141594162Y-77937324D01*
X141683537Y-77770115D01*
X141738573Y-77588683D01*
X141757157Y-77400000D01*
X141738573Y-77211317D01*
X141683537Y-77029885D01*
X141594162Y-76862676D01*
X141515158Y-76766410D01*
X141507297Y-76756831D01*
X141490500Y-76709886D01*
X141490500Y-73010111D01*
X141507296Y-72963168D01*
X141594162Y-72857324D01*
X141683537Y-72690115D01*
X141738573Y-72508683D01*
X141757157Y-72320000D01*
X141738573Y-72131317D01*
X141683537Y-71949885D01*
X141594162Y-71782676D01*
X141473883Y-71636117D01*
X141340071Y-71526299D01*
X141327323Y-71515837D01*
X141160119Y-71426465D01*
X141160118Y-71426464D01*
X141160115Y-71426463D01*
X141057685Y-71395391D01*
X140978685Y-71371427D01*
X140790000Y-71352843D01*
X140601314Y-71371427D01*
X140482812Y-71407374D01*
X140419885Y-71426463D01*
X140419882Y-71426464D01*
X140419880Y-71426465D01*
X140252676Y-71515837D01*
X140106118Y-71636116D01*
X140106116Y-71636118D01*
X139985837Y-71782676D01*
X139896465Y-71949880D01*
X139841427Y-72131314D01*
X139822843Y-72320000D01*
X139841427Y-72508685D01*
X139862717Y-72578869D01*
X139896463Y-72690115D01*
X139896464Y-72690118D01*
X139896465Y-72690119D01*
X139922020Y-72737930D01*
X139985838Y-72857324D01*
X140072703Y-72963168D01*
X140089500Y-73010111D01*
X140089500Y-76709886D01*
X140072703Y-76756831D01*
X139985837Y-76862677D01*
X139896465Y-77029880D01*
X139896464Y-77029882D01*
X139896463Y-77029885D01*
X139877374Y-77092812D01*
X139841427Y-77211314D01*
X139822843Y-77400000D01*
X139841427Y-77588685D01*
X139857282Y-77640950D01*
X139896463Y-77770115D01*
X139985838Y-77937324D01*
X140106117Y-78083883D01*
X140252676Y-78204162D01*
X140419885Y-78293537D01*
X140489608Y-78314687D01*
X140530099Y-78345061D01*
X140541594Y-78394358D01*
X140518712Y-78439510D01*
X140472160Y-78459390D01*
X140468126Y-78459500D01*
X133491874Y-78459500D01*
X133444308Y-78442187D01*
X133418998Y-78398350D01*
X133427788Y-78348500D01*
X133466565Y-78315963D01*
X133470372Y-78314692D01*
X133540115Y-78293537D01*
X133707324Y-78204162D01*
X133853883Y-78083883D01*
X133974162Y-77937324D01*
X134063537Y-77770115D01*
X134118573Y-77588683D01*
X134137157Y-77400000D01*
X134118573Y-77211317D01*
X134063537Y-77029885D01*
X133974162Y-76862676D01*
X133853883Y-76716117D01*
X133715456Y-76602512D01*
X133707323Y-76595837D01*
X133540119Y-76506465D01*
X133540118Y-76506464D01*
X133540115Y-76506463D01*
X133409177Y-76466744D01*
X133358684Y-76451427D01*
X133222416Y-76438005D01*
X133177344Y-76416687D01*
X130957081Y-74196424D01*
X130955558Y-74194806D01*
X130913929Y-74147817D01*
X130862277Y-74112164D01*
X130860478Y-74110840D01*
X130811058Y-74072123D01*
X130811057Y-74072122D01*
X130811055Y-74072121D01*
X130797669Y-74066096D01*
X130786005Y-74059517D01*
X130773927Y-74051180D01*
X130715249Y-74028927D01*
X130713184Y-74028071D01*
X130655931Y-74002304D01*
X130641484Y-73999656D01*
X130628589Y-73996061D01*
X130614874Y-73990860D01*
X130614869Y-73990859D01*
X130579438Y-73986557D01*
X130552562Y-73983293D01*
X130550368Y-73982959D01*
X130488607Y-73971642D01*
X130488606Y-73971642D01*
X130481705Y-73972059D01*
X130425947Y-73975432D01*
X130423713Y-73975500D01*
X125362809Y-73975500D01*
X125315243Y-73958187D01*
X125310483Y-73953826D01*
X123676657Y-72320000D01*
X129662843Y-72320000D01*
X129681427Y-72508685D01*
X129702717Y-72578869D01*
X129736463Y-72690115D01*
X129736464Y-72690118D01*
X129736465Y-72690119D01*
X129762020Y-72737930D01*
X129825838Y-72857324D01*
X129946117Y-73003883D01*
X130092676Y-73124162D01*
X130259885Y-73213537D01*
X130441317Y-73268573D01*
X130630000Y-73287157D01*
X130818683Y-73268573D01*
X131000115Y-73213537D01*
X131167324Y-73124162D01*
X131313883Y-73003883D01*
X131434162Y-72857324D01*
X131523537Y-72690115D01*
X131578573Y-72508683D01*
X131597157Y-72320000D01*
X131578573Y-72131317D01*
X131523537Y-71949885D01*
X131434162Y-71782676D01*
X131313883Y-71636117D01*
X131180071Y-71526299D01*
X131167323Y-71515837D01*
X131000119Y-71426465D01*
X131000118Y-71426464D01*
X131000115Y-71426463D01*
X130897685Y-71395391D01*
X130818685Y-71371427D01*
X130630000Y-71352843D01*
X130441314Y-71371427D01*
X130322812Y-71407374D01*
X130259885Y-71426463D01*
X130259882Y-71426464D01*
X130259880Y-71426465D01*
X130092676Y-71515837D01*
X129946118Y-71636116D01*
X129946116Y-71636118D01*
X129825837Y-71782676D01*
X129736465Y-71949880D01*
X129681427Y-72131314D01*
X129662843Y-72320000D01*
X123676657Y-72320000D01*
X123498174Y-72141517D01*
X123476782Y-72095641D01*
X123476500Y-72089191D01*
X123476500Y-71585622D01*
X123493813Y-71538056D01*
X123526056Y-71515776D01*
X123588882Y-71493793D01*
X123698150Y-71413150D01*
X123778793Y-71303882D01*
X123823646Y-71175699D01*
X123826500Y-71145266D01*
X123826500Y-70542608D01*
X124225500Y-70542608D01*
X124240700Y-70696934D01*
X124300768Y-70894954D01*
X124398315Y-71077450D01*
X124529590Y-71237410D01*
X124689550Y-71368685D01*
X124872046Y-71466232D01*
X125070066Y-71526300D01*
X125276000Y-71546583D01*
X125481934Y-71526300D01*
X125679954Y-71466232D01*
X125862450Y-71368685D01*
X126022410Y-71237410D01*
X126153685Y-71077450D01*
X126251232Y-70894954D01*
X126311300Y-70696934D01*
X126326500Y-70542608D01*
X126326500Y-70140256D01*
X131109500Y-70140256D01*
X131112275Y-70169849D01*
X131112275Y-70169851D01*
X131112276Y-70169854D01*
X131155882Y-70294473D01*
X131196962Y-70350135D01*
X131234289Y-70400711D01*
X131312695Y-70458576D01*
X131340526Y-70479117D01*
X131465145Y-70522723D01*
X131465151Y-70522725D01*
X131494744Y-70525500D01*
X131494751Y-70525500D01*
X132175249Y-70525500D01*
X132175256Y-70525500D01*
X132204849Y-70522725D01*
X132261532Y-70502890D01*
X132329473Y-70479117D01*
X132329473Y-70479116D01*
X132329475Y-70479116D01*
X132435711Y-70400711D01*
X132514116Y-70294475D01*
X132549520Y-70193295D01*
X132563440Y-70169280D01*
X132588589Y-70140256D01*
X135709500Y-70140256D01*
X135712275Y-70169849D01*
X135712275Y-70169851D01*
X135712276Y-70169854D01*
X135755882Y-70294473D01*
X135796962Y-70350135D01*
X135834289Y-70400711D01*
X135912695Y-70458576D01*
X135940526Y-70479117D01*
X136065145Y-70522723D01*
X136065151Y-70522725D01*
X136094744Y-70525500D01*
X136094751Y-70525500D01*
X136775249Y-70525500D01*
X136775256Y-70525500D01*
X136804849Y-70522725D01*
X136861532Y-70502890D01*
X136929473Y-70479117D01*
X136929473Y-70479116D01*
X136929475Y-70479116D01*
X137035711Y-70400711D01*
X137114116Y-70294475D01*
X137157725Y-70169849D01*
X137160500Y-70140256D01*
X137160500Y-69559744D01*
X137157725Y-69530151D01*
X137154187Y-69520041D01*
X137114117Y-69405526D01*
X137093576Y-69377695D01*
X137035711Y-69299289D01*
X136985135Y-69261962D01*
X136929473Y-69220882D01*
X136804854Y-69177276D01*
X136804855Y-69177276D01*
X136804850Y-69177275D01*
X136804849Y-69177275D01*
X136775256Y-69174500D01*
X136094744Y-69174500D01*
X136065151Y-69177275D01*
X136065149Y-69177275D01*
X136065145Y-69177276D01*
X135940526Y-69220882D01*
X135834290Y-69299288D01*
X135834288Y-69299290D01*
X135755882Y-69405526D01*
X135712276Y-69530145D01*
X135712275Y-69530149D01*
X135712275Y-69530151D01*
X135709500Y-69559744D01*
X135709500Y-70140256D01*
X132588589Y-70140256D01*
X132588595Y-70140249D01*
X132626882Y-70096063D01*
X132680697Y-69978226D01*
X132699133Y-69850000D01*
X132680697Y-69721774D01*
X132626882Y-69603937D01*
X132563439Y-69530719D01*
X132549520Y-69506705D01*
X132514116Y-69405525D01*
X132435711Y-69299289D01*
X132385135Y-69261962D01*
X132329473Y-69220882D01*
X132204854Y-69177276D01*
X132204855Y-69177276D01*
X132204850Y-69177275D01*
X132204849Y-69177275D01*
X132175256Y-69174500D01*
X131494744Y-69174500D01*
X131465151Y-69177275D01*
X131465149Y-69177275D01*
X131465145Y-69177276D01*
X131340526Y-69220882D01*
X131234290Y-69299288D01*
X131234288Y-69299290D01*
X131155882Y-69405526D01*
X131112276Y-69530145D01*
X131112275Y-69530149D01*
X131112275Y-69530151D01*
X131109500Y-69559744D01*
X131109500Y-70140256D01*
X126326500Y-70140256D01*
X126326500Y-70139392D01*
X126311300Y-69985066D01*
X126251232Y-69787046D01*
X126153685Y-69604550D01*
X126022410Y-69444590D01*
X125862450Y-69313315D01*
X125679954Y-69215768D01*
X125568158Y-69181855D01*
X125481935Y-69155700D01*
X125276000Y-69135417D01*
X125070064Y-69155700D01*
X124872043Y-69215769D01*
X124689549Y-69313315D01*
X124529590Y-69444589D01*
X124529589Y-69444590D01*
X124398315Y-69604549D01*
X124300769Y-69787043D01*
X124240700Y-69985064D01*
X124240700Y-69985066D01*
X124225500Y-70139392D01*
X124225500Y-70542608D01*
X123826500Y-70542608D01*
X123826500Y-69536734D01*
X123823646Y-69506301D01*
X123802052Y-69444590D01*
X123778793Y-69378118D01*
X123778792Y-69378116D01*
X123698153Y-69268853D01*
X123698146Y-69268846D01*
X123588883Y-69188207D01*
X123588881Y-69188206D01*
X123460704Y-69143355D01*
X123460705Y-69143355D01*
X123460700Y-69143354D01*
X123460699Y-69143354D01*
X123430266Y-69140500D01*
X122121734Y-69140500D01*
X122091301Y-69143354D01*
X122091299Y-69143354D01*
X122091295Y-69143355D01*
X121963118Y-69188206D01*
X121963116Y-69188207D01*
X121853853Y-69268846D01*
X121853846Y-69268853D01*
X121773207Y-69378116D01*
X121773206Y-69378118D01*
X121728355Y-69506295D01*
X121728354Y-69506299D01*
X121728354Y-69506301D01*
X121725500Y-69536734D01*
X121725500Y-71145266D01*
X121728354Y-71175699D01*
X121728354Y-71175701D01*
X121728355Y-71175704D01*
X121773206Y-71303881D01*
X121773207Y-71303883D01*
X121853846Y-71413146D01*
X121853853Y-71413153D01*
X121963115Y-71493791D01*
X121963118Y-71493793D01*
X122025942Y-71515776D01*
X122065119Y-71547825D01*
X122075500Y-71585622D01*
X122075500Y-72387712D01*
X122075432Y-72389946D01*
X122071642Y-72452605D01*
X122082959Y-72514368D01*
X122083296Y-72516578D01*
X122090859Y-72578869D01*
X122090860Y-72578874D01*
X122096061Y-72592589D01*
X122099656Y-72605484D01*
X122102304Y-72619931D01*
X122128071Y-72677184D01*
X122128927Y-72679249D01*
X122151180Y-72737927D01*
X122159517Y-72750005D01*
X122166096Y-72761669D01*
X122172121Y-72775055D01*
X122172123Y-72775058D01*
X122210840Y-72824478D01*
X122212164Y-72826277D01*
X122247817Y-72877929D01*
X122294806Y-72919558D01*
X122296424Y-72921081D01*
X124530917Y-75155574D01*
X124532450Y-75157202D01*
X124574071Y-75204183D01*
X124625730Y-75239841D01*
X124627530Y-75241166D01*
X124663249Y-75269149D01*
X124676943Y-75279878D01*
X124690322Y-75285899D01*
X124701990Y-75292479D01*
X124714070Y-75300818D01*
X124772754Y-75323073D01*
X124774821Y-75323929D01*
X124832064Y-75349693D01*
X124832069Y-75349695D01*
X124846518Y-75352342D01*
X124859407Y-75355936D01*
X124873128Y-75361140D01*
X124935455Y-75368707D01*
X124937626Y-75369038D01*
X124999394Y-75380358D01*
X125042284Y-75377763D01*
X125062053Y-75376568D01*
X125064287Y-75376500D01*
X130125191Y-75376500D01*
X130172757Y-75393813D01*
X130177517Y-75398174D01*
X131262462Y-76483119D01*
X131283854Y-76528995D01*
X131270753Y-76577890D01*
X131229289Y-76606924D01*
X131178862Y-76602512D01*
X131169025Y-76596975D01*
X131167326Y-76595839D01*
X131167324Y-76595838D01*
X131167321Y-76595836D01*
X131167319Y-76595835D01*
X131000119Y-76506465D01*
X131000118Y-76506464D01*
X131000115Y-76506463D01*
X130897685Y-76475391D01*
X130818685Y-76451427D01*
X130630000Y-76432843D01*
X130441314Y-76451427D01*
X130336841Y-76483119D01*
X130259885Y-76506463D01*
X130259882Y-76506464D01*
X130259880Y-76506465D01*
X130092676Y-76595837D01*
X129946118Y-76716116D01*
X129946116Y-76716118D01*
X129825837Y-76862676D01*
X129736465Y-77029880D01*
X129736464Y-77029882D01*
X129736463Y-77029885D01*
X129717374Y-77092812D01*
X129681427Y-77211314D01*
X129662843Y-77400000D01*
X129681427Y-77588685D01*
X129697282Y-77640950D01*
X129736463Y-77770115D01*
X129825838Y-77937324D01*
X129946117Y-78083883D01*
X130092676Y-78204162D01*
X130259885Y-78293537D01*
X130329608Y-78314687D01*
X130370099Y-78345061D01*
X130381594Y-78394358D01*
X130358712Y-78439510D01*
X130312160Y-78459390D01*
X130308126Y-78459500D01*
X125732287Y-78459500D01*
X125730053Y-78459432D01*
X125679824Y-78456393D01*
X125667394Y-78455642D01*
X125667393Y-78455642D01*
X125667392Y-78455642D01*
X125605631Y-78466959D01*
X125603432Y-78467294D01*
X125583328Y-78469735D01*
X125541130Y-78474859D01*
X125541126Y-78474860D01*
X125527405Y-78480063D01*
X125514511Y-78483657D01*
X125500070Y-78486304D01*
X125442820Y-78512069D01*
X125440755Y-78512925D01*
X125382070Y-78535182D01*
X125369988Y-78543521D01*
X125358328Y-78550097D01*
X125344943Y-78556121D01*
X125295528Y-78594835D01*
X125293728Y-78596160D01*
X125242074Y-78631813D01*
X125242072Y-78631815D01*
X125200443Y-78678804D01*
X125198911Y-78680431D01*
X123791517Y-80087826D01*
X123745641Y-80109218D01*
X123739191Y-80109500D01*
X122363216Y-80109500D01*
X122353730Y-80110143D01*
X122322905Y-80112233D01*
X122322901Y-80112233D01*
X122322900Y-80112234D01*
X122148651Y-80155567D01*
X122148649Y-80155568D01*
X121987791Y-80235346D01*
X121847841Y-80347841D01*
X121735346Y-80487791D01*
X121685306Y-80588688D01*
X121655567Y-80648651D01*
X121617094Y-80803359D01*
X121588813Y-80845341D01*
X121545281Y-80859500D01*
X118676500Y-80859500D01*
X118628934Y-80842187D01*
X118603624Y-80798350D01*
X118602500Y-80785500D01*
X118602500Y-80641511D01*
X118586719Y-80541874D01*
X118586718Y-80541873D01*
X118580627Y-80529919D01*
X118525528Y-80421780D01*
X118430220Y-80326472D01*
X118430219Y-80326471D01*
X118310126Y-80265281D01*
X118310125Y-80265280D01*
X118210489Y-80249500D01*
X118210488Y-80249500D01*
X116606992Y-80249500D01*
X116559426Y-80232187D01*
X116539680Y-80206243D01*
X116536097Y-80198398D01*
X116534882Y-80195737D01*
X116450049Y-80097833D01*
X116383032Y-80054764D01*
X116341068Y-80027795D01*
X116216772Y-79991300D01*
X116087228Y-79991300D01*
X115962931Y-80027795D01*
X115853954Y-80097831D01*
X115853950Y-80097834D01*
X115769118Y-80195736D01*
X115764320Y-80206243D01*
X115728811Y-80242317D01*
X115697008Y-80249500D01*
X114093511Y-80249500D01*
X113993874Y-80265280D01*
X113993873Y-80265281D01*
X113873780Y-80326471D01*
X113778471Y-80421780D01*
X113717281Y-80541873D01*
X113717280Y-80541874D01*
X113701500Y-80641511D01*
X113701500Y-84758488D01*
X113717280Y-84858125D01*
X113717281Y-84858126D01*
X113773771Y-84968995D01*
X113778472Y-84978220D01*
X113873780Y-85073528D01*
X113993874Y-85134719D01*
X114093511Y-85150500D01*
X114093512Y-85150500D01*
X118210489Y-85150500D01*
X118260307Y-85142609D01*
X118310126Y-85134719D01*
X118430220Y-85073528D01*
X118525528Y-84978220D01*
X118586719Y-84858126D01*
X118602500Y-84758488D01*
X118602500Y-82334500D01*
X118619813Y-82286934D01*
X118663650Y-82261624D01*
X118676500Y-82260500D01*
X121545281Y-82260500D01*
X121592847Y-82277813D01*
X121617093Y-82316639D01*
X121655567Y-82471349D01*
X121735347Y-82632210D01*
X121847841Y-82772159D01*
X121987790Y-82884653D01*
X122148651Y-82964433D01*
X122322900Y-83007766D01*
X122363216Y-83010500D01*
X122535500Y-83010500D01*
X122583066Y-83027813D01*
X122608376Y-83071650D01*
X122609500Y-83084500D01*
X122609500Y-83435500D01*
X122592187Y-83483066D01*
X122548350Y-83508376D01*
X122535500Y-83509500D01*
X122363216Y-83509500D01*
X122353730Y-83510143D01*
X122322905Y-83512233D01*
X122322901Y-83512233D01*
X122322900Y-83512234D01*
X122148651Y-83555567D01*
X122148649Y-83555568D01*
X121987791Y-83635346D01*
X121847841Y-83747841D01*
X121735346Y-83887791D01*
X121698326Y-83962435D01*
X121655567Y-84048651D01*
X121612234Y-84222900D01*
X121612233Y-84222905D01*
X121609500Y-84263219D01*
X121609500Y-85656781D01*
X121612233Y-85697094D01*
X121612233Y-85697097D01*
X121612234Y-85697100D01*
X121655567Y-85871349D01*
X121735347Y-86032210D01*
X121847841Y-86172159D01*
X121987790Y-86284653D01*
X122148651Y-86364433D01*
X122322900Y-86407766D01*
X122363216Y-86410500D01*
X122363219Y-86410500D01*
X124256781Y-86410500D01*
X124256784Y-86410500D01*
X124297100Y-86407766D01*
X124471349Y-86364433D01*
X124632210Y-86284653D01*
X124772159Y-86172159D01*
X124884653Y-86032210D01*
X124964433Y-85871349D01*
X125007766Y-85697100D01*
X125010500Y-85656784D01*
X125010500Y-84263216D01*
X125007766Y-84222900D01*
X124964433Y-84048651D01*
X124884653Y-83887790D01*
X124772159Y-83747841D01*
X124632210Y-83635347D01*
X124471349Y-83555567D01*
X124297100Y-83512234D01*
X124297097Y-83512233D01*
X124297094Y-83512233D01*
X124267077Y-83510198D01*
X124256784Y-83509500D01*
X124256781Y-83509500D01*
X124084500Y-83509500D01*
X124036934Y-83492187D01*
X124011624Y-83448350D01*
X124010500Y-83435500D01*
X124010500Y-83084500D01*
X124027813Y-83036934D01*
X124071650Y-83011624D01*
X124084500Y-83010500D01*
X124256781Y-83010500D01*
X124256784Y-83010500D01*
X124297100Y-83007766D01*
X124471349Y-82964433D01*
X124632210Y-82884653D01*
X124772159Y-82772159D01*
X124884653Y-82632210D01*
X124964433Y-82471349D01*
X125007766Y-82297100D01*
X125010500Y-82256784D01*
X125010500Y-80880807D01*
X125027813Y-80833241D01*
X125032174Y-80828481D01*
X125978482Y-79882174D01*
X126024359Y-79860782D01*
X126030808Y-79860500D01*
X141937713Y-79860500D01*
X141939947Y-79860568D01*
X141960518Y-79861811D01*
X142002606Y-79864358D01*
X142064378Y-79853037D01*
X142066540Y-79852708D01*
X142128872Y-79845140D01*
X142142589Y-79839937D01*
X142155482Y-79836342D01*
X142169932Y-79833695D01*
X142227198Y-79807920D01*
X142229232Y-79807078D01*
X142287930Y-79784818D01*
X142300004Y-79776482D01*
X142311671Y-79769901D01*
X142325057Y-79763878D01*
X142374492Y-79725147D01*
X142376266Y-79723843D01*
X142384843Y-79717923D01*
X142427929Y-79688183D01*
X142469580Y-79641166D01*
X142471056Y-79639599D01*
X143328483Y-78782174D01*
X143374360Y-78760782D01*
X143380809Y-78760500D01*
X150133945Y-78760500D01*
X150181511Y-78777813D01*
X150206821Y-78821650D01*
X150198031Y-78871500D01*
X150173953Y-78896751D01*
X150148356Y-78913201D01*
X150143954Y-78916031D01*
X150143950Y-78916034D01*
X150059119Y-79013935D01*
X150005302Y-79131776D01*
X149986867Y-79259999D01*
X149989831Y-79280615D01*
X149979463Y-79330161D01*
X149968910Y-79343472D01*
X143649558Y-85662826D01*
X143603682Y-85684218D01*
X143597232Y-85684500D01*
X138894416Y-85684500D01*
X138879980Y-85683078D01*
X138860001Y-85679104D01*
X138859997Y-85679104D01*
X138835306Y-85684015D01*
X138835300Y-85684016D01*
X138769523Y-85697100D01*
X138752504Y-85700485D01*
X138686305Y-85744718D01*
X138661376Y-85761375D01*
X138661374Y-85761377D01*
X138650053Y-85778319D01*
X138640853Y-85789529D01*
X138621579Y-85808803D01*
X138575703Y-85830195D01*
X138526808Y-85817094D01*
X138497774Y-85775630D01*
X138497440Y-85738622D01*
X138507766Y-85697100D01*
X138510500Y-85656784D01*
X138510500Y-84263216D01*
X138507766Y-84222900D01*
X138464433Y-84048651D01*
X138384653Y-83887790D01*
X138272159Y-83747841D01*
X138132210Y-83635347D01*
X137971349Y-83555567D01*
X137797100Y-83512234D01*
X137797097Y-83512233D01*
X137797094Y-83512233D01*
X137767077Y-83510198D01*
X137756784Y-83509500D01*
X137756781Y-83509500D01*
X137584500Y-83509500D01*
X137536934Y-83492187D01*
X137513879Y-83452256D01*
X140452500Y-83452256D01*
X140455275Y-83481849D01*
X140455275Y-83481851D01*
X140455276Y-83481854D01*
X140498882Y-83606473D01*
X140520192Y-83635347D01*
X140577289Y-83712711D01*
X140624889Y-83747841D01*
X140683526Y-83791117D01*
X140808145Y-83834723D01*
X140808151Y-83834725D01*
X140837744Y-83837500D01*
X140837751Y-83837500D01*
X141418249Y-83837500D01*
X141418256Y-83837500D01*
X141447849Y-83834725D01*
X141504532Y-83814890D01*
X141572473Y-83791117D01*
X141572473Y-83791116D01*
X141572475Y-83791116D01*
X141678711Y-83712711D01*
X141757116Y-83606475D01*
X141800725Y-83481849D01*
X141803500Y-83452256D01*
X141803500Y-82771744D01*
X141800725Y-82742151D01*
X141762254Y-82632208D01*
X141757117Y-82617526D01*
X141736576Y-82589695D01*
X141678711Y-82511289D01*
X141572475Y-82432884D01*
X141572473Y-82432883D01*
X141484181Y-82401988D01*
X141452696Y-82380600D01*
X141432452Y-82357236D01*
X141432450Y-82357235D01*
X141432449Y-82357233D01*
X141338871Y-82297094D01*
X141323468Y-82287195D01*
X141199172Y-82250700D01*
X141069628Y-82250700D01*
X140945331Y-82287195D01*
X140836351Y-82357232D01*
X140821670Y-82374175D01*
X140790187Y-82395560D01*
X140683526Y-82432882D01*
X140577290Y-82511288D01*
X140577288Y-82511290D01*
X140498882Y-82617526D01*
X140455276Y-82742145D01*
X140455275Y-82742149D01*
X140455275Y-82742151D01*
X140452500Y-82771744D01*
X140452500Y-83452256D01*
X137513879Y-83452256D01*
X137511624Y-83448350D01*
X137510500Y-83435500D01*
X137510500Y-83084500D01*
X137527813Y-83036934D01*
X137571650Y-83011624D01*
X137584500Y-83010500D01*
X137756781Y-83010500D01*
X137756784Y-83010500D01*
X137797100Y-83007766D01*
X137971349Y-82964433D01*
X138132210Y-82884653D01*
X138272159Y-82772159D01*
X138384653Y-82632210D01*
X138464433Y-82471349D01*
X138507766Y-82297100D01*
X138510500Y-82256784D01*
X138510500Y-80863216D01*
X138507766Y-80822900D01*
X138464433Y-80648651D01*
X138384653Y-80487790D01*
X138272159Y-80347841D01*
X138132210Y-80235347D01*
X137971349Y-80155567D01*
X137797100Y-80112234D01*
X137797097Y-80112233D01*
X137797094Y-80112233D01*
X137767077Y-80110198D01*
X137756784Y-80109500D01*
X135863216Y-80109500D01*
X135853730Y-80110143D01*
X135822905Y-80112233D01*
X135822901Y-80112233D01*
X135822900Y-80112234D01*
X135648651Y-80155567D01*
X135648649Y-80155568D01*
X135487791Y-80235346D01*
X135347841Y-80347841D01*
X135235346Y-80487791D01*
X135185306Y-80588688D01*
X135155567Y-80648651D01*
X135121535Y-80785500D01*
X135112233Y-80822905D01*
X135109500Y-80863219D01*
X135109500Y-82256781D01*
X135112233Y-82297094D01*
X135112233Y-82297097D01*
X135112234Y-82297100D01*
X135155567Y-82471349D01*
X135235347Y-82632210D01*
X135347841Y-82772159D01*
X135487790Y-82884653D01*
X135648651Y-82964433D01*
X135822900Y-83007766D01*
X135863216Y-83010500D01*
X136035500Y-83010500D01*
X136083066Y-83027813D01*
X136108376Y-83071650D01*
X136109500Y-83084500D01*
X136109500Y-83435500D01*
X136092187Y-83483066D01*
X136048350Y-83508376D01*
X136035500Y-83509500D01*
X135863216Y-83509500D01*
X135853730Y-83510143D01*
X135822905Y-83512233D01*
X135822901Y-83512233D01*
X135822900Y-83512234D01*
X135648651Y-83555567D01*
X135648649Y-83555568D01*
X135487791Y-83635346D01*
X135347841Y-83747841D01*
X135235346Y-83887791D01*
X135198326Y-83962435D01*
X135155567Y-84048651D01*
X135112234Y-84222900D01*
X135112233Y-84222905D01*
X135109500Y-84263219D01*
X135109500Y-85541232D01*
X135092187Y-85588798D01*
X135048350Y-85614108D01*
X134998500Y-85605318D01*
X134983174Y-85593558D01*
X134979145Y-85589529D01*
X134969942Y-85578314D01*
X134958626Y-85561378D01*
X134958624Y-85561376D01*
X134958623Y-85561375D01*
X134938644Y-85548025D01*
X134938641Y-85548023D01*
X134899820Y-85522084D01*
X134867495Y-85500485D01*
X134867485Y-85500483D01*
X134787133Y-85484500D01*
X134787132Y-85484500D01*
X134787130Y-85484499D01*
X134760001Y-85479103D01*
X134760000Y-85479103D01*
X134740017Y-85483078D01*
X134725580Y-85484500D01*
X127194421Y-85484500D01*
X127179985Y-85483078D01*
X127160001Y-85479103D01*
X127159999Y-85479103D01*
X127052506Y-85500483D01*
X126986307Y-85544715D01*
X126986305Y-85544718D01*
X126961376Y-85561375D01*
X126961374Y-85561377D01*
X126950053Y-85578319D01*
X126940853Y-85589529D01*
X118369129Y-94161253D01*
X118357919Y-94170453D01*
X118340977Y-94181774D01*
X118340975Y-94181776D01*
X118280085Y-94272905D01*
X118279172Y-94277495D01*
X118258703Y-94380400D01*
X118262678Y-94400383D01*
X118264100Y-94414820D01*
X118264100Y-96147501D01*
X118246787Y-96195067D01*
X118202950Y-96220377D01*
X118190100Y-96221501D01*
X118139852Y-96221501D01*
X118116138Y-96226218D01*
X118081367Y-96233134D01*
X118015049Y-96277448D01*
X118015047Y-96277450D01*
X117966683Y-96349830D01*
X117964070Y-96348084D01*
X117938771Y-96375695D01*
X117888586Y-96382303D01*
X117845893Y-96355107D01*
X117842754Y-96349671D01*
X117842517Y-96349830D01*
X117813917Y-96307029D01*
X117794152Y-96277449D01*
X117765569Y-96258350D01*
X117727832Y-96233134D01*
X117727833Y-96233134D01*
X117693062Y-96226218D01*
X117669348Y-96221501D01*
X117669346Y-96221501D01*
X117645698Y-96221501D01*
X117611309Y-96213025D01*
X117519825Y-96165010D01*
X117395367Y-96134334D01*
X117354657Y-96124300D01*
X117354656Y-96124300D01*
X117184544Y-96124300D01*
X117184542Y-96124300D01*
X117104361Y-96144063D01*
X117019375Y-96165010D01*
X116927890Y-96213025D01*
X116893502Y-96221501D01*
X116869852Y-96221501D01*
X116846138Y-96226218D01*
X116811367Y-96233134D01*
X116745049Y-96277448D01*
X116745047Y-96277450D01*
X116696683Y-96349830D01*
X116694070Y-96348084D01*
X116668771Y-96375695D01*
X116618586Y-96382303D01*
X116575893Y-96355107D01*
X116572754Y-96349671D01*
X116572517Y-96349830D01*
X116543917Y-96307029D01*
X116524152Y-96277449D01*
X116495569Y-96258350D01*
X116457832Y-96233134D01*
X116457833Y-96233134D01*
X116423062Y-96226218D01*
X116399348Y-96221501D01*
X115599852Y-96221501D01*
X115576138Y-96226218D01*
X115541367Y-96233134D01*
X115475049Y-96277448D01*
X115475047Y-96277450D01*
X115430733Y-96343768D01*
X115428478Y-96355107D01*
X115419595Y-96399767D01*
X115419100Y-96402254D01*
X115419100Y-96556805D01*
X115406001Y-96598842D01*
X115374781Y-96644071D01*
X115314459Y-96803129D01*
X115299100Y-96929621D01*
X115299100Y-97596191D01*
X115281787Y-97643757D01*
X115277426Y-97648517D01*
X114842117Y-98083826D01*
X114796241Y-98105218D01*
X114789791Y-98105500D01*
X114534820Y-98105500D01*
X114408328Y-98120859D01*
X114249270Y-98181181D01*
X114109271Y-98277816D01*
X113996469Y-98405143D01*
X113996467Y-98405146D01*
X113982530Y-98431700D01*
X113922543Y-98545996D01*
X113917409Y-98555777D01*
X113876700Y-98720941D01*
X113876700Y-98891058D01*
X113914889Y-99045996D01*
X113917410Y-99056225D01*
X113992197Y-99198718D01*
X113996467Y-99206853D01*
X113996469Y-99206856D01*
X114029101Y-99243690D01*
X114109271Y-99334183D01*
X114249270Y-99430818D01*
X114408328Y-99491140D01*
X114534828Y-99506500D01*
X114644972Y-99506500D01*
X115088313Y-99506500D01*
X115090547Y-99506568D01*
X115111118Y-99507811D01*
X115153206Y-99510358D01*
X115214978Y-99499037D01*
X115217140Y-99498708D01*
X115279472Y-99491140D01*
X115293189Y-99485937D01*
X115306082Y-99482342D01*
X115320532Y-99479695D01*
X115377798Y-99453920D01*
X115379832Y-99453078D01*
X115438530Y-99430818D01*
X115450604Y-99422482D01*
X115462271Y-99415901D01*
X115475657Y-99409878D01*
X115525092Y-99371147D01*
X115526866Y-99369843D01*
X115578529Y-99334183D01*
X115620180Y-99287166D01*
X115621656Y-99285599D01*
X116442774Y-98464482D01*
X116488651Y-98443090D01*
X116537545Y-98456191D01*
X116566579Y-98497655D01*
X116569100Y-98516808D01*
X116569100Y-101869034D01*
X116551787Y-101916600D01*
X116507950Y-101941910D01*
X116465209Y-101934373D01*
X116464568Y-101935922D01*
X116457833Y-101933132D01*
X116425445Y-101926690D01*
X116399348Y-101921499D01*
X115599852Y-101921499D01*
X115573755Y-101926690D01*
X115541367Y-101933132D01*
X115475049Y-101977446D01*
X115475048Y-101977447D01*
X115438628Y-102031952D01*
X115397806Y-102061882D01*
X115347295Y-102058570D01*
X115310731Y-102023566D01*
X115303100Y-101990838D01*
X115303100Y-100795628D01*
X115303099Y-100795620D01*
X115287740Y-100669128D01*
X115227418Y-100510070D01*
X115130783Y-100370071D01*
X115003456Y-100257269D01*
X115003453Y-100257267D01*
X115003452Y-100257266D01*
X114852825Y-100178210D01*
X114852822Y-100178209D01*
X114687658Y-100137500D01*
X114687656Y-100137500D01*
X114517544Y-100137500D01*
X114517541Y-100137500D01*
X114352377Y-100178209D01*
X114352375Y-100178209D01*
X114352375Y-100178210D01*
X114277061Y-100217738D01*
X114201746Y-100257267D01*
X114201743Y-100257269D01*
X114074416Y-100370071D01*
X113977781Y-100510070D01*
X113917459Y-100669128D01*
X113902100Y-100795620D01*
X113902100Y-102522711D01*
X113902032Y-102524945D01*
X113898242Y-102587604D01*
X113909559Y-102649367D01*
X113909896Y-102651577D01*
X113917459Y-102713868D01*
X113917460Y-102713873D01*
X113922661Y-102727588D01*
X113926256Y-102740483D01*
X113928904Y-102754930D01*
X113954671Y-102812183D01*
X113955527Y-102814248D01*
X113977780Y-102872926D01*
X113986117Y-102885004D01*
X113992696Y-102896668D01*
X113998721Y-102910054D01*
X113998723Y-102910057D01*
X114037440Y-102959477D01*
X114038765Y-102961278D01*
X114070444Y-103007173D01*
X114074417Y-103012928D01*
X114121406Y-103054557D01*
X114123024Y-103056080D01*
X114127426Y-103060482D01*
X114148818Y-103106358D01*
X114149100Y-103112808D01*
X114149100Y-103241745D01*
X114160733Y-103300231D01*
X114172452Y-103317769D01*
X114205048Y-103366551D01*
X114213950Y-103372499D01*
X114271367Y-103410865D01*
X114271368Y-103410865D01*
X114271369Y-103410866D01*
X114329852Y-103422499D01*
X114329854Y-103422499D01*
X115129346Y-103422499D01*
X115129348Y-103422499D01*
X115187831Y-103410866D01*
X115254152Y-103366551D01*
X115287596Y-103316500D01*
X115302517Y-103294170D01*
X115305131Y-103295917D01*
X115330411Y-103268313D01*
X115380595Y-103261691D01*
X115423295Y-103288876D01*
X115426443Y-103294329D01*
X115426683Y-103294170D01*
X115442452Y-103317769D01*
X115475048Y-103366551D01*
X115483950Y-103372499D01*
X115541367Y-103410865D01*
X115541368Y-103410865D01*
X115541369Y-103410866D01*
X115599852Y-103422499D01*
X115599854Y-103422499D01*
X116399346Y-103422499D01*
X116399348Y-103422499D01*
X116457831Y-103410866D01*
X116496585Y-103384971D01*
X116537698Y-103372499D01*
X116731502Y-103372499D01*
X116772615Y-103384971D01*
X116811367Y-103410865D01*
X116811368Y-103410865D01*
X116811369Y-103410866D01*
X116869852Y-103422499D01*
X116869854Y-103422499D01*
X117669346Y-103422499D01*
X117669348Y-103422499D01*
X117727831Y-103410866D01*
X117794152Y-103366551D01*
X117827596Y-103316500D01*
X117842517Y-103294170D01*
X117845131Y-103295917D01*
X117870411Y-103268313D01*
X117920595Y-103261691D01*
X117963295Y-103288876D01*
X117966443Y-103294329D01*
X117966683Y-103294170D01*
X117982452Y-103317769D01*
X118015048Y-103366551D01*
X118023950Y-103372499D01*
X118081367Y-103410865D01*
X118081368Y-103410865D01*
X118081369Y-103410866D01*
X118139852Y-103422499D01*
X118139854Y-103422499D01*
X118939346Y-103422499D01*
X118939348Y-103422499D01*
X118997831Y-103410866D01*
X119064152Y-103366551D01*
X119108467Y-103300230D01*
X119120100Y-103241747D01*
X119120100Y-102511766D01*
X119137413Y-102464200D01*
X119141763Y-102459451D01*
X119433174Y-102168039D01*
X119479050Y-102146648D01*
X119527945Y-102159749D01*
X119556979Y-102201213D01*
X119559500Y-102220366D01*
X119559500Y-103868231D01*
X119542187Y-103915797D01*
X119537826Y-103920557D01*
X119097253Y-104361129D01*
X119051376Y-104382521D01*
X119003815Y-104370331D01*
X118997831Y-104366333D01*
X118997830Y-104366332D01*
X118997829Y-104366332D01*
X118962612Y-104359327D01*
X118939348Y-104354700D01*
X118139852Y-104354700D01*
X118110610Y-104360516D01*
X118081367Y-104366333D01*
X118015049Y-104410647D01*
X118015047Y-104410649D01*
X117966683Y-104483029D01*
X117964070Y-104481283D01*
X117938771Y-104508894D01*
X117888586Y-104515502D01*
X117845893Y-104488306D01*
X117842754Y-104482870D01*
X117842517Y-104483029D01*
X117809805Y-104434074D01*
X117794152Y-104410648D01*
X117750530Y-104381500D01*
X117727832Y-104366333D01*
X117727833Y-104366333D01*
X117698589Y-104360516D01*
X117669348Y-104354700D01*
X117669346Y-104354700D01*
X117549647Y-104354700D01*
X117509640Y-104342953D01*
X117458668Y-104310195D01*
X117334372Y-104273700D01*
X117204828Y-104273700D01*
X117080531Y-104310195D01*
X117029560Y-104342953D01*
X116989553Y-104354700D01*
X116869852Y-104354700D01*
X116840610Y-104360516D01*
X116811367Y-104366333D01*
X116745049Y-104410647D01*
X116745047Y-104410649D01*
X116696683Y-104483029D01*
X116694070Y-104481283D01*
X116668771Y-104508894D01*
X116618586Y-104515502D01*
X116575893Y-104488306D01*
X116572754Y-104482870D01*
X116572517Y-104483029D01*
X116539805Y-104434074D01*
X116524152Y-104410648D01*
X116480530Y-104381500D01*
X116457832Y-104366333D01*
X116457833Y-104366333D01*
X116428589Y-104360516D01*
X116399348Y-104354700D01*
X115599852Y-104354700D01*
X115570610Y-104360516D01*
X115541367Y-104366333D01*
X115475049Y-104410647D01*
X115475047Y-104410649D01*
X115430733Y-104476967D01*
X115419100Y-104535453D01*
X115419100Y-104690004D01*
X115406001Y-104732041D01*
X115374781Y-104777270D01*
X115314459Y-104936328D01*
X115299100Y-105062820D01*
X115299100Y-105602389D01*
X115281787Y-105649955D01*
X115277426Y-105654715D01*
X114718528Y-106213612D01*
X114672651Y-106235004D01*
X114670668Y-106235151D01*
X114655635Y-106236060D01*
X114651167Y-106236060D01*
X114630995Y-106234840D01*
X114616556Y-106237487D01*
X114603217Y-106238699D01*
X114560228Y-106238699D01*
X114511192Y-106244652D01*
X114509915Y-106244808D01*
X114507700Y-106245009D01*
X114506010Y-106245111D01*
X114504329Y-106245419D01*
X114502149Y-106245750D01*
X114488738Y-106247378D01*
X114433733Y-106254057D01*
X114433728Y-106254059D01*
X114274671Y-106314379D01*
X114274671Y-106314380D01*
X114134671Y-106411015D01*
X114021869Y-106538342D01*
X114021867Y-106538345D01*
X114021866Y-106538347D01*
X113957650Y-106660700D01*
X113942809Y-106688976D01*
X113902100Y-106854140D01*
X113902100Y-107024257D01*
X113938925Y-107173662D01*
X113942810Y-107189424D01*
X113996670Y-107292044D01*
X114021867Y-107340052D01*
X114021869Y-107340055D01*
X114091614Y-107418781D01*
X114134671Y-107467382D01*
X114274670Y-107564017D01*
X114335042Y-107586912D01*
X114347078Y-107592773D01*
X114354825Y-107597456D01*
X114363794Y-107602878D01*
X114386310Y-107609893D01*
X114402404Y-107614909D01*
X114406587Y-107616495D01*
X114443469Y-107633095D01*
X114483257Y-107640386D01*
X114487594Y-107641455D01*
X114526204Y-107653486D01*
X114566569Y-107655926D01*
X114570999Y-107656464D01*
X114610794Y-107663758D01*
X114651169Y-107661315D01*
X114655631Y-107661315D01*
X114696006Y-107663758D01*
X114735804Y-107656463D01*
X114740228Y-107655927D01*
X114780596Y-107653486D01*
X114814086Y-107643050D01*
X114836102Y-107639699D01*
X114961313Y-107639699D01*
X114963547Y-107639767D01*
X114984118Y-107641010D01*
X115026206Y-107643557D01*
X115087978Y-107632236D01*
X115090140Y-107631907D01*
X115152472Y-107624339D01*
X115166189Y-107619136D01*
X115179082Y-107615541D01*
X115193532Y-107612894D01*
X115250798Y-107587119D01*
X115252832Y-107586277D01*
X115311530Y-107564017D01*
X115323604Y-107555681D01*
X115335271Y-107549100D01*
X115348657Y-107543077D01*
X115398092Y-107504346D01*
X115399866Y-107503042D01*
X115418668Y-107490064D01*
X115451529Y-107467382D01*
X115493180Y-107420365D01*
X115494656Y-107418798D01*
X116442774Y-106470681D01*
X116488651Y-106449289D01*
X116537545Y-106462390D01*
X116566579Y-106503854D01*
X116569100Y-106523007D01*
X116569100Y-110002233D01*
X116551787Y-110049799D01*
X116507950Y-110075109D01*
X116465209Y-110067572D01*
X116464568Y-110069121D01*
X116457833Y-110066331D01*
X116428589Y-110060514D01*
X116399348Y-110054698D01*
X115599852Y-110054698D01*
X115570610Y-110060514D01*
X115541367Y-110066331D01*
X115475049Y-110110645D01*
X115475048Y-110110646D01*
X115438628Y-110165151D01*
X115397806Y-110195081D01*
X115347295Y-110191769D01*
X115310731Y-110156765D01*
X115303100Y-110124037D01*
X115303100Y-108923628D01*
X115303099Y-108923620D01*
X115287740Y-108797128D01*
X115227418Y-108638070D01*
X115130783Y-108498071D01*
X115003456Y-108385269D01*
X115003453Y-108385267D01*
X115003452Y-108385266D01*
X114852825Y-108306210D01*
X114852822Y-108306209D01*
X114687658Y-108265500D01*
X114687656Y-108265500D01*
X114517544Y-108265500D01*
X114517541Y-108265500D01*
X114352377Y-108306209D01*
X114201746Y-108385267D01*
X114201743Y-108385269D01*
X114074416Y-108498071D01*
X113977781Y-108638070D01*
X113917459Y-108797128D01*
X113902100Y-108923620D01*
X113902100Y-110655910D01*
X113902032Y-110658144D01*
X113898242Y-110720803D01*
X113909559Y-110782566D01*
X113909896Y-110784776D01*
X113917459Y-110847067D01*
X113917460Y-110847072D01*
X113922661Y-110860787D01*
X113926256Y-110873682D01*
X113928904Y-110888129D01*
X113954671Y-110945382D01*
X113955527Y-110947447D01*
X113977780Y-111006125D01*
X113977781Y-111006127D01*
X113977782Y-111006128D01*
X113983200Y-111013977D01*
X113986117Y-111018203D01*
X113992696Y-111029867D01*
X113998721Y-111043253D01*
X113998723Y-111043256D01*
X114037440Y-111092676D01*
X114038765Y-111094477D01*
X114070241Y-111140078D01*
X114074417Y-111146127D01*
X114121406Y-111187756D01*
X114123024Y-111189279D01*
X114127426Y-111193681D01*
X114148818Y-111239557D01*
X114149100Y-111246007D01*
X114149100Y-111374946D01*
X114156209Y-111410684D01*
X114160733Y-111433430D01*
X114166195Y-111441604D01*
X114205048Y-111499750D01*
X114242636Y-111524866D01*
X114271367Y-111544064D01*
X114271368Y-111544064D01*
X114271369Y-111544065D01*
X114329852Y-111555698D01*
X114329854Y-111555698D01*
X115129346Y-111555698D01*
X115129348Y-111555698D01*
X115187831Y-111544065D01*
X115254152Y-111499750D01*
X115293005Y-111441604D01*
X115302517Y-111427369D01*
X115305131Y-111429116D01*
X115330411Y-111401512D01*
X115380595Y-111394890D01*
X115423295Y-111422075D01*
X115426443Y-111427528D01*
X115426683Y-111427369D01*
X115436195Y-111441604D01*
X115475048Y-111499750D01*
X115512636Y-111524866D01*
X115541364Y-111544062D01*
X115541365Y-111544062D01*
X115541369Y-111544065D01*
X115541373Y-111544065D01*
X115546093Y-111546021D01*
X115583415Y-111580217D01*
X115590025Y-111630403D01*
X115562829Y-111673096D01*
X115534844Y-111686395D01*
X115347991Y-111730679D01*
X115347983Y-111730682D01*
X115019555Y-111850219D01*
X114707203Y-112007089D01*
X114415188Y-112199151D01*
X114147451Y-112423808D01*
X114147443Y-112423816D01*
X113907587Y-112678047D01*
X113698872Y-112958400D01*
X113698871Y-112958401D01*
X113524109Y-113261099D01*
X113524109Y-113261100D01*
X113502448Y-113311316D01*
X113467711Y-113348135D01*
X113417434Y-113354011D01*
X113375143Y-113326195D01*
X113360500Y-113282006D01*
X113360500Y-94691200D01*
X114172867Y-94691200D01*
X114191302Y-94819423D01*
X114191302Y-94819424D01*
X114191303Y-94819426D01*
X114245118Y-94937263D01*
X114309053Y-95011049D01*
X114311913Y-95014349D01*
X114325834Y-95038367D01*
X114350847Y-95109851D01*
X114359884Y-95135675D01*
X114438289Y-95241911D01*
X114486504Y-95277495D01*
X114544526Y-95320317D01*
X114669145Y-95363923D01*
X114669151Y-95363925D01*
X114698744Y-95366700D01*
X114698751Y-95366700D01*
X115379249Y-95366700D01*
X115379256Y-95366700D01*
X115408849Y-95363925D01*
X115485953Y-95336945D01*
X115533473Y-95320317D01*
X115533473Y-95320316D01*
X115533475Y-95320316D01*
X115639711Y-95241911D01*
X115718116Y-95135675D01*
X115761725Y-95011049D01*
X115764500Y-94981456D01*
X115764500Y-94400944D01*
X115761725Y-94371351D01*
X115755324Y-94353057D01*
X115718117Y-94246726D01*
X115681514Y-94197131D01*
X115639711Y-94140489D01*
X115574326Y-94092233D01*
X115533473Y-94062082D01*
X115408854Y-94018476D01*
X115408855Y-94018476D01*
X115408850Y-94018475D01*
X115408849Y-94018475D01*
X115379256Y-94015700D01*
X114698744Y-94015700D01*
X114669151Y-94018475D01*
X114669149Y-94018475D01*
X114669145Y-94018476D01*
X114544526Y-94062082D01*
X114438290Y-94140488D01*
X114438288Y-94140490D01*
X114359882Y-94246726D01*
X114325834Y-94344031D01*
X114311913Y-94368049D01*
X114245119Y-94445135D01*
X114245118Y-94445136D01*
X114191302Y-94562976D01*
X114172867Y-94691200D01*
X113360500Y-94691200D01*
X113360500Y-92506800D01*
X114198267Y-92506800D01*
X114216702Y-92635023D01*
X114216702Y-92635024D01*
X114216703Y-92635026D01*
X114270518Y-92752863D01*
X114298534Y-92785195D01*
X114314450Y-92822445D01*
X114315316Y-92822257D01*
X114316276Y-92826654D01*
X114359882Y-92951273D01*
X114389995Y-92992074D01*
X114438289Y-93057511D01*
X114515958Y-93114833D01*
X114544526Y-93135917D01*
X114669145Y-93179523D01*
X114669151Y-93179525D01*
X114698744Y-93182300D01*
X114698751Y-93182300D01*
X115379249Y-93182300D01*
X115379256Y-93182300D01*
X115408849Y-93179525D01*
X115492580Y-93150226D01*
X115533473Y-93135917D01*
X115533473Y-93135916D01*
X115533475Y-93135916D01*
X115639711Y-93057511D01*
X115718116Y-92951275D01*
X115718665Y-92949708D01*
X115752484Y-92853057D01*
X115761725Y-92826649D01*
X115764500Y-92797056D01*
X115764500Y-92216544D01*
X115761725Y-92186951D01*
X115746199Y-92142581D01*
X115718117Y-92062326D01*
X115682402Y-92013934D01*
X115639711Y-91956089D01*
X115577041Y-91909837D01*
X115533473Y-91877682D01*
X115408854Y-91834076D01*
X115408855Y-91834076D01*
X115408850Y-91834075D01*
X115408849Y-91834075D01*
X115379256Y-91831300D01*
X114698744Y-91831300D01*
X114669151Y-91834075D01*
X114669149Y-91834075D01*
X114669145Y-91834076D01*
X114544526Y-91877682D01*
X114438290Y-91956088D01*
X114438288Y-91956090D01*
X114359882Y-92062326D01*
X114316276Y-92186945D01*
X114315316Y-92191343D01*
X114314450Y-92191154D01*
X114298534Y-92228403D01*
X114270519Y-92260735D01*
X114270518Y-92260736D01*
X114216702Y-92378576D01*
X114198267Y-92506800D01*
X113360500Y-92506800D01*
X113360500Y-90297000D01*
X114172867Y-90297000D01*
X114191302Y-90425223D01*
X114191302Y-90425224D01*
X114191303Y-90425226D01*
X114222195Y-90492869D01*
X114245119Y-90543065D01*
X114245121Y-90543067D01*
X114298944Y-90605182D01*
X114315314Y-90637849D01*
X114316275Y-90642249D01*
X114350147Y-90739050D01*
X114359884Y-90766875D01*
X114438289Y-90873111D01*
X114514713Y-90929514D01*
X114544526Y-90951517D01*
X114669145Y-90995123D01*
X114669151Y-90995125D01*
X114698744Y-90997900D01*
X114698751Y-90997900D01*
X115379249Y-90997900D01*
X115379256Y-90997900D01*
X115408849Y-90995125D01*
X115465532Y-90975290D01*
X115533473Y-90951517D01*
X115533473Y-90951516D01*
X115533475Y-90951516D01*
X115639711Y-90873111D01*
X115718116Y-90766875D01*
X115727853Y-90739050D01*
X115761723Y-90642254D01*
X115761722Y-90642254D01*
X115761725Y-90642249D01*
X115764500Y-90612656D01*
X115764500Y-90032144D01*
X115761725Y-90002551D01*
X115760825Y-89999979D01*
X115718117Y-89877926D01*
X115675371Y-89820007D01*
X115639711Y-89771689D01*
X115565990Y-89717281D01*
X115533473Y-89693282D01*
X115408854Y-89649676D01*
X115408855Y-89649676D01*
X115408850Y-89649675D01*
X115408849Y-89649675D01*
X115379256Y-89646900D01*
X114698744Y-89646900D01*
X114669151Y-89649675D01*
X114669149Y-89649675D01*
X114669145Y-89649676D01*
X114544526Y-89693282D01*
X114438290Y-89771688D01*
X114438288Y-89771690D01*
X114359885Y-89877923D01*
X114340741Y-89932629D01*
X114326820Y-89956645D01*
X114245121Y-90050932D01*
X114245119Y-90050934D01*
X114191302Y-90168776D01*
X114172867Y-90297000D01*
X113360500Y-90297000D01*
X113360500Y-88163400D01*
X114172867Y-88163400D01*
X114191302Y-88291623D01*
X114191302Y-88291624D01*
X114191303Y-88291626D01*
X114234822Y-88386919D01*
X114245118Y-88409463D01*
X114245119Y-88409464D01*
X114304517Y-88478015D01*
X114318438Y-88502033D01*
X114359882Y-88620473D01*
X114400962Y-88676135D01*
X114438289Y-88726711D01*
X114516695Y-88784576D01*
X114544526Y-88805117D01*
X114669145Y-88848723D01*
X114669151Y-88848725D01*
X114698744Y-88851500D01*
X114698751Y-88851500D01*
X115379249Y-88851500D01*
X115379256Y-88851500D01*
X115408849Y-88848725D01*
X115465532Y-88828890D01*
X115533473Y-88805117D01*
X115533473Y-88805116D01*
X115533475Y-88805116D01*
X115639711Y-88726711D01*
X115718116Y-88620475D01*
X115761725Y-88495849D01*
X115764500Y-88466256D01*
X115764500Y-87885744D01*
X115761725Y-87856151D01*
X115756360Y-87840818D01*
X115718117Y-87731526D01*
X115690791Y-87694501D01*
X115639711Y-87625289D01*
X115589135Y-87587962D01*
X115533473Y-87546882D01*
X115408854Y-87503276D01*
X115408855Y-87503276D01*
X115408850Y-87503275D01*
X115408849Y-87503275D01*
X115379256Y-87500500D01*
X114698744Y-87500500D01*
X114669151Y-87503275D01*
X114669149Y-87503275D01*
X114669145Y-87503276D01*
X114544526Y-87546882D01*
X114438290Y-87625288D01*
X114438288Y-87625290D01*
X114359883Y-87731525D01*
X114333229Y-87807697D01*
X114319308Y-87831714D01*
X114245119Y-87917334D01*
X114245118Y-87917336D01*
X114191302Y-88035176D01*
X114172867Y-88163400D01*
X113360500Y-88163400D01*
X113360500Y-76998256D01*
X120787900Y-76998256D01*
X120790675Y-77027849D01*
X120790675Y-77027851D01*
X120790676Y-77027854D01*
X120834282Y-77152473D01*
X120875362Y-77208135D01*
X120912689Y-77258711D01*
X120940248Y-77279050D01*
X121018926Y-77337117D01*
X121143545Y-77380723D01*
X121143551Y-77380725D01*
X121173144Y-77383500D01*
X121173151Y-77383500D01*
X121853649Y-77383500D01*
X121853656Y-77383500D01*
X121883249Y-77380725D01*
X121944100Y-77359432D01*
X122007873Y-77337117D01*
X122007873Y-77337116D01*
X122007875Y-77337116D01*
X122114111Y-77258711D01*
X122192516Y-77152475D01*
X122231036Y-77042390D01*
X122244956Y-77018375D01*
X122262388Y-76998256D01*
X125867900Y-76998256D01*
X125870675Y-77027849D01*
X125870675Y-77027851D01*
X125870676Y-77027854D01*
X125914282Y-77152473D01*
X125955362Y-77208135D01*
X125992689Y-77258711D01*
X126020248Y-77279050D01*
X126098926Y-77337117D01*
X126223545Y-77380723D01*
X126223551Y-77380725D01*
X126253144Y-77383500D01*
X126253151Y-77383500D01*
X126933649Y-77383500D01*
X126933656Y-77383500D01*
X126963249Y-77380725D01*
X127024100Y-77359432D01*
X127087873Y-77337117D01*
X127087873Y-77337116D01*
X127087875Y-77337116D01*
X127194111Y-77258711D01*
X127272516Y-77152475D01*
X127311036Y-77042390D01*
X127324956Y-77018375D01*
X127343269Y-76997239D01*
X127380682Y-76954063D01*
X127434497Y-76836226D01*
X127452933Y-76708000D01*
X127434497Y-76579774D01*
X127380682Y-76461937D01*
X127380680Y-76461935D01*
X127380680Y-76461934D01*
X127380678Y-76461932D01*
X127324957Y-76397626D01*
X127311036Y-76373610D01*
X127272516Y-76263525D01*
X127194111Y-76157289D01*
X127123458Y-76105145D01*
X127087873Y-76078882D01*
X126963254Y-76035276D01*
X126963255Y-76035276D01*
X126963250Y-76035275D01*
X126963249Y-76035275D01*
X126933656Y-76032500D01*
X126253144Y-76032500D01*
X126223551Y-76035275D01*
X126223549Y-76035275D01*
X126223545Y-76035276D01*
X126098926Y-76078882D01*
X125992690Y-76157288D01*
X125992688Y-76157290D01*
X125914282Y-76263526D01*
X125870676Y-76388145D01*
X125870675Y-76388149D01*
X125870675Y-76388151D01*
X125867900Y-76417744D01*
X125867900Y-76998256D01*
X122262388Y-76998256D01*
X122263269Y-76997239D01*
X122300682Y-76954063D01*
X122354497Y-76836226D01*
X122372933Y-76708000D01*
X122354497Y-76579774D01*
X122300682Y-76461937D01*
X122300680Y-76461935D01*
X122300680Y-76461934D01*
X122300678Y-76461932D01*
X122244957Y-76397626D01*
X122231036Y-76373610D01*
X122192516Y-76263525D01*
X122114111Y-76157289D01*
X122043458Y-76105145D01*
X122007873Y-76078882D01*
X121883254Y-76035276D01*
X121883255Y-76035276D01*
X121883250Y-76035275D01*
X121883249Y-76035275D01*
X121853656Y-76032500D01*
X121173144Y-76032500D01*
X121143551Y-76035275D01*
X121143549Y-76035275D01*
X121143545Y-76035276D01*
X121018926Y-76078882D01*
X120912690Y-76157288D01*
X120912688Y-76157290D01*
X120834282Y-76263526D01*
X120790676Y-76388145D01*
X120790675Y-76388149D01*
X120790675Y-76388151D01*
X120787900Y-76417744D01*
X120787900Y-76998256D01*
X113360500Y-76998256D01*
X113360500Y-71568445D01*
X113377813Y-71520879D01*
X113421650Y-71495569D01*
X113471500Y-71504359D01*
X113502447Y-71539134D01*
X113506196Y-71547825D01*
X113554109Y-71658899D01*
X113554109Y-71658900D01*
X113728871Y-71961598D01*
X113728872Y-71961599D01*
X113855222Y-72131317D01*
X113937588Y-72241953D01*
X114177442Y-72496183D01*
X114177448Y-72496188D01*
X114177451Y-72496191D01*
X114374452Y-72661493D01*
X114445189Y-72720849D01*
X114737207Y-72912913D01*
X115049549Y-73069777D01*
X115049555Y-73069780D01*
X115377983Y-73189317D01*
X115377995Y-73189321D01*
X115718077Y-73269921D01*
X115718080Y-73269921D01*
X115718086Y-73269923D01*
X116065241Y-73310500D01*
X116414759Y-73310500D01*
X116761914Y-73269923D01*
X116841391Y-73251086D01*
X117102004Y-73189321D01*
X117102007Y-73189319D01*
X117102011Y-73189319D01*
X117281029Y-73124162D01*
X117430444Y-73069780D01*
X117430447Y-73069778D01*
X117430451Y-73069777D01*
X117742793Y-72912913D01*
X118034811Y-72720849D01*
X118302558Y-72496183D01*
X118542412Y-72241953D01*
X118751130Y-71961596D01*
X118925889Y-71658904D01*
X119064326Y-71337971D01*
X119064327Y-71337967D01*
X119064328Y-71337966D01*
X119164567Y-71003143D01*
X119164567Y-71003142D01*
X119164569Y-71003136D01*
X119225262Y-70658927D01*
X119245585Y-70310000D01*
X119225262Y-69961073D01*
X119164569Y-69616864D01*
X119164567Y-69616856D01*
X119064328Y-69282033D01*
X119064326Y-69282030D01*
X119058639Y-69268846D01*
X118925889Y-68961096D01*
X118751130Y-68658404D01*
X118542412Y-68378047D01*
X118302558Y-68123817D01*
X118302551Y-68123811D01*
X118302548Y-68123808D01*
X118034811Y-67899151D01*
X117742793Y-67707087D01*
X117530816Y-67600628D01*
X117496080Y-67563810D01*
X117493137Y-67513276D01*
X117523364Y-67472674D01*
X117564028Y-67460500D01*
X159185972Y-67460500D01*
X159233538Y-67477813D01*
G37*
G04 #@! TD.AperFunction*
G04 #@! TA.AperFunction,Conductor*
G36*
X124526239Y-93067196D02*
G01*
X124532822Y-93073038D01*
X126762826Y-95303042D01*
X126784218Y-95348918D01*
X126784500Y-95355368D01*
X126784500Y-95662699D01*
X126767187Y-95710265D01*
X126765198Y-95712286D01*
X126677119Y-95813935D01*
X126677118Y-95813936D01*
X126677118Y-95813937D01*
X126662932Y-95845000D01*
X126623302Y-95931776D01*
X126604867Y-96060000D01*
X126623302Y-96188223D01*
X126623302Y-96188224D01*
X126623303Y-96188226D01*
X126635421Y-96214760D01*
X126639432Y-96265218D01*
X126610071Y-96306452D01*
X126568108Y-96319500D01*
X126186126Y-96319500D01*
X126145014Y-96307029D01*
X126118231Y-96289133D01*
X126059748Y-96277500D01*
X125260252Y-96277500D01*
X125231010Y-96283316D01*
X125201767Y-96289133D01*
X125135449Y-96333447D01*
X125135447Y-96333449D01*
X125087083Y-96405829D01*
X125084470Y-96404083D01*
X125059171Y-96431694D01*
X125008986Y-96438302D01*
X124966293Y-96411106D01*
X124963154Y-96405670D01*
X124962917Y-96405829D01*
X124929024Y-96355107D01*
X124914552Y-96333448D01*
X124875014Y-96307029D01*
X124848232Y-96289133D01*
X124848233Y-96289133D01*
X124818989Y-96283316D01*
X124789748Y-96277500D01*
X124789746Y-96277500D01*
X124776004Y-96277500D01*
X124741615Y-96269024D01*
X124640225Y-96215810D01*
X124640222Y-96215809D01*
X124475058Y-96175100D01*
X124475056Y-96175100D01*
X124304944Y-96175100D01*
X124304941Y-96175100D01*
X124139777Y-96215809D01*
X124139775Y-96215809D01*
X124139775Y-96215810D01*
X124038384Y-96269024D01*
X124003996Y-96277500D01*
X123990252Y-96277500D01*
X123961010Y-96283316D01*
X123931767Y-96289133D01*
X123865449Y-96333447D01*
X123865447Y-96333449D01*
X123817083Y-96405829D01*
X123814470Y-96404083D01*
X123789171Y-96431694D01*
X123738986Y-96438302D01*
X123696293Y-96411106D01*
X123693154Y-96405670D01*
X123692917Y-96405829D01*
X123659024Y-96355107D01*
X123644552Y-96333448D01*
X123605014Y-96307029D01*
X123578232Y-96289133D01*
X123578233Y-96289133D01*
X123548989Y-96283316D01*
X123519748Y-96277500D01*
X122720252Y-96277500D01*
X122691010Y-96283316D01*
X122661767Y-96289133D01*
X122595449Y-96333447D01*
X122595447Y-96333449D01*
X122551133Y-96399767D01*
X122539500Y-96458253D01*
X122539500Y-96612804D01*
X122526401Y-96654841D01*
X122495181Y-96700070D01*
X122434859Y-96859128D01*
X122419500Y-96985620D01*
X122419500Y-97652190D01*
X122402187Y-97699756D01*
X122397826Y-97704516D01*
X121962517Y-98139825D01*
X121916641Y-98161217D01*
X121910191Y-98161499D01*
X121815887Y-98161499D01*
X121802120Y-98160207D01*
X121796730Y-98159186D01*
X121789953Y-98157903D01*
X121725099Y-98161444D01*
X121723082Y-98161499D01*
X121706357Y-98161499D01*
X121624920Y-98160664D01*
X121581863Y-98170810D01*
X121577835Y-98171527D01*
X121533929Y-98176858D01*
X121533925Y-98176859D01*
X121499647Y-98189858D01*
X121495012Y-98191276D01*
X121459339Y-98199683D01*
X121419977Y-98219830D01*
X121416238Y-98221490D01*
X121374871Y-98237179D01*
X121344696Y-98258006D01*
X121340534Y-98260493D01*
X121307910Y-98277193D01*
X121307908Y-98277193D01*
X121274503Y-98306183D01*
X121271270Y-98308690D01*
X121234870Y-98333815D01*
X121210564Y-98361250D01*
X121207118Y-98364661D01*
X121179432Y-98388687D01*
X121153931Y-98424834D01*
X121151392Y-98428041D01*
X121122065Y-98461145D01*
X121122063Y-98461147D01*
X121105035Y-98493594D01*
X121102505Y-98497731D01*
X121081372Y-98527689D01*
X121065264Y-98568882D01*
X121063566Y-98572605D01*
X121043010Y-98611771D01*
X121041424Y-98615955D01*
X121039439Y-98615202D01*
X121015547Y-98650818D01*
X120966924Y-98664894D01*
X120920630Y-98644422D01*
X120898325Y-98598982D01*
X120897900Y-98591061D01*
X120897900Y-96542368D01*
X120915213Y-96494802D01*
X120919574Y-96490042D01*
X123877442Y-93532174D01*
X123923318Y-93510782D01*
X123929768Y-93510500D01*
X124024772Y-93510500D01*
X124149069Y-93474004D01*
X124258049Y-93403967D01*
X124342882Y-93306063D01*
X124396697Y-93188226D01*
X124407249Y-93114832D01*
X124431155Y-93070215D01*
X124478148Y-93051401D01*
X124526239Y-93067196D01*
G37*
G04 #@! TD.AperFunction*
G04 #@! TA.AperFunction,Conductor*
G36*
X132263797Y-87252813D02*
G01*
X132289107Y-87296650D01*
X132280317Y-87346500D01*
X132268557Y-87361826D01*
X132189529Y-87440853D01*
X132178319Y-87450053D01*
X132161377Y-87461374D01*
X132161375Y-87461376D01*
X132133379Y-87503276D01*
X132100485Y-87552505D01*
X132085049Y-87630106D01*
X132082076Y-87645053D01*
X132079103Y-87659999D01*
X132079103Y-87667289D01*
X132075848Y-87667289D01*
X132070192Y-87703991D01*
X132061247Y-87716845D01*
X131977120Y-87813932D01*
X131977119Y-87813934D01*
X131923302Y-87931776D01*
X131904867Y-88060000D01*
X131923302Y-88188223D01*
X131923302Y-88188224D01*
X131923303Y-88188226D01*
X131969673Y-88289761D01*
X131973684Y-88340219D01*
X131944323Y-88381452D01*
X131902360Y-88394500D01*
X131621999Y-88394500D01*
X131574433Y-88377187D01*
X131549123Y-88333350D01*
X131547999Y-88320500D01*
X131547999Y-88280688D01*
X131547998Y-88280687D01*
X131541682Y-88221922D01*
X131541680Y-88221917D01*
X131492103Y-88088995D01*
X131492102Y-88088994D01*
X131466952Y-88055398D01*
X131407081Y-87975419D01*
X131293506Y-87890398D01*
X131293505Y-87890397D01*
X131293504Y-87890396D01*
X131160582Y-87840819D01*
X131160576Y-87840817D01*
X131101812Y-87834500D01*
X130218188Y-87834500D01*
X130218187Y-87834501D01*
X130159419Y-87840818D01*
X130026495Y-87890396D01*
X130026494Y-87890397D01*
X129912919Y-87975419D01*
X129827897Y-88088994D01*
X129827896Y-88088995D01*
X129778319Y-88221917D01*
X129778317Y-88221923D01*
X129772000Y-88280687D01*
X129772000Y-89153877D01*
X129754687Y-89201443D01*
X129710850Y-89226753D01*
X129677152Y-89224880D01*
X129624772Y-89209500D01*
X129495228Y-89209500D01*
X129370931Y-89245995D01*
X129261954Y-89316031D01*
X129261950Y-89316034D01*
X129177119Y-89413935D01*
X129123302Y-89531776D01*
X129104867Y-89660000D01*
X129123302Y-89788223D01*
X129123302Y-89788224D01*
X129123303Y-89788226D01*
X129177118Y-89906063D01*
X129261951Y-90003967D01*
X129370931Y-90074004D01*
X129495228Y-90110500D01*
X129590232Y-90110500D01*
X129637798Y-90127813D01*
X129642558Y-90132174D01*
X130203558Y-90693174D01*
X130224950Y-90739050D01*
X130211849Y-90787945D01*
X130170385Y-90816979D01*
X130151232Y-90819500D01*
X125359421Y-90819500D01*
X125344985Y-90818078D01*
X125325001Y-90814103D01*
X125324999Y-90814103D01*
X125217506Y-90835483D01*
X125151311Y-90879712D01*
X125151306Y-90879717D01*
X125149378Y-90881006D01*
X125149376Y-90881007D01*
X125126376Y-90896376D01*
X125126375Y-90896376D01*
X125125401Y-90897028D01*
X125084287Y-90909500D01*
X124995228Y-90909500D01*
X124903762Y-90936356D01*
X124853245Y-90933145D01*
X124816610Y-90898213D01*
X124811000Y-90847906D01*
X124830588Y-90813027D01*
X126212610Y-89431006D01*
X128386442Y-87257174D01*
X128432318Y-87235782D01*
X128438768Y-87235500D01*
X132216231Y-87235500D01*
X132263797Y-87252813D01*
G37*
G04 #@! TD.AperFunction*
M02*
