G04 #@! TF.GenerationSoftware,KiCad,Pcbnew,7.0.9*
G04 #@! TF.CreationDate,2024-07-10T10:25:31+09:00*
G04 #@! TF.ProjectId,ODAmain,4f44416d-6169-46e2-9e6b-696361645f70,rev?*
G04 #@! TF.SameCoordinates,Original*
G04 #@! TF.FileFunction,Legend,Bot*
G04 #@! TF.FilePolarity,Positive*
%FSLAX46Y46*%
G04 Gerber Fmt 4.6, Leading zero omitted, Abs format (unit mm)*
G04 Created by KiCad (PCBNEW 7.0.9) date 2024-07-10 10:25:31*
%MOMM*%
%LPD*%
G01*
G04 APERTURE LIST*
G04 Aperture macros list*
%AMRoundRect*
0 Rectangle with rounded corners*
0 $1 Rounding radius*
0 $2 $3 $4 $5 $6 $7 $8 $9 X,Y pos of 4 corners*
0 Add a 4 corners polygon primitive as box body*
4,1,4,$2,$3,$4,$5,$6,$7,$8,$9,$2,$3,0*
0 Add four circle primitives for the rounded corners*
1,1,$1+$1,$2,$3*
1,1,$1+$1,$4,$5*
1,1,$1+$1,$6,$7*
1,1,$1+$1,$8,$9*
0 Add four rect primitives between the rounded corners*
20,1,$1+$1,$2,$3,$4,$5,0*
20,1,$1+$1,$4,$5,$6,$7,0*
20,1,$1+$1,$6,$7,$8,$9,0*
20,1,$1+$1,$8,$9,$2,$3,0*%
G04 Aperture macros list end*
%ADD10C,0.153000*%
%ADD11C,0.120000*%
%ADD12C,0.100000*%
%ADD13C,2.000000*%
%ADD14R,1.700000X1.700000*%
%ADD15O,1.700000X1.700000*%
%ADD16RoundRect,0.250000X0.725000X-0.600000X0.725000X0.600000X-0.725000X0.600000X-0.725000X-0.600000X0*%
%ADD17O,1.950000X1.700000*%
%ADD18C,1.000000*%
%ADD19C,5.600000*%
%ADD20RoundRect,0.250000X0.600000X0.725000X-0.600000X0.725000X-0.600000X-0.725000X0.600000X-0.725000X0*%
%ADD21O,1.700000X1.950000*%
%ADD22O,1.800000X1.524000*%
%ADD23R,1.800000X2.200000*%
%ADD24O,1.800000X2.200000*%
%ADD25C,1.998980*%
%ADD26O,2.800000X2.000000*%
%ADD27R,0.800000X1.800000*%
%ADD28RoundRect,0.237500X0.400000X0.237500X-0.400000X0.237500X-0.400000X-0.237500X0.400000X-0.237500X0*%
%ADD29RoundRect,0.237500X-0.400000X-0.237500X0.400000X-0.237500X0.400000X0.237500X-0.400000X0.237500X0*%
%ADD30R,1.000000X1.000000*%
%ADD31R,2.000000X0.600000*%
%ADD32RoundRect,0.237500X0.237500X-0.400000X0.237500X0.400000X-0.237500X0.400000X-0.237500X-0.400000X0*%
%ADD33RoundRect,0.237500X-0.237500X0.400000X-0.237500X-0.400000X0.237500X-0.400000X0.237500X0.400000X0*%
%ADD34R,2.200000X1.200000*%
%ADD35R,6.400000X5.800000*%
G04 APERTURE END LIST*
D10*
X153630336Y-89499999D02*
X153630336Y-88928571D01*
X152630336Y-89214285D02*
X153630336Y-89214285D01*
X153630336Y-88309523D02*
X152916051Y-88309523D01*
X152916051Y-88309523D02*
X152773194Y-88357142D01*
X152773194Y-88357142D02*
X152677956Y-88452380D01*
X152677956Y-88452380D02*
X152630336Y-88595237D01*
X152630336Y-88595237D02*
X152630336Y-88690475D01*
X152630336Y-87309523D02*
X152630336Y-87880951D01*
X152630336Y-87595237D02*
X153630336Y-87595237D01*
X153630336Y-87595237D02*
X153487479Y-87690475D01*
X153487479Y-87690475D02*
X153392241Y-87785713D01*
X153392241Y-87785713D02*
X153344622Y-87880951D01*
X153297003Y-86452380D02*
X152630336Y-86452380D01*
X153677956Y-86690475D02*
X152963670Y-86928570D01*
X152963670Y-86928570D02*
X152963670Y-86309523D01*
X153297003Y-85499999D02*
X152630336Y-85499999D01*
X153677956Y-85738094D02*
X152963670Y-85976189D01*
X152963670Y-85976189D02*
X152963670Y-85357142D01*
X152630336Y-84452380D02*
X152630336Y-85023808D01*
X152630336Y-84738094D02*
X153630336Y-84738094D01*
X153630336Y-84738094D02*
X153487479Y-84833332D01*
X153487479Y-84833332D02*
X153392241Y-84928570D01*
X153392241Y-84928570D02*
X153344622Y-85023808D01*
X152916051Y-84071427D02*
X152916051Y-83595237D01*
X152630336Y-84166665D02*
X153630336Y-83833332D01*
X153630336Y-83833332D02*
X152630336Y-83499999D01*
X167630336Y-89499999D02*
X167630336Y-88928571D01*
X166630336Y-89214285D02*
X167630336Y-89214285D01*
X167630336Y-88309523D02*
X166916051Y-88309523D01*
X166916051Y-88309523D02*
X166773194Y-88357142D01*
X166773194Y-88357142D02*
X166677956Y-88452380D01*
X166677956Y-88452380D02*
X166630336Y-88595237D01*
X166630336Y-88595237D02*
X166630336Y-88690475D01*
X166630336Y-87309523D02*
X166630336Y-87880951D01*
X166630336Y-87595237D02*
X167630336Y-87595237D01*
X167630336Y-87595237D02*
X167487479Y-87690475D01*
X167487479Y-87690475D02*
X167392241Y-87785713D01*
X167392241Y-87785713D02*
X167344622Y-87880951D01*
X167297003Y-86452380D02*
X166630336Y-86452380D01*
X167677956Y-86690475D02*
X166963670Y-86928570D01*
X166963670Y-86928570D02*
X166963670Y-86309523D01*
X167297003Y-85499999D02*
X166630336Y-85499999D01*
X167677956Y-85738094D02*
X166963670Y-85976189D01*
X166963670Y-85976189D02*
X166963670Y-85357142D01*
X166630336Y-84452380D02*
X166630336Y-85023808D01*
X166630336Y-84738094D02*
X167630336Y-84738094D01*
X167630336Y-84738094D02*
X167487479Y-84833332D01*
X167487479Y-84833332D02*
X167392241Y-84928570D01*
X167392241Y-84928570D02*
X167344622Y-85023808D01*
X166916051Y-84071427D02*
X166916051Y-83595237D01*
X166630336Y-84166665D02*
X167630336Y-83833332D01*
X167630336Y-83833332D02*
X166630336Y-83499999D01*
X111407044Y-115172619D02*
X111454663Y-115315476D01*
X111454663Y-115315476D02*
X111454663Y-115553571D01*
X111454663Y-115553571D02*
X111407044Y-115648809D01*
X111407044Y-115648809D02*
X111359424Y-115696428D01*
X111359424Y-115696428D02*
X111264186Y-115744047D01*
X111264186Y-115744047D02*
X111168948Y-115744047D01*
X111168948Y-115744047D02*
X111073710Y-115696428D01*
X111073710Y-115696428D02*
X111026091Y-115648809D01*
X111026091Y-115648809D02*
X110978472Y-115553571D01*
X110978472Y-115553571D02*
X110930853Y-115363095D01*
X110930853Y-115363095D02*
X110883234Y-115267857D01*
X110883234Y-115267857D02*
X110835615Y-115220238D01*
X110835615Y-115220238D02*
X110740377Y-115172619D01*
X110740377Y-115172619D02*
X110645139Y-115172619D01*
X110645139Y-115172619D02*
X110549901Y-115220238D01*
X110549901Y-115220238D02*
X110502282Y-115267857D01*
X110502282Y-115267857D02*
X110454663Y-115363095D01*
X110454663Y-115363095D02*
X110454663Y-115601190D01*
X110454663Y-115601190D02*
X110502282Y-115744047D01*
X110454663Y-116029762D02*
X110454663Y-116601190D01*
X111454663Y-116315476D02*
X110454663Y-116315476D01*
X111073710Y-116934524D02*
X111073710Y-117696429D01*
X111454663Y-118648809D02*
X111454663Y-118172619D01*
X111454663Y-118172619D02*
X110454663Y-118172619D01*
X111454663Y-118982143D02*
X110454663Y-118982143D01*
X111454663Y-119458333D02*
X110454663Y-119458333D01*
X110454663Y-119458333D02*
X111454663Y-120029761D01*
X111454663Y-120029761D02*
X110454663Y-120029761D01*
X111454663Y-120505952D02*
X110454663Y-120505952D01*
X111454663Y-121077380D02*
X110883234Y-120648809D01*
X110454663Y-121077380D02*
X111026091Y-120505952D01*
X134214285Y-98549901D02*
X134166666Y-98502282D01*
X134166666Y-98502282D02*
X134071428Y-98454663D01*
X134071428Y-98454663D02*
X133833333Y-98454663D01*
X133833333Y-98454663D02*
X133738095Y-98502282D01*
X133738095Y-98502282D02*
X133690476Y-98549901D01*
X133690476Y-98549901D02*
X133642857Y-98645139D01*
X133642857Y-98645139D02*
X133642857Y-98740377D01*
X133642857Y-98740377D02*
X133690476Y-98883234D01*
X133690476Y-98883234D02*
X134261904Y-99454663D01*
X134261904Y-99454663D02*
X133642857Y-99454663D01*
X133261904Y-99407044D02*
X133119047Y-99454663D01*
X133119047Y-99454663D02*
X132880952Y-99454663D01*
X132880952Y-99454663D02*
X132785714Y-99407044D01*
X132785714Y-99407044D02*
X132738095Y-99359424D01*
X132738095Y-99359424D02*
X132690476Y-99264186D01*
X132690476Y-99264186D02*
X132690476Y-99168948D01*
X132690476Y-99168948D02*
X132738095Y-99073710D01*
X132738095Y-99073710D02*
X132785714Y-99026091D01*
X132785714Y-99026091D02*
X132880952Y-98978472D01*
X132880952Y-98978472D02*
X133071428Y-98930853D01*
X133071428Y-98930853D02*
X133166666Y-98883234D01*
X133166666Y-98883234D02*
X133214285Y-98835615D01*
X133214285Y-98835615D02*
X133261904Y-98740377D01*
X133261904Y-98740377D02*
X133261904Y-98645139D01*
X133261904Y-98645139D02*
X133214285Y-98549901D01*
X133214285Y-98549901D02*
X133166666Y-98502282D01*
X133166666Y-98502282D02*
X133071428Y-98454663D01*
X133071428Y-98454663D02*
X132833333Y-98454663D01*
X132833333Y-98454663D02*
X132690476Y-98502282D01*
X131690476Y-99359424D02*
X131738095Y-99407044D01*
X131738095Y-99407044D02*
X131880952Y-99454663D01*
X131880952Y-99454663D02*
X131976190Y-99454663D01*
X131976190Y-99454663D02*
X132119047Y-99407044D01*
X132119047Y-99407044D02*
X132214285Y-99311805D01*
X132214285Y-99311805D02*
X132261904Y-99216567D01*
X132261904Y-99216567D02*
X132309523Y-99026091D01*
X132309523Y-99026091D02*
X132309523Y-98883234D01*
X132309523Y-98883234D02*
X132261904Y-98692758D01*
X132261904Y-98692758D02*
X132214285Y-98597520D01*
X132214285Y-98597520D02*
X132119047Y-98502282D01*
X132119047Y-98502282D02*
X131976190Y-98454663D01*
X131976190Y-98454663D02*
X131880952Y-98454663D01*
X131880952Y-98454663D02*
X131738095Y-98502282D01*
X131738095Y-98502282D02*
X131690476Y-98549901D01*
X131357142Y-98454663D02*
X130738095Y-98454663D01*
X130738095Y-98454663D02*
X131071428Y-98835615D01*
X131071428Y-98835615D02*
X130928571Y-98835615D01*
X130928571Y-98835615D02*
X130833333Y-98883234D01*
X130833333Y-98883234D02*
X130785714Y-98930853D01*
X130785714Y-98930853D02*
X130738095Y-99026091D01*
X130738095Y-99026091D02*
X130738095Y-99264186D01*
X130738095Y-99264186D02*
X130785714Y-99359424D01*
X130785714Y-99359424D02*
X130833333Y-99407044D01*
X130833333Y-99407044D02*
X130928571Y-99454663D01*
X130928571Y-99454663D02*
X131214285Y-99454663D01*
X131214285Y-99454663D02*
X131309523Y-99407044D01*
X131309523Y-99407044D02*
X131357142Y-99359424D01*
X130357142Y-98549901D02*
X130309523Y-98502282D01*
X130309523Y-98502282D02*
X130214285Y-98454663D01*
X130214285Y-98454663D02*
X129976190Y-98454663D01*
X129976190Y-98454663D02*
X129880952Y-98502282D01*
X129880952Y-98502282D02*
X129833333Y-98549901D01*
X129833333Y-98549901D02*
X129785714Y-98645139D01*
X129785714Y-98645139D02*
X129785714Y-98740377D01*
X129785714Y-98740377D02*
X129833333Y-98883234D01*
X129833333Y-98883234D02*
X130404761Y-99454663D01*
X130404761Y-99454663D02*
X129785714Y-99454663D01*
X128928571Y-98454663D02*
X129119047Y-98454663D01*
X129119047Y-98454663D02*
X129214285Y-98502282D01*
X129214285Y-98502282D02*
X129261904Y-98549901D01*
X129261904Y-98549901D02*
X129357142Y-98692758D01*
X129357142Y-98692758D02*
X129404761Y-98883234D01*
X129404761Y-98883234D02*
X129404761Y-99264186D01*
X129404761Y-99264186D02*
X129357142Y-99359424D01*
X129357142Y-99359424D02*
X129309523Y-99407044D01*
X129309523Y-99407044D02*
X129214285Y-99454663D01*
X129214285Y-99454663D02*
X129023809Y-99454663D01*
X129023809Y-99454663D02*
X128928571Y-99407044D01*
X128928571Y-99407044D02*
X128880952Y-99359424D01*
X128880952Y-99359424D02*
X128833333Y-99264186D01*
X128833333Y-99264186D02*
X128833333Y-99026091D01*
X128833333Y-99026091D02*
X128880952Y-98930853D01*
X128880952Y-98930853D02*
X128928571Y-98883234D01*
X128928571Y-98883234D02*
X129023809Y-98835615D01*
X129023809Y-98835615D02*
X129214285Y-98835615D01*
X129214285Y-98835615D02*
X129309523Y-98883234D01*
X129309523Y-98883234D02*
X129357142Y-98930853D01*
X129357142Y-98930853D02*
X129404761Y-99026091D01*
X127928571Y-98454663D02*
X128404761Y-98454663D01*
X128404761Y-98454663D02*
X128452380Y-98930853D01*
X128452380Y-98930853D02*
X128404761Y-98883234D01*
X128404761Y-98883234D02*
X128309523Y-98835615D01*
X128309523Y-98835615D02*
X128071428Y-98835615D01*
X128071428Y-98835615D02*
X127976190Y-98883234D01*
X127976190Y-98883234D02*
X127928571Y-98930853D01*
X127928571Y-98930853D02*
X127880952Y-99026091D01*
X127880952Y-99026091D02*
X127880952Y-99264186D01*
X127880952Y-99264186D02*
X127928571Y-99359424D01*
X127928571Y-99359424D02*
X127976190Y-99407044D01*
X127976190Y-99407044D02*
X128071428Y-99454663D01*
X128071428Y-99454663D02*
X128309523Y-99454663D01*
X128309523Y-99454663D02*
X128404761Y-99407044D01*
X128404761Y-99407044D02*
X128452380Y-99359424D01*
X127452380Y-99073710D02*
X126690476Y-99073710D01*
X126023809Y-98978472D02*
X126023809Y-99454663D01*
X126357142Y-98454663D02*
X126023809Y-98978472D01*
X126023809Y-98978472D02*
X125690476Y-98454663D01*
X133333333Y-117454663D02*
X133904761Y-117454663D01*
X133619047Y-117454663D02*
X133619047Y-116454663D01*
X133619047Y-116454663D02*
X133714285Y-116597520D01*
X133714285Y-116597520D02*
X133809523Y-116692758D01*
X133809523Y-116692758D02*
X133904761Y-116740377D01*
X132904761Y-117359424D02*
X132857142Y-117407044D01*
X132857142Y-117407044D02*
X132904761Y-117454663D01*
X132904761Y-117454663D02*
X132952380Y-117407044D01*
X132952380Y-117407044D02*
X132904761Y-117359424D01*
X132904761Y-117359424D02*
X132904761Y-117454663D01*
X131952381Y-116454663D02*
X132428571Y-116454663D01*
X132428571Y-116454663D02*
X132476190Y-116930853D01*
X132476190Y-116930853D02*
X132428571Y-116883234D01*
X132428571Y-116883234D02*
X132333333Y-116835615D01*
X132333333Y-116835615D02*
X132095238Y-116835615D01*
X132095238Y-116835615D02*
X132000000Y-116883234D01*
X132000000Y-116883234D02*
X131952381Y-116930853D01*
X131952381Y-116930853D02*
X131904762Y-117026091D01*
X131904762Y-117026091D02*
X131904762Y-117264186D01*
X131904762Y-117264186D02*
X131952381Y-117359424D01*
X131952381Y-117359424D02*
X132000000Y-117407044D01*
X132000000Y-117407044D02*
X132095238Y-117454663D01*
X132095238Y-117454663D02*
X132333333Y-117454663D01*
X132333333Y-117454663D02*
X132428571Y-117407044D01*
X132428571Y-117407044D02*
X132476190Y-117359424D01*
X131476190Y-117454663D02*
X131476190Y-116454663D01*
X131380952Y-117073710D02*
X131095238Y-117454663D01*
X131095238Y-116787996D02*
X131476190Y-117168948D01*
X126345238Y-128134663D02*
X126916666Y-128134663D01*
X126630952Y-128134663D02*
X126630952Y-127134663D01*
X126630952Y-127134663D02*
X126726190Y-127277520D01*
X126726190Y-127277520D02*
X126821428Y-127372758D01*
X126821428Y-127372758D02*
X126916666Y-127420377D01*
X125726190Y-127134663D02*
X125630952Y-127134663D01*
X125630952Y-127134663D02*
X125535714Y-127182282D01*
X125535714Y-127182282D02*
X125488095Y-127229901D01*
X125488095Y-127229901D02*
X125440476Y-127325139D01*
X125440476Y-127325139D02*
X125392857Y-127515615D01*
X125392857Y-127515615D02*
X125392857Y-127753710D01*
X125392857Y-127753710D02*
X125440476Y-127944186D01*
X125440476Y-127944186D02*
X125488095Y-128039424D01*
X125488095Y-128039424D02*
X125535714Y-128087044D01*
X125535714Y-128087044D02*
X125630952Y-128134663D01*
X125630952Y-128134663D02*
X125726190Y-128134663D01*
X125726190Y-128134663D02*
X125821428Y-128087044D01*
X125821428Y-128087044D02*
X125869047Y-128039424D01*
X125869047Y-128039424D02*
X125916666Y-127944186D01*
X125916666Y-127944186D02*
X125964285Y-127753710D01*
X125964285Y-127753710D02*
X125964285Y-127515615D01*
X125964285Y-127515615D02*
X125916666Y-127325139D01*
X125916666Y-127325139D02*
X125869047Y-127229901D01*
X125869047Y-127229901D02*
X125821428Y-127182282D01*
X125821428Y-127182282D02*
X125726190Y-127134663D01*
X124964285Y-128134663D02*
X124964285Y-127134663D01*
X124869047Y-127753710D02*
X124583333Y-128134663D01*
X124583333Y-127467996D02*
X124964285Y-127848948D01*
X120808333Y-101024663D02*
X121379761Y-101024663D01*
X121094047Y-101024663D02*
X121094047Y-100024663D01*
X121094047Y-100024663D02*
X121189285Y-100167520D01*
X121189285Y-100167520D02*
X121284523Y-100262758D01*
X121284523Y-100262758D02*
X121379761Y-100310377D01*
X120379761Y-100929424D02*
X120332142Y-100977044D01*
X120332142Y-100977044D02*
X120379761Y-101024663D01*
X120379761Y-101024663D02*
X120427380Y-100977044D01*
X120427380Y-100977044D02*
X120379761Y-100929424D01*
X120379761Y-100929424D02*
X120379761Y-101024663D01*
X119427381Y-100024663D02*
X119903571Y-100024663D01*
X119903571Y-100024663D02*
X119951190Y-100500853D01*
X119951190Y-100500853D02*
X119903571Y-100453234D01*
X119903571Y-100453234D02*
X119808333Y-100405615D01*
X119808333Y-100405615D02*
X119570238Y-100405615D01*
X119570238Y-100405615D02*
X119475000Y-100453234D01*
X119475000Y-100453234D02*
X119427381Y-100500853D01*
X119427381Y-100500853D02*
X119379762Y-100596091D01*
X119379762Y-100596091D02*
X119379762Y-100834186D01*
X119379762Y-100834186D02*
X119427381Y-100929424D01*
X119427381Y-100929424D02*
X119475000Y-100977044D01*
X119475000Y-100977044D02*
X119570238Y-101024663D01*
X119570238Y-101024663D02*
X119808333Y-101024663D01*
X119808333Y-101024663D02*
X119903571Y-100977044D01*
X119903571Y-100977044D02*
X119951190Y-100929424D01*
X118951190Y-101024663D02*
X118951190Y-100024663D01*
X118855952Y-100643710D02*
X118570238Y-101024663D01*
X118570238Y-100357996D02*
X118951190Y-100738948D01*
X133333333Y-113454663D02*
X133904761Y-113454663D01*
X133619047Y-113454663D02*
X133619047Y-112454663D01*
X133619047Y-112454663D02*
X133714285Y-112597520D01*
X133714285Y-112597520D02*
X133809523Y-112692758D01*
X133809523Y-112692758D02*
X133904761Y-112740377D01*
X132904761Y-113359424D02*
X132857142Y-113407044D01*
X132857142Y-113407044D02*
X132904761Y-113454663D01*
X132904761Y-113454663D02*
X132952380Y-113407044D01*
X132952380Y-113407044D02*
X132904761Y-113359424D01*
X132904761Y-113359424D02*
X132904761Y-113454663D01*
X131952381Y-112454663D02*
X132428571Y-112454663D01*
X132428571Y-112454663D02*
X132476190Y-112930853D01*
X132476190Y-112930853D02*
X132428571Y-112883234D01*
X132428571Y-112883234D02*
X132333333Y-112835615D01*
X132333333Y-112835615D02*
X132095238Y-112835615D01*
X132095238Y-112835615D02*
X132000000Y-112883234D01*
X132000000Y-112883234D02*
X131952381Y-112930853D01*
X131952381Y-112930853D02*
X131904762Y-113026091D01*
X131904762Y-113026091D02*
X131904762Y-113264186D01*
X131904762Y-113264186D02*
X131952381Y-113359424D01*
X131952381Y-113359424D02*
X132000000Y-113407044D01*
X132000000Y-113407044D02*
X132095238Y-113454663D01*
X132095238Y-113454663D02*
X132333333Y-113454663D01*
X132333333Y-113454663D02*
X132428571Y-113407044D01*
X132428571Y-113407044D02*
X132476190Y-113359424D01*
X131476190Y-113454663D02*
X131476190Y-112454663D01*
X131380952Y-113073710D02*
X131095238Y-113454663D01*
X131095238Y-112787996D02*
X131476190Y-113168948D01*
X173666666Y-91759663D02*
X174238094Y-91759663D01*
X173952380Y-91759663D02*
X173952380Y-90759663D01*
X173952380Y-90759663D02*
X174047618Y-90902520D01*
X174047618Y-90902520D02*
X174142856Y-90997758D01*
X174142856Y-90997758D02*
X174238094Y-91045377D01*
X173285713Y-90854901D02*
X173238094Y-90807282D01*
X173238094Y-90807282D02*
X173142856Y-90759663D01*
X173142856Y-90759663D02*
X172904761Y-90759663D01*
X172904761Y-90759663D02*
X172809523Y-90807282D01*
X172809523Y-90807282D02*
X172761904Y-90854901D01*
X172761904Y-90854901D02*
X172714285Y-90950139D01*
X172714285Y-90950139D02*
X172714285Y-91045377D01*
X172714285Y-91045377D02*
X172761904Y-91188234D01*
X172761904Y-91188234D02*
X173333332Y-91759663D01*
X173333332Y-91759663D02*
X172714285Y-91759663D01*
X172095237Y-90759663D02*
X171999999Y-90759663D01*
X171999999Y-90759663D02*
X171904761Y-90807282D01*
X171904761Y-90807282D02*
X171857142Y-90854901D01*
X171857142Y-90854901D02*
X171809523Y-90950139D01*
X171809523Y-90950139D02*
X171761904Y-91140615D01*
X171761904Y-91140615D02*
X171761904Y-91378710D01*
X171761904Y-91378710D02*
X171809523Y-91569186D01*
X171809523Y-91569186D02*
X171857142Y-91664424D01*
X171857142Y-91664424D02*
X171904761Y-91712044D01*
X171904761Y-91712044D02*
X171999999Y-91759663D01*
X171999999Y-91759663D02*
X172095237Y-91759663D01*
X172095237Y-91759663D02*
X172190475Y-91712044D01*
X172190475Y-91712044D02*
X172238094Y-91664424D01*
X172238094Y-91664424D02*
X172285713Y-91569186D01*
X172285713Y-91569186D02*
X172333332Y-91378710D01*
X172333332Y-91378710D02*
X172333332Y-91140615D01*
X172333332Y-91140615D02*
X172285713Y-90950139D01*
X172285713Y-90950139D02*
X172238094Y-90854901D01*
X172238094Y-90854901D02*
X172190475Y-90807282D01*
X172190475Y-90807282D02*
X172095237Y-90759663D01*
X133333333Y-111454663D02*
X133904761Y-111454663D01*
X133619047Y-111454663D02*
X133619047Y-110454663D01*
X133619047Y-110454663D02*
X133714285Y-110597520D01*
X133714285Y-110597520D02*
X133809523Y-110692758D01*
X133809523Y-110692758D02*
X133904761Y-110740377D01*
X132904761Y-111359424D02*
X132857142Y-111407044D01*
X132857142Y-111407044D02*
X132904761Y-111454663D01*
X132904761Y-111454663D02*
X132952380Y-111407044D01*
X132952380Y-111407044D02*
X132904761Y-111359424D01*
X132904761Y-111359424D02*
X132904761Y-111454663D01*
X131952381Y-110454663D02*
X132428571Y-110454663D01*
X132428571Y-110454663D02*
X132476190Y-110930853D01*
X132476190Y-110930853D02*
X132428571Y-110883234D01*
X132428571Y-110883234D02*
X132333333Y-110835615D01*
X132333333Y-110835615D02*
X132095238Y-110835615D01*
X132095238Y-110835615D02*
X132000000Y-110883234D01*
X132000000Y-110883234D02*
X131952381Y-110930853D01*
X131952381Y-110930853D02*
X131904762Y-111026091D01*
X131904762Y-111026091D02*
X131904762Y-111264186D01*
X131904762Y-111264186D02*
X131952381Y-111359424D01*
X131952381Y-111359424D02*
X132000000Y-111407044D01*
X132000000Y-111407044D02*
X132095238Y-111454663D01*
X132095238Y-111454663D02*
X132333333Y-111454663D01*
X132333333Y-111454663D02*
X132428571Y-111407044D01*
X132428571Y-111407044D02*
X132476190Y-111359424D01*
X131476190Y-111454663D02*
X131476190Y-110454663D01*
X131380952Y-111073710D02*
X131095238Y-111454663D01*
X131095238Y-110787996D02*
X131476190Y-111168948D01*
X144345238Y-128134663D02*
X144916666Y-128134663D01*
X144630952Y-128134663D02*
X144630952Y-127134663D01*
X144630952Y-127134663D02*
X144726190Y-127277520D01*
X144726190Y-127277520D02*
X144821428Y-127372758D01*
X144821428Y-127372758D02*
X144916666Y-127420377D01*
X143726190Y-127134663D02*
X143630952Y-127134663D01*
X143630952Y-127134663D02*
X143535714Y-127182282D01*
X143535714Y-127182282D02*
X143488095Y-127229901D01*
X143488095Y-127229901D02*
X143440476Y-127325139D01*
X143440476Y-127325139D02*
X143392857Y-127515615D01*
X143392857Y-127515615D02*
X143392857Y-127753710D01*
X143392857Y-127753710D02*
X143440476Y-127944186D01*
X143440476Y-127944186D02*
X143488095Y-128039424D01*
X143488095Y-128039424D02*
X143535714Y-128087044D01*
X143535714Y-128087044D02*
X143630952Y-128134663D01*
X143630952Y-128134663D02*
X143726190Y-128134663D01*
X143726190Y-128134663D02*
X143821428Y-128087044D01*
X143821428Y-128087044D02*
X143869047Y-128039424D01*
X143869047Y-128039424D02*
X143916666Y-127944186D01*
X143916666Y-127944186D02*
X143964285Y-127753710D01*
X143964285Y-127753710D02*
X143964285Y-127515615D01*
X143964285Y-127515615D02*
X143916666Y-127325139D01*
X143916666Y-127325139D02*
X143869047Y-127229901D01*
X143869047Y-127229901D02*
X143821428Y-127182282D01*
X143821428Y-127182282D02*
X143726190Y-127134663D01*
X142964285Y-128134663D02*
X142964285Y-127134663D01*
X142869047Y-127753710D02*
X142583333Y-128134663D01*
X142583333Y-127467996D02*
X142964285Y-127848948D01*
X133333333Y-115454663D02*
X133904761Y-115454663D01*
X133619047Y-115454663D02*
X133619047Y-114454663D01*
X133619047Y-114454663D02*
X133714285Y-114597520D01*
X133714285Y-114597520D02*
X133809523Y-114692758D01*
X133809523Y-114692758D02*
X133904761Y-114740377D01*
X132904761Y-115359424D02*
X132857142Y-115407044D01*
X132857142Y-115407044D02*
X132904761Y-115454663D01*
X132904761Y-115454663D02*
X132952380Y-115407044D01*
X132952380Y-115407044D02*
X132904761Y-115359424D01*
X132904761Y-115359424D02*
X132904761Y-115454663D01*
X131952381Y-114454663D02*
X132428571Y-114454663D01*
X132428571Y-114454663D02*
X132476190Y-114930853D01*
X132476190Y-114930853D02*
X132428571Y-114883234D01*
X132428571Y-114883234D02*
X132333333Y-114835615D01*
X132333333Y-114835615D02*
X132095238Y-114835615D01*
X132095238Y-114835615D02*
X132000000Y-114883234D01*
X132000000Y-114883234D02*
X131952381Y-114930853D01*
X131952381Y-114930853D02*
X131904762Y-115026091D01*
X131904762Y-115026091D02*
X131904762Y-115264186D01*
X131904762Y-115264186D02*
X131952381Y-115359424D01*
X131952381Y-115359424D02*
X132000000Y-115407044D01*
X132000000Y-115407044D02*
X132095238Y-115454663D01*
X132095238Y-115454663D02*
X132333333Y-115454663D01*
X132333333Y-115454663D02*
X132428571Y-115407044D01*
X132428571Y-115407044D02*
X132476190Y-115359424D01*
X131476190Y-115454663D02*
X131476190Y-114454663D01*
X131380952Y-115073710D02*
X131095238Y-115454663D01*
X131095238Y-114787996D02*
X131476190Y-115168948D01*
X135345238Y-128134663D02*
X135916666Y-128134663D01*
X135630952Y-128134663D02*
X135630952Y-127134663D01*
X135630952Y-127134663D02*
X135726190Y-127277520D01*
X135726190Y-127277520D02*
X135821428Y-127372758D01*
X135821428Y-127372758D02*
X135916666Y-127420377D01*
X134726190Y-127134663D02*
X134630952Y-127134663D01*
X134630952Y-127134663D02*
X134535714Y-127182282D01*
X134535714Y-127182282D02*
X134488095Y-127229901D01*
X134488095Y-127229901D02*
X134440476Y-127325139D01*
X134440476Y-127325139D02*
X134392857Y-127515615D01*
X134392857Y-127515615D02*
X134392857Y-127753710D01*
X134392857Y-127753710D02*
X134440476Y-127944186D01*
X134440476Y-127944186D02*
X134488095Y-128039424D01*
X134488095Y-128039424D02*
X134535714Y-128087044D01*
X134535714Y-128087044D02*
X134630952Y-128134663D01*
X134630952Y-128134663D02*
X134726190Y-128134663D01*
X134726190Y-128134663D02*
X134821428Y-128087044D01*
X134821428Y-128087044D02*
X134869047Y-128039424D01*
X134869047Y-128039424D02*
X134916666Y-127944186D01*
X134916666Y-127944186D02*
X134964285Y-127753710D01*
X134964285Y-127753710D02*
X134964285Y-127515615D01*
X134964285Y-127515615D02*
X134916666Y-127325139D01*
X134916666Y-127325139D02*
X134869047Y-127229901D01*
X134869047Y-127229901D02*
X134821428Y-127182282D01*
X134821428Y-127182282D02*
X134726190Y-127134663D01*
X133964285Y-128134663D02*
X133964285Y-127134663D01*
X133869047Y-127753710D02*
X133583333Y-128134663D01*
X133583333Y-127467996D02*
X133964285Y-127848948D01*
X133333333Y-109454663D02*
X133904761Y-109454663D01*
X133619047Y-109454663D02*
X133619047Y-108454663D01*
X133619047Y-108454663D02*
X133714285Y-108597520D01*
X133714285Y-108597520D02*
X133809523Y-108692758D01*
X133809523Y-108692758D02*
X133904761Y-108740377D01*
X132904761Y-109359424D02*
X132857142Y-109407044D01*
X132857142Y-109407044D02*
X132904761Y-109454663D01*
X132904761Y-109454663D02*
X132952380Y-109407044D01*
X132952380Y-109407044D02*
X132904761Y-109359424D01*
X132904761Y-109359424D02*
X132904761Y-109454663D01*
X131952381Y-108454663D02*
X132428571Y-108454663D01*
X132428571Y-108454663D02*
X132476190Y-108930853D01*
X132476190Y-108930853D02*
X132428571Y-108883234D01*
X132428571Y-108883234D02*
X132333333Y-108835615D01*
X132333333Y-108835615D02*
X132095238Y-108835615D01*
X132095238Y-108835615D02*
X132000000Y-108883234D01*
X132000000Y-108883234D02*
X131952381Y-108930853D01*
X131952381Y-108930853D02*
X131904762Y-109026091D01*
X131904762Y-109026091D02*
X131904762Y-109264186D01*
X131904762Y-109264186D02*
X131952381Y-109359424D01*
X131952381Y-109359424D02*
X132000000Y-109407044D01*
X132000000Y-109407044D02*
X132095238Y-109454663D01*
X132095238Y-109454663D02*
X132333333Y-109454663D01*
X132333333Y-109454663D02*
X132428571Y-109407044D01*
X132428571Y-109407044D02*
X132476190Y-109359424D01*
X131476190Y-109454663D02*
X131476190Y-108454663D01*
X131380952Y-109073710D02*
X131095238Y-109454663D01*
X131095238Y-108787996D02*
X131476190Y-109168948D01*
X128095238Y-87954663D02*
X128666666Y-87954663D01*
X128380952Y-87954663D02*
X128380952Y-86954663D01*
X128380952Y-86954663D02*
X128476190Y-87097520D01*
X128476190Y-87097520D02*
X128571428Y-87192758D01*
X128571428Y-87192758D02*
X128666666Y-87240377D01*
X127476190Y-86954663D02*
X127380952Y-86954663D01*
X127380952Y-86954663D02*
X127285714Y-87002282D01*
X127285714Y-87002282D02*
X127238095Y-87049901D01*
X127238095Y-87049901D02*
X127190476Y-87145139D01*
X127190476Y-87145139D02*
X127142857Y-87335615D01*
X127142857Y-87335615D02*
X127142857Y-87573710D01*
X127142857Y-87573710D02*
X127190476Y-87764186D01*
X127190476Y-87764186D02*
X127238095Y-87859424D01*
X127238095Y-87859424D02*
X127285714Y-87907044D01*
X127285714Y-87907044D02*
X127380952Y-87954663D01*
X127380952Y-87954663D02*
X127476190Y-87954663D01*
X127476190Y-87954663D02*
X127571428Y-87907044D01*
X127571428Y-87907044D02*
X127619047Y-87859424D01*
X127619047Y-87859424D02*
X127666666Y-87764186D01*
X127666666Y-87764186D02*
X127714285Y-87573710D01*
X127714285Y-87573710D02*
X127714285Y-87335615D01*
X127714285Y-87335615D02*
X127666666Y-87145139D01*
X127666666Y-87145139D02*
X127619047Y-87049901D01*
X127619047Y-87049901D02*
X127571428Y-87002282D01*
X127571428Y-87002282D02*
X127476190Y-86954663D01*
X126714285Y-87954663D02*
X126714285Y-86954663D01*
X126619047Y-87573710D02*
X126333333Y-87954663D01*
X126333333Y-87287996D02*
X126714285Y-87668948D01*
X153345238Y-128134663D02*
X153916666Y-128134663D01*
X153630952Y-128134663D02*
X153630952Y-127134663D01*
X153630952Y-127134663D02*
X153726190Y-127277520D01*
X153726190Y-127277520D02*
X153821428Y-127372758D01*
X153821428Y-127372758D02*
X153916666Y-127420377D01*
X152726190Y-127134663D02*
X152630952Y-127134663D01*
X152630952Y-127134663D02*
X152535714Y-127182282D01*
X152535714Y-127182282D02*
X152488095Y-127229901D01*
X152488095Y-127229901D02*
X152440476Y-127325139D01*
X152440476Y-127325139D02*
X152392857Y-127515615D01*
X152392857Y-127515615D02*
X152392857Y-127753710D01*
X152392857Y-127753710D02*
X152440476Y-127944186D01*
X152440476Y-127944186D02*
X152488095Y-128039424D01*
X152488095Y-128039424D02*
X152535714Y-128087044D01*
X152535714Y-128087044D02*
X152630952Y-128134663D01*
X152630952Y-128134663D02*
X152726190Y-128134663D01*
X152726190Y-128134663D02*
X152821428Y-128087044D01*
X152821428Y-128087044D02*
X152869047Y-128039424D01*
X152869047Y-128039424D02*
X152916666Y-127944186D01*
X152916666Y-127944186D02*
X152964285Y-127753710D01*
X152964285Y-127753710D02*
X152964285Y-127515615D01*
X152964285Y-127515615D02*
X152916666Y-127325139D01*
X152916666Y-127325139D02*
X152869047Y-127229901D01*
X152869047Y-127229901D02*
X152821428Y-127182282D01*
X152821428Y-127182282D02*
X152726190Y-127134663D01*
X151964285Y-128134663D02*
X151964285Y-127134663D01*
X151869047Y-127753710D02*
X151583333Y-128134663D01*
X151583333Y-127467996D02*
X151964285Y-127848948D01*
X120770833Y-106024663D02*
X121342261Y-106024663D01*
X121056547Y-106024663D02*
X121056547Y-105024663D01*
X121056547Y-105024663D02*
X121151785Y-105167520D01*
X121151785Y-105167520D02*
X121247023Y-105262758D01*
X121247023Y-105262758D02*
X121342261Y-105310377D01*
X120342261Y-105929424D02*
X120294642Y-105977044D01*
X120294642Y-105977044D02*
X120342261Y-106024663D01*
X120342261Y-106024663D02*
X120389880Y-105977044D01*
X120389880Y-105977044D02*
X120342261Y-105929424D01*
X120342261Y-105929424D02*
X120342261Y-106024663D01*
X119389881Y-105024663D02*
X119866071Y-105024663D01*
X119866071Y-105024663D02*
X119913690Y-105500853D01*
X119913690Y-105500853D02*
X119866071Y-105453234D01*
X119866071Y-105453234D02*
X119770833Y-105405615D01*
X119770833Y-105405615D02*
X119532738Y-105405615D01*
X119532738Y-105405615D02*
X119437500Y-105453234D01*
X119437500Y-105453234D02*
X119389881Y-105500853D01*
X119389881Y-105500853D02*
X119342262Y-105596091D01*
X119342262Y-105596091D02*
X119342262Y-105834186D01*
X119342262Y-105834186D02*
X119389881Y-105929424D01*
X119389881Y-105929424D02*
X119437500Y-105977044D01*
X119437500Y-105977044D02*
X119532738Y-106024663D01*
X119532738Y-106024663D02*
X119770833Y-106024663D01*
X119770833Y-106024663D02*
X119866071Y-105977044D01*
X119866071Y-105977044D02*
X119913690Y-105929424D01*
X118913690Y-106024663D02*
X118913690Y-105024663D01*
X118818452Y-105643710D02*
X118532738Y-106024663D01*
X118532738Y-105357996D02*
X118913690Y-105738948D01*
X133333333Y-119454663D02*
X133904761Y-119454663D01*
X133619047Y-119454663D02*
X133619047Y-118454663D01*
X133619047Y-118454663D02*
X133714285Y-118597520D01*
X133714285Y-118597520D02*
X133809523Y-118692758D01*
X133809523Y-118692758D02*
X133904761Y-118740377D01*
X132904761Y-119359424D02*
X132857142Y-119407044D01*
X132857142Y-119407044D02*
X132904761Y-119454663D01*
X132904761Y-119454663D02*
X132952380Y-119407044D01*
X132952380Y-119407044D02*
X132904761Y-119359424D01*
X132904761Y-119359424D02*
X132904761Y-119454663D01*
X131952381Y-118454663D02*
X132428571Y-118454663D01*
X132428571Y-118454663D02*
X132476190Y-118930853D01*
X132476190Y-118930853D02*
X132428571Y-118883234D01*
X132428571Y-118883234D02*
X132333333Y-118835615D01*
X132333333Y-118835615D02*
X132095238Y-118835615D01*
X132095238Y-118835615D02*
X132000000Y-118883234D01*
X132000000Y-118883234D02*
X131952381Y-118930853D01*
X131952381Y-118930853D02*
X131904762Y-119026091D01*
X131904762Y-119026091D02*
X131904762Y-119264186D01*
X131904762Y-119264186D02*
X131952381Y-119359424D01*
X131952381Y-119359424D02*
X132000000Y-119407044D01*
X132000000Y-119407044D02*
X132095238Y-119454663D01*
X132095238Y-119454663D02*
X132333333Y-119454663D01*
X132333333Y-119454663D02*
X132428571Y-119407044D01*
X132428571Y-119407044D02*
X132476190Y-119359424D01*
X131476190Y-119454663D02*
X131476190Y-118454663D01*
X131380952Y-119073710D02*
X131095238Y-119454663D01*
X131095238Y-118787996D02*
X131476190Y-119168948D01*
X187366071Y-127787996D02*
X187366071Y-128454663D01*
X187604166Y-127407044D02*
X187842261Y-128121329D01*
X187842261Y-128121329D02*
X187223214Y-128121329D01*
X186842261Y-128359424D02*
X186794642Y-128407044D01*
X186794642Y-128407044D02*
X186842261Y-128454663D01*
X186842261Y-128454663D02*
X186889880Y-128407044D01*
X186889880Y-128407044D02*
X186842261Y-128359424D01*
X186842261Y-128359424D02*
X186842261Y-128454663D01*
X186461309Y-127454663D02*
X185794643Y-127454663D01*
X185794643Y-127454663D02*
X186223214Y-128454663D01*
X185413690Y-128454663D02*
X185413690Y-127454663D01*
X185318452Y-128073710D02*
X185032738Y-128454663D01*
X185032738Y-127787996D02*
X185413690Y-128168948D01*
X132333333Y-87954663D02*
X132904761Y-87954663D01*
X132619047Y-87954663D02*
X132619047Y-86954663D01*
X132619047Y-86954663D02*
X132714285Y-87097520D01*
X132714285Y-87097520D02*
X132809523Y-87192758D01*
X132809523Y-87192758D02*
X132904761Y-87240377D01*
X131904761Y-87859424D02*
X131857142Y-87907044D01*
X131857142Y-87907044D02*
X131904761Y-87954663D01*
X131904761Y-87954663D02*
X131952380Y-87907044D01*
X131952380Y-87907044D02*
X131904761Y-87859424D01*
X131904761Y-87859424D02*
X131904761Y-87954663D01*
X130952381Y-86954663D02*
X131428571Y-86954663D01*
X131428571Y-86954663D02*
X131476190Y-87430853D01*
X131476190Y-87430853D02*
X131428571Y-87383234D01*
X131428571Y-87383234D02*
X131333333Y-87335615D01*
X131333333Y-87335615D02*
X131095238Y-87335615D01*
X131095238Y-87335615D02*
X131000000Y-87383234D01*
X131000000Y-87383234D02*
X130952381Y-87430853D01*
X130952381Y-87430853D02*
X130904762Y-87526091D01*
X130904762Y-87526091D02*
X130904762Y-87764186D01*
X130904762Y-87764186D02*
X130952381Y-87859424D01*
X130952381Y-87859424D02*
X131000000Y-87907044D01*
X131000000Y-87907044D02*
X131095238Y-87954663D01*
X131095238Y-87954663D02*
X131333333Y-87954663D01*
X131333333Y-87954663D02*
X131428571Y-87907044D01*
X131428571Y-87907044D02*
X131476190Y-87859424D01*
X130476190Y-87954663D02*
X130476190Y-86954663D01*
X130380952Y-87573710D02*
X130095238Y-87954663D01*
X130095238Y-87287996D02*
X130476190Y-87668948D01*
X159604166Y-91259663D02*
X160175594Y-91259663D01*
X159889880Y-91259663D02*
X159889880Y-90259663D01*
X159889880Y-90259663D02*
X159985118Y-90402520D01*
X159985118Y-90402520D02*
X160080356Y-90497758D01*
X160080356Y-90497758D02*
X160175594Y-90545377D01*
X159223213Y-90354901D02*
X159175594Y-90307282D01*
X159175594Y-90307282D02*
X159080356Y-90259663D01*
X159080356Y-90259663D02*
X158842261Y-90259663D01*
X158842261Y-90259663D02*
X158747023Y-90307282D01*
X158747023Y-90307282D02*
X158699404Y-90354901D01*
X158699404Y-90354901D02*
X158651785Y-90450139D01*
X158651785Y-90450139D02*
X158651785Y-90545377D01*
X158651785Y-90545377D02*
X158699404Y-90688234D01*
X158699404Y-90688234D02*
X159270832Y-91259663D01*
X159270832Y-91259663D02*
X158651785Y-91259663D01*
X158032737Y-90259663D02*
X157937499Y-90259663D01*
X157937499Y-90259663D02*
X157842261Y-90307282D01*
X157842261Y-90307282D02*
X157794642Y-90354901D01*
X157794642Y-90354901D02*
X157747023Y-90450139D01*
X157747023Y-90450139D02*
X157699404Y-90640615D01*
X157699404Y-90640615D02*
X157699404Y-90878710D01*
X157699404Y-90878710D02*
X157747023Y-91069186D01*
X157747023Y-91069186D02*
X157794642Y-91164424D01*
X157794642Y-91164424D02*
X157842261Y-91212044D01*
X157842261Y-91212044D02*
X157937499Y-91259663D01*
X157937499Y-91259663D02*
X158032737Y-91259663D01*
X158032737Y-91259663D02*
X158127975Y-91212044D01*
X158127975Y-91212044D02*
X158175594Y-91164424D01*
X158175594Y-91164424D02*
X158223213Y-91069186D01*
X158223213Y-91069186D02*
X158270832Y-90878710D01*
X158270832Y-90878710D02*
X158270832Y-90640615D01*
X158270832Y-90640615D02*
X158223213Y-90450139D01*
X158223213Y-90450139D02*
X158175594Y-90354901D01*
X158175594Y-90354901D02*
X158127975Y-90307282D01*
X158127975Y-90307282D02*
X158032737Y-90259663D01*
X123095237Y-98454663D02*
X123095237Y-97454663D01*
X123095237Y-97454663D02*
X122523809Y-98454663D01*
X122523809Y-98454663D02*
X122523809Y-97454663D01*
X121761904Y-97454663D02*
X121761904Y-98168948D01*
X121761904Y-98168948D02*
X121809523Y-98311805D01*
X121809523Y-98311805D02*
X121904761Y-98407044D01*
X121904761Y-98407044D02*
X122047618Y-98454663D01*
X122047618Y-98454663D02*
X122142856Y-98454663D01*
X121285713Y-98454663D02*
X121285713Y-97454663D01*
X121285713Y-97454663D02*
X120952380Y-98168948D01*
X120952380Y-98168948D02*
X120619047Y-97454663D01*
X120619047Y-97454663D02*
X120619047Y-98454663D01*
X120190475Y-97549901D02*
X120142856Y-97502282D01*
X120142856Y-97502282D02*
X120047618Y-97454663D01*
X120047618Y-97454663D02*
X119809523Y-97454663D01*
X119809523Y-97454663D02*
X119714285Y-97502282D01*
X119714285Y-97502282D02*
X119666666Y-97549901D01*
X119666666Y-97549901D02*
X119619047Y-97645139D01*
X119619047Y-97645139D02*
X119619047Y-97740377D01*
X119619047Y-97740377D02*
X119666666Y-97883234D01*
X119666666Y-97883234D02*
X120238094Y-98454663D01*
X120238094Y-98454663D02*
X119619047Y-98454663D01*
X119047618Y-97883234D02*
X119142856Y-97835615D01*
X119142856Y-97835615D02*
X119190475Y-97787996D01*
X119190475Y-97787996D02*
X119238094Y-97692758D01*
X119238094Y-97692758D02*
X119238094Y-97645139D01*
X119238094Y-97645139D02*
X119190475Y-97549901D01*
X119190475Y-97549901D02*
X119142856Y-97502282D01*
X119142856Y-97502282D02*
X119047618Y-97454663D01*
X119047618Y-97454663D02*
X118857142Y-97454663D01*
X118857142Y-97454663D02*
X118761904Y-97502282D01*
X118761904Y-97502282D02*
X118714285Y-97549901D01*
X118714285Y-97549901D02*
X118666666Y-97645139D01*
X118666666Y-97645139D02*
X118666666Y-97692758D01*
X118666666Y-97692758D02*
X118714285Y-97787996D01*
X118714285Y-97787996D02*
X118761904Y-97835615D01*
X118761904Y-97835615D02*
X118857142Y-97883234D01*
X118857142Y-97883234D02*
X119047618Y-97883234D01*
X119047618Y-97883234D02*
X119142856Y-97930853D01*
X119142856Y-97930853D02*
X119190475Y-97978472D01*
X119190475Y-97978472D02*
X119238094Y-98073710D01*
X119238094Y-98073710D02*
X119238094Y-98264186D01*
X119238094Y-98264186D02*
X119190475Y-98359424D01*
X119190475Y-98359424D02*
X119142856Y-98407044D01*
X119142856Y-98407044D02*
X119047618Y-98454663D01*
X119047618Y-98454663D02*
X118857142Y-98454663D01*
X118857142Y-98454663D02*
X118761904Y-98407044D01*
X118761904Y-98407044D02*
X118714285Y-98359424D01*
X118714285Y-98359424D02*
X118666666Y-98264186D01*
X118666666Y-98264186D02*
X118666666Y-98073710D01*
X118666666Y-98073710D02*
X118714285Y-97978472D01*
X118714285Y-97978472D02*
X118761904Y-97930853D01*
X118761904Y-97930853D02*
X118857142Y-97883234D01*
X117809523Y-97787996D02*
X117809523Y-98454663D01*
X118047618Y-97407044D02*
X118285713Y-98121329D01*
X118285713Y-98121329D02*
X117666666Y-98121329D01*
X116809523Y-97454663D02*
X117285713Y-97454663D01*
X117285713Y-97454663D02*
X117333332Y-97930853D01*
X117333332Y-97930853D02*
X117285713Y-97883234D01*
X117285713Y-97883234D02*
X117190475Y-97835615D01*
X117190475Y-97835615D02*
X116952380Y-97835615D01*
X116952380Y-97835615D02*
X116857142Y-97883234D01*
X116857142Y-97883234D02*
X116809523Y-97930853D01*
X116809523Y-97930853D02*
X116761904Y-98026091D01*
X116761904Y-98026091D02*
X116761904Y-98264186D01*
X116761904Y-98264186D02*
X116809523Y-98359424D01*
X116809523Y-98359424D02*
X116857142Y-98407044D01*
X116857142Y-98407044D02*
X116952380Y-98454663D01*
X116952380Y-98454663D02*
X117190475Y-98454663D01*
X117190475Y-98454663D02*
X117285713Y-98407044D01*
X117285713Y-98407044D02*
X117333332Y-98359424D01*
X116333332Y-98454663D02*
X116333332Y-97454663D01*
X116333332Y-97454663D02*
X116095237Y-97454663D01*
X116095237Y-97454663D02*
X115952380Y-97502282D01*
X115952380Y-97502282D02*
X115857142Y-97597520D01*
X115857142Y-97597520D02*
X115809523Y-97692758D01*
X115809523Y-97692758D02*
X115761904Y-97883234D01*
X115761904Y-97883234D02*
X115761904Y-98026091D01*
X115761904Y-98026091D02*
X115809523Y-98216567D01*
X115809523Y-98216567D02*
X115857142Y-98311805D01*
X115857142Y-98311805D02*
X115952380Y-98407044D01*
X115952380Y-98407044D02*
X116095237Y-98454663D01*
X116095237Y-98454663D02*
X116333332Y-98454663D01*
X114857142Y-98454663D02*
X115333332Y-98454663D01*
X115333332Y-98454663D02*
X115333332Y-97454663D01*
X113999999Y-98454663D02*
X114571427Y-98454663D01*
X114285713Y-98454663D02*
X114285713Y-97454663D01*
X114285713Y-97454663D02*
X114380951Y-97597520D01*
X114380951Y-97597520D02*
X114476189Y-97692758D01*
X114476189Y-97692758D02*
X114571427Y-97740377D01*
X113571427Y-98073710D02*
X112809523Y-98073710D01*
X112428570Y-97454663D02*
X111809523Y-97454663D01*
X111809523Y-97454663D02*
X112142856Y-97835615D01*
X112142856Y-97835615D02*
X111999999Y-97835615D01*
X111999999Y-97835615D02*
X111904761Y-97883234D01*
X111904761Y-97883234D02*
X111857142Y-97930853D01*
X111857142Y-97930853D02*
X111809523Y-98026091D01*
X111809523Y-98026091D02*
X111809523Y-98264186D01*
X111809523Y-98264186D02*
X111857142Y-98359424D01*
X111857142Y-98359424D02*
X111904761Y-98407044D01*
X111904761Y-98407044D02*
X111999999Y-98454663D01*
X111999999Y-98454663D02*
X112285713Y-98454663D01*
X112285713Y-98454663D02*
X112380951Y-98407044D01*
X112380951Y-98407044D02*
X112428570Y-98359424D01*
X111476189Y-97454663D02*
X110857142Y-97454663D01*
X110857142Y-97454663D02*
X111190475Y-97835615D01*
X111190475Y-97835615D02*
X111047618Y-97835615D01*
X111047618Y-97835615D02*
X110952380Y-97883234D01*
X110952380Y-97883234D02*
X110904761Y-97930853D01*
X110904761Y-97930853D02*
X110857142Y-98026091D01*
X110857142Y-98026091D02*
X110857142Y-98264186D01*
X110857142Y-98264186D02*
X110904761Y-98359424D01*
X110904761Y-98359424D02*
X110952380Y-98407044D01*
X110952380Y-98407044D02*
X111047618Y-98454663D01*
X111047618Y-98454663D02*
X111333332Y-98454663D01*
X111333332Y-98454663D02*
X111428570Y-98407044D01*
X111428570Y-98407044D02*
X111476189Y-98359424D01*
D11*
X131150000Y-96450000D02*
X131150000Y-94050000D01*
X127850000Y-95850000D02*
X127850000Y-94050000D01*
X127850000Y-94050000D02*
X128900000Y-94050000D01*
X131150000Y-94050000D02*
X130100000Y-94050000D01*
X129192224Y-117522500D02*
X128682776Y-117522500D01*
X129192224Y-116477500D02*
X128682776Y-116477500D01*
X126004724Y-126772500D02*
X125495276Y-126772500D01*
X126004724Y-125727500D02*
X125495276Y-125727500D01*
X119720276Y-101477500D02*
X120229724Y-101477500D01*
X119720276Y-102522500D02*
X120229724Y-102522500D01*
X129192224Y-113522500D02*
X128682776Y-113522500D01*
X129192224Y-112477500D02*
X128682776Y-112477500D01*
X172745276Y-88977500D02*
X173254724Y-88977500D01*
X172745276Y-90022500D02*
X173254724Y-90022500D01*
X129192224Y-111522500D02*
X128682776Y-111522500D01*
X129192224Y-110477500D02*
X128682776Y-110477500D01*
X144004724Y-126772500D02*
X143495276Y-126772500D01*
X144004724Y-125727500D02*
X143495276Y-125727500D01*
X129192224Y-115522500D02*
X128682776Y-115522500D01*
X129192224Y-114477500D02*
X128682776Y-114477500D01*
X135004724Y-126772500D02*
X134495276Y-126772500D01*
X135004724Y-125727500D02*
X134495276Y-125727500D01*
X129192224Y-109522500D02*
X128682776Y-109522500D01*
X129192224Y-108477500D02*
X128682776Y-108477500D01*
X112650000Y-120025000D02*
X112650000Y-116875000D01*
X114350000Y-120025000D02*
X112650000Y-120025000D01*
X114350000Y-120025000D02*
X114350000Y-116875000D01*
D12*
X151400000Y-88600000D02*
X151100000Y-88300000D01*
X151800000Y-88600000D02*
X151400000Y-88600000D01*
X155100000Y-88600000D02*
X154800000Y-88600000D01*
X151100000Y-88300000D02*
X150300000Y-88300000D01*
X155100000Y-88300000D02*
X155100000Y-88600000D01*
X150900000Y-83700000D02*
X150900000Y-83400000D01*
X155100000Y-83700000D02*
X155100000Y-83400000D01*
X150900000Y-83400000D02*
X151200000Y-83400000D01*
X155100000Y-83400000D02*
X154800000Y-83400000D01*
D11*
X127977500Y-90347224D02*
X127977500Y-89837776D01*
X129022500Y-90347224D02*
X129022500Y-89837776D01*
X153004724Y-126772500D02*
X152495276Y-126772500D01*
X153004724Y-125727500D02*
X152495276Y-125727500D01*
X119682776Y-106477500D02*
X120192224Y-106477500D01*
X119682776Y-107522500D02*
X120192224Y-107522500D01*
X129192224Y-119522500D02*
X128682776Y-119522500D01*
X129192224Y-118477500D02*
X128682776Y-118477500D01*
D12*
X165400000Y-88600000D02*
X165100000Y-88300000D01*
X165800000Y-88600000D02*
X165400000Y-88600000D01*
X169100000Y-88600000D02*
X168800000Y-88600000D01*
X165100000Y-88300000D02*
X164300000Y-88300000D01*
X169100000Y-88300000D02*
X169100000Y-88600000D01*
X164900000Y-83700000D02*
X164900000Y-83400000D01*
X169100000Y-83700000D02*
X169100000Y-83400000D01*
X164900000Y-83400000D02*
X165200000Y-83400000D01*
X169100000Y-83400000D02*
X168800000Y-83400000D01*
D11*
X186182776Y-129340000D02*
X186692224Y-129340000D01*
X186182776Y-130385000D02*
X186692224Y-130385000D01*
X131022500Y-89837776D02*
X131022500Y-90347224D01*
X129977500Y-89837776D02*
X129977500Y-90347224D01*
X158682776Y-88477500D02*
X159192224Y-88477500D01*
X158682776Y-89522500D02*
X159192224Y-89522500D01*
%LPC*%
D13*
X141500000Y-129500000D03*
X141500000Y-123000000D03*
X146000000Y-129500000D03*
X146000000Y-123000000D03*
D14*
X180000000Y-119254000D03*
D15*
X177460000Y-119254000D03*
X180000000Y-121794000D03*
X177460000Y-121794000D03*
X180000000Y-124334000D03*
X177460000Y-124334000D03*
X180000000Y-126874000D03*
X177460000Y-126874000D03*
X180000000Y-129414000D03*
X177460000Y-129414000D03*
D13*
X132500000Y-129500000D03*
X132500000Y-123000000D03*
X137000000Y-129500000D03*
X137000000Y-123000000D03*
D16*
X113000000Y-107000000D03*
D17*
X113000000Y-104500000D03*
X113000000Y-102000000D03*
D13*
X123500000Y-129500000D03*
X123500000Y-123000000D03*
X128000000Y-129500000D03*
X128000000Y-123000000D03*
D18*
X204950000Y-130150000D03*
X205594370Y-128594370D03*
X205594370Y-131705630D03*
X207150000Y-127950000D03*
D19*
X207150000Y-130150000D03*
D18*
X207150000Y-132350000D03*
X208705630Y-128594370D03*
X208705630Y-131705630D03*
X209350000Y-130150000D03*
X110680000Y-85850000D03*
X111324370Y-84294370D03*
X111324370Y-87405630D03*
X112880000Y-83650000D03*
D19*
X112880000Y-85850000D03*
D18*
X112880000Y-88050000D03*
X114435630Y-84294370D03*
X114435630Y-87405630D03*
X115080000Y-85850000D03*
D20*
X170750000Y-94000000D03*
D21*
X168250000Y-94000000D03*
X165750000Y-94000000D03*
X163250000Y-94000000D03*
D22*
X125690000Y-89030000D03*
X125690000Y-91570000D03*
X125690000Y-94110000D03*
X125690000Y-96650000D03*
X133310000Y-96650000D03*
X133310000Y-94110000D03*
X133310000Y-91570000D03*
X133310000Y-89030000D03*
D23*
X192380000Y-125780000D03*
D24*
X194920000Y-125780000D03*
X197460000Y-125780000D03*
X200000000Y-125780000D03*
X202540000Y-125780000D03*
X205080000Y-125780000D03*
X207620000Y-125780000D03*
X207620000Y-90220000D03*
X205080000Y-90220000D03*
X202540000Y-90220000D03*
X200000000Y-90220000D03*
X197460000Y-90220000D03*
X194920000Y-90220000D03*
X192380000Y-90220000D03*
D14*
X172634000Y-116714000D03*
D15*
X170094000Y-116714000D03*
X172634000Y-119254000D03*
X170094000Y-119254000D03*
X172634000Y-121794000D03*
X170094000Y-121794000D03*
X172634000Y-124334000D03*
X170094000Y-124334000D03*
X172634000Y-126874000D03*
X170094000Y-126874000D03*
X172634000Y-129414000D03*
X170094000Y-129414000D03*
D20*
X156750000Y-94000000D03*
D21*
X154250000Y-94000000D03*
X151750000Y-94000000D03*
X149250000Y-94000000D03*
D14*
X160000000Y-87540000D03*
D15*
X160000000Y-85000000D03*
D18*
X110650000Y-130150000D03*
X111294370Y-128594370D03*
X111294370Y-131705630D03*
X112850000Y-127950000D03*
D19*
X112850000Y-130150000D03*
D18*
X112850000Y-132350000D03*
X114405630Y-128594370D03*
X114405630Y-131705630D03*
X115050000Y-130150000D03*
D13*
X150500000Y-129500000D03*
X150500000Y-123000000D03*
X155000000Y-129500000D03*
X155000000Y-123000000D03*
D18*
X204950000Y-85850000D03*
X205594370Y-84294370D03*
X205594370Y-87405630D03*
X207150000Y-83650000D03*
D19*
X207150000Y-85850000D03*
D18*
X207150000Y-88050000D03*
X208705630Y-84294370D03*
X208705630Y-87405630D03*
X209350000Y-85850000D03*
D25*
X143000000Y-116540000D03*
X143000000Y-111460000D03*
D14*
X174000000Y-87540000D03*
D15*
X174000000Y-85000000D03*
D20*
X184750000Y-94000000D03*
D21*
X182250000Y-94000000D03*
X179750000Y-94000000D03*
X177250000Y-94000000D03*
X139750000Y-92900000D03*
D20*
X142250000Y-92900000D03*
D26*
X141000000Y-86400000D03*
D27*
X130450000Y-96650000D03*
X128550000Y-96650000D03*
X129500000Y-93350000D03*
D28*
X130000000Y-117000000D03*
X127875000Y-117000000D03*
X126812500Y-126250000D03*
X124687500Y-126250000D03*
D29*
X118912500Y-102000000D03*
X121037500Y-102000000D03*
D28*
X130000000Y-113000000D03*
X127875000Y-113000000D03*
D29*
X171937500Y-89500000D03*
X174062500Y-89500000D03*
D28*
X130000000Y-111000000D03*
X127875000Y-111000000D03*
X144812500Y-126250000D03*
X142687500Y-126250000D03*
X130000000Y-115000000D03*
X127875000Y-115000000D03*
X135812500Y-126250000D03*
X133687500Y-126250000D03*
X130000000Y-109000000D03*
X127875000Y-109000000D03*
D30*
X113500000Y-119375000D03*
X113500000Y-116875000D03*
D31*
X150550000Y-87905000D03*
X150550000Y-86635000D03*
X150550000Y-85365000D03*
X150550000Y-84095000D03*
X155450000Y-84095000D03*
X155450000Y-85365000D03*
X155450000Y-86635000D03*
X155450000Y-87905000D03*
D32*
X128500000Y-91155000D03*
X128500000Y-89030000D03*
D28*
X153812500Y-126250000D03*
X151687500Y-126250000D03*
D29*
X118875000Y-107000000D03*
X121000000Y-107000000D03*
D28*
X130000000Y-119000000D03*
X127875000Y-119000000D03*
D31*
X164550000Y-87905000D03*
X164550000Y-86635000D03*
X164550000Y-85365000D03*
X164550000Y-84095000D03*
X169450000Y-84095000D03*
X169450000Y-85365000D03*
X169450000Y-86635000D03*
X169450000Y-87905000D03*
D29*
X185375000Y-129862500D03*
X187500000Y-129862500D03*
D33*
X130500000Y-89030000D03*
X130500000Y-91155000D03*
D29*
X157875000Y-89000000D03*
X160000000Y-89000000D03*
D34*
X112000000Y-96000000D03*
X112000000Y-93720000D03*
D35*
X118300000Y-93720000D03*
D34*
X112000000Y-91440000D03*
%LPD*%
M02*
