G04 #@! TF.GenerationSoftware,KiCad,Pcbnew,7.0.9*
G04 #@! TF.CreationDate,2024-07-10T10:25:31+09:00*
G04 #@! TF.ProjectId,ODAmain,4f44416d-6169-46e2-9e6b-696361645f70,rev?*
G04 #@! TF.SameCoordinates,Original*
G04 #@! TF.FileFunction,Soldermask,Bot*
G04 #@! TF.FilePolarity,Negative*
%FSLAX46Y46*%
G04 Gerber Fmt 4.6, Leading zero omitted, Abs format (unit mm)*
G04 Created by KiCad (PCBNEW 7.0.9) date 2024-07-10 10:25:31*
%MOMM*%
%LPD*%
G01*
G04 APERTURE LIST*
G04 Aperture macros list*
%AMRoundRect*
0 Rectangle with rounded corners*
0 $1 Rounding radius*
0 $2 $3 $4 $5 $6 $7 $8 $9 X,Y pos of 4 corners*
0 Add a 4 corners polygon primitive as box body*
4,1,4,$2,$3,$4,$5,$6,$7,$8,$9,$2,$3,0*
0 Add four circle primitives for the rounded corners*
1,1,$1+$1,$2,$3*
1,1,$1+$1,$4,$5*
1,1,$1+$1,$6,$7*
1,1,$1+$1,$8,$9*
0 Add four rect primitives between the rounded corners*
20,1,$1+$1,$2,$3,$4,$5,0*
20,1,$1+$1,$4,$5,$6,$7,0*
20,1,$1+$1,$6,$7,$8,$9,0*
20,1,$1+$1,$8,$9,$2,$3,0*%
G04 Aperture macros list end*
%ADD10C,2.000000*%
%ADD11R,1.700000X1.700000*%
%ADD12O,1.700000X1.700000*%
%ADD13RoundRect,0.250000X0.725000X-0.600000X0.725000X0.600000X-0.725000X0.600000X-0.725000X-0.600000X0*%
%ADD14O,1.950000X1.700000*%
%ADD15C,1.000000*%
%ADD16C,5.600000*%
%ADD17RoundRect,0.250000X0.600000X0.725000X-0.600000X0.725000X-0.600000X-0.725000X0.600000X-0.725000X0*%
%ADD18O,1.700000X1.950000*%
%ADD19O,1.800000X1.524000*%
%ADD20R,1.800000X2.200000*%
%ADD21O,1.800000X2.200000*%
%ADD22C,1.998980*%
%ADD23O,2.800000X2.000000*%
%ADD24R,0.800000X1.800000*%
%ADD25RoundRect,0.237500X0.400000X0.237500X-0.400000X0.237500X-0.400000X-0.237500X0.400000X-0.237500X0*%
%ADD26RoundRect,0.237500X-0.400000X-0.237500X0.400000X-0.237500X0.400000X0.237500X-0.400000X0.237500X0*%
%ADD27R,1.000000X1.000000*%
%ADD28R,2.000000X0.600000*%
%ADD29RoundRect,0.237500X0.237500X-0.400000X0.237500X0.400000X-0.237500X0.400000X-0.237500X-0.400000X0*%
%ADD30RoundRect,0.237500X-0.237500X0.400000X-0.237500X-0.400000X0.237500X-0.400000X0.237500X0.400000X0*%
%ADD31R,2.200000X1.200000*%
%ADD32R,6.400000X5.800000*%
G04 APERTURE END LIST*
D10*
X141500000Y-129500000D03*
X141500000Y-123000000D03*
X146000000Y-129500000D03*
X146000000Y-123000000D03*
D11*
X180000000Y-119254000D03*
D12*
X177460000Y-119254000D03*
X180000000Y-121794000D03*
X177460000Y-121794000D03*
X180000000Y-124334000D03*
X177460000Y-124334000D03*
X180000000Y-126874000D03*
X177460000Y-126874000D03*
X180000000Y-129414000D03*
X177460000Y-129414000D03*
D10*
X132500000Y-129500000D03*
X132500000Y-123000000D03*
X137000000Y-129500000D03*
X137000000Y-123000000D03*
D13*
X113000000Y-107000000D03*
D14*
X113000000Y-104500000D03*
X113000000Y-102000000D03*
D10*
X123500000Y-129500000D03*
X123500000Y-123000000D03*
X128000000Y-129500000D03*
X128000000Y-123000000D03*
D15*
X204950000Y-130150000D03*
X205594370Y-128594370D03*
X205594370Y-131705630D03*
X207150000Y-127950000D03*
D16*
X207150000Y-130150000D03*
D15*
X207150000Y-132350000D03*
X208705630Y-128594370D03*
X208705630Y-131705630D03*
X209350000Y-130150000D03*
X110680000Y-85850000D03*
X111324370Y-84294370D03*
X111324370Y-87405630D03*
X112880000Y-83650000D03*
D16*
X112880000Y-85850000D03*
D15*
X112880000Y-88050000D03*
X114435630Y-84294370D03*
X114435630Y-87405630D03*
X115080000Y-85850000D03*
D17*
X170750000Y-94000000D03*
D18*
X168250000Y-94000000D03*
X165750000Y-94000000D03*
X163250000Y-94000000D03*
D19*
X125690000Y-89030000D03*
X125690000Y-91570000D03*
X125690000Y-94110000D03*
X125690000Y-96650000D03*
X133310000Y-96650000D03*
X133310000Y-94110000D03*
X133310000Y-91570000D03*
X133310000Y-89030000D03*
D20*
X192380000Y-125780000D03*
D21*
X194920000Y-125780000D03*
X197460000Y-125780000D03*
X200000000Y-125780000D03*
X202540000Y-125780000D03*
X205080000Y-125780000D03*
X207620000Y-125780000D03*
X207620000Y-90220000D03*
X205080000Y-90220000D03*
X202540000Y-90220000D03*
X200000000Y-90220000D03*
X197460000Y-90220000D03*
X194920000Y-90220000D03*
X192380000Y-90220000D03*
D11*
X172634000Y-116714000D03*
D12*
X170094000Y-116714000D03*
X172634000Y-119254000D03*
X170094000Y-119254000D03*
X172634000Y-121794000D03*
X170094000Y-121794000D03*
X172634000Y-124334000D03*
X170094000Y-124334000D03*
X172634000Y-126874000D03*
X170094000Y-126874000D03*
X172634000Y-129414000D03*
X170094000Y-129414000D03*
D17*
X156750000Y-94000000D03*
D18*
X154250000Y-94000000D03*
X151750000Y-94000000D03*
X149250000Y-94000000D03*
D11*
X160000000Y-87540000D03*
D12*
X160000000Y-85000000D03*
D15*
X110650000Y-130150000D03*
X111294370Y-128594370D03*
X111294370Y-131705630D03*
X112850000Y-127950000D03*
D16*
X112850000Y-130150000D03*
D15*
X112850000Y-132350000D03*
X114405630Y-128594370D03*
X114405630Y-131705630D03*
X115050000Y-130150000D03*
D10*
X150500000Y-129500000D03*
X150500000Y-123000000D03*
X155000000Y-129500000D03*
X155000000Y-123000000D03*
D15*
X204950000Y-85850000D03*
X205594370Y-84294370D03*
X205594370Y-87405630D03*
X207150000Y-83650000D03*
D16*
X207150000Y-85850000D03*
D15*
X207150000Y-88050000D03*
X208705630Y-84294370D03*
X208705630Y-87405630D03*
X209350000Y-85850000D03*
D22*
X143000000Y-116540000D03*
X143000000Y-111460000D03*
D11*
X174000000Y-87540000D03*
D12*
X174000000Y-85000000D03*
D17*
X184750000Y-94000000D03*
D18*
X182250000Y-94000000D03*
X179750000Y-94000000D03*
X177250000Y-94000000D03*
X139750000Y-92900000D03*
D17*
X142250000Y-92900000D03*
D23*
X141000000Y-86400000D03*
D24*
X130450000Y-96650000D03*
X128550000Y-96650000D03*
X129500000Y-93350000D03*
D25*
X130000000Y-117000000D03*
X127875000Y-117000000D03*
X126812500Y-126250000D03*
X124687500Y-126250000D03*
D26*
X118912500Y-102000000D03*
X121037500Y-102000000D03*
D25*
X130000000Y-113000000D03*
X127875000Y-113000000D03*
D26*
X171937500Y-89500000D03*
X174062500Y-89500000D03*
D25*
X130000000Y-111000000D03*
X127875000Y-111000000D03*
X144812500Y-126250000D03*
X142687500Y-126250000D03*
X130000000Y-115000000D03*
X127875000Y-115000000D03*
X135812500Y-126250000D03*
X133687500Y-126250000D03*
X130000000Y-109000000D03*
X127875000Y-109000000D03*
D27*
X113500000Y-119375000D03*
X113500000Y-116875000D03*
D28*
X150550000Y-87905000D03*
X150550000Y-86635000D03*
X150550000Y-85365000D03*
X150550000Y-84095000D03*
X155450000Y-84095000D03*
X155450000Y-85365000D03*
X155450000Y-86635000D03*
X155450000Y-87905000D03*
D29*
X128500000Y-91155000D03*
X128500000Y-89030000D03*
D25*
X153812500Y-126250000D03*
X151687500Y-126250000D03*
D26*
X118875000Y-107000000D03*
X121000000Y-107000000D03*
D25*
X130000000Y-119000000D03*
X127875000Y-119000000D03*
D28*
X164550000Y-87905000D03*
X164550000Y-86635000D03*
X164550000Y-85365000D03*
X164550000Y-84095000D03*
X169450000Y-84095000D03*
X169450000Y-85365000D03*
X169450000Y-86635000D03*
X169450000Y-87905000D03*
D26*
X185375000Y-129862500D03*
X187500000Y-129862500D03*
D30*
X130500000Y-89030000D03*
X130500000Y-91155000D03*
D26*
X157875000Y-89000000D03*
X160000000Y-89000000D03*
D31*
X112000000Y-96000000D03*
X112000000Y-93720000D03*
D32*
X118300000Y-93720000D03*
D31*
X112000000Y-91440000D03*
M02*
