M48
; DRILL file {KiCad 7.0.9} date Wed Jul 10 10:25:35 2024
; FORMAT={-:-/ absolute / metric / decimal}
; #@! TF.CreationDate,2024-07-10T10:25:35+09:00
; #@! TF.GenerationSoftware,Kicad,Pcbnew,7.0.9
; #@! TF.FileFunction,MixedPlating,1,2
FMAT,2
METRIC
; #@! TA.AperFunction,Plated,PTH,ViaDrill
T1C0.300
; #@! TA.AperFunction,Plated,PTH,ComponentDrill
T2C0.300
; #@! TA.AperFunction,Plated,PTH,ViaDrill
T3C0.400
; #@! TA.AperFunction,Plated,PTH,ComponentDrill
T4C0.800
; #@! TA.AperFunction,Plated,PTH,ComponentDrill
T5C0.800
; #@! TA.AperFunction,Plated,PTH,ComponentDrill
T6C0.950
; #@! TA.AperFunction,Plated,PTH,ComponentDrill
T7C1.000
; #@! TA.AperFunction,Plated,PTH,ComponentDrill
T8C1.100
; #@! TA.AperFunction,Plated,PTH,ComponentDrill
T9C3.200
; #@! TA.AperFunction,NonPlated,NPTH,ComponentDrill
T10C2.000
%
G90
G05
T1
X111.76Y-124.46
X114.3Y-124.46
X115.35Y-115.0
X116.84Y-83.82
X116.84Y-124.46
X116.84Y-127.0
X116.84Y-129.54
X116.84Y-132.08
X119.38Y-83.82
X119.38Y-99.06
X119.38Y-109.22
X119.38Y-111.76
X119.38Y-132.08
X120.938Y-107.0
X120.975Y-102.0
X121.92Y-83.82
X121.92Y-99.06
X121.92Y-109.22
X121.92Y-114.3
X121.92Y-116.84
X121.92Y-119.38
X124.46Y-83.82
X124.46Y-86.36
X124.46Y-99.06
X124.46Y-111.76
X124.46Y-114.3
X124.46Y-116.84
X124.46Y-119.38
X127.0Y-83.82
X127.0Y-86.36
X127.938Y-109.0
X127.938Y-111.0
X127.938Y-113.0
X127.938Y-115.0
X127.938Y-117.0
X127.938Y-119.0
X128.5Y-96.65
X129.54Y-83.82
X129.54Y-86.36
X129.54Y-127.0
X132.08Y-83.82
X132.08Y-86.36
X134.62Y-83.82
X134.62Y-86.36
X134.62Y-99.06
X134.62Y-116.84
X134.62Y-119.38
X137.16Y-83.82
X137.16Y-86.36
X137.16Y-88.9
X137.16Y-91.44
X137.16Y-93.98
X137.16Y-119.38
X139.7Y-83.82
X139.7Y-91.44
X139.7Y-119.38
X139.7Y-127.0
X142.24Y-83.82
X144.0Y-90.0
X144.78Y-83.82
X144.78Y-86.36
X144.78Y-88.9
X147.32Y-83.82
X147.32Y-127.0
X148.0Y-88.0
X148.0Y-89.0
X150.0Y-106.0
X151.0Y-103.0
X151.0Y-107.0
X151.0Y-109.0
X152.0Y-90.0
X152.0Y-121.0
X152.4Y-119.38
X153.0Y-104.0
X153.0Y-115.0
X153.6Y-88.2
X154.0Y-100.0
X154.0Y-101.0
X154.0Y-116.0
X155.0Y-102.0
X155.0Y-117.0
X155.0Y-121.0
X155.4Y-85.4
X155.4Y-86.6
X156.21Y-107.95
X157.0Y-99.0
X157.0Y-115.0
X157.0Y-119.0
X157.48Y-106.68
X157.48Y-109.22
X157.48Y-121.92
X157.48Y-124.46
X157.48Y-127.0
X158.75Y-105.41
X158.75Y-107.95
X158.75Y-110.49
X158.862Y-117.0
X160.02Y-104.14
X160.02Y-106.68
X160.02Y-109.22
X160.02Y-111.76
X161.0Y-90.0
X161.0Y-91.0
X161.0Y-99.0
X161.29Y-105.41
X161.29Y-107.95
X161.29Y-110.49
X161.5Y-121.794
X162.56Y-106.68
X162.56Y-109.22
X162.56Y-124.46
X162.56Y-127.0
X162.56Y-129.54
X163.83Y-107.95
X164.0Y-121.0
X165.0Y-117.0
X165.1Y-127.0
X166.0Y-119.0
X167.0Y-121.0
X167.6Y-88.2
X168.0Y-105.0
X168.0Y-114.0
X169.0Y-104.0
X169.0Y-109.0
X169.4Y-85.4
X169.4Y-86.6
X172.72Y-104.14
X172.72Y-106.68
X172.72Y-109.22
X175.26Y-106.68
X175.26Y-109.22
X175.26Y-111.76
X175.26Y-114.3
X177.8Y-101.6
X177.8Y-109.22
X180.34Y-99.06
X180.34Y-101.6
X180.34Y-104.14
X182.88Y-99.06
X182.88Y-101.6
X182.88Y-104.14
X182.88Y-106.68
X182.88Y-114.3
X182.88Y-116.84
X182.88Y-119.38
X182.88Y-121.92
X184.1Y-128.612
X185.42Y-109.22
X185.42Y-116.84
X185.42Y-119.38
X185.42Y-121.92
X185.42Y-124.46
X187.96Y-88.9
X187.96Y-91.44
X187.96Y-93.98
X187.96Y-96.52
X187.96Y-104.14
X187.96Y-106.68
X187.96Y-109.22
X187.96Y-111.76
X187.96Y-119.38
X187.96Y-121.92
X187.96Y-124.46
X188.737Y-128.612
X190.5Y-93.98
X190.5Y-101.6
X190.5Y-104.14
X190.5Y-106.68
X190.5Y-109.22
X190.5Y-111.76
X190.5Y-114.3
X190.5Y-121.92
X193.04Y-99.06
X193.04Y-101.6
X193.04Y-104.14
X193.04Y-106.68
X193.04Y-129.54
X193.04Y-132.08
X194.0Y-121.0
X195.58Y-109.22
X195.58Y-111.76
X195.58Y-114.3
X195.58Y-116.84
X195.58Y-119.38
X195.58Y-129.54
X195.58Y-132.08
X198.12Y-93.98
X198.12Y-96.52
X198.12Y-99.06
X198.12Y-101.6
X198.12Y-104.14
X198.12Y-106.68
X198.12Y-109.22
X198.12Y-111.76
X198.12Y-114.3
X198.12Y-116.84
X198.12Y-119.38
X198.12Y-121.92
X198.12Y-129.54
X198.12Y-132.08
X200.66Y-93.98
X200.66Y-96.52
X200.66Y-99.06
X200.66Y-101.6
X200.66Y-104.14
X200.66Y-106.68
X200.66Y-109.22
X200.66Y-111.76
X200.66Y-114.3
X200.66Y-116.84
X200.66Y-119.38
X200.66Y-121.92
X200.66Y-129.54
X200.66Y-132.08
X203.2Y-93.98
X203.2Y-96.52
X203.2Y-99.06
X203.2Y-101.6
X203.2Y-104.14
X203.2Y-106.68
X203.2Y-109.22
X203.2Y-111.76
X203.2Y-114.3
X203.2Y-116.84
X203.2Y-119.38
X203.2Y-121.92
X203.2Y-129.54
X203.2Y-132.08
X205.74Y-93.98
X205.74Y-96.52
X205.74Y-99.06
X205.74Y-101.6
X205.74Y-104.14
X205.74Y-106.68
X205.74Y-109.22
X205.74Y-111.76
X205.74Y-114.3
X205.74Y-116.84
X205.74Y-119.38
X205.74Y-121.92
X208.28Y-93.98
X208.28Y-96.52
X208.28Y-99.06
X208.28Y-101.6
X208.28Y-104.14
X208.28Y-111.76
X208.28Y-114.3
X208.28Y-116.84
X208.28Y-119.38
X208.28Y-121.92
T2
X110.65Y-130.15
X110.68Y-85.85
X111.294Y-128.594
X111.294Y-131.706
X111.324Y-84.294
X111.324Y-87.406
X112.85Y-127.95
X112.85Y-132.35
X112.88Y-83.65
X112.88Y-88.05
X114.406Y-128.594
X114.406Y-131.706
X114.436Y-84.294
X114.436Y-87.406
X115.05Y-130.15
X115.08Y-85.85
X204.95Y-85.85
X204.95Y-130.15
X205.594Y-84.294
X205.594Y-87.406
X205.594Y-128.594
X205.594Y-131.706
X207.15Y-83.65
X207.15Y-88.05
X207.15Y-127.95
X207.15Y-132.35
X208.706Y-84.294
X208.706Y-87.406
X208.706Y-128.594
X208.706Y-131.706
X209.35Y-85.85
X209.35Y-130.15
T3
X112.0Y-91.44
X112.0Y-96.0
X116.84Y-86.36
X116.84Y-104.14
X119.38Y-86.36
X119.38Y-104.14
X120.0Y-123.0
X123.0Y-132.0
X123.5Y-108.5
X130.0Y-107.0
X134.0Y-102.0
X139.7Y-88.9
X142.24Y-88.9
X144.0Y-96.0
X144.0Y-107.0
X149.0Y-107.0
X149.0Y-109.0
X149.86Y-96.52
X152.4Y-87.8
X161.0Y-117.0
X163.0Y-117.5
X163.0Y-120.0
X165.735Y-98.425
X166.214Y-128.214
X177.8Y-111.76
X177.8Y-116.84
X180.0Y-112.0
X180.34Y-114.3
X180.34Y-116.84
X187.96Y-86.36
X190.5Y-88.9
X190.5Y-91.44
T4
X125.69Y-89.03
X125.69Y-91.57
X125.69Y-94.11
X125.69Y-96.65
X133.31Y-89.03
X133.31Y-91.57
X133.31Y-94.11
X133.31Y-96.65
X192.38Y-90.22
X192.38Y-125.78
X194.92Y-90.22
X194.92Y-125.78
X197.46Y-90.22
X197.46Y-125.78
X200.0Y-90.22
X200.0Y-125.78
X202.54Y-90.22
X202.54Y-125.78
X205.08Y-90.22
X205.08Y-125.78
X207.62Y-90.22
X207.62Y-125.78
T5
X143.0Y-111.46
X143.0Y-116.54
T6
X113.0Y-102.0
X113.0Y-104.5
X113.0Y-107.0
X139.75Y-92.9
X142.25Y-92.9
X149.25Y-94.0
X151.75Y-94.0
X154.25Y-94.0
X156.75Y-94.0
X163.25Y-94.0
X165.75Y-94.0
X168.25Y-94.0
X170.75Y-94.0
X177.25Y-94.0
X179.75Y-94.0
X182.25Y-94.0
X184.75Y-94.0
T7
X160.0Y-85.0
X160.0Y-87.54
X170.094Y-116.714
X170.094Y-119.254
X170.094Y-121.794
X170.094Y-124.334
X170.094Y-126.874
X170.094Y-129.414
X172.634Y-116.714
X172.634Y-119.254
X172.634Y-121.794
X172.634Y-124.334
X172.634Y-126.874
X172.634Y-129.414
X174.0Y-85.0
X174.0Y-87.54
X177.46Y-119.254
X177.46Y-121.794
X177.46Y-124.334
X177.46Y-126.874
X177.46Y-129.414
X180.0Y-119.254
X180.0Y-121.794
X180.0Y-124.334
X180.0Y-126.874
X180.0Y-129.414
T8
X123.5Y-123.0
X123.5Y-129.5
X128.0Y-123.0
X128.0Y-129.5
X132.5Y-123.0
X132.5Y-129.5
X137.0Y-123.0
X137.0Y-129.5
X141.5Y-123.0
X141.5Y-129.5
X146.0Y-123.0
X146.0Y-129.5
X150.5Y-123.0
X150.5Y-129.5
X155.0Y-123.0
X155.0Y-129.5
T9
X112.85Y-130.15
X112.88Y-85.85
X207.15Y-85.85
X207.15Y-130.15
T10
X141.4Y-86.4G85X140.6Y-86.4
G05
T0
M30
