G04 #@! TF.GenerationSoftware,KiCad,Pcbnew,7.0.9*
G04 #@! TF.CreationDate,2024-07-10T10:25:31+09:00*
G04 #@! TF.ProjectId,ODAmain,4f44416d-6169-46e2-9e6b-696361645f70,rev?*
G04 #@! TF.SameCoordinates,Original*
G04 #@! TF.FileFunction,Paste,Bot*
G04 #@! TF.FilePolarity,Positive*
%FSLAX46Y46*%
G04 Gerber Fmt 4.6, Leading zero omitted, Abs format (unit mm)*
G04 Created by KiCad (PCBNEW 7.0.9) date 2024-07-10 10:25:31*
%MOMM*%
%LPD*%
G01*
G04 APERTURE LIST*
G04 Aperture macros list*
%AMRoundRect*
0 Rectangle with rounded corners*
0 $1 Rounding radius*
0 $2 $3 $4 $5 $6 $7 $8 $9 X,Y pos of 4 corners*
0 Add a 4 corners polygon primitive as box body*
4,1,4,$2,$3,$4,$5,$6,$7,$8,$9,$2,$3,0*
0 Add four circle primitives for the rounded corners*
1,1,$1+$1,$2,$3*
1,1,$1+$1,$4,$5*
1,1,$1+$1,$6,$7*
1,1,$1+$1,$8,$9*
0 Add four rect primitives between the rounded corners*
20,1,$1+$1,$2,$3,$4,$5,0*
20,1,$1+$1,$4,$5,$6,$7,0*
20,1,$1+$1,$6,$7,$8,$9,0*
20,1,$1+$1,$8,$9,$2,$3,0*%
G04 Aperture macros list end*
%ADD10R,0.800000X1.800000*%
%ADD11RoundRect,0.237500X0.400000X0.237500X-0.400000X0.237500X-0.400000X-0.237500X0.400000X-0.237500X0*%
%ADD12RoundRect,0.237500X-0.400000X-0.237500X0.400000X-0.237500X0.400000X0.237500X-0.400000X0.237500X0*%
%ADD13R,1.000000X1.000000*%
%ADD14R,2.000000X0.600000*%
%ADD15RoundRect,0.237500X0.237500X-0.400000X0.237500X0.400000X-0.237500X0.400000X-0.237500X-0.400000X0*%
%ADD16RoundRect,0.237500X-0.237500X0.400000X-0.237500X-0.400000X0.237500X-0.400000X0.237500X0.400000X0*%
%ADD17R,2.200000X1.200000*%
%ADD18R,6.400000X5.800000*%
G04 APERTURE END LIST*
D10*
X130450000Y-96650000D03*
X128550000Y-96650000D03*
X129500000Y-93350000D03*
D11*
X130000000Y-117000000D03*
X127875000Y-117000000D03*
X126812500Y-126250000D03*
X124687500Y-126250000D03*
D12*
X118912500Y-102000000D03*
X121037500Y-102000000D03*
D11*
X130000000Y-113000000D03*
X127875000Y-113000000D03*
D12*
X171937500Y-89500000D03*
X174062500Y-89500000D03*
D11*
X130000000Y-111000000D03*
X127875000Y-111000000D03*
X144812500Y-126250000D03*
X142687500Y-126250000D03*
X130000000Y-115000000D03*
X127875000Y-115000000D03*
X135812500Y-126250000D03*
X133687500Y-126250000D03*
X130000000Y-109000000D03*
X127875000Y-109000000D03*
D13*
X113500000Y-119375000D03*
X113500000Y-116875000D03*
D14*
X150550000Y-87905000D03*
X150550000Y-86635000D03*
X150550000Y-85365000D03*
X150550000Y-84095000D03*
X155450000Y-84095000D03*
X155450000Y-85365000D03*
X155450000Y-86635000D03*
X155450000Y-87905000D03*
D15*
X128500000Y-91155000D03*
X128500000Y-89030000D03*
D11*
X153812500Y-126250000D03*
X151687500Y-126250000D03*
D12*
X118875000Y-107000000D03*
X121000000Y-107000000D03*
D11*
X130000000Y-119000000D03*
X127875000Y-119000000D03*
D14*
X164550000Y-87905000D03*
X164550000Y-86635000D03*
X164550000Y-85365000D03*
X164550000Y-84095000D03*
X169450000Y-84095000D03*
X169450000Y-85365000D03*
X169450000Y-86635000D03*
X169450000Y-87905000D03*
D12*
X185375000Y-129862500D03*
X187500000Y-129862500D03*
D16*
X130500000Y-89030000D03*
X130500000Y-91155000D03*
D12*
X157875000Y-89000000D03*
X160000000Y-89000000D03*
D17*
X112000000Y-96000000D03*
X112000000Y-93720000D03*
D18*
X118300000Y-93720000D03*
D17*
X112000000Y-91440000D03*
M02*
