G04 #@! TF.GenerationSoftware,KiCad,Pcbnew,(6.0.8-1)-1*
G04 #@! TF.CreationDate,2023-04-27T22:08:01+09:00*
G04 #@! TF.ProjectId,ikako_f303,696b616b-6f5f-4663-9330-332e6b696361,rev?*
G04 #@! TF.SameCoordinates,Original*
G04 #@! TF.FileFunction,Legend,Bot*
G04 #@! TF.FilePolarity,Positive*
%FSLAX46Y46*%
G04 Gerber Fmt 4.6, Leading zero omitted, Abs format (unit mm)*
G04 Created by KiCad (PCBNEW (6.0.8-1)-1) date 2023-04-27 22:08:01*
%MOMM*%
%LPD*%
G01*
G04 APERTURE LIST*
G04 Aperture macros list*
%AMRoundRect*
0 Rectangle with rounded corners*
0 $1 Rounding radius*
0 $2 $3 $4 $5 $6 $7 $8 $9 X,Y pos of 4 corners*
0 Add a 4 corners polygon primitive as box body*
4,1,4,$2,$3,$4,$5,$6,$7,$8,$9,$2,$3,0*
0 Add four circle primitives for the rounded corners*
1,1,$1+$1,$2,$3*
1,1,$1+$1,$4,$5*
1,1,$1+$1,$6,$7*
1,1,$1+$1,$8,$9*
0 Add four rect primitives between the rounded corners*
20,1,$1+$1,$2,$3,$4,$5,0*
20,1,$1+$1,$4,$5,$6,$7,0*
20,1,$1+$1,$6,$7,$8,$9,0*
20,1,$1+$1,$8,$9,$2,$3,0*%
G04 Aperture macros list end*
%ADD10C,0.150000*%
%ADD11C,0.120000*%
%ADD12C,1.500000*%
%ADD13C,2.000000*%
%ADD14C,0.800000*%
%ADD15C,6.400000*%
%ADD16R,1.700000X1.700000*%
%ADD17O,1.700000X1.700000*%
%ADD18R,1.600000X1.600000*%
%ADD19O,1.600000X1.600000*%
%ADD20O,2.000000X2.800000*%
%ADD21RoundRect,0.250000X0.725000X-0.600000X0.725000X0.600000X-0.725000X0.600000X-0.725000X-0.600000X0*%
%ADD22O,1.950000X1.700000*%
%ADD23RoundRect,0.250000X-0.725000X0.600000X-0.725000X-0.600000X0.725000X-0.600000X0.725000X0.600000X0*%
%ADD24RoundRect,0.250000X0.350000X0.450000X-0.350000X0.450000X-0.350000X-0.450000X0.350000X-0.450000X0*%
%ADD25RoundRect,0.208750X0.208750X0.431250X-0.208750X0.431250X-0.208750X-0.431250X0.208750X-0.431250X0*%
%ADD26RoundRect,0.250000X0.450000X-0.350000X0.450000X0.350000X-0.450000X0.350000X-0.450000X-0.350000X0*%
%ADD27RoundRect,0.250000X-0.412500X-0.650000X0.412500X-0.650000X0.412500X0.650000X-0.412500X0.650000X0*%
%ADD28RoundRect,0.250000X0.650000X-0.412500X0.650000X0.412500X-0.650000X0.412500X-0.650000X-0.412500X0*%
G04 APERTURE END LIST*
D10*
X154452380Y-80547619D02*
X154404761Y-80500000D01*
X154309523Y-80452380D01*
X154071428Y-80452380D01*
X153976190Y-80500000D01*
X153928571Y-80547619D01*
X153880952Y-80642857D01*
X153880952Y-80738095D01*
X153928571Y-80880952D01*
X154500000Y-81452380D01*
X153880952Y-81452380D01*
X153452380Y-81357142D02*
X153404761Y-81404761D01*
X153452380Y-81452380D01*
X153500000Y-81404761D01*
X153452380Y-81357142D01*
X153452380Y-81452380D01*
X153023809Y-80547619D02*
X152976190Y-80500000D01*
X152880952Y-80452380D01*
X152642857Y-80452380D01*
X152547619Y-80500000D01*
X152500000Y-80547619D01*
X152452380Y-80642857D01*
X152452380Y-80738095D01*
X152500000Y-80880952D01*
X153071428Y-81452380D01*
X152452380Y-81452380D01*
X152023809Y-80785714D02*
X152023809Y-81785714D01*
X151547619Y-81309523D02*
X151500000Y-81404761D01*
X151404761Y-81452380D01*
X152023809Y-81309523D02*
X151976190Y-81404761D01*
X151880952Y-81452380D01*
X151690476Y-81452380D01*
X151595238Y-81404761D01*
X151547619Y-81309523D01*
X151547619Y-80785714D01*
X150642857Y-80928571D02*
X150976190Y-80928571D01*
X150976190Y-81452380D02*
X150976190Y-80452380D01*
X150500000Y-80452380D01*
X147547619Y-50452380D02*
X147547619Y-49452380D01*
X147166666Y-49452380D01*
X147071428Y-49500000D01*
X147023809Y-49547619D01*
X146976190Y-49642857D01*
X146976190Y-49785714D01*
X147023809Y-49880952D01*
X147071428Y-49928571D01*
X147166666Y-49976190D01*
X147547619Y-49976190D01*
X146595238Y-50166666D02*
X146119047Y-50166666D01*
X146690476Y-50452380D02*
X146357142Y-49452380D01*
X146023809Y-50452380D01*
X145928571Y-50547619D02*
X145166666Y-50547619D01*
X145023809Y-49452380D02*
X144357142Y-49452380D01*
X144785714Y-50452380D01*
X160023809Y-50452380D02*
X160023809Y-49452380D01*
X159642857Y-49452380D01*
X159547619Y-49500000D01*
X159500000Y-49547619D01*
X159452380Y-49642857D01*
X159452380Y-49785714D01*
X159500000Y-49880952D01*
X159547619Y-49928571D01*
X159642857Y-49976190D01*
X160023809Y-49976190D01*
X159071428Y-50166666D02*
X158595238Y-50166666D01*
X159166666Y-50452380D02*
X158833333Y-49452380D01*
X158500000Y-50452380D01*
X158404761Y-50547619D02*
X157642857Y-50547619D01*
X156880952Y-50452380D02*
X157452380Y-50452380D01*
X157166666Y-50452380D02*
X157166666Y-49452380D01*
X157261904Y-49595238D01*
X157357142Y-49690476D01*
X157452380Y-49738095D01*
X156500000Y-49547619D02*
X156452380Y-49500000D01*
X156357142Y-49452380D01*
X156119047Y-49452380D01*
X156023809Y-49500000D01*
X155976190Y-49547619D01*
X155928571Y-49642857D01*
X155928571Y-49738095D01*
X155976190Y-49880952D01*
X156547619Y-50452380D01*
X155928571Y-50452380D01*
X147547619Y-52452380D02*
X147547619Y-51452380D01*
X147166666Y-51452380D01*
X147071428Y-51500000D01*
X147023809Y-51547619D01*
X146976190Y-51642857D01*
X146976190Y-51785714D01*
X147023809Y-51880952D01*
X147071428Y-51928571D01*
X147166666Y-51976190D01*
X147547619Y-51976190D01*
X146595238Y-52166666D02*
X146119047Y-52166666D01*
X146690476Y-52452380D02*
X146357142Y-51452380D01*
X146023809Y-52452380D01*
X145928571Y-52547619D02*
X145166666Y-52547619D01*
X144500000Y-51452380D02*
X144690476Y-51452380D01*
X144785714Y-51500000D01*
X144833333Y-51547619D01*
X144928571Y-51690476D01*
X144976190Y-51880952D01*
X144976190Y-52261904D01*
X144928571Y-52357142D01*
X144880952Y-52404761D01*
X144785714Y-52452380D01*
X144595238Y-52452380D01*
X144500000Y-52404761D01*
X144452380Y-52357142D01*
X144404761Y-52261904D01*
X144404761Y-52023809D01*
X144452380Y-51928571D01*
X144500000Y-51880952D01*
X144595238Y-51833333D01*
X144785714Y-51833333D01*
X144880952Y-51880952D01*
X144928571Y-51928571D01*
X144976190Y-52023809D01*
X165904761Y-50357142D02*
X165952380Y-50404761D01*
X166095238Y-50452380D01*
X166190476Y-50452380D01*
X166333333Y-50404761D01*
X166428571Y-50309523D01*
X166476190Y-50214285D01*
X166523809Y-50023809D01*
X166523809Y-49880952D01*
X166476190Y-49690476D01*
X166428571Y-49595238D01*
X166333333Y-49500000D01*
X166190476Y-49452380D01*
X166095238Y-49452380D01*
X165952380Y-49500000D01*
X165904761Y-49547619D01*
X165523809Y-50166666D02*
X165047619Y-50166666D01*
X165619047Y-50452380D02*
X165285714Y-49452380D01*
X164952380Y-50452380D01*
X164619047Y-50452380D02*
X164619047Y-49452380D01*
X164047619Y-50452380D01*
X164047619Y-49452380D01*
X163809523Y-50547619D02*
X163047619Y-50547619D01*
X162952380Y-49452380D02*
X162380952Y-49452380D01*
X162666666Y-50452380D02*
X162666666Y-49452380D01*
X162047619Y-50452380D02*
X162047619Y-49452380D01*
X161809523Y-49452380D01*
X161666666Y-49500000D01*
X161571428Y-49595238D01*
X161523809Y-49690476D01*
X161476190Y-49880952D01*
X161476190Y-50023809D01*
X161523809Y-50214285D01*
X161571428Y-50309523D01*
X161666666Y-50404761D01*
X161809523Y-50452380D01*
X162047619Y-50452380D01*
X152571428Y-50452380D02*
X152571428Y-49452380D01*
X152238095Y-50166666D01*
X151904761Y-49452380D01*
X151904761Y-50452380D01*
X151238095Y-49452380D02*
X151047619Y-49452380D01*
X150952380Y-49500000D01*
X150857142Y-49595238D01*
X150809523Y-49785714D01*
X150809523Y-50119047D01*
X150857142Y-50309523D01*
X150952380Y-50404761D01*
X151047619Y-50452380D01*
X151238095Y-50452380D01*
X151333333Y-50404761D01*
X151428571Y-50309523D01*
X151476190Y-50119047D01*
X151476190Y-49785714D01*
X151428571Y-49595238D01*
X151333333Y-49500000D01*
X151238095Y-49452380D01*
X150428571Y-50404761D02*
X150285714Y-50452380D01*
X150047619Y-50452380D01*
X149952380Y-50404761D01*
X149904761Y-50357142D01*
X149857142Y-50261904D01*
X149857142Y-50166666D01*
X149904761Y-50071428D01*
X149952380Y-50023809D01*
X150047619Y-49976190D01*
X150238095Y-49928571D01*
X150333333Y-49880952D01*
X150380952Y-49833333D01*
X150428571Y-49738095D01*
X150428571Y-49642857D01*
X150380952Y-49547619D01*
X150333333Y-49500000D01*
X150238095Y-49452380D01*
X150000000Y-49452380D01*
X149857142Y-49500000D01*
X149428571Y-50452380D02*
X149428571Y-49452380D01*
X151952380Y-61547619D02*
X151904761Y-61500000D01*
X151809523Y-61452380D01*
X151571428Y-61452380D01*
X151476190Y-61500000D01*
X151428571Y-61547619D01*
X151380952Y-61642857D01*
X151380952Y-61738095D01*
X151428571Y-61880952D01*
X152000000Y-62452380D01*
X151380952Y-62452380D01*
X150952380Y-62357142D02*
X150904761Y-62404761D01*
X150952380Y-62452380D01*
X151000000Y-62404761D01*
X150952380Y-62357142D01*
X150952380Y-62452380D01*
X150523809Y-61547619D02*
X150476190Y-61500000D01*
X150380952Y-61452380D01*
X150142857Y-61452380D01*
X150047619Y-61500000D01*
X150000000Y-61547619D01*
X149952380Y-61642857D01*
X149952380Y-61738095D01*
X150000000Y-61880952D01*
X150571428Y-62452380D01*
X149952380Y-62452380D01*
X149523809Y-61785714D02*
X149523809Y-62785714D01*
X149047619Y-62309523D02*
X149000000Y-62404761D01*
X148904761Y-62452380D01*
X149523809Y-62309523D02*
X149476190Y-62404761D01*
X149380952Y-62452380D01*
X149190476Y-62452380D01*
X149095238Y-62404761D01*
X149047619Y-62309523D01*
X149047619Y-61785714D01*
X148142857Y-61928571D02*
X148476190Y-61928571D01*
X148476190Y-62452380D02*
X148476190Y-61452380D01*
X148000000Y-61452380D01*
X147714285Y-77452380D02*
X147619047Y-77452380D01*
X147523809Y-77500000D01*
X147476190Y-77547619D01*
X147428571Y-77642857D01*
X147380952Y-77833333D01*
X147380952Y-78071428D01*
X147428571Y-78261904D01*
X147476190Y-78357142D01*
X147523809Y-78404761D01*
X147619047Y-78452380D01*
X147714285Y-78452380D01*
X147809523Y-78404761D01*
X147857142Y-78357142D01*
X147904761Y-78261904D01*
X147952380Y-78071428D01*
X147952380Y-77833333D01*
X147904761Y-77642857D01*
X147857142Y-77547619D01*
X147809523Y-77500000D01*
X147714285Y-77452380D01*
X146952380Y-78357142D02*
X146904761Y-78404761D01*
X146952380Y-78452380D01*
X147000000Y-78404761D01*
X146952380Y-78357142D01*
X146952380Y-78452380D01*
X145952380Y-78452380D02*
X146523809Y-78452380D01*
X146238095Y-78452380D02*
X146238095Y-77452380D01*
X146333333Y-77595238D01*
X146428571Y-77690476D01*
X146523809Y-77738095D01*
X145523809Y-77785714D02*
X145523809Y-78785714D01*
X145047619Y-78309523D02*
X145000000Y-78404761D01*
X144904761Y-78452380D01*
X145523809Y-78309523D02*
X145476190Y-78404761D01*
X145380952Y-78452380D01*
X145190476Y-78452380D01*
X145095238Y-78404761D01*
X145047619Y-78309523D01*
X145047619Y-77785714D01*
X144142857Y-77928571D02*
X144476190Y-77928571D01*
X144476190Y-78452380D02*
X144476190Y-77452380D01*
X144000000Y-77452380D01*
X141619047Y-52404761D02*
X141476190Y-52452380D01*
X141238095Y-52452380D01*
X141142857Y-52404761D01*
X141095238Y-52357142D01*
X141047619Y-52261904D01*
X141047619Y-52166666D01*
X141095238Y-52071428D01*
X141142857Y-52023809D01*
X141238095Y-51976190D01*
X141428571Y-51928571D01*
X141523809Y-51880952D01*
X141571428Y-51833333D01*
X141619047Y-51738095D01*
X141619047Y-51642857D01*
X141571428Y-51547619D01*
X141523809Y-51500000D01*
X141428571Y-51452380D01*
X141190476Y-51452380D01*
X141047619Y-51500000D01*
X140666666Y-52404761D02*
X140523809Y-52452380D01*
X140285714Y-52452380D01*
X140190476Y-52404761D01*
X140142857Y-52357142D01*
X140095238Y-52261904D01*
X140095238Y-52166666D01*
X140142857Y-52071428D01*
X140190476Y-52023809D01*
X140285714Y-51976190D01*
X140476190Y-51928571D01*
X140571428Y-51880952D01*
X140619047Y-51833333D01*
X140666666Y-51738095D01*
X140666666Y-51642857D01*
X140619047Y-51547619D01*
X140571428Y-51500000D01*
X140476190Y-51452380D01*
X140238095Y-51452380D01*
X140095238Y-51500000D01*
X139666666Y-51928571D02*
X139333333Y-51928571D01*
X139190476Y-52452380D02*
X139666666Y-52452380D01*
X139666666Y-51452380D01*
X139190476Y-51452380D01*
X138285714Y-52452380D02*
X138761904Y-52452380D01*
X138761904Y-51452380D01*
X136547619Y-52452380D02*
X136547619Y-51452380D01*
X136166666Y-51452380D01*
X136071428Y-51500000D01*
X136023809Y-51547619D01*
X135976190Y-51642857D01*
X135976190Y-51785714D01*
X136023809Y-51880952D01*
X136071428Y-51928571D01*
X136166666Y-51976190D01*
X136547619Y-51976190D01*
X135595238Y-52166666D02*
X135119047Y-52166666D01*
X135690476Y-52452380D02*
X135357142Y-51452380D01*
X135023809Y-52452380D01*
X134928571Y-52547619D02*
X134166666Y-52547619D01*
X133500000Y-51785714D02*
X133500000Y-52452380D01*
X133738095Y-51404761D02*
X133976190Y-52119047D01*
X133357142Y-52119047D01*
X166023809Y-52357142D02*
X166071428Y-52404761D01*
X166214285Y-52452380D01*
X166309523Y-52452380D01*
X166452380Y-52404761D01*
X166547619Y-52309523D01*
X166595238Y-52214285D01*
X166642857Y-52023809D01*
X166642857Y-51880952D01*
X166595238Y-51690476D01*
X166547619Y-51595238D01*
X166452380Y-51500000D01*
X166309523Y-51452380D01*
X166214285Y-51452380D01*
X166071428Y-51500000D01*
X166023809Y-51547619D01*
X165642857Y-52166666D02*
X165166666Y-52166666D01*
X165738095Y-52452380D02*
X165404761Y-51452380D01*
X165071428Y-52452380D01*
X164738095Y-52452380D02*
X164738095Y-51452380D01*
X164166666Y-52452380D01*
X164166666Y-51452380D01*
X163928571Y-52547619D02*
X163166666Y-52547619D01*
X162357142Y-52452380D02*
X162690476Y-51976190D01*
X162928571Y-52452380D02*
X162928571Y-51452380D01*
X162547619Y-51452380D01*
X162452380Y-51500000D01*
X162404761Y-51547619D01*
X162357142Y-51642857D01*
X162357142Y-51785714D01*
X162404761Y-51880952D01*
X162452380Y-51928571D01*
X162547619Y-51976190D01*
X162928571Y-51976190D01*
X161928571Y-52452380D02*
X161928571Y-51452380D01*
X161690476Y-51452380D01*
X161547619Y-51500000D01*
X161452380Y-51595238D01*
X161404761Y-51690476D01*
X161357142Y-51880952D01*
X161357142Y-52023809D01*
X161404761Y-52214285D01*
X161452380Y-52309523D01*
X161547619Y-52404761D01*
X161690476Y-52452380D01*
X161928571Y-52452380D01*
X141690476Y-50404761D02*
X141547619Y-50452380D01*
X141309523Y-50452380D01*
X141214285Y-50404761D01*
X141166666Y-50357142D01*
X141119047Y-50261904D01*
X141119047Y-50166666D01*
X141166666Y-50071428D01*
X141214285Y-50023809D01*
X141309523Y-49976190D01*
X141500000Y-49928571D01*
X141595238Y-49880952D01*
X141642857Y-49833333D01*
X141690476Y-49738095D01*
X141690476Y-49642857D01*
X141642857Y-49547619D01*
X141595238Y-49500000D01*
X141500000Y-49452380D01*
X141261904Y-49452380D01*
X141119047Y-49500000D01*
X140119047Y-50357142D02*
X140166666Y-50404761D01*
X140309523Y-50452380D01*
X140404761Y-50452380D01*
X140547619Y-50404761D01*
X140642857Y-50309523D01*
X140690476Y-50214285D01*
X140738095Y-50023809D01*
X140738095Y-49880952D01*
X140690476Y-49690476D01*
X140642857Y-49595238D01*
X140547619Y-49500000D01*
X140404761Y-49452380D01*
X140309523Y-49452380D01*
X140166666Y-49500000D01*
X140119047Y-49547619D01*
X139214285Y-50452380D02*
X139690476Y-50452380D01*
X139690476Y-49452380D01*
X138880952Y-50452380D02*
X138880952Y-49452380D01*
X138309523Y-50452380D02*
X138738095Y-49880952D01*
X138309523Y-49452380D02*
X138880952Y-50023809D01*
X136547619Y-50452380D02*
X136547619Y-49452380D01*
X136166666Y-49452380D01*
X136071428Y-49500000D01*
X136023809Y-49547619D01*
X135976190Y-49642857D01*
X135976190Y-49785714D01*
X136023809Y-49880952D01*
X136071428Y-49928571D01*
X136166666Y-49976190D01*
X136547619Y-49976190D01*
X135595238Y-50166666D02*
X135119047Y-50166666D01*
X135690476Y-50452380D02*
X135357142Y-49452380D01*
X135023809Y-50452380D01*
X134928571Y-50547619D02*
X134166666Y-50547619D01*
X133452380Y-49452380D02*
X133928571Y-49452380D01*
X133976190Y-49928571D01*
X133928571Y-49880952D01*
X133833333Y-49833333D01*
X133595238Y-49833333D01*
X133500000Y-49880952D01*
X133452380Y-49928571D01*
X133404761Y-50023809D01*
X133404761Y-50261904D01*
X133452380Y-50357142D01*
X133500000Y-50404761D01*
X133595238Y-50452380D01*
X133833333Y-50452380D01*
X133928571Y-50404761D01*
X133976190Y-50357142D01*
X131666666Y-96452380D02*
X132238095Y-96452380D01*
X131952380Y-96452380D02*
X131952380Y-95452380D01*
X132047619Y-95595238D01*
X132142857Y-95690476D01*
X132238095Y-95738095D01*
X131047619Y-95452380D02*
X130952380Y-95452380D01*
X130857142Y-95500000D01*
X130809523Y-95547619D01*
X130761904Y-95642857D01*
X130714285Y-95833333D01*
X130714285Y-96071428D01*
X130761904Y-96261904D01*
X130809523Y-96357142D01*
X130857142Y-96404761D01*
X130952380Y-96452380D01*
X131047619Y-96452380D01*
X131142857Y-96404761D01*
X131190476Y-96357142D01*
X131238095Y-96261904D01*
X131285714Y-96071428D01*
X131285714Y-95833333D01*
X131238095Y-95642857D01*
X131190476Y-95547619D01*
X131142857Y-95500000D01*
X131047619Y-95452380D01*
X130285714Y-96452380D02*
X130285714Y-95452380D01*
X130190476Y-96071428D02*
X129904761Y-96452380D01*
X129904761Y-95785714D02*
X130285714Y-96166666D01*
X129523809Y-96452380D02*
X129285714Y-96452380D01*
X129285714Y-96261904D01*
X129380952Y-96214285D01*
X129476190Y-96119047D01*
X129523809Y-95976190D01*
X129523809Y-95738095D01*
X129476190Y-95595238D01*
X129380952Y-95500000D01*
X129238095Y-95452380D01*
X129047619Y-95452380D01*
X128904761Y-95500000D01*
X128809523Y-95595238D01*
X128761904Y-95738095D01*
X128761904Y-95976190D01*
X128809523Y-96119047D01*
X128904761Y-96214285D01*
X129000000Y-96261904D01*
X129000000Y-96452380D01*
X128761904Y-96452380D01*
X152571428Y-52452380D02*
X152571428Y-51452380D01*
X152238095Y-52166666D01*
X151904761Y-51452380D01*
X151904761Y-52452380D01*
X151428571Y-52452380D02*
X151428571Y-51452380D01*
X151000000Y-52404761D02*
X150857142Y-52452380D01*
X150619047Y-52452380D01*
X150523809Y-52404761D01*
X150476190Y-52357142D01*
X150428571Y-52261904D01*
X150428571Y-52166666D01*
X150476190Y-52071428D01*
X150523809Y-52023809D01*
X150619047Y-51976190D01*
X150809523Y-51928571D01*
X150904761Y-51880952D01*
X150952380Y-51833333D01*
X151000000Y-51738095D01*
X151000000Y-51642857D01*
X150952380Y-51547619D01*
X150904761Y-51500000D01*
X150809523Y-51452380D01*
X150571428Y-51452380D01*
X150428571Y-51500000D01*
X149809523Y-51452380D02*
X149619047Y-51452380D01*
X149523809Y-51500000D01*
X149428571Y-51595238D01*
X149380952Y-51785714D01*
X149380952Y-52119047D01*
X149428571Y-52309523D01*
X149523809Y-52404761D01*
X149619047Y-52452380D01*
X149809523Y-52452380D01*
X149904761Y-52404761D01*
X150000000Y-52309523D01*
X150047619Y-52119047D01*
X150047619Y-51785714D01*
X150000000Y-51595238D01*
X149904761Y-51500000D01*
X149809523Y-51452380D01*
X154666666Y-68452380D02*
X155238095Y-68452380D01*
X154952380Y-68452380D02*
X154952380Y-67452380D01*
X155047619Y-67595238D01*
X155142857Y-67690476D01*
X155238095Y-67738095D01*
X154047619Y-67452380D02*
X153952380Y-67452380D01*
X153857142Y-67500000D01*
X153809523Y-67547619D01*
X153761904Y-67642857D01*
X153714285Y-67833333D01*
X153714285Y-68071428D01*
X153761904Y-68261904D01*
X153809523Y-68357142D01*
X153857142Y-68404761D01*
X153952380Y-68452380D01*
X154047619Y-68452380D01*
X154142857Y-68404761D01*
X154190476Y-68357142D01*
X154238095Y-68261904D01*
X154285714Y-68071428D01*
X154285714Y-67833333D01*
X154238095Y-67642857D01*
X154190476Y-67547619D01*
X154142857Y-67500000D01*
X154047619Y-67452380D01*
X153285714Y-68452380D02*
X153285714Y-67452380D01*
X153190476Y-68071428D02*
X152904761Y-68452380D01*
X152904761Y-67785714D02*
X153285714Y-68166666D01*
X152523809Y-68452380D02*
X152285714Y-68452380D01*
X152285714Y-68261904D01*
X152380952Y-68214285D01*
X152476190Y-68119047D01*
X152523809Y-67976190D01*
X152523809Y-67738095D01*
X152476190Y-67595238D01*
X152380952Y-67500000D01*
X152238095Y-67452380D01*
X152047619Y-67452380D01*
X151904761Y-67500000D01*
X151809523Y-67595238D01*
X151761904Y-67738095D01*
X151761904Y-67976190D01*
X151809523Y-68119047D01*
X151904761Y-68214285D01*
X152000000Y-68261904D01*
X152000000Y-68452380D01*
X151761904Y-68452380D01*
X160023809Y-52452380D02*
X160023809Y-51452380D01*
X159642857Y-51452380D01*
X159547619Y-51500000D01*
X159500000Y-51547619D01*
X159452380Y-51642857D01*
X159452380Y-51785714D01*
X159500000Y-51880952D01*
X159547619Y-51928571D01*
X159642857Y-51976190D01*
X160023809Y-51976190D01*
X159071428Y-52166666D02*
X158595238Y-52166666D01*
X159166666Y-52452380D02*
X158833333Y-51452380D01*
X158500000Y-52452380D01*
X158404761Y-52547619D02*
X157642857Y-52547619D01*
X156880952Y-52452380D02*
X157452380Y-52452380D01*
X157166666Y-52452380D02*
X157166666Y-51452380D01*
X157261904Y-51595238D01*
X157357142Y-51690476D01*
X157452380Y-51738095D01*
X155928571Y-52452380D02*
X156500000Y-52452380D01*
X156214285Y-52452380D02*
X156214285Y-51452380D01*
X156309523Y-51595238D01*
X156404761Y-51690476D01*
X156500000Y-51738095D01*
X138578991Y-104392296D02*
X138912325Y-103916106D01*
X139150420Y-104392296D02*
X139150420Y-103392296D01*
X138769467Y-103392296D01*
X138674229Y-103439916D01*
X138626610Y-103487535D01*
X138578991Y-103582773D01*
X138578991Y-103725630D01*
X138626610Y-103820868D01*
X138674229Y-103868487D01*
X138769467Y-103916106D01*
X139150420Y-103916106D01*
X138198039Y-103487535D02*
X138150420Y-103439916D01*
X138055182Y-103392296D01*
X137817086Y-103392296D01*
X137721848Y-103439916D01*
X137674229Y-103487535D01*
X137626610Y-103582773D01*
X137626610Y-103678011D01*
X137674229Y-103820868D01*
X138245658Y-104392296D01*
X137626610Y-104392296D01*
X148166666Y-74867142D02*
X148214285Y-74914761D01*
X148357142Y-74962380D01*
X148452380Y-74962380D01*
X148595238Y-74914761D01*
X148690476Y-74819523D01*
X148738095Y-74724285D01*
X148785714Y-74533809D01*
X148785714Y-74390952D01*
X148738095Y-74200476D01*
X148690476Y-74105238D01*
X148595238Y-74010000D01*
X148452380Y-73962380D01*
X148357142Y-73962380D01*
X148214285Y-74010000D01*
X148166666Y-74057619D01*
X147309523Y-74295714D02*
X147309523Y-74962380D01*
X147547619Y-73914761D02*
X147785714Y-74629047D01*
X147166666Y-74629047D01*
X155102380Y-64833333D02*
X154626190Y-64500000D01*
X155102380Y-64261904D02*
X154102380Y-64261904D01*
X154102380Y-64642857D01*
X154150000Y-64738095D01*
X154197619Y-64785714D01*
X154292857Y-64833333D01*
X154435714Y-64833333D01*
X154530952Y-64785714D01*
X154578571Y-64738095D01*
X154626190Y-64642857D01*
X154626190Y-64261904D01*
X154435714Y-65690476D02*
X155102380Y-65690476D01*
X154054761Y-65452380D02*
X154769047Y-65214285D01*
X154769047Y-65833333D01*
X157604166Y-83207142D02*
X157651785Y-83254761D01*
X157794642Y-83302380D01*
X157889880Y-83302380D01*
X158032738Y-83254761D01*
X158127976Y-83159523D01*
X158175595Y-83064285D01*
X158223214Y-82873809D01*
X158223214Y-82730952D01*
X158175595Y-82540476D01*
X158127976Y-82445238D01*
X158032738Y-82350000D01*
X157889880Y-82302380D01*
X157794642Y-82302380D01*
X157651785Y-82350000D01*
X157604166Y-82397619D01*
X157032738Y-82730952D02*
X157127976Y-82683333D01*
X157175595Y-82635714D01*
X157223214Y-82540476D01*
X157223214Y-82492857D01*
X157175595Y-82397619D01*
X157127976Y-82350000D01*
X157032738Y-82302380D01*
X156842261Y-82302380D01*
X156747023Y-82350000D01*
X156699404Y-82397619D01*
X156651785Y-82492857D01*
X156651785Y-82540476D01*
X156699404Y-82635714D01*
X156747023Y-82683333D01*
X156842261Y-82730952D01*
X157032738Y-82730952D01*
X157127976Y-82778571D01*
X157175595Y-82826190D01*
X157223214Y-82921428D01*
X157223214Y-83111904D01*
X157175595Y-83207142D01*
X157127976Y-83254761D01*
X157032738Y-83302380D01*
X156842261Y-83302380D01*
X156747023Y-83254761D01*
X156699404Y-83207142D01*
X156651785Y-83111904D01*
X156651785Y-82921428D01*
X156699404Y-82826190D01*
X156747023Y-82778571D01*
X156842261Y-82730952D01*
X148166666Y-76867142D02*
X148214285Y-76914761D01*
X148357142Y-76962380D01*
X148452380Y-76962380D01*
X148595238Y-76914761D01*
X148690476Y-76819523D01*
X148738095Y-76724285D01*
X148785714Y-76533809D01*
X148785714Y-76390952D01*
X148738095Y-76200476D01*
X148690476Y-76105238D01*
X148595238Y-76010000D01*
X148452380Y-75962380D01*
X148357142Y-75962380D01*
X148214285Y-76010000D01*
X148166666Y-76057619D01*
X147261904Y-75962380D02*
X147738095Y-75962380D01*
X147785714Y-76438571D01*
X147738095Y-76390952D01*
X147642857Y-76343333D01*
X147404761Y-76343333D01*
X147309523Y-76390952D01*
X147261904Y-76438571D01*
X147214285Y-76533809D01*
X147214285Y-76771904D01*
X147261904Y-76867142D01*
X147309523Y-76914761D01*
X147404761Y-76962380D01*
X147642857Y-76962380D01*
X147738095Y-76914761D01*
X147785714Y-76867142D01*
X130578991Y-104392296D02*
X130912325Y-103916106D01*
X131150420Y-104392296D02*
X131150420Y-103392296D01*
X130769467Y-103392296D01*
X130674229Y-103439916D01*
X130626610Y-103487535D01*
X130578991Y-103582773D01*
X130578991Y-103725630D01*
X130626610Y-103820868D01*
X130674229Y-103868487D01*
X130769467Y-103916106D01*
X131150420Y-103916106D01*
X129626610Y-104392296D02*
X130198039Y-104392296D01*
X129912325Y-104392296D02*
X129912325Y-103392296D01*
X130007563Y-103535154D01*
X130102801Y-103630392D01*
X130198039Y-103678011D01*
X152399951Y-65147240D02*
X152447570Y-65099621D01*
X152495189Y-64956764D01*
X152495189Y-64861526D01*
X152447570Y-64718668D01*
X152352332Y-64623430D01*
X152257094Y-64575811D01*
X152066618Y-64528192D01*
X151923761Y-64528192D01*
X151733285Y-64575811D01*
X151638047Y-64623430D01*
X151542809Y-64718668D01*
X151495189Y-64861526D01*
X151495189Y-64956764D01*
X151542809Y-65099621D01*
X151590428Y-65147240D01*
X152495189Y-65623430D02*
X152495189Y-65813907D01*
X152447570Y-65909145D01*
X152399951Y-65956764D01*
X152257094Y-66052002D01*
X152066618Y-66099621D01*
X151685666Y-66099621D01*
X151590428Y-66052002D01*
X151542809Y-66004383D01*
X151495189Y-65909145D01*
X151495189Y-65718668D01*
X151542809Y-65623430D01*
X151590428Y-65575811D01*
X151685666Y-65528192D01*
X151923761Y-65528192D01*
X152018999Y-65575811D01*
X152066618Y-65623430D01*
X152114237Y-65718668D01*
X152114237Y-65909145D01*
X152066618Y-66004383D01*
X152018999Y-66052002D01*
X151923761Y-66099621D01*
X138578991Y-94774492D02*
X138912325Y-94298302D01*
X139150420Y-94774492D02*
X139150420Y-93774492D01*
X138769467Y-93774492D01*
X138674229Y-93822112D01*
X138626610Y-93869731D01*
X138578991Y-93964969D01*
X138578991Y-94107826D01*
X138626610Y-94203064D01*
X138674229Y-94250683D01*
X138769467Y-94298302D01*
X139150420Y-94298302D01*
X137674229Y-93774492D02*
X138150420Y-93774492D01*
X138198039Y-94250683D01*
X138150420Y-94203064D01*
X138055182Y-94155445D01*
X137817086Y-94155445D01*
X137721848Y-94203064D01*
X137674229Y-94250683D01*
X137626610Y-94345921D01*
X137626610Y-94584016D01*
X137674229Y-94679254D01*
X137721848Y-94726873D01*
X137817086Y-94774492D01*
X138055182Y-94774492D01*
X138150420Y-94726873D01*
X138198039Y-94679254D01*
D11*
X138639389Y-106324916D02*
X138185261Y-106324916D01*
X138639389Y-104854916D02*
X138185261Y-104854916D01*
X146101969Y-73890000D02*
X145898031Y-73890000D01*
X146101969Y-75130000D02*
X145898031Y-75130000D01*
X153735000Y-65227064D02*
X153735000Y-64772936D01*
X152265000Y-65227064D02*
X152265000Y-64772936D01*
X156726248Y-80090000D02*
X158148752Y-80090000D01*
X156726248Y-81910000D02*
X158148752Y-81910000D01*
X146101969Y-77130000D02*
X145898031Y-77130000D01*
X146101969Y-75890000D02*
X145898031Y-75890000D01*
X130639389Y-106324916D02*
X130185261Y-106324916D01*
X130639389Y-104854916D02*
X130185261Y-104854916D01*
X151102809Y-66025159D02*
X151102809Y-64602655D01*
X149282809Y-66025159D02*
X149282809Y-64602655D01*
X138639389Y-96707112D02*
X138185261Y-96707112D01*
X138639389Y-95237112D02*
X138185261Y-95237112D01*
%LPC*%
D12*
X138395000Y-75865000D03*
X138395000Y-70865000D03*
D13*
X135750000Y-99250000D03*
X135750000Y-92750000D03*
X140250000Y-92750000D03*
X140250000Y-99250000D03*
D14*
X120000000Y-108400000D03*
X121697056Y-104302944D03*
D15*
X120000000Y-106000000D03*
D14*
X117600000Y-106000000D03*
X118302944Y-107697056D03*
X121697056Y-107697056D03*
X120000000Y-103600000D03*
X118302944Y-104302944D03*
X122400000Y-106000000D03*
D13*
X128162325Y-108839916D03*
X128162325Y-102339916D03*
X132662325Y-102339916D03*
X132662325Y-108839916D03*
D16*
X154675000Y-100600000D03*
D17*
X157215000Y-100600000D03*
X159755000Y-100600000D03*
X162295000Y-100600000D03*
X164835000Y-100600000D03*
X167375000Y-100600000D03*
D18*
X160200000Y-86200000D03*
D19*
X160200000Y-88740000D03*
X160200000Y-91280000D03*
X160200000Y-93820000D03*
X167820000Y-93820000D03*
X167820000Y-91280000D03*
X167820000Y-88740000D03*
X167820000Y-86200000D03*
D14*
X178302944Y-53697056D03*
X178302944Y-50302944D03*
X177600000Y-52000000D03*
X181697056Y-53697056D03*
X181697056Y-50302944D03*
D15*
X180000000Y-52000000D03*
D14*
X180000000Y-54400000D03*
X180000000Y-49600000D03*
X182400000Y-52000000D03*
D20*
X181653666Y-61914460D03*
D21*
X175153666Y-63164460D03*
D22*
X175153666Y-60664460D03*
D16*
X159749606Y-58097860D03*
D17*
X157209606Y-58097860D03*
X154669606Y-58097860D03*
X152129606Y-58097860D03*
X149589606Y-58097860D03*
X147049606Y-58097860D03*
X144509606Y-58097860D03*
X141969606Y-58097860D03*
X139429606Y-58097860D03*
X136889606Y-58097860D03*
X134349606Y-58097860D03*
X131809606Y-58097860D03*
X129269606Y-58097860D03*
X126729606Y-58097860D03*
D20*
X181756007Y-92411992D03*
D21*
X175256007Y-96161992D03*
D22*
X175256007Y-93661992D03*
X175256007Y-91161992D03*
X175256007Y-88661992D03*
D13*
X135737878Y-102313241D03*
X135737878Y-108813241D03*
X140237878Y-102313241D03*
X140237878Y-108813241D03*
D14*
X180000000Y-108400000D03*
X181697056Y-107697056D03*
X182400000Y-106000000D03*
X180000000Y-103600000D03*
X181697056Y-104302944D03*
X177600000Y-106000000D03*
X178302944Y-107697056D03*
X178302944Y-104302944D03*
D15*
X180000000Y-106000000D03*
D20*
X118400000Y-75200000D03*
D23*
X124900000Y-72700000D03*
D22*
X124900000Y-75200000D03*
X124900000Y-77700000D03*
D14*
X118302944Y-50302944D03*
X118302944Y-53697056D03*
X122400000Y-52000000D03*
D15*
X120000000Y-52000000D03*
D14*
X120000000Y-49600000D03*
X117600000Y-52000000D03*
X121697056Y-50302944D03*
X120000000Y-54400000D03*
X121697056Y-53697056D03*
D20*
X181600000Y-76000000D03*
D21*
X175100000Y-82250000D03*
D22*
X175100000Y-79750000D03*
X175100000Y-77250000D03*
X175100000Y-74750000D03*
X175100000Y-72250000D03*
X175100000Y-69750000D03*
D13*
X128117548Y-99242906D03*
X128117548Y-92742906D03*
X132617548Y-99242906D03*
X132617548Y-92742906D03*
D20*
X118400000Y-85200000D03*
D23*
X124900000Y-83950000D03*
D22*
X124900000Y-86450000D03*
D24*
X139412325Y-105589916D03*
X137412325Y-105589916D03*
D25*
X146627500Y-74510000D03*
X145372500Y-74510000D03*
D26*
X153000000Y-66000000D03*
X153000000Y-64000000D03*
D27*
X155875000Y-81000000D03*
X159000000Y-81000000D03*
D25*
X146627500Y-76510000D03*
X145372500Y-76510000D03*
D24*
X131412325Y-105589916D03*
X129412325Y-105589916D03*
D28*
X150192809Y-66876407D03*
X150192809Y-63751407D03*
D24*
X139412325Y-95972112D03*
X137412325Y-95972112D03*
M02*
