%TF.GenerationSoftware,KiCad,Pcbnew,(6.0.8-1)-1*%
%TF.CreationDate,2023-04-27T22:08:13+09:00*%
%TF.ProjectId,ikako_f303,696b616b-6f5f-4663-9330-332e6b696361,rev?*%
%TF.SameCoordinates,Original*%
%TF.FileFunction,Drillmap*%
%TF.FilePolarity,Positive*%
%FSLAX45Y45*%
G04 Gerber Fmt 4.5, Leading zero omitted, Abs format (unit mm)*
G04 Created by KiCad (PCBNEW (6.0.8-1)-1) date 2023-04-27 22:08:13*
%MOMM*%
%LPD*%
G01*
G04 APERTURE LIST*
%ADD10C,0.100000*%
%ADD11C,0.200000*%
%ADD12C,0.040000*%
%ADD13C,0.050000*%
%ADD14C,0.080000*%
%ADD15C,0.095000*%
%ADD16C,0.110000*%
%ADD17C,0.320000*%
G04 APERTURE END LIST*
D10*
X12000000Y-4700000D02*
G75*
G03*
X11500000Y-5200000I0J-500000D01*
G01*
X18500000Y-5200000D02*
X18500000Y-10600000D01*
X11500000Y-10600000D02*
X11500000Y-5200000D01*
X12000000Y-4700000D02*
X18000000Y-4700000D01*
X11500000Y-10600000D02*
G75*
G03*
X12000000Y-11100000I500000J0D01*
G01*
X18000000Y-11100000D02*
X12000000Y-11100000D01*
X18500000Y-5200000D02*
G75*
G03*
X18000000Y-4700000I-500000J0D01*
G01*
X18000000Y-11100000D02*
G75*
G03*
X18500000Y-10600000I0J500000D01*
G01*
D11*
D12*
X11780000Y-9180000D02*
X11820000Y-9220000D01*
X11820000Y-9180000D02*
X11780000Y-9220000D01*
X11780000Y-9680000D02*
X11820000Y-9720000D01*
X11820000Y-9680000D02*
X11780000Y-9720000D01*
X11880000Y-7080000D02*
X11920000Y-7120000D01*
X11920000Y-7080000D02*
X11880000Y-7120000D01*
X11880000Y-8080000D02*
X11920000Y-8120000D01*
X11920000Y-8080000D02*
X11880000Y-8120000D01*
X12380000Y-9180000D02*
X12420000Y-9220000D01*
X12420000Y-9180000D02*
X12380000Y-9220000D01*
X12380000Y-9680000D02*
X12420000Y-9720000D01*
X12420000Y-9680000D02*
X12380000Y-9720000D01*
X13180000Y-6780000D02*
X13220000Y-6820000D01*
X13220000Y-6780000D02*
X13180000Y-6820000D01*
X13180000Y-7780000D02*
X13220000Y-7820000D01*
X13220000Y-7780000D02*
X13180000Y-7820000D01*
X13980000Y-8580000D02*
X14020000Y-8620000D01*
X14020000Y-8580000D02*
X13980000Y-8620000D01*
X14080000Y-8480000D02*
X14120000Y-8520000D01*
X14120000Y-8480000D02*
X14080000Y-8520000D01*
X14380000Y-8680000D02*
X14420000Y-8720000D01*
X14420000Y-8680000D02*
X14380000Y-8720000D01*
X14380000Y-8880000D02*
X14420000Y-8920000D01*
X14420000Y-8880000D02*
X14380000Y-8920000D01*
X14642750Y-7431000D02*
X14682750Y-7471000D01*
X14682750Y-7431000D02*
X14642750Y-7471000D01*
X14780000Y-8180000D02*
X14820000Y-8220000D01*
X14820000Y-8180000D02*
X14780000Y-8220000D01*
X14780000Y-8480000D02*
X14820000Y-8520000D01*
X14820000Y-8480000D02*
X14780000Y-8520000D01*
X14977711Y-7663214D02*
X15017711Y-7703214D01*
X15017711Y-7663214D02*
X14977711Y-7703214D01*
X14980000Y-9680000D02*
X15020000Y-9720000D01*
X15020000Y-9680000D02*
X14980000Y-9720000D01*
X14999281Y-6667641D02*
X15039281Y-6707641D01*
X15039281Y-6667641D02*
X14999281Y-6707641D01*
X15280000Y-6580000D02*
X15320000Y-6620000D01*
X15320000Y-6580000D02*
X15280000Y-6620000D01*
X15280000Y-7180000D02*
X15320000Y-7220000D01*
X15320000Y-7180000D02*
X15280000Y-7220000D01*
X15280000Y-7480000D02*
X15320000Y-7520000D01*
X15320000Y-7480000D02*
X15280000Y-7520000D01*
X15380000Y-7280000D02*
X15420000Y-7320000D01*
X15420000Y-7280000D02*
X15380000Y-7320000D01*
X15392450Y-8880000D02*
X15432450Y-8920000D01*
X15432450Y-8880000D02*
X15392450Y-8920000D01*
X15480000Y-9580000D02*
X15520000Y-9620000D01*
X15520000Y-9580000D02*
X15480000Y-9620000D01*
X15567500Y-8080000D02*
X15607500Y-8120000D01*
X15607500Y-8080000D02*
X15567500Y-8120000D01*
X15680000Y-10680000D02*
X15720000Y-10720000D01*
X15720000Y-10680000D02*
X15680000Y-10720000D01*
X15780000Y-9380000D02*
X15820000Y-9420000D01*
X15820000Y-9380000D02*
X15780000Y-9420000D01*
X15880000Y-8080000D02*
X15920000Y-8120000D01*
X15920000Y-8080000D02*
X15880000Y-8120000D01*
X15981230Y-7081230D02*
X16021230Y-7121230D01*
X16021230Y-7081230D02*
X15981230Y-7121230D01*
X16080000Y-7180000D02*
X16120000Y-7220000D01*
X16120000Y-7180000D02*
X16080000Y-7220000D01*
X16280000Y-10680000D02*
X16320000Y-10720000D01*
X16320000Y-10680000D02*
X16280000Y-10720000D01*
X16378770Y-8478770D02*
X16418770Y-8518770D01*
X16418770Y-8478770D02*
X16378770Y-8518770D01*
X16380000Y-7080000D02*
X16420000Y-7120000D01*
X16420000Y-7080000D02*
X16380000Y-7120000D01*
X16580000Y-8780000D02*
X16620000Y-8820000D01*
X16620000Y-8780000D02*
X16580000Y-8820000D01*
X16580000Y-8980000D02*
X16620000Y-9020000D01*
X16620000Y-8980000D02*
X16580000Y-9020000D01*
X16680000Y-7980000D02*
X16720000Y-8020000D01*
X16720000Y-7980000D02*
X16680000Y-8020000D01*
X16880000Y-7080000D02*
X16920000Y-7120000D01*
X16920000Y-7080000D02*
X16880000Y-7120000D01*
X16980000Y-8180000D02*
X17020000Y-8220000D01*
X17020000Y-8180000D02*
X16980000Y-8220000D01*
X17080000Y-9380000D02*
X17120000Y-9420000D01*
X17120000Y-9380000D02*
X17080000Y-9420000D01*
X17080000Y-9680000D02*
X17120000Y-9720000D01*
X17120000Y-9680000D02*
X17080000Y-9720000D01*
X17180000Y-10580000D02*
X17220000Y-10620000D01*
X17220000Y-10580000D02*
X17180000Y-10620000D01*
X18180000Y-6880000D02*
X18220000Y-6920000D01*
X18220000Y-6880000D02*
X18180000Y-6920000D01*
X18180000Y-8380000D02*
X18220000Y-8420000D01*
X18220000Y-8380000D02*
X18180000Y-8420000D01*
X18180000Y-9680000D02*
X18220000Y-9720000D01*
X18220000Y-9680000D02*
X18180000Y-9720000D01*
D13*
X11785000Y-5200000D02*
G75*
G03*
X11785000Y-5200000I-25000J0D01*
G01*
X11785000Y-10600000D02*
G75*
G03*
X11785000Y-10600000I-25000J0D01*
G01*
X11855294Y-5030294D02*
G75*
G03*
X11855294Y-5030294I-25000J0D01*
G01*
X11855294Y-5369706D02*
G75*
G03*
X11855294Y-5369706I-25000J0D01*
G01*
X11855294Y-10430294D02*
G75*
G03*
X11855294Y-10430294I-25000J0D01*
G01*
X11855294Y-10769706D02*
G75*
G03*
X11855294Y-10769706I-25000J0D01*
G01*
X12025000Y-4960000D02*
G75*
G03*
X12025000Y-4960000I-25000J0D01*
G01*
X12025000Y-5440000D02*
G75*
G03*
X12025000Y-5440000I-25000J0D01*
G01*
X12025000Y-10360000D02*
G75*
G03*
X12025000Y-10360000I-25000J0D01*
G01*
X12025000Y-10840000D02*
G75*
G03*
X12025000Y-10840000I-25000J0D01*
G01*
X12194706Y-5030294D02*
G75*
G03*
X12194706Y-5030294I-25000J0D01*
G01*
X12194706Y-5369706D02*
G75*
G03*
X12194706Y-5369706I-25000J0D01*
G01*
X12194706Y-10430294D02*
G75*
G03*
X12194706Y-10430294I-25000J0D01*
G01*
X12194706Y-10769706D02*
G75*
G03*
X12194706Y-10769706I-25000J0D01*
G01*
X12265000Y-5200000D02*
G75*
G03*
X12265000Y-5200000I-25000J0D01*
G01*
X12265000Y-10600000D02*
G75*
G03*
X12265000Y-10600000I-25000J0D01*
G01*
X17785000Y-5200000D02*
G75*
G03*
X17785000Y-5200000I-25000J0D01*
G01*
X17785000Y-10600000D02*
G75*
G03*
X17785000Y-10600000I-25000J0D01*
G01*
X17855294Y-5030294D02*
G75*
G03*
X17855294Y-5030294I-25000J0D01*
G01*
X17855294Y-5369706D02*
G75*
G03*
X17855294Y-5369706I-25000J0D01*
G01*
X17855294Y-10430294D02*
G75*
G03*
X17855294Y-10430294I-25000J0D01*
G01*
X17855294Y-10769706D02*
G75*
G03*
X17855294Y-10769706I-25000J0D01*
G01*
X18025000Y-4960000D02*
G75*
G03*
X18025000Y-4960000I-25000J0D01*
G01*
X18025000Y-5440000D02*
G75*
G03*
X18025000Y-5440000I-25000J0D01*
G01*
X18025000Y-10360000D02*
G75*
G03*
X18025000Y-10360000I-25000J0D01*
G01*
X18025000Y-10840000D02*
G75*
G03*
X18025000Y-10840000I-25000J0D01*
G01*
X18194706Y-5030294D02*
G75*
G03*
X18194706Y-5030294I-25000J0D01*
G01*
X18194706Y-5369706D02*
G75*
G03*
X18194706Y-5369706I-25000J0D01*
G01*
X18194706Y-10430294D02*
G75*
G03*
X18194706Y-10430294I-25000J0D01*
G01*
X18194706Y-10769706D02*
G75*
G03*
X18194706Y-10769706I-25000J0D01*
G01*
X18265000Y-5200000D02*
G75*
G03*
X18265000Y-5200000I-25000J0D01*
G01*
X18265000Y-10600000D02*
G75*
G03*
X18265000Y-10600000I-25000J0D01*
G01*
D14*
X13839500Y-7046500D02*
X13839500Y-7126500D01*
X13799500Y-7086500D02*
X13879500Y-7086500D01*
X13839500Y-7546500D02*
X13839500Y-7626500D01*
X13799500Y-7586500D02*
X13879500Y-7586500D01*
X16020000Y-8580000D02*
X16020000Y-8660000D01*
X15980000Y-8620000D02*
X16060000Y-8620000D01*
X16020000Y-8834000D02*
X16020000Y-8914000D01*
X15980000Y-8874000D02*
X16060000Y-8874000D01*
X16020000Y-9088000D02*
X16020000Y-9168000D01*
X15980000Y-9128000D02*
X16060000Y-9128000D01*
X16020000Y-9342000D02*
X16020000Y-9422000D01*
X15980000Y-9382000D02*
X16060000Y-9382000D01*
X16782000Y-8580000D02*
X16782000Y-8660000D01*
X16742000Y-8620000D02*
X16822000Y-8620000D01*
X16782000Y-8834000D02*
X16782000Y-8914000D01*
X16742000Y-8874000D02*
X16822000Y-8874000D01*
X16782000Y-9088000D02*
X16782000Y-9168000D01*
X16742000Y-9128000D02*
X16822000Y-9128000D01*
X16782000Y-9342000D02*
X16782000Y-9422000D01*
X16742000Y-9382000D02*
X16822000Y-9382000D01*
D15*
X12523588Y-7303588D02*
X12523588Y-7236412D01*
X12456412Y-7236412D01*
X12456412Y-7303588D01*
X12523588Y-7303588D01*
X12523588Y-7553588D02*
X12523588Y-7486412D01*
X12456412Y-7486412D01*
X12456412Y-7553588D01*
X12523588Y-7553588D01*
X12523588Y-7803588D02*
X12523588Y-7736412D01*
X12456412Y-7736412D01*
X12456412Y-7803588D01*
X12523588Y-7803588D01*
X12523588Y-8428588D02*
X12523588Y-8361412D01*
X12456412Y-8361412D01*
X12456412Y-8428588D01*
X12523588Y-8428588D01*
X12523588Y-8678588D02*
X12523588Y-8611412D01*
X12456412Y-8611412D01*
X12456412Y-8678588D01*
X12523588Y-8678588D01*
X17543588Y-7008588D02*
X17543588Y-6941412D01*
X17476412Y-6941412D01*
X17476412Y-7008588D01*
X17543588Y-7008588D01*
X17543588Y-7258588D02*
X17543588Y-7191412D01*
X17476412Y-7191412D01*
X17476412Y-7258588D01*
X17543588Y-7258588D01*
X17543588Y-7508588D02*
X17543588Y-7441412D01*
X17476412Y-7441412D01*
X17476412Y-7508588D01*
X17543588Y-7508588D01*
X17543588Y-7758588D02*
X17543588Y-7691412D01*
X17476412Y-7691412D01*
X17476412Y-7758588D01*
X17543588Y-7758588D01*
X17543588Y-8008588D02*
X17543588Y-7941412D01*
X17476412Y-7941412D01*
X17476412Y-8008588D01*
X17543588Y-8008588D01*
X17543588Y-8258588D02*
X17543588Y-8191412D01*
X17476412Y-8191412D01*
X17476412Y-8258588D01*
X17543588Y-8258588D01*
X17548955Y-6100034D02*
X17548955Y-6032858D01*
X17481779Y-6032858D01*
X17481779Y-6100034D01*
X17548955Y-6100034D01*
X17548955Y-6350034D02*
X17548955Y-6282858D01*
X17481779Y-6282858D01*
X17481779Y-6350034D01*
X17548955Y-6350034D01*
X17559189Y-8899787D02*
X17559189Y-8832611D01*
X17492013Y-8832611D01*
X17492013Y-8899787D01*
X17559189Y-8899787D01*
X17559189Y-9149787D02*
X17559189Y-9082611D01*
X17492013Y-9082611D01*
X17492013Y-9149787D01*
X17559189Y-9149787D01*
X17559189Y-9399787D02*
X17559189Y-9332611D01*
X17492013Y-9332611D01*
X17492013Y-9399787D01*
X17559189Y-9399787D01*
X17559189Y-9649787D02*
X17559189Y-9582611D01*
X17492013Y-9582611D01*
X17492013Y-9649787D01*
X17559189Y-9649787D01*
D10*
X12672961Y-5859786D02*
X12722961Y-5809786D01*
X12672961Y-5759786D01*
X12622961Y-5809786D01*
X12672961Y-5859786D01*
X12926961Y-5859786D02*
X12976961Y-5809786D01*
X12926961Y-5759786D01*
X12876961Y-5809786D01*
X12926961Y-5859786D01*
X13180961Y-5859786D02*
X13230961Y-5809786D01*
X13180961Y-5759786D01*
X13130961Y-5809786D01*
X13180961Y-5859786D01*
X13434961Y-5859786D02*
X13484961Y-5809786D01*
X13434961Y-5759786D01*
X13384961Y-5809786D01*
X13434961Y-5859786D01*
X13688961Y-5859786D02*
X13738961Y-5809786D01*
X13688961Y-5759786D01*
X13638961Y-5809786D01*
X13688961Y-5859786D01*
X13942961Y-5859786D02*
X13992961Y-5809786D01*
X13942961Y-5759786D01*
X13892961Y-5809786D01*
X13942961Y-5859786D01*
X14196961Y-5859786D02*
X14246961Y-5809786D01*
X14196961Y-5759786D01*
X14146961Y-5809786D01*
X14196961Y-5859786D01*
X14450961Y-5859786D02*
X14500961Y-5809786D01*
X14450961Y-5759786D01*
X14400961Y-5809786D01*
X14450961Y-5859786D01*
X14704961Y-5859786D02*
X14754961Y-5809786D01*
X14704961Y-5759786D01*
X14654961Y-5809786D01*
X14704961Y-5859786D01*
X14958961Y-5859786D02*
X15008961Y-5809786D01*
X14958961Y-5759786D01*
X14908961Y-5809786D01*
X14958961Y-5859786D01*
X15212961Y-5859786D02*
X15262961Y-5809786D01*
X15212961Y-5759786D01*
X15162961Y-5809786D01*
X15212961Y-5859786D01*
X15466961Y-5859786D02*
X15516961Y-5809786D01*
X15466961Y-5759786D01*
X15416961Y-5809786D01*
X15466961Y-5859786D01*
X15467500Y-10110000D02*
X15517500Y-10060000D01*
X15467500Y-10010000D01*
X15417500Y-10060000D01*
X15467500Y-10110000D01*
X15720961Y-5859786D02*
X15770961Y-5809786D01*
X15720961Y-5759786D01*
X15670961Y-5809786D01*
X15720961Y-5859786D01*
X15721500Y-10110000D02*
X15771500Y-10060000D01*
X15721500Y-10010000D01*
X15671500Y-10060000D01*
X15721500Y-10110000D01*
X15974961Y-5859786D02*
X16024961Y-5809786D01*
X15974961Y-5759786D01*
X15924961Y-5809786D01*
X15974961Y-5859786D01*
X15975500Y-10110000D02*
X16025500Y-10060000D01*
X15975500Y-10010000D01*
X15925500Y-10060000D01*
X15975500Y-10110000D01*
X16229500Y-10110000D02*
X16279500Y-10060000D01*
X16229500Y-10010000D01*
X16179500Y-10060000D01*
X16229500Y-10110000D01*
X16483500Y-10110000D02*
X16533500Y-10060000D01*
X16483500Y-10010000D01*
X16433500Y-10060000D01*
X16483500Y-10110000D01*
X16737500Y-10110000D02*
X16787500Y-10060000D01*
X16737500Y-10010000D01*
X16687500Y-10060000D01*
X16737500Y-10110000D01*
D16*
X12756755Y-9219291D02*
X12866755Y-9329291D01*
X12866755Y-9219291D02*
X12756755Y-9329291D01*
X12866755Y-9274291D02*
G75*
G03*
X12866755Y-9274291I-55000J0D01*
G01*
X12756755Y-9869291D02*
X12866755Y-9979291D01*
X12866755Y-9869291D02*
X12756755Y-9979291D01*
X12866755Y-9924291D02*
G75*
G03*
X12866755Y-9924291I-55000J0D01*
G01*
X12761232Y-10178992D02*
X12871232Y-10288992D01*
X12871232Y-10178992D02*
X12761232Y-10288992D01*
X12871232Y-10233992D02*
G75*
G03*
X12871232Y-10233992I-55000J0D01*
G01*
X12761232Y-10828992D02*
X12871232Y-10938992D01*
X12871232Y-10828992D02*
X12761232Y-10938992D01*
X12871232Y-10883992D02*
G75*
G03*
X12871232Y-10883992I-55000J0D01*
G01*
X13206755Y-9219291D02*
X13316755Y-9329291D01*
X13316755Y-9219291D02*
X13206755Y-9329291D01*
X13316755Y-9274291D02*
G75*
G03*
X13316755Y-9274291I-55000J0D01*
G01*
X13206755Y-9869291D02*
X13316755Y-9979291D01*
X13316755Y-9869291D02*
X13206755Y-9979291D01*
X13316755Y-9924291D02*
G75*
G03*
X13316755Y-9924291I-55000J0D01*
G01*
X13211232Y-10178992D02*
X13321232Y-10288992D01*
X13321232Y-10178992D02*
X13211232Y-10288992D01*
X13321232Y-10233992D02*
G75*
G03*
X13321232Y-10233992I-55000J0D01*
G01*
X13211232Y-10828992D02*
X13321232Y-10938992D01*
X13321232Y-10828992D02*
X13211232Y-10938992D01*
X13321232Y-10883992D02*
G75*
G03*
X13321232Y-10883992I-55000J0D01*
G01*
X13518788Y-10176324D02*
X13628788Y-10286324D01*
X13628788Y-10176324D02*
X13518788Y-10286324D01*
X13628788Y-10231324D02*
G75*
G03*
X13628788Y-10231324I-55000J0D01*
G01*
X13518788Y-10826324D02*
X13628788Y-10936324D01*
X13628788Y-10826324D02*
X13518788Y-10936324D01*
X13628788Y-10881324D02*
G75*
G03*
X13628788Y-10881324I-55000J0D01*
G01*
X13520000Y-9220000D02*
X13630000Y-9330000D01*
X13630000Y-9220000D02*
X13520000Y-9330000D01*
X13630000Y-9275000D02*
G75*
G03*
X13630000Y-9275000I-55000J0D01*
G01*
X13520000Y-9870000D02*
X13630000Y-9980000D01*
X13630000Y-9870000D02*
X13520000Y-9980000D01*
X13630000Y-9925000D02*
G75*
G03*
X13630000Y-9925000I-55000J0D01*
G01*
X13968788Y-10176324D02*
X14078788Y-10286324D01*
X14078788Y-10176324D02*
X13968788Y-10286324D01*
X14078788Y-10231324D02*
G75*
G03*
X14078788Y-10231324I-55000J0D01*
G01*
X13968788Y-10826324D02*
X14078788Y-10936324D01*
X14078788Y-10826324D02*
X13968788Y-10936324D01*
X14078788Y-10881324D02*
G75*
G03*
X14078788Y-10881324I-55000J0D01*
G01*
X13970000Y-9220000D02*
X14080000Y-9330000D01*
X14080000Y-9220000D02*
X13970000Y-9330000D01*
X14080000Y-9275000D02*
G75*
G03*
X14080000Y-9275000I-55000J0D01*
G01*
X13970000Y-9870000D02*
X14080000Y-9980000D01*
X14080000Y-9870000D02*
X13970000Y-9980000D01*
X14080000Y-9925000D02*
G75*
G03*
X14080000Y-9925000I-55000J0D01*
G01*
D17*
X11840000Y-5040000D02*
X12160000Y-5360000D01*
X12160000Y-5040000D02*
X11840000Y-5360000D01*
X12000000Y-5040000D02*
X12000000Y-5360000D01*
X11840000Y-5200000D02*
X12160000Y-5200000D01*
X11840000Y-10440000D02*
X12160000Y-10760000D01*
X12160000Y-10440000D02*
X11840000Y-10760000D01*
X12000000Y-10440000D02*
X12000000Y-10760000D01*
X11840000Y-10600000D02*
X12160000Y-10600000D01*
X17840000Y-5040000D02*
X18160000Y-5360000D01*
X18160000Y-5040000D02*
X17840000Y-5360000D01*
X18000000Y-5040000D02*
X18000000Y-5360000D01*
X17840000Y-5200000D02*
X18160000Y-5200000D01*
X17840000Y-10440000D02*
X18160000Y-10760000D01*
X18160000Y-10440000D02*
X17840000Y-10760000D01*
X18000000Y-10440000D02*
X18000000Y-10760000D01*
X17840000Y-10600000D02*
X18160000Y-10600000D01*
D11*
X11752619Y-11415476D02*
X11752619Y-11215476D01*
X11800238Y-11215476D01*
X11828809Y-11225000D01*
X11847857Y-11244048D01*
X11857381Y-11263095D01*
X11866905Y-11301190D01*
X11866905Y-11329762D01*
X11857381Y-11367857D01*
X11847857Y-11386905D01*
X11828809Y-11405952D01*
X11800238Y-11415476D01*
X11752619Y-11415476D01*
X11952619Y-11415476D02*
X11952619Y-11282143D01*
X11952619Y-11320238D02*
X11962143Y-11301190D01*
X11971667Y-11291667D01*
X11990714Y-11282143D01*
X12009762Y-11282143D01*
X12076428Y-11415476D02*
X12076428Y-11282143D01*
X12076428Y-11215476D02*
X12066905Y-11225000D01*
X12076428Y-11234524D01*
X12085952Y-11225000D01*
X12076428Y-11215476D01*
X12076428Y-11234524D01*
X12200238Y-11415476D02*
X12181190Y-11405952D01*
X12171667Y-11386905D01*
X12171667Y-11215476D01*
X12305000Y-11415476D02*
X12285952Y-11405952D01*
X12276428Y-11386905D01*
X12276428Y-11215476D01*
X12533571Y-11415476D02*
X12533571Y-11215476D01*
X12600238Y-11358333D01*
X12666905Y-11215476D01*
X12666905Y-11415476D01*
X12847857Y-11415476D02*
X12847857Y-11310714D01*
X12838333Y-11291667D01*
X12819286Y-11282143D01*
X12781190Y-11282143D01*
X12762143Y-11291667D01*
X12847857Y-11405952D02*
X12828809Y-11415476D01*
X12781190Y-11415476D01*
X12762143Y-11405952D01*
X12752619Y-11386905D01*
X12752619Y-11367857D01*
X12762143Y-11348809D01*
X12781190Y-11339286D01*
X12828809Y-11339286D01*
X12847857Y-11329762D01*
X12943095Y-11282143D02*
X12943095Y-11482143D01*
X12943095Y-11291667D02*
X12962143Y-11282143D01*
X13000238Y-11282143D01*
X13019286Y-11291667D01*
X13028809Y-11301190D01*
X13038333Y-11320238D01*
X13038333Y-11377381D01*
X13028809Y-11396428D01*
X13019286Y-11405952D01*
X13000238Y-11415476D01*
X12962143Y-11415476D01*
X12943095Y-11405952D01*
X13124048Y-11396428D02*
X13133571Y-11405952D01*
X13124048Y-11415476D01*
X13114524Y-11405952D01*
X13124048Y-11396428D01*
X13124048Y-11415476D01*
X13124048Y-11291667D02*
X13133571Y-11301190D01*
X13124048Y-11310714D01*
X13114524Y-11301190D01*
X13124048Y-11291667D01*
X13124048Y-11310714D01*
D12*
X11455000Y-11725000D02*
X11495000Y-11765000D01*
X11495000Y-11725000D02*
X11455000Y-11765000D01*
D11*
X11790714Y-11635476D02*
X11809762Y-11635476D01*
X11828809Y-11645000D01*
X11838333Y-11654524D01*
X11847857Y-11673571D01*
X11857381Y-11711667D01*
X11857381Y-11759286D01*
X11847857Y-11797381D01*
X11838333Y-11816428D01*
X11828809Y-11825952D01*
X11809762Y-11835476D01*
X11790714Y-11835476D01*
X11771667Y-11825952D01*
X11762143Y-11816428D01*
X11752619Y-11797381D01*
X11743095Y-11759286D01*
X11743095Y-11711667D01*
X11752619Y-11673571D01*
X11762143Y-11654524D01*
X11771667Y-11645000D01*
X11790714Y-11635476D01*
X11943095Y-11816428D02*
X11952619Y-11825952D01*
X11943095Y-11835476D01*
X11933571Y-11825952D01*
X11943095Y-11816428D01*
X11943095Y-11835476D01*
X12124048Y-11702143D02*
X12124048Y-11835476D01*
X12076428Y-11625952D02*
X12028809Y-11768809D01*
X12152619Y-11768809D01*
X12266905Y-11635476D02*
X12285952Y-11635476D01*
X12305000Y-11645000D01*
X12314524Y-11654524D01*
X12324048Y-11673571D01*
X12333571Y-11711667D01*
X12333571Y-11759286D01*
X12324048Y-11797381D01*
X12314524Y-11816428D01*
X12305000Y-11825952D01*
X12285952Y-11835476D01*
X12266905Y-11835476D01*
X12247857Y-11825952D01*
X12238333Y-11816428D01*
X12228809Y-11797381D01*
X12219286Y-11759286D01*
X12219286Y-11711667D01*
X12228809Y-11673571D01*
X12238333Y-11654524D01*
X12247857Y-11645000D01*
X12266905Y-11635476D01*
X12457381Y-11635476D02*
X12476428Y-11635476D01*
X12495476Y-11645000D01*
X12505000Y-11654524D01*
X12514524Y-11673571D01*
X12524048Y-11711667D01*
X12524048Y-11759286D01*
X12514524Y-11797381D01*
X12505000Y-11816428D01*
X12495476Y-11825952D01*
X12476428Y-11835476D01*
X12457381Y-11835476D01*
X12438333Y-11825952D01*
X12428809Y-11816428D01*
X12419286Y-11797381D01*
X12409762Y-11759286D01*
X12409762Y-11711667D01*
X12419286Y-11673571D01*
X12428809Y-11654524D01*
X12438333Y-11645000D01*
X12457381Y-11635476D01*
X12609762Y-11835476D02*
X12609762Y-11702143D01*
X12609762Y-11721190D02*
X12619286Y-11711667D01*
X12638333Y-11702143D01*
X12666905Y-11702143D01*
X12685952Y-11711667D01*
X12695476Y-11730714D01*
X12695476Y-11835476D01*
X12695476Y-11730714D02*
X12705000Y-11711667D01*
X12724048Y-11702143D01*
X12752619Y-11702143D01*
X12771667Y-11711667D01*
X12781190Y-11730714D01*
X12781190Y-11835476D01*
X12876428Y-11835476D02*
X12876428Y-11702143D01*
X12876428Y-11721190D02*
X12885952Y-11711667D01*
X12905000Y-11702143D01*
X12933571Y-11702143D01*
X12952619Y-11711667D01*
X12962143Y-11730714D01*
X12962143Y-11835476D01*
X12962143Y-11730714D02*
X12971667Y-11711667D01*
X12990714Y-11702143D01*
X13019286Y-11702143D01*
X13038333Y-11711667D01*
X13047857Y-11730714D01*
X13047857Y-11835476D01*
X13438333Y-11625952D02*
X13266905Y-11883095D01*
X13695476Y-11635476D02*
X13714524Y-11635476D01*
X13733571Y-11645000D01*
X13743095Y-11654524D01*
X13752619Y-11673571D01*
X13762143Y-11711667D01*
X13762143Y-11759286D01*
X13752619Y-11797381D01*
X13743095Y-11816428D01*
X13733571Y-11825952D01*
X13714524Y-11835476D01*
X13695476Y-11835476D01*
X13676428Y-11825952D01*
X13666905Y-11816428D01*
X13657381Y-11797381D01*
X13647857Y-11759286D01*
X13647857Y-11711667D01*
X13657381Y-11673571D01*
X13666905Y-11654524D01*
X13676428Y-11645000D01*
X13695476Y-11635476D01*
X13847857Y-11816428D02*
X13857381Y-11825952D01*
X13847857Y-11835476D01*
X13838333Y-11825952D01*
X13847857Y-11816428D01*
X13847857Y-11835476D01*
X13981190Y-11635476D02*
X14000238Y-11635476D01*
X14019286Y-11645000D01*
X14028809Y-11654524D01*
X14038333Y-11673571D01*
X14047857Y-11711667D01*
X14047857Y-11759286D01*
X14038333Y-11797381D01*
X14028809Y-11816428D01*
X14019286Y-11825952D01*
X14000238Y-11835476D01*
X13981190Y-11835476D01*
X13962143Y-11825952D01*
X13952619Y-11816428D01*
X13943095Y-11797381D01*
X13933571Y-11759286D01*
X13933571Y-11711667D01*
X13943095Y-11673571D01*
X13952619Y-11654524D01*
X13962143Y-11645000D01*
X13981190Y-11635476D01*
X14238333Y-11835476D02*
X14124048Y-11835476D01*
X14181190Y-11835476D02*
X14181190Y-11635476D01*
X14162143Y-11664048D01*
X14143095Y-11683095D01*
X14124048Y-11692619D01*
X14419286Y-11635476D02*
X14324048Y-11635476D01*
X14314524Y-11730714D01*
X14324048Y-11721190D01*
X14343095Y-11711667D01*
X14390714Y-11711667D01*
X14409762Y-11721190D01*
X14419286Y-11730714D01*
X14428809Y-11749762D01*
X14428809Y-11797381D01*
X14419286Y-11816428D01*
X14409762Y-11825952D01*
X14390714Y-11835476D01*
X14343095Y-11835476D01*
X14324048Y-11825952D01*
X14314524Y-11816428D01*
X14495476Y-11635476D02*
X14628809Y-11635476D01*
X14543095Y-11835476D01*
X14695476Y-11635476D02*
X14695476Y-11673571D01*
X14771667Y-11635476D02*
X14771667Y-11673571D01*
X15066905Y-11911667D02*
X15057381Y-11902143D01*
X15038333Y-11873571D01*
X15028809Y-11854524D01*
X15019286Y-11825952D01*
X15009762Y-11778333D01*
X15009762Y-11740238D01*
X15019286Y-11692619D01*
X15028809Y-11664048D01*
X15038333Y-11645000D01*
X15057381Y-11616428D01*
X15066905Y-11606905D01*
X15228809Y-11702143D02*
X15228809Y-11835476D01*
X15181190Y-11625952D02*
X15133571Y-11768809D01*
X15257381Y-11768809D01*
X15419286Y-11702143D02*
X15419286Y-11835476D01*
X15371667Y-11625952D02*
X15324048Y-11768809D01*
X15447857Y-11768809D01*
X15676428Y-11835476D02*
X15676428Y-11635476D01*
X15762143Y-11835476D02*
X15762143Y-11730714D01*
X15752619Y-11711667D01*
X15733571Y-11702143D01*
X15705000Y-11702143D01*
X15685952Y-11711667D01*
X15676428Y-11721190D01*
X15885952Y-11835476D02*
X15866905Y-11825952D01*
X15857381Y-11816428D01*
X15847857Y-11797381D01*
X15847857Y-11740238D01*
X15857381Y-11721190D01*
X15866905Y-11711667D01*
X15885952Y-11702143D01*
X15914524Y-11702143D01*
X15933571Y-11711667D01*
X15943095Y-11721190D01*
X15952619Y-11740238D01*
X15952619Y-11797381D01*
X15943095Y-11816428D01*
X15933571Y-11825952D01*
X15914524Y-11835476D01*
X15885952Y-11835476D01*
X16066905Y-11835476D02*
X16047857Y-11825952D01*
X16038333Y-11806905D01*
X16038333Y-11635476D01*
X16219286Y-11825952D02*
X16200238Y-11835476D01*
X16162143Y-11835476D01*
X16143095Y-11825952D01*
X16133571Y-11806905D01*
X16133571Y-11730714D01*
X16143095Y-11711667D01*
X16162143Y-11702143D01*
X16200238Y-11702143D01*
X16219286Y-11711667D01*
X16228809Y-11730714D01*
X16228809Y-11749762D01*
X16133571Y-11768809D01*
X16305000Y-11825952D02*
X16324048Y-11835476D01*
X16362143Y-11835476D01*
X16381190Y-11825952D01*
X16390714Y-11806905D01*
X16390714Y-11797381D01*
X16381190Y-11778333D01*
X16362143Y-11768809D01*
X16333571Y-11768809D01*
X16314524Y-11759286D01*
X16305000Y-11740238D01*
X16305000Y-11730714D01*
X16314524Y-11711667D01*
X16333571Y-11702143D01*
X16362143Y-11702143D01*
X16381190Y-11711667D01*
X16457381Y-11911667D02*
X16466905Y-11902143D01*
X16485952Y-11873571D01*
X16495476Y-11854524D01*
X16505000Y-11825952D01*
X16514524Y-11778333D01*
X16514524Y-11740238D01*
X16505000Y-11692619D01*
X16495476Y-11664048D01*
X16485952Y-11645000D01*
X16466905Y-11616428D01*
X16457381Y-11606905D01*
D13*
X11495000Y-12009000D02*
G75*
G03*
X11495000Y-12009000I-25000J0D01*
G01*
D11*
X11790714Y-11899476D02*
X11809762Y-11899476D01*
X11828809Y-11909000D01*
X11838333Y-11918524D01*
X11847857Y-11937571D01*
X11857381Y-11975667D01*
X11857381Y-12023286D01*
X11847857Y-12061381D01*
X11838333Y-12080428D01*
X11828809Y-12089952D01*
X11809762Y-12099476D01*
X11790714Y-12099476D01*
X11771667Y-12089952D01*
X11762143Y-12080428D01*
X11752619Y-12061381D01*
X11743095Y-12023286D01*
X11743095Y-11975667D01*
X11752619Y-11937571D01*
X11762143Y-11918524D01*
X11771667Y-11909000D01*
X11790714Y-11899476D01*
X11943095Y-12080428D02*
X11952619Y-12089952D01*
X11943095Y-12099476D01*
X11933571Y-12089952D01*
X11943095Y-12080428D01*
X11943095Y-12099476D01*
X12133571Y-11899476D02*
X12038333Y-11899476D01*
X12028809Y-11994714D01*
X12038333Y-11985190D01*
X12057381Y-11975667D01*
X12105000Y-11975667D01*
X12124048Y-11985190D01*
X12133571Y-11994714D01*
X12143095Y-12013762D01*
X12143095Y-12061381D01*
X12133571Y-12080428D01*
X12124048Y-12089952D01*
X12105000Y-12099476D01*
X12057381Y-12099476D01*
X12038333Y-12089952D01*
X12028809Y-12080428D01*
X12266905Y-11899476D02*
X12285952Y-11899476D01*
X12305000Y-11909000D01*
X12314524Y-11918524D01*
X12324048Y-11937571D01*
X12333571Y-11975667D01*
X12333571Y-12023286D01*
X12324048Y-12061381D01*
X12314524Y-12080428D01*
X12305000Y-12089952D01*
X12285952Y-12099476D01*
X12266905Y-12099476D01*
X12247857Y-12089952D01*
X12238333Y-12080428D01*
X12228809Y-12061381D01*
X12219286Y-12023286D01*
X12219286Y-11975667D01*
X12228809Y-11937571D01*
X12238333Y-11918524D01*
X12247857Y-11909000D01*
X12266905Y-11899476D01*
X12457381Y-11899476D02*
X12476428Y-11899476D01*
X12495476Y-11909000D01*
X12505000Y-11918524D01*
X12514524Y-11937571D01*
X12524048Y-11975667D01*
X12524048Y-12023286D01*
X12514524Y-12061381D01*
X12505000Y-12080428D01*
X12495476Y-12089952D01*
X12476428Y-12099476D01*
X12457381Y-12099476D01*
X12438333Y-12089952D01*
X12428809Y-12080428D01*
X12419286Y-12061381D01*
X12409762Y-12023286D01*
X12409762Y-11975667D01*
X12419286Y-11937571D01*
X12428809Y-11918524D01*
X12438333Y-11909000D01*
X12457381Y-11899476D01*
X12609762Y-12099476D02*
X12609762Y-11966143D01*
X12609762Y-11985190D02*
X12619286Y-11975667D01*
X12638333Y-11966143D01*
X12666905Y-11966143D01*
X12685952Y-11975667D01*
X12695476Y-11994714D01*
X12695476Y-12099476D01*
X12695476Y-11994714D02*
X12705000Y-11975667D01*
X12724048Y-11966143D01*
X12752619Y-11966143D01*
X12771667Y-11975667D01*
X12781190Y-11994714D01*
X12781190Y-12099476D01*
X12876428Y-12099476D02*
X12876428Y-11966143D01*
X12876428Y-11985190D02*
X12885952Y-11975667D01*
X12905000Y-11966143D01*
X12933571Y-11966143D01*
X12952619Y-11975667D01*
X12962143Y-11994714D01*
X12962143Y-12099476D01*
X12962143Y-11994714D02*
X12971667Y-11975667D01*
X12990714Y-11966143D01*
X13019286Y-11966143D01*
X13038333Y-11975667D01*
X13047857Y-11994714D01*
X13047857Y-12099476D01*
X13438333Y-11889952D02*
X13266905Y-12147095D01*
X13695476Y-11899476D02*
X13714524Y-11899476D01*
X13733571Y-11909000D01*
X13743095Y-11918524D01*
X13752619Y-11937571D01*
X13762143Y-11975667D01*
X13762143Y-12023286D01*
X13752619Y-12061381D01*
X13743095Y-12080428D01*
X13733571Y-12089952D01*
X13714524Y-12099476D01*
X13695476Y-12099476D01*
X13676428Y-12089952D01*
X13666905Y-12080428D01*
X13657381Y-12061381D01*
X13647857Y-12023286D01*
X13647857Y-11975667D01*
X13657381Y-11937571D01*
X13666905Y-11918524D01*
X13676428Y-11909000D01*
X13695476Y-11899476D01*
X13847857Y-12080428D02*
X13857381Y-12089952D01*
X13847857Y-12099476D01*
X13838333Y-12089952D01*
X13847857Y-12080428D01*
X13847857Y-12099476D01*
X13981190Y-11899476D02*
X14000238Y-11899476D01*
X14019286Y-11909000D01*
X14028809Y-11918524D01*
X14038333Y-11937571D01*
X14047857Y-11975667D01*
X14047857Y-12023286D01*
X14038333Y-12061381D01*
X14028809Y-12080428D01*
X14019286Y-12089952D01*
X14000238Y-12099476D01*
X13981190Y-12099476D01*
X13962143Y-12089952D01*
X13952619Y-12080428D01*
X13943095Y-12061381D01*
X13933571Y-12023286D01*
X13933571Y-11975667D01*
X13943095Y-11937571D01*
X13952619Y-11918524D01*
X13962143Y-11909000D01*
X13981190Y-11899476D01*
X14238333Y-12099476D02*
X14124048Y-12099476D01*
X14181190Y-12099476D02*
X14181190Y-11899476D01*
X14162143Y-11928048D01*
X14143095Y-11947095D01*
X14124048Y-11956619D01*
X14333571Y-12099476D02*
X14371667Y-12099476D01*
X14390714Y-12089952D01*
X14400238Y-12080428D01*
X14419286Y-12051857D01*
X14428809Y-12013762D01*
X14428809Y-11937571D01*
X14419286Y-11918524D01*
X14409762Y-11909000D01*
X14390714Y-11899476D01*
X14352619Y-11899476D01*
X14333571Y-11909000D01*
X14324048Y-11918524D01*
X14314524Y-11937571D01*
X14314524Y-11985190D01*
X14324048Y-12004238D01*
X14333571Y-12013762D01*
X14352619Y-12023286D01*
X14390714Y-12023286D01*
X14409762Y-12013762D01*
X14419286Y-12004238D01*
X14428809Y-11985190D01*
X14495476Y-11899476D02*
X14628809Y-11899476D01*
X14543095Y-12099476D01*
X14695476Y-11899476D02*
X14695476Y-11937571D01*
X14771667Y-11899476D02*
X14771667Y-11937571D01*
X15066905Y-12175667D02*
X15057381Y-12166143D01*
X15038333Y-12137571D01*
X15028809Y-12118524D01*
X15019286Y-12089952D01*
X15009762Y-12042333D01*
X15009762Y-12004238D01*
X15019286Y-11956619D01*
X15028809Y-11928048D01*
X15038333Y-11909000D01*
X15057381Y-11880428D01*
X15066905Y-11870905D01*
X15124048Y-11899476D02*
X15247857Y-11899476D01*
X15181190Y-11975667D01*
X15209762Y-11975667D01*
X15228809Y-11985190D01*
X15238333Y-11994714D01*
X15247857Y-12013762D01*
X15247857Y-12061381D01*
X15238333Y-12080428D01*
X15228809Y-12089952D01*
X15209762Y-12099476D01*
X15152619Y-12099476D01*
X15133571Y-12089952D01*
X15124048Y-12080428D01*
X15324048Y-11918524D02*
X15333571Y-11909000D01*
X15352619Y-11899476D01*
X15400238Y-11899476D01*
X15419286Y-11909000D01*
X15428809Y-11918524D01*
X15438333Y-11937571D01*
X15438333Y-11956619D01*
X15428809Y-11985190D01*
X15314524Y-12099476D01*
X15438333Y-12099476D01*
X15676428Y-12099476D02*
X15676428Y-11899476D01*
X15762143Y-12099476D02*
X15762143Y-11994714D01*
X15752619Y-11975667D01*
X15733571Y-11966143D01*
X15705000Y-11966143D01*
X15685952Y-11975667D01*
X15676428Y-11985190D01*
X15885952Y-12099476D02*
X15866905Y-12089952D01*
X15857381Y-12080428D01*
X15847857Y-12061381D01*
X15847857Y-12004238D01*
X15857381Y-11985190D01*
X15866905Y-11975667D01*
X15885952Y-11966143D01*
X15914524Y-11966143D01*
X15933571Y-11975667D01*
X15943095Y-11985190D01*
X15952619Y-12004238D01*
X15952619Y-12061381D01*
X15943095Y-12080428D01*
X15933571Y-12089952D01*
X15914524Y-12099476D01*
X15885952Y-12099476D01*
X16066905Y-12099476D02*
X16047857Y-12089952D01*
X16038333Y-12070905D01*
X16038333Y-11899476D01*
X16219286Y-12089952D02*
X16200238Y-12099476D01*
X16162143Y-12099476D01*
X16143095Y-12089952D01*
X16133571Y-12070905D01*
X16133571Y-11994714D01*
X16143095Y-11975667D01*
X16162143Y-11966143D01*
X16200238Y-11966143D01*
X16219286Y-11975667D01*
X16228809Y-11994714D01*
X16228809Y-12013762D01*
X16133571Y-12032809D01*
X16305000Y-12089952D02*
X16324048Y-12099476D01*
X16362143Y-12099476D01*
X16381190Y-12089952D01*
X16390714Y-12070905D01*
X16390714Y-12061381D01*
X16381190Y-12042333D01*
X16362143Y-12032809D01*
X16333571Y-12032809D01*
X16314524Y-12023286D01*
X16305000Y-12004238D01*
X16305000Y-11994714D01*
X16314524Y-11975667D01*
X16333571Y-11966143D01*
X16362143Y-11966143D01*
X16381190Y-11975667D01*
X16457381Y-12175667D02*
X16466905Y-12166143D01*
X16485952Y-12137571D01*
X16495476Y-12118524D01*
X16505000Y-12089952D01*
X16514524Y-12042333D01*
X16514524Y-12004238D01*
X16505000Y-11956619D01*
X16495476Y-11928048D01*
X16485952Y-11909000D01*
X16466905Y-11880428D01*
X16457381Y-11870905D01*
D14*
X11455000Y-12233000D02*
X11455000Y-12313000D01*
X11415000Y-12273000D02*
X11495000Y-12273000D01*
D11*
X11790714Y-12163476D02*
X11809762Y-12163476D01*
X11828809Y-12173000D01*
X11838333Y-12182524D01*
X11847857Y-12201571D01*
X11857381Y-12239667D01*
X11857381Y-12287286D01*
X11847857Y-12325381D01*
X11838333Y-12344428D01*
X11828809Y-12353952D01*
X11809762Y-12363476D01*
X11790714Y-12363476D01*
X11771667Y-12353952D01*
X11762143Y-12344428D01*
X11752619Y-12325381D01*
X11743095Y-12287286D01*
X11743095Y-12239667D01*
X11752619Y-12201571D01*
X11762143Y-12182524D01*
X11771667Y-12173000D01*
X11790714Y-12163476D01*
X11943095Y-12344428D02*
X11952619Y-12353952D01*
X11943095Y-12363476D01*
X11933571Y-12353952D01*
X11943095Y-12344428D01*
X11943095Y-12363476D01*
X12066905Y-12249190D02*
X12047857Y-12239667D01*
X12038333Y-12230143D01*
X12028809Y-12211095D01*
X12028809Y-12201571D01*
X12038333Y-12182524D01*
X12047857Y-12173000D01*
X12066905Y-12163476D01*
X12105000Y-12163476D01*
X12124048Y-12173000D01*
X12133571Y-12182524D01*
X12143095Y-12201571D01*
X12143095Y-12211095D01*
X12133571Y-12230143D01*
X12124048Y-12239667D01*
X12105000Y-12249190D01*
X12066905Y-12249190D01*
X12047857Y-12258714D01*
X12038333Y-12268238D01*
X12028809Y-12287286D01*
X12028809Y-12325381D01*
X12038333Y-12344428D01*
X12047857Y-12353952D01*
X12066905Y-12363476D01*
X12105000Y-12363476D01*
X12124048Y-12353952D01*
X12133571Y-12344428D01*
X12143095Y-12325381D01*
X12143095Y-12287286D01*
X12133571Y-12268238D01*
X12124048Y-12258714D01*
X12105000Y-12249190D01*
X12266905Y-12163476D02*
X12285952Y-12163476D01*
X12305000Y-12173000D01*
X12314524Y-12182524D01*
X12324048Y-12201571D01*
X12333571Y-12239667D01*
X12333571Y-12287286D01*
X12324048Y-12325381D01*
X12314524Y-12344428D01*
X12305000Y-12353952D01*
X12285952Y-12363476D01*
X12266905Y-12363476D01*
X12247857Y-12353952D01*
X12238333Y-12344428D01*
X12228809Y-12325381D01*
X12219286Y-12287286D01*
X12219286Y-12239667D01*
X12228809Y-12201571D01*
X12238333Y-12182524D01*
X12247857Y-12173000D01*
X12266905Y-12163476D01*
X12457381Y-12163476D02*
X12476428Y-12163476D01*
X12495476Y-12173000D01*
X12505000Y-12182524D01*
X12514524Y-12201571D01*
X12524048Y-12239667D01*
X12524048Y-12287286D01*
X12514524Y-12325381D01*
X12505000Y-12344428D01*
X12495476Y-12353952D01*
X12476428Y-12363476D01*
X12457381Y-12363476D01*
X12438333Y-12353952D01*
X12428809Y-12344428D01*
X12419286Y-12325381D01*
X12409762Y-12287286D01*
X12409762Y-12239667D01*
X12419286Y-12201571D01*
X12428809Y-12182524D01*
X12438333Y-12173000D01*
X12457381Y-12163476D01*
X12609762Y-12363476D02*
X12609762Y-12230143D01*
X12609762Y-12249190D02*
X12619286Y-12239667D01*
X12638333Y-12230143D01*
X12666905Y-12230143D01*
X12685952Y-12239667D01*
X12695476Y-12258714D01*
X12695476Y-12363476D01*
X12695476Y-12258714D02*
X12705000Y-12239667D01*
X12724048Y-12230143D01*
X12752619Y-12230143D01*
X12771667Y-12239667D01*
X12781190Y-12258714D01*
X12781190Y-12363476D01*
X12876428Y-12363476D02*
X12876428Y-12230143D01*
X12876428Y-12249190D02*
X12885952Y-12239667D01*
X12905000Y-12230143D01*
X12933571Y-12230143D01*
X12952619Y-12239667D01*
X12962143Y-12258714D01*
X12962143Y-12363476D01*
X12962143Y-12258714D02*
X12971667Y-12239667D01*
X12990714Y-12230143D01*
X13019286Y-12230143D01*
X13038333Y-12239667D01*
X13047857Y-12258714D01*
X13047857Y-12363476D01*
X13438333Y-12153952D02*
X13266905Y-12411095D01*
X13695476Y-12163476D02*
X13714524Y-12163476D01*
X13733571Y-12173000D01*
X13743095Y-12182524D01*
X13752619Y-12201571D01*
X13762143Y-12239667D01*
X13762143Y-12287286D01*
X13752619Y-12325381D01*
X13743095Y-12344428D01*
X13733571Y-12353952D01*
X13714524Y-12363476D01*
X13695476Y-12363476D01*
X13676428Y-12353952D01*
X13666905Y-12344428D01*
X13657381Y-12325381D01*
X13647857Y-12287286D01*
X13647857Y-12239667D01*
X13657381Y-12201571D01*
X13666905Y-12182524D01*
X13676428Y-12173000D01*
X13695476Y-12163476D01*
X13847857Y-12344428D02*
X13857381Y-12353952D01*
X13847857Y-12363476D01*
X13838333Y-12353952D01*
X13847857Y-12344428D01*
X13847857Y-12363476D01*
X13981190Y-12163476D02*
X14000238Y-12163476D01*
X14019286Y-12173000D01*
X14028809Y-12182524D01*
X14038333Y-12201571D01*
X14047857Y-12239667D01*
X14047857Y-12287286D01*
X14038333Y-12325381D01*
X14028809Y-12344428D01*
X14019286Y-12353952D01*
X14000238Y-12363476D01*
X13981190Y-12363476D01*
X13962143Y-12353952D01*
X13952619Y-12344428D01*
X13943095Y-12325381D01*
X13933571Y-12287286D01*
X13933571Y-12239667D01*
X13943095Y-12201571D01*
X13952619Y-12182524D01*
X13962143Y-12173000D01*
X13981190Y-12163476D01*
X14114524Y-12163476D02*
X14238333Y-12163476D01*
X14171667Y-12239667D01*
X14200238Y-12239667D01*
X14219286Y-12249190D01*
X14228809Y-12258714D01*
X14238333Y-12277762D01*
X14238333Y-12325381D01*
X14228809Y-12344428D01*
X14219286Y-12353952D01*
X14200238Y-12363476D01*
X14143095Y-12363476D01*
X14124048Y-12353952D01*
X14114524Y-12344428D01*
X14428809Y-12363476D02*
X14314524Y-12363476D01*
X14371667Y-12363476D02*
X14371667Y-12163476D01*
X14352619Y-12192048D01*
X14333571Y-12211095D01*
X14314524Y-12220619D01*
X14609762Y-12163476D02*
X14514524Y-12163476D01*
X14505000Y-12258714D01*
X14514524Y-12249190D01*
X14533571Y-12239667D01*
X14581190Y-12239667D01*
X14600238Y-12249190D01*
X14609762Y-12258714D01*
X14619286Y-12277762D01*
X14619286Y-12325381D01*
X14609762Y-12344428D01*
X14600238Y-12353952D01*
X14581190Y-12363476D01*
X14533571Y-12363476D01*
X14514524Y-12353952D01*
X14505000Y-12344428D01*
X14695476Y-12163476D02*
X14695476Y-12201571D01*
X14771667Y-12163476D02*
X14771667Y-12201571D01*
X15066905Y-12439667D02*
X15057381Y-12430143D01*
X15038333Y-12401571D01*
X15028809Y-12382524D01*
X15019286Y-12353952D01*
X15009762Y-12306333D01*
X15009762Y-12268238D01*
X15019286Y-12220619D01*
X15028809Y-12192048D01*
X15038333Y-12173000D01*
X15057381Y-12144428D01*
X15066905Y-12134905D01*
X15247857Y-12363476D02*
X15133571Y-12363476D01*
X15190714Y-12363476D02*
X15190714Y-12163476D01*
X15171667Y-12192048D01*
X15152619Y-12211095D01*
X15133571Y-12220619D01*
X15371667Y-12163476D02*
X15390714Y-12163476D01*
X15409762Y-12173000D01*
X15419286Y-12182524D01*
X15428809Y-12201571D01*
X15438333Y-12239667D01*
X15438333Y-12287286D01*
X15428809Y-12325381D01*
X15419286Y-12344428D01*
X15409762Y-12353952D01*
X15390714Y-12363476D01*
X15371667Y-12363476D01*
X15352619Y-12353952D01*
X15343095Y-12344428D01*
X15333571Y-12325381D01*
X15324048Y-12287286D01*
X15324048Y-12239667D01*
X15333571Y-12201571D01*
X15343095Y-12182524D01*
X15352619Y-12173000D01*
X15371667Y-12163476D01*
X15676428Y-12363476D02*
X15676428Y-12163476D01*
X15762143Y-12363476D02*
X15762143Y-12258714D01*
X15752619Y-12239667D01*
X15733571Y-12230143D01*
X15705000Y-12230143D01*
X15685952Y-12239667D01*
X15676428Y-12249190D01*
X15885952Y-12363476D02*
X15866905Y-12353952D01*
X15857381Y-12344428D01*
X15847857Y-12325381D01*
X15847857Y-12268238D01*
X15857381Y-12249190D01*
X15866905Y-12239667D01*
X15885952Y-12230143D01*
X15914524Y-12230143D01*
X15933571Y-12239667D01*
X15943095Y-12249190D01*
X15952619Y-12268238D01*
X15952619Y-12325381D01*
X15943095Y-12344428D01*
X15933571Y-12353952D01*
X15914524Y-12363476D01*
X15885952Y-12363476D01*
X16066905Y-12363476D02*
X16047857Y-12353952D01*
X16038333Y-12334905D01*
X16038333Y-12163476D01*
X16219286Y-12353952D02*
X16200238Y-12363476D01*
X16162143Y-12363476D01*
X16143095Y-12353952D01*
X16133571Y-12334905D01*
X16133571Y-12258714D01*
X16143095Y-12239667D01*
X16162143Y-12230143D01*
X16200238Y-12230143D01*
X16219286Y-12239667D01*
X16228809Y-12258714D01*
X16228809Y-12277762D01*
X16133571Y-12296809D01*
X16305000Y-12353952D02*
X16324048Y-12363476D01*
X16362143Y-12363476D01*
X16381190Y-12353952D01*
X16390714Y-12334905D01*
X16390714Y-12325381D01*
X16381190Y-12306333D01*
X16362143Y-12296809D01*
X16333571Y-12296809D01*
X16314524Y-12287286D01*
X16305000Y-12268238D01*
X16305000Y-12258714D01*
X16314524Y-12239667D01*
X16333571Y-12230143D01*
X16362143Y-12230143D01*
X16381190Y-12239667D01*
X16457381Y-12439667D02*
X16466905Y-12430143D01*
X16485952Y-12401571D01*
X16495476Y-12382524D01*
X16505000Y-12353952D01*
X16514524Y-12306333D01*
X16514524Y-12268238D01*
X16505000Y-12220619D01*
X16495476Y-12192048D01*
X16485952Y-12173000D01*
X16466905Y-12144428D01*
X16457381Y-12134905D01*
D15*
X11481088Y-12570588D02*
X11481088Y-12503412D01*
X11413912Y-12503412D01*
X11413912Y-12570588D01*
X11481088Y-12570588D01*
D11*
X11790714Y-12427476D02*
X11809762Y-12427476D01*
X11828809Y-12437000D01*
X11838333Y-12446524D01*
X11847857Y-12465571D01*
X11857381Y-12503667D01*
X11857381Y-12551286D01*
X11847857Y-12589381D01*
X11838333Y-12608428D01*
X11828809Y-12617952D01*
X11809762Y-12627476D01*
X11790714Y-12627476D01*
X11771667Y-12617952D01*
X11762143Y-12608428D01*
X11752619Y-12589381D01*
X11743095Y-12551286D01*
X11743095Y-12503667D01*
X11752619Y-12465571D01*
X11762143Y-12446524D01*
X11771667Y-12437000D01*
X11790714Y-12427476D01*
X11943095Y-12608428D02*
X11952619Y-12617952D01*
X11943095Y-12627476D01*
X11933571Y-12617952D01*
X11943095Y-12608428D01*
X11943095Y-12627476D01*
X12047857Y-12627476D02*
X12085952Y-12627476D01*
X12105000Y-12617952D01*
X12114524Y-12608428D01*
X12133571Y-12579857D01*
X12143095Y-12541762D01*
X12143095Y-12465571D01*
X12133571Y-12446524D01*
X12124048Y-12437000D01*
X12105000Y-12427476D01*
X12066905Y-12427476D01*
X12047857Y-12437000D01*
X12038333Y-12446524D01*
X12028809Y-12465571D01*
X12028809Y-12513190D01*
X12038333Y-12532238D01*
X12047857Y-12541762D01*
X12066905Y-12551286D01*
X12105000Y-12551286D01*
X12124048Y-12541762D01*
X12133571Y-12532238D01*
X12143095Y-12513190D01*
X12324048Y-12427476D02*
X12228809Y-12427476D01*
X12219286Y-12522714D01*
X12228809Y-12513190D01*
X12247857Y-12503667D01*
X12295476Y-12503667D01*
X12314524Y-12513190D01*
X12324048Y-12522714D01*
X12333571Y-12541762D01*
X12333571Y-12589381D01*
X12324048Y-12608428D01*
X12314524Y-12617952D01*
X12295476Y-12627476D01*
X12247857Y-12627476D01*
X12228809Y-12617952D01*
X12219286Y-12608428D01*
X12457381Y-12427476D02*
X12476428Y-12427476D01*
X12495476Y-12437000D01*
X12505000Y-12446524D01*
X12514524Y-12465571D01*
X12524048Y-12503667D01*
X12524048Y-12551286D01*
X12514524Y-12589381D01*
X12505000Y-12608428D01*
X12495476Y-12617952D01*
X12476428Y-12627476D01*
X12457381Y-12627476D01*
X12438333Y-12617952D01*
X12428809Y-12608428D01*
X12419286Y-12589381D01*
X12409762Y-12551286D01*
X12409762Y-12503667D01*
X12419286Y-12465571D01*
X12428809Y-12446524D01*
X12438333Y-12437000D01*
X12457381Y-12427476D01*
X12609762Y-12627476D02*
X12609762Y-12494143D01*
X12609762Y-12513190D02*
X12619286Y-12503667D01*
X12638333Y-12494143D01*
X12666905Y-12494143D01*
X12685952Y-12503667D01*
X12695476Y-12522714D01*
X12695476Y-12627476D01*
X12695476Y-12522714D02*
X12705000Y-12503667D01*
X12724048Y-12494143D01*
X12752619Y-12494143D01*
X12771667Y-12503667D01*
X12781190Y-12522714D01*
X12781190Y-12627476D01*
X12876428Y-12627476D02*
X12876428Y-12494143D01*
X12876428Y-12513190D02*
X12885952Y-12503667D01*
X12905000Y-12494143D01*
X12933571Y-12494143D01*
X12952619Y-12503667D01*
X12962143Y-12522714D01*
X12962143Y-12627476D01*
X12962143Y-12522714D02*
X12971667Y-12503667D01*
X12990714Y-12494143D01*
X13019286Y-12494143D01*
X13038333Y-12503667D01*
X13047857Y-12522714D01*
X13047857Y-12627476D01*
X13438333Y-12417952D02*
X13266905Y-12675095D01*
X13695476Y-12427476D02*
X13714524Y-12427476D01*
X13733571Y-12437000D01*
X13743095Y-12446524D01*
X13752619Y-12465571D01*
X13762143Y-12503667D01*
X13762143Y-12551286D01*
X13752619Y-12589381D01*
X13743095Y-12608428D01*
X13733571Y-12617952D01*
X13714524Y-12627476D01*
X13695476Y-12627476D01*
X13676428Y-12617952D01*
X13666905Y-12608428D01*
X13657381Y-12589381D01*
X13647857Y-12551286D01*
X13647857Y-12503667D01*
X13657381Y-12465571D01*
X13666905Y-12446524D01*
X13676428Y-12437000D01*
X13695476Y-12427476D01*
X13847857Y-12608428D02*
X13857381Y-12617952D01*
X13847857Y-12627476D01*
X13838333Y-12617952D01*
X13847857Y-12608428D01*
X13847857Y-12627476D01*
X13981190Y-12427476D02*
X14000238Y-12427476D01*
X14019286Y-12437000D01*
X14028809Y-12446524D01*
X14038333Y-12465571D01*
X14047857Y-12503667D01*
X14047857Y-12551286D01*
X14038333Y-12589381D01*
X14028809Y-12608428D01*
X14019286Y-12617952D01*
X14000238Y-12627476D01*
X13981190Y-12627476D01*
X13962143Y-12617952D01*
X13952619Y-12608428D01*
X13943095Y-12589381D01*
X13933571Y-12551286D01*
X13933571Y-12503667D01*
X13943095Y-12465571D01*
X13952619Y-12446524D01*
X13962143Y-12437000D01*
X13981190Y-12427476D01*
X14114524Y-12427476D02*
X14238333Y-12427476D01*
X14171667Y-12503667D01*
X14200238Y-12503667D01*
X14219286Y-12513190D01*
X14228809Y-12522714D01*
X14238333Y-12541762D01*
X14238333Y-12589381D01*
X14228809Y-12608428D01*
X14219286Y-12617952D01*
X14200238Y-12627476D01*
X14143095Y-12627476D01*
X14124048Y-12617952D01*
X14114524Y-12608428D01*
X14305000Y-12427476D02*
X14438333Y-12427476D01*
X14352619Y-12627476D01*
X14600238Y-12494143D02*
X14600238Y-12627476D01*
X14552619Y-12417952D02*
X14505000Y-12560809D01*
X14628809Y-12560809D01*
X14695476Y-12427476D02*
X14695476Y-12465571D01*
X14771667Y-12427476D02*
X14771667Y-12465571D01*
X15066905Y-12703667D02*
X15057381Y-12694143D01*
X15038333Y-12665571D01*
X15028809Y-12646524D01*
X15019286Y-12617952D01*
X15009762Y-12570333D01*
X15009762Y-12532238D01*
X15019286Y-12484619D01*
X15028809Y-12456048D01*
X15038333Y-12437000D01*
X15057381Y-12408428D01*
X15066905Y-12398905D01*
X15247857Y-12627476D02*
X15133571Y-12627476D01*
X15190714Y-12627476D02*
X15190714Y-12427476D01*
X15171667Y-12456048D01*
X15152619Y-12475095D01*
X15133571Y-12484619D01*
X15314524Y-12427476D02*
X15447857Y-12427476D01*
X15362143Y-12627476D01*
X15676428Y-12627476D02*
X15676428Y-12427476D01*
X15762143Y-12627476D02*
X15762143Y-12522714D01*
X15752619Y-12503667D01*
X15733571Y-12494143D01*
X15705000Y-12494143D01*
X15685952Y-12503667D01*
X15676428Y-12513190D01*
X15885952Y-12627476D02*
X15866905Y-12617952D01*
X15857381Y-12608428D01*
X15847857Y-12589381D01*
X15847857Y-12532238D01*
X15857381Y-12513190D01*
X15866905Y-12503667D01*
X15885952Y-12494143D01*
X15914524Y-12494143D01*
X15933571Y-12503667D01*
X15943095Y-12513190D01*
X15952619Y-12532238D01*
X15952619Y-12589381D01*
X15943095Y-12608428D01*
X15933571Y-12617952D01*
X15914524Y-12627476D01*
X15885952Y-12627476D01*
X16066905Y-12627476D02*
X16047857Y-12617952D01*
X16038333Y-12598905D01*
X16038333Y-12427476D01*
X16219286Y-12617952D02*
X16200238Y-12627476D01*
X16162143Y-12627476D01*
X16143095Y-12617952D01*
X16133571Y-12598905D01*
X16133571Y-12522714D01*
X16143095Y-12503667D01*
X16162143Y-12494143D01*
X16200238Y-12494143D01*
X16219286Y-12503667D01*
X16228809Y-12522714D01*
X16228809Y-12541762D01*
X16133571Y-12560809D01*
X16305000Y-12617952D02*
X16324048Y-12627476D01*
X16362143Y-12627476D01*
X16381190Y-12617952D01*
X16390714Y-12598905D01*
X16390714Y-12589381D01*
X16381190Y-12570333D01*
X16362143Y-12560809D01*
X16333571Y-12560809D01*
X16314524Y-12551286D01*
X16305000Y-12532238D01*
X16305000Y-12522714D01*
X16314524Y-12503667D01*
X16333571Y-12494143D01*
X16362143Y-12494143D01*
X16381190Y-12503667D01*
X16457381Y-12703667D02*
X16466905Y-12694143D01*
X16485952Y-12665571D01*
X16495476Y-12646524D01*
X16505000Y-12617952D01*
X16514524Y-12570333D01*
X16514524Y-12532238D01*
X16505000Y-12484619D01*
X16495476Y-12456048D01*
X16485952Y-12437000D01*
X16466905Y-12408428D01*
X16457381Y-12398905D01*
D10*
X11445000Y-12851000D02*
X11495000Y-12801000D01*
X11445000Y-12751000D01*
X11395000Y-12801000D01*
X11445000Y-12851000D01*
D11*
X11857381Y-12891476D02*
X11743095Y-12891476D01*
X11800238Y-12891476D02*
X11800238Y-12691476D01*
X11781190Y-12720048D01*
X11762143Y-12739095D01*
X11743095Y-12748619D01*
X11943095Y-12872428D02*
X11952619Y-12881952D01*
X11943095Y-12891476D01*
X11933571Y-12881952D01*
X11943095Y-12872428D01*
X11943095Y-12891476D01*
X12076428Y-12691476D02*
X12095476Y-12691476D01*
X12114524Y-12701000D01*
X12124048Y-12710524D01*
X12133571Y-12729571D01*
X12143095Y-12767667D01*
X12143095Y-12815286D01*
X12133571Y-12853381D01*
X12124048Y-12872428D01*
X12114524Y-12881952D01*
X12095476Y-12891476D01*
X12076428Y-12891476D01*
X12057381Y-12881952D01*
X12047857Y-12872428D01*
X12038333Y-12853381D01*
X12028809Y-12815286D01*
X12028809Y-12767667D01*
X12038333Y-12729571D01*
X12047857Y-12710524D01*
X12057381Y-12701000D01*
X12076428Y-12691476D01*
X12266905Y-12691476D02*
X12285952Y-12691476D01*
X12305000Y-12701000D01*
X12314524Y-12710524D01*
X12324048Y-12729571D01*
X12333571Y-12767667D01*
X12333571Y-12815286D01*
X12324048Y-12853381D01*
X12314524Y-12872428D01*
X12305000Y-12881952D01*
X12285952Y-12891476D01*
X12266905Y-12891476D01*
X12247857Y-12881952D01*
X12238333Y-12872428D01*
X12228809Y-12853381D01*
X12219286Y-12815286D01*
X12219286Y-12767667D01*
X12228809Y-12729571D01*
X12238333Y-12710524D01*
X12247857Y-12701000D01*
X12266905Y-12691476D01*
X12457381Y-12691476D02*
X12476428Y-12691476D01*
X12495476Y-12701000D01*
X12505000Y-12710524D01*
X12514524Y-12729571D01*
X12524048Y-12767667D01*
X12524048Y-12815286D01*
X12514524Y-12853381D01*
X12505000Y-12872428D01*
X12495476Y-12881952D01*
X12476428Y-12891476D01*
X12457381Y-12891476D01*
X12438333Y-12881952D01*
X12428809Y-12872428D01*
X12419286Y-12853381D01*
X12409762Y-12815286D01*
X12409762Y-12767667D01*
X12419286Y-12729571D01*
X12428809Y-12710524D01*
X12438333Y-12701000D01*
X12457381Y-12691476D01*
X12609762Y-12891476D02*
X12609762Y-12758143D01*
X12609762Y-12777190D02*
X12619286Y-12767667D01*
X12638333Y-12758143D01*
X12666905Y-12758143D01*
X12685952Y-12767667D01*
X12695476Y-12786714D01*
X12695476Y-12891476D01*
X12695476Y-12786714D02*
X12705000Y-12767667D01*
X12724048Y-12758143D01*
X12752619Y-12758143D01*
X12771667Y-12767667D01*
X12781190Y-12786714D01*
X12781190Y-12891476D01*
X12876428Y-12891476D02*
X12876428Y-12758143D01*
X12876428Y-12777190D02*
X12885952Y-12767667D01*
X12905000Y-12758143D01*
X12933571Y-12758143D01*
X12952619Y-12767667D01*
X12962143Y-12786714D01*
X12962143Y-12891476D01*
X12962143Y-12786714D02*
X12971667Y-12767667D01*
X12990714Y-12758143D01*
X13019286Y-12758143D01*
X13038333Y-12767667D01*
X13047857Y-12786714D01*
X13047857Y-12891476D01*
X13438333Y-12681952D02*
X13266905Y-12939095D01*
X13695476Y-12691476D02*
X13714524Y-12691476D01*
X13733571Y-12701000D01*
X13743095Y-12710524D01*
X13752619Y-12729571D01*
X13762143Y-12767667D01*
X13762143Y-12815286D01*
X13752619Y-12853381D01*
X13743095Y-12872428D01*
X13733571Y-12881952D01*
X13714524Y-12891476D01*
X13695476Y-12891476D01*
X13676428Y-12881952D01*
X13666905Y-12872428D01*
X13657381Y-12853381D01*
X13647857Y-12815286D01*
X13647857Y-12767667D01*
X13657381Y-12729571D01*
X13666905Y-12710524D01*
X13676428Y-12701000D01*
X13695476Y-12691476D01*
X13847857Y-12872428D02*
X13857381Y-12881952D01*
X13847857Y-12891476D01*
X13838333Y-12881952D01*
X13847857Y-12872428D01*
X13847857Y-12891476D01*
X13981190Y-12691476D02*
X14000238Y-12691476D01*
X14019286Y-12701000D01*
X14028809Y-12710524D01*
X14038333Y-12729571D01*
X14047857Y-12767667D01*
X14047857Y-12815286D01*
X14038333Y-12853381D01*
X14028809Y-12872428D01*
X14019286Y-12881952D01*
X14000238Y-12891476D01*
X13981190Y-12891476D01*
X13962143Y-12881952D01*
X13952619Y-12872428D01*
X13943095Y-12853381D01*
X13933571Y-12815286D01*
X13933571Y-12767667D01*
X13943095Y-12729571D01*
X13952619Y-12710524D01*
X13962143Y-12701000D01*
X13981190Y-12691476D01*
X14114524Y-12691476D02*
X14238333Y-12691476D01*
X14171667Y-12767667D01*
X14200238Y-12767667D01*
X14219286Y-12777190D01*
X14228809Y-12786714D01*
X14238333Y-12805762D01*
X14238333Y-12853381D01*
X14228809Y-12872428D01*
X14219286Y-12881952D01*
X14200238Y-12891476D01*
X14143095Y-12891476D01*
X14124048Y-12881952D01*
X14114524Y-12872428D01*
X14333571Y-12891476D02*
X14371667Y-12891476D01*
X14390714Y-12881952D01*
X14400238Y-12872428D01*
X14419286Y-12843857D01*
X14428809Y-12805762D01*
X14428809Y-12729571D01*
X14419286Y-12710524D01*
X14409762Y-12701000D01*
X14390714Y-12691476D01*
X14352619Y-12691476D01*
X14333571Y-12701000D01*
X14324048Y-12710524D01*
X14314524Y-12729571D01*
X14314524Y-12777190D01*
X14324048Y-12796238D01*
X14333571Y-12805762D01*
X14352619Y-12815286D01*
X14390714Y-12815286D01*
X14409762Y-12805762D01*
X14419286Y-12796238D01*
X14428809Y-12777190D01*
X14600238Y-12758143D02*
X14600238Y-12891476D01*
X14552619Y-12681952D02*
X14505000Y-12824809D01*
X14628809Y-12824809D01*
X14695476Y-12691476D02*
X14695476Y-12729571D01*
X14771667Y-12691476D02*
X14771667Y-12729571D01*
X15066905Y-12967667D02*
X15057381Y-12958143D01*
X15038333Y-12929571D01*
X15028809Y-12910524D01*
X15019286Y-12881952D01*
X15009762Y-12834333D01*
X15009762Y-12796238D01*
X15019286Y-12748619D01*
X15028809Y-12720048D01*
X15038333Y-12701000D01*
X15057381Y-12672428D01*
X15066905Y-12662905D01*
X15133571Y-12710524D02*
X15143095Y-12701000D01*
X15162143Y-12691476D01*
X15209762Y-12691476D01*
X15228809Y-12701000D01*
X15238333Y-12710524D01*
X15247857Y-12729571D01*
X15247857Y-12748619D01*
X15238333Y-12777190D01*
X15124048Y-12891476D01*
X15247857Y-12891476D01*
X15371667Y-12691476D02*
X15390714Y-12691476D01*
X15409762Y-12701000D01*
X15419286Y-12710524D01*
X15428809Y-12729571D01*
X15438333Y-12767667D01*
X15438333Y-12815286D01*
X15428809Y-12853381D01*
X15419286Y-12872428D01*
X15409762Y-12881952D01*
X15390714Y-12891476D01*
X15371667Y-12891476D01*
X15352619Y-12881952D01*
X15343095Y-12872428D01*
X15333571Y-12853381D01*
X15324048Y-12815286D01*
X15324048Y-12767667D01*
X15333571Y-12729571D01*
X15343095Y-12710524D01*
X15352619Y-12701000D01*
X15371667Y-12691476D01*
X15676428Y-12891476D02*
X15676428Y-12691476D01*
X15762143Y-12891476D02*
X15762143Y-12786714D01*
X15752619Y-12767667D01*
X15733571Y-12758143D01*
X15705000Y-12758143D01*
X15685952Y-12767667D01*
X15676428Y-12777190D01*
X15885952Y-12891476D02*
X15866905Y-12881952D01*
X15857381Y-12872428D01*
X15847857Y-12853381D01*
X15847857Y-12796238D01*
X15857381Y-12777190D01*
X15866905Y-12767667D01*
X15885952Y-12758143D01*
X15914524Y-12758143D01*
X15933571Y-12767667D01*
X15943095Y-12777190D01*
X15952619Y-12796238D01*
X15952619Y-12853381D01*
X15943095Y-12872428D01*
X15933571Y-12881952D01*
X15914524Y-12891476D01*
X15885952Y-12891476D01*
X16066905Y-12891476D02*
X16047857Y-12881952D01*
X16038333Y-12862905D01*
X16038333Y-12691476D01*
X16219286Y-12881952D02*
X16200238Y-12891476D01*
X16162143Y-12891476D01*
X16143095Y-12881952D01*
X16133571Y-12862905D01*
X16133571Y-12786714D01*
X16143095Y-12767667D01*
X16162143Y-12758143D01*
X16200238Y-12758143D01*
X16219286Y-12767667D01*
X16228809Y-12786714D01*
X16228809Y-12805762D01*
X16133571Y-12824809D01*
X16305000Y-12881952D02*
X16324048Y-12891476D01*
X16362143Y-12891476D01*
X16381190Y-12881952D01*
X16390714Y-12862905D01*
X16390714Y-12853381D01*
X16381190Y-12834333D01*
X16362143Y-12824809D01*
X16333571Y-12824809D01*
X16314524Y-12815286D01*
X16305000Y-12796238D01*
X16305000Y-12786714D01*
X16314524Y-12767667D01*
X16333571Y-12758143D01*
X16362143Y-12758143D01*
X16381190Y-12767667D01*
X16457381Y-12967667D02*
X16466905Y-12958143D01*
X16485952Y-12929571D01*
X16495476Y-12910524D01*
X16505000Y-12881952D01*
X16514524Y-12834333D01*
X16514524Y-12796238D01*
X16505000Y-12748619D01*
X16495476Y-12720048D01*
X16485952Y-12701000D01*
X16466905Y-12672428D01*
X16457381Y-12662905D01*
D16*
X11385000Y-13010000D02*
X11495000Y-13120000D01*
X11495000Y-13010000D02*
X11385000Y-13120000D01*
X11495000Y-13065000D02*
G75*
G03*
X11495000Y-13065000I-55000J0D01*
G01*
D11*
X11857381Y-13155476D02*
X11743095Y-13155476D01*
X11800238Y-13155476D02*
X11800238Y-12955476D01*
X11781190Y-12984048D01*
X11762143Y-13003095D01*
X11743095Y-13012619D01*
X11943095Y-13136428D02*
X11952619Y-13145952D01*
X11943095Y-13155476D01*
X11933571Y-13145952D01*
X11943095Y-13136428D01*
X11943095Y-13155476D01*
X12143095Y-13155476D02*
X12028809Y-13155476D01*
X12085952Y-13155476D02*
X12085952Y-12955476D01*
X12066905Y-12984048D01*
X12047857Y-13003095D01*
X12028809Y-13012619D01*
X12266905Y-12955476D02*
X12285952Y-12955476D01*
X12305000Y-12965000D01*
X12314524Y-12974524D01*
X12324048Y-12993571D01*
X12333571Y-13031667D01*
X12333571Y-13079286D01*
X12324048Y-13117381D01*
X12314524Y-13136428D01*
X12305000Y-13145952D01*
X12285952Y-13155476D01*
X12266905Y-13155476D01*
X12247857Y-13145952D01*
X12238333Y-13136428D01*
X12228809Y-13117381D01*
X12219286Y-13079286D01*
X12219286Y-13031667D01*
X12228809Y-12993571D01*
X12238333Y-12974524D01*
X12247857Y-12965000D01*
X12266905Y-12955476D01*
X12457381Y-12955476D02*
X12476428Y-12955476D01*
X12495476Y-12965000D01*
X12505000Y-12974524D01*
X12514524Y-12993571D01*
X12524048Y-13031667D01*
X12524048Y-13079286D01*
X12514524Y-13117381D01*
X12505000Y-13136428D01*
X12495476Y-13145952D01*
X12476428Y-13155476D01*
X12457381Y-13155476D01*
X12438333Y-13145952D01*
X12428809Y-13136428D01*
X12419286Y-13117381D01*
X12409762Y-13079286D01*
X12409762Y-13031667D01*
X12419286Y-12993571D01*
X12428809Y-12974524D01*
X12438333Y-12965000D01*
X12457381Y-12955476D01*
X12609762Y-13155476D02*
X12609762Y-13022143D01*
X12609762Y-13041190D02*
X12619286Y-13031667D01*
X12638333Y-13022143D01*
X12666905Y-13022143D01*
X12685952Y-13031667D01*
X12695476Y-13050714D01*
X12695476Y-13155476D01*
X12695476Y-13050714D02*
X12705000Y-13031667D01*
X12724048Y-13022143D01*
X12752619Y-13022143D01*
X12771667Y-13031667D01*
X12781190Y-13050714D01*
X12781190Y-13155476D01*
X12876428Y-13155476D02*
X12876428Y-13022143D01*
X12876428Y-13041190D02*
X12885952Y-13031667D01*
X12905000Y-13022143D01*
X12933571Y-13022143D01*
X12952619Y-13031667D01*
X12962143Y-13050714D01*
X12962143Y-13155476D01*
X12962143Y-13050714D02*
X12971667Y-13031667D01*
X12990714Y-13022143D01*
X13019286Y-13022143D01*
X13038333Y-13031667D01*
X13047857Y-13050714D01*
X13047857Y-13155476D01*
X13438333Y-12945952D02*
X13266905Y-13203095D01*
X13695476Y-12955476D02*
X13714524Y-12955476D01*
X13733571Y-12965000D01*
X13743095Y-12974524D01*
X13752619Y-12993571D01*
X13762143Y-13031667D01*
X13762143Y-13079286D01*
X13752619Y-13117381D01*
X13743095Y-13136428D01*
X13733571Y-13145952D01*
X13714524Y-13155476D01*
X13695476Y-13155476D01*
X13676428Y-13145952D01*
X13666905Y-13136428D01*
X13657381Y-13117381D01*
X13647857Y-13079286D01*
X13647857Y-13031667D01*
X13657381Y-12993571D01*
X13666905Y-12974524D01*
X13676428Y-12965000D01*
X13695476Y-12955476D01*
X13847857Y-13136428D02*
X13857381Y-13145952D01*
X13847857Y-13155476D01*
X13838333Y-13145952D01*
X13847857Y-13136428D01*
X13847857Y-13155476D01*
X13981190Y-12955476D02*
X14000238Y-12955476D01*
X14019286Y-12965000D01*
X14028809Y-12974524D01*
X14038333Y-12993571D01*
X14047857Y-13031667D01*
X14047857Y-13079286D01*
X14038333Y-13117381D01*
X14028809Y-13136428D01*
X14019286Y-13145952D01*
X14000238Y-13155476D01*
X13981190Y-13155476D01*
X13962143Y-13145952D01*
X13952619Y-13136428D01*
X13943095Y-13117381D01*
X13933571Y-13079286D01*
X13933571Y-13031667D01*
X13943095Y-12993571D01*
X13952619Y-12974524D01*
X13962143Y-12965000D01*
X13981190Y-12955476D01*
X14219286Y-13022143D02*
X14219286Y-13155476D01*
X14171667Y-12945952D02*
X14124048Y-13088809D01*
X14247857Y-13088809D01*
X14305000Y-12955476D02*
X14428809Y-12955476D01*
X14362143Y-13031667D01*
X14390714Y-13031667D01*
X14409762Y-13041190D01*
X14419286Y-13050714D01*
X14428809Y-13069762D01*
X14428809Y-13117381D01*
X14419286Y-13136428D01*
X14409762Y-13145952D01*
X14390714Y-13155476D01*
X14333571Y-13155476D01*
X14314524Y-13145952D01*
X14305000Y-13136428D01*
X14495476Y-12955476D02*
X14619286Y-12955476D01*
X14552619Y-13031667D01*
X14581190Y-13031667D01*
X14600238Y-13041190D01*
X14609762Y-13050714D01*
X14619286Y-13069762D01*
X14619286Y-13117381D01*
X14609762Y-13136428D01*
X14600238Y-13145952D01*
X14581190Y-13155476D01*
X14524048Y-13155476D01*
X14505000Y-13145952D01*
X14495476Y-13136428D01*
X14695476Y-12955476D02*
X14695476Y-12993571D01*
X14771667Y-12955476D02*
X14771667Y-12993571D01*
X15066905Y-13231667D02*
X15057381Y-13222143D01*
X15038333Y-13193571D01*
X15028809Y-13174524D01*
X15019286Y-13145952D01*
X15009762Y-13098333D01*
X15009762Y-13060238D01*
X15019286Y-13012619D01*
X15028809Y-12984048D01*
X15038333Y-12965000D01*
X15057381Y-12936428D01*
X15066905Y-12926905D01*
X15247857Y-13155476D02*
X15133571Y-13155476D01*
X15190714Y-13155476D02*
X15190714Y-12955476D01*
X15171667Y-12984048D01*
X15152619Y-13003095D01*
X15133571Y-13012619D01*
X15419286Y-12955476D02*
X15381190Y-12955476D01*
X15362143Y-12965000D01*
X15352619Y-12974524D01*
X15333571Y-13003095D01*
X15324048Y-13041190D01*
X15324048Y-13117381D01*
X15333571Y-13136428D01*
X15343095Y-13145952D01*
X15362143Y-13155476D01*
X15400238Y-13155476D01*
X15419286Y-13145952D01*
X15428809Y-13136428D01*
X15438333Y-13117381D01*
X15438333Y-13069762D01*
X15428809Y-13050714D01*
X15419286Y-13041190D01*
X15400238Y-13031667D01*
X15362143Y-13031667D01*
X15343095Y-13041190D01*
X15333571Y-13050714D01*
X15324048Y-13069762D01*
X15676428Y-13155476D02*
X15676428Y-12955476D01*
X15762143Y-13155476D02*
X15762143Y-13050714D01*
X15752619Y-13031667D01*
X15733571Y-13022143D01*
X15705000Y-13022143D01*
X15685952Y-13031667D01*
X15676428Y-13041190D01*
X15885952Y-13155476D02*
X15866905Y-13145952D01*
X15857381Y-13136428D01*
X15847857Y-13117381D01*
X15847857Y-13060238D01*
X15857381Y-13041190D01*
X15866905Y-13031667D01*
X15885952Y-13022143D01*
X15914524Y-13022143D01*
X15933571Y-13031667D01*
X15943095Y-13041190D01*
X15952619Y-13060238D01*
X15952619Y-13117381D01*
X15943095Y-13136428D01*
X15933571Y-13145952D01*
X15914524Y-13155476D01*
X15885952Y-13155476D01*
X16066905Y-13155476D02*
X16047857Y-13145952D01*
X16038333Y-13126905D01*
X16038333Y-12955476D01*
X16219286Y-13145952D02*
X16200238Y-13155476D01*
X16162143Y-13155476D01*
X16143095Y-13145952D01*
X16133571Y-13126905D01*
X16133571Y-13050714D01*
X16143095Y-13031667D01*
X16162143Y-13022143D01*
X16200238Y-13022143D01*
X16219286Y-13031667D01*
X16228809Y-13050714D01*
X16228809Y-13069762D01*
X16133571Y-13088809D01*
X16305000Y-13145952D02*
X16324048Y-13155476D01*
X16362143Y-13155476D01*
X16381190Y-13145952D01*
X16390714Y-13126905D01*
X16390714Y-13117381D01*
X16381190Y-13098333D01*
X16362143Y-13088809D01*
X16333571Y-13088809D01*
X16314524Y-13079286D01*
X16305000Y-13060238D01*
X16305000Y-13050714D01*
X16314524Y-13031667D01*
X16333571Y-13022143D01*
X16362143Y-13022143D01*
X16381190Y-13031667D01*
X16457381Y-13231667D02*
X16466905Y-13222143D01*
X16485952Y-13193571D01*
X16495476Y-13174524D01*
X16505000Y-13145952D01*
X16514524Y-13098333D01*
X16514524Y-13060238D01*
X16505000Y-13012619D01*
X16495476Y-12984048D01*
X16485952Y-12965000D01*
X16466905Y-12936428D01*
X16457381Y-12926905D01*
X11295000Y-13229000D02*
X11495000Y-13429000D01*
X11495000Y-13229000D02*
X11295000Y-13429000D01*
X11395000Y-13229000D02*
X11395000Y-13429000D01*
X11295000Y-13329000D02*
X11495000Y-13329000D01*
X11733571Y-13219476D02*
X11857381Y-13219476D01*
X11790714Y-13295667D01*
X11819286Y-13295667D01*
X11838333Y-13305190D01*
X11847857Y-13314714D01*
X11857381Y-13333762D01*
X11857381Y-13381381D01*
X11847857Y-13400428D01*
X11838333Y-13409952D01*
X11819286Y-13419476D01*
X11762143Y-13419476D01*
X11743095Y-13409952D01*
X11733571Y-13400428D01*
X11943095Y-13400428D02*
X11952619Y-13409952D01*
X11943095Y-13419476D01*
X11933571Y-13409952D01*
X11943095Y-13400428D01*
X11943095Y-13419476D01*
X12028809Y-13238524D02*
X12038333Y-13229000D01*
X12057381Y-13219476D01*
X12105000Y-13219476D01*
X12124048Y-13229000D01*
X12133571Y-13238524D01*
X12143095Y-13257571D01*
X12143095Y-13276619D01*
X12133571Y-13305190D01*
X12019286Y-13419476D01*
X12143095Y-13419476D01*
X12266905Y-13219476D02*
X12285952Y-13219476D01*
X12305000Y-13229000D01*
X12314524Y-13238524D01*
X12324048Y-13257571D01*
X12333571Y-13295667D01*
X12333571Y-13343286D01*
X12324048Y-13381381D01*
X12314524Y-13400428D01*
X12305000Y-13409952D01*
X12285952Y-13419476D01*
X12266905Y-13419476D01*
X12247857Y-13409952D01*
X12238333Y-13400428D01*
X12228809Y-13381381D01*
X12219286Y-13343286D01*
X12219286Y-13295667D01*
X12228809Y-13257571D01*
X12238333Y-13238524D01*
X12247857Y-13229000D01*
X12266905Y-13219476D01*
X12457381Y-13219476D02*
X12476428Y-13219476D01*
X12495476Y-13229000D01*
X12505000Y-13238524D01*
X12514524Y-13257571D01*
X12524048Y-13295667D01*
X12524048Y-13343286D01*
X12514524Y-13381381D01*
X12505000Y-13400428D01*
X12495476Y-13409952D01*
X12476428Y-13419476D01*
X12457381Y-13419476D01*
X12438333Y-13409952D01*
X12428809Y-13400428D01*
X12419286Y-13381381D01*
X12409762Y-13343286D01*
X12409762Y-13295667D01*
X12419286Y-13257571D01*
X12428809Y-13238524D01*
X12438333Y-13229000D01*
X12457381Y-13219476D01*
X12609762Y-13419476D02*
X12609762Y-13286143D01*
X12609762Y-13305190D02*
X12619286Y-13295667D01*
X12638333Y-13286143D01*
X12666905Y-13286143D01*
X12685952Y-13295667D01*
X12695476Y-13314714D01*
X12695476Y-13419476D01*
X12695476Y-13314714D02*
X12705000Y-13295667D01*
X12724048Y-13286143D01*
X12752619Y-13286143D01*
X12771667Y-13295667D01*
X12781190Y-13314714D01*
X12781190Y-13419476D01*
X12876428Y-13419476D02*
X12876428Y-13286143D01*
X12876428Y-13305190D02*
X12885952Y-13295667D01*
X12905000Y-13286143D01*
X12933571Y-13286143D01*
X12952619Y-13295667D01*
X12962143Y-13314714D01*
X12962143Y-13419476D01*
X12962143Y-13314714D02*
X12971667Y-13295667D01*
X12990714Y-13286143D01*
X13019286Y-13286143D01*
X13038333Y-13295667D01*
X13047857Y-13314714D01*
X13047857Y-13419476D01*
X13438333Y-13209952D02*
X13266905Y-13467095D01*
X13695476Y-13219476D02*
X13714524Y-13219476D01*
X13733571Y-13229000D01*
X13743095Y-13238524D01*
X13752619Y-13257571D01*
X13762143Y-13295667D01*
X13762143Y-13343286D01*
X13752619Y-13381381D01*
X13743095Y-13400428D01*
X13733571Y-13409952D01*
X13714524Y-13419476D01*
X13695476Y-13419476D01*
X13676428Y-13409952D01*
X13666905Y-13400428D01*
X13657381Y-13381381D01*
X13647857Y-13343286D01*
X13647857Y-13295667D01*
X13657381Y-13257571D01*
X13666905Y-13238524D01*
X13676428Y-13229000D01*
X13695476Y-13219476D01*
X13847857Y-13400428D02*
X13857381Y-13409952D01*
X13847857Y-13419476D01*
X13838333Y-13409952D01*
X13847857Y-13400428D01*
X13847857Y-13419476D01*
X14047857Y-13419476D02*
X13933571Y-13419476D01*
X13990714Y-13419476D02*
X13990714Y-13219476D01*
X13971667Y-13248048D01*
X13952619Y-13267095D01*
X13933571Y-13276619D01*
X14124048Y-13238524D02*
X14133571Y-13229000D01*
X14152619Y-13219476D01*
X14200238Y-13219476D01*
X14219286Y-13229000D01*
X14228809Y-13238524D01*
X14238333Y-13257571D01*
X14238333Y-13276619D01*
X14228809Y-13305190D01*
X14114524Y-13419476D01*
X14238333Y-13419476D01*
X14409762Y-13219476D02*
X14371667Y-13219476D01*
X14352619Y-13229000D01*
X14343095Y-13238524D01*
X14324048Y-13267095D01*
X14314524Y-13305190D01*
X14314524Y-13381381D01*
X14324048Y-13400428D01*
X14333571Y-13409952D01*
X14352619Y-13419476D01*
X14390714Y-13419476D01*
X14409762Y-13409952D01*
X14419286Y-13400428D01*
X14428809Y-13381381D01*
X14428809Y-13333762D01*
X14419286Y-13314714D01*
X14409762Y-13305190D01*
X14390714Y-13295667D01*
X14352619Y-13295667D01*
X14333571Y-13305190D01*
X14324048Y-13314714D01*
X14314524Y-13333762D01*
X14552619Y-13219476D02*
X14571667Y-13219476D01*
X14590714Y-13229000D01*
X14600238Y-13238524D01*
X14609762Y-13257571D01*
X14619286Y-13295667D01*
X14619286Y-13343286D01*
X14609762Y-13381381D01*
X14600238Y-13400428D01*
X14590714Y-13409952D01*
X14571667Y-13419476D01*
X14552619Y-13419476D01*
X14533571Y-13409952D01*
X14524048Y-13400428D01*
X14514524Y-13381381D01*
X14505000Y-13343286D01*
X14505000Y-13295667D01*
X14514524Y-13257571D01*
X14524048Y-13238524D01*
X14533571Y-13229000D01*
X14552619Y-13219476D01*
X14695476Y-13219476D02*
X14695476Y-13257571D01*
X14771667Y-13219476D02*
X14771667Y-13257571D01*
X15066905Y-13495667D02*
X15057381Y-13486143D01*
X15038333Y-13457571D01*
X15028809Y-13438524D01*
X15019286Y-13409952D01*
X15009762Y-13362333D01*
X15009762Y-13324238D01*
X15019286Y-13276619D01*
X15028809Y-13248048D01*
X15038333Y-13229000D01*
X15057381Y-13200428D01*
X15066905Y-13190905D01*
X15228809Y-13286143D02*
X15228809Y-13419476D01*
X15181190Y-13209952D02*
X15133571Y-13352809D01*
X15257381Y-13352809D01*
X15485952Y-13419476D02*
X15485952Y-13219476D01*
X15571667Y-13419476D02*
X15571667Y-13314714D01*
X15562143Y-13295667D01*
X15543095Y-13286143D01*
X15514524Y-13286143D01*
X15495476Y-13295667D01*
X15485952Y-13305190D01*
X15695476Y-13419476D02*
X15676428Y-13409952D01*
X15666905Y-13400428D01*
X15657381Y-13381381D01*
X15657381Y-13324238D01*
X15666905Y-13305190D01*
X15676428Y-13295667D01*
X15695476Y-13286143D01*
X15724048Y-13286143D01*
X15743095Y-13295667D01*
X15752619Y-13305190D01*
X15762143Y-13324238D01*
X15762143Y-13381381D01*
X15752619Y-13400428D01*
X15743095Y-13409952D01*
X15724048Y-13419476D01*
X15695476Y-13419476D01*
X15876428Y-13419476D02*
X15857381Y-13409952D01*
X15847857Y-13390905D01*
X15847857Y-13219476D01*
X16028809Y-13409952D02*
X16009762Y-13419476D01*
X15971667Y-13419476D01*
X15952619Y-13409952D01*
X15943095Y-13390905D01*
X15943095Y-13314714D01*
X15952619Y-13295667D01*
X15971667Y-13286143D01*
X16009762Y-13286143D01*
X16028809Y-13295667D01*
X16038333Y-13314714D01*
X16038333Y-13333762D01*
X15943095Y-13352809D01*
X16114524Y-13409952D02*
X16133571Y-13419476D01*
X16171667Y-13419476D01*
X16190714Y-13409952D01*
X16200238Y-13390905D01*
X16200238Y-13381381D01*
X16190714Y-13362333D01*
X16171667Y-13352809D01*
X16143095Y-13352809D01*
X16124048Y-13343286D01*
X16114524Y-13324238D01*
X16114524Y-13314714D01*
X16124048Y-13295667D01*
X16143095Y-13286143D01*
X16171667Y-13286143D01*
X16190714Y-13295667D01*
X16266905Y-13495667D02*
X16276428Y-13486143D01*
X16295476Y-13457571D01*
X16305000Y-13438524D01*
X16314524Y-13409952D01*
X16324048Y-13362333D01*
X16324048Y-13324238D01*
X16314524Y-13276619D01*
X16305000Y-13248048D01*
X16295476Y-13229000D01*
X16276428Y-13200428D01*
X16266905Y-13190905D01*
M02*
