G04 #@! TF.GenerationSoftware,KiCad,Pcbnew,(6.0.8-1)-1*
G04 #@! TF.CreationDate,2023-04-27T22:08:01+09:00*
G04 #@! TF.ProjectId,ikako_f303,696b616b-6f5f-4663-9330-332e6b696361,rev?*
G04 #@! TF.SameCoordinates,Original*
G04 #@! TF.FileFunction,Soldermask,Bot*
G04 #@! TF.FilePolarity,Negative*
%FSLAX46Y46*%
G04 Gerber Fmt 4.6, Leading zero omitted, Abs format (unit mm)*
G04 Created by KiCad (PCBNEW (6.0.8-1)-1) date 2023-04-27 22:08:01*
%MOMM*%
%LPD*%
G01*
G04 APERTURE LIST*
G04 Aperture macros list*
%AMRoundRect*
0 Rectangle with rounded corners*
0 $1 Rounding radius*
0 $2 $3 $4 $5 $6 $7 $8 $9 X,Y pos of 4 corners*
0 Add a 4 corners polygon primitive as box body*
4,1,4,$2,$3,$4,$5,$6,$7,$8,$9,$2,$3,0*
0 Add four circle primitives for the rounded corners*
1,1,$1+$1,$2,$3*
1,1,$1+$1,$4,$5*
1,1,$1+$1,$6,$7*
1,1,$1+$1,$8,$9*
0 Add four rect primitives between the rounded corners*
20,1,$1+$1,$2,$3,$4,$5,0*
20,1,$1+$1,$4,$5,$6,$7,0*
20,1,$1+$1,$6,$7,$8,$9,0*
20,1,$1+$1,$8,$9,$2,$3,0*%
G04 Aperture macros list end*
%ADD10C,1.500000*%
%ADD11C,2.000000*%
%ADD12C,0.800000*%
%ADD13C,6.400000*%
%ADD14R,1.700000X1.700000*%
%ADD15O,1.700000X1.700000*%
%ADD16R,1.600000X1.600000*%
%ADD17O,1.600000X1.600000*%
%ADD18O,2.000000X2.800000*%
%ADD19RoundRect,0.250000X0.725000X-0.600000X0.725000X0.600000X-0.725000X0.600000X-0.725000X-0.600000X0*%
%ADD20O,1.950000X1.700000*%
%ADD21RoundRect,0.250000X-0.725000X0.600000X-0.725000X-0.600000X0.725000X-0.600000X0.725000X0.600000X0*%
%ADD22RoundRect,0.250000X0.350000X0.450000X-0.350000X0.450000X-0.350000X-0.450000X0.350000X-0.450000X0*%
%ADD23RoundRect,0.208750X0.208750X0.431250X-0.208750X0.431250X-0.208750X-0.431250X0.208750X-0.431250X0*%
%ADD24RoundRect,0.250000X0.450000X-0.350000X0.450000X0.350000X-0.450000X0.350000X-0.450000X-0.350000X0*%
%ADD25RoundRect,0.250000X-0.412500X-0.650000X0.412500X-0.650000X0.412500X0.650000X-0.412500X0.650000X0*%
%ADD26RoundRect,0.250000X0.650000X-0.412500X0.650000X0.412500X-0.650000X0.412500X-0.650000X-0.412500X0*%
G04 APERTURE END LIST*
D10*
X138395000Y-75865000D03*
X138395000Y-70865000D03*
D11*
X135750000Y-99250000D03*
X135750000Y-92750000D03*
X140250000Y-92750000D03*
X140250000Y-99250000D03*
D12*
X120000000Y-108400000D03*
X121697056Y-104302944D03*
D13*
X120000000Y-106000000D03*
D12*
X117600000Y-106000000D03*
X118302944Y-107697056D03*
X121697056Y-107697056D03*
X120000000Y-103600000D03*
X118302944Y-104302944D03*
X122400000Y-106000000D03*
D11*
X128162325Y-108839916D03*
X128162325Y-102339916D03*
X132662325Y-102339916D03*
X132662325Y-108839916D03*
D14*
X154675000Y-100600000D03*
D15*
X157215000Y-100600000D03*
X159755000Y-100600000D03*
X162295000Y-100600000D03*
X164835000Y-100600000D03*
X167375000Y-100600000D03*
D16*
X160200000Y-86200000D03*
D17*
X160200000Y-88740000D03*
X160200000Y-91280000D03*
X160200000Y-93820000D03*
X167820000Y-93820000D03*
X167820000Y-91280000D03*
X167820000Y-88740000D03*
X167820000Y-86200000D03*
D12*
X178302944Y-53697056D03*
X178302944Y-50302944D03*
X177600000Y-52000000D03*
X181697056Y-53697056D03*
X181697056Y-50302944D03*
D13*
X180000000Y-52000000D03*
D12*
X180000000Y-54400000D03*
X180000000Y-49600000D03*
X182400000Y-52000000D03*
D18*
X181653666Y-61914460D03*
D19*
X175153666Y-63164460D03*
D20*
X175153666Y-60664460D03*
D14*
X159749606Y-58097860D03*
D15*
X157209606Y-58097860D03*
X154669606Y-58097860D03*
X152129606Y-58097860D03*
X149589606Y-58097860D03*
X147049606Y-58097860D03*
X144509606Y-58097860D03*
X141969606Y-58097860D03*
X139429606Y-58097860D03*
X136889606Y-58097860D03*
X134349606Y-58097860D03*
X131809606Y-58097860D03*
X129269606Y-58097860D03*
X126729606Y-58097860D03*
D18*
X181756007Y-92411992D03*
D19*
X175256007Y-96161992D03*
D20*
X175256007Y-93661992D03*
X175256007Y-91161992D03*
X175256007Y-88661992D03*
D11*
X135737878Y-102313241D03*
X135737878Y-108813241D03*
X140237878Y-102313241D03*
X140237878Y-108813241D03*
D12*
X180000000Y-108400000D03*
X181697056Y-107697056D03*
X182400000Y-106000000D03*
X180000000Y-103600000D03*
X181697056Y-104302944D03*
X177600000Y-106000000D03*
X178302944Y-107697056D03*
X178302944Y-104302944D03*
D13*
X180000000Y-106000000D03*
D18*
X118400000Y-75200000D03*
D21*
X124900000Y-72700000D03*
D20*
X124900000Y-75200000D03*
X124900000Y-77700000D03*
D12*
X118302944Y-50302944D03*
X118302944Y-53697056D03*
X122400000Y-52000000D03*
D13*
X120000000Y-52000000D03*
D12*
X120000000Y-49600000D03*
X117600000Y-52000000D03*
X121697056Y-50302944D03*
X120000000Y-54400000D03*
X121697056Y-53697056D03*
D18*
X181600000Y-76000000D03*
D19*
X175100000Y-82250000D03*
D20*
X175100000Y-79750000D03*
X175100000Y-77250000D03*
X175100000Y-74750000D03*
X175100000Y-72250000D03*
X175100000Y-69750000D03*
D11*
X128117548Y-99242906D03*
X128117548Y-92742906D03*
X132617548Y-99242906D03*
X132617548Y-92742906D03*
D18*
X118400000Y-85200000D03*
D21*
X124900000Y-83950000D03*
D20*
X124900000Y-86450000D03*
D22*
X139412325Y-105589916D03*
X137412325Y-105589916D03*
D23*
X146627500Y-74510000D03*
X145372500Y-74510000D03*
D24*
X153000000Y-66000000D03*
X153000000Y-64000000D03*
D25*
X155875000Y-81000000D03*
X159000000Y-81000000D03*
D23*
X146627500Y-76510000D03*
X145372500Y-76510000D03*
D22*
X131412325Y-105589916D03*
X129412325Y-105589916D03*
D26*
X150192809Y-66876407D03*
X150192809Y-63751407D03*
D22*
X139412325Y-95972112D03*
X137412325Y-95972112D03*
M02*
