G04 #@! TF.GenerationSoftware,KiCad,Pcbnew,(6.0.8-1)-1*
G04 #@! TF.CreationDate,2023-04-27T22:08:01+09:00*
G04 #@! TF.ProjectId,ikako_f303,696b616b-6f5f-4663-9330-332e6b696361,rev?*
G04 #@! TF.SameCoordinates,Original*
G04 #@! TF.FileFunction,Soldermask,Top*
G04 #@! TF.FilePolarity,Negative*
%FSLAX46Y46*%
G04 Gerber Fmt 4.6, Leading zero omitted, Abs format (unit mm)*
G04 Created by KiCad (PCBNEW (6.0.8-1)-1) date 2023-04-27 22:08:01*
%MOMM*%
%LPD*%
G01*
G04 APERTURE LIST*
G04 Aperture macros list*
%AMRoundRect*
0 Rectangle with rounded corners*
0 $1 Rounding radius*
0 $2 $3 $4 $5 $6 $7 $8 $9 X,Y pos of 4 corners*
0 Add a 4 corners polygon primitive as box body*
4,1,4,$2,$3,$4,$5,$6,$7,$8,$9,$2,$3,0*
0 Add four circle primitives for the rounded corners*
1,1,$1+$1,$2,$3*
1,1,$1+$1,$4,$5*
1,1,$1+$1,$6,$7*
1,1,$1+$1,$8,$9*
0 Add four rect primitives between the rounded corners*
20,1,$1+$1,$2,$3,$4,$5,0*
20,1,$1+$1,$4,$5,$6,$7,0*
20,1,$1+$1,$6,$7,$8,$9,0*
20,1,$1+$1,$8,$9,$2,$3,0*%
G04 Aperture macros list end*
%ADD10RoundRect,0.250000X-0.450000X0.350000X-0.450000X-0.350000X0.450000X-0.350000X0.450000X0.350000X0*%
%ADD11RoundRect,0.250000X0.337500X0.475000X-0.337500X0.475000X-0.337500X-0.475000X0.337500X-0.475000X0*%
%ADD12C,1.500000*%
%ADD13RoundRect,0.237500X0.237500X-0.287500X0.237500X0.287500X-0.237500X0.287500X-0.237500X-0.287500X0*%
%ADD14C,2.000000*%
%ADD15C,0.800000*%
%ADD16C,6.400000*%
%ADD17RoundRect,0.208750X0.208750X0.431250X-0.208750X0.431250X-0.208750X-0.431250X0.208750X-0.431250X0*%
%ADD18R,1.700000X1.700000*%
%ADD19O,1.700000X1.700000*%
%ADD20RoundRect,0.237500X-0.287500X-0.237500X0.287500X-0.237500X0.287500X0.237500X-0.287500X0.237500X0*%
%ADD21RoundRect,0.250000X-0.350000X-0.450000X0.350000X-0.450000X0.350000X0.450000X-0.350000X0.450000X0*%
%ADD22RoundRect,0.250000X0.350000X0.450000X-0.350000X0.450000X-0.350000X-0.450000X0.350000X-0.450000X0*%
%ADD23R,1.600000X1.600000*%
%ADD24O,1.600000X1.600000*%
%ADD25O,2.000000X2.800000*%
%ADD26RoundRect,0.250000X0.725000X-0.600000X0.725000X0.600000X-0.725000X0.600000X-0.725000X-0.600000X0*%
%ADD27O,1.950000X1.700000*%
%ADD28RoundRect,0.125000X-0.625000X-0.125000X0.625000X-0.125000X0.625000X0.125000X-0.625000X0.125000X0*%
%ADD29RoundRect,0.125000X-0.125000X-0.625000X0.125000X-0.625000X0.125000X0.625000X-0.125000X0.625000X0*%
%ADD30RoundRect,0.250000X-0.725000X0.600000X-0.725000X-0.600000X0.725000X-0.600000X0.725000X0.600000X0*%
%ADD31RoundRect,0.208750X-0.431250X0.208750X-0.431250X-0.208750X0.431250X-0.208750X0.431250X0.208750X0*%
G04 APERTURE END LIST*
D10*
X153000000Y-64000000D03*
X153000000Y-66000000D03*
D11*
X140092960Y-66745310D03*
X138017960Y-66745310D03*
D12*
X138395000Y-75865000D03*
X138395000Y-70865000D03*
D13*
X145000000Y-106875000D03*
X145000000Y-105125000D03*
D14*
X135750000Y-99250000D03*
X135750000Y-92750000D03*
X140250000Y-92750000D03*
X140250000Y-99250000D03*
D15*
X120000000Y-108400000D03*
X121697056Y-104302944D03*
D16*
X120000000Y-106000000D03*
D15*
X117600000Y-106000000D03*
X118302944Y-107697056D03*
X121697056Y-107697056D03*
X120000000Y-103600000D03*
X118302944Y-104302944D03*
X122400000Y-106000000D03*
D17*
X148646317Y-67104844D03*
X147391317Y-67104844D03*
D14*
X128162325Y-108839916D03*
X128162325Y-102339916D03*
X132662325Y-102339916D03*
X132662325Y-108839916D03*
D18*
X154675000Y-100600000D03*
D19*
X157215000Y-100600000D03*
X159755000Y-100600000D03*
X162295000Y-100600000D03*
X164835000Y-100600000D03*
X167375000Y-100600000D03*
D20*
X118328521Y-63201280D03*
X120078521Y-63201280D03*
D10*
X145000000Y-101000000D03*
X145000000Y-103000000D03*
D21*
X145000000Y-61000000D03*
X147000000Y-61000000D03*
D13*
X147467304Y-106875000D03*
X147467304Y-105125000D03*
D10*
X149842304Y-101000000D03*
X149842304Y-103000000D03*
D22*
X124255492Y-63200000D03*
X122255492Y-63200000D03*
D11*
X140037500Y-80000000D03*
X137962500Y-80000000D03*
D23*
X160200000Y-86200000D03*
D24*
X160200000Y-88740000D03*
X160200000Y-91280000D03*
X160200000Y-93820000D03*
X167820000Y-93820000D03*
X167820000Y-91280000D03*
X167820000Y-88740000D03*
X167820000Y-86200000D03*
D17*
X139039825Y-89589916D03*
X137784825Y-89589916D03*
D15*
X178302944Y-53697056D03*
X178302944Y-50302944D03*
X177600000Y-52000000D03*
X181697056Y-53697056D03*
X181697056Y-50302944D03*
D16*
X180000000Y-52000000D03*
D15*
X180000000Y-54400000D03*
X180000000Y-49600000D03*
X182400000Y-52000000D03*
D25*
X181653666Y-61914460D03*
D26*
X175153666Y-63164460D03*
D27*
X175153666Y-60664460D03*
D18*
X159749606Y-58097860D03*
D19*
X157209606Y-58097860D03*
X154669606Y-58097860D03*
X152129606Y-58097860D03*
X149589606Y-58097860D03*
X147049606Y-58097860D03*
X144509606Y-58097860D03*
X141969606Y-58097860D03*
X139429606Y-58097860D03*
X136889606Y-58097860D03*
X134349606Y-58097860D03*
X131809606Y-58097860D03*
X129269606Y-58097860D03*
X126729606Y-58097860D03*
D28*
X148825000Y-71200000D03*
X148825000Y-72000000D03*
X148825000Y-72800000D03*
X148825000Y-73600000D03*
X148825000Y-74400000D03*
X148825000Y-75200000D03*
X148825000Y-76000000D03*
X148825000Y-76800000D03*
D29*
X150200000Y-78175000D03*
X151000000Y-78175000D03*
X151800000Y-78175000D03*
X152600000Y-78175000D03*
X153400000Y-78175000D03*
X154200000Y-78175000D03*
X155000000Y-78175000D03*
X155800000Y-78175000D03*
D28*
X157175000Y-76800000D03*
X157175000Y-76000000D03*
X157175000Y-75200000D03*
X157175000Y-74400000D03*
X157175000Y-73600000D03*
X157175000Y-72800000D03*
X157175000Y-72000000D03*
X157175000Y-71200000D03*
D29*
X155800000Y-69825000D03*
X155000000Y-69825000D03*
X154200000Y-69825000D03*
X153400000Y-69825000D03*
X152600000Y-69825000D03*
X151800000Y-69825000D03*
X151000000Y-69825000D03*
X150200000Y-69825000D03*
D25*
X181756007Y-92411992D03*
D26*
X175256007Y-96161992D03*
D27*
X175256007Y-93661992D03*
X175256007Y-91161992D03*
X175256007Y-88661992D03*
D22*
X124255492Y-67200000D03*
X122255492Y-67200000D03*
D14*
X135737878Y-102313241D03*
X135737878Y-108813241D03*
X140237878Y-102313241D03*
X140237878Y-108813241D03*
D15*
X180000000Y-108400000D03*
X181697056Y-107697056D03*
X182400000Y-106000000D03*
X180000000Y-103600000D03*
X181697056Y-104302944D03*
X177600000Y-106000000D03*
X178302944Y-107697056D03*
X178302944Y-104302944D03*
D16*
X180000000Y-106000000D03*
D22*
X144000000Y-80000000D03*
X142000000Y-80000000D03*
D10*
X147467304Y-101000000D03*
X147467304Y-103000000D03*
D25*
X118400000Y-75200000D03*
D30*
X124900000Y-72700000D03*
D27*
X124900000Y-75200000D03*
X124900000Y-77700000D03*
D31*
X160000000Y-78372500D03*
X160000000Y-79627500D03*
D17*
X148627500Y-69000000D03*
X147372500Y-69000000D03*
D15*
X118302944Y-50302944D03*
X118302944Y-53697056D03*
X122400000Y-52000000D03*
D16*
X120000000Y-52000000D03*
D15*
X120000000Y-49600000D03*
X117600000Y-52000000D03*
X121697056Y-50302944D03*
X120000000Y-54400000D03*
X121697056Y-53697056D03*
D13*
X149842304Y-106875000D03*
X149842304Y-105125000D03*
D25*
X181600000Y-76000000D03*
D26*
X175100000Y-82250000D03*
D27*
X175100000Y-79750000D03*
X175100000Y-77250000D03*
X175100000Y-74750000D03*
X175100000Y-72250000D03*
X175100000Y-69750000D03*
D20*
X118343711Y-67200000D03*
X120093711Y-67200000D03*
D21*
X139966094Y-61021829D03*
X141966094Y-61021829D03*
D14*
X128117548Y-99242906D03*
X128117548Y-92742906D03*
X132617548Y-99242906D03*
X132617548Y-92742906D03*
D31*
X158000000Y-78372500D03*
X158000000Y-79627500D03*
D25*
X118400000Y-85200000D03*
D30*
X124900000Y-83950000D03*
D27*
X124900000Y-86450000D03*
M02*
