%TF.GenerationSoftware,KiCad,Pcbnew,(6.0.8-1)-1*%
%TF.CreationDate,2023-04-27T22:08:13+09:00*%
%TF.ProjectId,ikako_f303,696b616b-6f5f-4663-9330-332e6b696361,rev?*%
%TF.SameCoordinates,Original*%
%TF.FileFunction,Drillmap*%
%TF.FilePolarity,Positive*%
%FSLAX45Y45*%
G04 Gerber Fmt 4.5, Leading zero omitted, Abs format (unit mm)*
G04 Created by KiCad (PCBNEW (6.0.8-1)-1) date 2023-04-27 22:08:13*
%MOMM*%
%LPD*%
G01*
G04 APERTURE LIST*
%ADD10C,0.100000*%
%ADD11C,0.200000*%
G04 APERTURE END LIST*
D10*
X12000000Y-4700000D02*
G75*
G03*
X11500000Y-5200000I0J-500000D01*
G01*
X18500000Y-5200000D02*
X18500000Y-10600000D01*
X11500000Y-10600000D02*
X11500000Y-5200000D01*
X12000000Y-4700000D02*
X18000000Y-4700000D01*
X11500000Y-10600000D02*
G75*
G03*
X12000000Y-11100000I500000J0D01*
G01*
X18000000Y-11100000D02*
X12000000Y-11100000D01*
X18500000Y-5200000D02*
G75*
G03*
X18000000Y-4700000I-500000J0D01*
G01*
X18000000Y-11100000D02*
G75*
G03*
X18500000Y-10600000I0J500000D01*
G01*
D11*
X11740000Y-7420000D02*
X11940000Y-7620000D01*
X11940000Y-7420000D02*
X11740000Y-7620000D01*
X11740000Y-7480000D02*
X11740000Y-7560000D01*
X11940000Y-7480000D02*
X11940000Y-7560000D01*
X11740000Y-7560000D02*
G75*
G03*
X11940000Y-7560000I100000J0D01*
G01*
X11940000Y-7480000D02*
G75*
G03*
X11740000Y-7480000I-100000J0D01*
G01*
X11740000Y-8420000D02*
X11940000Y-8620000D01*
X11940000Y-8420000D02*
X11740000Y-8620000D01*
X11740000Y-8480000D02*
X11740000Y-8560000D01*
X11940000Y-8480000D02*
X11940000Y-8560000D01*
X11740000Y-8560000D02*
G75*
G03*
X11940000Y-8560000I100000J0D01*
G01*
X11940000Y-8480000D02*
G75*
G03*
X11740000Y-8480000I-100000J0D01*
G01*
X18060000Y-7500000D02*
X18260000Y-7700000D01*
X18260000Y-7500000D02*
X18060000Y-7700000D01*
X18260000Y-7640000D02*
X18260000Y-7560000D01*
X18060000Y-7640000D02*
X18060000Y-7560000D01*
X18260000Y-7560000D02*
G75*
G03*
X18060000Y-7560000I-100000J0D01*
G01*
X18060000Y-7640000D02*
G75*
G03*
X18260000Y-7640000I100000J0D01*
G01*
X18065367Y-6091446D02*
X18265367Y-6291446D01*
X18265367Y-6091446D02*
X18065367Y-6291446D01*
X18265367Y-6231446D02*
X18265367Y-6151446D01*
X18065367Y-6231446D02*
X18065367Y-6151446D01*
X18265367Y-6151446D02*
G75*
G03*
X18065367Y-6151446I-100000J0D01*
G01*
X18065367Y-6231446D02*
G75*
G03*
X18265367Y-6231446I100000J0D01*
G01*
X18075601Y-9141199D02*
X18275601Y-9341199D01*
X18275601Y-9141199D02*
X18075601Y-9341199D01*
X18275601Y-9281199D02*
X18275601Y-9201199D01*
X18075601Y-9281199D02*
X18075601Y-9201199D01*
X18275601Y-9201199D02*
G75*
G03*
X18075601Y-9201199I-100000J0D01*
G01*
X18075601Y-9281199D02*
G75*
G03*
X18275601Y-9281199I100000J0D01*
G01*
X11752619Y-11415476D02*
X11752619Y-11215476D01*
X11800238Y-11215476D01*
X11828809Y-11225000D01*
X11847857Y-11244048D01*
X11857381Y-11263095D01*
X11866905Y-11301190D01*
X11866905Y-11329762D01*
X11857381Y-11367857D01*
X11847857Y-11386905D01*
X11828809Y-11405952D01*
X11800238Y-11415476D01*
X11752619Y-11415476D01*
X11952619Y-11415476D02*
X11952619Y-11282143D01*
X11952619Y-11320238D02*
X11962143Y-11301190D01*
X11971667Y-11291667D01*
X11990714Y-11282143D01*
X12009762Y-11282143D01*
X12076428Y-11415476D02*
X12076428Y-11282143D01*
X12076428Y-11215476D02*
X12066905Y-11225000D01*
X12076428Y-11234524D01*
X12085952Y-11225000D01*
X12076428Y-11215476D01*
X12076428Y-11234524D01*
X12200238Y-11415476D02*
X12181190Y-11405952D01*
X12171667Y-11386905D01*
X12171667Y-11215476D01*
X12305000Y-11415476D02*
X12285952Y-11405952D01*
X12276428Y-11386905D01*
X12276428Y-11215476D01*
X12533571Y-11415476D02*
X12533571Y-11215476D01*
X12600238Y-11358333D01*
X12666905Y-11215476D01*
X12666905Y-11415476D01*
X12847857Y-11415476D02*
X12847857Y-11310714D01*
X12838333Y-11291667D01*
X12819286Y-11282143D01*
X12781190Y-11282143D01*
X12762143Y-11291667D01*
X12847857Y-11405952D02*
X12828809Y-11415476D01*
X12781190Y-11415476D01*
X12762143Y-11405952D01*
X12752619Y-11386905D01*
X12752619Y-11367857D01*
X12762143Y-11348809D01*
X12781190Y-11339286D01*
X12828809Y-11339286D01*
X12847857Y-11329762D01*
X12943095Y-11282143D02*
X12943095Y-11482143D01*
X12943095Y-11291667D02*
X12962143Y-11282143D01*
X13000238Y-11282143D01*
X13019286Y-11291667D01*
X13028809Y-11301190D01*
X13038333Y-11320238D01*
X13038333Y-11377381D01*
X13028809Y-11396428D01*
X13019286Y-11405952D01*
X13000238Y-11415476D01*
X12962143Y-11415476D01*
X12943095Y-11405952D01*
X13124048Y-11396428D02*
X13133571Y-11405952D01*
X13124048Y-11415476D01*
X13114524Y-11405952D01*
X13124048Y-11396428D01*
X13124048Y-11415476D01*
X13124048Y-11291667D02*
X13133571Y-11301190D01*
X13124048Y-11310714D01*
X13114524Y-11301190D01*
X13124048Y-11291667D01*
X13124048Y-11310714D01*
X11295000Y-11645000D02*
X11495000Y-11845000D01*
X11495000Y-11645000D02*
X11295000Y-11845000D01*
X11743095Y-11654524D02*
X11752619Y-11645000D01*
X11771667Y-11635476D01*
X11819286Y-11635476D01*
X11838333Y-11645000D01*
X11847857Y-11654524D01*
X11857381Y-11673571D01*
X11857381Y-11692619D01*
X11847857Y-11721190D01*
X11733571Y-11835476D01*
X11857381Y-11835476D01*
X11943095Y-11816428D02*
X11952619Y-11825952D01*
X11943095Y-11835476D01*
X11933571Y-11825952D01*
X11943095Y-11816428D01*
X11943095Y-11835476D01*
X12076428Y-11635476D02*
X12095476Y-11635476D01*
X12114524Y-11645000D01*
X12124048Y-11654524D01*
X12133571Y-11673571D01*
X12143095Y-11711667D01*
X12143095Y-11759286D01*
X12133571Y-11797381D01*
X12124048Y-11816428D01*
X12114524Y-11825952D01*
X12095476Y-11835476D01*
X12076428Y-11835476D01*
X12057381Y-11825952D01*
X12047857Y-11816428D01*
X12038333Y-11797381D01*
X12028809Y-11759286D01*
X12028809Y-11711667D01*
X12038333Y-11673571D01*
X12047857Y-11654524D01*
X12057381Y-11645000D01*
X12076428Y-11635476D01*
X12266905Y-11635476D02*
X12285952Y-11635476D01*
X12305000Y-11645000D01*
X12314524Y-11654524D01*
X12324048Y-11673571D01*
X12333571Y-11711667D01*
X12333571Y-11759286D01*
X12324048Y-11797381D01*
X12314524Y-11816428D01*
X12305000Y-11825952D01*
X12285952Y-11835476D01*
X12266905Y-11835476D01*
X12247857Y-11825952D01*
X12238333Y-11816428D01*
X12228809Y-11797381D01*
X12219286Y-11759286D01*
X12219286Y-11711667D01*
X12228809Y-11673571D01*
X12238333Y-11654524D01*
X12247857Y-11645000D01*
X12266905Y-11635476D01*
X12457381Y-11635476D02*
X12476428Y-11635476D01*
X12495476Y-11645000D01*
X12505000Y-11654524D01*
X12514524Y-11673571D01*
X12524048Y-11711667D01*
X12524048Y-11759286D01*
X12514524Y-11797381D01*
X12505000Y-11816428D01*
X12495476Y-11825952D01*
X12476428Y-11835476D01*
X12457381Y-11835476D01*
X12438333Y-11825952D01*
X12428809Y-11816428D01*
X12419286Y-11797381D01*
X12409762Y-11759286D01*
X12409762Y-11711667D01*
X12419286Y-11673571D01*
X12428809Y-11654524D01*
X12438333Y-11645000D01*
X12457381Y-11635476D01*
X12609762Y-11835476D02*
X12609762Y-11702143D01*
X12609762Y-11721190D02*
X12619286Y-11711667D01*
X12638333Y-11702143D01*
X12666905Y-11702143D01*
X12685952Y-11711667D01*
X12695476Y-11730714D01*
X12695476Y-11835476D01*
X12695476Y-11730714D02*
X12705000Y-11711667D01*
X12724048Y-11702143D01*
X12752619Y-11702143D01*
X12771667Y-11711667D01*
X12781190Y-11730714D01*
X12781190Y-11835476D01*
X12876428Y-11835476D02*
X12876428Y-11702143D01*
X12876428Y-11721190D02*
X12885952Y-11711667D01*
X12905000Y-11702143D01*
X12933571Y-11702143D01*
X12952619Y-11711667D01*
X12962143Y-11730714D01*
X12962143Y-11835476D01*
X12962143Y-11730714D02*
X12971667Y-11711667D01*
X12990714Y-11702143D01*
X13019286Y-11702143D01*
X13038333Y-11711667D01*
X13047857Y-11730714D01*
X13047857Y-11835476D01*
X13438333Y-11625952D02*
X13266905Y-11883095D01*
X13695476Y-11635476D02*
X13714524Y-11635476D01*
X13733571Y-11645000D01*
X13743095Y-11654524D01*
X13752619Y-11673571D01*
X13762143Y-11711667D01*
X13762143Y-11759286D01*
X13752619Y-11797381D01*
X13743095Y-11816428D01*
X13733571Y-11825952D01*
X13714524Y-11835476D01*
X13695476Y-11835476D01*
X13676428Y-11825952D01*
X13666905Y-11816428D01*
X13657381Y-11797381D01*
X13647857Y-11759286D01*
X13647857Y-11711667D01*
X13657381Y-11673571D01*
X13666905Y-11654524D01*
X13676428Y-11645000D01*
X13695476Y-11635476D01*
X13847857Y-11816428D02*
X13857381Y-11825952D01*
X13847857Y-11835476D01*
X13838333Y-11825952D01*
X13847857Y-11816428D01*
X13847857Y-11835476D01*
X13981190Y-11635476D02*
X14000238Y-11635476D01*
X14019286Y-11645000D01*
X14028809Y-11654524D01*
X14038333Y-11673571D01*
X14047857Y-11711667D01*
X14047857Y-11759286D01*
X14038333Y-11797381D01*
X14028809Y-11816428D01*
X14019286Y-11825952D01*
X14000238Y-11835476D01*
X13981190Y-11835476D01*
X13962143Y-11825952D01*
X13952619Y-11816428D01*
X13943095Y-11797381D01*
X13933571Y-11759286D01*
X13933571Y-11711667D01*
X13943095Y-11673571D01*
X13952619Y-11654524D01*
X13962143Y-11645000D01*
X13981190Y-11635476D01*
X14114524Y-11635476D02*
X14247857Y-11635476D01*
X14162143Y-11835476D01*
X14352619Y-11721190D02*
X14333571Y-11711667D01*
X14324048Y-11702143D01*
X14314524Y-11683095D01*
X14314524Y-11673571D01*
X14324048Y-11654524D01*
X14333571Y-11645000D01*
X14352619Y-11635476D01*
X14390714Y-11635476D01*
X14409762Y-11645000D01*
X14419286Y-11654524D01*
X14428809Y-11673571D01*
X14428809Y-11683095D01*
X14419286Y-11702143D01*
X14409762Y-11711667D01*
X14390714Y-11721190D01*
X14352619Y-11721190D01*
X14333571Y-11730714D01*
X14324048Y-11740238D01*
X14314524Y-11759286D01*
X14314524Y-11797381D01*
X14324048Y-11816428D01*
X14333571Y-11825952D01*
X14352619Y-11835476D01*
X14390714Y-11835476D01*
X14409762Y-11825952D01*
X14419286Y-11816428D01*
X14428809Y-11797381D01*
X14428809Y-11759286D01*
X14419286Y-11740238D01*
X14409762Y-11730714D01*
X14390714Y-11721190D01*
X14495476Y-11635476D02*
X14628809Y-11635476D01*
X14543095Y-11835476D01*
X14695476Y-11635476D02*
X14695476Y-11673571D01*
X14771667Y-11635476D02*
X14771667Y-11673571D01*
X15066905Y-11911667D02*
X15057381Y-11902143D01*
X15038333Y-11873571D01*
X15028809Y-11854524D01*
X15019286Y-11825952D01*
X15009762Y-11778333D01*
X15009762Y-11740238D01*
X15019286Y-11692619D01*
X15028809Y-11664048D01*
X15038333Y-11645000D01*
X15057381Y-11616428D01*
X15066905Y-11606905D01*
X15181190Y-11635476D02*
X15200238Y-11635476D01*
X15219286Y-11645000D01*
X15228809Y-11654524D01*
X15238333Y-11673571D01*
X15247857Y-11711667D01*
X15247857Y-11759286D01*
X15238333Y-11797381D01*
X15228809Y-11816428D01*
X15219286Y-11825952D01*
X15200238Y-11835476D01*
X15181190Y-11835476D01*
X15162143Y-11825952D01*
X15152619Y-11816428D01*
X15143095Y-11797381D01*
X15133571Y-11759286D01*
X15133571Y-11711667D01*
X15143095Y-11673571D01*
X15152619Y-11654524D01*
X15162143Y-11645000D01*
X15181190Y-11635476D01*
X15485952Y-11835476D02*
X15485952Y-11635476D01*
X15571667Y-11835476D02*
X15571667Y-11730714D01*
X15562143Y-11711667D01*
X15543095Y-11702143D01*
X15514524Y-11702143D01*
X15495476Y-11711667D01*
X15485952Y-11721190D01*
X15695476Y-11835476D02*
X15676428Y-11825952D01*
X15666905Y-11816428D01*
X15657381Y-11797381D01*
X15657381Y-11740238D01*
X15666905Y-11721190D01*
X15676428Y-11711667D01*
X15695476Y-11702143D01*
X15724048Y-11702143D01*
X15743095Y-11711667D01*
X15752619Y-11721190D01*
X15762143Y-11740238D01*
X15762143Y-11797381D01*
X15752619Y-11816428D01*
X15743095Y-11825952D01*
X15724048Y-11835476D01*
X15695476Y-11835476D01*
X15876428Y-11835476D02*
X15857381Y-11825952D01*
X15847857Y-11806905D01*
X15847857Y-11635476D01*
X16028809Y-11825952D02*
X16009762Y-11835476D01*
X15971667Y-11835476D01*
X15952619Y-11825952D01*
X15943095Y-11806905D01*
X15943095Y-11730714D01*
X15952619Y-11711667D01*
X15971667Y-11702143D01*
X16009762Y-11702143D01*
X16028809Y-11711667D01*
X16038333Y-11730714D01*
X16038333Y-11749762D01*
X15943095Y-11768809D01*
X16114524Y-11825952D02*
X16133571Y-11835476D01*
X16171667Y-11835476D01*
X16190714Y-11825952D01*
X16200238Y-11806905D01*
X16200238Y-11797381D01*
X16190714Y-11778333D01*
X16171667Y-11768809D01*
X16143095Y-11768809D01*
X16124048Y-11759286D01*
X16114524Y-11740238D01*
X16114524Y-11730714D01*
X16124048Y-11711667D01*
X16143095Y-11702143D01*
X16171667Y-11702143D01*
X16190714Y-11711667D01*
X16438333Y-11759286D02*
X16590714Y-11759286D01*
X16514524Y-11835476D02*
X16514524Y-11683095D01*
X16933571Y-11635476D02*
X16838333Y-11635476D01*
X16828810Y-11730714D01*
X16838333Y-11721190D01*
X16857381Y-11711667D01*
X16905000Y-11711667D01*
X16924048Y-11721190D01*
X16933571Y-11730714D01*
X16943095Y-11749762D01*
X16943095Y-11797381D01*
X16933571Y-11816428D01*
X16924048Y-11825952D01*
X16905000Y-11835476D01*
X16857381Y-11835476D01*
X16838333Y-11825952D01*
X16828810Y-11816428D01*
X17171667Y-11825952D02*
X17190714Y-11835476D01*
X17228810Y-11835476D01*
X17247857Y-11825952D01*
X17257381Y-11806905D01*
X17257381Y-11797381D01*
X17247857Y-11778333D01*
X17228810Y-11768809D01*
X17200238Y-11768809D01*
X17181190Y-11759286D01*
X17171667Y-11740238D01*
X17171667Y-11730714D01*
X17181190Y-11711667D01*
X17200238Y-11702143D01*
X17228810Y-11702143D01*
X17247857Y-11711667D01*
X17371667Y-11835476D02*
X17352619Y-11825952D01*
X17343095Y-11806905D01*
X17343095Y-11635476D01*
X17476429Y-11835476D02*
X17457381Y-11825952D01*
X17447857Y-11816428D01*
X17438333Y-11797381D01*
X17438333Y-11740238D01*
X17447857Y-11721190D01*
X17457381Y-11711667D01*
X17476429Y-11702143D01*
X17505000Y-11702143D01*
X17524048Y-11711667D01*
X17533571Y-11721190D01*
X17543095Y-11740238D01*
X17543095Y-11797381D01*
X17533571Y-11816428D01*
X17524048Y-11825952D01*
X17505000Y-11835476D01*
X17476429Y-11835476D01*
X17600238Y-11702143D02*
X17676429Y-11702143D01*
X17628810Y-11635476D02*
X17628810Y-11806905D01*
X17638333Y-11825952D01*
X17657381Y-11835476D01*
X17676429Y-11835476D01*
X17733571Y-11825952D02*
X17752619Y-11835476D01*
X17790714Y-11835476D01*
X17809762Y-11825952D01*
X17819286Y-11806905D01*
X17819286Y-11797381D01*
X17809762Y-11778333D01*
X17790714Y-11768809D01*
X17762143Y-11768809D01*
X17743095Y-11759286D01*
X17733571Y-11740238D01*
X17733571Y-11730714D01*
X17743095Y-11711667D01*
X17762143Y-11702143D01*
X17790714Y-11702143D01*
X17809762Y-11711667D01*
X17885952Y-11911667D02*
X17895476Y-11902143D01*
X17914524Y-11873571D01*
X17924048Y-11854524D01*
X17933571Y-11825952D01*
X17943095Y-11778333D01*
X17943095Y-11740238D01*
X17933571Y-11692619D01*
X17924048Y-11664048D01*
X17914524Y-11645000D01*
X17895476Y-11616428D01*
X17885952Y-11606905D01*
X18247857Y-11911667D02*
X18238333Y-11902143D01*
X18219286Y-11873571D01*
X18209762Y-11854524D01*
X18200238Y-11825952D01*
X18190714Y-11778333D01*
X18190714Y-11740238D01*
X18200238Y-11692619D01*
X18209762Y-11664048D01*
X18219286Y-11645000D01*
X18238333Y-11616428D01*
X18247857Y-11606905D01*
X18324048Y-11702143D02*
X18324048Y-11835476D01*
X18324048Y-11721190D02*
X18333571Y-11711667D01*
X18352619Y-11702143D01*
X18381190Y-11702143D01*
X18400238Y-11711667D01*
X18409762Y-11730714D01*
X18409762Y-11835476D01*
X18533571Y-11835476D02*
X18514524Y-11825952D01*
X18505000Y-11816428D01*
X18495476Y-11797381D01*
X18495476Y-11740238D01*
X18505000Y-11721190D01*
X18514524Y-11711667D01*
X18533571Y-11702143D01*
X18562143Y-11702143D01*
X18581190Y-11711667D01*
X18590714Y-11721190D01*
X18600238Y-11740238D01*
X18600238Y-11797381D01*
X18590714Y-11816428D01*
X18581190Y-11825952D01*
X18562143Y-11835476D01*
X18533571Y-11835476D01*
X18657381Y-11702143D02*
X18733571Y-11702143D01*
X18685952Y-11635476D02*
X18685952Y-11806905D01*
X18695476Y-11825952D01*
X18714524Y-11835476D01*
X18733571Y-11835476D01*
X18952619Y-11702143D02*
X18952619Y-11902143D01*
X18952619Y-11711667D02*
X18971667Y-11702143D01*
X19009762Y-11702143D01*
X19028810Y-11711667D01*
X19038333Y-11721190D01*
X19047857Y-11740238D01*
X19047857Y-11797381D01*
X19038333Y-11816428D01*
X19028810Y-11825952D01*
X19009762Y-11835476D01*
X18971667Y-11835476D01*
X18952619Y-11825952D01*
X19162143Y-11835476D02*
X19143095Y-11825952D01*
X19133571Y-11806905D01*
X19133571Y-11635476D01*
X19324048Y-11835476D02*
X19324048Y-11730714D01*
X19314524Y-11711667D01*
X19295476Y-11702143D01*
X19257381Y-11702143D01*
X19238333Y-11711667D01*
X19324048Y-11825952D02*
X19305000Y-11835476D01*
X19257381Y-11835476D01*
X19238333Y-11825952D01*
X19228810Y-11806905D01*
X19228810Y-11787857D01*
X19238333Y-11768809D01*
X19257381Y-11759286D01*
X19305000Y-11759286D01*
X19324048Y-11749762D01*
X19390714Y-11702143D02*
X19466905Y-11702143D01*
X19419286Y-11635476D02*
X19419286Y-11806905D01*
X19428810Y-11825952D01*
X19447857Y-11835476D01*
X19466905Y-11835476D01*
X19609762Y-11825952D02*
X19590714Y-11835476D01*
X19552619Y-11835476D01*
X19533571Y-11825952D01*
X19524048Y-11806905D01*
X19524048Y-11730714D01*
X19533571Y-11711667D01*
X19552619Y-11702143D01*
X19590714Y-11702143D01*
X19609762Y-11711667D01*
X19619286Y-11730714D01*
X19619286Y-11749762D01*
X19524048Y-11768809D01*
X19790714Y-11835476D02*
X19790714Y-11635476D01*
X19790714Y-11825952D02*
X19771667Y-11835476D01*
X19733571Y-11835476D01*
X19714524Y-11825952D01*
X19705000Y-11816428D01*
X19695476Y-11797381D01*
X19695476Y-11740238D01*
X19705000Y-11721190D01*
X19714524Y-11711667D01*
X19733571Y-11702143D01*
X19771667Y-11702143D01*
X19790714Y-11711667D01*
X19866905Y-11911667D02*
X19876429Y-11902143D01*
X19895476Y-11873571D01*
X19905000Y-11854524D01*
X19914524Y-11825952D01*
X19924048Y-11778333D01*
X19924048Y-11740238D01*
X19914524Y-11692619D01*
X19905000Y-11664048D01*
X19895476Y-11645000D01*
X19876429Y-11616428D01*
X19866905Y-11606905D01*
M02*
