G04 #@! TF.GenerationSoftware,KiCad,Pcbnew,(6.0.8-1)-1*
G04 #@! TF.CreationDate,2023-04-27T22:08:01+09:00*
G04 #@! TF.ProjectId,ikako_f303,696b616b-6f5f-4663-9330-332e6b696361,rev?*
G04 #@! TF.SameCoordinates,Original*
G04 #@! TF.FileFunction,Legend,Top*
G04 #@! TF.FilePolarity,Positive*
%FSLAX46Y46*%
G04 Gerber Fmt 4.6, Leading zero omitted, Abs format (unit mm)*
G04 Created by KiCad (PCBNEW (6.0.8-1)-1) date 2023-04-27 22:08:01*
%MOMM*%
%LPD*%
G01*
G04 APERTURE LIST*
G04 Aperture macros list*
%AMRoundRect*
0 Rectangle with rounded corners*
0 $1 Rounding radius*
0 $2 $3 $4 $5 $6 $7 $8 $9 X,Y pos of 4 corners*
0 Add a 4 corners polygon primitive as box body*
4,1,4,$2,$3,$4,$5,$6,$7,$8,$9,$2,$3,0*
0 Add four circle primitives for the rounded corners*
1,1,$1+$1,$2,$3*
1,1,$1+$1,$4,$5*
1,1,$1+$1,$6,$7*
1,1,$1+$1,$8,$9*
0 Add four rect primitives between the rounded corners*
20,1,$1+$1,$2,$3,$4,$5,0*
20,1,$1+$1,$4,$5,$6,$7,0*
20,1,$1+$1,$6,$7,$8,$9,0*
20,1,$1+$1,$8,$9,$2,$3,0*%
G04 Aperture macros list end*
%ADD10C,0.150000*%
%ADD11C,0.300000*%
%ADD12C,0.120000*%
%ADD13RoundRect,0.250000X-0.450000X0.350000X-0.450000X-0.350000X0.450000X-0.350000X0.450000X0.350000X0*%
%ADD14RoundRect,0.250000X0.337500X0.475000X-0.337500X0.475000X-0.337500X-0.475000X0.337500X-0.475000X0*%
%ADD15C,1.500000*%
%ADD16RoundRect,0.237500X0.237500X-0.287500X0.237500X0.287500X-0.237500X0.287500X-0.237500X-0.287500X0*%
%ADD17C,2.000000*%
%ADD18C,0.800000*%
%ADD19C,6.400000*%
%ADD20RoundRect,0.208750X0.208750X0.431250X-0.208750X0.431250X-0.208750X-0.431250X0.208750X-0.431250X0*%
%ADD21R,1.700000X1.700000*%
%ADD22O,1.700000X1.700000*%
%ADD23RoundRect,0.237500X-0.287500X-0.237500X0.287500X-0.237500X0.287500X0.237500X-0.287500X0.237500X0*%
%ADD24RoundRect,0.250000X-0.350000X-0.450000X0.350000X-0.450000X0.350000X0.450000X-0.350000X0.450000X0*%
%ADD25RoundRect,0.250000X0.350000X0.450000X-0.350000X0.450000X-0.350000X-0.450000X0.350000X-0.450000X0*%
%ADD26R,1.600000X1.600000*%
%ADD27O,1.600000X1.600000*%
%ADD28O,2.000000X2.800000*%
%ADD29RoundRect,0.250000X0.725000X-0.600000X0.725000X0.600000X-0.725000X0.600000X-0.725000X-0.600000X0*%
%ADD30O,1.950000X1.700000*%
%ADD31RoundRect,0.125000X-0.625000X-0.125000X0.625000X-0.125000X0.625000X0.125000X-0.625000X0.125000X0*%
%ADD32RoundRect,0.125000X-0.125000X-0.625000X0.125000X-0.625000X0.125000X0.625000X-0.125000X0.625000X0*%
%ADD33RoundRect,0.250000X-0.725000X0.600000X-0.725000X-0.600000X0.725000X-0.600000X0.725000X0.600000X0*%
%ADD34RoundRect,0.208750X-0.431250X0.208750X-0.431250X-0.208750X0.431250X-0.208750X0.431250X0.208750X0*%
G04 APERTURE END LIST*
D10*
X120095238Y-60452380D02*
X119523809Y-60452380D01*
X119809523Y-60452380D02*
X119809523Y-59452380D01*
X119714285Y-59595238D01*
X119619047Y-59690476D01*
X119523809Y-59738095D01*
X120523809Y-60357142D02*
X120571428Y-60404761D01*
X120523809Y-60452380D01*
X120476190Y-60404761D01*
X120523809Y-60357142D01*
X120523809Y-60452380D01*
X121476190Y-59452380D02*
X121000000Y-59452380D01*
X120952380Y-59928571D01*
X121000000Y-59880952D01*
X121095238Y-59833333D01*
X121333333Y-59833333D01*
X121428571Y-59880952D01*
X121476190Y-59928571D01*
X121523809Y-60023809D01*
X121523809Y-60261904D01*
X121476190Y-60357142D01*
X121428571Y-60404761D01*
X121333333Y-60452380D01*
X121095238Y-60452380D01*
X121000000Y-60404761D01*
X120952380Y-60357142D01*
X121952380Y-60452380D02*
X121952380Y-59452380D01*
X122047619Y-60071428D02*
X122333333Y-60452380D01*
X122333333Y-59785714D02*
X121952380Y-60166666D01*
X122714285Y-60452380D02*
X122952380Y-60452380D01*
X122952380Y-60261904D01*
X122857142Y-60214285D01*
X122761904Y-60119047D01*
X122714285Y-59976190D01*
X122714285Y-59738095D01*
X122761904Y-59595238D01*
X122857142Y-59500000D01*
X123000000Y-59452380D01*
X123190476Y-59452380D01*
X123333333Y-59500000D01*
X123428571Y-59595238D01*
X123476190Y-59738095D01*
X123476190Y-59976190D01*
X123428571Y-60119047D01*
X123333333Y-60214285D01*
X123238095Y-60261904D01*
X123238095Y-60452380D01*
X123476190Y-60452380D01*
X171238095Y-76500000D02*
X171142857Y-76452380D01*
X171000000Y-76452380D01*
X170857142Y-76500000D01*
X170761904Y-76595238D01*
X170714285Y-76690476D01*
X170666666Y-76880952D01*
X170666666Y-77023809D01*
X170714285Y-77214285D01*
X170761904Y-77309523D01*
X170857142Y-77404761D01*
X171000000Y-77452380D01*
X171095238Y-77452380D01*
X171238095Y-77404761D01*
X171285714Y-77357142D01*
X171285714Y-77023809D01*
X171095238Y-77023809D01*
X171714285Y-77452380D02*
X171714285Y-76452380D01*
X172285714Y-77452380D01*
X172285714Y-76452380D01*
X172761904Y-77452380D02*
X172761904Y-76452380D01*
X173000000Y-76452380D01*
X173142857Y-76500000D01*
X173238095Y-76595238D01*
X173285714Y-76690476D01*
X173333333Y-76880952D01*
X173333333Y-77023809D01*
X173285714Y-77214285D01*
X173238095Y-77309523D01*
X173142857Y-77404761D01*
X173000000Y-77452380D01*
X172761904Y-77452380D01*
X127666666Y-53404761D02*
X127809523Y-53452380D01*
X128047619Y-53452380D01*
X128142857Y-53404761D01*
X128190476Y-53357142D01*
X128238095Y-53261904D01*
X128238095Y-53166666D01*
X128190476Y-53071428D01*
X128142857Y-53023809D01*
X128047619Y-52976190D01*
X127857142Y-52928571D01*
X127761904Y-52880952D01*
X127714285Y-52833333D01*
X127666666Y-52738095D01*
X127666666Y-52642857D01*
X127714285Y-52547619D01*
X127761904Y-52500000D01*
X127857142Y-52452380D01*
X128095238Y-52452380D01*
X128238095Y-52500000D01*
X128571428Y-52452380D02*
X128809523Y-53452380D01*
X129000000Y-52738095D01*
X129190476Y-53452380D01*
X129428571Y-52452380D01*
X129761904Y-52547619D02*
X129809523Y-52500000D01*
X129904761Y-52452380D01*
X130142857Y-52452380D01*
X130238095Y-52500000D01*
X130285714Y-52547619D01*
X130333333Y-52642857D01*
X130333333Y-52738095D01*
X130285714Y-52880952D01*
X129714285Y-53452380D01*
X130333333Y-53452380D01*
X142452380Y-51452380D02*
X142452380Y-50452380D01*
X142833333Y-50452380D01*
X142928571Y-50500000D01*
X142976190Y-50547619D01*
X143023809Y-50642857D01*
X143023809Y-50785714D01*
X142976190Y-50880952D01*
X142928571Y-50928571D01*
X142833333Y-50976190D01*
X142452380Y-50976190D01*
X143404761Y-51166666D02*
X143880952Y-51166666D01*
X143309523Y-51452380D02*
X143642857Y-50452380D01*
X143976190Y-51452380D01*
X144071428Y-51547619D02*
X144833333Y-51547619D01*
X145261904Y-50452380D02*
X145357142Y-50452380D01*
X145452380Y-50500000D01*
X145500000Y-50547619D01*
X145547619Y-50642857D01*
X145595238Y-50833333D01*
X145595238Y-51071428D01*
X145547619Y-51261904D01*
X145500000Y-51357142D01*
X145452380Y-51404761D01*
X145357142Y-51452380D01*
X145261904Y-51452380D01*
X145166666Y-51404761D01*
X145119047Y-51357142D01*
X145071428Y-51261904D01*
X145023809Y-51071428D01*
X145023809Y-50833333D01*
X145071428Y-50642857D01*
X145119047Y-50547619D01*
X145166666Y-50500000D01*
X145261904Y-50452380D01*
X165452380Y-98571428D02*
X164452380Y-98571428D01*
X165166666Y-98238095D01*
X164452380Y-97904761D01*
X165452380Y-97904761D01*
X165452380Y-97428571D02*
X164452380Y-97428571D01*
X165404761Y-97000000D02*
X165452380Y-96857142D01*
X165452380Y-96619047D01*
X165404761Y-96523809D01*
X165357142Y-96476190D01*
X165261904Y-96428571D01*
X165166666Y-96428571D01*
X165071428Y-96476190D01*
X165023809Y-96523809D01*
X164976190Y-96619047D01*
X164928571Y-96809523D01*
X164880952Y-96904761D01*
X164833333Y-96952380D01*
X164738095Y-97000000D01*
X164642857Y-97000000D01*
X164547619Y-96952380D01*
X164500000Y-96904761D01*
X164452380Y-96809523D01*
X164452380Y-96571428D01*
X164500000Y-96428571D01*
X164452380Y-95809523D02*
X164452380Y-95619047D01*
X164500000Y-95523809D01*
X164595238Y-95428571D01*
X164785714Y-95380952D01*
X165119047Y-95380952D01*
X165309523Y-95428571D01*
X165404761Y-95523809D01*
X165452380Y-95619047D01*
X165452380Y-95809523D01*
X165404761Y-95904761D01*
X165309523Y-96000000D01*
X165119047Y-96047619D01*
X164785714Y-96047619D01*
X164595238Y-96000000D01*
X164500000Y-95904761D01*
X164452380Y-95809523D01*
X141809523Y-55952380D02*
X141333333Y-55952380D01*
X141333333Y-54952380D01*
X142714285Y-55857142D02*
X142666666Y-55904761D01*
X142523809Y-55952380D01*
X142428571Y-55952380D01*
X142285714Y-55904761D01*
X142190476Y-55809523D01*
X142142857Y-55714285D01*
X142095238Y-55523809D01*
X142095238Y-55380952D01*
X142142857Y-55190476D01*
X142190476Y-55095238D01*
X142285714Y-55000000D01*
X142428571Y-54952380D01*
X142523809Y-54952380D01*
X142666666Y-55000000D01*
X142714285Y-55047619D01*
X143142857Y-55952380D02*
X143142857Y-54952380D01*
X143380952Y-54952380D01*
X143523809Y-55000000D01*
X143619047Y-55095238D01*
X143666666Y-55190476D01*
X143714285Y-55380952D01*
X143714285Y-55523809D01*
X143666666Y-55714285D01*
X143619047Y-55809523D01*
X143523809Y-55904761D01*
X143380952Y-55952380D01*
X143142857Y-55952380D01*
X169095238Y-63357142D02*
X169047619Y-63404761D01*
X168904761Y-63452380D01*
X168809523Y-63452380D01*
X168666666Y-63404761D01*
X168571428Y-63309523D01*
X168523809Y-63214285D01*
X168476190Y-63023809D01*
X168476190Y-62880952D01*
X168523809Y-62690476D01*
X168571428Y-62595238D01*
X168666666Y-62500000D01*
X168809523Y-62452380D01*
X168904761Y-62452380D01*
X169047619Y-62500000D01*
X169095238Y-62547619D01*
X169476190Y-63166666D02*
X169952380Y-63166666D01*
X169380952Y-63452380D02*
X169714285Y-62452380D01*
X170047619Y-63452380D01*
X170380952Y-63452380D02*
X170380952Y-62452380D01*
X170952380Y-63452380D01*
X170952380Y-62452380D01*
X171190476Y-63547619D02*
X171952380Y-63547619D01*
X172047619Y-62452380D02*
X172619047Y-62452380D01*
X172333333Y-63452380D02*
X172333333Y-62452380D01*
X172952380Y-63452380D02*
X172952380Y-62452380D01*
X173190476Y-62452380D01*
X173333333Y-62500000D01*
X173428571Y-62595238D01*
X173476190Y-62690476D01*
X173523809Y-62880952D01*
X173523809Y-63023809D01*
X173476190Y-63214285D01*
X173428571Y-63309523D01*
X173333333Y-63404761D01*
X173190476Y-63452380D01*
X172952380Y-63452380D01*
X145238095Y-79547619D02*
X145285714Y-79500000D01*
X145380952Y-79452380D01*
X145619047Y-79452380D01*
X145714285Y-79500000D01*
X145761904Y-79547619D01*
X145809523Y-79642857D01*
X145809523Y-79738095D01*
X145761904Y-79880952D01*
X145190476Y-80452380D01*
X145809523Y-80452380D01*
X146238095Y-80452380D02*
X146238095Y-79452380D01*
X146333333Y-80071428D02*
X146619047Y-80452380D01*
X146619047Y-79785714D02*
X146238095Y-80166666D01*
X147000000Y-80452380D02*
X147238095Y-80452380D01*
X147238095Y-80261904D01*
X147142857Y-80214285D01*
X147047619Y-80119047D01*
X147000000Y-79976190D01*
X147000000Y-79738095D01*
X147047619Y-79595238D01*
X147142857Y-79500000D01*
X147285714Y-79452380D01*
X147476190Y-79452380D01*
X147619047Y-79500000D01*
X147714285Y-79595238D01*
X147761904Y-79738095D01*
X147761904Y-79976190D01*
X147714285Y-80119047D01*
X147619047Y-80214285D01*
X147523809Y-80261904D01*
X147523809Y-80452380D01*
X147761904Y-80452380D01*
X134380952Y-74595238D02*
X134333333Y-74690476D01*
X134285714Y-74738095D01*
X134190476Y-74785714D01*
X134142857Y-74785714D01*
X134047619Y-74738095D01*
X134000000Y-74690476D01*
X133952380Y-74595238D01*
X133952380Y-74404761D01*
X134000000Y-74309523D01*
X134047619Y-74261904D01*
X134142857Y-74214285D01*
X134190476Y-74214285D01*
X134285714Y-74261904D01*
X134333333Y-74309523D01*
X134380952Y-74404761D01*
X134380952Y-74595238D01*
X134428571Y-74690476D01*
X134476190Y-74738095D01*
X134571428Y-74785714D01*
X134761904Y-74785714D01*
X134857142Y-74738095D01*
X134904761Y-74690476D01*
X134952380Y-74595238D01*
X134952380Y-74404761D01*
X134904761Y-74309523D01*
X134857142Y-74261904D01*
X134761904Y-74214285D01*
X134571428Y-74214285D01*
X134476190Y-74261904D01*
X134428571Y-74309523D01*
X134380952Y-74404761D01*
X134952380Y-73785714D02*
X133952380Y-73785714D01*
X134666666Y-73452380D01*
X133952380Y-73119047D01*
X134952380Y-73119047D01*
X134952380Y-72642857D02*
X133952380Y-72642857D01*
X134428571Y-72642857D02*
X134428571Y-72071428D01*
X134952380Y-72071428D02*
X133952380Y-72071428D01*
X134285714Y-71690476D02*
X134285714Y-71166666D01*
X134952380Y-71690476D01*
X134952380Y-71166666D01*
X128071428Y-83714285D02*
X128071428Y-84047619D01*
X127547619Y-84190476D02*
X127547619Y-83714285D01*
X128547619Y-83714285D01*
X128547619Y-84190476D01*
X127547619Y-84619047D02*
X128547619Y-84619047D01*
X127833333Y-84952380D01*
X128547619Y-85285714D01*
X127547619Y-85285714D01*
X127642857Y-86333333D02*
X127595238Y-86285714D01*
X127547619Y-86142857D01*
X127547619Y-86047619D01*
X127595238Y-85904761D01*
X127690476Y-85809523D01*
X127785714Y-85761904D01*
X127976190Y-85714285D01*
X128119047Y-85714285D01*
X128309523Y-85761904D01*
X128404761Y-85809523D01*
X128500000Y-85904761D01*
X128547619Y-86047619D01*
X128547619Y-86142857D01*
X128500000Y-86285714D01*
X128452380Y-86333333D01*
X139261904Y-53452380D02*
X139261904Y-52452380D01*
X139500000Y-52452380D01*
X139642857Y-52500000D01*
X139738095Y-52595238D01*
X139785714Y-52690476D01*
X139833333Y-52880952D01*
X139833333Y-53023809D01*
X139785714Y-53214285D01*
X139738095Y-53309523D01*
X139642857Y-53404761D01*
X139500000Y-53452380D01*
X139261904Y-53452380D01*
X140690476Y-52785714D02*
X140690476Y-53452380D01*
X140452380Y-52404761D02*
X140214285Y-53119047D01*
X140833333Y-53119047D01*
X127714285Y-48928571D02*
X128047619Y-48928571D01*
X128190476Y-49452380D02*
X127714285Y-49452380D01*
X127714285Y-48452380D01*
X128190476Y-48452380D01*
X128619047Y-49452380D02*
X128619047Y-48452380D01*
X128952380Y-49166666D01*
X129285714Y-48452380D01*
X129285714Y-49452380D01*
X130333333Y-49357142D02*
X130285714Y-49404761D01*
X130142857Y-49452380D01*
X130047619Y-49452380D01*
X129904761Y-49404761D01*
X129809523Y-49309523D01*
X129761904Y-49214285D01*
X129714285Y-49023809D01*
X129714285Y-48880952D01*
X129761904Y-48690476D01*
X129809523Y-48595238D01*
X129904761Y-48500000D01*
X130047619Y-48452380D01*
X130142857Y-48452380D01*
X130285714Y-48500000D01*
X130333333Y-48547619D01*
X148809523Y-51404761D02*
X148952380Y-51452380D01*
X149190476Y-51452380D01*
X149285714Y-51404761D01*
X149333333Y-51357142D01*
X149380952Y-51261904D01*
X149380952Y-51166666D01*
X149333333Y-51071428D01*
X149285714Y-51023809D01*
X149190476Y-50976190D01*
X149000000Y-50928571D01*
X148904761Y-50880952D01*
X148857142Y-50833333D01*
X148809523Y-50738095D01*
X148809523Y-50642857D01*
X148857142Y-50547619D01*
X148904761Y-50500000D01*
X149000000Y-50452380D01*
X149238095Y-50452380D01*
X149380952Y-50500000D01*
X150380952Y-51357142D02*
X150333333Y-51404761D01*
X150190476Y-51452380D01*
X150095238Y-51452380D01*
X149952380Y-51404761D01*
X149857142Y-51309523D01*
X149809523Y-51214285D01*
X149761904Y-51023809D01*
X149761904Y-50880952D01*
X149809523Y-50690476D01*
X149857142Y-50595238D01*
X149952380Y-50500000D01*
X150095238Y-50452380D01*
X150190476Y-50452380D01*
X150333333Y-50500000D01*
X150380952Y-50547619D01*
X151285714Y-51452380D02*
X150809523Y-51452380D01*
X150809523Y-50452380D01*
X126809523Y-62452380D02*
X126333333Y-62452380D01*
X126285714Y-62928571D01*
X126333333Y-62880952D01*
X126428571Y-62833333D01*
X126666666Y-62833333D01*
X126761904Y-62880952D01*
X126809523Y-62928571D01*
X126857142Y-63023809D01*
X126857142Y-63261904D01*
X126809523Y-63357142D01*
X126761904Y-63404761D01*
X126666666Y-63452380D01*
X126428571Y-63452380D01*
X126333333Y-63404761D01*
X126285714Y-63357142D01*
X127142857Y-62452380D02*
X127476190Y-63452380D01*
X127809523Y-62452380D01*
X158809523Y-51452380D02*
X158809523Y-50452380D01*
X159142857Y-51166666D01*
X159476190Y-50452380D01*
X159476190Y-51452380D01*
X159952380Y-51452380D02*
X159952380Y-50452380D01*
X160190476Y-50452380D01*
X160333333Y-50500000D01*
X160428571Y-50595238D01*
X160476190Y-50690476D01*
X160523809Y-50880952D01*
X160523809Y-51023809D01*
X160476190Y-51214285D01*
X160428571Y-51309523D01*
X160333333Y-51404761D01*
X160190476Y-51452380D01*
X159952380Y-51452380D01*
X160714285Y-51547619D02*
X161476190Y-51547619D01*
X162285714Y-51452380D02*
X161952380Y-50976190D01*
X161714285Y-51452380D02*
X161714285Y-50452380D01*
X162095238Y-50452380D01*
X162190476Y-50500000D01*
X162238095Y-50547619D01*
X162285714Y-50642857D01*
X162285714Y-50785714D01*
X162238095Y-50880952D01*
X162190476Y-50928571D01*
X162095238Y-50976190D01*
X161714285Y-50976190D01*
X162619047Y-50452380D02*
X163285714Y-51452380D01*
X163285714Y-50452380D02*
X162619047Y-51452380D01*
X157404761Y-98690476D02*
X157452380Y-98547619D01*
X157452380Y-98309523D01*
X157404761Y-98214285D01*
X157357142Y-98166666D01*
X157261904Y-98119047D01*
X157166666Y-98119047D01*
X157071428Y-98166666D01*
X157023809Y-98214285D01*
X156976190Y-98309523D01*
X156928571Y-98500000D01*
X156880952Y-98595238D01*
X156833333Y-98642857D01*
X156738095Y-98690476D01*
X156642857Y-98690476D01*
X156547619Y-98642857D01*
X156500000Y-98595238D01*
X156452380Y-98500000D01*
X156452380Y-98261904D01*
X156500000Y-98119047D01*
X157357142Y-97119047D02*
X157404761Y-97166666D01*
X157452380Y-97309523D01*
X157452380Y-97404761D01*
X157404761Y-97547619D01*
X157309523Y-97642857D01*
X157214285Y-97690476D01*
X157023809Y-97738095D01*
X156880952Y-97738095D01*
X156690476Y-97690476D01*
X156595238Y-97642857D01*
X156500000Y-97547619D01*
X156452380Y-97404761D01*
X156452380Y-97309523D01*
X156500000Y-97166666D01*
X156547619Y-97119047D01*
X157452380Y-96214285D02*
X157452380Y-96690476D01*
X156452380Y-96690476D01*
X157452380Y-95880952D02*
X156452380Y-95880952D01*
X157452380Y-95309523D02*
X156880952Y-95738095D01*
X156452380Y-95309523D02*
X157023809Y-95880952D01*
X136785714Y-86952380D02*
X136880952Y-86952380D01*
X136976190Y-87000000D01*
X137023809Y-87047619D01*
X137071428Y-87142857D01*
X137119047Y-87333333D01*
X137119047Y-87571428D01*
X137071428Y-87761904D01*
X137023809Y-87857142D01*
X136976190Y-87904761D01*
X136880952Y-87952380D01*
X136785714Y-87952380D01*
X136690476Y-87904761D01*
X136642857Y-87857142D01*
X136595238Y-87761904D01*
X136547619Y-87571428D01*
X136547619Y-87333333D01*
X136595238Y-87142857D01*
X136642857Y-87047619D01*
X136690476Y-87000000D01*
X136785714Y-86952380D01*
X137547619Y-87857142D02*
X137595238Y-87904761D01*
X137547619Y-87952380D01*
X137500000Y-87904761D01*
X137547619Y-87857142D01*
X137547619Y-87952380D01*
X138547619Y-87952380D02*
X137976190Y-87952380D01*
X138261904Y-87952380D02*
X138261904Y-86952380D01*
X138166666Y-87095238D01*
X138071428Y-87190476D01*
X137976190Y-87238095D01*
X138976190Y-87285714D02*
X138976190Y-88285714D01*
X139452380Y-87809523D02*
X139500000Y-87904761D01*
X139595238Y-87952380D01*
X138976190Y-87809523D02*
X139023809Y-87904761D01*
X139119047Y-87952380D01*
X139309523Y-87952380D01*
X139404761Y-87904761D01*
X139452380Y-87809523D01*
X139452380Y-87285714D01*
X140357142Y-87428571D02*
X140023809Y-87428571D01*
X140023809Y-87952380D02*
X140023809Y-86952380D01*
X140500000Y-86952380D01*
X152380952Y-53452380D02*
X152380952Y-52452380D01*
X152761904Y-52452380D01*
X152857142Y-52500000D01*
X152904761Y-52547619D01*
X152952380Y-52642857D01*
X152952380Y-52785714D01*
X152904761Y-52880952D01*
X152857142Y-52928571D01*
X152761904Y-52976190D01*
X152380952Y-52976190D01*
X153714285Y-52928571D02*
X153857142Y-52976190D01*
X153904761Y-53023809D01*
X153952380Y-53119047D01*
X153952380Y-53261904D01*
X153904761Y-53357142D01*
X153857142Y-53404761D01*
X153761904Y-53452380D01*
X153380952Y-53452380D01*
X153380952Y-52452380D01*
X153714285Y-52452380D01*
X153809523Y-52500000D01*
X153857142Y-52547619D01*
X153904761Y-52642857D01*
X153904761Y-52738095D01*
X153857142Y-52833333D01*
X153809523Y-52880952D01*
X153714285Y-52928571D01*
X153380952Y-52928571D01*
X154142857Y-53547619D02*
X154904761Y-53547619D01*
X155047619Y-52452380D02*
X155714285Y-52452380D01*
X155285714Y-53452380D01*
X126452380Y-96547619D02*
X125976190Y-96880952D01*
X126452380Y-97119047D02*
X125452380Y-97119047D01*
X125452380Y-96738095D01*
X125500000Y-96642857D01*
X125547619Y-96595238D01*
X125642857Y-96547619D01*
X125785714Y-96547619D01*
X125880952Y-96595238D01*
X125928571Y-96642857D01*
X125976190Y-96738095D01*
X125976190Y-97119047D01*
X126404761Y-96166666D02*
X126452380Y-96023809D01*
X126452380Y-95785714D01*
X126404761Y-95690476D01*
X126357142Y-95642857D01*
X126261904Y-95595238D01*
X126166666Y-95595238D01*
X126071428Y-95642857D01*
X126023809Y-95690476D01*
X125976190Y-95785714D01*
X125928571Y-95976190D01*
X125880952Y-96071428D01*
X125833333Y-96119047D01*
X125738095Y-96166666D01*
X125642857Y-96166666D01*
X125547619Y-96119047D01*
X125500000Y-96071428D01*
X125452380Y-95976190D01*
X125452380Y-95738095D01*
X125500000Y-95595238D01*
X125452380Y-95309523D02*
X125452380Y-94738095D01*
X126452380Y-95023809D02*
X125452380Y-95023809D01*
X162404761Y-84092380D02*
X162071428Y-83616190D01*
X161833333Y-84092380D02*
X161833333Y-83092380D01*
X162214285Y-83092380D01*
X162309523Y-83140000D01*
X162357142Y-83187619D01*
X162404761Y-83282857D01*
X162404761Y-83425714D01*
X162357142Y-83520952D01*
X162309523Y-83568571D01*
X162214285Y-83616190D01*
X161833333Y-83616190D01*
X162785714Y-84044761D02*
X162928571Y-84092380D01*
X163166666Y-84092380D01*
X163261904Y-84044761D01*
X163309523Y-83997142D01*
X163357142Y-83901904D01*
X163357142Y-83806666D01*
X163309523Y-83711428D01*
X163261904Y-83663809D01*
X163166666Y-83616190D01*
X162976190Y-83568571D01*
X162880952Y-83520952D01*
X162833333Y-83473333D01*
X162785714Y-83378095D01*
X162785714Y-83282857D01*
X162833333Y-83187619D01*
X162880952Y-83140000D01*
X162976190Y-83092380D01*
X163214285Y-83092380D01*
X163357142Y-83140000D01*
X164214285Y-83425714D02*
X164214285Y-84092380D01*
X163976190Y-83044761D02*
X163738095Y-83759047D01*
X164357142Y-83759047D01*
X164880952Y-83520952D02*
X164785714Y-83473333D01*
X164738095Y-83425714D01*
X164690476Y-83330476D01*
X164690476Y-83282857D01*
X164738095Y-83187619D01*
X164785714Y-83140000D01*
X164880952Y-83092380D01*
X165071428Y-83092380D01*
X165166666Y-83140000D01*
X165214285Y-83187619D01*
X165261904Y-83282857D01*
X165261904Y-83330476D01*
X165214285Y-83425714D01*
X165166666Y-83473333D01*
X165071428Y-83520952D01*
X164880952Y-83520952D01*
X164785714Y-83568571D01*
X164738095Y-83616190D01*
X164690476Y-83711428D01*
X164690476Y-83901904D01*
X164738095Y-83997142D01*
X164785714Y-84044761D01*
X164880952Y-84092380D01*
X165071428Y-84092380D01*
X165166666Y-84044761D01*
X165214285Y-83997142D01*
X165261904Y-83901904D01*
X165261904Y-83711428D01*
X165214285Y-83616190D01*
X165166666Y-83568571D01*
X165071428Y-83520952D01*
X166166666Y-83092380D02*
X165690476Y-83092380D01*
X165642857Y-83568571D01*
X165690476Y-83520952D01*
X165785714Y-83473333D01*
X166023809Y-83473333D01*
X166119047Y-83520952D01*
X166166666Y-83568571D01*
X166214285Y-83663809D01*
X166214285Y-83901904D01*
X166166666Y-83997142D01*
X166119047Y-84044761D01*
X166023809Y-84092380D01*
X165785714Y-84092380D01*
X165690476Y-84044761D01*
X165642857Y-83997142D01*
X145595238Y-97452380D02*
X145023809Y-97452380D01*
X145309523Y-97452380D02*
X145309523Y-96452380D01*
X145214285Y-96595238D01*
X145119047Y-96690476D01*
X145023809Y-96738095D01*
X146023809Y-97357142D02*
X146071428Y-97404761D01*
X146023809Y-97452380D01*
X145976190Y-97404761D01*
X146023809Y-97357142D01*
X146023809Y-97452380D01*
X146976190Y-96452380D02*
X146500000Y-96452380D01*
X146452380Y-96928571D01*
X146500000Y-96880952D01*
X146595238Y-96833333D01*
X146833333Y-96833333D01*
X146928571Y-96880952D01*
X146976190Y-96928571D01*
X147023809Y-97023809D01*
X147023809Y-97261904D01*
X146976190Y-97357142D01*
X146928571Y-97404761D01*
X146833333Y-97452380D01*
X146595238Y-97452380D01*
X146500000Y-97404761D01*
X146452380Y-97357142D01*
X147452380Y-97452380D02*
X147452380Y-96452380D01*
X147547619Y-97071428D02*
X147833333Y-97452380D01*
X147833333Y-96785714D02*
X147452380Y-97166666D01*
X148214285Y-97452380D02*
X148452380Y-97452380D01*
X148452380Y-97261904D01*
X148357142Y-97214285D01*
X148261904Y-97119047D01*
X148214285Y-96976190D01*
X148214285Y-96738095D01*
X148261904Y-96595238D01*
X148357142Y-96500000D01*
X148500000Y-96452380D01*
X148690476Y-96452380D01*
X148833333Y-96500000D01*
X148928571Y-96595238D01*
X148976190Y-96738095D01*
X148976190Y-96976190D01*
X148928571Y-97119047D01*
X148833333Y-97214285D01*
X148738095Y-97261904D01*
X148738095Y-97452380D01*
X148976190Y-97452380D01*
X156619047Y-67904761D02*
X156761904Y-67952380D01*
X157000000Y-67952380D01*
X157095238Y-67904761D01*
X157142857Y-67857142D01*
X157190476Y-67761904D01*
X157190476Y-67666666D01*
X157142857Y-67571428D01*
X157095238Y-67523809D01*
X157000000Y-67476190D01*
X156809523Y-67428571D01*
X156714285Y-67380952D01*
X156666666Y-67333333D01*
X156619047Y-67238095D01*
X156619047Y-67142857D01*
X156666666Y-67047619D01*
X156714285Y-67000000D01*
X156809523Y-66952380D01*
X157047619Y-66952380D01*
X157190476Y-67000000D01*
X157476190Y-66952380D02*
X158047619Y-66952380D01*
X157761904Y-67952380D02*
X157761904Y-66952380D01*
X158380952Y-67952380D02*
X158380952Y-66952380D01*
X158714285Y-67666666D01*
X159047619Y-66952380D01*
X159047619Y-67952380D01*
X159428571Y-66952380D02*
X160047619Y-66952380D01*
X159714285Y-67333333D01*
X159857142Y-67333333D01*
X159952380Y-67380952D01*
X160000000Y-67428571D01*
X160047619Y-67523809D01*
X160047619Y-67761904D01*
X160000000Y-67857142D01*
X159952380Y-67904761D01*
X159857142Y-67952380D01*
X159571428Y-67952380D01*
X159476190Y-67904761D01*
X159428571Y-67857142D01*
X160428571Y-67047619D02*
X160476190Y-67000000D01*
X160571428Y-66952380D01*
X160809523Y-66952380D01*
X160904761Y-67000000D01*
X160952380Y-67047619D01*
X161000000Y-67142857D01*
X161000000Y-67238095D01*
X160952380Y-67380952D01*
X160380952Y-67952380D01*
X161000000Y-67952380D01*
X161761904Y-67428571D02*
X161428571Y-67428571D01*
X161428571Y-67952380D02*
X161428571Y-66952380D01*
X161904761Y-66952380D01*
X162190476Y-66952380D02*
X162809523Y-66952380D01*
X162476190Y-67333333D01*
X162619047Y-67333333D01*
X162714285Y-67380952D01*
X162761904Y-67428571D01*
X162809523Y-67523809D01*
X162809523Y-67761904D01*
X162761904Y-67857142D01*
X162714285Y-67904761D01*
X162619047Y-67952380D01*
X162333333Y-67952380D01*
X162238095Y-67904761D01*
X162190476Y-67857142D01*
X163428571Y-66952380D02*
X163523809Y-66952380D01*
X163619047Y-67000000D01*
X163666666Y-67047619D01*
X163714285Y-67142857D01*
X163761904Y-67333333D01*
X163761904Y-67571428D01*
X163714285Y-67761904D01*
X163666666Y-67857142D01*
X163619047Y-67904761D01*
X163523809Y-67952380D01*
X163428571Y-67952380D01*
X163333333Y-67904761D01*
X163285714Y-67857142D01*
X163238095Y-67761904D01*
X163190476Y-67571428D01*
X163190476Y-67333333D01*
X163238095Y-67142857D01*
X163285714Y-67047619D01*
X163333333Y-67000000D01*
X163428571Y-66952380D01*
X164095238Y-66952380D02*
X164714285Y-66952380D01*
X164380952Y-67333333D01*
X164523809Y-67333333D01*
X164619047Y-67380952D01*
X164666666Y-67428571D01*
X164714285Y-67523809D01*
X164714285Y-67761904D01*
X164666666Y-67857142D01*
X164619047Y-67904761D01*
X164523809Y-67952380D01*
X164238095Y-67952380D01*
X164142857Y-67904761D01*
X164095238Y-67857142D01*
X165142857Y-67952380D02*
X165142857Y-66952380D01*
X165714285Y-67952380D02*
X165285714Y-67380952D01*
X165714285Y-66952380D02*
X165142857Y-67523809D01*
X166285714Y-67380952D02*
X166190476Y-67333333D01*
X166142857Y-67285714D01*
X166095238Y-67190476D01*
X166095238Y-67142857D01*
X166142857Y-67047619D01*
X166190476Y-67000000D01*
X166285714Y-66952380D01*
X166476190Y-66952380D01*
X166571428Y-67000000D01*
X166619047Y-67047619D01*
X166666666Y-67142857D01*
X166666666Y-67190476D01*
X166619047Y-67285714D01*
X166571428Y-67333333D01*
X166476190Y-67380952D01*
X166285714Y-67380952D01*
X166190476Y-67428571D01*
X166142857Y-67476190D01*
X166095238Y-67571428D01*
X166095238Y-67761904D01*
X166142857Y-67857142D01*
X166190476Y-67904761D01*
X166285714Y-67952380D01*
X166476190Y-67952380D01*
X166571428Y-67904761D01*
X166619047Y-67857142D01*
X166666666Y-67761904D01*
X166666666Y-67571428D01*
X166619047Y-67476190D01*
X166571428Y-67428571D01*
X166476190Y-67380952D01*
X166952380Y-66952380D02*
X167523809Y-66952380D01*
X167238095Y-67952380D02*
X167238095Y-66952380D01*
X168285714Y-66952380D02*
X168095238Y-66952380D01*
X168000000Y-67000000D01*
X167952380Y-67047619D01*
X167857142Y-67190476D01*
X167809523Y-67380952D01*
X167809523Y-67761904D01*
X167857142Y-67857142D01*
X167904761Y-67904761D01*
X168000000Y-67952380D01*
X168190476Y-67952380D01*
X168285714Y-67904761D01*
X168333333Y-67857142D01*
X168380952Y-67761904D01*
X168380952Y-67523809D01*
X168333333Y-67428571D01*
X168285714Y-67380952D01*
X168190476Y-67333333D01*
X168000000Y-67333333D01*
X167904761Y-67380952D01*
X167857142Y-67428571D01*
X167809523Y-67523809D01*
X131380952Y-51452380D02*
X131380952Y-50452380D01*
X131761904Y-50452380D01*
X131857142Y-50500000D01*
X131904761Y-50547619D01*
X131952380Y-50642857D01*
X131952380Y-50785714D01*
X131904761Y-50880952D01*
X131857142Y-50928571D01*
X131761904Y-50976190D01*
X131380952Y-50976190D01*
X132714285Y-50928571D02*
X132857142Y-50976190D01*
X132904761Y-51023809D01*
X132952380Y-51119047D01*
X132952380Y-51261904D01*
X132904761Y-51357142D01*
X132857142Y-51404761D01*
X132761904Y-51452380D01*
X132380952Y-51452380D01*
X132380952Y-50452380D01*
X132714285Y-50452380D01*
X132809523Y-50500000D01*
X132857142Y-50547619D01*
X132904761Y-50642857D01*
X132904761Y-50738095D01*
X132857142Y-50833333D01*
X132809523Y-50880952D01*
X132714285Y-50928571D01*
X132380952Y-50928571D01*
X133142857Y-51547619D02*
X133904761Y-51547619D01*
X134666666Y-51452380D02*
X134095238Y-51452380D01*
X134380952Y-51452380D02*
X134380952Y-50452380D01*
X134285714Y-50595238D01*
X134190476Y-50690476D01*
X134095238Y-50738095D01*
X152452380Y-49452380D02*
X152452380Y-48452380D01*
X152833333Y-48452380D01*
X152928571Y-48500000D01*
X152976190Y-48547619D01*
X153023809Y-48642857D01*
X153023809Y-48785714D01*
X152976190Y-48880952D01*
X152928571Y-48928571D01*
X152833333Y-48976190D01*
X152452380Y-48976190D01*
X153404761Y-49166666D02*
X153880952Y-49166666D01*
X153309523Y-49452380D02*
X153642857Y-48452380D01*
X153976190Y-49452380D01*
X154071428Y-49547619D02*
X154833333Y-49547619D01*
X155214285Y-48880952D02*
X155119047Y-48833333D01*
X155071428Y-48785714D01*
X155023809Y-48690476D01*
X155023809Y-48642857D01*
X155071428Y-48547619D01*
X155119047Y-48500000D01*
X155214285Y-48452380D01*
X155404761Y-48452380D01*
X155500000Y-48500000D01*
X155547619Y-48547619D01*
X155595238Y-48642857D01*
X155595238Y-48690476D01*
X155547619Y-48785714D01*
X155500000Y-48833333D01*
X155404761Y-48880952D01*
X155214285Y-48880952D01*
X155119047Y-48928571D01*
X155071428Y-48976190D01*
X155023809Y-49071428D01*
X155023809Y-49261904D01*
X155071428Y-49357142D01*
X155119047Y-49404761D01*
X155214285Y-49452380D01*
X155404761Y-49452380D01*
X155500000Y-49404761D01*
X155547619Y-49357142D01*
X155595238Y-49261904D01*
X155595238Y-49071428D01*
X155547619Y-48976190D01*
X155500000Y-48928571D01*
X155404761Y-48880952D01*
X168738095Y-79904761D02*
X168880952Y-79952380D01*
X169119047Y-79952380D01*
X169214285Y-79904761D01*
X169261904Y-79857142D01*
X169309523Y-79761904D01*
X169309523Y-79666666D01*
X169261904Y-79571428D01*
X169214285Y-79523809D01*
X169119047Y-79476190D01*
X168928571Y-79428571D01*
X168833333Y-79380952D01*
X168785714Y-79333333D01*
X168738095Y-79238095D01*
X168738095Y-79142857D01*
X168785714Y-79047619D01*
X168833333Y-79000000D01*
X168928571Y-78952380D01*
X169166666Y-78952380D01*
X169309523Y-79000000D01*
X169642857Y-78952380D02*
X169880952Y-79952380D01*
X170071428Y-79238095D01*
X170261904Y-79952380D01*
X170500000Y-78952380D01*
X171452380Y-79857142D02*
X171404761Y-79904761D01*
X171261904Y-79952380D01*
X171166666Y-79952380D01*
X171023809Y-79904761D01*
X170928571Y-79809523D01*
X170880952Y-79714285D01*
X170833333Y-79523809D01*
X170833333Y-79380952D01*
X170880952Y-79190476D01*
X170928571Y-79095238D01*
X171023809Y-79000000D01*
X171166666Y-78952380D01*
X171261904Y-78952380D01*
X171404761Y-79000000D01*
X171452380Y-79047619D01*
X172357142Y-79952380D02*
X171880952Y-79952380D01*
X171880952Y-78952380D01*
X172690476Y-79952380D02*
X172690476Y-78952380D01*
X173261904Y-79952380D02*
X172833333Y-79380952D01*
X173261904Y-78952380D02*
X172690476Y-79523809D01*
X139261904Y-51452380D02*
X139261904Y-50452380D01*
X139500000Y-50452380D01*
X139642857Y-50500000D01*
X139738095Y-50595238D01*
X139785714Y-50690476D01*
X139833333Y-50880952D01*
X139833333Y-51023809D01*
X139785714Y-51214285D01*
X139738095Y-51309523D01*
X139642857Y-51404761D01*
X139500000Y-51452380D01*
X139261904Y-51452380D01*
X140166666Y-50452380D02*
X140785714Y-50452380D01*
X140452380Y-50833333D01*
X140595238Y-50833333D01*
X140690476Y-50880952D01*
X140738095Y-50928571D01*
X140785714Y-51023809D01*
X140785714Y-51261904D01*
X140738095Y-51357142D01*
X140690476Y-51404761D01*
X140595238Y-51452380D01*
X140309523Y-51452380D01*
X140214285Y-51404761D01*
X140166666Y-51357142D01*
X163976190Y-51452380D02*
X163976190Y-50452380D01*
X164357142Y-50452380D01*
X164452380Y-50500000D01*
X164500000Y-50547619D01*
X164547619Y-50642857D01*
X164547619Y-50785714D01*
X164500000Y-50880952D01*
X164452380Y-50928571D01*
X164357142Y-50976190D01*
X163976190Y-50976190D01*
X164928571Y-51166666D02*
X165404761Y-51166666D01*
X164833333Y-51452380D02*
X165166666Y-50452380D01*
X165500000Y-51452380D01*
X165595238Y-51547619D02*
X166357142Y-51547619D01*
X167119047Y-51452380D02*
X166547619Y-51452380D01*
X166833333Y-51452380D02*
X166833333Y-50452380D01*
X166738095Y-50595238D01*
X166642857Y-50690476D01*
X166547619Y-50738095D01*
X167738095Y-50452380D02*
X167833333Y-50452380D01*
X167928571Y-50500000D01*
X167976190Y-50547619D01*
X168023809Y-50642857D01*
X168071428Y-50833333D01*
X168071428Y-51071428D01*
X168023809Y-51261904D01*
X167976190Y-51357142D01*
X167928571Y-51404761D01*
X167833333Y-51452380D01*
X167738095Y-51452380D01*
X167642857Y-51404761D01*
X167595238Y-51357142D01*
X167547619Y-51261904D01*
X167500000Y-51071428D01*
X167500000Y-50833333D01*
X167547619Y-50642857D01*
X167595238Y-50547619D01*
X167642857Y-50500000D01*
X167738095Y-50452380D01*
X170761904Y-68952380D02*
X171333333Y-68952380D01*
X171047619Y-69952380D02*
X171047619Y-68952380D01*
X171571428Y-68952380D02*
X172238095Y-69952380D01*
X172238095Y-68952380D02*
X171571428Y-69952380D01*
X172571428Y-69047619D02*
X172619047Y-69000000D01*
X172714285Y-68952380D01*
X172952380Y-68952380D01*
X173047619Y-69000000D01*
X173095238Y-69047619D01*
X173142857Y-69142857D01*
X173142857Y-69238095D01*
X173095238Y-69380952D01*
X172523809Y-69952380D01*
X173142857Y-69952380D01*
X162452380Y-98571428D02*
X161452380Y-98571428D01*
X162166666Y-98238095D01*
X161452380Y-97904761D01*
X162452380Y-97904761D01*
X161452380Y-97238095D02*
X161452380Y-97047619D01*
X161500000Y-96952380D01*
X161595238Y-96857142D01*
X161785714Y-96809523D01*
X162119047Y-96809523D01*
X162309523Y-96857142D01*
X162404761Y-96952380D01*
X162452380Y-97047619D01*
X162452380Y-97238095D01*
X162404761Y-97333333D01*
X162309523Y-97428571D01*
X162119047Y-97476190D01*
X161785714Y-97476190D01*
X161595238Y-97428571D01*
X161500000Y-97333333D01*
X161452380Y-97238095D01*
X162404761Y-96428571D02*
X162452380Y-96285714D01*
X162452380Y-96047619D01*
X162404761Y-95952380D01*
X162357142Y-95904761D01*
X162261904Y-95857142D01*
X162166666Y-95857142D01*
X162071428Y-95904761D01*
X162023809Y-95952380D01*
X161976190Y-96047619D01*
X161928571Y-96238095D01*
X161880952Y-96333333D01*
X161833333Y-96380952D01*
X161738095Y-96428571D01*
X161642857Y-96428571D01*
X161547619Y-96380952D01*
X161500000Y-96333333D01*
X161452380Y-96238095D01*
X161452380Y-96000000D01*
X161500000Y-95857142D01*
X162452380Y-95428571D02*
X161452380Y-95428571D01*
X152333333Y-62952380D02*
X151761904Y-62952380D01*
X152047619Y-62952380D02*
X152047619Y-61952380D01*
X151952380Y-62095238D01*
X151857142Y-62190476D01*
X151761904Y-62238095D01*
X152952380Y-61952380D02*
X153047619Y-61952380D01*
X153142857Y-62000000D01*
X153190476Y-62047619D01*
X153238095Y-62142857D01*
X153285714Y-62333333D01*
X153285714Y-62571428D01*
X153238095Y-62761904D01*
X153190476Y-62857142D01*
X153142857Y-62904761D01*
X153047619Y-62952380D01*
X152952380Y-62952380D01*
X152857142Y-62904761D01*
X152809523Y-62857142D01*
X152761904Y-62761904D01*
X152714285Y-62571428D01*
X152714285Y-62333333D01*
X152761904Y-62142857D01*
X152809523Y-62047619D01*
X152857142Y-62000000D01*
X152952380Y-61952380D01*
X153714285Y-62952380D02*
X153714285Y-61952380D01*
X153809523Y-62571428D02*
X154095238Y-62952380D01*
X154095238Y-62285714D02*
X153714285Y-62666666D01*
X154476190Y-62952380D02*
X154714285Y-62952380D01*
X154714285Y-62761904D01*
X154619047Y-62714285D01*
X154523809Y-62619047D01*
X154476190Y-62476190D01*
X154476190Y-62238095D01*
X154523809Y-62095238D01*
X154619047Y-62000000D01*
X154761904Y-61952380D01*
X154952380Y-61952380D01*
X155095238Y-62000000D01*
X155190476Y-62095238D01*
X155238095Y-62238095D01*
X155238095Y-62476190D01*
X155190476Y-62619047D01*
X155095238Y-62714285D01*
X155000000Y-62761904D01*
X155000000Y-62952380D01*
X155238095Y-62952380D01*
X170761904Y-81452380D02*
X171380952Y-81452380D01*
X171047619Y-81833333D01*
X171190476Y-81833333D01*
X171285714Y-81880952D01*
X171333333Y-81928571D01*
X171380952Y-82023809D01*
X171380952Y-82261904D01*
X171333333Y-82357142D01*
X171285714Y-82404761D01*
X171190476Y-82452380D01*
X170904761Y-82452380D01*
X170809523Y-82404761D01*
X170761904Y-82357142D01*
X171666666Y-81452380D02*
X172000000Y-82452380D01*
X172333333Y-81452380D01*
X172571428Y-81452380D02*
X173190476Y-81452380D01*
X172857142Y-81833333D01*
X173000000Y-81833333D01*
X173095238Y-81880952D01*
X173142857Y-81928571D01*
X173190476Y-82023809D01*
X173190476Y-82261904D01*
X173142857Y-82357142D01*
X173095238Y-82404761D01*
X173000000Y-82452380D01*
X172714285Y-82452380D01*
X172619047Y-82404761D01*
X172571428Y-82357142D01*
X142452380Y-53452380D02*
X142452380Y-52452380D01*
X142833333Y-52452380D01*
X142928571Y-52500000D01*
X142976190Y-52547619D01*
X143023809Y-52642857D01*
X143023809Y-52785714D01*
X142976190Y-52880952D01*
X142928571Y-52928571D01*
X142833333Y-52976190D01*
X142452380Y-52976190D01*
X143404761Y-53166666D02*
X143880952Y-53166666D01*
X143309523Y-53452380D02*
X143642857Y-52452380D01*
X143976190Y-53452380D01*
X144071428Y-53547619D02*
X144833333Y-53547619D01*
X145595238Y-53452380D02*
X145023809Y-53452380D01*
X145309523Y-53452380D02*
X145309523Y-52452380D01*
X145214285Y-52595238D01*
X145119047Y-52690476D01*
X145023809Y-52738095D01*
X125761904Y-66452380D02*
X126380952Y-66452380D01*
X126047619Y-66833333D01*
X126190476Y-66833333D01*
X126285714Y-66880952D01*
X126333333Y-66928571D01*
X126380952Y-67023809D01*
X126380952Y-67261904D01*
X126333333Y-67357142D01*
X126285714Y-67404761D01*
X126190476Y-67452380D01*
X125904761Y-67452380D01*
X125809523Y-67404761D01*
X125761904Y-67357142D01*
X126666666Y-66452380D02*
X127000000Y-67452380D01*
X127333333Y-66452380D01*
X127571428Y-66452380D02*
X128190476Y-66452380D01*
X127857142Y-66833333D01*
X128000000Y-66833333D01*
X128095238Y-66880952D01*
X128142857Y-66928571D01*
X128190476Y-67023809D01*
X128190476Y-67261904D01*
X128142857Y-67357142D01*
X128095238Y-67404761D01*
X128000000Y-67452380D01*
X127714285Y-67452380D01*
X127619047Y-67404761D01*
X127571428Y-67357142D01*
X133357142Y-79547619D02*
X133404761Y-79500000D01*
X133500000Y-79452380D01*
X133738095Y-79452380D01*
X133833333Y-79500000D01*
X133880952Y-79547619D01*
X133928571Y-79642857D01*
X133928571Y-79738095D01*
X133880952Y-79880952D01*
X133309523Y-80452380D01*
X133928571Y-80452380D01*
X134547619Y-79452380D02*
X134642857Y-79452380D01*
X134738095Y-79500000D01*
X134785714Y-79547619D01*
X134833333Y-79642857D01*
X134880952Y-79833333D01*
X134880952Y-80071428D01*
X134833333Y-80261904D01*
X134785714Y-80357142D01*
X134738095Y-80404761D01*
X134642857Y-80452380D01*
X134547619Y-80452380D01*
X134452380Y-80404761D01*
X134404761Y-80357142D01*
X134357142Y-80261904D01*
X134309523Y-80071428D01*
X134309523Y-79833333D01*
X134357142Y-79642857D01*
X134404761Y-79547619D01*
X134452380Y-79500000D01*
X134547619Y-79452380D01*
X135309523Y-79785714D02*
X135309523Y-80785714D01*
X135309523Y-79833333D02*
X135404761Y-79785714D01*
X135595238Y-79785714D01*
X135690476Y-79833333D01*
X135738095Y-79880952D01*
X135785714Y-79976190D01*
X135785714Y-80261904D01*
X135738095Y-80357142D01*
X135690476Y-80404761D01*
X135595238Y-80452380D01*
X135404761Y-80452380D01*
X135309523Y-80404761D01*
X136547619Y-79928571D02*
X136214285Y-79928571D01*
X136214285Y-80452380D02*
X136214285Y-79452380D01*
X136690476Y-79452380D01*
X127547619Y-73666666D02*
X128547619Y-73666666D01*
X128547619Y-74047619D01*
X128500000Y-74142857D01*
X128452380Y-74190476D01*
X128357142Y-74238095D01*
X128214285Y-74238095D01*
X128119047Y-74190476D01*
X128071428Y-74142857D01*
X128023809Y-74047619D01*
X128023809Y-73666666D01*
X128547619Y-74571428D02*
X127547619Y-74809523D01*
X128261904Y-75000000D01*
X127547619Y-75190476D01*
X128547619Y-75428571D01*
X127547619Y-76380952D02*
X128023809Y-76047619D01*
X127547619Y-75809523D02*
X128547619Y-75809523D01*
X128547619Y-76190476D01*
X128500000Y-76285714D01*
X128452380Y-76333333D01*
X128357142Y-76380952D01*
X128214285Y-76380952D01*
X128119047Y-76333333D01*
X128071428Y-76285714D01*
X128023809Y-76190476D01*
X128023809Y-75809523D01*
X142000000Y-62785714D02*
X142000000Y-63452380D01*
X141761904Y-62404761D02*
X141523809Y-63119047D01*
X142142857Y-63119047D01*
X142523809Y-63357142D02*
X142571428Y-63404761D01*
X142523809Y-63452380D01*
X142476190Y-63404761D01*
X142523809Y-63357142D01*
X142523809Y-63452380D01*
X142904761Y-62452380D02*
X143571428Y-62452380D01*
X143142857Y-63452380D01*
X143952380Y-63452380D02*
X143952380Y-62452380D01*
X144047619Y-63071428D02*
X144333333Y-63452380D01*
X144333333Y-62785714D02*
X143952380Y-63166666D01*
X144714285Y-63452380D02*
X144952380Y-63452380D01*
X144952380Y-63261904D01*
X144857142Y-63214285D01*
X144761904Y-63119047D01*
X144714285Y-62976190D01*
X144714285Y-62738095D01*
X144761904Y-62595238D01*
X144857142Y-62500000D01*
X145000000Y-62452380D01*
X145190476Y-62452380D01*
X145333333Y-62500000D01*
X145428571Y-62595238D01*
X145476190Y-62738095D01*
X145476190Y-62976190D01*
X145428571Y-63119047D01*
X145333333Y-63214285D01*
X145238095Y-63261904D01*
X145238095Y-63452380D01*
X145476190Y-63452380D01*
X137357142Y-64547619D02*
X137404761Y-64500000D01*
X137500000Y-64452380D01*
X137738095Y-64452380D01*
X137833333Y-64500000D01*
X137880952Y-64547619D01*
X137928571Y-64642857D01*
X137928571Y-64738095D01*
X137880952Y-64880952D01*
X137309523Y-65452380D01*
X137928571Y-65452380D01*
X138547619Y-64452380D02*
X138642857Y-64452380D01*
X138738095Y-64500000D01*
X138785714Y-64547619D01*
X138833333Y-64642857D01*
X138880952Y-64833333D01*
X138880952Y-65071428D01*
X138833333Y-65261904D01*
X138785714Y-65357142D01*
X138738095Y-65404761D01*
X138642857Y-65452380D01*
X138547619Y-65452380D01*
X138452380Y-65404761D01*
X138404761Y-65357142D01*
X138357142Y-65261904D01*
X138309523Y-65071428D01*
X138309523Y-64833333D01*
X138357142Y-64642857D01*
X138404761Y-64547619D01*
X138452380Y-64500000D01*
X138547619Y-64452380D01*
X139309523Y-64785714D02*
X139309523Y-65785714D01*
X139309523Y-64833333D02*
X139404761Y-64785714D01*
X139595238Y-64785714D01*
X139690476Y-64833333D01*
X139738095Y-64880952D01*
X139785714Y-64976190D01*
X139785714Y-65261904D01*
X139738095Y-65357142D01*
X139690476Y-65404761D01*
X139595238Y-65452380D01*
X139404761Y-65452380D01*
X139309523Y-65404761D01*
X140547619Y-64928571D02*
X140214285Y-64928571D01*
X140214285Y-65452380D02*
X140214285Y-64452380D01*
X140690476Y-64452380D01*
D11*
X150428571Y-85256785D02*
X150571428Y-85542500D01*
X150642857Y-85899642D01*
X149714285Y-85113928D02*
X149714285Y-85613928D01*
X149785714Y-85971071D01*
X149928571Y-86399642D01*
X150142857Y-85971071D01*
X151214285Y-85399642D02*
X151714285Y-85328214D01*
X151857142Y-85613928D01*
X151714285Y-86399642D01*
X151500000Y-86328214D01*
X151571428Y-84828214D02*
X151285714Y-86399642D01*
X151928571Y-85185357D02*
X152214285Y-85756785D01*
X149928571Y-87457500D02*
X150428571Y-87457500D01*
X150214285Y-87671785D01*
X149928571Y-88100357D02*
X149785714Y-88457500D01*
X149928571Y-88814642D01*
X150571428Y-88814642D01*
X151571428Y-87243214D02*
X151928571Y-87386071D01*
X151357142Y-87886071D02*
X151857142Y-87671785D01*
X152071428Y-87886071D01*
X152071428Y-88314642D01*
X151928571Y-88671785D01*
X151571428Y-88814642D01*
D10*
X142380952Y-49452380D02*
X142380952Y-48452380D01*
X142761904Y-48452380D01*
X142857142Y-48500000D01*
X142904761Y-48547619D01*
X142952380Y-48642857D01*
X142952380Y-48785714D01*
X142904761Y-48880952D01*
X142857142Y-48928571D01*
X142761904Y-48976190D01*
X142380952Y-48976190D01*
X143714285Y-48928571D02*
X143857142Y-48976190D01*
X143904761Y-49023809D01*
X143952380Y-49119047D01*
X143952380Y-49261904D01*
X143904761Y-49357142D01*
X143857142Y-49404761D01*
X143761904Y-49452380D01*
X143380952Y-49452380D01*
X143380952Y-48452380D01*
X143714285Y-48452380D01*
X143809523Y-48500000D01*
X143857142Y-48547619D01*
X143904761Y-48642857D01*
X143904761Y-48738095D01*
X143857142Y-48833333D01*
X143809523Y-48880952D01*
X143714285Y-48928571D01*
X143380952Y-48928571D01*
X144142857Y-49547619D02*
X144904761Y-49547619D01*
X145571428Y-48785714D02*
X145571428Y-49452380D01*
X145333333Y-48404761D02*
X145095238Y-49119047D01*
X145714285Y-49119047D01*
X170666666Y-92452380D02*
X170666666Y-91452380D01*
X171000000Y-92166666D01*
X171333333Y-91452380D01*
X171333333Y-92452380D01*
X171809523Y-92452380D02*
X171809523Y-91452380D01*
X172047619Y-91452380D01*
X172190476Y-91500000D01*
X172285714Y-91595238D01*
X172333333Y-91690476D01*
X172380952Y-91880952D01*
X172380952Y-92023809D01*
X172333333Y-92214285D01*
X172285714Y-92309523D01*
X172190476Y-92404761D01*
X172047619Y-92452380D01*
X171809523Y-92452380D01*
X173380952Y-92357142D02*
X173333333Y-92404761D01*
X173190476Y-92452380D01*
X173095238Y-92452380D01*
X172952380Y-92404761D01*
X172857142Y-92309523D01*
X172809523Y-92214285D01*
X172761904Y-92023809D01*
X172761904Y-91880952D01*
X172809523Y-91690476D01*
X172857142Y-91595238D01*
X172952380Y-91500000D01*
X173095238Y-91452380D01*
X173190476Y-91452380D01*
X173333333Y-91500000D01*
X173380952Y-91547619D01*
X168880952Y-74904761D02*
X169023809Y-74952380D01*
X169261904Y-74952380D01*
X169357142Y-74904761D01*
X169404761Y-74857142D01*
X169452380Y-74761904D01*
X169452380Y-74666666D01*
X169404761Y-74571428D01*
X169357142Y-74523809D01*
X169261904Y-74476190D01*
X169071428Y-74428571D01*
X168976190Y-74380952D01*
X168928571Y-74333333D01*
X168880952Y-74238095D01*
X168880952Y-74142857D01*
X168928571Y-74047619D01*
X168976190Y-74000000D01*
X169071428Y-73952380D01*
X169309523Y-73952380D01*
X169452380Y-74000000D01*
X169785714Y-73952380D02*
X170023809Y-74952380D01*
X170214285Y-74238095D01*
X170404761Y-74952380D01*
X170642857Y-73952380D01*
X171023809Y-74952380D02*
X171023809Y-73952380D01*
X171261904Y-73952380D01*
X171404761Y-74000000D01*
X171500000Y-74095238D01*
X171547619Y-74190476D01*
X171595238Y-74380952D01*
X171595238Y-74523809D01*
X171547619Y-74714285D01*
X171500000Y-74809523D01*
X171404761Y-74904761D01*
X171261904Y-74952380D01*
X171023809Y-74952380D01*
X172023809Y-74952380D02*
X172023809Y-73952380D01*
X172690476Y-73952380D02*
X172880952Y-73952380D01*
X172976190Y-74000000D01*
X173071428Y-74095238D01*
X173119047Y-74285714D01*
X173119047Y-74619047D01*
X173071428Y-74809523D01*
X172976190Y-74904761D01*
X172880952Y-74952380D01*
X172690476Y-74952380D01*
X172595238Y-74904761D01*
X172500000Y-74809523D01*
X172452380Y-74619047D01*
X172452380Y-74285714D01*
X172500000Y-74095238D01*
X172595238Y-74000000D01*
X172690476Y-73952380D01*
X127666666Y-51404761D02*
X127809523Y-51452380D01*
X128047619Y-51452380D01*
X128142857Y-51404761D01*
X128190476Y-51357142D01*
X128238095Y-51261904D01*
X128238095Y-51166666D01*
X128190476Y-51071428D01*
X128142857Y-51023809D01*
X128047619Y-50976190D01*
X127857142Y-50928571D01*
X127761904Y-50880952D01*
X127714285Y-50833333D01*
X127666666Y-50738095D01*
X127666666Y-50642857D01*
X127714285Y-50547619D01*
X127761904Y-50500000D01*
X127857142Y-50452380D01*
X128095238Y-50452380D01*
X128238095Y-50500000D01*
X128571428Y-50452380D02*
X128809523Y-51452380D01*
X129000000Y-50738095D01*
X129190476Y-51452380D01*
X129428571Y-50452380D01*
X130333333Y-51452380D02*
X129761904Y-51452380D01*
X130047619Y-51452380D02*
X130047619Y-50452380D01*
X129952380Y-50595238D01*
X129857142Y-50690476D01*
X129761904Y-50738095D01*
X167452380Y-98238095D02*
X167452380Y-97619047D01*
X167833333Y-97952380D01*
X167833333Y-97809523D01*
X167880952Y-97714285D01*
X167928571Y-97666666D01*
X168023809Y-97619047D01*
X168261904Y-97619047D01*
X168357142Y-97666666D01*
X168404761Y-97714285D01*
X168452380Y-97809523D01*
X168452380Y-98095238D01*
X168404761Y-98190476D01*
X168357142Y-98238095D01*
X167452380Y-97333333D02*
X168452380Y-97000000D01*
X167452380Y-96666666D01*
X167452380Y-96428571D02*
X167452380Y-95809523D01*
X167833333Y-96142857D01*
X167833333Y-96000000D01*
X167880952Y-95904761D01*
X167928571Y-95857142D01*
X168023809Y-95809523D01*
X168261904Y-95809523D01*
X168357142Y-95857142D01*
X168404761Y-95904761D01*
X168452380Y-96000000D01*
X168452380Y-96285714D01*
X168404761Y-96380952D01*
X168357142Y-96428571D01*
X168976190Y-60857142D02*
X168928571Y-60904761D01*
X168785714Y-60952380D01*
X168690476Y-60952380D01*
X168547619Y-60904761D01*
X168452380Y-60809523D01*
X168404761Y-60714285D01*
X168357142Y-60523809D01*
X168357142Y-60380952D01*
X168404761Y-60190476D01*
X168452380Y-60095238D01*
X168547619Y-60000000D01*
X168690476Y-59952380D01*
X168785714Y-59952380D01*
X168928571Y-60000000D01*
X168976190Y-60047619D01*
X169357142Y-60666666D02*
X169833333Y-60666666D01*
X169261904Y-60952380D02*
X169595238Y-59952380D01*
X169928571Y-60952380D01*
X170261904Y-60952380D02*
X170261904Y-59952380D01*
X170833333Y-60952380D01*
X170833333Y-59952380D01*
X171071428Y-61047619D02*
X171833333Y-61047619D01*
X172642857Y-60952380D02*
X172309523Y-60476190D01*
X172071428Y-60952380D02*
X172071428Y-59952380D01*
X172452380Y-59952380D01*
X172547619Y-60000000D01*
X172595238Y-60047619D01*
X172642857Y-60142857D01*
X172642857Y-60285714D01*
X172595238Y-60380952D01*
X172547619Y-60428571D01*
X172452380Y-60476190D01*
X172071428Y-60476190D01*
X173071428Y-60952380D02*
X173071428Y-59952380D01*
X173309523Y-59952380D01*
X173452380Y-60000000D01*
X173547619Y-60095238D01*
X173595238Y-60190476D01*
X173642857Y-60380952D01*
X173642857Y-60523809D01*
X173595238Y-60714285D01*
X173547619Y-60809523D01*
X173452380Y-60904761D01*
X173309523Y-60952380D01*
X173071428Y-60952380D01*
X158928571Y-49452380D02*
X158928571Y-48452380D01*
X159261904Y-49166666D01*
X159595238Y-48452380D01*
X159595238Y-49452380D01*
X160071428Y-49452380D02*
X160071428Y-48452380D01*
X160309523Y-48452380D01*
X160452380Y-48500000D01*
X160547619Y-48595238D01*
X160595238Y-48690476D01*
X160642857Y-48880952D01*
X160642857Y-49023809D01*
X160595238Y-49214285D01*
X160547619Y-49309523D01*
X160452380Y-49404761D01*
X160309523Y-49452380D01*
X160071428Y-49452380D01*
X160833333Y-49547619D02*
X161595238Y-49547619D01*
X161690476Y-48452380D02*
X162261904Y-48452380D01*
X161976190Y-49452380D02*
X161976190Y-48452380D01*
X162500000Y-48452380D02*
X163166666Y-49452380D01*
X163166666Y-48452380D02*
X162500000Y-49452380D01*
X154404761Y-98619047D02*
X154452380Y-98476190D01*
X154452380Y-98238095D01*
X154404761Y-98142857D01*
X154357142Y-98095238D01*
X154261904Y-98047619D01*
X154166666Y-98047619D01*
X154071428Y-98095238D01*
X154023809Y-98142857D01*
X153976190Y-98238095D01*
X153928571Y-98428571D01*
X153880952Y-98523809D01*
X153833333Y-98571428D01*
X153738095Y-98619047D01*
X153642857Y-98619047D01*
X153547619Y-98571428D01*
X153500000Y-98523809D01*
X153452380Y-98428571D01*
X153452380Y-98190476D01*
X153500000Y-98047619D01*
X154404761Y-97666666D02*
X154452380Y-97523809D01*
X154452380Y-97285714D01*
X154404761Y-97190476D01*
X154357142Y-97142857D01*
X154261904Y-97095238D01*
X154166666Y-97095238D01*
X154071428Y-97142857D01*
X154023809Y-97190476D01*
X153976190Y-97285714D01*
X153928571Y-97476190D01*
X153880952Y-97571428D01*
X153833333Y-97619047D01*
X153738095Y-97666666D01*
X153642857Y-97666666D01*
X153547619Y-97619047D01*
X153500000Y-97571428D01*
X153452380Y-97476190D01*
X153452380Y-97238095D01*
X153500000Y-97095238D01*
X153928571Y-96666666D02*
X153928571Y-96333333D01*
X154452380Y-96190476D02*
X154452380Y-96666666D01*
X153452380Y-96666666D01*
X153452380Y-96190476D01*
X154452380Y-95285714D02*
X154452380Y-95761904D01*
X153452380Y-95761904D01*
X171452380Y-72452380D02*
X171119047Y-71976190D01*
X170880952Y-72452380D02*
X170880952Y-71452380D01*
X171261904Y-71452380D01*
X171357142Y-71500000D01*
X171404761Y-71547619D01*
X171452380Y-71642857D01*
X171452380Y-71785714D01*
X171404761Y-71880952D01*
X171357142Y-71928571D01*
X171261904Y-71976190D01*
X170880952Y-71976190D01*
X171833333Y-72404761D02*
X171976190Y-72452380D01*
X172214285Y-72452380D01*
X172309523Y-72404761D01*
X172357142Y-72357142D01*
X172404761Y-72261904D01*
X172404761Y-72166666D01*
X172357142Y-72071428D01*
X172309523Y-72023809D01*
X172214285Y-71976190D01*
X172023809Y-71928571D01*
X171928571Y-71880952D01*
X171880952Y-71833333D01*
X171833333Y-71738095D01*
X171833333Y-71642857D01*
X171880952Y-71547619D01*
X171928571Y-71500000D01*
X172023809Y-71452380D01*
X172261904Y-71452380D01*
X172404761Y-71500000D01*
X172690476Y-71452380D02*
X173261904Y-71452380D01*
X172976190Y-72452380D02*
X172976190Y-71452380D01*
X131380952Y-49452380D02*
X131380952Y-48452380D01*
X131761904Y-48452380D01*
X131857142Y-48500000D01*
X131904761Y-48547619D01*
X131952380Y-48642857D01*
X131952380Y-48785714D01*
X131904761Y-48880952D01*
X131857142Y-48928571D01*
X131761904Y-48976190D01*
X131380952Y-48976190D01*
X132714285Y-48928571D02*
X132857142Y-48976190D01*
X132904761Y-49023809D01*
X132952380Y-49119047D01*
X132952380Y-49261904D01*
X132904761Y-49357142D01*
X132857142Y-49404761D01*
X132761904Y-49452380D01*
X132380952Y-49452380D01*
X132380952Y-48452380D01*
X132714285Y-48452380D01*
X132809523Y-48500000D01*
X132857142Y-48547619D01*
X132904761Y-48642857D01*
X132904761Y-48738095D01*
X132857142Y-48833333D01*
X132809523Y-48880952D01*
X132714285Y-48928571D01*
X132380952Y-48928571D01*
X133142857Y-49547619D02*
X133904761Y-49547619D01*
X134333333Y-48452380D02*
X134428571Y-48452380D01*
X134523809Y-48500000D01*
X134571428Y-48547619D01*
X134619047Y-48642857D01*
X134666666Y-48833333D01*
X134666666Y-49071428D01*
X134619047Y-49261904D01*
X134571428Y-49357142D01*
X134523809Y-49404761D01*
X134428571Y-49452380D01*
X134333333Y-49452380D01*
X134238095Y-49404761D01*
X134190476Y-49357142D01*
X134142857Y-49261904D01*
X134095238Y-49071428D01*
X134095238Y-48833333D01*
X134142857Y-48642857D01*
X134190476Y-48547619D01*
X134238095Y-48500000D01*
X134333333Y-48452380D01*
X152380952Y-51452380D02*
X152380952Y-50452380D01*
X152761904Y-50452380D01*
X152857142Y-50500000D01*
X152904761Y-50547619D01*
X152952380Y-50642857D01*
X152952380Y-50785714D01*
X152904761Y-50880952D01*
X152857142Y-50928571D01*
X152761904Y-50976190D01*
X152380952Y-50976190D01*
X153714285Y-50928571D02*
X153857142Y-50976190D01*
X153904761Y-51023809D01*
X153952380Y-51119047D01*
X153952380Y-51261904D01*
X153904761Y-51357142D01*
X153857142Y-51404761D01*
X153761904Y-51452380D01*
X153380952Y-51452380D01*
X153380952Y-50452380D01*
X153714285Y-50452380D01*
X153809523Y-50500000D01*
X153857142Y-50547619D01*
X153904761Y-50642857D01*
X153904761Y-50738095D01*
X153857142Y-50833333D01*
X153809523Y-50880952D01*
X153714285Y-50928571D01*
X153380952Y-50928571D01*
X154142857Y-51547619D02*
X154904761Y-51547619D01*
X155571428Y-50452380D02*
X155380952Y-50452380D01*
X155285714Y-50500000D01*
X155238095Y-50547619D01*
X155142857Y-50690476D01*
X155095238Y-50880952D01*
X155095238Y-51261904D01*
X155142857Y-51357142D01*
X155190476Y-51404761D01*
X155285714Y-51452380D01*
X155476190Y-51452380D01*
X155571428Y-51404761D01*
X155619047Y-51357142D01*
X155666666Y-51261904D01*
X155666666Y-51023809D01*
X155619047Y-50928571D01*
X155571428Y-50880952D01*
X155476190Y-50833333D01*
X155285714Y-50833333D01*
X155190476Y-50880952D01*
X155142857Y-50928571D01*
X155095238Y-51023809D01*
X138666666Y-49404761D02*
X138809523Y-49452380D01*
X139047619Y-49452380D01*
X139142857Y-49404761D01*
X139190476Y-49357142D01*
X139238095Y-49261904D01*
X139238095Y-49166666D01*
X139190476Y-49071428D01*
X139142857Y-49023809D01*
X139047619Y-48976190D01*
X138857142Y-48928571D01*
X138761904Y-48880952D01*
X138714285Y-48833333D01*
X138666666Y-48738095D01*
X138666666Y-48642857D01*
X138714285Y-48547619D01*
X138761904Y-48500000D01*
X138857142Y-48452380D01*
X139095238Y-48452380D01*
X139238095Y-48500000D01*
X139571428Y-48452380D02*
X139809523Y-49452380D01*
X140000000Y-48738095D01*
X140190476Y-49452380D01*
X140428571Y-48452380D01*
X140714285Y-48452380D02*
X141333333Y-48452380D01*
X141000000Y-48833333D01*
X141142857Y-48833333D01*
X141238095Y-48880952D01*
X141285714Y-48928571D01*
X141333333Y-49023809D01*
X141333333Y-49261904D01*
X141285714Y-49357142D01*
X141238095Y-49404761D01*
X141142857Y-49452380D01*
X140857142Y-49452380D01*
X140761904Y-49404761D01*
X140714285Y-49357142D01*
X159000000Y-97761904D02*
X158952380Y-97857142D01*
X158952380Y-98000000D01*
X159000000Y-98142857D01*
X159095238Y-98238095D01*
X159190476Y-98285714D01*
X159380952Y-98333333D01*
X159523809Y-98333333D01*
X159714285Y-98285714D01*
X159809523Y-98238095D01*
X159904761Y-98142857D01*
X159952380Y-98000000D01*
X159952380Y-97904761D01*
X159904761Y-97761904D01*
X159857142Y-97714285D01*
X159523809Y-97714285D01*
X159523809Y-97904761D01*
X159952380Y-97285714D02*
X158952380Y-97285714D01*
X159952380Y-96714285D01*
X158952380Y-96714285D01*
X159952380Y-96238095D02*
X158952380Y-96238095D01*
X158952380Y-96000000D01*
X159000000Y-95857142D01*
X159095238Y-95761904D01*
X159190476Y-95714285D01*
X159380952Y-95666666D01*
X159523809Y-95666666D01*
X159714285Y-95714285D01*
X159809523Y-95761904D01*
X159904761Y-95857142D01*
X159952380Y-96000000D01*
X159952380Y-96238095D01*
X131380952Y-53452380D02*
X131380952Y-52452380D01*
X131761904Y-52452380D01*
X131857142Y-52500000D01*
X131904761Y-52547619D01*
X131952380Y-52642857D01*
X131952380Y-52785714D01*
X131904761Y-52880952D01*
X131857142Y-52928571D01*
X131761904Y-52976190D01*
X131380952Y-52976190D01*
X132714285Y-52928571D02*
X132857142Y-52976190D01*
X132904761Y-53023809D01*
X132952380Y-53119047D01*
X132952380Y-53261904D01*
X132904761Y-53357142D01*
X132857142Y-53404761D01*
X132761904Y-53452380D01*
X132380952Y-53452380D01*
X132380952Y-52452380D01*
X132714285Y-52452380D01*
X132809523Y-52500000D01*
X132857142Y-52547619D01*
X132904761Y-52642857D01*
X132904761Y-52738095D01*
X132857142Y-52833333D01*
X132809523Y-52880952D01*
X132714285Y-52928571D01*
X132380952Y-52928571D01*
X133142857Y-53547619D02*
X133904761Y-53547619D01*
X134047619Y-52452380D02*
X134666666Y-52452380D01*
X134333333Y-52833333D01*
X134476190Y-52833333D01*
X134571428Y-52880952D01*
X134619047Y-52928571D01*
X134666666Y-53023809D01*
X134666666Y-53261904D01*
X134619047Y-53357142D01*
X134571428Y-53404761D01*
X134476190Y-53452380D01*
X134190476Y-53452380D01*
X134095238Y-53404761D01*
X134047619Y-53357142D01*
X146285714Y-64452380D02*
X146380952Y-64452380D01*
X146476190Y-64500000D01*
X146523809Y-64547619D01*
X146571428Y-64642857D01*
X146619047Y-64833333D01*
X146619047Y-65071428D01*
X146571428Y-65261904D01*
X146523809Y-65357142D01*
X146476190Y-65404761D01*
X146380952Y-65452380D01*
X146285714Y-65452380D01*
X146190476Y-65404761D01*
X146142857Y-65357142D01*
X146095238Y-65261904D01*
X146047619Y-65071428D01*
X146047619Y-64833333D01*
X146095238Y-64642857D01*
X146142857Y-64547619D01*
X146190476Y-64500000D01*
X146285714Y-64452380D01*
X147047619Y-65357142D02*
X147095238Y-65404761D01*
X147047619Y-65452380D01*
X147000000Y-65404761D01*
X147047619Y-65357142D01*
X147047619Y-65452380D01*
X148047619Y-65452380D02*
X147476190Y-65452380D01*
X147761904Y-65452380D02*
X147761904Y-64452380D01*
X147666666Y-64595238D01*
X147571428Y-64690476D01*
X147476190Y-64738095D01*
X148476190Y-64785714D02*
X148476190Y-65785714D01*
X148952380Y-65309523D02*
X149000000Y-65404761D01*
X149095238Y-65452380D01*
X148476190Y-65309523D02*
X148523809Y-65404761D01*
X148619047Y-65452380D01*
X148809523Y-65452380D01*
X148904761Y-65404761D01*
X148952380Y-65309523D01*
X148952380Y-64785714D01*
X149857142Y-64928571D02*
X149523809Y-64928571D01*
X149523809Y-65452380D02*
X149523809Y-64452380D01*
X150000000Y-64452380D01*
X161285714Y-78452380D02*
X161380952Y-78452380D01*
X161476190Y-78500000D01*
X161523809Y-78547619D01*
X161571428Y-78642857D01*
X161619047Y-78833333D01*
X161619047Y-79071428D01*
X161571428Y-79261904D01*
X161523809Y-79357142D01*
X161476190Y-79404761D01*
X161380952Y-79452380D01*
X161285714Y-79452380D01*
X161190476Y-79404761D01*
X161142857Y-79357142D01*
X161095238Y-79261904D01*
X161047619Y-79071428D01*
X161047619Y-78833333D01*
X161095238Y-78642857D01*
X161142857Y-78547619D01*
X161190476Y-78500000D01*
X161285714Y-78452380D01*
X162047619Y-79357142D02*
X162095238Y-79404761D01*
X162047619Y-79452380D01*
X162000000Y-79404761D01*
X162047619Y-79357142D01*
X162047619Y-79452380D01*
X163047619Y-79452380D02*
X162476190Y-79452380D01*
X162761904Y-79452380D02*
X162761904Y-78452380D01*
X162666666Y-78595238D01*
X162571428Y-78690476D01*
X162476190Y-78738095D01*
X163476190Y-78785714D02*
X163476190Y-79785714D01*
X163952380Y-79309523D02*
X164000000Y-79404761D01*
X164095238Y-79452380D01*
X163476190Y-79309523D02*
X163523809Y-79404761D01*
X163619047Y-79452380D01*
X163809523Y-79452380D01*
X163904761Y-79404761D01*
X163952380Y-79309523D01*
X163952380Y-78785714D01*
X164857142Y-78928571D02*
X164523809Y-78928571D01*
X164523809Y-79452380D02*
X164523809Y-78452380D01*
X165000000Y-78452380D01*
X148785714Y-53404761D02*
X148928571Y-53452380D01*
X149166666Y-53452380D01*
X149261904Y-53404761D01*
X149309523Y-53357142D01*
X149357142Y-53261904D01*
X149357142Y-53166666D01*
X149309523Y-53071428D01*
X149261904Y-53023809D01*
X149166666Y-52976190D01*
X148976190Y-52928571D01*
X148880952Y-52880952D01*
X148833333Y-52833333D01*
X148785714Y-52738095D01*
X148785714Y-52642857D01*
X148833333Y-52547619D01*
X148880952Y-52500000D01*
X148976190Y-52452380D01*
X149214285Y-52452380D01*
X149357142Y-52500000D01*
X149785714Y-53452380D02*
X149785714Y-52452380D01*
X150023809Y-52452380D01*
X150166666Y-52500000D01*
X150261904Y-52595238D01*
X150309523Y-52690476D01*
X150357142Y-52880952D01*
X150357142Y-53023809D01*
X150309523Y-53214285D01*
X150261904Y-53309523D01*
X150166666Y-53404761D01*
X150023809Y-53452380D01*
X149785714Y-53452380D01*
X150738095Y-53166666D02*
X151214285Y-53166666D01*
X150642857Y-53452380D02*
X150976190Y-52452380D01*
X151309523Y-53452380D01*
X164452380Y-49452380D02*
X164452380Y-48452380D01*
X164833333Y-48452380D01*
X164928571Y-48500000D01*
X164976190Y-48547619D01*
X165023809Y-48642857D01*
X165023809Y-48785714D01*
X164976190Y-48880952D01*
X164928571Y-48928571D01*
X164833333Y-48976190D01*
X164452380Y-48976190D01*
X165404761Y-49166666D02*
X165880952Y-49166666D01*
X165309523Y-49452380D02*
X165642857Y-48452380D01*
X165976190Y-49452380D01*
X166071428Y-49547619D02*
X166833333Y-49547619D01*
X167119047Y-49452380D02*
X167309523Y-49452380D01*
X167404761Y-49404761D01*
X167452380Y-49357142D01*
X167547619Y-49214285D01*
X167595238Y-49023809D01*
X167595238Y-48642857D01*
X167547619Y-48547619D01*
X167500000Y-48500000D01*
X167404761Y-48452380D01*
X167214285Y-48452380D01*
X167119047Y-48500000D01*
X167071428Y-48547619D01*
X167023809Y-48642857D01*
X167023809Y-48880952D01*
X167071428Y-48976190D01*
X167119047Y-49023809D01*
X167214285Y-49071428D01*
X167404761Y-49071428D01*
X167500000Y-49023809D01*
X167547619Y-48976190D01*
X167595238Y-48880952D01*
X149261904Y-49452380D02*
X149261904Y-48452380D01*
X149500000Y-48452380D01*
X149642857Y-48500000D01*
X149738095Y-48595238D01*
X149785714Y-48690476D01*
X149833333Y-48880952D01*
X149833333Y-49023809D01*
X149785714Y-49214285D01*
X149738095Y-49309523D01*
X149642857Y-49404761D01*
X149500000Y-49452380D01*
X149261904Y-49452380D01*
X150738095Y-48452380D02*
X150261904Y-48452380D01*
X150214285Y-48928571D01*
X150261904Y-48880952D01*
X150357142Y-48833333D01*
X150595238Y-48833333D01*
X150690476Y-48880952D01*
X150738095Y-48928571D01*
X150785714Y-49023809D01*
X150785714Y-49261904D01*
X150738095Y-49357142D01*
X150690476Y-49404761D01*
X150595238Y-49452380D01*
X150357142Y-49452380D01*
X150261904Y-49404761D01*
X150214285Y-49357142D01*
X155102380Y-65166666D02*
X154626190Y-65500000D01*
X155102380Y-65738095D02*
X154102380Y-65738095D01*
X154102380Y-65357142D01*
X154150000Y-65261904D01*
X154197619Y-65214285D01*
X154292857Y-65166666D01*
X154435714Y-65166666D01*
X154530952Y-65214285D01*
X154578571Y-65261904D01*
X154626190Y-65357142D01*
X154626190Y-65738095D01*
X154102380Y-64833333D02*
X154102380Y-64214285D01*
X154483333Y-64547619D01*
X154483333Y-64404761D01*
X154530952Y-64309523D01*
X154578571Y-64261904D01*
X154673809Y-64214285D01*
X154911904Y-64214285D01*
X155007142Y-64261904D01*
X155054761Y-64309523D01*
X155102380Y-64404761D01*
X155102380Y-64690476D01*
X155054761Y-64785714D01*
X155007142Y-64833333D01*
X134412602Y-67102452D02*
X134364983Y-67150071D01*
X134222126Y-67197690D01*
X134126888Y-67197690D01*
X133984031Y-67150071D01*
X133888793Y-67054833D01*
X133841174Y-66959595D01*
X133793555Y-66769119D01*
X133793555Y-66626262D01*
X133841174Y-66435786D01*
X133888793Y-66340548D01*
X133984031Y-66245310D01*
X134126888Y-66197690D01*
X134222126Y-66197690D01*
X134364983Y-66245310D01*
X134412602Y-66292929D01*
X135364983Y-67197690D02*
X134793555Y-67197690D01*
X135079269Y-67197690D02*
X135079269Y-66197690D01*
X134984031Y-66340548D01*
X134888793Y-66435786D01*
X134793555Y-66483405D01*
X135984031Y-66197690D02*
X136079269Y-66197690D01*
X136174507Y-66245310D01*
X136222126Y-66292929D01*
X136269745Y-66388167D01*
X136317364Y-66578643D01*
X136317364Y-66816738D01*
X136269745Y-67007214D01*
X136222126Y-67102452D01*
X136174507Y-67150071D01*
X136079269Y-67197690D01*
X135984031Y-67197690D01*
X135888793Y-67150071D01*
X135841174Y-67102452D01*
X135793555Y-67007214D01*
X135745936Y-66816738D01*
X135745936Y-66578643D01*
X135793555Y-66388167D01*
X135841174Y-66292929D01*
X135888793Y-66245310D01*
X135984031Y-66197690D01*
X138476190Y-73476190D02*
X138952380Y-73476190D01*
X137952380Y-73809523D02*
X138476190Y-73476190D01*
X137952380Y-73142857D01*
X138952380Y-72285714D02*
X138952380Y-72857142D01*
X138952380Y-72571428D02*
X137952380Y-72571428D01*
X138095238Y-72666666D01*
X138190476Y-72761904D01*
X138238095Y-72857142D01*
X145452380Y-109738095D02*
X144452380Y-109738095D01*
X144452380Y-109500000D01*
X144500000Y-109357142D01*
X144595238Y-109261904D01*
X144690476Y-109214285D01*
X144880952Y-109166666D01*
X145023809Y-109166666D01*
X145214285Y-109214285D01*
X145309523Y-109261904D01*
X145404761Y-109357142D01*
X145452380Y-109500000D01*
X145452380Y-109738095D01*
X144452380Y-108833333D02*
X144452380Y-108214285D01*
X144833333Y-108547619D01*
X144833333Y-108404761D01*
X144880952Y-108309523D01*
X144928571Y-108261904D01*
X145023809Y-108214285D01*
X145261904Y-108214285D01*
X145357142Y-108261904D01*
X145404761Y-108309523D01*
X145452380Y-108404761D01*
X145452380Y-108690476D01*
X145404761Y-108785714D01*
X145357142Y-108833333D01*
X143107562Y-97316338D02*
X143155181Y-97173481D01*
X143155181Y-96935385D01*
X143107562Y-96840147D01*
X143059943Y-96792528D01*
X142964705Y-96744909D01*
X142869467Y-96744909D01*
X142774229Y-96792528D01*
X142726610Y-96840147D01*
X142678991Y-96935385D01*
X142631372Y-97125862D01*
X142583753Y-97221100D01*
X142536134Y-97268719D01*
X142440896Y-97316338D01*
X142345658Y-97316338D01*
X142250420Y-97268719D01*
X142202801Y-97221100D01*
X142155181Y-97125862D01*
X142155181Y-96887766D01*
X142202801Y-96744909D01*
X142155181Y-96411576D02*
X143155181Y-96173481D01*
X142440896Y-95983005D01*
X143155181Y-95792528D01*
X142155181Y-95554433D01*
X142155181Y-95268719D02*
X142155181Y-94649671D01*
X142536134Y-94983005D01*
X142536134Y-94840147D01*
X142583753Y-94744909D01*
X142631372Y-94697290D01*
X142726610Y-94649671D01*
X142964705Y-94649671D01*
X143059943Y-94697290D01*
X143107562Y-94744909D01*
X143155181Y-94840147D01*
X143155181Y-95125862D01*
X143107562Y-95221100D01*
X143059943Y-95268719D01*
X119238095Y-102252380D02*
X119238095Y-101252380D01*
X119238095Y-101728571D02*
X119809523Y-101728571D01*
X119809523Y-102252380D02*
X119809523Y-101252380D01*
X120238095Y-101347619D02*
X120285714Y-101300000D01*
X120380952Y-101252380D01*
X120619047Y-101252380D01*
X120714285Y-101300000D01*
X120761904Y-101347619D01*
X120809523Y-101442857D01*
X120809523Y-101538095D01*
X120761904Y-101680952D01*
X120190476Y-102252380D01*
X120809523Y-102252380D01*
X145613027Y-67461986D02*
X145565408Y-67509605D01*
X145422551Y-67557224D01*
X145327313Y-67557224D01*
X145184455Y-67509605D01*
X145089217Y-67414367D01*
X145041598Y-67319129D01*
X144993979Y-67128653D01*
X144993979Y-66985796D01*
X145041598Y-66795320D01*
X145089217Y-66700082D01*
X145184455Y-66604844D01*
X145327313Y-66557224D01*
X145422551Y-66557224D01*
X145565408Y-66604844D01*
X145613027Y-66652463D01*
X146565408Y-67557224D02*
X145993979Y-67557224D01*
X146279694Y-67557224D02*
X146279694Y-66557224D01*
X146184455Y-66700082D01*
X146089217Y-66795320D01*
X145993979Y-66842939D01*
X126404761Y-106923249D02*
X126452380Y-106780392D01*
X126452380Y-106542296D01*
X126404761Y-106447058D01*
X126357142Y-106399439D01*
X126261904Y-106351820D01*
X126166666Y-106351820D01*
X126071428Y-106399439D01*
X126023809Y-106447058D01*
X125976190Y-106542296D01*
X125928571Y-106732773D01*
X125880952Y-106828011D01*
X125833333Y-106875630D01*
X125738095Y-106923249D01*
X125642857Y-106923249D01*
X125547619Y-106875630D01*
X125500000Y-106828011D01*
X125452380Y-106732773D01*
X125452380Y-106494677D01*
X125500000Y-106351820D01*
X125452380Y-106018487D02*
X126452380Y-105780392D01*
X125738095Y-105589916D01*
X126452380Y-105399439D01*
X125452380Y-105161344D01*
X126452380Y-104256582D02*
X126452380Y-104828011D01*
X126452380Y-104542296D02*
X125452380Y-104542296D01*
X125595238Y-104637535D01*
X125690476Y-104732773D01*
X125738095Y-104828011D01*
X160691666Y-105827380D02*
X160691666Y-106541666D01*
X160644047Y-106684523D01*
X160548809Y-106779761D01*
X160405952Y-106827380D01*
X160310714Y-106827380D01*
X161644047Y-105827380D02*
X161167857Y-105827380D01*
X161120238Y-106303571D01*
X161167857Y-106255952D01*
X161263095Y-106208333D01*
X161501190Y-106208333D01*
X161596428Y-106255952D01*
X161644047Y-106303571D01*
X161691666Y-106398809D01*
X161691666Y-106636904D01*
X161644047Y-106732142D01*
X161596428Y-106779761D01*
X161501190Y-106827380D01*
X161263095Y-106827380D01*
X161167857Y-106779761D01*
X161120238Y-106732142D01*
X118465425Y-62223660D02*
X118465425Y-61223660D01*
X118703521Y-61223660D01*
X118846378Y-61271280D01*
X118941616Y-61366518D01*
X118989235Y-61461756D01*
X119036854Y-61652232D01*
X119036854Y-61795089D01*
X118989235Y-61985565D01*
X118941616Y-62080803D01*
X118846378Y-62176041D01*
X118703521Y-62223660D01*
X118465425Y-62223660D01*
X119989235Y-62223660D02*
X119417806Y-62223660D01*
X119703521Y-62223660D02*
X119703521Y-61223660D01*
X119608282Y-61366518D01*
X119513044Y-61461756D01*
X119417806Y-61509375D01*
X145452380Y-99166666D02*
X144976190Y-99500000D01*
X145452380Y-99738095D02*
X144452380Y-99738095D01*
X144452380Y-99357142D01*
X144500000Y-99261904D01*
X144547619Y-99214285D01*
X144642857Y-99166666D01*
X144785714Y-99166666D01*
X144880952Y-99214285D01*
X144928571Y-99261904D01*
X144976190Y-99357142D01*
X144976190Y-99738095D01*
X144880952Y-98595238D02*
X144833333Y-98690476D01*
X144785714Y-98738095D01*
X144690476Y-98785714D01*
X144642857Y-98785714D01*
X144547619Y-98738095D01*
X144500000Y-98690476D01*
X144452380Y-98595238D01*
X144452380Y-98404761D01*
X144500000Y-98309523D01*
X144547619Y-98261904D01*
X144642857Y-98214285D01*
X144690476Y-98214285D01*
X144785714Y-98261904D01*
X144833333Y-98309523D01*
X144880952Y-98404761D01*
X144880952Y-98595238D01*
X144928571Y-98690476D01*
X144976190Y-98738095D01*
X145071428Y-98785714D01*
X145261904Y-98785714D01*
X145357142Y-98738095D01*
X145404761Y-98690476D01*
X145452380Y-98595238D01*
X145452380Y-98404761D01*
X145404761Y-98309523D01*
X145357142Y-98261904D01*
X145261904Y-98214285D01*
X145071428Y-98214285D01*
X144976190Y-98261904D01*
X144928571Y-98309523D01*
X144880952Y-98404761D01*
X148857142Y-61452380D02*
X148523809Y-60976190D01*
X148285714Y-61452380D02*
X148285714Y-60452380D01*
X148666666Y-60452380D01*
X148761904Y-60500000D01*
X148809523Y-60547619D01*
X148857142Y-60642857D01*
X148857142Y-60785714D01*
X148809523Y-60880952D01*
X148761904Y-60928571D01*
X148666666Y-60976190D01*
X148285714Y-60976190D01*
X149809523Y-61452380D02*
X149238095Y-61452380D01*
X149523809Y-61452380D02*
X149523809Y-60452380D01*
X149428571Y-60595238D01*
X149333333Y-60690476D01*
X149238095Y-60738095D01*
X150190476Y-60547619D02*
X150238095Y-60500000D01*
X150333333Y-60452380D01*
X150571428Y-60452380D01*
X150666666Y-60500000D01*
X150714285Y-60547619D01*
X150761904Y-60642857D01*
X150761904Y-60738095D01*
X150714285Y-60880952D01*
X150142857Y-61452380D01*
X150761904Y-61452380D01*
X147917016Y-109840473D02*
X146917016Y-109840473D01*
X146917016Y-109602378D01*
X146964636Y-109459520D01*
X147059874Y-109364282D01*
X147155112Y-109316663D01*
X147345588Y-109269044D01*
X147488445Y-109269044D01*
X147678921Y-109316663D01*
X147774159Y-109364282D01*
X147869397Y-109459520D01*
X147917016Y-109602378D01*
X147917016Y-109840473D01*
X147250350Y-108411901D02*
X147917016Y-108411901D01*
X146869397Y-108649997D02*
X147583683Y-108888092D01*
X147583683Y-108269044D01*
X150294684Y-99642857D02*
X149818494Y-99976190D01*
X150294684Y-100214285D02*
X149294684Y-100214285D01*
X149294684Y-99833333D01*
X149342304Y-99738095D01*
X149389923Y-99690476D01*
X149485161Y-99642857D01*
X149628018Y-99642857D01*
X149723256Y-99690476D01*
X149770875Y-99738095D01*
X149818494Y-99833333D01*
X149818494Y-100214285D01*
X150294684Y-98690476D02*
X150294684Y-99261904D01*
X150294684Y-98976190D02*
X149294684Y-98976190D01*
X149437542Y-99071428D01*
X149532780Y-99166666D01*
X149580399Y-99261904D01*
X150294684Y-97738095D02*
X150294684Y-98309523D01*
X150294684Y-98023809D02*
X149294684Y-98023809D01*
X149437542Y-98119047D01*
X149532780Y-98214285D01*
X149580399Y-98309523D01*
X123084968Y-62019776D02*
X122751635Y-61543586D01*
X122513539Y-62019776D02*
X122513539Y-61019776D01*
X122894492Y-61019776D01*
X122989730Y-61067396D01*
X123037349Y-61115015D01*
X123084968Y-61210253D01*
X123084968Y-61353110D01*
X123037349Y-61448348D01*
X122989730Y-61495967D01*
X122894492Y-61543586D01*
X122513539Y-61543586D01*
X123942111Y-61019776D02*
X123751635Y-61019776D01*
X123656396Y-61067396D01*
X123608777Y-61115015D01*
X123513539Y-61257872D01*
X123465920Y-61448348D01*
X123465920Y-61829300D01*
X123513539Y-61924538D01*
X123561158Y-61972157D01*
X123656396Y-62019776D01*
X123846873Y-62019776D01*
X123942111Y-61972157D01*
X123989730Y-61924538D01*
X124037349Y-61829300D01*
X124037349Y-61591205D01*
X123989730Y-61495967D01*
X123942111Y-61448348D01*
X123846873Y-61400729D01*
X123656396Y-61400729D01*
X123561158Y-61448348D01*
X123513539Y-61495967D01*
X123465920Y-61591205D01*
X138357142Y-82037142D02*
X138309523Y-82084761D01*
X138166666Y-82132380D01*
X138071428Y-82132380D01*
X137928571Y-82084761D01*
X137833333Y-81989523D01*
X137785714Y-81894285D01*
X137738095Y-81703809D01*
X137738095Y-81560952D01*
X137785714Y-81370476D01*
X137833333Y-81275238D01*
X137928571Y-81180000D01*
X138071428Y-81132380D01*
X138166666Y-81132380D01*
X138309523Y-81180000D01*
X138357142Y-81227619D01*
X139309523Y-82132380D02*
X138738095Y-82132380D01*
X139023809Y-82132380D02*
X139023809Y-81132380D01*
X138928571Y-81275238D01*
X138833333Y-81370476D01*
X138738095Y-81418095D01*
X140261904Y-82132380D02*
X139690476Y-82132380D01*
X139976190Y-82132380D02*
X139976190Y-81132380D01*
X139880952Y-81275238D01*
X139785714Y-81370476D01*
X139690476Y-81418095D01*
X163248095Y-89452380D02*
X163248095Y-90261904D01*
X163295714Y-90357142D01*
X163343333Y-90404761D01*
X163438571Y-90452380D01*
X163629047Y-90452380D01*
X163724285Y-90404761D01*
X163771904Y-90357142D01*
X163819523Y-90261904D01*
X163819523Y-89452380D01*
X164248095Y-89547619D02*
X164295714Y-89500000D01*
X164390952Y-89452380D01*
X164629047Y-89452380D01*
X164724285Y-89500000D01*
X164771904Y-89547619D01*
X164819523Y-89642857D01*
X164819523Y-89738095D01*
X164771904Y-89880952D01*
X164200476Y-90452380D01*
X164819523Y-90452380D01*
X138245658Y-91437058D02*
X138198039Y-91484677D01*
X138055182Y-91532296D01*
X137959944Y-91532296D01*
X137817086Y-91484677D01*
X137721848Y-91389439D01*
X137674229Y-91294201D01*
X137626610Y-91103725D01*
X137626610Y-90960868D01*
X137674229Y-90770392D01*
X137721848Y-90675154D01*
X137817086Y-90579916D01*
X137959944Y-90532296D01*
X138055182Y-90532296D01*
X138198039Y-90579916D01*
X138245658Y-90627535D01*
X138578991Y-90532296D02*
X139245658Y-90532296D01*
X138817086Y-91532296D01*
X174238095Y-52452380D02*
X174238095Y-51452380D01*
X174238095Y-51928571D02*
X174809523Y-51928571D01*
X174809523Y-52452380D02*
X174809523Y-51452380D01*
X175714285Y-51785714D02*
X175714285Y-52452380D01*
X175476190Y-51404761D02*
X175238095Y-52119047D01*
X175857142Y-52119047D01*
X178006046Y-62647793D02*
X178720332Y-62647793D01*
X178863189Y-62695412D01*
X178958427Y-62790650D01*
X179006046Y-62933507D01*
X179006046Y-63028745D01*
X178339380Y-61743031D02*
X179006046Y-61743031D01*
X177958427Y-61981126D02*
X178672713Y-62219221D01*
X178672713Y-61600174D01*
X161971986Y-58431193D02*
X162686272Y-58431193D01*
X162829129Y-58478812D01*
X162924367Y-58574050D01*
X162971986Y-58716907D01*
X162971986Y-58812145D01*
X161971986Y-58050240D02*
X161971986Y-57383574D01*
X162971986Y-57812145D01*
X152238095Y-67572380D02*
X152238095Y-68381904D01*
X152285714Y-68477142D01*
X152333333Y-68524761D01*
X152428571Y-68572380D01*
X152619047Y-68572380D01*
X152714285Y-68524761D01*
X152761904Y-68477142D01*
X152809523Y-68381904D01*
X152809523Y-67572380D01*
X153809523Y-68572380D02*
X153238095Y-68572380D01*
X153523809Y-68572380D02*
X153523809Y-67572380D01*
X153428571Y-67715238D01*
X153333333Y-67810476D01*
X153238095Y-67858095D01*
X177452380Y-92745325D02*
X178166666Y-92745325D01*
X178309523Y-92792944D01*
X178404761Y-92888182D01*
X178452380Y-93031039D01*
X178452380Y-93126277D01*
X177452380Y-91840563D02*
X177452380Y-92031039D01*
X177500000Y-92126277D01*
X177547619Y-92173896D01*
X177690476Y-92269134D01*
X177880952Y-92316753D01*
X178261904Y-92316753D01*
X178357142Y-92269134D01*
X178404761Y-92221515D01*
X178452380Y-92126277D01*
X178452380Y-91935801D01*
X178404761Y-91840563D01*
X178357142Y-91792944D01*
X178261904Y-91745325D01*
X178023809Y-91745325D01*
X177928571Y-91792944D01*
X177880952Y-91840563D01*
X177833333Y-91935801D01*
X177833333Y-92126277D01*
X177880952Y-92221515D01*
X177928571Y-92269134D01*
X178023809Y-92316753D01*
X123307441Y-66098458D02*
X122974108Y-65622268D01*
X122736012Y-66098458D02*
X122736012Y-65098458D01*
X123116965Y-65098458D01*
X123212203Y-65146078D01*
X123259822Y-65193697D01*
X123307441Y-65288935D01*
X123307441Y-65431792D01*
X123259822Y-65527030D01*
X123212203Y-65574649D01*
X123116965Y-65622268D01*
X122736012Y-65622268D01*
X123640774Y-65098458D02*
X124307441Y-65098458D01*
X123878869Y-66098458D01*
X143060552Y-107123249D02*
X143108171Y-106980392D01*
X143108171Y-106742296D01*
X143060552Y-106647058D01*
X143012933Y-106599439D01*
X142917695Y-106551820D01*
X142822457Y-106551820D01*
X142727219Y-106599439D01*
X142679600Y-106647058D01*
X142631981Y-106742296D01*
X142584362Y-106932773D01*
X142536743Y-107028011D01*
X142489124Y-107075630D01*
X142393886Y-107123249D01*
X142298648Y-107123249D01*
X142203410Y-107075630D01*
X142155791Y-107028011D01*
X142108171Y-106932773D01*
X142108171Y-106694677D01*
X142155791Y-106551820D01*
X142108171Y-106218487D02*
X143108171Y-105980392D01*
X142393886Y-105789916D01*
X143108171Y-105599439D01*
X142108171Y-105361344D01*
X142203410Y-105028011D02*
X142155791Y-104980392D01*
X142108171Y-104885154D01*
X142108171Y-104647058D01*
X142155791Y-104551820D01*
X142203410Y-104504201D01*
X142298648Y-104456582D01*
X142393886Y-104456582D01*
X142536743Y-104504201D01*
X143108171Y-105075630D01*
X143108171Y-104456582D01*
X179238095Y-102252380D02*
X179238095Y-101252380D01*
X179238095Y-101728571D02*
X179809523Y-101728571D01*
X179809523Y-102252380D02*
X179809523Y-101252380D01*
X180809523Y-102252380D02*
X180238095Y-102252380D01*
X180523809Y-102252380D02*
X180523809Y-101252380D01*
X180428571Y-101395238D01*
X180333333Y-101490476D01*
X180238095Y-101538095D01*
X142357142Y-82452380D02*
X142023809Y-81976190D01*
X141785714Y-82452380D02*
X141785714Y-81452380D01*
X142166666Y-81452380D01*
X142261904Y-81500000D01*
X142309523Y-81547619D01*
X142357142Y-81642857D01*
X142357142Y-81785714D01*
X142309523Y-81880952D01*
X142261904Y-81928571D01*
X142166666Y-81976190D01*
X141785714Y-81976190D01*
X143309523Y-82452380D02*
X142738095Y-82452380D01*
X143023809Y-82452380D02*
X143023809Y-81452380D01*
X142928571Y-81595238D01*
X142833333Y-81690476D01*
X142738095Y-81738095D01*
X143928571Y-81452380D02*
X144023809Y-81452380D01*
X144119047Y-81500000D01*
X144166666Y-81547619D01*
X144214285Y-81642857D01*
X144261904Y-81833333D01*
X144261904Y-82071428D01*
X144214285Y-82261904D01*
X144166666Y-82357142D01*
X144119047Y-82404761D01*
X144023809Y-82452380D01*
X143928571Y-82452380D01*
X143833333Y-82404761D01*
X143785714Y-82357142D01*
X143738095Y-82261904D01*
X143690476Y-82071428D01*
X143690476Y-81833333D01*
X143738095Y-81642857D01*
X143785714Y-81547619D01*
X143833333Y-81500000D01*
X143928571Y-81452380D01*
X147919684Y-99166666D02*
X147443494Y-99500000D01*
X147919684Y-99738095D02*
X146919684Y-99738095D01*
X146919684Y-99357142D01*
X146967304Y-99261904D01*
X147014923Y-99214285D01*
X147110161Y-99166666D01*
X147253018Y-99166666D01*
X147348256Y-99214285D01*
X147395875Y-99261904D01*
X147443494Y-99357142D01*
X147443494Y-99738095D01*
X147919684Y-98690476D02*
X147919684Y-98500000D01*
X147872065Y-98404761D01*
X147824446Y-98357142D01*
X147681589Y-98261904D01*
X147491113Y-98214285D01*
X147110161Y-98214285D01*
X147014923Y-98261904D01*
X146967304Y-98309523D01*
X146919684Y-98404761D01*
X146919684Y-98595238D01*
X146967304Y-98690476D01*
X147014923Y-98738095D01*
X147110161Y-98785714D01*
X147348256Y-98785714D01*
X147443494Y-98738095D01*
X147491113Y-98690476D01*
X147538732Y-98595238D01*
X147538732Y-98404761D01*
X147491113Y-98309523D01*
X147443494Y-98261904D01*
X147348256Y-98214285D01*
X122452380Y-75533333D02*
X123166666Y-75533333D01*
X123309523Y-75580952D01*
X123404761Y-75676190D01*
X123452380Y-75819047D01*
X123452380Y-75914285D01*
X122452380Y-75152380D02*
X122452380Y-74533333D01*
X122833333Y-74866666D01*
X122833333Y-74723809D01*
X122880952Y-74628571D01*
X122928571Y-74580952D01*
X123023809Y-74533333D01*
X123261904Y-74533333D01*
X123357142Y-74580952D01*
X123404761Y-74628571D01*
X123452380Y-74723809D01*
X123452380Y-75009523D01*
X123404761Y-75104761D01*
X123357142Y-75152380D01*
X160357142Y-81166666D02*
X160404761Y-81214285D01*
X160452380Y-81357142D01*
X160452380Y-81452380D01*
X160404761Y-81595238D01*
X160309523Y-81690476D01*
X160214285Y-81738095D01*
X160023809Y-81785714D01*
X159880952Y-81785714D01*
X159690476Y-81738095D01*
X159595238Y-81690476D01*
X159500000Y-81595238D01*
X159452380Y-81452380D01*
X159452380Y-81357142D01*
X159500000Y-81214285D01*
X159547619Y-81166666D01*
X159452380Y-80833333D02*
X159452380Y-80214285D01*
X159833333Y-80547619D01*
X159833333Y-80404761D01*
X159880952Y-80309523D01*
X159928571Y-80261904D01*
X160023809Y-80214285D01*
X160261904Y-80214285D01*
X160357142Y-80261904D01*
X160404761Y-80309523D01*
X160452380Y-80404761D01*
X160452380Y-80690476D01*
X160404761Y-80785714D01*
X160357142Y-80833333D01*
X145553306Y-69392975D02*
X145505687Y-69440594D01*
X145362830Y-69488213D01*
X145267592Y-69488213D01*
X145124734Y-69440594D01*
X145029496Y-69345356D01*
X144981877Y-69250118D01*
X144934258Y-69059642D01*
X144934258Y-68916785D01*
X144981877Y-68726309D01*
X145029496Y-68631071D01*
X145124734Y-68535833D01*
X145267592Y-68488213D01*
X145362830Y-68488213D01*
X145505687Y-68535833D01*
X145553306Y-68583452D01*
X145934258Y-68583452D02*
X145981877Y-68535833D01*
X146077115Y-68488213D01*
X146315211Y-68488213D01*
X146410449Y-68535833D01*
X146458068Y-68583452D01*
X146505687Y-68678690D01*
X146505687Y-68773928D01*
X146458068Y-68916785D01*
X145886639Y-69488213D01*
X146505687Y-69488213D01*
X124238095Y-52452380D02*
X124238095Y-51452380D01*
X124238095Y-51928571D02*
X124809523Y-51928571D01*
X124809523Y-52452380D02*
X124809523Y-51452380D01*
X125190476Y-51452380D02*
X125809523Y-51452380D01*
X125476190Y-51833333D01*
X125619047Y-51833333D01*
X125714285Y-51880952D01*
X125761904Y-51928571D01*
X125809523Y-52023809D01*
X125809523Y-52261904D01*
X125761904Y-52357142D01*
X125714285Y-52404761D01*
X125619047Y-52452380D01*
X125333333Y-52452380D01*
X125238095Y-52404761D01*
X125190476Y-52357142D01*
X150237944Y-109811485D02*
X149237944Y-109811485D01*
X149237944Y-109573390D01*
X149285564Y-109430532D01*
X149380802Y-109335294D01*
X149476040Y-109287675D01*
X149666516Y-109240056D01*
X149809373Y-109240056D01*
X149999849Y-109287675D01*
X150095087Y-109335294D01*
X150190325Y-109430532D01*
X150237944Y-109573390D01*
X150237944Y-109811485D01*
X149237944Y-108335294D02*
X149237944Y-108811485D01*
X149714135Y-108859104D01*
X149666516Y-108811485D01*
X149618897Y-108716247D01*
X149618897Y-108478151D01*
X149666516Y-108382913D01*
X149714135Y-108335294D01*
X149809373Y-108287675D01*
X150047468Y-108287675D01*
X150142706Y-108335294D01*
X150190325Y-108382913D01*
X150237944Y-108478151D01*
X150237944Y-108716247D01*
X150190325Y-108811485D01*
X150142706Y-108859104D01*
X176952380Y-76333333D02*
X177666666Y-76333333D01*
X177809523Y-76380952D01*
X177904761Y-76476190D01*
X177952380Y-76619047D01*
X177952380Y-76714285D01*
X177047619Y-75904761D02*
X177000000Y-75857142D01*
X176952380Y-75761904D01*
X176952380Y-75523809D01*
X177000000Y-75428571D01*
X177047619Y-75380952D01*
X177142857Y-75333333D01*
X177238095Y-75333333D01*
X177380952Y-75380952D01*
X177952380Y-75952380D01*
X177952380Y-75333333D01*
X118480615Y-66222380D02*
X118480615Y-65222380D01*
X118718711Y-65222380D01*
X118861568Y-65270000D01*
X118956806Y-65365238D01*
X119004425Y-65460476D01*
X119052044Y-65650952D01*
X119052044Y-65793809D01*
X119004425Y-65984285D01*
X118956806Y-66079523D01*
X118861568Y-66174761D01*
X118718711Y-66222380D01*
X118480615Y-66222380D01*
X119432996Y-65317619D02*
X119480615Y-65270000D01*
X119575853Y-65222380D01*
X119813949Y-65222380D01*
X119909187Y-65270000D01*
X119956806Y-65317619D01*
X120004425Y-65412857D01*
X120004425Y-65508095D01*
X119956806Y-65650952D01*
X119385377Y-66222380D01*
X120004425Y-66222380D01*
X136857142Y-61452380D02*
X136523809Y-60976190D01*
X136285714Y-61452380D02*
X136285714Y-60452380D01*
X136666666Y-60452380D01*
X136761904Y-60500000D01*
X136809523Y-60547619D01*
X136857142Y-60642857D01*
X136857142Y-60785714D01*
X136809523Y-60880952D01*
X136761904Y-60928571D01*
X136666666Y-60976190D01*
X136285714Y-60976190D01*
X137809523Y-61452380D02*
X137238095Y-61452380D01*
X137523809Y-61452380D02*
X137523809Y-60452380D01*
X137428571Y-60595238D01*
X137333333Y-60690476D01*
X137238095Y-60738095D01*
X138142857Y-60452380D02*
X138761904Y-60452380D01*
X138428571Y-60833333D01*
X138571428Y-60833333D01*
X138666666Y-60880952D01*
X138714285Y-60928571D01*
X138761904Y-61023809D01*
X138761904Y-61261904D01*
X138714285Y-61357142D01*
X138666666Y-61404761D01*
X138571428Y-61452380D01*
X138285714Y-61452380D01*
X138190476Y-61404761D01*
X138142857Y-61357142D01*
X130817086Y-97326239D02*
X130864705Y-97183382D01*
X130864705Y-96945286D01*
X130817086Y-96850048D01*
X130769467Y-96802429D01*
X130674229Y-96754810D01*
X130578991Y-96754810D01*
X130483753Y-96802429D01*
X130436134Y-96850048D01*
X130388515Y-96945286D01*
X130340896Y-97135763D01*
X130293277Y-97231001D01*
X130245658Y-97278620D01*
X130150420Y-97326239D01*
X130055182Y-97326239D01*
X129959944Y-97278620D01*
X129912325Y-97231001D01*
X129864705Y-97135763D01*
X129864705Y-96897667D01*
X129912325Y-96754810D01*
X129864705Y-96421477D02*
X130864705Y-96183382D01*
X130150420Y-95992906D01*
X130864705Y-95802429D01*
X129864705Y-95564334D01*
X130198039Y-94754810D02*
X130864705Y-94754810D01*
X129817086Y-94992906D02*
X130531372Y-95231001D01*
X130531372Y-94611953D01*
X158357142Y-81166666D02*
X158404761Y-81214285D01*
X158452380Y-81357142D01*
X158452380Y-81452380D01*
X158404761Y-81595238D01*
X158309523Y-81690476D01*
X158214285Y-81738095D01*
X158023809Y-81785714D01*
X157880952Y-81785714D01*
X157690476Y-81738095D01*
X157595238Y-81690476D01*
X157500000Y-81595238D01*
X157452380Y-81452380D01*
X157452380Y-81357142D01*
X157500000Y-81214285D01*
X157547619Y-81166666D01*
X157452380Y-80309523D02*
X157452380Y-80500000D01*
X157500000Y-80595238D01*
X157547619Y-80642857D01*
X157690476Y-80738095D01*
X157880952Y-80785714D01*
X158261904Y-80785714D01*
X158357142Y-80738095D01*
X158404761Y-80690476D01*
X158452380Y-80595238D01*
X158452380Y-80404761D01*
X158404761Y-80309523D01*
X158357142Y-80261904D01*
X158261904Y-80214285D01*
X158023809Y-80214285D01*
X157928571Y-80261904D01*
X157880952Y-80309523D01*
X157833333Y-80404761D01*
X157833333Y-80595238D01*
X157880952Y-80690476D01*
X157928571Y-80738095D01*
X158023809Y-80785714D01*
X121952380Y-85533333D02*
X122666666Y-85533333D01*
X122809523Y-85580952D01*
X122904761Y-85676190D01*
X122952380Y-85819047D01*
X122952380Y-85914285D01*
X122952380Y-84533333D02*
X122952380Y-85104761D01*
X122952380Y-84819047D02*
X121952380Y-84819047D01*
X122095238Y-84914285D01*
X122190476Y-85009523D01*
X122238095Y-85104761D01*
D12*
X153735000Y-64772936D02*
X153735000Y-65227064D01*
X152265000Y-64772936D02*
X152265000Y-65227064D01*
X139316712Y-66010310D02*
X138794208Y-66010310D01*
X139316712Y-67480310D02*
X138794208Y-67480310D01*
X141095000Y-75865000D02*
X141095000Y-70865000D01*
X135695000Y-75865000D02*
X135695000Y-70865000D01*
X135695000Y-75865000D02*
G75*
G03*
X141095000Y-75865000I2700000J0D01*
G01*
X141095000Y-70865000D02*
G75*
G03*
X135695000Y-70865000I-2700000J0D01*
G01*
X144265000Y-105200000D02*
X144265000Y-107660000D01*
X145735000Y-107660000D02*
X145735000Y-105200000D01*
X144265000Y-107660000D02*
X145735000Y-107660000D01*
X138750000Y-92500000D02*
X137250000Y-92500000D01*
X134750000Y-93750000D02*
X134750000Y-98250000D01*
X141250000Y-98250000D02*
X141250000Y-93750000D01*
X137250000Y-99500000D02*
X138750000Y-99500000D01*
X148120786Y-67724844D02*
X147916848Y-67724844D01*
X148120786Y-66484844D02*
X147916848Y-66484844D01*
X127162325Y-103339916D02*
X127162325Y-107839916D01*
X133662325Y-107839916D02*
X133662325Y-103339916D01*
X129662325Y-109089916D02*
X131162325Y-109089916D01*
X131162325Y-102089916D02*
X129662325Y-102089916D01*
X153345000Y-110690000D02*
X153345000Y-102060000D01*
X153701190Y-110690000D02*
X153701190Y-102060000D01*
X168705000Y-110690000D02*
X168705000Y-102060000D01*
X155035000Y-102060000D02*
X155035000Y-101710000D01*
X155708805Y-110690000D02*
X155708805Y-102060000D01*
X154315000Y-102060000D02*
X154315000Y-101710000D01*
X160115000Y-102060000D02*
X160115000Y-101650000D01*
X153345000Y-100600000D02*
X153345000Y-99490000D01*
X167015000Y-102060000D02*
X167015000Y-101650000D01*
X161935000Y-102060000D02*
X161935000Y-101650000D01*
X154409760Y-110690000D02*
X154409760Y-102060000D01*
X159395000Y-102060000D02*
X159395000Y-101650000D01*
X166105000Y-110690000D02*
X166105000Y-102060000D01*
X155354520Y-110690000D02*
X155354520Y-102060000D01*
X154173570Y-110690000D02*
X154173570Y-102060000D01*
X158485000Y-110690000D02*
X158485000Y-102060000D01*
X155945000Y-110690000D02*
X155945000Y-102060000D01*
X154527855Y-110690000D02*
X154527855Y-102060000D01*
X153819285Y-110690000D02*
X153819285Y-102060000D01*
X156855000Y-102060000D02*
X156855000Y-101650000D01*
X155826900Y-110690000D02*
X155826900Y-102060000D01*
X154764045Y-110690000D02*
X154764045Y-102060000D01*
X164475000Y-102060000D02*
X164475000Y-101650000D01*
X153465000Y-110690000D02*
X153465000Y-102060000D01*
X153583095Y-110690000D02*
X153583095Y-102060000D01*
X155590710Y-110690000D02*
X155590710Y-102060000D01*
X155000235Y-110690000D02*
X155000235Y-102060000D01*
X154291665Y-110690000D02*
X154291665Y-102060000D01*
X153345000Y-99490000D02*
X154675000Y-99490000D01*
X167735000Y-102060000D02*
X167735000Y-101650000D01*
X154055475Y-110690000D02*
X154055475Y-102060000D01*
X153937380Y-110690000D02*
X153937380Y-102060000D01*
X161025000Y-110690000D02*
X161025000Y-102060000D01*
X154882140Y-110690000D02*
X154882140Y-102060000D01*
X155236425Y-110690000D02*
X155236425Y-102060000D01*
X153345000Y-110690000D02*
X168705000Y-110690000D01*
X153345000Y-102060000D02*
X168705000Y-102060000D01*
X154645950Y-110690000D02*
X154645950Y-102060000D01*
X163565000Y-110690000D02*
X163565000Y-102060000D01*
X155472615Y-110690000D02*
X155472615Y-102060000D01*
X162655000Y-102060000D02*
X162655000Y-101650000D01*
X157575000Y-102060000D02*
X157575000Y-101650000D01*
X165195000Y-102060000D02*
X165195000Y-101650000D01*
X155118330Y-110690000D02*
X155118330Y-102060000D01*
X120003521Y-62466280D02*
X117543521Y-62466280D01*
X117543521Y-62466280D02*
X117543521Y-63936280D01*
X117543521Y-63936280D02*
X120003521Y-63936280D01*
X145735000Y-101772936D02*
X145735000Y-102227064D01*
X144265000Y-101772936D02*
X144265000Y-102227064D01*
X145772936Y-61735000D02*
X146227064Y-61735000D01*
X145772936Y-60265000D02*
X146227064Y-60265000D01*
X146732304Y-107660000D02*
X148202304Y-107660000D01*
X148202304Y-107660000D02*
X148202304Y-105200000D01*
X146732304Y-105200000D02*
X146732304Y-107660000D01*
X149107304Y-101772936D02*
X149107304Y-102227064D01*
X150577304Y-101772936D02*
X150577304Y-102227064D01*
X123482556Y-63935000D02*
X123028428Y-63935000D01*
X123482556Y-62465000D02*
X123028428Y-62465000D01*
X139261252Y-80735000D02*
X138738748Y-80735000D01*
X139261252Y-79265000D02*
X138738748Y-79265000D01*
X161360000Y-84870000D02*
X161360000Y-95150000D01*
X161360000Y-95150000D02*
X166660000Y-95150000D01*
X166660000Y-84870000D02*
X165010000Y-84870000D01*
X166660000Y-95150000D02*
X166660000Y-84870000D01*
X163010000Y-84870000D02*
X161360000Y-84870000D01*
X163010000Y-84870000D02*
G75*
G03*
X165010000Y-84870000I1000000J0D01*
G01*
X138514294Y-90209916D02*
X138310356Y-90209916D01*
X138514294Y-88969916D02*
X138310356Y-88969916D01*
X182163666Y-60314460D02*
X182163666Y-59164460D01*
X182163666Y-64664460D02*
X182163666Y-63514460D01*
X184463666Y-58054460D02*
X171643666Y-58054460D01*
X182163666Y-60314460D02*
X177153666Y-60314460D01*
X171643666Y-59274460D02*
X174543666Y-59274460D01*
X180563666Y-59814460D02*
X180563666Y-58714460D01*
X180353666Y-61514460D02*
X180353666Y-62314460D01*
X184463666Y-64664460D02*
X182163666Y-64664460D01*
X180353666Y-62314460D02*
X178553666Y-62314460D01*
X174543666Y-59274460D02*
X174543666Y-59554460D01*
X177153666Y-65114460D02*
X177153666Y-65774460D01*
X173553666Y-62764460D02*
X173953666Y-63164460D01*
X180563666Y-65114460D02*
X177153666Y-65114460D01*
X177153666Y-64014460D02*
X180563666Y-64014460D01*
X171643666Y-64554460D02*
X171643666Y-65774460D01*
X171643666Y-58054460D02*
X171643666Y-59274460D01*
X182163666Y-63514460D02*
X177153666Y-63514460D01*
X171643666Y-65774460D02*
X184463666Y-65774460D01*
X173553666Y-63564460D02*
X173553666Y-62764460D01*
X174543666Y-64554460D02*
X171643666Y-64554460D01*
X177153666Y-63514460D02*
X177153666Y-64014460D01*
X180563666Y-64014460D02*
X180563666Y-65114460D01*
X178553666Y-62314460D02*
X178553666Y-61514460D01*
X173953666Y-63164460D02*
X173553666Y-63564460D01*
X177153666Y-60314460D02*
X177153666Y-59814460D01*
X184463666Y-65774460D02*
X184463666Y-58054460D01*
X178553666Y-61514460D02*
X180353666Y-61514460D01*
X180563666Y-58714460D02*
X177153666Y-58714460D01*
X177153666Y-59814460D02*
X180563666Y-59814460D01*
X174543666Y-64274460D02*
X174543666Y-64554460D01*
X177153666Y-58714460D02*
X177153666Y-58054460D01*
X182163666Y-59164460D02*
X184463666Y-59164460D01*
X125399606Y-56767860D02*
X125399606Y-59427860D01*
X158479606Y-56767860D02*
X158479606Y-59427860D01*
X161079606Y-59427860D02*
X159749606Y-59427860D01*
X158479606Y-59427860D02*
X125399606Y-59427860D01*
X161079606Y-58097860D02*
X161079606Y-59427860D01*
X158479606Y-56767860D02*
X125399606Y-56767860D01*
X149390000Y-70390000D02*
X149390000Y-70690000D01*
X149690000Y-70390000D02*
X149390000Y-70390000D01*
X156310000Y-77610000D02*
X156610000Y-77610000D01*
X149390000Y-77610000D02*
X149390000Y-77310000D01*
X156310000Y-70390000D02*
X156610000Y-70390000D01*
X149390000Y-70690000D02*
X148075000Y-70690000D01*
X156610000Y-77610000D02*
X156610000Y-77310000D01*
X149690000Y-77610000D02*
X149390000Y-77610000D01*
X156610000Y-70390000D02*
X156610000Y-70690000D01*
X184566007Y-98771992D02*
X184566007Y-86051992D01*
X171746007Y-86051992D02*
X171746007Y-87271992D01*
X174646007Y-97551992D02*
X171746007Y-97551992D01*
X174646007Y-97271992D02*
X174646007Y-97551992D01*
X177256007Y-89711992D02*
X177256007Y-89211992D01*
X180666007Y-95611992D02*
X180666007Y-96711992D01*
X182266007Y-97661992D02*
X182266007Y-94011992D01*
X173656007Y-95761992D02*
X174056007Y-96161992D01*
X174056007Y-96161992D02*
X173656007Y-96561992D01*
X178656007Y-93211992D02*
X178656007Y-91611992D01*
X180666007Y-96711992D02*
X177256007Y-96711992D01*
X171746007Y-98771992D02*
X184566007Y-98771992D01*
X178656007Y-91611992D02*
X180456007Y-91611992D01*
X177256007Y-95611992D02*
X180666007Y-95611992D01*
X184566007Y-86051992D02*
X171746007Y-86051992D01*
X174646007Y-87271992D02*
X174646007Y-87551992D01*
X180666007Y-88111992D02*
X177256007Y-88111992D01*
X177256007Y-88111992D02*
X177256007Y-86051992D01*
X173656007Y-96561992D02*
X173656007Y-95761992D01*
X182266007Y-95111992D02*
X177256007Y-95111992D01*
X171746007Y-87271992D02*
X174646007Y-87271992D01*
X177256007Y-95111992D02*
X177256007Y-95611992D01*
X177256007Y-89211992D02*
X180666007Y-89211992D01*
X177256007Y-96711992D02*
X177256007Y-98771992D01*
X180456007Y-93211992D02*
X178656007Y-93211992D01*
X182266007Y-87161992D02*
X184566007Y-87161992D01*
X171746007Y-97551992D02*
X171746007Y-98771992D01*
X180456007Y-91611992D02*
X180456007Y-93211992D01*
X182266007Y-89711992D02*
X177256007Y-89711992D01*
X180666007Y-89211992D02*
X180666007Y-88111992D01*
X184566007Y-97661992D02*
X182266007Y-97661992D01*
X182266007Y-90811992D02*
X182266007Y-87161992D01*
X123482556Y-66465000D02*
X123028428Y-66465000D01*
X123482556Y-67935000D02*
X123028428Y-67935000D01*
X134737878Y-103313241D02*
X134737878Y-107813241D01*
X138737878Y-102063241D02*
X137237878Y-102063241D01*
X137237878Y-109063241D02*
X138737878Y-109063241D01*
X141237878Y-107813241D02*
X141237878Y-103313241D01*
X143227064Y-80735000D02*
X142772936Y-80735000D01*
X143227064Y-79265000D02*
X142772936Y-79265000D01*
X148202304Y-101772936D02*
X148202304Y-102227064D01*
X146732304Y-101772936D02*
X146732304Y-102227064D01*
X117890000Y-72800000D02*
X122900000Y-72800000D01*
X122900000Y-71200000D02*
X122900000Y-70090000D01*
X122900000Y-79200000D02*
X122900000Y-80310000D01*
X119700000Y-76000000D02*
X119700000Y-74400000D01*
X115590000Y-71200000D02*
X117890000Y-71200000D01*
X122900000Y-78100000D02*
X119490000Y-78100000D01*
X119700000Y-74400000D02*
X121500000Y-74400000D01*
X122900000Y-72300000D02*
X119490000Y-72300000D01*
X121500000Y-76000000D02*
X119700000Y-76000000D01*
X125510000Y-71590000D02*
X125510000Y-71310000D01*
X119490000Y-72300000D02*
X119490000Y-71200000D01*
X128410000Y-71310000D02*
X128410000Y-70090000D01*
X119490000Y-78100000D02*
X119490000Y-79200000D01*
X115590000Y-80310000D02*
X128410000Y-80310000D01*
X119490000Y-71200000D02*
X122900000Y-71200000D01*
X128410000Y-79090000D02*
X125510000Y-79090000D01*
X128410000Y-80310000D02*
X128410000Y-79090000D01*
X117890000Y-71200000D02*
X117890000Y-73600000D01*
X125510000Y-79090000D02*
X125510000Y-78810000D01*
X117890000Y-76800000D02*
X117890000Y-79200000D01*
X117890000Y-79200000D02*
X115590000Y-79200000D01*
X128410000Y-70090000D02*
X115590000Y-70090000D01*
X126500000Y-73100000D02*
X126100000Y-72700000D01*
X121500000Y-74400000D02*
X121500000Y-76000000D01*
X119490000Y-79200000D02*
X122900000Y-79200000D01*
X126100000Y-72700000D02*
X126500000Y-72300000D01*
X126500000Y-72300000D02*
X126500000Y-73100000D01*
X125510000Y-71310000D02*
X128410000Y-71310000D01*
X117890000Y-77600000D02*
X122900000Y-77600000D01*
X122900000Y-72800000D02*
X122900000Y-72300000D01*
X122900000Y-77600000D02*
X122900000Y-78100000D01*
X115590000Y-70090000D02*
X115590000Y-80310000D01*
X159380000Y-78898031D02*
X159380000Y-79101969D01*
X160620000Y-78898031D02*
X160620000Y-79101969D01*
X148101969Y-68380000D02*
X147898031Y-68380000D01*
X148101969Y-69620000D02*
X147898031Y-69620000D01*
X149107304Y-105200000D02*
X149107304Y-107660000D01*
X150577304Y-107660000D02*
X150577304Y-105200000D01*
X149107304Y-107660000D02*
X150577304Y-107660000D01*
X177100000Y-79200000D02*
X180510000Y-79200000D01*
X177100000Y-80800000D02*
X182110000Y-80800000D01*
X171590000Y-83640000D02*
X171590000Y-84860000D01*
X180510000Y-72800000D02*
X180510000Y-71700000D01*
X178500000Y-75200000D02*
X180300000Y-75200000D01*
X182110000Y-74400000D02*
X182110000Y-68250000D01*
X180510000Y-80300000D02*
X177100000Y-80300000D01*
X180300000Y-76800000D02*
X178500000Y-76800000D01*
X171590000Y-68360000D02*
X174490000Y-68360000D01*
X182110000Y-83750000D02*
X182110000Y-77600000D01*
X180300000Y-75200000D02*
X180300000Y-76800000D01*
X177100000Y-72800000D02*
X180510000Y-72800000D01*
X173900000Y-82250000D02*
X173500000Y-82650000D01*
X171590000Y-84860000D02*
X184410000Y-84860000D01*
X178500000Y-76800000D02*
X178500000Y-75200000D01*
X177100000Y-78700000D02*
X177100000Y-79200000D01*
X173500000Y-82650000D02*
X173500000Y-81850000D01*
X171590000Y-67140000D02*
X171590000Y-68360000D01*
X177100000Y-71700000D02*
X177100000Y-71200000D01*
X180510000Y-71700000D02*
X177100000Y-71700000D01*
X177100000Y-73300000D02*
X177100000Y-72800000D01*
X177100000Y-69550000D02*
X177100000Y-67140000D01*
X182110000Y-68250000D02*
X184410000Y-68250000D01*
X180510000Y-79200000D02*
X180510000Y-80300000D01*
X182110000Y-73300000D02*
X177100000Y-73300000D01*
X182110000Y-69550000D02*
X177100000Y-69550000D01*
X177100000Y-82450000D02*
X177100000Y-84860000D01*
X174490000Y-83360000D02*
X174490000Y-83640000D01*
X182110000Y-82450000D02*
X177100000Y-82450000D01*
X173500000Y-81850000D02*
X173900000Y-82250000D01*
X184410000Y-67140000D02*
X171590000Y-67140000D01*
X177100000Y-71200000D02*
X182110000Y-71200000D01*
X174490000Y-83640000D02*
X171590000Y-83640000D01*
X174490000Y-68360000D02*
X174490000Y-68640000D01*
X177100000Y-80300000D02*
X177100000Y-80800000D01*
X182110000Y-78700000D02*
X177100000Y-78700000D01*
X184410000Y-84860000D02*
X184410000Y-67140000D01*
X184410000Y-83750000D02*
X182110000Y-83750000D01*
X120018711Y-66465000D02*
X117558711Y-66465000D01*
X117558711Y-67935000D02*
X120018711Y-67935000D01*
X117558711Y-66465000D02*
X117558711Y-67935000D01*
X140739030Y-60286829D02*
X141193158Y-60286829D01*
X140739030Y-61756829D02*
X141193158Y-61756829D01*
X129617548Y-99492906D02*
X131117548Y-99492906D01*
X127117548Y-93742906D02*
X127117548Y-98242906D01*
X133617548Y-98242906D02*
X133617548Y-93742906D01*
X131117548Y-92492906D02*
X129617548Y-92492906D01*
X157380000Y-78898031D02*
X157380000Y-79101969D01*
X158620000Y-78898031D02*
X158620000Y-79101969D01*
X115590000Y-89060000D02*
X128410000Y-89060000D01*
X125510000Y-87840000D02*
X125510000Y-87560000D01*
X122900000Y-86800000D02*
X122900000Y-87300000D01*
X117890000Y-82450000D02*
X117890000Y-83600000D01*
X122900000Y-83100000D02*
X119490000Y-83100000D01*
X119490000Y-88400000D02*
X122900000Y-88400000D01*
X119490000Y-87300000D02*
X119490000Y-88400000D01*
X117890000Y-87950000D02*
X115590000Y-87950000D01*
X126100000Y-83950000D02*
X126500000Y-83550000D01*
X128410000Y-81340000D02*
X115590000Y-81340000D01*
X122900000Y-88400000D02*
X122900000Y-89060000D01*
X122900000Y-83600000D02*
X122900000Y-83100000D01*
X126500000Y-83550000D02*
X126500000Y-84350000D01*
X121500000Y-84800000D02*
X121500000Y-85600000D01*
X117890000Y-83600000D02*
X122900000Y-83600000D01*
X119490000Y-82000000D02*
X122900000Y-82000000D01*
X125510000Y-82840000D02*
X125510000Y-82560000D01*
X115590000Y-82450000D02*
X117890000Y-82450000D01*
X121500000Y-85600000D02*
X119700000Y-85600000D01*
X128410000Y-87840000D02*
X125510000Y-87840000D01*
X119700000Y-84800000D02*
X121500000Y-84800000D01*
X128410000Y-82560000D02*
X128410000Y-81340000D01*
X128410000Y-89060000D02*
X128410000Y-87840000D01*
X119700000Y-85600000D02*
X119700000Y-84800000D01*
X119490000Y-83100000D02*
X119490000Y-82000000D01*
X126500000Y-84350000D02*
X126100000Y-83950000D01*
X117890000Y-86800000D02*
X117890000Y-87950000D01*
X122900000Y-82000000D02*
X122900000Y-81340000D01*
X122900000Y-87300000D02*
X119490000Y-87300000D01*
X117890000Y-86800000D02*
X122900000Y-86800000D01*
X125510000Y-82560000D02*
X128410000Y-82560000D01*
X115590000Y-81340000D02*
X115590000Y-89060000D01*
%LPC*%
D13*
X153000000Y-64000000D03*
X153000000Y-66000000D03*
D14*
X140092960Y-66745310D03*
X138017960Y-66745310D03*
D15*
X138395000Y-75865000D03*
X138395000Y-70865000D03*
D16*
X145000000Y-106875000D03*
X145000000Y-105125000D03*
D17*
X135750000Y-99250000D03*
X135750000Y-92750000D03*
X140250000Y-92750000D03*
X140250000Y-99250000D03*
D18*
X120000000Y-108400000D03*
X121697056Y-104302944D03*
D19*
X120000000Y-106000000D03*
D18*
X117600000Y-106000000D03*
X118302944Y-107697056D03*
X121697056Y-107697056D03*
X120000000Y-103600000D03*
X118302944Y-104302944D03*
X122400000Y-106000000D03*
D20*
X148646317Y-67104844D03*
X147391317Y-67104844D03*
D17*
X128162325Y-108839916D03*
X128162325Y-102339916D03*
X132662325Y-102339916D03*
X132662325Y-108839916D03*
D21*
X154675000Y-100600000D03*
D22*
X157215000Y-100600000D03*
X159755000Y-100600000D03*
X162295000Y-100600000D03*
X164835000Y-100600000D03*
X167375000Y-100600000D03*
D23*
X118328521Y-63201280D03*
X120078521Y-63201280D03*
D13*
X145000000Y-101000000D03*
X145000000Y-103000000D03*
D24*
X145000000Y-61000000D03*
X147000000Y-61000000D03*
D16*
X147467304Y-106875000D03*
X147467304Y-105125000D03*
D13*
X149842304Y-101000000D03*
X149842304Y-103000000D03*
D25*
X124255492Y-63200000D03*
X122255492Y-63200000D03*
D14*
X140037500Y-80000000D03*
X137962500Y-80000000D03*
D26*
X160200000Y-86200000D03*
D27*
X160200000Y-88740000D03*
X160200000Y-91280000D03*
X160200000Y-93820000D03*
X167820000Y-93820000D03*
X167820000Y-91280000D03*
X167820000Y-88740000D03*
X167820000Y-86200000D03*
D20*
X139039825Y-89589916D03*
X137784825Y-89589916D03*
D18*
X178302944Y-53697056D03*
X178302944Y-50302944D03*
X177600000Y-52000000D03*
X181697056Y-53697056D03*
X181697056Y-50302944D03*
D19*
X180000000Y-52000000D03*
D18*
X180000000Y-54400000D03*
X180000000Y-49600000D03*
X182400000Y-52000000D03*
D28*
X181653666Y-61914460D03*
D29*
X175153666Y-63164460D03*
D30*
X175153666Y-60664460D03*
D21*
X159749606Y-58097860D03*
D22*
X157209606Y-58097860D03*
X154669606Y-58097860D03*
X152129606Y-58097860D03*
X149589606Y-58097860D03*
X147049606Y-58097860D03*
X144509606Y-58097860D03*
X141969606Y-58097860D03*
X139429606Y-58097860D03*
X136889606Y-58097860D03*
X134349606Y-58097860D03*
X131809606Y-58097860D03*
X129269606Y-58097860D03*
X126729606Y-58097860D03*
D31*
X148825000Y-71200000D03*
X148825000Y-72000000D03*
X148825000Y-72800000D03*
X148825000Y-73600000D03*
X148825000Y-74400000D03*
X148825000Y-75200000D03*
X148825000Y-76000000D03*
X148825000Y-76800000D03*
D32*
X150200000Y-78175000D03*
X151000000Y-78175000D03*
X151800000Y-78175000D03*
X152600000Y-78175000D03*
X153400000Y-78175000D03*
X154200000Y-78175000D03*
X155000000Y-78175000D03*
X155800000Y-78175000D03*
D31*
X157175000Y-76800000D03*
X157175000Y-76000000D03*
X157175000Y-75200000D03*
X157175000Y-74400000D03*
X157175000Y-73600000D03*
X157175000Y-72800000D03*
X157175000Y-72000000D03*
X157175000Y-71200000D03*
D32*
X155800000Y-69825000D03*
X155000000Y-69825000D03*
X154200000Y-69825000D03*
X153400000Y-69825000D03*
X152600000Y-69825000D03*
X151800000Y-69825000D03*
X151000000Y-69825000D03*
X150200000Y-69825000D03*
D28*
X181756007Y-92411992D03*
D29*
X175256007Y-96161992D03*
D30*
X175256007Y-93661992D03*
X175256007Y-91161992D03*
X175256007Y-88661992D03*
D25*
X124255492Y-67200000D03*
X122255492Y-67200000D03*
D17*
X135737878Y-102313241D03*
X135737878Y-108813241D03*
X140237878Y-102313241D03*
X140237878Y-108813241D03*
D18*
X180000000Y-108400000D03*
X181697056Y-107697056D03*
X182400000Y-106000000D03*
X180000000Y-103600000D03*
X181697056Y-104302944D03*
X177600000Y-106000000D03*
X178302944Y-107697056D03*
X178302944Y-104302944D03*
D19*
X180000000Y-106000000D03*
D25*
X144000000Y-80000000D03*
X142000000Y-80000000D03*
D13*
X147467304Y-101000000D03*
X147467304Y-103000000D03*
D28*
X118400000Y-75200000D03*
D33*
X124900000Y-72700000D03*
D30*
X124900000Y-75200000D03*
X124900000Y-77700000D03*
D34*
X160000000Y-78372500D03*
X160000000Y-79627500D03*
D20*
X148627500Y-69000000D03*
X147372500Y-69000000D03*
D18*
X118302944Y-50302944D03*
X118302944Y-53697056D03*
X122400000Y-52000000D03*
D19*
X120000000Y-52000000D03*
D18*
X120000000Y-49600000D03*
X117600000Y-52000000D03*
X121697056Y-50302944D03*
X120000000Y-54400000D03*
X121697056Y-53697056D03*
D16*
X149842304Y-106875000D03*
X149842304Y-105125000D03*
D28*
X181600000Y-76000000D03*
D29*
X175100000Y-82250000D03*
D30*
X175100000Y-79750000D03*
X175100000Y-77250000D03*
X175100000Y-74750000D03*
X175100000Y-72250000D03*
X175100000Y-69750000D03*
D23*
X118343711Y-67200000D03*
X120093711Y-67200000D03*
D24*
X139966094Y-61021829D03*
X141966094Y-61021829D03*
D17*
X128117548Y-99242906D03*
X128117548Y-92742906D03*
X132617548Y-99242906D03*
X132617548Y-92742906D03*
D34*
X158000000Y-78372500D03*
X158000000Y-79627500D03*
D28*
X118400000Y-85200000D03*
D33*
X124900000Y-83950000D03*
D30*
X124900000Y-86450000D03*
M02*
