G04 #@! TF.GenerationSoftware,KiCad,Pcbnew,(6.0.8-1)-1*
G04 #@! TF.CreationDate,2023-04-27T22:08:01+09:00*
G04 #@! TF.ProjectId,ikako_f303,696b616b-6f5f-4663-9330-332e6b696361,rev?*
G04 #@! TF.SameCoordinates,Original*
G04 #@! TF.FileFunction,Paste,Top*
G04 #@! TF.FilePolarity,Positive*
%FSLAX46Y46*%
G04 Gerber Fmt 4.6, Leading zero omitted, Abs format (unit mm)*
G04 Created by KiCad (PCBNEW (6.0.8-1)-1) date 2023-04-27 22:08:01*
%MOMM*%
%LPD*%
G01*
G04 APERTURE LIST*
G04 Aperture macros list*
%AMRoundRect*
0 Rectangle with rounded corners*
0 $1 Rounding radius*
0 $2 $3 $4 $5 $6 $7 $8 $9 X,Y pos of 4 corners*
0 Add a 4 corners polygon primitive as box body*
4,1,4,$2,$3,$4,$5,$6,$7,$8,$9,$2,$3,0*
0 Add four circle primitives for the rounded corners*
1,1,$1+$1,$2,$3*
1,1,$1+$1,$4,$5*
1,1,$1+$1,$6,$7*
1,1,$1+$1,$8,$9*
0 Add four rect primitives between the rounded corners*
20,1,$1+$1,$2,$3,$4,$5,0*
20,1,$1+$1,$4,$5,$6,$7,0*
20,1,$1+$1,$6,$7,$8,$9,0*
20,1,$1+$1,$8,$9,$2,$3,0*%
G04 Aperture macros list end*
%ADD10RoundRect,0.250000X-0.450000X0.350000X-0.450000X-0.350000X0.450000X-0.350000X0.450000X0.350000X0*%
%ADD11RoundRect,0.250000X0.337500X0.475000X-0.337500X0.475000X-0.337500X-0.475000X0.337500X-0.475000X0*%
%ADD12RoundRect,0.237500X0.237500X-0.287500X0.237500X0.287500X-0.237500X0.287500X-0.237500X-0.287500X0*%
%ADD13RoundRect,0.208750X0.208750X0.431250X-0.208750X0.431250X-0.208750X-0.431250X0.208750X-0.431250X0*%
%ADD14RoundRect,0.237500X-0.287500X-0.237500X0.287500X-0.237500X0.287500X0.237500X-0.287500X0.237500X0*%
%ADD15RoundRect,0.250000X-0.350000X-0.450000X0.350000X-0.450000X0.350000X0.450000X-0.350000X0.450000X0*%
%ADD16RoundRect,0.250000X0.350000X0.450000X-0.350000X0.450000X-0.350000X-0.450000X0.350000X-0.450000X0*%
%ADD17RoundRect,0.125000X-0.625000X-0.125000X0.625000X-0.125000X0.625000X0.125000X-0.625000X0.125000X0*%
%ADD18RoundRect,0.125000X-0.125000X-0.625000X0.125000X-0.625000X0.125000X0.625000X-0.125000X0.625000X0*%
%ADD19RoundRect,0.208750X-0.431250X0.208750X-0.431250X-0.208750X0.431250X-0.208750X0.431250X0.208750X0*%
G04 APERTURE END LIST*
D10*
X153000000Y-64000000D03*
X153000000Y-66000000D03*
D11*
X140092960Y-66745310D03*
X138017960Y-66745310D03*
D12*
X145000000Y-106875000D03*
X145000000Y-105125000D03*
D13*
X148646317Y-67104844D03*
X147391317Y-67104844D03*
D14*
X118328521Y-63201280D03*
X120078521Y-63201280D03*
D10*
X145000000Y-101000000D03*
X145000000Y-103000000D03*
D15*
X145000000Y-61000000D03*
X147000000Y-61000000D03*
D12*
X147467304Y-106875000D03*
X147467304Y-105125000D03*
D10*
X149842304Y-101000000D03*
X149842304Y-103000000D03*
D16*
X124255492Y-63200000D03*
X122255492Y-63200000D03*
D11*
X140037500Y-80000000D03*
X137962500Y-80000000D03*
D13*
X139039825Y-89589916D03*
X137784825Y-89589916D03*
D17*
X148825000Y-71200000D03*
X148825000Y-72000000D03*
X148825000Y-72800000D03*
X148825000Y-73600000D03*
X148825000Y-74400000D03*
X148825000Y-75200000D03*
X148825000Y-76000000D03*
X148825000Y-76800000D03*
D18*
X150200000Y-78175000D03*
X151000000Y-78175000D03*
X151800000Y-78175000D03*
X152600000Y-78175000D03*
X153400000Y-78175000D03*
X154200000Y-78175000D03*
X155000000Y-78175000D03*
X155800000Y-78175000D03*
D17*
X157175000Y-76800000D03*
X157175000Y-76000000D03*
X157175000Y-75200000D03*
X157175000Y-74400000D03*
X157175000Y-73600000D03*
X157175000Y-72800000D03*
X157175000Y-72000000D03*
X157175000Y-71200000D03*
D18*
X155800000Y-69825000D03*
X155000000Y-69825000D03*
X154200000Y-69825000D03*
X153400000Y-69825000D03*
X152600000Y-69825000D03*
X151800000Y-69825000D03*
X151000000Y-69825000D03*
X150200000Y-69825000D03*
D16*
X124255492Y-67200000D03*
X122255492Y-67200000D03*
X144000000Y-80000000D03*
X142000000Y-80000000D03*
D10*
X147467304Y-101000000D03*
X147467304Y-103000000D03*
D19*
X160000000Y-78372500D03*
X160000000Y-79627500D03*
D13*
X148627500Y-69000000D03*
X147372500Y-69000000D03*
D12*
X149842304Y-106875000D03*
X149842304Y-105125000D03*
D14*
X118343711Y-67200000D03*
X120093711Y-67200000D03*
D15*
X139966094Y-61021829D03*
X141966094Y-61021829D03*
D19*
X158000000Y-78372500D03*
X158000000Y-79627500D03*
M02*
