M48
; DRILL file {KiCad (6.0.8-1)-1} date 
; FORMAT={-:-/ absolute / metric / decimal}
; #@! TF.CreationDate,2023-04-27T22:08:18+09:00
; #@! TF.GenerationSoftware,Kicad,Pcbnew,(6.0.8-1)-1
; #@! TF.FileFunction,Plated,1,2,PTH
FMAT,2
METRIC
; #@! TA.AperFunction,Plated,PTH,ViaDrill
T1C0.400
; #@! TA.AperFunction,Plated,PTH,ComponentDrill
T2C0.500
; #@! TA.AperFunction,Plated,PTH,ComponentDrill
T3C0.800
; #@! TA.AperFunction,Plated,PTH,ComponentDrill
T4C0.950
; #@! TA.AperFunction,Plated,PTH,ComponentDrill
T5C1.000
; #@! TA.AperFunction,Plated,PTH,ComponentDrill
T6C1.100
; #@! TA.AperFunction,Plated,PTH,ComponentDrill
T7C3.200
%
G90
G05
T1
X118.0Y-92.0
X118.0Y-97.0
X119.0Y-71.0
X119.0Y-81.0
X124.0Y-92.0
X124.0Y-97.0
X132.0Y-68.0
X132.0Y-78.0
X140.0Y-86.0
X141.0Y-85.0
X144.0Y-87.0
X144.0Y-89.0
X146.627Y-74.51
X148.0Y-82.0
X148.0Y-85.0
X149.977Y-76.832
X150.0Y-97.0
X150.193Y-66.876
X153.0Y-66.0
X153.0Y-72.0
X153.0Y-75.0
X154.0Y-73.0
X154.124Y-89.0
X155.0Y-96.0
X155.875Y-81.0
X157.0Y-107.0
X158.0Y-94.0
X159.0Y-81.0
X160.012Y-71.012
X161.0Y-72.0
X163.0Y-107.0
X163.988Y-84.988
X164.0Y-71.0
X166.0Y-88.0
X166.0Y-90.0
X167.0Y-80.0
X169.0Y-71.0
X170.0Y-82.0
X171.0Y-94.0
X171.0Y-97.0
X172.0Y-106.0
X182.0Y-69.0
X182.0Y-84.0
X182.0Y-97.0
T2
X117.6Y-52.0
X117.6Y-106.0
X118.303Y-50.303
X118.303Y-53.697
X118.303Y-104.303
X118.303Y-107.697
X120.0Y-49.6
X120.0Y-54.4
X120.0Y-103.6
X120.0Y-108.4
X121.697Y-50.303
X121.697Y-53.697
X121.697Y-104.303
X121.697Y-107.697
X122.4Y-52.0
X122.4Y-106.0
X177.6Y-52.0
X177.6Y-106.0
X178.303Y-50.303
X178.303Y-53.697
X178.303Y-104.303
X178.303Y-107.697
X180.0Y-49.6
X180.0Y-54.4
X180.0Y-103.6
X180.0Y-108.4
X181.697Y-50.303
X181.697Y-53.697
X181.697Y-104.303
X181.697Y-107.697
X182.4Y-52.0
X182.4Y-106.0
T3
X138.395Y-70.865
X138.395Y-75.865
X160.2Y-86.2
X160.2Y-88.74
X160.2Y-91.28
X160.2Y-93.82
X167.82Y-86.2
X167.82Y-88.74
X167.82Y-91.28
X167.82Y-93.82
T4
X124.9Y-72.7
X124.9Y-75.2
X124.9Y-77.7
X124.9Y-83.95
X124.9Y-86.45
X175.1Y-69.75
X175.1Y-72.25
X175.1Y-74.75
X175.1Y-77.25
X175.1Y-79.75
X175.1Y-82.25
X175.154Y-60.664
X175.154Y-63.164
X175.256Y-88.662
X175.256Y-91.162
X175.256Y-93.662
X175.256Y-96.162
T5
X126.73Y-58.098
X129.27Y-58.098
X131.81Y-58.098
X134.35Y-58.098
X136.89Y-58.098
X139.43Y-58.098
X141.97Y-58.098
X144.51Y-58.098
X147.05Y-58.098
X149.59Y-58.098
X152.13Y-58.098
X154.67Y-58.098
X154.675Y-100.6
X157.21Y-58.098
X157.215Y-100.6
X159.75Y-58.098
X159.755Y-100.6
X162.295Y-100.6
X164.835Y-100.6
X167.375Y-100.6
T6
X128.118Y-92.743
X128.118Y-99.243
X128.162Y-102.34
X128.162Y-108.84
X132.618Y-92.743
X132.618Y-99.243
X132.662Y-102.34
X132.662Y-108.84
X135.738Y-102.313
X135.738Y-108.813
X135.75Y-92.75
X135.75Y-99.25
X140.238Y-102.313
X140.238Y-108.813
X140.25Y-92.75
X140.25Y-99.25
T7
X120.0Y-52.0
X120.0Y-106.0
X180.0Y-52.0
X180.0Y-106.0
T0
M30
