M48
; DRILL file {KiCad 7.0.9} date Sat Oct 12 10:06:09 2024
; FORMAT={3:3/ absolute / metric / keep zeros}
; #@! TF.CreationDate,2024-10-12T10:06:09+09:00
; #@! TF.GenerationSoftware,Kicad,Pcbnew,7.0.9
; #@! TF.FileFunction,MixedPlating,1,2
FMAT,2
METRIC
; #@! TA.AperFunction,Plated,PTH,ComponentDrill
T1C0.800
; #@! TA.AperFunction,Plated,PTH,ComponentDrill
T2C0.900
; #@! TA.AperFunction,Plated,PTH,ComponentDrill
T3C1.000
; #@! TA.AperFunction,Plated,PTH,ComponentDrill
T4C1.500
; #@! TA.AperFunction,Plated,PTH,ViaDrill
T5C1.800
; #@! TA.AperFunction,Plated,PTH,ComponentDrill
T6C1.800
; #@! TA.AperFunction,Plated,PTH,ComponentDrill
T7C4.000
%
G90
G05
T1
X130500Y-072000
X130500Y-082770
X130500Y-087270
X130500Y-098040
X130500Y-102500
X130500Y-113000
X130500Y-117500
X130500Y-128000
X138120Y-072000
X138120Y-082770
X138120Y-087270
X138120Y-098040
X138120Y-102500
X138120Y-113000
X138120Y-117500
X138120Y-128000
X150000Y-113380
X150000Y-121000
X150380Y-076000
X153500Y-113380
X153500Y-121000
X158000Y-076000
X187380Y-125000
X195000Y-125000
T2
X125500Y-072000
X125500Y-082770
X125500Y-087270
X125500Y-098000
X125500Y-102500
X125500Y-113000
X125500Y-117500
X125500Y-128000
X128040Y-072000
X128040Y-082770
X128040Y-087270
X128040Y-098000
X128040Y-102500
X128040Y-113000
X128040Y-117500
X128040Y-128000
X140500Y-127500
X141460Y-072500
X143040Y-127500
X144000Y-072500
X146300Y-075140
X146300Y-077680
X146300Y-080220
X146300Y-082760
X146300Y-085300
X146300Y-087840
X146300Y-090380
X146300Y-092920
X146300Y-095460
X146300Y-098000
X146300Y-100540
X146300Y-103080
X146300Y-105620
X146300Y-108160
X146300Y-110700
X146300Y-113240
X146300Y-115780
X146300Y-118320
X146300Y-120860
X146500Y-127500
X149040Y-127500
X171700Y-075140
X171700Y-077680
X171700Y-080220
X171700Y-082760
X171700Y-085300
X171700Y-087840
X171700Y-090380
X171700Y-092920
X171700Y-095460
X171700Y-098000
X171700Y-100540
X171700Y-103080
X171700Y-105620
X171700Y-108160
X171700Y-110700
X171700Y-113240
X171700Y-115780
X171700Y-118320
X171700Y-120860
X190000Y-129500
X192540Y-129500
T3
X122000Y-074730
X122000Y-077270
X122000Y-090000
X122000Y-092540
X122000Y-105000
X122000Y-107540
X122000Y-120000
X122000Y-122540
T5
X155500Y-125210
X155500Y-125710
X155500Y-126210
X155500Y-127710
X155500Y-128210
X155500Y-128710
X169000Y-125210
X169000Y-125710
X169000Y-126210
X169000Y-127710
X169000Y-128210
X169000Y-128710
X174500Y-126000
X174500Y-126500
X174500Y-127000
X174500Y-127500
X174500Y-128000
X174500Y-128500
X174500Y-129000
X180000Y-126738
X180500Y-126738
X181000Y-126738
X181500Y-126738
X182000Y-126738
X182500Y-126738
X183000Y-126738
X183500Y-126738
T7
X179250Y-069000
X180250Y-077000
X180250Y-120500
X188750Y-069000
X189750Y-077000
X189750Y-120500
T4
G00X155310Y-125300
M15
G01X155610Y-125300
M16
G05
G00X155310Y-128700
M15
G01X155610Y-128700
M16
G05
G00X168810Y-125300
M15
G01X169110Y-125300
M16
G05
G00X168810Y-128700
M15
G01X169110Y-128700
M16
G05
T6
G00X174500Y-129000
M15
G01X174500Y-126000
M16
G05
G00X183239Y-126738
M15
G01X180239Y-126738
M16
G05
T0
M30
