G04 #@! TF.GenerationSoftware,KiCad,Pcbnew,7.0.9*
G04 #@! TF.CreationDate,2024-10-12T10:05:53+09:00*
G04 #@! TF.ProjectId,YAMADAmain_veresp32,59414d41-4441-46d6-9169-6e5f76657265,rev?*
G04 #@! TF.SameCoordinates,Original*
G04 #@! TF.FileFunction,Copper,L2,Bot*
G04 #@! TF.FilePolarity,Positive*
%FSLAX46Y46*%
G04 Gerber Fmt 4.6, Leading zero omitted, Abs format (unit mm)*
G04 Created by KiCad (PCBNEW 7.0.9) date 2024-10-12 10:05:53*
%MOMM*%
%LPD*%
G01*
G04 APERTURE LIST*
G04 #@! TA.AperFunction,ComponentPad*
%ADD10C,5.000000*%
G04 #@! TD*
G04 #@! TA.AperFunction,SMDPad,CuDef*
%ADD11R,6.500000X6.500000*%
G04 #@! TD*
G04 #@! TA.AperFunction,SMDPad,CuDef*
%ADD12R,1.100000X0.760000*%
G04 #@! TD*
G04 #@! TA.AperFunction,ComponentPad*
%ADD13O,2.000000X1.700000*%
G04 #@! TD*
G04 #@! TA.AperFunction,ComponentPad*
%ADD14C,1.600000*%
G04 #@! TD*
G04 #@! TA.AperFunction,ComponentPad*
%ADD15O,1.600000X1.600000*%
G04 #@! TD*
G04 #@! TA.AperFunction,ComponentPad*
%ADD16R,3.000000X6.000000*%
G04 #@! TD*
G04 #@! TA.AperFunction,ComponentPad*
%ADD17R,6.200000X3.000000*%
G04 #@! TD*
G04 #@! TA.AperFunction,ComponentPad*
%ADD18R,1.700000X1.700000*%
G04 #@! TD*
G04 #@! TA.AperFunction,ComponentPad*
%ADD19O,1.700000X1.700000*%
G04 #@! TD*
G04 #@! TA.AperFunction,ComponentPad*
%ADD20R,3.000000X2.500000*%
G04 #@! TD*
G04 #@! TA.AperFunction,ComponentPad*
%ADD21R,1.800000X1.800000*%
G04 #@! TD*
G04 #@! TA.AperFunction,ComponentPad*
%ADD22C,1.800000*%
G04 #@! TD*
G04 #@! TA.AperFunction,ViaPad*
%ADD23C,2.000000*%
G04 #@! TD*
G04 #@! TA.AperFunction,Conductor*
%ADD24C,2.000000*%
G04 #@! TD*
G04 #@! TA.AperFunction,Conductor*
%ADD25C,1.000000*%
G04 #@! TD*
G04 APERTURE END LIST*
D10*
X180250000Y-120500000D03*
D11*
X180250000Y-120500000D03*
D10*
X189750000Y-120500000D03*
D11*
X189750000Y-120500000D03*
D10*
X180250000Y-77000000D03*
D11*
X180250000Y-77000000D03*
D10*
X189750000Y-77000000D03*
D11*
X189750000Y-77000000D03*
D12*
X133699998Y-121270000D03*
X133699998Y-122540000D03*
X133699998Y-123810000D03*
X133699998Y-125080000D03*
X128000000Y-125080000D03*
X128000000Y-123810000D03*
X128000000Y-122540000D03*
X128000000Y-121270000D03*
X133699998Y-106270000D03*
X133699998Y-107540000D03*
X133699998Y-108810000D03*
X133699998Y-110080000D03*
X128000000Y-110080000D03*
X128000000Y-108810000D03*
X128000000Y-107540000D03*
X128000000Y-106270000D03*
X133699998Y-91270000D03*
X133699998Y-92540000D03*
X133699998Y-93810000D03*
X133699998Y-95080000D03*
X128000000Y-95080000D03*
X128000000Y-93810000D03*
X128000000Y-92540000D03*
X128000000Y-91270000D03*
X133699998Y-76000000D03*
X133699998Y-77270000D03*
X133699998Y-78540000D03*
X133699998Y-79810000D03*
X128000000Y-79810000D03*
X128000000Y-78540000D03*
X128000000Y-77270000D03*
X128000000Y-76000000D03*
D13*
X146300000Y-75140000D03*
X146300000Y-80220000D03*
X146300000Y-82760000D03*
X146300000Y-85300000D03*
X146300000Y-87840000D03*
X146300000Y-90380000D03*
X146300000Y-92920000D03*
X146300000Y-95460000D03*
X146300000Y-98000000D03*
X146300000Y-100540000D03*
X146300000Y-103080000D03*
X146300000Y-105620000D03*
X146300000Y-108160000D03*
X146300000Y-110700000D03*
X146300000Y-113240000D03*
X146300000Y-115780000D03*
X146300000Y-118320000D03*
X146300000Y-120860000D03*
X171700000Y-120860000D03*
X171700000Y-118320000D03*
X171700000Y-115780000D03*
X171700000Y-113240000D03*
X171700000Y-110700000D03*
X171700000Y-108160000D03*
X171700000Y-105620000D03*
X171700000Y-103080000D03*
X171700000Y-100540000D03*
X171700000Y-98000000D03*
X171700000Y-95460000D03*
X171700000Y-92920000D03*
X171700000Y-90380000D03*
X171700000Y-87840000D03*
X171700000Y-85300000D03*
X171700000Y-82760000D03*
X171700000Y-80220000D03*
X171700000Y-77680000D03*
X171700000Y-75140000D03*
X146300000Y-77680000D03*
D14*
X150000000Y-113380000D03*
D15*
X150000000Y-121000000D03*
D14*
X153500000Y-121000000D03*
D15*
X153500000Y-113380000D03*
D14*
X150380000Y-76000000D03*
D15*
X158000000Y-76000000D03*
D14*
X195000000Y-125000000D03*
D15*
X187380000Y-125000000D03*
X138120000Y-72000000D03*
D14*
X130500000Y-72000000D03*
D15*
X138120000Y-87270000D03*
D14*
X130500000Y-87270000D03*
D15*
X138120000Y-102500000D03*
D14*
X130500000Y-102500000D03*
D15*
X138120000Y-117500000D03*
D14*
X130500000Y-117500000D03*
D15*
X138120000Y-82770000D03*
D14*
X130500000Y-82770000D03*
X130500000Y-98040000D03*
D15*
X138120000Y-98040000D03*
X138120000Y-113000000D03*
D14*
X130500000Y-113000000D03*
D15*
X138120000Y-128000000D03*
D14*
X130500000Y-128000000D03*
D10*
X179250000Y-69000000D03*
X188750000Y-69000000D03*
D11*
X179250000Y-69000000D03*
X188750000Y-69000000D03*
D16*
X174500000Y-127500000D03*
D17*
X181739000Y-126738000D03*
D18*
X122000000Y-120000000D03*
D19*
X122000000Y-122540000D03*
D18*
X122000000Y-105000000D03*
D19*
X122000000Y-107540000D03*
X122000000Y-92540000D03*
D18*
X122000000Y-90000000D03*
X122000000Y-74730000D03*
D19*
X122000000Y-77270000D03*
D20*
X168960000Y-125300000D03*
X155460000Y-125300000D03*
X155460000Y-128700000D03*
X168960000Y-128700000D03*
D21*
X140500000Y-127500000D03*
D22*
X143040000Y-127500000D03*
D21*
X146500000Y-127500000D03*
D22*
X149040000Y-127500000D03*
D21*
X141460000Y-72500000D03*
D22*
X144000000Y-72500000D03*
D21*
X190000000Y-129500000D03*
D22*
X192540000Y-129500000D03*
X128040000Y-72000000D03*
D21*
X125500000Y-72000000D03*
D22*
X128040000Y-87270000D03*
D21*
X125500000Y-87270000D03*
D22*
X128040000Y-102500000D03*
D21*
X125500000Y-102500000D03*
D22*
X128040000Y-117500000D03*
D21*
X125500000Y-117500000D03*
D22*
X128040000Y-82770000D03*
D21*
X125500000Y-82770000D03*
X125500000Y-98000000D03*
D22*
X128040000Y-98000000D03*
D21*
X125500000Y-113000000D03*
D22*
X128040000Y-113000000D03*
X128040000Y-128000000D03*
D21*
X125500000Y-128000000D03*
D23*
X183500000Y-126738000D03*
X183000000Y-126738000D03*
X182500000Y-126738000D03*
X182000000Y-126738000D03*
X181500000Y-126738000D03*
X181000000Y-126738000D03*
X180500000Y-126738000D03*
X180000000Y-126738000D03*
X174500000Y-129000000D03*
X174500000Y-128500000D03*
X174500000Y-128000000D03*
X174500000Y-127500000D03*
X174500000Y-127000000D03*
X174500000Y-126500000D03*
X174500000Y-126000000D03*
X169000000Y-125210000D03*
X169000000Y-125710000D03*
X169000000Y-126210000D03*
X169000000Y-127710000D03*
X169000000Y-128210000D03*
X169000000Y-128710000D03*
X155500000Y-128710000D03*
X155500000Y-128210000D03*
X155500000Y-127710000D03*
X155500000Y-126210000D03*
X155500000Y-125710000D03*
X155500000Y-125210000D03*
D24*
X188750000Y-76000000D02*
X189750000Y-77000000D01*
X188750000Y-69000000D02*
X188750000Y-76000000D01*
X179250000Y-76000000D02*
X180250000Y-77000000D01*
X179250000Y-69000000D02*
X179250000Y-76000000D01*
X188000000Y-120500000D02*
X189750000Y-120500000D01*
X185000000Y-124880000D02*
X185000000Y-123500000D01*
X183142000Y-126738000D02*
X185000000Y-124880000D01*
X181739000Y-126738000D02*
X183142000Y-126738000D01*
X185000000Y-123500000D02*
X188000000Y-120500000D01*
X174500000Y-126250000D02*
X180250000Y-120500000D01*
X174500000Y-127000000D02*
X174500000Y-126250000D01*
X165000000Y-121210000D02*
X169000000Y-125210000D01*
X168500000Y-69000000D02*
X165000000Y-72500000D01*
X179250000Y-69000000D02*
X168500000Y-69000000D01*
X165000000Y-72500000D02*
X165000000Y-121210000D01*
D25*
X185500000Y-131000000D02*
X187380000Y-129120000D01*
X187380000Y-129120000D02*
X187380000Y-125000000D01*
X176500000Y-131000000D02*
X185500000Y-131000000D01*
X174500000Y-129000000D02*
X176500000Y-131000000D01*
X192540000Y-127460000D02*
X195000000Y-125000000D01*
X192540000Y-129500000D02*
X192540000Y-127460000D01*
X156790000Y-116670000D02*
X153500000Y-113380000D01*
X155460000Y-125300000D02*
X156790000Y-123970000D01*
X156790000Y-123970000D02*
X156790000Y-116670000D01*
D24*
X153660000Y-130500000D02*
X155460000Y-128700000D01*
X121000000Y-127500000D02*
X124000000Y-130500000D01*
X124000000Y-130500000D02*
X153660000Y-130500000D01*
D25*
X153500000Y-123040000D02*
X149040000Y-127500000D01*
X153500000Y-121000000D02*
X153500000Y-123040000D01*
X149540000Y-121000000D02*
X150000000Y-121000000D01*
X143040000Y-127500000D02*
X149540000Y-121000000D01*
X144000000Y-113000000D02*
X146300000Y-110700000D01*
X138120000Y-124380000D02*
X144000000Y-118500000D01*
X138120000Y-128000000D02*
X138120000Y-124380000D01*
X144000000Y-118500000D02*
X144000000Y-113000000D01*
X150000000Y-118000000D02*
X150000000Y-113380000D01*
X147140000Y-120860000D02*
X150000000Y-118000000D01*
X146300000Y-120860000D02*
X147140000Y-120860000D01*
X128040000Y-117500000D02*
X130500000Y-117500000D01*
X128040000Y-128000000D02*
X130500000Y-128000000D01*
X120000000Y-126500000D02*
X120000000Y-113500000D01*
X121000000Y-127500000D02*
X120000000Y-126500000D01*
X124690000Y-123810000D02*
X128000000Y-123810000D01*
X121000000Y-127500000D02*
X124690000Y-123810000D01*
X128000000Y-108810000D02*
X124690000Y-108810000D01*
X124690000Y-108810000D02*
X120000000Y-113500000D01*
X120000000Y-98000000D02*
X120000000Y-113500000D01*
X128000000Y-93810000D02*
X124190000Y-93810000D01*
X124190000Y-93810000D02*
X120000000Y-98000000D01*
X120000000Y-84500000D02*
X120000000Y-98000000D01*
X125960000Y-78540000D02*
X120000000Y-84500000D01*
X128000000Y-78540000D02*
X125960000Y-78540000D01*
X149520000Y-75140000D02*
X150380000Y-76000000D01*
X146300000Y-75140000D02*
X149520000Y-75140000D01*
X154500000Y-72500000D02*
X158000000Y-76000000D01*
X144000000Y-72500000D02*
X154500000Y-72500000D01*
X145380000Y-90380000D02*
X146300000Y-90380000D01*
X144000000Y-89000000D02*
X145380000Y-90380000D01*
X144000000Y-84620000D02*
X139190000Y-79810000D01*
X144000000Y-89000000D02*
X144000000Y-84620000D01*
X139190000Y-79810000D02*
X133699998Y-79810000D01*
X144420000Y-92920000D02*
X146300000Y-92920000D01*
X141500000Y-86150000D02*
X141500000Y-90000000D01*
X141500000Y-90000000D02*
X144420000Y-92920000D01*
X138120000Y-82770000D02*
X141500000Y-86150000D01*
X141660000Y-95460000D02*
X138120000Y-91920000D01*
X146300000Y-95460000D02*
X141660000Y-95460000D01*
X138160000Y-98000000D02*
X146300000Y-98000000D01*
X138120000Y-98040000D02*
X138160000Y-98000000D01*
X140080000Y-100540000D02*
X146300000Y-100540000D01*
X138120000Y-102500000D02*
X140080000Y-100540000D01*
X144420000Y-103080000D02*
X146300000Y-103080000D01*
X140000000Y-107500000D02*
X144420000Y-103080000D01*
X140000000Y-111120000D02*
X140000000Y-107500000D01*
X138120000Y-113000000D02*
X140000000Y-111120000D01*
X142000000Y-109920000D02*
X146300000Y-105620000D01*
X142000000Y-113000000D02*
X142000000Y-109920000D01*
X138120000Y-116880000D02*
X142000000Y-113000000D01*
X138120000Y-117500000D02*
X138120000Y-116880000D01*
X134920000Y-125080000D02*
X133699998Y-125080000D01*
X138120000Y-121880000D02*
X134920000Y-125080000D01*
X138120000Y-117500000D02*
X138120000Y-121880000D01*
X138120000Y-128000000D02*
X134000000Y-128000000D01*
X134000000Y-128000000D02*
X131080000Y-125080000D01*
X131080000Y-125080000D02*
X128000000Y-125080000D01*
X133699998Y-92540000D02*
X133699998Y-93810000D01*
X128000000Y-93810000D02*
X133699998Y-93810000D01*
X122000000Y-107540000D02*
X128000000Y-107540000D01*
X133699998Y-108810000D02*
X133699998Y-107540000D01*
X128000000Y-108810000D02*
X133699998Y-108810000D01*
X133699998Y-122540000D02*
X133699998Y-123810000D01*
X128000000Y-123810000D02*
X133699998Y-123810000D01*
X122000000Y-122540000D02*
X128000000Y-122540000D01*
X132429998Y-120000000D02*
X133699998Y-121270000D01*
X122000000Y-120000000D02*
X132429998Y-120000000D01*
X131080000Y-110080000D02*
X128000000Y-110080000D01*
X134000000Y-113000000D02*
X131080000Y-110080000D01*
X138120000Y-113000000D02*
X134000000Y-113000000D01*
X128040000Y-113000000D02*
X130500000Y-113000000D01*
X138120000Y-106880000D02*
X134920000Y-110080000D01*
X138120000Y-102500000D02*
X138120000Y-106880000D01*
X134920000Y-110080000D02*
X133699998Y-110080000D01*
X128040000Y-102500000D02*
X130500000Y-102500000D01*
X132429998Y-105000000D02*
X133699998Y-106270000D01*
X122000000Y-105000000D02*
X132429998Y-105000000D01*
X138120000Y-72500000D02*
X138120000Y-76650000D01*
X134960000Y-95080000D02*
X133699998Y-95080000D01*
X138120000Y-87270000D02*
X138120000Y-91920000D01*
X138120000Y-91920000D02*
X134960000Y-95080000D01*
X131540000Y-95080000D02*
X128000000Y-95080000D01*
X134500000Y-98040000D02*
X131540000Y-95080000D01*
X138120000Y-98040000D02*
X134500000Y-98040000D01*
X132429998Y-90000000D02*
X133699998Y-91270000D01*
X122000000Y-90000000D02*
X132429998Y-90000000D01*
X128040000Y-87270000D02*
X130500000Y-87270000D01*
X128040000Y-98040000D02*
X130500000Y-98040000D01*
X122000000Y-92540000D02*
X128000000Y-92540000D01*
X138120000Y-82770000D02*
X138120000Y-83050000D01*
X131040000Y-79810000D02*
X128000000Y-79810000D01*
X134000000Y-82770000D02*
X131040000Y-79810000D01*
X134960000Y-79810000D02*
X133699998Y-79810000D01*
X138120000Y-82770000D02*
X134000000Y-82770000D01*
X128040000Y-72000000D02*
X130500000Y-72000000D01*
X122000000Y-77270000D02*
X128000000Y-77270000D01*
X132429998Y-74730000D02*
X133699998Y-76000000D01*
X122000000Y-74730000D02*
X132429998Y-74730000D01*
X133699998Y-77270000D02*
X133699998Y-78540000D01*
X128000000Y-78540000D02*
X133699998Y-78540000D01*
X138120000Y-76650000D02*
X134960000Y-79810000D01*
X128040000Y-82770000D02*
X130500000Y-82770000D01*
D24*
X155500000Y-125210000D02*
X155500000Y-128710000D01*
X169000000Y-125210000D02*
X169000000Y-128710000D01*
M02*
