M48
; DRILL file {KiCad 8.0.3} date 2024-09-19T14:28:59+0900
; FORMAT={3:3/ absolute / metric / keep zeros}
; #@! TF.CreationDate,2024-09-19T14:28:59+09:00
; #@! TF.GenerationSoftware,Kicad,Pcbnew,8.0.3
; #@! TF.FileFunction,MixedPlating,1,2
FMAT,2
METRIC
; #@! TA.AperFunction,Plated,PTH,ComponentDrill
T1C0.700
; #@! TA.AperFunction,Plated,PTH,ComponentDrill
T2C0.900
; #@! TA.AperFunction,Plated,PTH,ComponentDrill
T3C0.950
; #@! TA.AperFunction,Plated,PTH,ComponentDrill
T4C1.000
; #@! TA.AperFunction,Plated,PTH,ComponentDrill
T5C1.200
; #@! TA.AperFunction,Plated,PTH,ViaDrill
T6C3.200
; #@! TA.AperFunction,NonPlated,NPTH,ComponentDrill
T7C1.500
%
G90
G05
T1
X161380Y-119500
X169000Y-119500
X169000Y-121880
X169000Y-129500
T2
X162960Y-116000
X162960Y-123000
X165500Y-116000
X165500Y-123000
T3
X162500Y-083500
X162500Y-086000
X162500Y-088500
X162500Y-094500
X162500Y-097000
X162500Y-099500
X162500Y-105500
X162500Y-108000
X162500Y-110500
T4
X161500Y-137500
X161500Y-140040
X178560Y-139850
X181100Y-139850
T6
X172000Y-082000
X172000Y-140000
X198500Y-083000
X198500Y-111000
X198500Y-139000
T5
G00X175700Y-129800
M15
G01X175700Y-133700
M16
G05
G00X177200Y-120800
M15
G01X177200Y-124700
M16
G05
G00X182200Y-120800
M15
G01X182200Y-124700
M16
G05
G00X183700Y-129800
M15
G01X183700Y-133700
M16
G05
T7
G00X179700Y-134750
M15
G01X179700Y-119750
M16
G05
M30
