G04 #@! TF.GenerationSoftware,KiCad,Pcbnew,8.0.3*
G04 #@! TF.CreationDate,2024-09-19T14:28:56+09:00*
G04 #@! TF.ProjectId,batt_box_power_board_ver2.0,62617474-5f62-46f7-985f-706f7765725f,rev?*
G04 #@! TF.SameCoordinates,Original*
G04 #@! TF.FileFunction,Copper,L2,Bot*
G04 #@! TF.FilePolarity,Positive*
%FSLAX46Y46*%
G04 Gerber Fmt 4.6, Leading zero omitted, Abs format (unit mm)*
G04 Created by KiCad (PCBNEW 8.0.3) date 2024-09-19 14:28:56*
%MOMM*%
%LPD*%
G01*
G04 APERTURE LIST*
G04 #@! TA.AperFunction,ComponentPad*
%ADD10O,1.700000X1.700000*%
G04 #@! TD*
G04 #@! TA.AperFunction,ComponentPad*
%ADD11R,1.700000X1.700000*%
G04 #@! TD*
G04 #@! TA.AperFunction,ComponentPad*
%ADD12O,3.000000X7.000000*%
G04 #@! TD*
G04 #@! TA.AperFunction,ComponentPad*
%ADD13C,1.700000*%
G04 #@! TD*
G04 #@! TA.AperFunction,ComponentPad*
%ADD14R,1.950000X1.700000*%
G04 #@! TD*
G04 #@! TA.AperFunction,ComponentPad*
%ADD15C,1.400000*%
G04 #@! TD*
G04 #@! TA.AperFunction,ComponentPad*
%ADD16R,1.800000X1.800000*%
G04 #@! TD*
G04 #@! TA.AperFunction,ComponentPad*
%ADD17C,1.800000*%
G04 #@! TD*
G04 #@! TA.AperFunction,SMDPad,CuDef*
%ADD18R,1.450000X1.375000*%
G04 #@! TD*
G04 #@! TA.AperFunction,SMDPad,CuDef*
%ADD19R,1.200000X2.200000*%
G04 #@! TD*
G04 #@! TA.AperFunction,SMDPad,CuDef*
%ADD20R,5.800000X6.400000*%
G04 #@! TD*
G04 #@! TA.AperFunction,SMDPad,CuDef*
%ADD21R,1.375000X1.450000*%
G04 #@! TD*
G04 #@! TA.AperFunction,ViaPad*
%ADD22C,4.000000*%
G04 #@! TD*
G04 #@! TA.AperFunction,Conductor*
%ADD23C,1.000000*%
G04 #@! TD*
G04 APERTURE END LIST*
D10*
X178560000Y-139850000D03*
D11*
X181100000Y-139850000D03*
D12*
X183700000Y-131750000D03*
X182200000Y-122750000D03*
X175700000Y-131750000D03*
X177200000Y-122750000D03*
D13*
X161500000Y-137500000D03*
D11*
X161500000Y-140040000D03*
D13*
X162500000Y-88500000D03*
D14*
X162500000Y-86000000D03*
D13*
X162500000Y-83500000D03*
X162500000Y-99500000D03*
D14*
X162500000Y-97000000D03*
D13*
X162500000Y-94500000D03*
D15*
X161380000Y-119500000D03*
X169000000Y-119500000D03*
D13*
X162500000Y-110500000D03*
D14*
X162500000Y-108000000D03*
D13*
X162500000Y-105500000D03*
D15*
X169000000Y-129500000D03*
X169000000Y-121880000D03*
D16*
X162960000Y-123000000D03*
D17*
X165500000Y-123000000D03*
D16*
X162960000Y-116000000D03*
D17*
X165500000Y-116000000D03*
D18*
X162000000Y-132225000D03*
X162000000Y-134500000D03*
D19*
X164220000Y-132225000D03*
X166500000Y-132225000D03*
D20*
X166500000Y-138525000D03*
D19*
X168780000Y-132225000D03*
D21*
X167000000Y-129500000D03*
X164725000Y-129500000D03*
D22*
X198500000Y-83000000D03*
X198500000Y-111000000D03*
X172000000Y-82000000D03*
X198500000Y-139000000D03*
X172000000Y-140000000D03*
D23*
X182200000Y-116450000D02*
X178850000Y-113100000D01*
X182200000Y-122750000D02*
X182200000Y-116450000D01*
X173350000Y-113100000D02*
X178850000Y-113100000D01*
X169000000Y-108750000D02*
X173350000Y-113100000D01*
X169000000Y-82350000D02*
X169000000Y-108750000D01*
X181100000Y-139850000D02*
X183700000Y-137250000D01*
X183700000Y-137250000D02*
X183700000Y-131750000D01*
X167700000Y-81050000D02*
X169000000Y-82350000D01*
X160500000Y-82000000D02*
X161450000Y-81050000D01*
X161450000Y-81050000D02*
X167700000Y-81050000D01*
X160500000Y-90500000D02*
X160500000Y-82000000D01*
X167000000Y-129500000D02*
X169000000Y-129500000D01*
X162500000Y-94500000D02*
X163250000Y-94500000D01*
X162500000Y-83500000D02*
X163500000Y-83500000D01*
X163000000Y-105500000D02*
X171000000Y-113500000D01*
X169000000Y-129500000D02*
X169000000Y-132005000D01*
X165000000Y-85000000D02*
X165000000Y-107500000D01*
X162500000Y-105500000D02*
X163000000Y-105500000D01*
X171000000Y-113500000D02*
X171000000Y-127500000D01*
X163250000Y-94500000D02*
X165000000Y-96250000D01*
X163500000Y-83500000D02*
X165000000Y-85000000D01*
X171000000Y-127500000D02*
X169000000Y-129500000D01*
X169000000Y-132005000D02*
X168780000Y-132225000D01*
X167880000Y-123000000D02*
X169000000Y-121880000D01*
X165500000Y-123000000D02*
X167880000Y-123000000D01*
X165500000Y-116000000D02*
X169000000Y-119500000D01*
X160250000Y-133000000D02*
X160250000Y-136250000D01*
X164220000Y-132225000D02*
X161025000Y-132225000D01*
X161380000Y-119500000D02*
X160500000Y-120380000D01*
X160500000Y-120380000D02*
X160500000Y-130725000D01*
X160500000Y-90500000D02*
X162500000Y-88500000D01*
X162500000Y-99500000D02*
X160500000Y-101500000D01*
X160500000Y-112500000D02*
X160500000Y-101500000D01*
X160250000Y-136250000D02*
X161500000Y-137500000D01*
X162500000Y-110500000D02*
X160500000Y-112500000D01*
X161025000Y-132225000D02*
X160250000Y-133000000D01*
X160500000Y-101500000D02*
X160500000Y-90500000D01*
X160500000Y-120380000D02*
X160500000Y-112500000D01*
X160500000Y-130725000D02*
X162000000Y-132225000D01*
M02*
