M48
; DRILL file {KiCad 7.0.9} date Wed Sep 18 09:46:18 2024
; FORMAT={3:3/ absolute / metric / keep zeros}
; #@! TF.CreationDate,2024-09-18T09:46:18+09:00
; #@! TF.GenerationSoftware,Kicad,Pcbnew,7.0.9
; #@! TF.FileFunction,MixedPlating,1,2
FMAT,2
METRIC
; #@! TA.AperFunction,Plated,PTH,ComponentDrill
T1C0.950
; #@! TA.AperFunction,NonPlated,NPTH,ComponentDrill
T2C2.000
%
G90
G05
T1
X102000Y-052500
X102000Y-055000
X102000Y-057500
X102000Y-065500
X102000Y-068000
X102000Y-070500
X102000Y-078500
X102000Y-081000
X102000Y-083500
X102000Y-091500
X102000Y-094000
X102000Y-096500
X102000Y-104500
X102000Y-107000
X102000Y-109500
X110000Y-052500
X110000Y-055000
X110000Y-057500
X110000Y-065500
X110000Y-068000
X110000Y-070500
X110000Y-078500
X110000Y-081000
X110000Y-083500
X110000Y-091500
X110000Y-094000
X110000Y-096500
X110000Y-104500
X110000Y-107000
X110000Y-109500
X131000Y-052500
X131000Y-055000
X131000Y-057500
X131000Y-065500
X131000Y-068000
X131000Y-070500
X131000Y-078500
X131000Y-081000
X131000Y-083500
X131000Y-091500
X131000Y-094000
X131000Y-096500
X131000Y-104500
X131000Y-107000
X131000Y-109500
X139000Y-052500
X139000Y-055000
X139000Y-057500
X139000Y-065500
X139000Y-068000
X139000Y-070500
X139000Y-078500
X139000Y-081000
X139000Y-083500
X139000Y-091500
X139000Y-094000
X139000Y-096500
X139000Y-104500
X139000Y-107000
X139000Y-109500
T2
G00X095500Y-054600
M15
G01X095500Y-055400
M16
G05
G00X095500Y-067600
M15
G01X095500Y-068400
M16
G05
G00X095500Y-080600
M15
G01X095500Y-081400
M16
G05
G00X095500Y-093600
M15
G01X095500Y-094400
M16
G05
G00X095500Y-106600
M15
G01X095500Y-107400
M16
G05
G00X116500Y-055400
M15
G01X116500Y-054600
M16
G05
G00X116500Y-068400
M15
G01X116500Y-067600
M16
G05
G00X116500Y-081400
M15
G01X116500Y-080600
M16
G05
G00X116500Y-094400
M15
G01X116500Y-093600
M16
G05
G00X116500Y-107400
M15
G01X116500Y-106600
M16
G05
G00X124500Y-054600
M15
G01X124500Y-055400
M16
G05
G00X124500Y-067600
M15
G01X124500Y-068400
M16
G05
G00X124500Y-080600
M15
G01X124500Y-081400
M16
G05
G00X124500Y-093600
M15
G01X124500Y-094400
M16
G05
G00X124500Y-106600
M15
G01X124500Y-107400
M16
G05
G00X145500Y-055400
M15
G01X145500Y-054600
M16
G05
G00X145500Y-068400
M15
G01X145500Y-067600
M16
G05
G00X145500Y-081400
M15
G01X145500Y-080600
M16
G05
G00X145500Y-094400
M15
G01X145500Y-093600
M16
G05
G00X145500Y-107400
M15
G01X145500Y-106600
M16
G05
T0
M30
