G04 #@! TF.GenerationSoftware,KiCad,Pcbnew,7.0.9*
G04 #@! TF.CreationDate,2024-09-18T09:46:16+09:00*
G04 #@! TF.ProjectId,3p_long_10,33705f6c-6f6e-4675-9f31-302e6b696361,rev?*
G04 #@! TF.SameCoordinates,Original*
G04 #@! TF.FileFunction,Copper,L2,Bot*
G04 #@! TF.FilePolarity,Positive*
%FSLAX46Y46*%
G04 Gerber Fmt 4.6, Leading zero omitted, Abs format (unit mm)*
G04 Created by KiCad (PCBNEW 7.0.9) date 2024-09-18 09:46:16*
%MOMM*%
%LPD*%
G01*
G04 APERTURE LIST*
G04 #@! TA.AperFunction,ComponentPad*
%ADD10R,1.950000X1.700000*%
G04 #@! TD*
G04 #@! TA.AperFunction,ComponentPad*
%ADD11O,1.950000X1.700000*%
G04 #@! TD*
G04 #@! TA.AperFunction,Conductor*
%ADD12C,1.000000*%
G04 #@! TD*
G04 APERTURE END LIST*
D10*
X131000000Y-65500000D03*
D11*
X131000000Y-68000000D03*
X131000000Y-70500000D03*
D10*
X131000000Y-104500000D03*
D11*
X131000000Y-107000000D03*
X131000000Y-109500000D03*
X139000000Y-91500000D03*
X139000000Y-94000000D03*
D10*
X139000000Y-96500000D03*
X131000000Y-91500000D03*
D11*
X131000000Y-94000000D03*
X131000000Y-96500000D03*
D10*
X131000000Y-78500000D03*
D11*
X131000000Y-81000000D03*
X131000000Y-83500000D03*
X139000000Y-78500000D03*
X139000000Y-81000000D03*
D10*
X139000000Y-83500000D03*
D11*
X139000000Y-65500000D03*
X139000000Y-68000000D03*
D10*
X139000000Y-70500000D03*
D11*
X139000000Y-104500000D03*
X139000000Y-107000000D03*
D10*
X139000000Y-109500000D03*
D11*
X139000000Y-52500000D03*
X139000000Y-55000000D03*
D10*
X139000000Y-57500000D03*
X131000000Y-52500000D03*
D11*
X131000000Y-55000000D03*
X131000000Y-57500000D03*
X110000000Y-104500000D03*
X110000000Y-107000000D03*
D10*
X110000000Y-109500000D03*
X102000000Y-104500000D03*
D11*
X102000000Y-107000000D03*
X102000000Y-109500000D03*
D10*
X102000000Y-91500000D03*
D11*
X102000000Y-94000000D03*
X102000000Y-96500000D03*
X110000000Y-91500000D03*
X110000000Y-94000000D03*
D10*
X110000000Y-96500000D03*
D11*
X110000000Y-78500000D03*
X110000000Y-81000000D03*
D10*
X110000000Y-83500000D03*
X102000000Y-78500000D03*
D11*
X102000000Y-81000000D03*
X102000000Y-83500000D03*
X110000000Y-65500000D03*
X110000000Y-68000000D03*
D10*
X110000000Y-70500000D03*
X102000000Y-65500000D03*
D11*
X102000000Y-68000000D03*
X102000000Y-70500000D03*
X110000000Y-52500000D03*
X110000000Y-55000000D03*
D10*
X110000000Y-57500000D03*
X102000000Y-52500000D03*
D11*
X102000000Y-55000000D03*
X102000000Y-57500000D03*
D12*
X131000000Y-70500000D02*
X139000000Y-70500000D01*
X131000000Y-68000000D02*
X139000000Y-68000000D01*
X131000000Y-65500000D02*
X139000000Y-65500000D01*
X131000000Y-55000000D02*
X139000000Y-55000000D01*
X131000000Y-52500000D02*
X139000000Y-52500000D01*
X131000000Y-57500000D02*
X139000000Y-57500000D01*
X131000000Y-81000000D02*
X139000000Y-81000000D01*
X131000000Y-78500000D02*
X139000000Y-78500000D01*
X131000000Y-83500000D02*
X139000000Y-83500000D01*
X131000000Y-107000000D02*
X139000000Y-107000000D01*
X131000000Y-104500000D02*
X139000000Y-104500000D01*
X131000000Y-109500000D02*
X139000000Y-109500000D01*
X131000000Y-96500000D02*
X139000000Y-96500000D01*
X131000000Y-94000000D02*
X139000000Y-94000000D01*
X131000000Y-91500000D02*
X139000000Y-91500000D01*
X102000000Y-109500000D02*
X110000000Y-109500000D01*
X102000000Y-107000000D02*
X110000000Y-107000000D01*
X102000000Y-104500000D02*
X110000000Y-104500000D01*
X102000000Y-96500000D02*
X110000000Y-96500000D01*
X102000000Y-94000000D02*
X110000000Y-94000000D01*
X102000000Y-91500000D02*
X110000000Y-91500000D01*
X102000000Y-81000000D02*
X110000000Y-81000000D01*
X102000000Y-78500000D02*
X110000000Y-78500000D01*
X102000000Y-83500000D02*
X110000000Y-83500000D01*
X102000000Y-68000000D02*
X110000000Y-68000000D01*
X102000000Y-65500000D02*
X110000000Y-65500000D01*
X102000000Y-70500000D02*
X110000000Y-70500000D01*
X102000000Y-57500000D02*
X110000000Y-57500000D01*
X102000000Y-55000000D02*
X110000000Y-55000000D01*
X102000000Y-52500000D02*
X110000000Y-52500000D01*
M02*
