M48
; DRILL file {KiCad 7.0.9} date Tue Sep  3 11:35:07 2024
; FORMAT={3:3/ absolute / metric / keep zeros}
; #@! TF.CreationDate,2024-09-03T11:35:07+09:00
; #@! TF.GenerationSoftware,Kicad,Pcbnew,7.0.9
; #@! TF.FileFunction,MixedPlating,1,2
FMAT,2
METRIC
; #@! TA.AperFunction,Plated,PTH,ComponentDrill
T1C0.700
; #@! TA.AperFunction,Plated,PTH,ComponentDrill
T2C0.762
; #@! TA.AperFunction,Plated,PTH,ComponentDrill
T3C0.800
; #@! TA.AperFunction,Plated,PTH,ComponentDrill
T4C0.950
; #@! TA.AperFunction,Plated,PTH,ComponentDrill
T5C1.100
%
G90
G05
T1
X099190Y-078000
X106810Y-078000
X108500Y-088630
X108500Y-096250
X108500Y-100380
X108500Y-108000
X108500Y-112380
X108500Y-120000
X108500Y-123630
X108500Y-131250
X126000Y-088630
X126000Y-096250
X126000Y-100380
X126000Y-108000
X126000Y-112380
X126000Y-120000
X126000Y-123630
X126000Y-131250
T2
X158460Y-090000
X161000Y-092540
X163540Y-090000
T3
X118180Y-075180
X118180Y-077720
X118180Y-080260
X118180Y-082800
X125800Y-075180
X125800Y-077720
X125800Y-080260
X125800Y-082800
X134380Y-080220
X134380Y-082760
X134380Y-085300
X134380Y-087840
X134380Y-090380
X134380Y-092920
X134380Y-095460
X134380Y-098000
X134380Y-100540
X134380Y-103080
X134380Y-105620
X134380Y-108160
X134380Y-110700
X134380Y-113240
X134380Y-115780
X149620Y-080220
X149620Y-082760
X149620Y-085300
X149620Y-087840
X149620Y-090380
X149620Y-092920
X149620Y-095460
X149620Y-098000
X149620Y-100540
X149620Y-103080
X149620Y-105620
X149620Y-108160
X149620Y-110700
X149620Y-113240
X149620Y-115780
T4
X166000Y-069500
X166000Y-072000
X166000Y-074500
T5
X099000Y-091000
X099000Y-095500
X099000Y-102750
X099000Y-107250
X099000Y-114750
X099000Y-119250
X099000Y-126000
X099000Y-130500
X105500Y-091000
X105500Y-095500
X105500Y-102750
X105500Y-107250
X105500Y-114750
X105500Y-119250
X105500Y-126000
X105500Y-130500
X116500Y-091000
X116500Y-095500
X116500Y-102750
X116500Y-107250
X116500Y-114750
X116500Y-119250
X116500Y-126000
X116500Y-130500
X123000Y-091000
X123000Y-095500
X123000Y-102750
X123000Y-107250
X123000Y-114750
X123000Y-119250
X123000Y-126000
X123000Y-130500
T0
M30
