G04 #@! TF.GenerationSoftware,KiCad,Pcbnew,7.0.9*
G04 #@! TF.CreationDate,2024-09-01T01:30:57+09:00*
G04 #@! TF.ProjectId,ODAmain_ver2.0,4f44416d-6169-46e5-9f76-6572322e302e,rev?*
G04 #@! TF.SameCoordinates,Original*
G04 #@! TF.FileFunction,Soldermask,Bot*
G04 #@! TF.FilePolarity,Negative*
%FSLAX46Y46*%
G04 Gerber Fmt 4.6, Leading zero omitted, Abs format (unit mm)*
G04 Created by KiCad (PCBNEW 7.0.9) date 2024-09-01 01:30:57*
%MOMM*%
%LPD*%
G01*
G04 APERTURE LIST*
G04 Aperture macros list*
%AMRoundRect*
0 Rectangle with rounded corners*
0 $1 Rounding radius*
0 $2 $3 $4 $5 $6 $7 $8 $9 X,Y pos of 4 corners*
0 Add a 4 corners polygon primitive as box body*
4,1,4,$2,$3,$4,$5,$6,$7,$8,$9,$2,$3,0*
0 Add four circle primitives for the rounded corners*
1,1,$1+$1,$2,$3*
1,1,$1+$1,$4,$5*
1,1,$1+$1,$6,$7*
1,1,$1+$1,$8,$9*
0 Add four rect primitives between the rounded corners*
20,1,$1+$1,$2,$3,$4,$5,0*
20,1,$1+$1,$4,$5,$6,$7,0*
20,1,$1+$1,$6,$7,$8,$9,0*
20,1,$1+$1,$8,$9,$2,$3,0*%
G04 Aperture macros list end*
%ADD10C,2.000000*%
%ADD11C,1.998980*%
%ADD12R,1.700000X1.700000*%
%ADD13O,1.700000X1.700000*%
%ADD14C,1.000000*%
%ADD15C,5.000000*%
%ADD16O,1.800000X2.200000*%
%ADD17R,1.800000X2.200000*%
%ADD18O,1.524000X1.800000*%
%ADD19R,6.400000X5.800000*%
%ADD20R,2.200000X1.200000*%
%ADD21RoundRect,0.250000X0.725000X-0.600000X0.725000X0.600000X-0.725000X0.600000X-0.725000X-0.600000X0*%
%ADD22O,1.950000X1.700000*%
%ADD23R,2.000000X0.600000*%
%ADD24R,1.000000X1.000000*%
%ADD25RoundRect,0.237500X0.400000X0.237500X-0.400000X0.237500X-0.400000X-0.237500X0.400000X-0.237500X0*%
%ADD26RoundRect,0.237500X-0.400000X-0.237500X0.400000X-0.237500X0.400000X0.237500X-0.400000X0.237500X0*%
%ADD27RoundRect,0.237500X-0.237500X0.400000X-0.237500X-0.400000X0.237500X-0.400000X0.237500X0.400000X0*%
%ADD28R,1.800000X0.800000*%
%ADD29C,3.500000*%
%ADD30C,1.524000*%
%ADD31R,1.524000X1.524000*%
%ADD32RoundRect,0.250000X0.600000X0.725000X-0.600000X0.725000X-0.600000X-0.725000X0.600000X-0.725000X0*%
%ADD33O,1.700000X1.950000*%
%ADD34O,2.800000X2.000000*%
%ADD35RoundRect,0.250000X-0.600000X-0.725000X0.600000X-0.725000X0.600000X0.725000X-0.600000X0.725000X0*%
%ADD36R,0.600000X0.900000*%
%ADD37C,5.600000*%
G04 APERTURE END LIST*
D10*
X163500000Y-123000000D03*
X163500000Y-129500000D03*
X168000000Y-123000000D03*
X168000000Y-129500000D03*
X158850000Y-129500000D03*
X158850000Y-123000000D03*
X154350000Y-129500000D03*
X154350000Y-123000000D03*
X145350000Y-123000000D03*
X145350000Y-129500000D03*
X149850000Y-123000000D03*
X149850000Y-129500000D03*
X136350000Y-123000000D03*
X136350000Y-129500000D03*
X140850000Y-123000000D03*
X140850000Y-129500000D03*
D11*
X142900000Y-116540000D03*
X142900000Y-111460000D03*
D12*
X187540000Y-102780000D03*
D13*
X187540000Y-100240000D03*
X187540000Y-97700000D03*
X187540000Y-95160000D03*
X187540000Y-92620000D03*
X187540000Y-90080000D03*
X187540000Y-87540000D03*
X187540000Y-85000000D03*
D12*
X185000000Y-102780000D03*
D13*
X185000000Y-100240000D03*
X185000000Y-97700000D03*
X185000000Y-95160000D03*
X185000000Y-92620000D03*
X185000000Y-90080000D03*
X185000000Y-87540000D03*
X185000000Y-85000000D03*
D12*
X182460000Y-102780000D03*
D13*
X182460000Y-100240000D03*
X182460000Y-97700000D03*
X182460000Y-95160000D03*
X182460000Y-92620000D03*
X182460000Y-90080000D03*
X182460000Y-87540000D03*
X182460000Y-85000000D03*
D14*
X193100000Y-119920000D03*
X198800000Y-119920000D03*
D15*
X206500000Y-95020000D03*
X207000000Y-120420000D03*
D16*
X207620000Y-125780000D03*
X205080000Y-125780000D03*
X202540000Y-125780000D03*
X200000000Y-125780000D03*
X197460000Y-125780000D03*
X194920000Y-125780000D03*
D17*
X192380000Y-125780000D03*
D16*
X192380000Y-90220000D03*
X194920000Y-90220000D03*
X197460000Y-90220000D03*
X200000000Y-90220000D03*
X202540000Y-90220000D03*
X205080000Y-90220000D03*
X207620000Y-90220000D03*
D18*
X130380000Y-97000000D03*
X132920000Y-97000000D03*
X135460000Y-97000000D03*
X138000000Y-97000000D03*
X138000000Y-89380000D03*
X135460000Y-89380000D03*
X132920000Y-89380000D03*
X130380000Y-89380000D03*
D19*
X118350000Y-93700000D03*
D20*
X112050000Y-91420000D03*
X112050000Y-93700000D03*
X112050000Y-95980000D03*
D21*
X112900000Y-106900000D03*
D22*
X112900000Y-104400000D03*
X112900000Y-101900000D03*
D23*
X164550000Y-87905000D03*
X164550000Y-86635000D03*
X164550000Y-84095000D03*
X169450000Y-84095000D03*
X169450000Y-85365000D03*
X169450000Y-86635000D03*
X169450000Y-87905000D03*
X164550000Y-85365000D03*
X150550000Y-87905000D03*
X150550000Y-86635000D03*
X150550000Y-84095000D03*
X155450000Y-84095000D03*
X155450000Y-85365000D03*
X155450000Y-86635000D03*
X155450000Y-87905000D03*
X150550000Y-85365000D03*
D24*
X118250000Y-113000000D03*
X115750000Y-113000000D03*
D25*
X166712500Y-126250000D03*
X164587500Y-126250000D03*
X157712500Y-126250000D03*
X155587500Y-126250000D03*
X146587500Y-126250000D03*
X148712500Y-126250000D03*
X139712500Y-126150000D03*
X137587500Y-126150000D03*
X180437500Y-119000000D03*
X182562500Y-119000000D03*
X182562500Y-117000000D03*
X180437500Y-117000000D03*
X182562500Y-121000000D03*
X180437500Y-121000000D03*
X182562500Y-123000000D03*
X180437500Y-123000000D03*
X175437500Y-127750000D03*
X177562500Y-127750000D03*
X132505000Y-94250000D03*
X130380000Y-94250000D03*
D26*
X119275000Y-101900000D03*
X121400000Y-101900000D03*
X202280000Y-104750000D03*
X204405000Y-104750000D03*
X130380000Y-92250000D03*
X132505000Y-92250000D03*
X119275000Y-106900000D03*
X121400000Y-106900000D03*
D27*
X207757738Y-106437500D03*
X207757738Y-108562500D03*
D26*
X178375000Y-113500000D03*
X180500000Y-113500000D03*
X178375000Y-111500000D03*
X180500000Y-111500000D03*
X178375000Y-109500000D03*
X180500000Y-109500000D03*
X178375000Y-107500000D03*
X180500000Y-107500000D03*
X173962500Y-89100000D03*
X171837500Y-89100000D03*
X157900000Y-89100000D03*
X160025000Y-89100000D03*
D28*
X134700000Y-93250000D03*
X138000000Y-94200000D03*
X138000000Y-92300000D03*
X202350000Y-108450000D03*
X202350000Y-106550000D03*
X205650000Y-107500000D03*
D29*
X200982500Y-100930000D03*
X200982500Y-114070000D03*
D30*
X198272500Y-104000000D03*
X198272500Y-106500000D03*
X198272500Y-108500000D03*
D31*
X198272500Y-111000000D03*
D32*
X170750000Y-94025000D03*
D33*
X168250000Y-94025000D03*
X165750000Y-94025000D03*
X163250000Y-94025000D03*
D32*
X156750000Y-94025000D03*
D33*
X154250000Y-94025000D03*
X151750000Y-94025000D03*
X149250000Y-94025000D03*
D13*
X173975000Y-85110000D03*
D12*
X173975000Y-87650000D03*
X159975000Y-87650000D03*
D13*
X159975000Y-85110000D03*
D34*
X123000000Y-129750000D03*
D35*
X121750000Y-123250000D03*
D33*
X124250000Y-123250000D03*
D36*
X178050000Y-95100000D03*
X179000000Y-95100000D03*
X179950000Y-95100000D03*
X179950000Y-97900000D03*
X178050000Y-97900000D03*
D14*
X204950000Y-130150000D03*
X205594370Y-128594370D03*
X205594370Y-131705630D03*
X207150000Y-127950000D03*
D37*
X207150000Y-130150000D03*
D14*
X207150000Y-132350000D03*
X208705630Y-128594370D03*
X208705630Y-131705630D03*
X209350000Y-130150000D03*
X110680000Y-85850000D03*
X111324370Y-84294370D03*
X111324370Y-87405630D03*
X112880000Y-83650000D03*
D37*
X112880000Y-85850000D03*
D14*
X112880000Y-88050000D03*
X114435630Y-84294370D03*
X114435630Y-87405630D03*
X115080000Y-85850000D03*
X110650000Y-130150000D03*
X111294370Y-128594370D03*
X111294370Y-131705630D03*
X112850000Y-127950000D03*
D37*
X112850000Y-130150000D03*
D14*
X112850000Y-132350000D03*
X114405630Y-128594370D03*
X114405630Y-131705630D03*
X115050000Y-130150000D03*
X204950000Y-85850000D03*
X205594370Y-84294370D03*
X205594370Y-87405630D03*
X207150000Y-83650000D03*
D37*
X207150000Y-85850000D03*
D14*
X207150000Y-88050000D03*
X208705630Y-84294370D03*
X208705630Y-87405630D03*
X209350000Y-85850000D03*
M02*
