G04 #@! TF.GenerationSoftware,KiCad,Pcbnew,7.0.9*
G04 #@! TF.CreationDate,2024-09-01T01:30:57+09:00*
G04 #@! TF.ProjectId,ODAmain_ver2.0,4f44416d-6169-46e5-9f76-6572322e302e,rev?*
G04 #@! TF.SameCoordinates,Original*
G04 #@! TF.FileFunction,Legend,Bot*
G04 #@! TF.FilePolarity,Positive*
%FSLAX46Y46*%
G04 Gerber Fmt 4.6, Leading zero omitted, Abs format (unit mm)*
G04 Created by KiCad (PCBNEW 7.0.9) date 2024-09-01 01:30:57*
%MOMM*%
%LPD*%
G01*
G04 APERTURE LIST*
G04 Aperture macros list*
%AMRoundRect*
0 Rectangle with rounded corners*
0 $1 Rounding radius*
0 $2 $3 $4 $5 $6 $7 $8 $9 X,Y pos of 4 corners*
0 Add a 4 corners polygon primitive as box body*
4,1,4,$2,$3,$4,$5,$6,$7,$8,$9,$2,$3,0*
0 Add four circle primitives for the rounded corners*
1,1,$1+$1,$2,$3*
1,1,$1+$1,$4,$5*
1,1,$1+$1,$6,$7*
1,1,$1+$1,$8,$9*
0 Add four rect primitives between the rounded corners*
20,1,$1+$1,$2,$3,$4,$5,0*
20,1,$1+$1,$4,$5,$6,$7,0*
20,1,$1+$1,$6,$7,$8,$9,0*
20,1,$1+$1,$8,$9,$2,$3,0*%
G04 Aperture macros list end*
%ADD10C,0.153000*%
%ADD11C,0.254000*%
%ADD12C,0.100000*%
%ADD13C,0.120000*%
%ADD14C,0.200000*%
%ADD15C,2.000000*%
%ADD16C,1.998980*%
%ADD17R,1.700000X1.700000*%
%ADD18O,1.700000X1.700000*%
%ADD19C,1.000000*%
%ADD20C,5.000000*%
%ADD21O,1.800000X2.200000*%
%ADD22R,1.800000X2.200000*%
%ADD23O,1.524000X1.800000*%
%ADD24R,6.400000X5.800000*%
%ADD25R,2.200000X1.200000*%
%ADD26RoundRect,0.250000X0.725000X-0.600000X0.725000X0.600000X-0.725000X0.600000X-0.725000X-0.600000X0*%
%ADD27O,1.950000X1.700000*%
%ADD28R,2.000000X0.600000*%
%ADD29R,1.000000X1.000000*%
%ADD30RoundRect,0.237500X0.400000X0.237500X-0.400000X0.237500X-0.400000X-0.237500X0.400000X-0.237500X0*%
%ADD31RoundRect,0.237500X-0.400000X-0.237500X0.400000X-0.237500X0.400000X0.237500X-0.400000X0.237500X0*%
%ADD32RoundRect,0.237500X-0.237500X0.400000X-0.237500X-0.400000X0.237500X-0.400000X0.237500X0.400000X0*%
%ADD33R,1.800000X0.800000*%
%ADD34C,3.500000*%
%ADD35C,1.524000*%
%ADD36R,1.524000X1.524000*%
%ADD37RoundRect,0.250000X0.600000X0.725000X-0.600000X0.725000X-0.600000X-0.725000X0.600000X-0.725000X0*%
%ADD38O,1.700000X1.950000*%
%ADD39O,2.800000X2.000000*%
%ADD40RoundRect,0.250000X-0.600000X-0.725000X0.600000X-0.725000X0.600000X0.725000X-0.600000X0.725000X0*%
%ADD41R,0.600000X0.900000*%
%ADD42C,5.600000*%
G04 APERTURE END LIST*
D10*
X200708866Y-93492044D02*
X200566009Y-93539663D01*
X200566009Y-93539663D02*
X200327914Y-93539663D01*
X200327914Y-93539663D02*
X200232676Y-93492044D01*
X200232676Y-93492044D02*
X200185057Y-93444424D01*
X200185057Y-93444424D02*
X200137438Y-93349186D01*
X200137438Y-93349186D02*
X200137438Y-93253948D01*
X200137438Y-93253948D02*
X200185057Y-93158710D01*
X200185057Y-93158710D02*
X200232676Y-93111091D01*
X200232676Y-93111091D02*
X200327914Y-93063472D01*
X200327914Y-93063472D02*
X200518390Y-93015853D01*
X200518390Y-93015853D02*
X200613628Y-92968234D01*
X200613628Y-92968234D02*
X200661247Y-92920615D01*
X200661247Y-92920615D02*
X200708866Y-92825377D01*
X200708866Y-92825377D02*
X200708866Y-92730139D01*
X200708866Y-92730139D02*
X200661247Y-92634901D01*
X200661247Y-92634901D02*
X200613628Y-92587282D01*
X200613628Y-92587282D02*
X200518390Y-92539663D01*
X200518390Y-92539663D02*
X200280295Y-92539663D01*
X200280295Y-92539663D02*
X200137438Y-92587282D01*
X199327914Y-93492044D02*
X199423152Y-93539663D01*
X199423152Y-93539663D02*
X199613628Y-93539663D01*
X199613628Y-93539663D02*
X199708866Y-93492044D01*
X199708866Y-93492044D02*
X199756485Y-93396805D01*
X199756485Y-93396805D02*
X199756485Y-93015853D01*
X199756485Y-93015853D02*
X199708866Y-92920615D01*
X199708866Y-92920615D02*
X199613628Y-92872996D01*
X199613628Y-92872996D02*
X199423152Y-92872996D01*
X199423152Y-92872996D02*
X199327914Y-92920615D01*
X199327914Y-92920615D02*
X199280295Y-93015853D01*
X199280295Y-93015853D02*
X199280295Y-93111091D01*
X199280295Y-93111091D02*
X199756485Y-93206329D01*
X198851723Y-93539663D02*
X198851723Y-92872996D01*
X198851723Y-93063472D02*
X198804104Y-92968234D01*
X198804104Y-92968234D02*
X198756485Y-92920615D01*
X198756485Y-92920615D02*
X198661247Y-92872996D01*
X198661247Y-92872996D02*
X198566009Y-92872996D01*
X198232675Y-93539663D02*
X198232675Y-92872996D01*
X198232675Y-92539663D02*
X198280294Y-92587282D01*
X198280294Y-92587282D02*
X198232675Y-92634901D01*
X198232675Y-92634901D02*
X198185056Y-92587282D01*
X198185056Y-92587282D02*
X198232675Y-92539663D01*
X198232675Y-92539663D02*
X198232675Y-92634901D01*
X197327914Y-93539663D02*
X197327914Y-93015853D01*
X197327914Y-93015853D02*
X197375533Y-92920615D01*
X197375533Y-92920615D02*
X197470771Y-92872996D01*
X197470771Y-92872996D02*
X197661247Y-92872996D01*
X197661247Y-92872996D02*
X197756485Y-92920615D01*
X197327914Y-93492044D02*
X197423152Y-93539663D01*
X197423152Y-93539663D02*
X197661247Y-93539663D01*
X197661247Y-93539663D02*
X197756485Y-93492044D01*
X197756485Y-93492044D02*
X197804104Y-93396805D01*
X197804104Y-93396805D02*
X197804104Y-93301567D01*
X197804104Y-93301567D02*
X197756485Y-93206329D01*
X197756485Y-93206329D02*
X197661247Y-93158710D01*
X197661247Y-93158710D02*
X197423152Y-93158710D01*
X197423152Y-93158710D02*
X197327914Y-93111091D01*
X196708866Y-93539663D02*
X196804104Y-93492044D01*
X196804104Y-93492044D02*
X196851723Y-93396805D01*
X196851723Y-93396805D02*
X196851723Y-92539663D01*
X196470770Y-92539663D02*
X195899342Y-92539663D01*
X196185056Y-93539663D02*
X196185056Y-92539663D01*
X195661246Y-92539663D02*
X194994580Y-93539663D01*
X194994580Y-92539663D02*
X195661246Y-93539663D01*
X194613627Y-93444424D02*
X194566008Y-93492044D01*
X194566008Y-93492044D02*
X194613627Y-93539663D01*
X194613627Y-93539663D02*
X194661246Y-93492044D01*
X194661246Y-93492044D02*
X194613627Y-93444424D01*
X194613627Y-93444424D02*
X194613627Y-93539663D01*
X194613627Y-92920615D02*
X194566008Y-92968234D01*
X194566008Y-92968234D02*
X194613627Y-93015853D01*
X194613627Y-93015853D02*
X194661246Y-92968234D01*
X194661246Y-92968234D02*
X194613627Y-92920615D01*
X194613627Y-92920615D02*
X194613627Y-93015853D01*
X194137437Y-93539663D02*
X194137437Y-92539663D01*
X194137437Y-92539663D02*
X193756485Y-92539663D01*
X193756485Y-92539663D02*
X193661247Y-92587282D01*
X193661247Y-92587282D02*
X193613628Y-92634901D01*
X193613628Y-92634901D02*
X193566009Y-92730139D01*
X193566009Y-92730139D02*
X193566009Y-92872996D01*
X193566009Y-92872996D02*
X193613628Y-92968234D01*
X193613628Y-92968234D02*
X193661247Y-93015853D01*
X193661247Y-93015853D02*
X193756485Y-93063472D01*
X193756485Y-93063472D02*
X194137437Y-93063472D01*
X192566009Y-93444424D02*
X192613628Y-93492044D01*
X192613628Y-93492044D02*
X192756485Y-93539663D01*
X192756485Y-93539663D02*
X192851723Y-93539663D01*
X192851723Y-93539663D02*
X192994580Y-93492044D01*
X192994580Y-93492044D02*
X193089818Y-93396805D01*
X193089818Y-93396805D02*
X193137437Y-93301567D01*
X193137437Y-93301567D02*
X193185056Y-93111091D01*
X193185056Y-93111091D02*
X193185056Y-92968234D01*
X193185056Y-92968234D02*
X193137437Y-92777758D01*
X193137437Y-92777758D02*
X193089818Y-92682520D01*
X193089818Y-92682520D02*
X192994580Y-92587282D01*
X192994580Y-92587282D02*
X192851723Y-92539663D01*
X192851723Y-92539663D02*
X192756485Y-92539663D01*
X192756485Y-92539663D02*
X192613628Y-92587282D01*
X192613628Y-92587282D02*
X192566009Y-92634901D01*
X191708866Y-92539663D02*
X191899342Y-92539663D01*
X191899342Y-92539663D02*
X191994580Y-92587282D01*
X191994580Y-92587282D02*
X192042199Y-92634901D01*
X192042199Y-92634901D02*
X192137437Y-92777758D01*
X192137437Y-92777758D02*
X192185056Y-92968234D01*
X192185056Y-92968234D02*
X192185056Y-93349186D01*
X192185056Y-93349186D02*
X192137437Y-93444424D01*
X192137437Y-93444424D02*
X192089818Y-93492044D01*
X192089818Y-93492044D02*
X191994580Y-93539663D01*
X191994580Y-93539663D02*
X191804104Y-93539663D01*
X191804104Y-93539663D02*
X191708866Y-93492044D01*
X191708866Y-93492044D02*
X191661247Y-93444424D01*
X191661247Y-93444424D02*
X191613628Y-93349186D01*
X191613628Y-93349186D02*
X191613628Y-93111091D01*
X191613628Y-93111091D02*
X191661247Y-93015853D01*
X191661247Y-93015853D02*
X191708866Y-92968234D01*
X191708866Y-92968234D02*
X191804104Y-92920615D01*
X191804104Y-92920615D02*
X191994580Y-92920615D01*
X191994580Y-92920615D02*
X192089818Y-92968234D01*
X192089818Y-92968234D02*
X192137437Y-93015853D01*
X192137437Y-93015853D02*
X192185056Y-93111091D01*
X200708866Y-95102044D02*
X200566009Y-95149663D01*
X200566009Y-95149663D02*
X200327914Y-95149663D01*
X200327914Y-95149663D02*
X200232676Y-95102044D01*
X200232676Y-95102044D02*
X200185057Y-95054424D01*
X200185057Y-95054424D02*
X200137438Y-94959186D01*
X200137438Y-94959186D02*
X200137438Y-94863948D01*
X200137438Y-94863948D02*
X200185057Y-94768710D01*
X200185057Y-94768710D02*
X200232676Y-94721091D01*
X200232676Y-94721091D02*
X200327914Y-94673472D01*
X200327914Y-94673472D02*
X200518390Y-94625853D01*
X200518390Y-94625853D02*
X200613628Y-94578234D01*
X200613628Y-94578234D02*
X200661247Y-94530615D01*
X200661247Y-94530615D02*
X200708866Y-94435377D01*
X200708866Y-94435377D02*
X200708866Y-94340139D01*
X200708866Y-94340139D02*
X200661247Y-94244901D01*
X200661247Y-94244901D02*
X200613628Y-94197282D01*
X200613628Y-94197282D02*
X200518390Y-94149663D01*
X200518390Y-94149663D02*
X200280295Y-94149663D01*
X200280295Y-94149663D02*
X200137438Y-94197282D01*
X199327914Y-95102044D02*
X199423152Y-95149663D01*
X199423152Y-95149663D02*
X199613628Y-95149663D01*
X199613628Y-95149663D02*
X199708866Y-95102044D01*
X199708866Y-95102044D02*
X199756485Y-95006805D01*
X199756485Y-95006805D02*
X199756485Y-94625853D01*
X199756485Y-94625853D02*
X199708866Y-94530615D01*
X199708866Y-94530615D02*
X199613628Y-94482996D01*
X199613628Y-94482996D02*
X199423152Y-94482996D01*
X199423152Y-94482996D02*
X199327914Y-94530615D01*
X199327914Y-94530615D02*
X199280295Y-94625853D01*
X199280295Y-94625853D02*
X199280295Y-94721091D01*
X199280295Y-94721091D02*
X199756485Y-94816329D01*
X198851723Y-95149663D02*
X198851723Y-94482996D01*
X198851723Y-94673472D02*
X198804104Y-94578234D01*
X198804104Y-94578234D02*
X198756485Y-94530615D01*
X198756485Y-94530615D02*
X198661247Y-94482996D01*
X198661247Y-94482996D02*
X198566009Y-94482996D01*
X198232675Y-95149663D02*
X198232675Y-94482996D01*
X198232675Y-94149663D02*
X198280294Y-94197282D01*
X198280294Y-94197282D02*
X198232675Y-94244901D01*
X198232675Y-94244901D02*
X198185056Y-94197282D01*
X198185056Y-94197282D02*
X198232675Y-94149663D01*
X198232675Y-94149663D02*
X198232675Y-94244901D01*
X197327914Y-95149663D02*
X197327914Y-94625853D01*
X197327914Y-94625853D02*
X197375533Y-94530615D01*
X197375533Y-94530615D02*
X197470771Y-94482996D01*
X197470771Y-94482996D02*
X197661247Y-94482996D01*
X197661247Y-94482996D02*
X197756485Y-94530615D01*
X197327914Y-95102044D02*
X197423152Y-95149663D01*
X197423152Y-95149663D02*
X197661247Y-95149663D01*
X197661247Y-95149663D02*
X197756485Y-95102044D01*
X197756485Y-95102044D02*
X197804104Y-95006805D01*
X197804104Y-95006805D02*
X197804104Y-94911567D01*
X197804104Y-94911567D02*
X197756485Y-94816329D01*
X197756485Y-94816329D02*
X197661247Y-94768710D01*
X197661247Y-94768710D02*
X197423152Y-94768710D01*
X197423152Y-94768710D02*
X197327914Y-94721091D01*
X196708866Y-95149663D02*
X196804104Y-95102044D01*
X196804104Y-95102044D02*
X196851723Y-95006805D01*
X196851723Y-95006805D02*
X196851723Y-94149663D01*
X195756485Y-95149663D02*
X196089818Y-94673472D01*
X196327913Y-95149663D02*
X196327913Y-94149663D01*
X196327913Y-94149663D02*
X195946961Y-94149663D01*
X195946961Y-94149663D02*
X195851723Y-94197282D01*
X195851723Y-94197282D02*
X195804104Y-94244901D01*
X195804104Y-94244901D02*
X195756485Y-94340139D01*
X195756485Y-94340139D02*
X195756485Y-94482996D01*
X195756485Y-94482996D02*
X195804104Y-94578234D01*
X195804104Y-94578234D02*
X195851723Y-94625853D01*
X195851723Y-94625853D02*
X195946961Y-94673472D01*
X195946961Y-94673472D02*
X196327913Y-94673472D01*
X195423151Y-94149663D02*
X194756485Y-95149663D01*
X194756485Y-94149663D02*
X195423151Y-95149663D01*
X194375532Y-95054424D02*
X194327913Y-95102044D01*
X194327913Y-95102044D02*
X194375532Y-95149663D01*
X194375532Y-95149663D02*
X194423151Y-95102044D01*
X194423151Y-95102044D02*
X194375532Y-95054424D01*
X194375532Y-95054424D02*
X194375532Y-95149663D01*
X194375532Y-94530615D02*
X194327913Y-94578234D01*
X194327913Y-94578234D02*
X194375532Y-94625853D01*
X194375532Y-94625853D02*
X194423151Y-94578234D01*
X194423151Y-94578234D02*
X194375532Y-94530615D01*
X194375532Y-94530615D02*
X194375532Y-94625853D01*
X193899342Y-95149663D02*
X193899342Y-94149663D01*
X193899342Y-94149663D02*
X193518390Y-94149663D01*
X193518390Y-94149663D02*
X193423152Y-94197282D01*
X193423152Y-94197282D02*
X193375533Y-94244901D01*
X193375533Y-94244901D02*
X193327914Y-94340139D01*
X193327914Y-94340139D02*
X193327914Y-94482996D01*
X193327914Y-94482996D02*
X193375533Y-94578234D01*
X193375533Y-94578234D02*
X193423152Y-94625853D01*
X193423152Y-94625853D02*
X193518390Y-94673472D01*
X193518390Y-94673472D02*
X193899342Y-94673472D01*
X192327914Y-95054424D02*
X192375533Y-95102044D01*
X192375533Y-95102044D02*
X192518390Y-95149663D01*
X192518390Y-95149663D02*
X192613628Y-95149663D01*
X192613628Y-95149663D02*
X192756485Y-95102044D01*
X192756485Y-95102044D02*
X192851723Y-95006805D01*
X192851723Y-95006805D02*
X192899342Y-94911567D01*
X192899342Y-94911567D02*
X192946961Y-94721091D01*
X192946961Y-94721091D02*
X192946961Y-94578234D01*
X192946961Y-94578234D02*
X192899342Y-94387758D01*
X192899342Y-94387758D02*
X192851723Y-94292520D01*
X192851723Y-94292520D02*
X192756485Y-94197282D01*
X192756485Y-94197282D02*
X192613628Y-94149663D01*
X192613628Y-94149663D02*
X192518390Y-94149663D01*
X192518390Y-94149663D02*
X192375533Y-94197282D01*
X192375533Y-94197282D02*
X192327914Y-94244901D01*
X191994580Y-94149663D02*
X191327914Y-94149663D01*
X191327914Y-94149663D02*
X191756485Y-95149663D01*
X200661247Y-96759663D02*
X200661247Y-95759663D01*
X200185057Y-96759663D02*
X200185057Y-95759663D01*
X200185057Y-95759663D02*
X199613629Y-96759663D01*
X199613629Y-96759663D02*
X199613629Y-95759663D01*
X199137438Y-96759663D02*
X199137438Y-95759663D01*
X198661248Y-96664424D02*
X198613629Y-96712044D01*
X198613629Y-96712044D02*
X198661248Y-96759663D01*
X198661248Y-96759663D02*
X198708867Y-96712044D01*
X198708867Y-96712044D02*
X198661248Y-96664424D01*
X198661248Y-96664424D02*
X198661248Y-96759663D01*
X198661248Y-96140615D02*
X198613629Y-96188234D01*
X198613629Y-96188234D02*
X198661248Y-96235853D01*
X198661248Y-96235853D02*
X198708867Y-96188234D01*
X198708867Y-96188234D02*
X198661248Y-96140615D01*
X198661248Y-96140615D02*
X198661248Y-96235853D01*
X198185058Y-96759663D02*
X198185058Y-95759663D01*
X198185058Y-95759663D02*
X197804106Y-95759663D01*
X197804106Y-95759663D02*
X197708868Y-95807282D01*
X197708868Y-95807282D02*
X197661249Y-95854901D01*
X197661249Y-95854901D02*
X197613630Y-95950139D01*
X197613630Y-95950139D02*
X197613630Y-96092996D01*
X197613630Y-96092996D02*
X197661249Y-96188234D01*
X197661249Y-96188234D02*
X197708868Y-96235853D01*
X197708868Y-96235853D02*
X197804106Y-96283472D01*
X197804106Y-96283472D02*
X198185058Y-96283472D01*
X196613630Y-96664424D02*
X196661249Y-96712044D01*
X196661249Y-96712044D02*
X196804106Y-96759663D01*
X196804106Y-96759663D02*
X196899344Y-96759663D01*
X196899344Y-96759663D02*
X197042201Y-96712044D01*
X197042201Y-96712044D02*
X197137439Y-96616805D01*
X197137439Y-96616805D02*
X197185058Y-96521567D01*
X197185058Y-96521567D02*
X197232677Y-96331091D01*
X197232677Y-96331091D02*
X197232677Y-96188234D01*
X197232677Y-96188234D02*
X197185058Y-95997758D01*
X197185058Y-95997758D02*
X197137439Y-95902520D01*
X197137439Y-95902520D02*
X197042201Y-95807282D01*
X197042201Y-95807282D02*
X196899344Y-95759663D01*
X196899344Y-95759663D02*
X196804106Y-95759663D01*
X196804106Y-95759663D02*
X196661249Y-95807282D01*
X196661249Y-95807282D02*
X196613630Y-95854901D01*
X196042201Y-96188234D02*
X196137439Y-96140615D01*
X196137439Y-96140615D02*
X196185058Y-96092996D01*
X196185058Y-96092996D02*
X196232677Y-95997758D01*
X196232677Y-95997758D02*
X196232677Y-95950139D01*
X196232677Y-95950139D02*
X196185058Y-95854901D01*
X196185058Y-95854901D02*
X196137439Y-95807282D01*
X196137439Y-95807282D02*
X196042201Y-95759663D01*
X196042201Y-95759663D02*
X195851725Y-95759663D01*
X195851725Y-95759663D02*
X195756487Y-95807282D01*
X195756487Y-95807282D02*
X195708868Y-95854901D01*
X195708868Y-95854901D02*
X195661249Y-95950139D01*
X195661249Y-95950139D02*
X195661249Y-95997758D01*
X195661249Y-95997758D02*
X195708868Y-96092996D01*
X195708868Y-96092996D02*
X195756487Y-96140615D01*
X195756487Y-96140615D02*
X195851725Y-96188234D01*
X195851725Y-96188234D02*
X196042201Y-96188234D01*
X196042201Y-96188234D02*
X196137439Y-96235853D01*
X196137439Y-96235853D02*
X196185058Y-96283472D01*
X196185058Y-96283472D02*
X196232677Y-96378710D01*
X196232677Y-96378710D02*
X196232677Y-96569186D01*
X196232677Y-96569186D02*
X196185058Y-96664424D01*
X196185058Y-96664424D02*
X196137439Y-96712044D01*
X196137439Y-96712044D02*
X196042201Y-96759663D01*
X196042201Y-96759663D02*
X195851725Y-96759663D01*
X195851725Y-96759663D02*
X195756487Y-96712044D01*
X195756487Y-96712044D02*
X195708868Y-96664424D01*
X195708868Y-96664424D02*
X195661249Y-96569186D01*
X195661249Y-96569186D02*
X195661249Y-96378710D01*
X195661249Y-96378710D02*
X195708868Y-96283472D01*
X195708868Y-96283472D02*
X195756487Y-96235853D01*
X195756487Y-96235853D02*
X195851725Y-96188234D01*
X200089819Y-98369663D02*
X200423152Y-97893472D01*
X200661247Y-98369663D02*
X200661247Y-97369663D01*
X200661247Y-97369663D02*
X200280295Y-97369663D01*
X200280295Y-97369663D02*
X200185057Y-97417282D01*
X200185057Y-97417282D02*
X200137438Y-97464901D01*
X200137438Y-97464901D02*
X200089819Y-97560139D01*
X200089819Y-97560139D02*
X200089819Y-97702996D01*
X200089819Y-97702996D02*
X200137438Y-97798234D01*
X200137438Y-97798234D02*
X200185057Y-97845853D01*
X200185057Y-97845853D02*
X200280295Y-97893472D01*
X200280295Y-97893472D02*
X200661247Y-97893472D01*
X199708866Y-98322044D02*
X199566009Y-98369663D01*
X199566009Y-98369663D02*
X199327914Y-98369663D01*
X199327914Y-98369663D02*
X199232676Y-98322044D01*
X199232676Y-98322044D02*
X199185057Y-98274424D01*
X199185057Y-98274424D02*
X199137438Y-98179186D01*
X199137438Y-98179186D02*
X199137438Y-98083948D01*
X199137438Y-98083948D02*
X199185057Y-97988710D01*
X199185057Y-97988710D02*
X199232676Y-97941091D01*
X199232676Y-97941091D02*
X199327914Y-97893472D01*
X199327914Y-97893472D02*
X199518390Y-97845853D01*
X199518390Y-97845853D02*
X199613628Y-97798234D01*
X199613628Y-97798234D02*
X199661247Y-97750615D01*
X199661247Y-97750615D02*
X199708866Y-97655377D01*
X199708866Y-97655377D02*
X199708866Y-97560139D01*
X199708866Y-97560139D02*
X199661247Y-97464901D01*
X199661247Y-97464901D02*
X199613628Y-97417282D01*
X199613628Y-97417282D02*
X199518390Y-97369663D01*
X199518390Y-97369663D02*
X199280295Y-97369663D01*
X199280295Y-97369663D02*
X199137438Y-97417282D01*
X198851723Y-97369663D02*
X198280295Y-97369663D01*
X198566009Y-98369663D02*
X198566009Y-97369663D01*
X197946961Y-98274424D02*
X197899342Y-98322044D01*
X197899342Y-98322044D02*
X197946961Y-98369663D01*
X197946961Y-98369663D02*
X197994580Y-98322044D01*
X197994580Y-98322044D02*
X197946961Y-98274424D01*
X197946961Y-98274424D02*
X197946961Y-98369663D01*
X197946961Y-97750615D02*
X197899342Y-97798234D01*
X197899342Y-97798234D02*
X197946961Y-97845853D01*
X197946961Y-97845853D02*
X197994580Y-97798234D01*
X197994580Y-97798234D02*
X197946961Y-97750615D01*
X197946961Y-97750615D02*
X197946961Y-97845853D01*
X197470771Y-98369663D02*
X197470771Y-97369663D01*
X197470771Y-97369663D02*
X197089819Y-97369663D01*
X197089819Y-97369663D02*
X196994581Y-97417282D01*
X196994581Y-97417282D02*
X196946962Y-97464901D01*
X196946962Y-97464901D02*
X196899343Y-97560139D01*
X196899343Y-97560139D02*
X196899343Y-97702996D01*
X196899343Y-97702996D02*
X196946962Y-97798234D01*
X196946962Y-97798234D02*
X196994581Y-97845853D01*
X196994581Y-97845853D02*
X197089819Y-97893472D01*
X197089819Y-97893472D02*
X197470771Y-97893472D01*
X195899343Y-98274424D02*
X195946962Y-98322044D01*
X195946962Y-98322044D02*
X196089819Y-98369663D01*
X196089819Y-98369663D02*
X196185057Y-98369663D01*
X196185057Y-98369663D02*
X196327914Y-98322044D01*
X196327914Y-98322044D02*
X196423152Y-98226805D01*
X196423152Y-98226805D02*
X196470771Y-98131567D01*
X196470771Y-98131567D02*
X196518390Y-97941091D01*
X196518390Y-97941091D02*
X196518390Y-97798234D01*
X196518390Y-97798234D02*
X196470771Y-97607758D01*
X196470771Y-97607758D02*
X196423152Y-97512520D01*
X196423152Y-97512520D02*
X196327914Y-97417282D01*
X196327914Y-97417282D02*
X196185057Y-97369663D01*
X196185057Y-97369663D02*
X196089819Y-97369663D01*
X196089819Y-97369663D02*
X195946962Y-97417282D01*
X195946962Y-97417282D02*
X195899343Y-97464901D01*
X195423152Y-98369663D02*
X195232676Y-98369663D01*
X195232676Y-98369663D02*
X195137438Y-98322044D01*
X195137438Y-98322044D02*
X195089819Y-98274424D01*
X195089819Y-98274424D02*
X194994581Y-98131567D01*
X194994581Y-98131567D02*
X194946962Y-97941091D01*
X194946962Y-97941091D02*
X194946962Y-97560139D01*
X194946962Y-97560139D02*
X194994581Y-97464901D01*
X194994581Y-97464901D02*
X195042200Y-97417282D01*
X195042200Y-97417282D02*
X195137438Y-97369663D01*
X195137438Y-97369663D02*
X195327914Y-97369663D01*
X195327914Y-97369663D02*
X195423152Y-97417282D01*
X195423152Y-97417282D02*
X195470771Y-97464901D01*
X195470771Y-97464901D02*
X195518390Y-97560139D01*
X195518390Y-97560139D02*
X195518390Y-97798234D01*
X195518390Y-97798234D02*
X195470771Y-97893472D01*
X195470771Y-97893472D02*
X195423152Y-97941091D01*
X195423152Y-97941091D02*
X195327914Y-97988710D01*
X195327914Y-97988710D02*
X195137438Y-97988710D01*
X195137438Y-97988710D02*
X195042200Y-97941091D01*
X195042200Y-97941091D02*
X194994581Y-97893472D01*
X194994581Y-97893472D02*
X194946962Y-97798234D01*
X153630336Y-89499999D02*
X153630336Y-88928571D01*
X152630336Y-89214285D02*
X153630336Y-89214285D01*
X153630336Y-88309523D02*
X152916051Y-88309523D01*
X152916051Y-88309523D02*
X152773194Y-88357142D01*
X152773194Y-88357142D02*
X152677956Y-88452380D01*
X152677956Y-88452380D02*
X152630336Y-88595237D01*
X152630336Y-88595237D02*
X152630336Y-88690475D01*
X152630336Y-87309523D02*
X152630336Y-87880951D01*
X152630336Y-87595237D02*
X153630336Y-87595237D01*
X153630336Y-87595237D02*
X153487479Y-87690475D01*
X153487479Y-87690475D02*
X153392241Y-87785713D01*
X153392241Y-87785713D02*
X153344622Y-87880951D01*
X153297003Y-86452380D02*
X152630336Y-86452380D01*
X153677956Y-86690475D02*
X152963670Y-86928570D01*
X152963670Y-86928570D02*
X152963670Y-86309523D01*
X153297003Y-85499999D02*
X152630336Y-85499999D01*
X153677956Y-85738094D02*
X152963670Y-85976189D01*
X152963670Y-85976189D02*
X152963670Y-85357142D01*
X152630336Y-84452380D02*
X152630336Y-85023808D01*
X152630336Y-84738094D02*
X153630336Y-84738094D01*
X153630336Y-84738094D02*
X153487479Y-84833332D01*
X153487479Y-84833332D02*
X153392241Y-84928570D01*
X153392241Y-84928570D02*
X153344622Y-85023808D01*
X152916051Y-84071427D02*
X152916051Y-83595237D01*
X152630336Y-84166665D02*
X153630336Y-83833332D01*
X153630336Y-83833332D02*
X152630336Y-83499999D01*
X167630336Y-89499999D02*
X167630336Y-88928571D01*
X166630336Y-89214285D02*
X167630336Y-89214285D01*
X167630336Y-88309523D02*
X166916051Y-88309523D01*
X166916051Y-88309523D02*
X166773194Y-88357142D01*
X166773194Y-88357142D02*
X166677956Y-88452380D01*
X166677956Y-88452380D02*
X166630336Y-88595237D01*
X166630336Y-88595237D02*
X166630336Y-88690475D01*
X166630336Y-87309523D02*
X166630336Y-87880951D01*
X166630336Y-87595237D02*
X167630336Y-87595237D01*
X167630336Y-87595237D02*
X167487479Y-87690475D01*
X167487479Y-87690475D02*
X167392241Y-87785713D01*
X167392241Y-87785713D02*
X167344622Y-87880951D01*
X167297003Y-86452380D02*
X166630336Y-86452380D01*
X167677956Y-86690475D02*
X166963670Y-86928570D01*
X166963670Y-86928570D02*
X166963670Y-86309523D01*
X167297003Y-85499999D02*
X166630336Y-85499999D01*
X167677956Y-85738094D02*
X166963670Y-85976189D01*
X166963670Y-85976189D02*
X166963670Y-85357142D01*
X166630336Y-84452380D02*
X166630336Y-85023808D01*
X166630336Y-84738094D02*
X167630336Y-84738094D01*
X167630336Y-84738094D02*
X167487479Y-84833332D01*
X167487479Y-84833332D02*
X167392241Y-84928570D01*
X167392241Y-84928570D02*
X167344622Y-85023808D01*
X166916051Y-84071427D02*
X166916051Y-83595237D01*
X166630336Y-84166665D02*
X167630336Y-83833332D01*
X167630336Y-83833332D02*
X166630336Y-83499999D01*
X123595237Y-98454663D02*
X123595237Y-97454663D01*
X123595237Y-97454663D02*
X123023809Y-98454663D01*
X123023809Y-98454663D02*
X123023809Y-97454663D01*
X122261904Y-97454663D02*
X122261904Y-98168948D01*
X122261904Y-98168948D02*
X122309523Y-98311805D01*
X122309523Y-98311805D02*
X122404761Y-98407044D01*
X122404761Y-98407044D02*
X122547618Y-98454663D01*
X122547618Y-98454663D02*
X122642856Y-98454663D01*
X121785713Y-98454663D02*
X121785713Y-97454663D01*
X121785713Y-97454663D02*
X121452380Y-98168948D01*
X121452380Y-98168948D02*
X121119047Y-97454663D01*
X121119047Y-97454663D02*
X121119047Y-98454663D01*
X120690475Y-97549901D02*
X120642856Y-97502282D01*
X120642856Y-97502282D02*
X120547618Y-97454663D01*
X120547618Y-97454663D02*
X120309523Y-97454663D01*
X120309523Y-97454663D02*
X120214285Y-97502282D01*
X120214285Y-97502282D02*
X120166666Y-97549901D01*
X120166666Y-97549901D02*
X120119047Y-97645139D01*
X120119047Y-97645139D02*
X120119047Y-97740377D01*
X120119047Y-97740377D02*
X120166666Y-97883234D01*
X120166666Y-97883234D02*
X120738094Y-98454663D01*
X120738094Y-98454663D02*
X120119047Y-98454663D01*
X119547618Y-97883234D02*
X119642856Y-97835615D01*
X119642856Y-97835615D02*
X119690475Y-97787996D01*
X119690475Y-97787996D02*
X119738094Y-97692758D01*
X119738094Y-97692758D02*
X119738094Y-97645139D01*
X119738094Y-97645139D02*
X119690475Y-97549901D01*
X119690475Y-97549901D02*
X119642856Y-97502282D01*
X119642856Y-97502282D02*
X119547618Y-97454663D01*
X119547618Y-97454663D02*
X119357142Y-97454663D01*
X119357142Y-97454663D02*
X119261904Y-97502282D01*
X119261904Y-97502282D02*
X119214285Y-97549901D01*
X119214285Y-97549901D02*
X119166666Y-97645139D01*
X119166666Y-97645139D02*
X119166666Y-97692758D01*
X119166666Y-97692758D02*
X119214285Y-97787996D01*
X119214285Y-97787996D02*
X119261904Y-97835615D01*
X119261904Y-97835615D02*
X119357142Y-97883234D01*
X119357142Y-97883234D02*
X119547618Y-97883234D01*
X119547618Y-97883234D02*
X119642856Y-97930853D01*
X119642856Y-97930853D02*
X119690475Y-97978472D01*
X119690475Y-97978472D02*
X119738094Y-98073710D01*
X119738094Y-98073710D02*
X119738094Y-98264186D01*
X119738094Y-98264186D02*
X119690475Y-98359424D01*
X119690475Y-98359424D02*
X119642856Y-98407044D01*
X119642856Y-98407044D02*
X119547618Y-98454663D01*
X119547618Y-98454663D02*
X119357142Y-98454663D01*
X119357142Y-98454663D02*
X119261904Y-98407044D01*
X119261904Y-98407044D02*
X119214285Y-98359424D01*
X119214285Y-98359424D02*
X119166666Y-98264186D01*
X119166666Y-98264186D02*
X119166666Y-98073710D01*
X119166666Y-98073710D02*
X119214285Y-97978472D01*
X119214285Y-97978472D02*
X119261904Y-97930853D01*
X119261904Y-97930853D02*
X119357142Y-97883234D01*
X118309523Y-97787996D02*
X118309523Y-98454663D01*
X118547618Y-97407044D02*
X118785713Y-98121329D01*
X118785713Y-98121329D02*
X118166666Y-98121329D01*
X117309523Y-97454663D02*
X117785713Y-97454663D01*
X117785713Y-97454663D02*
X117833332Y-97930853D01*
X117833332Y-97930853D02*
X117785713Y-97883234D01*
X117785713Y-97883234D02*
X117690475Y-97835615D01*
X117690475Y-97835615D02*
X117452380Y-97835615D01*
X117452380Y-97835615D02*
X117357142Y-97883234D01*
X117357142Y-97883234D02*
X117309523Y-97930853D01*
X117309523Y-97930853D02*
X117261904Y-98026091D01*
X117261904Y-98026091D02*
X117261904Y-98264186D01*
X117261904Y-98264186D02*
X117309523Y-98359424D01*
X117309523Y-98359424D02*
X117357142Y-98407044D01*
X117357142Y-98407044D02*
X117452380Y-98454663D01*
X117452380Y-98454663D02*
X117690475Y-98454663D01*
X117690475Y-98454663D02*
X117785713Y-98407044D01*
X117785713Y-98407044D02*
X117833332Y-98359424D01*
X116833332Y-98454663D02*
X116833332Y-97454663D01*
X116833332Y-97454663D02*
X116595237Y-97454663D01*
X116595237Y-97454663D02*
X116452380Y-97502282D01*
X116452380Y-97502282D02*
X116357142Y-97597520D01*
X116357142Y-97597520D02*
X116309523Y-97692758D01*
X116309523Y-97692758D02*
X116261904Y-97883234D01*
X116261904Y-97883234D02*
X116261904Y-98026091D01*
X116261904Y-98026091D02*
X116309523Y-98216567D01*
X116309523Y-98216567D02*
X116357142Y-98311805D01*
X116357142Y-98311805D02*
X116452380Y-98407044D01*
X116452380Y-98407044D02*
X116595237Y-98454663D01*
X116595237Y-98454663D02*
X116833332Y-98454663D01*
X115357142Y-98454663D02*
X115833332Y-98454663D01*
X115833332Y-98454663D02*
X115833332Y-97454663D01*
X114499999Y-98454663D02*
X115071427Y-98454663D01*
X114785713Y-98454663D02*
X114785713Y-97454663D01*
X114785713Y-97454663D02*
X114880951Y-97597520D01*
X114880951Y-97597520D02*
X114976189Y-97692758D01*
X114976189Y-97692758D02*
X115071427Y-97740377D01*
X114071427Y-98073710D02*
X113309523Y-98073710D01*
X112928570Y-97454663D02*
X112309523Y-97454663D01*
X112309523Y-97454663D02*
X112642856Y-97835615D01*
X112642856Y-97835615D02*
X112499999Y-97835615D01*
X112499999Y-97835615D02*
X112404761Y-97883234D01*
X112404761Y-97883234D02*
X112357142Y-97930853D01*
X112357142Y-97930853D02*
X112309523Y-98026091D01*
X112309523Y-98026091D02*
X112309523Y-98264186D01*
X112309523Y-98264186D02*
X112357142Y-98359424D01*
X112357142Y-98359424D02*
X112404761Y-98407044D01*
X112404761Y-98407044D02*
X112499999Y-98454663D01*
X112499999Y-98454663D02*
X112785713Y-98454663D01*
X112785713Y-98454663D02*
X112880951Y-98407044D01*
X112880951Y-98407044D02*
X112928570Y-98359424D01*
X111976189Y-97454663D02*
X111357142Y-97454663D01*
X111357142Y-97454663D02*
X111690475Y-97835615D01*
X111690475Y-97835615D02*
X111547618Y-97835615D01*
X111547618Y-97835615D02*
X111452380Y-97883234D01*
X111452380Y-97883234D02*
X111404761Y-97930853D01*
X111404761Y-97930853D02*
X111357142Y-98026091D01*
X111357142Y-98026091D02*
X111357142Y-98264186D01*
X111357142Y-98264186D02*
X111404761Y-98359424D01*
X111404761Y-98359424D02*
X111452380Y-98407044D01*
X111452380Y-98407044D02*
X111547618Y-98454663D01*
X111547618Y-98454663D02*
X111833332Y-98454663D01*
X111833332Y-98454663D02*
X111928570Y-98407044D01*
X111928570Y-98407044D02*
X111976189Y-98359424D01*
X120709524Y-115354663D02*
X120709524Y-114354663D01*
X120709524Y-114354663D02*
X120471429Y-114354663D01*
X120471429Y-114354663D02*
X120328572Y-114402282D01*
X120328572Y-114402282D02*
X120233334Y-114497520D01*
X120233334Y-114497520D02*
X120185715Y-114592758D01*
X120185715Y-114592758D02*
X120138096Y-114783234D01*
X120138096Y-114783234D02*
X120138096Y-114926091D01*
X120138096Y-114926091D02*
X120185715Y-115116567D01*
X120185715Y-115116567D02*
X120233334Y-115211805D01*
X120233334Y-115211805D02*
X120328572Y-115307044D01*
X120328572Y-115307044D02*
X120471429Y-115354663D01*
X120471429Y-115354663D02*
X120709524Y-115354663D01*
X119947620Y-115449901D02*
X119185715Y-115449901D01*
X118995238Y-115307044D02*
X118852381Y-115354663D01*
X118852381Y-115354663D02*
X118614286Y-115354663D01*
X118614286Y-115354663D02*
X118519048Y-115307044D01*
X118519048Y-115307044D02*
X118471429Y-115259424D01*
X118471429Y-115259424D02*
X118423810Y-115164186D01*
X118423810Y-115164186D02*
X118423810Y-115068948D01*
X118423810Y-115068948D02*
X118471429Y-114973710D01*
X118471429Y-114973710D02*
X118519048Y-114926091D01*
X118519048Y-114926091D02*
X118614286Y-114878472D01*
X118614286Y-114878472D02*
X118804762Y-114830853D01*
X118804762Y-114830853D02*
X118900000Y-114783234D01*
X118900000Y-114783234D02*
X118947619Y-114735615D01*
X118947619Y-114735615D02*
X118995238Y-114640377D01*
X118995238Y-114640377D02*
X118995238Y-114545139D01*
X118995238Y-114545139D02*
X118947619Y-114449901D01*
X118947619Y-114449901D02*
X118900000Y-114402282D01*
X118900000Y-114402282D02*
X118804762Y-114354663D01*
X118804762Y-114354663D02*
X118566667Y-114354663D01*
X118566667Y-114354663D02*
X118423810Y-114402282D01*
X117566667Y-115307044D02*
X117661905Y-115354663D01*
X117661905Y-115354663D02*
X117852381Y-115354663D01*
X117852381Y-115354663D02*
X117947619Y-115307044D01*
X117947619Y-115307044D02*
X117995238Y-115259424D01*
X117995238Y-115259424D02*
X118042857Y-115164186D01*
X118042857Y-115164186D02*
X118042857Y-114878472D01*
X118042857Y-114878472D02*
X117995238Y-114783234D01*
X117995238Y-114783234D02*
X117947619Y-114735615D01*
X117947619Y-114735615D02*
X117852381Y-114687996D01*
X117852381Y-114687996D02*
X117661905Y-114687996D01*
X117661905Y-114687996D02*
X117566667Y-114735615D01*
X117138095Y-115354663D02*
X117138095Y-114354663D01*
X116709524Y-115354663D02*
X116709524Y-114830853D01*
X116709524Y-114830853D02*
X116757143Y-114735615D01*
X116757143Y-114735615D02*
X116852381Y-114687996D01*
X116852381Y-114687996D02*
X116995238Y-114687996D01*
X116995238Y-114687996D02*
X117090476Y-114735615D01*
X117090476Y-114735615D02*
X117138095Y-114783234D01*
X116090476Y-115354663D02*
X116185714Y-115307044D01*
X116185714Y-115307044D02*
X116233333Y-115259424D01*
X116233333Y-115259424D02*
X116280952Y-115164186D01*
X116280952Y-115164186D02*
X116280952Y-114878472D01*
X116280952Y-114878472D02*
X116233333Y-114783234D01*
X116233333Y-114783234D02*
X116185714Y-114735615D01*
X116185714Y-114735615D02*
X116090476Y-114687996D01*
X116090476Y-114687996D02*
X115947619Y-114687996D01*
X115947619Y-114687996D02*
X115852381Y-114735615D01*
X115852381Y-114735615D02*
X115804762Y-114783234D01*
X115804762Y-114783234D02*
X115757143Y-114878472D01*
X115757143Y-114878472D02*
X115757143Y-115164186D01*
X115757143Y-115164186D02*
X115804762Y-115259424D01*
X115804762Y-115259424D02*
X115852381Y-115307044D01*
X115852381Y-115307044D02*
X115947619Y-115354663D01*
X115947619Y-115354663D02*
X116090476Y-115354663D01*
X115471428Y-114687996D02*
X115090476Y-114687996D01*
X115328571Y-114354663D02*
X115328571Y-115211805D01*
X115328571Y-115211805D02*
X115280952Y-115307044D01*
X115280952Y-115307044D02*
X115185714Y-115354663D01*
X115185714Y-115354663D02*
X115090476Y-115354663D01*
X114899999Y-114687996D02*
X114519047Y-114687996D01*
X114757142Y-114354663D02*
X114757142Y-115211805D01*
X114757142Y-115211805D02*
X114709523Y-115307044D01*
X114709523Y-115307044D02*
X114614285Y-115354663D01*
X114614285Y-115354663D02*
X114519047Y-115354663D01*
X114185713Y-115354663D02*
X114185713Y-114354663D01*
X114090475Y-114973710D02*
X113804761Y-115354663D01*
X113804761Y-114687996D02*
X114185713Y-115068948D01*
X113471427Y-114687996D02*
X113233332Y-115354663D01*
X112995237Y-114687996D02*
X113233332Y-115354663D01*
X113233332Y-115354663D02*
X113328570Y-115592758D01*
X113328570Y-115592758D02*
X113376189Y-115640377D01*
X113376189Y-115640377D02*
X113471427Y-115687996D01*
X166245238Y-128134663D02*
X166816666Y-128134663D01*
X166530952Y-128134663D02*
X166530952Y-127134663D01*
X166530952Y-127134663D02*
X166626190Y-127277520D01*
X166626190Y-127277520D02*
X166721428Y-127372758D01*
X166721428Y-127372758D02*
X166816666Y-127420377D01*
X165626190Y-127134663D02*
X165530952Y-127134663D01*
X165530952Y-127134663D02*
X165435714Y-127182282D01*
X165435714Y-127182282D02*
X165388095Y-127229901D01*
X165388095Y-127229901D02*
X165340476Y-127325139D01*
X165340476Y-127325139D02*
X165292857Y-127515615D01*
X165292857Y-127515615D02*
X165292857Y-127753710D01*
X165292857Y-127753710D02*
X165340476Y-127944186D01*
X165340476Y-127944186D02*
X165388095Y-128039424D01*
X165388095Y-128039424D02*
X165435714Y-128087044D01*
X165435714Y-128087044D02*
X165530952Y-128134663D01*
X165530952Y-128134663D02*
X165626190Y-128134663D01*
X165626190Y-128134663D02*
X165721428Y-128087044D01*
X165721428Y-128087044D02*
X165769047Y-128039424D01*
X165769047Y-128039424D02*
X165816666Y-127944186D01*
X165816666Y-127944186D02*
X165864285Y-127753710D01*
X165864285Y-127753710D02*
X165864285Y-127515615D01*
X165864285Y-127515615D02*
X165816666Y-127325139D01*
X165816666Y-127325139D02*
X165769047Y-127229901D01*
X165769047Y-127229901D02*
X165721428Y-127182282D01*
X165721428Y-127182282D02*
X165626190Y-127134663D01*
X164864285Y-128134663D02*
X164864285Y-127134663D01*
X164769047Y-127753710D02*
X164483333Y-128134663D01*
X164483333Y-127467996D02*
X164864285Y-127848948D01*
X157245238Y-128134663D02*
X157816666Y-128134663D01*
X157530952Y-128134663D02*
X157530952Y-127134663D01*
X157530952Y-127134663D02*
X157626190Y-127277520D01*
X157626190Y-127277520D02*
X157721428Y-127372758D01*
X157721428Y-127372758D02*
X157816666Y-127420377D01*
X156626190Y-127134663D02*
X156530952Y-127134663D01*
X156530952Y-127134663D02*
X156435714Y-127182282D01*
X156435714Y-127182282D02*
X156388095Y-127229901D01*
X156388095Y-127229901D02*
X156340476Y-127325139D01*
X156340476Y-127325139D02*
X156292857Y-127515615D01*
X156292857Y-127515615D02*
X156292857Y-127753710D01*
X156292857Y-127753710D02*
X156340476Y-127944186D01*
X156340476Y-127944186D02*
X156388095Y-128039424D01*
X156388095Y-128039424D02*
X156435714Y-128087044D01*
X156435714Y-128087044D02*
X156530952Y-128134663D01*
X156530952Y-128134663D02*
X156626190Y-128134663D01*
X156626190Y-128134663D02*
X156721428Y-128087044D01*
X156721428Y-128087044D02*
X156769047Y-128039424D01*
X156769047Y-128039424D02*
X156816666Y-127944186D01*
X156816666Y-127944186D02*
X156864285Y-127753710D01*
X156864285Y-127753710D02*
X156864285Y-127515615D01*
X156864285Y-127515615D02*
X156816666Y-127325139D01*
X156816666Y-127325139D02*
X156769047Y-127229901D01*
X156769047Y-127229901D02*
X156721428Y-127182282D01*
X156721428Y-127182282D02*
X156626190Y-127134663D01*
X155864285Y-128134663D02*
X155864285Y-127134663D01*
X155769047Y-127753710D02*
X155483333Y-128134663D01*
X155483333Y-127467996D02*
X155864285Y-127848948D01*
X148245238Y-128134663D02*
X148816666Y-128134663D01*
X148530952Y-128134663D02*
X148530952Y-127134663D01*
X148530952Y-127134663D02*
X148626190Y-127277520D01*
X148626190Y-127277520D02*
X148721428Y-127372758D01*
X148721428Y-127372758D02*
X148816666Y-127420377D01*
X147626190Y-127134663D02*
X147530952Y-127134663D01*
X147530952Y-127134663D02*
X147435714Y-127182282D01*
X147435714Y-127182282D02*
X147388095Y-127229901D01*
X147388095Y-127229901D02*
X147340476Y-127325139D01*
X147340476Y-127325139D02*
X147292857Y-127515615D01*
X147292857Y-127515615D02*
X147292857Y-127753710D01*
X147292857Y-127753710D02*
X147340476Y-127944186D01*
X147340476Y-127944186D02*
X147388095Y-128039424D01*
X147388095Y-128039424D02*
X147435714Y-128087044D01*
X147435714Y-128087044D02*
X147530952Y-128134663D01*
X147530952Y-128134663D02*
X147626190Y-128134663D01*
X147626190Y-128134663D02*
X147721428Y-128087044D01*
X147721428Y-128087044D02*
X147769047Y-128039424D01*
X147769047Y-128039424D02*
X147816666Y-127944186D01*
X147816666Y-127944186D02*
X147864285Y-127753710D01*
X147864285Y-127753710D02*
X147864285Y-127515615D01*
X147864285Y-127515615D02*
X147816666Y-127325139D01*
X147816666Y-127325139D02*
X147769047Y-127229901D01*
X147769047Y-127229901D02*
X147721428Y-127182282D01*
X147721428Y-127182282D02*
X147626190Y-127134663D01*
X146864285Y-128134663D02*
X146864285Y-127134663D01*
X146769047Y-127753710D02*
X146483333Y-128134663D01*
X146483333Y-127467996D02*
X146864285Y-127848948D01*
X139245238Y-128034663D02*
X139816666Y-128034663D01*
X139530952Y-128034663D02*
X139530952Y-127034663D01*
X139530952Y-127034663D02*
X139626190Y-127177520D01*
X139626190Y-127177520D02*
X139721428Y-127272758D01*
X139721428Y-127272758D02*
X139816666Y-127320377D01*
X138626190Y-127034663D02*
X138530952Y-127034663D01*
X138530952Y-127034663D02*
X138435714Y-127082282D01*
X138435714Y-127082282D02*
X138388095Y-127129901D01*
X138388095Y-127129901D02*
X138340476Y-127225139D01*
X138340476Y-127225139D02*
X138292857Y-127415615D01*
X138292857Y-127415615D02*
X138292857Y-127653710D01*
X138292857Y-127653710D02*
X138340476Y-127844186D01*
X138340476Y-127844186D02*
X138388095Y-127939424D01*
X138388095Y-127939424D02*
X138435714Y-127987044D01*
X138435714Y-127987044D02*
X138530952Y-128034663D01*
X138530952Y-128034663D02*
X138626190Y-128034663D01*
X138626190Y-128034663D02*
X138721428Y-127987044D01*
X138721428Y-127987044D02*
X138769047Y-127939424D01*
X138769047Y-127939424D02*
X138816666Y-127844186D01*
X138816666Y-127844186D02*
X138864285Y-127653710D01*
X138864285Y-127653710D02*
X138864285Y-127415615D01*
X138864285Y-127415615D02*
X138816666Y-127225139D01*
X138816666Y-127225139D02*
X138769047Y-127129901D01*
X138769047Y-127129901D02*
X138721428Y-127082282D01*
X138721428Y-127082282D02*
X138626190Y-127034663D01*
X137864285Y-128034663D02*
X137864285Y-127034663D01*
X137769047Y-127653710D02*
X137483333Y-128034663D01*
X137483333Y-127367996D02*
X137864285Y-127748948D01*
X186333333Y-119454663D02*
X186904761Y-119454663D01*
X186619047Y-119454663D02*
X186619047Y-118454663D01*
X186619047Y-118454663D02*
X186714285Y-118597520D01*
X186714285Y-118597520D02*
X186809523Y-118692758D01*
X186809523Y-118692758D02*
X186904761Y-118740377D01*
X185904761Y-119359424D02*
X185857142Y-119407044D01*
X185857142Y-119407044D02*
X185904761Y-119454663D01*
X185904761Y-119454663D02*
X185952380Y-119407044D01*
X185952380Y-119407044D02*
X185904761Y-119359424D01*
X185904761Y-119359424D02*
X185904761Y-119454663D01*
X184952381Y-118454663D02*
X185428571Y-118454663D01*
X185428571Y-118454663D02*
X185476190Y-118930853D01*
X185476190Y-118930853D02*
X185428571Y-118883234D01*
X185428571Y-118883234D02*
X185333333Y-118835615D01*
X185333333Y-118835615D02*
X185095238Y-118835615D01*
X185095238Y-118835615D02*
X185000000Y-118883234D01*
X185000000Y-118883234D02*
X184952381Y-118930853D01*
X184952381Y-118930853D02*
X184904762Y-119026091D01*
X184904762Y-119026091D02*
X184904762Y-119264186D01*
X184904762Y-119264186D02*
X184952381Y-119359424D01*
X184952381Y-119359424D02*
X185000000Y-119407044D01*
X185000000Y-119407044D02*
X185095238Y-119454663D01*
X185095238Y-119454663D02*
X185333333Y-119454663D01*
X185333333Y-119454663D02*
X185428571Y-119407044D01*
X185428571Y-119407044D02*
X185476190Y-119359424D01*
X184476190Y-119454663D02*
X184476190Y-118454663D01*
X184380952Y-119073710D02*
X184095238Y-119454663D01*
X184095238Y-118787996D02*
X184476190Y-119168948D01*
X186395833Y-117454663D02*
X186967261Y-117454663D01*
X186681547Y-117454663D02*
X186681547Y-116454663D01*
X186681547Y-116454663D02*
X186776785Y-116597520D01*
X186776785Y-116597520D02*
X186872023Y-116692758D01*
X186872023Y-116692758D02*
X186967261Y-116740377D01*
X185967261Y-117359424D02*
X185919642Y-117407044D01*
X185919642Y-117407044D02*
X185967261Y-117454663D01*
X185967261Y-117454663D02*
X186014880Y-117407044D01*
X186014880Y-117407044D02*
X185967261Y-117359424D01*
X185967261Y-117359424D02*
X185967261Y-117454663D01*
X185014881Y-116454663D02*
X185491071Y-116454663D01*
X185491071Y-116454663D02*
X185538690Y-116930853D01*
X185538690Y-116930853D02*
X185491071Y-116883234D01*
X185491071Y-116883234D02*
X185395833Y-116835615D01*
X185395833Y-116835615D02*
X185157738Y-116835615D01*
X185157738Y-116835615D02*
X185062500Y-116883234D01*
X185062500Y-116883234D02*
X185014881Y-116930853D01*
X185014881Y-116930853D02*
X184967262Y-117026091D01*
X184967262Y-117026091D02*
X184967262Y-117264186D01*
X184967262Y-117264186D02*
X185014881Y-117359424D01*
X185014881Y-117359424D02*
X185062500Y-117407044D01*
X185062500Y-117407044D02*
X185157738Y-117454663D01*
X185157738Y-117454663D02*
X185395833Y-117454663D01*
X185395833Y-117454663D02*
X185491071Y-117407044D01*
X185491071Y-117407044D02*
X185538690Y-117359424D01*
X184538690Y-117454663D02*
X184538690Y-116454663D01*
X184443452Y-117073710D02*
X184157738Y-117454663D01*
X184157738Y-116787996D02*
X184538690Y-117168948D01*
X186333333Y-121454663D02*
X186904761Y-121454663D01*
X186619047Y-121454663D02*
X186619047Y-120454663D01*
X186619047Y-120454663D02*
X186714285Y-120597520D01*
X186714285Y-120597520D02*
X186809523Y-120692758D01*
X186809523Y-120692758D02*
X186904761Y-120740377D01*
X185904761Y-121359424D02*
X185857142Y-121407044D01*
X185857142Y-121407044D02*
X185904761Y-121454663D01*
X185904761Y-121454663D02*
X185952380Y-121407044D01*
X185952380Y-121407044D02*
X185904761Y-121359424D01*
X185904761Y-121359424D02*
X185904761Y-121454663D01*
X184952381Y-120454663D02*
X185428571Y-120454663D01*
X185428571Y-120454663D02*
X185476190Y-120930853D01*
X185476190Y-120930853D02*
X185428571Y-120883234D01*
X185428571Y-120883234D02*
X185333333Y-120835615D01*
X185333333Y-120835615D02*
X185095238Y-120835615D01*
X185095238Y-120835615D02*
X185000000Y-120883234D01*
X185000000Y-120883234D02*
X184952381Y-120930853D01*
X184952381Y-120930853D02*
X184904762Y-121026091D01*
X184904762Y-121026091D02*
X184904762Y-121264186D01*
X184904762Y-121264186D02*
X184952381Y-121359424D01*
X184952381Y-121359424D02*
X185000000Y-121407044D01*
X185000000Y-121407044D02*
X185095238Y-121454663D01*
X185095238Y-121454663D02*
X185333333Y-121454663D01*
X185333333Y-121454663D02*
X185428571Y-121407044D01*
X185428571Y-121407044D02*
X185476190Y-121359424D01*
X184476190Y-121454663D02*
X184476190Y-120454663D01*
X184380952Y-121073710D02*
X184095238Y-121454663D01*
X184095238Y-120787996D02*
X184476190Y-121168948D01*
X186333333Y-123454663D02*
X186904761Y-123454663D01*
X186619047Y-123454663D02*
X186619047Y-122454663D01*
X186619047Y-122454663D02*
X186714285Y-122597520D01*
X186714285Y-122597520D02*
X186809523Y-122692758D01*
X186809523Y-122692758D02*
X186904761Y-122740377D01*
X185904761Y-123359424D02*
X185857142Y-123407044D01*
X185857142Y-123407044D02*
X185904761Y-123454663D01*
X185904761Y-123454663D02*
X185952380Y-123407044D01*
X185952380Y-123407044D02*
X185904761Y-123359424D01*
X185904761Y-123359424D02*
X185904761Y-123454663D01*
X184952381Y-122454663D02*
X185428571Y-122454663D01*
X185428571Y-122454663D02*
X185476190Y-122930853D01*
X185476190Y-122930853D02*
X185428571Y-122883234D01*
X185428571Y-122883234D02*
X185333333Y-122835615D01*
X185333333Y-122835615D02*
X185095238Y-122835615D01*
X185095238Y-122835615D02*
X185000000Y-122883234D01*
X185000000Y-122883234D02*
X184952381Y-122930853D01*
X184952381Y-122930853D02*
X184904762Y-123026091D01*
X184904762Y-123026091D02*
X184904762Y-123264186D01*
X184904762Y-123264186D02*
X184952381Y-123359424D01*
X184952381Y-123359424D02*
X185000000Y-123407044D01*
X185000000Y-123407044D02*
X185095238Y-123454663D01*
X185095238Y-123454663D02*
X185333333Y-123454663D01*
X185333333Y-123454663D02*
X185428571Y-123407044D01*
X185428571Y-123407044D02*
X185476190Y-123359424D01*
X184476190Y-123454663D02*
X184476190Y-122454663D01*
X184380952Y-123073710D02*
X184095238Y-123454663D01*
X184095238Y-122787996D02*
X184476190Y-123168948D01*
X177428571Y-128967996D02*
X177428571Y-129634663D01*
X177666666Y-128587044D02*
X177904761Y-129301329D01*
X177904761Y-129301329D02*
X177285714Y-129301329D01*
X176904761Y-129539424D02*
X176857142Y-129587044D01*
X176857142Y-129587044D02*
X176904761Y-129634663D01*
X176904761Y-129634663D02*
X176952380Y-129587044D01*
X176952380Y-129587044D02*
X176904761Y-129539424D01*
X176904761Y-129539424D02*
X176904761Y-129634663D01*
X176523809Y-128634663D02*
X175857143Y-128634663D01*
X175857143Y-128634663D02*
X176285714Y-129634663D01*
X175476190Y-129634663D02*
X175476190Y-128634663D01*
X175380952Y-129253710D02*
X175095238Y-129634663D01*
X175095238Y-128967996D02*
X175476190Y-129348948D01*
X132037738Y-96134663D02*
X132609166Y-96134663D01*
X132323452Y-96134663D02*
X132323452Y-95134663D01*
X132323452Y-95134663D02*
X132418690Y-95277520D01*
X132418690Y-95277520D02*
X132513928Y-95372758D01*
X132513928Y-95372758D02*
X132609166Y-95420377D01*
X131418690Y-95134663D02*
X131323452Y-95134663D01*
X131323452Y-95134663D02*
X131228214Y-95182282D01*
X131228214Y-95182282D02*
X131180595Y-95229901D01*
X131180595Y-95229901D02*
X131132976Y-95325139D01*
X131132976Y-95325139D02*
X131085357Y-95515615D01*
X131085357Y-95515615D02*
X131085357Y-95753710D01*
X131085357Y-95753710D02*
X131132976Y-95944186D01*
X131132976Y-95944186D02*
X131180595Y-96039424D01*
X131180595Y-96039424D02*
X131228214Y-96087044D01*
X131228214Y-96087044D02*
X131323452Y-96134663D01*
X131323452Y-96134663D02*
X131418690Y-96134663D01*
X131418690Y-96134663D02*
X131513928Y-96087044D01*
X131513928Y-96087044D02*
X131561547Y-96039424D01*
X131561547Y-96039424D02*
X131609166Y-95944186D01*
X131609166Y-95944186D02*
X131656785Y-95753710D01*
X131656785Y-95753710D02*
X131656785Y-95515615D01*
X131656785Y-95515615D02*
X131609166Y-95325139D01*
X131609166Y-95325139D02*
X131561547Y-95229901D01*
X131561547Y-95229901D02*
X131513928Y-95182282D01*
X131513928Y-95182282D02*
X131418690Y-95134663D01*
X130656785Y-96134663D02*
X130656785Y-95134663D01*
X130561547Y-95753710D02*
X130275833Y-96134663D01*
X130275833Y-95467996D02*
X130656785Y-95848948D01*
X121170833Y-100924663D02*
X121742261Y-100924663D01*
X121456547Y-100924663D02*
X121456547Y-99924663D01*
X121456547Y-99924663D02*
X121551785Y-100067520D01*
X121551785Y-100067520D02*
X121647023Y-100162758D01*
X121647023Y-100162758D02*
X121742261Y-100210377D01*
X120742261Y-100829424D02*
X120694642Y-100877044D01*
X120694642Y-100877044D02*
X120742261Y-100924663D01*
X120742261Y-100924663D02*
X120789880Y-100877044D01*
X120789880Y-100877044D02*
X120742261Y-100829424D01*
X120742261Y-100829424D02*
X120742261Y-100924663D01*
X119789881Y-99924663D02*
X120266071Y-99924663D01*
X120266071Y-99924663D02*
X120313690Y-100400853D01*
X120313690Y-100400853D02*
X120266071Y-100353234D01*
X120266071Y-100353234D02*
X120170833Y-100305615D01*
X120170833Y-100305615D02*
X119932738Y-100305615D01*
X119932738Y-100305615D02*
X119837500Y-100353234D01*
X119837500Y-100353234D02*
X119789881Y-100400853D01*
X119789881Y-100400853D02*
X119742262Y-100496091D01*
X119742262Y-100496091D02*
X119742262Y-100734186D01*
X119742262Y-100734186D02*
X119789881Y-100829424D01*
X119789881Y-100829424D02*
X119837500Y-100877044D01*
X119837500Y-100877044D02*
X119932738Y-100924663D01*
X119932738Y-100924663D02*
X120170833Y-100924663D01*
X120170833Y-100924663D02*
X120266071Y-100877044D01*
X120266071Y-100877044D02*
X120313690Y-100829424D01*
X119313690Y-100924663D02*
X119313690Y-99924663D01*
X119218452Y-100543710D02*
X118932738Y-100924663D01*
X118932738Y-100257996D02*
X119313690Y-100638948D01*
X203937738Y-103774663D02*
X204509166Y-103774663D01*
X204223452Y-103774663D02*
X204223452Y-102774663D01*
X204223452Y-102774663D02*
X204318690Y-102917520D01*
X204318690Y-102917520D02*
X204413928Y-103012758D01*
X204413928Y-103012758D02*
X204509166Y-103060377D01*
X203318690Y-102774663D02*
X203223452Y-102774663D01*
X203223452Y-102774663D02*
X203128214Y-102822282D01*
X203128214Y-102822282D02*
X203080595Y-102869901D01*
X203080595Y-102869901D02*
X203032976Y-102965139D01*
X203032976Y-102965139D02*
X202985357Y-103155615D01*
X202985357Y-103155615D02*
X202985357Y-103393710D01*
X202985357Y-103393710D02*
X203032976Y-103584186D01*
X203032976Y-103584186D02*
X203080595Y-103679424D01*
X203080595Y-103679424D02*
X203128214Y-103727044D01*
X203128214Y-103727044D02*
X203223452Y-103774663D01*
X203223452Y-103774663D02*
X203318690Y-103774663D01*
X203318690Y-103774663D02*
X203413928Y-103727044D01*
X203413928Y-103727044D02*
X203461547Y-103679424D01*
X203461547Y-103679424D02*
X203509166Y-103584186D01*
X203509166Y-103584186D02*
X203556785Y-103393710D01*
X203556785Y-103393710D02*
X203556785Y-103155615D01*
X203556785Y-103155615D02*
X203509166Y-102965139D01*
X203509166Y-102965139D02*
X203461547Y-102869901D01*
X203461547Y-102869901D02*
X203413928Y-102822282D01*
X203413928Y-102822282D02*
X203318690Y-102774663D01*
X202556785Y-103774663D02*
X202556785Y-102774663D01*
X202461547Y-103393710D02*
X202175833Y-103774663D01*
X202175833Y-103107996D02*
X202556785Y-103488948D01*
X132275833Y-91274663D02*
X132847261Y-91274663D01*
X132561547Y-91274663D02*
X132561547Y-90274663D01*
X132561547Y-90274663D02*
X132656785Y-90417520D01*
X132656785Y-90417520D02*
X132752023Y-90512758D01*
X132752023Y-90512758D02*
X132847261Y-90560377D01*
X131847261Y-91179424D02*
X131799642Y-91227044D01*
X131799642Y-91227044D02*
X131847261Y-91274663D01*
X131847261Y-91274663D02*
X131894880Y-91227044D01*
X131894880Y-91227044D02*
X131847261Y-91179424D01*
X131847261Y-91179424D02*
X131847261Y-91274663D01*
X130894881Y-90274663D02*
X131371071Y-90274663D01*
X131371071Y-90274663D02*
X131418690Y-90750853D01*
X131418690Y-90750853D02*
X131371071Y-90703234D01*
X131371071Y-90703234D02*
X131275833Y-90655615D01*
X131275833Y-90655615D02*
X131037738Y-90655615D01*
X131037738Y-90655615D02*
X130942500Y-90703234D01*
X130942500Y-90703234D02*
X130894881Y-90750853D01*
X130894881Y-90750853D02*
X130847262Y-90846091D01*
X130847262Y-90846091D02*
X130847262Y-91084186D01*
X130847262Y-91084186D02*
X130894881Y-91179424D01*
X130894881Y-91179424D02*
X130942500Y-91227044D01*
X130942500Y-91227044D02*
X131037738Y-91274663D01*
X131037738Y-91274663D02*
X131275833Y-91274663D01*
X131275833Y-91274663D02*
X131371071Y-91227044D01*
X131371071Y-91227044D02*
X131418690Y-91179424D01*
X130418690Y-91274663D02*
X130418690Y-90274663D01*
X130323452Y-90893710D02*
X130037738Y-91274663D01*
X130037738Y-90607996D02*
X130418690Y-90988948D01*
X121170833Y-105924663D02*
X121742261Y-105924663D01*
X121456547Y-105924663D02*
X121456547Y-104924663D01*
X121456547Y-104924663D02*
X121551785Y-105067520D01*
X121551785Y-105067520D02*
X121647023Y-105162758D01*
X121647023Y-105162758D02*
X121742261Y-105210377D01*
X120742261Y-105829424D02*
X120694642Y-105877044D01*
X120694642Y-105877044D02*
X120742261Y-105924663D01*
X120742261Y-105924663D02*
X120789880Y-105877044D01*
X120789880Y-105877044D02*
X120742261Y-105829424D01*
X120742261Y-105829424D02*
X120742261Y-105924663D01*
X119789881Y-104924663D02*
X120266071Y-104924663D01*
X120266071Y-104924663D02*
X120313690Y-105400853D01*
X120313690Y-105400853D02*
X120266071Y-105353234D01*
X120266071Y-105353234D02*
X120170833Y-105305615D01*
X120170833Y-105305615D02*
X119932738Y-105305615D01*
X119932738Y-105305615D02*
X119837500Y-105353234D01*
X119837500Y-105353234D02*
X119789881Y-105400853D01*
X119789881Y-105400853D02*
X119742262Y-105496091D01*
X119742262Y-105496091D02*
X119742262Y-105734186D01*
X119742262Y-105734186D02*
X119789881Y-105829424D01*
X119789881Y-105829424D02*
X119837500Y-105877044D01*
X119837500Y-105877044D02*
X119932738Y-105924663D01*
X119932738Y-105924663D02*
X120170833Y-105924663D01*
X120170833Y-105924663D02*
X120266071Y-105877044D01*
X120266071Y-105877044D02*
X120313690Y-105829424D01*
X119313690Y-105924663D02*
X119313690Y-104924663D01*
X119218452Y-105543710D02*
X118932738Y-105924663D01*
X118932738Y-105257996D02*
X119313690Y-105638948D01*
X209642401Y-106666666D02*
X209642401Y-106095238D01*
X209642401Y-106380952D02*
X208642401Y-106380952D01*
X208642401Y-106380952D02*
X208785258Y-106285714D01*
X208785258Y-106285714D02*
X208880496Y-106190476D01*
X208880496Y-106190476D02*
X208928115Y-106095238D01*
X209547162Y-107095238D02*
X209594782Y-107142857D01*
X209594782Y-107142857D02*
X209642401Y-107095238D01*
X209642401Y-107095238D02*
X209594782Y-107047619D01*
X209594782Y-107047619D02*
X209547162Y-107095238D01*
X209547162Y-107095238D02*
X209642401Y-107095238D01*
X208642401Y-108047618D02*
X208642401Y-107571428D01*
X208642401Y-107571428D02*
X209118591Y-107523809D01*
X209118591Y-107523809D02*
X209070972Y-107571428D01*
X209070972Y-107571428D02*
X209023353Y-107666666D01*
X209023353Y-107666666D02*
X209023353Y-107904761D01*
X209023353Y-107904761D02*
X209070972Y-107999999D01*
X209070972Y-107999999D02*
X209118591Y-108047618D01*
X209118591Y-108047618D02*
X209213829Y-108095237D01*
X209213829Y-108095237D02*
X209451924Y-108095237D01*
X209451924Y-108095237D02*
X209547162Y-108047618D01*
X209547162Y-108047618D02*
X209594782Y-107999999D01*
X209594782Y-107999999D02*
X209642401Y-107904761D01*
X209642401Y-107904761D02*
X209642401Y-107666666D01*
X209642401Y-107666666D02*
X209594782Y-107571428D01*
X209594782Y-107571428D02*
X209547162Y-107523809D01*
X209642401Y-108523809D02*
X208642401Y-108523809D01*
X209261448Y-108619047D02*
X209642401Y-108904761D01*
X208975734Y-108904761D02*
X209356686Y-108523809D01*
X183833333Y-113954663D02*
X184404761Y-113954663D01*
X184119047Y-113954663D02*
X184119047Y-112954663D01*
X184119047Y-112954663D02*
X184214285Y-113097520D01*
X184214285Y-113097520D02*
X184309523Y-113192758D01*
X184309523Y-113192758D02*
X184404761Y-113240377D01*
X183404761Y-113859424D02*
X183357142Y-113907044D01*
X183357142Y-113907044D02*
X183404761Y-113954663D01*
X183404761Y-113954663D02*
X183452380Y-113907044D01*
X183452380Y-113907044D02*
X183404761Y-113859424D01*
X183404761Y-113859424D02*
X183404761Y-113954663D01*
X182452381Y-112954663D02*
X182928571Y-112954663D01*
X182928571Y-112954663D02*
X182976190Y-113430853D01*
X182976190Y-113430853D02*
X182928571Y-113383234D01*
X182928571Y-113383234D02*
X182833333Y-113335615D01*
X182833333Y-113335615D02*
X182595238Y-113335615D01*
X182595238Y-113335615D02*
X182500000Y-113383234D01*
X182500000Y-113383234D02*
X182452381Y-113430853D01*
X182452381Y-113430853D02*
X182404762Y-113526091D01*
X182404762Y-113526091D02*
X182404762Y-113764186D01*
X182404762Y-113764186D02*
X182452381Y-113859424D01*
X182452381Y-113859424D02*
X182500000Y-113907044D01*
X182500000Y-113907044D02*
X182595238Y-113954663D01*
X182595238Y-113954663D02*
X182833333Y-113954663D01*
X182833333Y-113954663D02*
X182928571Y-113907044D01*
X182928571Y-113907044D02*
X182976190Y-113859424D01*
X181976190Y-113954663D02*
X181976190Y-112954663D01*
X181880952Y-113573710D02*
X181595238Y-113954663D01*
X181595238Y-113287996D02*
X181976190Y-113668948D01*
X183833333Y-111954663D02*
X184404761Y-111954663D01*
X184119047Y-111954663D02*
X184119047Y-110954663D01*
X184119047Y-110954663D02*
X184214285Y-111097520D01*
X184214285Y-111097520D02*
X184309523Y-111192758D01*
X184309523Y-111192758D02*
X184404761Y-111240377D01*
X183404761Y-111859424D02*
X183357142Y-111907044D01*
X183357142Y-111907044D02*
X183404761Y-111954663D01*
X183404761Y-111954663D02*
X183452380Y-111907044D01*
X183452380Y-111907044D02*
X183404761Y-111859424D01*
X183404761Y-111859424D02*
X183404761Y-111954663D01*
X182452381Y-110954663D02*
X182928571Y-110954663D01*
X182928571Y-110954663D02*
X182976190Y-111430853D01*
X182976190Y-111430853D02*
X182928571Y-111383234D01*
X182928571Y-111383234D02*
X182833333Y-111335615D01*
X182833333Y-111335615D02*
X182595238Y-111335615D01*
X182595238Y-111335615D02*
X182500000Y-111383234D01*
X182500000Y-111383234D02*
X182452381Y-111430853D01*
X182452381Y-111430853D02*
X182404762Y-111526091D01*
X182404762Y-111526091D02*
X182404762Y-111764186D01*
X182404762Y-111764186D02*
X182452381Y-111859424D01*
X182452381Y-111859424D02*
X182500000Y-111907044D01*
X182500000Y-111907044D02*
X182595238Y-111954663D01*
X182595238Y-111954663D02*
X182833333Y-111954663D01*
X182833333Y-111954663D02*
X182928571Y-111907044D01*
X182928571Y-111907044D02*
X182976190Y-111859424D01*
X181976190Y-111954663D02*
X181976190Y-110954663D01*
X181880952Y-111573710D02*
X181595238Y-111954663D01*
X181595238Y-111287996D02*
X181976190Y-111668948D01*
X183833333Y-109954663D02*
X184404761Y-109954663D01*
X184119047Y-109954663D02*
X184119047Y-108954663D01*
X184119047Y-108954663D02*
X184214285Y-109097520D01*
X184214285Y-109097520D02*
X184309523Y-109192758D01*
X184309523Y-109192758D02*
X184404761Y-109240377D01*
X183404761Y-109859424D02*
X183357142Y-109907044D01*
X183357142Y-109907044D02*
X183404761Y-109954663D01*
X183404761Y-109954663D02*
X183452380Y-109907044D01*
X183452380Y-109907044D02*
X183404761Y-109859424D01*
X183404761Y-109859424D02*
X183404761Y-109954663D01*
X182452381Y-108954663D02*
X182928571Y-108954663D01*
X182928571Y-108954663D02*
X182976190Y-109430853D01*
X182976190Y-109430853D02*
X182928571Y-109383234D01*
X182928571Y-109383234D02*
X182833333Y-109335615D01*
X182833333Y-109335615D02*
X182595238Y-109335615D01*
X182595238Y-109335615D02*
X182500000Y-109383234D01*
X182500000Y-109383234D02*
X182452381Y-109430853D01*
X182452381Y-109430853D02*
X182404762Y-109526091D01*
X182404762Y-109526091D02*
X182404762Y-109764186D01*
X182404762Y-109764186D02*
X182452381Y-109859424D01*
X182452381Y-109859424D02*
X182500000Y-109907044D01*
X182500000Y-109907044D02*
X182595238Y-109954663D01*
X182595238Y-109954663D02*
X182833333Y-109954663D01*
X182833333Y-109954663D02*
X182928571Y-109907044D01*
X182928571Y-109907044D02*
X182976190Y-109859424D01*
X181976190Y-109954663D02*
X181976190Y-108954663D01*
X181880952Y-109573710D02*
X181595238Y-109954663D01*
X181595238Y-109287996D02*
X181976190Y-109668948D01*
X183833333Y-107954663D02*
X184404761Y-107954663D01*
X184119047Y-107954663D02*
X184119047Y-106954663D01*
X184119047Y-106954663D02*
X184214285Y-107097520D01*
X184214285Y-107097520D02*
X184309523Y-107192758D01*
X184309523Y-107192758D02*
X184404761Y-107240377D01*
X183404761Y-107859424D02*
X183357142Y-107907044D01*
X183357142Y-107907044D02*
X183404761Y-107954663D01*
X183404761Y-107954663D02*
X183452380Y-107907044D01*
X183452380Y-107907044D02*
X183404761Y-107859424D01*
X183404761Y-107859424D02*
X183404761Y-107954663D01*
X182452381Y-106954663D02*
X182928571Y-106954663D01*
X182928571Y-106954663D02*
X182976190Y-107430853D01*
X182976190Y-107430853D02*
X182928571Y-107383234D01*
X182928571Y-107383234D02*
X182833333Y-107335615D01*
X182833333Y-107335615D02*
X182595238Y-107335615D01*
X182595238Y-107335615D02*
X182500000Y-107383234D01*
X182500000Y-107383234D02*
X182452381Y-107430853D01*
X182452381Y-107430853D02*
X182404762Y-107526091D01*
X182404762Y-107526091D02*
X182404762Y-107764186D01*
X182404762Y-107764186D02*
X182452381Y-107859424D01*
X182452381Y-107859424D02*
X182500000Y-107907044D01*
X182500000Y-107907044D02*
X182595238Y-107954663D01*
X182595238Y-107954663D02*
X182833333Y-107954663D01*
X182833333Y-107954663D02*
X182928571Y-107907044D01*
X182928571Y-107907044D02*
X182976190Y-107859424D01*
X181976190Y-107954663D02*
X181976190Y-106954663D01*
X181880952Y-107573710D02*
X181595238Y-107954663D01*
X181595238Y-107287996D02*
X181976190Y-107668948D01*
X177166666Y-89554663D02*
X177738094Y-89554663D01*
X177452380Y-89554663D02*
X177452380Y-88554663D01*
X177452380Y-88554663D02*
X177547618Y-88697520D01*
X177547618Y-88697520D02*
X177642856Y-88792758D01*
X177642856Y-88792758D02*
X177738094Y-88840377D01*
X176785713Y-88649901D02*
X176738094Y-88602282D01*
X176738094Y-88602282D02*
X176642856Y-88554663D01*
X176642856Y-88554663D02*
X176404761Y-88554663D01*
X176404761Y-88554663D02*
X176309523Y-88602282D01*
X176309523Y-88602282D02*
X176261904Y-88649901D01*
X176261904Y-88649901D02*
X176214285Y-88745139D01*
X176214285Y-88745139D02*
X176214285Y-88840377D01*
X176214285Y-88840377D02*
X176261904Y-88983234D01*
X176261904Y-88983234D02*
X176833332Y-89554663D01*
X176833332Y-89554663D02*
X176214285Y-89554663D01*
X175595237Y-88554663D02*
X175499999Y-88554663D01*
X175499999Y-88554663D02*
X175404761Y-88602282D01*
X175404761Y-88602282D02*
X175357142Y-88649901D01*
X175357142Y-88649901D02*
X175309523Y-88745139D01*
X175309523Y-88745139D02*
X175261904Y-88935615D01*
X175261904Y-88935615D02*
X175261904Y-89173710D01*
X175261904Y-89173710D02*
X175309523Y-89364186D01*
X175309523Y-89364186D02*
X175357142Y-89459424D01*
X175357142Y-89459424D02*
X175404761Y-89507044D01*
X175404761Y-89507044D02*
X175499999Y-89554663D01*
X175499999Y-89554663D02*
X175595237Y-89554663D01*
X175595237Y-89554663D02*
X175690475Y-89507044D01*
X175690475Y-89507044D02*
X175738094Y-89459424D01*
X175738094Y-89459424D02*
X175785713Y-89364186D01*
X175785713Y-89364186D02*
X175833332Y-89173710D01*
X175833332Y-89173710D02*
X175833332Y-88935615D01*
X175833332Y-88935615D02*
X175785713Y-88745139D01*
X175785713Y-88745139D02*
X175738094Y-88649901D01*
X175738094Y-88649901D02*
X175690475Y-88602282D01*
X175690475Y-88602282D02*
X175595237Y-88554663D01*
X163166666Y-89454663D02*
X163738094Y-89454663D01*
X163452380Y-89454663D02*
X163452380Y-88454663D01*
X163452380Y-88454663D02*
X163547618Y-88597520D01*
X163547618Y-88597520D02*
X163642856Y-88692758D01*
X163642856Y-88692758D02*
X163738094Y-88740377D01*
X162785713Y-88549901D02*
X162738094Y-88502282D01*
X162738094Y-88502282D02*
X162642856Y-88454663D01*
X162642856Y-88454663D02*
X162404761Y-88454663D01*
X162404761Y-88454663D02*
X162309523Y-88502282D01*
X162309523Y-88502282D02*
X162261904Y-88549901D01*
X162261904Y-88549901D02*
X162214285Y-88645139D01*
X162214285Y-88645139D02*
X162214285Y-88740377D01*
X162214285Y-88740377D02*
X162261904Y-88883234D01*
X162261904Y-88883234D02*
X162833332Y-89454663D01*
X162833332Y-89454663D02*
X162214285Y-89454663D01*
X161595237Y-88454663D02*
X161499999Y-88454663D01*
X161499999Y-88454663D02*
X161404761Y-88502282D01*
X161404761Y-88502282D02*
X161357142Y-88549901D01*
X161357142Y-88549901D02*
X161309523Y-88645139D01*
X161309523Y-88645139D02*
X161261904Y-88835615D01*
X161261904Y-88835615D02*
X161261904Y-89073710D01*
X161261904Y-89073710D02*
X161309523Y-89264186D01*
X161309523Y-89264186D02*
X161357142Y-89359424D01*
X161357142Y-89359424D02*
X161404761Y-89407044D01*
X161404761Y-89407044D02*
X161499999Y-89454663D01*
X161499999Y-89454663D02*
X161595237Y-89454663D01*
X161595237Y-89454663D02*
X161690475Y-89407044D01*
X161690475Y-89407044D02*
X161738094Y-89359424D01*
X161738094Y-89359424D02*
X161785713Y-89264186D01*
X161785713Y-89264186D02*
X161833332Y-89073710D01*
X161833332Y-89073710D02*
X161833332Y-88835615D01*
X161833332Y-88835615D02*
X161785713Y-88645139D01*
X161785713Y-88645139D02*
X161738094Y-88549901D01*
X161738094Y-88549901D02*
X161690475Y-88502282D01*
X161690475Y-88502282D02*
X161595237Y-88454663D01*
X208214285Y-109549901D02*
X208166666Y-109502282D01*
X208166666Y-109502282D02*
X208071428Y-109454663D01*
X208071428Y-109454663D02*
X207833333Y-109454663D01*
X207833333Y-109454663D02*
X207738095Y-109502282D01*
X207738095Y-109502282D02*
X207690476Y-109549901D01*
X207690476Y-109549901D02*
X207642857Y-109645139D01*
X207642857Y-109645139D02*
X207642857Y-109740377D01*
X207642857Y-109740377D02*
X207690476Y-109883234D01*
X207690476Y-109883234D02*
X208261904Y-110454663D01*
X208261904Y-110454663D02*
X207642857Y-110454663D01*
X207261904Y-110407044D02*
X207119047Y-110454663D01*
X207119047Y-110454663D02*
X206880952Y-110454663D01*
X206880952Y-110454663D02*
X206785714Y-110407044D01*
X206785714Y-110407044D02*
X206738095Y-110359424D01*
X206738095Y-110359424D02*
X206690476Y-110264186D01*
X206690476Y-110264186D02*
X206690476Y-110168948D01*
X206690476Y-110168948D02*
X206738095Y-110073710D01*
X206738095Y-110073710D02*
X206785714Y-110026091D01*
X206785714Y-110026091D02*
X206880952Y-109978472D01*
X206880952Y-109978472D02*
X207071428Y-109930853D01*
X207071428Y-109930853D02*
X207166666Y-109883234D01*
X207166666Y-109883234D02*
X207214285Y-109835615D01*
X207214285Y-109835615D02*
X207261904Y-109740377D01*
X207261904Y-109740377D02*
X207261904Y-109645139D01*
X207261904Y-109645139D02*
X207214285Y-109549901D01*
X207214285Y-109549901D02*
X207166666Y-109502282D01*
X207166666Y-109502282D02*
X207071428Y-109454663D01*
X207071428Y-109454663D02*
X206833333Y-109454663D01*
X206833333Y-109454663D02*
X206690476Y-109502282D01*
X205690476Y-110359424D02*
X205738095Y-110407044D01*
X205738095Y-110407044D02*
X205880952Y-110454663D01*
X205880952Y-110454663D02*
X205976190Y-110454663D01*
X205976190Y-110454663D02*
X206119047Y-110407044D01*
X206119047Y-110407044D02*
X206214285Y-110311805D01*
X206214285Y-110311805D02*
X206261904Y-110216567D01*
X206261904Y-110216567D02*
X206309523Y-110026091D01*
X206309523Y-110026091D02*
X206309523Y-109883234D01*
X206309523Y-109883234D02*
X206261904Y-109692758D01*
X206261904Y-109692758D02*
X206214285Y-109597520D01*
X206214285Y-109597520D02*
X206119047Y-109502282D01*
X206119047Y-109502282D02*
X205976190Y-109454663D01*
X205976190Y-109454663D02*
X205880952Y-109454663D01*
X205880952Y-109454663D02*
X205738095Y-109502282D01*
X205738095Y-109502282D02*
X205690476Y-109549901D01*
X205357142Y-109454663D02*
X204738095Y-109454663D01*
X204738095Y-109454663D02*
X205071428Y-109835615D01*
X205071428Y-109835615D02*
X204928571Y-109835615D01*
X204928571Y-109835615D02*
X204833333Y-109883234D01*
X204833333Y-109883234D02*
X204785714Y-109930853D01*
X204785714Y-109930853D02*
X204738095Y-110026091D01*
X204738095Y-110026091D02*
X204738095Y-110264186D01*
X204738095Y-110264186D02*
X204785714Y-110359424D01*
X204785714Y-110359424D02*
X204833333Y-110407044D01*
X204833333Y-110407044D02*
X204928571Y-110454663D01*
X204928571Y-110454663D02*
X205214285Y-110454663D01*
X205214285Y-110454663D02*
X205309523Y-110407044D01*
X205309523Y-110407044D02*
X205357142Y-110359424D01*
X204357142Y-109549901D02*
X204309523Y-109502282D01*
X204309523Y-109502282D02*
X204214285Y-109454663D01*
X204214285Y-109454663D02*
X203976190Y-109454663D01*
X203976190Y-109454663D02*
X203880952Y-109502282D01*
X203880952Y-109502282D02*
X203833333Y-109549901D01*
X203833333Y-109549901D02*
X203785714Y-109645139D01*
X203785714Y-109645139D02*
X203785714Y-109740377D01*
X203785714Y-109740377D02*
X203833333Y-109883234D01*
X203833333Y-109883234D02*
X204404761Y-110454663D01*
X204404761Y-110454663D02*
X203785714Y-110454663D01*
X202928571Y-109454663D02*
X203119047Y-109454663D01*
X203119047Y-109454663D02*
X203214285Y-109502282D01*
X203214285Y-109502282D02*
X203261904Y-109549901D01*
X203261904Y-109549901D02*
X203357142Y-109692758D01*
X203357142Y-109692758D02*
X203404761Y-109883234D01*
X203404761Y-109883234D02*
X203404761Y-110264186D01*
X203404761Y-110264186D02*
X203357142Y-110359424D01*
X203357142Y-110359424D02*
X203309523Y-110407044D01*
X203309523Y-110407044D02*
X203214285Y-110454663D01*
X203214285Y-110454663D02*
X203023809Y-110454663D01*
X203023809Y-110454663D02*
X202928571Y-110407044D01*
X202928571Y-110407044D02*
X202880952Y-110359424D01*
X202880952Y-110359424D02*
X202833333Y-110264186D01*
X202833333Y-110264186D02*
X202833333Y-110026091D01*
X202833333Y-110026091D02*
X202880952Y-109930853D01*
X202880952Y-109930853D02*
X202928571Y-109883234D01*
X202928571Y-109883234D02*
X203023809Y-109835615D01*
X203023809Y-109835615D02*
X203214285Y-109835615D01*
X203214285Y-109835615D02*
X203309523Y-109883234D01*
X203309523Y-109883234D02*
X203357142Y-109930853D01*
X203357142Y-109930853D02*
X203404761Y-110026091D01*
X201928571Y-109454663D02*
X202404761Y-109454663D01*
X202404761Y-109454663D02*
X202452380Y-109930853D01*
X202452380Y-109930853D02*
X202404761Y-109883234D01*
X202404761Y-109883234D02*
X202309523Y-109835615D01*
X202309523Y-109835615D02*
X202071428Y-109835615D01*
X202071428Y-109835615D02*
X201976190Y-109883234D01*
X201976190Y-109883234D02*
X201928571Y-109930853D01*
X201928571Y-109930853D02*
X201880952Y-110026091D01*
X201880952Y-110026091D02*
X201880952Y-110264186D01*
X201880952Y-110264186D02*
X201928571Y-110359424D01*
X201928571Y-110359424D02*
X201976190Y-110407044D01*
X201976190Y-110407044D02*
X202071428Y-110454663D01*
X202071428Y-110454663D02*
X202309523Y-110454663D01*
X202309523Y-110454663D02*
X202404761Y-110407044D01*
X202404761Y-110407044D02*
X202452380Y-110359424D01*
X201452380Y-110073710D02*
X200690476Y-110073710D01*
X200023809Y-109978472D02*
X200023809Y-110454663D01*
X200357142Y-109454663D02*
X200023809Y-109978472D01*
X200023809Y-109978472D02*
X199690476Y-109454663D01*
D11*
X179574318Y-95260237D02*
X178304318Y-95260237D01*
X179453365Y-96590714D02*
X179513842Y-96530238D01*
X179513842Y-96530238D02*
X179574318Y-96348809D01*
X179574318Y-96348809D02*
X179574318Y-96227857D01*
X179574318Y-96227857D02*
X179513842Y-96046428D01*
X179513842Y-96046428D02*
X179392889Y-95925476D01*
X179392889Y-95925476D02*
X179271937Y-95864999D01*
X179271937Y-95864999D02*
X179030032Y-95804523D01*
X179030032Y-95804523D02*
X178848603Y-95804523D01*
X178848603Y-95804523D02*
X178606699Y-95864999D01*
X178606699Y-95864999D02*
X178485746Y-95925476D01*
X178485746Y-95925476D02*
X178364794Y-96046428D01*
X178364794Y-96046428D02*
X178304318Y-96227857D01*
X178304318Y-96227857D02*
X178304318Y-96348809D01*
X178304318Y-96348809D02*
X178364794Y-96530238D01*
X178364794Y-96530238D02*
X178425270Y-96590714D01*
X179574318Y-97800238D02*
X179574318Y-97074523D01*
X179574318Y-97437380D02*
X178304318Y-97437380D01*
X178304318Y-97437380D02*
X178485746Y-97316428D01*
X178485746Y-97316428D02*
X178606699Y-97195476D01*
X178606699Y-97195476D02*
X178667175Y-97074523D01*
D12*
X169100000Y-83400000D02*
X168800000Y-83400000D01*
X169100000Y-83700000D02*
X169100000Y-83400000D01*
X169100000Y-88600000D02*
X168800000Y-88600000D01*
X169100000Y-88300000D02*
X169100000Y-88600000D01*
X164900000Y-83400000D02*
X165200000Y-83400000D01*
X164900000Y-83700000D02*
X164900000Y-83400000D01*
X165100000Y-88300000D02*
X164300000Y-88300000D01*
X165400000Y-88600000D02*
X165100000Y-88300000D01*
X165800000Y-88600000D02*
X165400000Y-88600000D01*
X155100000Y-83400000D02*
X154800000Y-83400000D01*
X155100000Y-83700000D02*
X155100000Y-83400000D01*
X155100000Y-88600000D02*
X154800000Y-88600000D01*
X155100000Y-88300000D02*
X155100000Y-88600000D01*
X150900000Y-83400000D02*
X151200000Y-83400000D01*
X150900000Y-83700000D02*
X150900000Y-83400000D01*
X151100000Y-88300000D02*
X150300000Y-88300000D01*
X151400000Y-88600000D02*
X151100000Y-88300000D01*
X151800000Y-88600000D02*
X151400000Y-88600000D01*
D13*
X118900000Y-112150000D02*
X118900000Y-113850000D01*
X118900000Y-113850000D02*
X115750000Y-113850000D01*
X118900000Y-112150000D02*
X115750000Y-112150000D01*
X165904724Y-125727500D02*
X165395276Y-125727500D01*
X165904724Y-126772500D02*
X165395276Y-126772500D01*
X156904724Y-125727500D02*
X156395276Y-125727500D01*
X156904724Y-126772500D02*
X156395276Y-126772500D01*
X147904724Y-126772500D02*
X147395276Y-126772500D01*
X147904724Y-125727500D02*
X147395276Y-125727500D01*
X138904724Y-125627500D02*
X138395276Y-125627500D01*
X138904724Y-126672500D02*
X138395276Y-126672500D01*
X181754724Y-119522500D02*
X181245276Y-119522500D01*
X181754724Y-118477500D02*
X181245276Y-118477500D01*
X181754724Y-116477500D02*
X181245276Y-116477500D01*
X181754724Y-117522500D02*
X181245276Y-117522500D01*
X181754724Y-120477500D02*
X181245276Y-120477500D01*
X181754724Y-121522500D02*
X181245276Y-121522500D01*
X181754724Y-122477500D02*
X181245276Y-122477500D01*
X181754724Y-123522500D02*
X181245276Y-123522500D01*
X176754724Y-128272500D02*
X176245276Y-128272500D01*
X176754724Y-127227500D02*
X176245276Y-127227500D01*
X131697224Y-93727500D02*
X131187776Y-93727500D01*
X131697224Y-94772500D02*
X131187776Y-94772500D01*
X120082776Y-102422500D02*
X120592224Y-102422500D01*
X120082776Y-101377500D02*
X120592224Y-101377500D01*
X203087776Y-105272500D02*
X203597224Y-105272500D01*
X203087776Y-104227500D02*
X203597224Y-104227500D01*
X131187776Y-92772500D02*
X131697224Y-92772500D01*
X131187776Y-91727500D02*
X131697224Y-91727500D01*
X120082776Y-107422500D02*
X120592224Y-107422500D01*
X120082776Y-106377500D02*
X120592224Y-106377500D01*
X207235238Y-107245276D02*
X207235238Y-107754724D01*
X208280238Y-107245276D02*
X208280238Y-107754724D01*
X179182776Y-114022500D02*
X179692224Y-114022500D01*
X179182776Y-112977500D02*
X179692224Y-112977500D01*
X179182776Y-112022500D02*
X179692224Y-112022500D01*
X179182776Y-110977500D02*
X179692224Y-110977500D01*
X179182776Y-110022500D02*
X179692224Y-110022500D01*
X179182776Y-108977500D02*
X179692224Y-108977500D01*
X179182776Y-108022500D02*
X179692224Y-108022500D01*
X179182776Y-106977500D02*
X179692224Y-106977500D01*
X172645276Y-88577500D02*
X173154724Y-88577500D01*
X172645276Y-89622500D02*
X173154724Y-89622500D01*
X158707776Y-89622500D02*
X159217224Y-89622500D01*
X158707776Y-88577500D02*
X159217224Y-88577500D01*
X135400000Y-94900000D02*
X135400000Y-93850000D01*
X137200000Y-94900000D02*
X135400000Y-94900000D01*
X135400000Y-91600000D02*
X135400000Y-92650000D01*
X137800000Y-91600000D02*
X135400000Y-91600000D01*
X202550000Y-109150000D02*
X204950000Y-109150000D01*
X204950000Y-109150000D02*
X204950000Y-108100000D01*
X203150000Y-105850000D02*
X204950000Y-105850000D01*
X204950000Y-105850000D02*
X204950000Y-106900000D01*
D14*
X177550000Y-95900000D02*
X177550000Y-97100000D01*
X177550000Y-97100000D02*
X180450000Y-97100000D01*
X180450000Y-97100000D02*
X180450000Y-95900000D01*
X180450000Y-95900000D02*
X177550000Y-95900000D01*
X177500000Y-94650000D02*
X177500000Y-95550000D01*
%LPC*%
D15*
X163500000Y-123000000D03*
X163500000Y-129500000D03*
X168000000Y-123000000D03*
X168000000Y-129500000D03*
X158850000Y-129500000D03*
X158850000Y-123000000D03*
X154350000Y-129500000D03*
X154350000Y-123000000D03*
X145350000Y-123000000D03*
X145350000Y-129500000D03*
X149850000Y-123000000D03*
X149850000Y-129500000D03*
X136350000Y-123000000D03*
X136350000Y-129500000D03*
X140850000Y-123000000D03*
X140850000Y-129500000D03*
D16*
X142900000Y-116540000D03*
X142900000Y-111460000D03*
D17*
X187540000Y-102780000D03*
D18*
X187540000Y-100240000D03*
X187540000Y-97700000D03*
X187540000Y-95160000D03*
X187540000Y-92620000D03*
X187540000Y-90080000D03*
X187540000Y-87540000D03*
X187540000Y-85000000D03*
D17*
X185000000Y-102780000D03*
D18*
X185000000Y-100240000D03*
X185000000Y-97700000D03*
X185000000Y-95160000D03*
X185000000Y-92620000D03*
X185000000Y-90080000D03*
X185000000Y-87540000D03*
X185000000Y-85000000D03*
D17*
X182460000Y-102780000D03*
D18*
X182460000Y-100240000D03*
X182460000Y-97700000D03*
X182460000Y-95160000D03*
X182460000Y-92620000D03*
X182460000Y-90080000D03*
X182460000Y-87540000D03*
X182460000Y-85000000D03*
D19*
X193100000Y-119920000D03*
X198800000Y-119920000D03*
D20*
X206500000Y-95020000D03*
X207000000Y-120420000D03*
D21*
X207620000Y-125780000D03*
X205080000Y-125780000D03*
X202540000Y-125780000D03*
X200000000Y-125780000D03*
X197460000Y-125780000D03*
X194920000Y-125780000D03*
D22*
X192380000Y-125780000D03*
D21*
X192380000Y-90220000D03*
X194920000Y-90220000D03*
X197460000Y-90220000D03*
X200000000Y-90220000D03*
X202540000Y-90220000D03*
X205080000Y-90220000D03*
X207620000Y-90220000D03*
D23*
X130380000Y-97000000D03*
X132920000Y-97000000D03*
X135460000Y-97000000D03*
X138000000Y-97000000D03*
X138000000Y-89380000D03*
X135460000Y-89380000D03*
X132920000Y-89380000D03*
X130380000Y-89380000D03*
D24*
X118350000Y-93700000D03*
D25*
X112050000Y-91420000D03*
X112050000Y-93700000D03*
X112050000Y-95980000D03*
D26*
X112900000Y-106900000D03*
D27*
X112900000Y-104400000D03*
X112900000Y-101900000D03*
D28*
X164550000Y-87905000D03*
X164550000Y-86635000D03*
X164550000Y-84095000D03*
X169450000Y-84095000D03*
X169450000Y-85365000D03*
X169450000Y-86635000D03*
X169450000Y-87905000D03*
X164550000Y-85365000D03*
X150550000Y-87905000D03*
X150550000Y-86635000D03*
X150550000Y-84095000D03*
X155450000Y-84095000D03*
X155450000Y-85365000D03*
X155450000Y-86635000D03*
X155450000Y-87905000D03*
X150550000Y-85365000D03*
D29*
X118250000Y-113000000D03*
X115750000Y-113000000D03*
D30*
X166712500Y-126250000D03*
X164587500Y-126250000D03*
X157712500Y-126250000D03*
X155587500Y-126250000D03*
X146587500Y-126250000D03*
X148712500Y-126250000D03*
X139712500Y-126150000D03*
X137587500Y-126150000D03*
X180437500Y-119000000D03*
X182562500Y-119000000D03*
X182562500Y-117000000D03*
X180437500Y-117000000D03*
X182562500Y-121000000D03*
X180437500Y-121000000D03*
X182562500Y-123000000D03*
X180437500Y-123000000D03*
X175437500Y-127750000D03*
X177562500Y-127750000D03*
X132505000Y-94250000D03*
X130380000Y-94250000D03*
D31*
X119275000Y-101900000D03*
X121400000Y-101900000D03*
X202280000Y-104750000D03*
X204405000Y-104750000D03*
X130380000Y-92250000D03*
X132505000Y-92250000D03*
X119275000Y-106900000D03*
X121400000Y-106900000D03*
D32*
X207757738Y-106437500D03*
X207757738Y-108562500D03*
D31*
X178375000Y-113500000D03*
X180500000Y-113500000D03*
X178375000Y-111500000D03*
X180500000Y-111500000D03*
X178375000Y-109500000D03*
X180500000Y-109500000D03*
X178375000Y-107500000D03*
X180500000Y-107500000D03*
X173962500Y-89100000D03*
X171837500Y-89100000D03*
X157900000Y-89100000D03*
X160025000Y-89100000D03*
D33*
X134700000Y-93250000D03*
X138000000Y-94200000D03*
X138000000Y-92300000D03*
X202350000Y-108450000D03*
X202350000Y-106550000D03*
X205650000Y-107500000D03*
D34*
X200982500Y-100930000D03*
X200982500Y-114070000D03*
D35*
X198272500Y-104000000D03*
X198272500Y-106500000D03*
X198272500Y-108500000D03*
D36*
X198272500Y-111000000D03*
D37*
X170750000Y-94025000D03*
D38*
X168250000Y-94025000D03*
X165750000Y-94025000D03*
X163250000Y-94025000D03*
D37*
X156750000Y-94025000D03*
D38*
X154250000Y-94025000D03*
X151750000Y-94025000D03*
X149250000Y-94025000D03*
D18*
X173975000Y-85110000D03*
D17*
X173975000Y-87650000D03*
X159975000Y-87650000D03*
D18*
X159975000Y-85110000D03*
D39*
X123000000Y-129750000D03*
D40*
X121750000Y-123250000D03*
D38*
X124250000Y-123250000D03*
D41*
X178050000Y-95100000D03*
X179000000Y-95100000D03*
X179950000Y-95100000D03*
X179950000Y-97900000D03*
X178050000Y-97900000D03*
D19*
X204950000Y-130150000D03*
X205594370Y-128594370D03*
X205594370Y-131705630D03*
X207150000Y-127950000D03*
D42*
X207150000Y-130150000D03*
D19*
X207150000Y-132350000D03*
X208705630Y-128594370D03*
X208705630Y-131705630D03*
X209350000Y-130150000D03*
X110680000Y-85850000D03*
X111324370Y-84294370D03*
X111324370Y-87405630D03*
X112880000Y-83650000D03*
D42*
X112880000Y-85850000D03*
D19*
X112880000Y-88050000D03*
X114435630Y-84294370D03*
X114435630Y-87405630D03*
X115080000Y-85850000D03*
X110650000Y-130150000D03*
X111294370Y-128594370D03*
X111294370Y-131705630D03*
X112850000Y-127950000D03*
D42*
X112850000Y-130150000D03*
D19*
X112850000Y-132350000D03*
X114405630Y-128594370D03*
X114405630Y-131705630D03*
X115050000Y-130150000D03*
X204950000Y-85850000D03*
X205594370Y-84294370D03*
X205594370Y-87405630D03*
X207150000Y-83650000D03*
D42*
X207150000Y-85850000D03*
D19*
X207150000Y-88050000D03*
X208705630Y-84294370D03*
X208705630Y-87405630D03*
X209350000Y-85850000D03*
%LPD*%
M02*
