G04 #@! TF.GenerationSoftware,KiCad,Pcbnew,7.0.9*
G04 #@! TF.CreationDate,2024-09-01T01:30:57+09:00*
G04 #@! TF.ProjectId,ODAmain_ver2.0,4f44416d-6169-46e5-9f76-6572322e302e,rev?*
G04 #@! TF.SameCoordinates,Original*
G04 #@! TF.FileFunction,Paste,Bot*
G04 #@! TF.FilePolarity,Positive*
%FSLAX46Y46*%
G04 Gerber Fmt 4.6, Leading zero omitted, Abs format (unit mm)*
G04 Created by KiCad (PCBNEW 7.0.9) date 2024-09-01 01:30:57*
%MOMM*%
%LPD*%
G01*
G04 APERTURE LIST*
G04 Aperture macros list*
%AMRoundRect*
0 Rectangle with rounded corners*
0 $1 Rounding radius*
0 $2 $3 $4 $5 $6 $7 $8 $9 X,Y pos of 4 corners*
0 Add a 4 corners polygon primitive as box body*
4,1,4,$2,$3,$4,$5,$6,$7,$8,$9,$2,$3,0*
0 Add four circle primitives for the rounded corners*
1,1,$1+$1,$2,$3*
1,1,$1+$1,$4,$5*
1,1,$1+$1,$6,$7*
1,1,$1+$1,$8,$9*
0 Add four rect primitives between the rounded corners*
20,1,$1+$1,$2,$3,$4,$5,0*
20,1,$1+$1,$4,$5,$6,$7,0*
20,1,$1+$1,$6,$7,$8,$9,0*
20,1,$1+$1,$8,$9,$2,$3,0*%
G04 Aperture macros list end*
%ADD10R,6.400000X5.800000*%
%ADD11R,2.200000X1.200000*%
%ADD12R,2.000000X0.600000*%
%ADD13R,1.000000X1.000000*%
%ADD14RoundRect,0.237500X0.400000X0.237500X-0.400000X0.237500X-0.400000X-0.237500X0.400000X-0.237500X0*%
%ADD15RoundRect,0.237500X-0.400000X-0.237500X0.400000X-0.237500X0.400000X0.237500X-0.400000X0.237500X0*%
%ADD16RoundRect,0.237500X-0.237500X0.400000X-0.237500X-0.400000X0.237500X-0.400000X0.237500X0.400000X0*%
%ADD17R,1.800000X0.800000*%
%ADD18R,0.600000X0.900000*%
G04 APERTURE END LIST*
D10*
X118350000Y-93700000D03*
D11*
X112050000Y-91420000D03*
X112050000Y-93700000D03*
X112050000Y-95980000D03*
D12*
X164550000Y-87905000D03*
X164550000Y-86635000D03*
X164550000Y-84095000D03*
X169450000Y-84095000D03*
X169450000Y-85365000D03*
X169450000Y-86635000D03*
X169450000Y-87905000D03*
X164550000Y-85365000D03*
X150550000Y-87905000D03*
X150550000Y-86635000D03*
X150550000Y-84095000D03*
X155450000Y-84095000D03*
X155450000Y-85365000D03*
X155450000Y-86635000D03*
X155450000Y-87905000D03*
X150550000Y-85365000D03*
D13*
X118250000Y-113000000D03*
X115750000Y-113000000D03*
D14*
X166712500Y-126250000D03*
X164587500Y-126250000D03*
X157712500Y-126250000D03*
X155587500Y-126250000D03*
X146587500Y-126250000D03*
X148712500Y-126250000D03*
X139712500Y-126150000D03*
X137587500Y-126150000D03*
X180437500Y-119000000D03*
X182562500Y-119000000D03*
X182562500Y-117000000D03*
X180437500Y-117000000D03*
X182562500Y-121000000D03*
X180437500Y-121000000D03*
X182562500Y-123000000D03*
X180437500Y-123000000D03*
X175437500Y-127750000D03*
X177562500Y-127750000D03*
X132505000Y-94250000D03*
X130380000Y-94250000D03*
D15*
X119275000Y-101900000D03*
X121400000Y-101900000D03*
X202280000Y-104750000D03*
X204405000Y-104750000D03*
X130380000Y-92250000D03*
X132505000Y-92250000D03*
X119275000Y-106900000D03*
X121400000Y-106900000D03*
D16*
X207757738Y-106437500D03*
X207757738Y-108562500D03*
D15*
X178375000Y-113500000D03*
X180500000Y-113500000D03*
X178375000Y-111500000D03*
X180500000Y-111500000D03*
X178375000Y-109500000D03*
X180500000Y-109500000D03*
X178375000Y-107500000D03*
X180500000Y-107500000D03*
X173962500Y-89100000D03*
X171837500Y-89100000D03*
X157900000Y-89100000D03*
X160025000Y-89100000D03*
D17*
X134700000Y-93250000D03*
X138000000Y-94200000D03*
X138000000Y-92300000D03*
X202350000Y-108450000D03*
X202350000Y-106550000D03*
X205650000Y-107500000D03*
D18*
X178050000Y-95100000D03*
X179000000Y-95100000D03*
X179950000Y-95100000D03*
X179950000Y-97900000D03*
X178050000Y-97900000D03*
M02*
