M48
; DRILL file {KiCad 7.0.9} date Sun Sep  1 01:30:58 2024
; FORMAT={-:-/ absolute / metric / decimal}
; #@! TF.CreationDate,2024-09-01T01:30:58+09:00
; #@! TF.GenerationSoftware,Kicad,Pcbnew,7.0.9
; #@! TF.FileFunction,MixedPlating,1,2
FMAT,2
METRIC
; #@! TA.AperFunction,Plated,PTH,ViaDrill
T1C0.300
; #@! TA.AperFunction,Plated,PTH,ComponentDrill
T2C0.300
; #@! TA.AperFunction,Plated,PTH,ViaDrill
T3C0.400
; #@! TA.AperFunction,Plated,PTH,ComponentDrill
T4C0.600
; #@! TA.AperFunction,Plated,PTH,ComponentDrill
T5C0.800
; #@! TA.AperFunction,Plated,PTH,ComponentDrill
T6C0.800
; #@! TA.AperFunction,Plated,PTH,ComponentDrill
T7C0.920
; #@! TA.AperFunction,Plated,PTH,ComponentDrill
T8C0.950
; #@! TA.AperFunction,Plated,PTH,ComponentDrill
T9C1.000
; #@! TA.AperFunction,Plated,PTH,ComponentDrill
T10C1.100
; #@! TA.AperFunction,Plated,PTH,ComponentDrill
T11C2.200
; #@! TA.AperFunction,Plated,PTH,ComponentDrill
T12C2.300
; #@! TA.AperFunction,Plated,PTH,ComponentDrill
T13C3.200
; #@! TA.AperFunction,NonPlated,NPTH,ComponentDrill
T14C2.000
%
G90
G05
T1
X112.05Y-91.43
X112.05Y-95.93
X115.4Y-115.4
X115.5Y-120.5
X116.84Y-86.36
X116.84Y-132.08
X121.325Y-101.9
X121.35Y-106.9
X121.92Y-86.36
X123.0Y-121.0
X127.0Y-86.36
X127.0Y-101.6
X127.0Y-111.76
X127.0Y-121.92
X127.0Y-127.0
X132.08Y-86.36
X132.08Y-101.6
X132.08Y-111.76
X132.08Y-116.84
X132.08Y-121.92
X132.08Y-127.0
X137.16Y-86.36
X137.16Y-101.6
X138.0Y-94.25
X142.24Y-86.36
X143.25Y-95.5
X143.7Y-90.7
X146.0Y-98.25
X146.5Y-99.75
X146.5Y-109.8
X147.32Y-86.36
X148.75Y-98.25
X150.0Y-100.0
X150.9Y-98.9
X151.5Y-100.5
X151.7Y-97.6
X152.4Y-88.3
X153.6Y-88.3
X154.25Y-99.25
X155.5Y-85.4
X155.5Y-86.7
X155.5Y-101.0
X155.5Y-116.5
X156.0Y-100.25
X156.21Y-106.68
X157.48Y-105.41
X157.48Y-109.22
X157.9Y-91.2
X158.0Y-117.5
X158.75Y-104.14
X158.75Y-107.95
X158.75Y-109.22
X158.75Y-110.49
X160.02Y-101.6
X160.02Y-106.68
X160.02Y-107.95
X160.02Y-109.22
X160.02Y-110.49
X160.02Y-111.76
X160.6Y-119.4
X161.29Y-107.95
X161.29Y-109.22
X161.29Y-110.49
X162.56Y-106.68
X162.56Y-107.95
X162.56Y-109.22
X163.83Y-107.95
X166.4Y-88.2
X167.6Y-88.2
X168.0Y-115.0
X168.0Y-116.0
X168.0Y-117.0
X168.0Y-118.0
X168.0Y-119.0
X169.4Y-85.4
X169.4Y-86.6
X170.7Y-120.3
X171.5Y-119.0
X172.0Y-126.5
X172.7Y-104.7
X173.5Y-91.7
X174.5Y-118.5
X174.6Y-123.8
X175.0Y-98.3
X175.5Y-117.5
X175.5Y-127.75
X175.7Y-106.2
X176.0Y-121.0
X177.5Y-105.5
X177.8Y-86.36
X178.0Y-104.5
X178.7Y-119.0
X180.1Y-101.2
X180.5Y-107.5
X180.5Y-109.5
X180.5Y-111.5
X180.5Y-113.5
X180.5Y-117.0
X180.5Y-119.0
X180.5Y-121.0
X180.5Y-123.0
X182.4Y-124.4
X183.0Y-107.5
X185.0Y-125.78
X185.0Y-127.0
X185.0Y-128.0
X185.7Y-121.9
X185.9Y-117.9
X185.9Y-119.9
X186.5Y-112.0
X188.0Y-107.0
X188.0Y-114.5
X190.5Y-113.5
X191.0Y-111.0
X192.0Y-115.0
X193.04Y-86.36
X193.04Y-96.52
X193.04Y-101.6
X193.04Y-132.08
X194.5Y-120.5
X194.6Y-116.8
X195.5Y-103.5
X197.5Y-119.0
X197.5Y-120.0
X197.5Y-123.0
X197.5Y-124.0
X198.12Y-86.36
X199.5Y-116.0
X202.0Y-128.5
X203.2Y-86.36
X203.2Y-96.52
X203.2Y-116.84
X204.5Y-104.75
X207.75Y-106.5
X208.28Y-101.6
X208.28Y-111.76
X208.28Y-116.84
T2
X110.65Y-130.15
X110.68Y-85.85
X111.294Y-128.594
X111.294Y-131.706
X111.324Y-84.294
X111.324Y-87.406
X112.85Y-127.95
X112.85Y-132.35
X112.88Y-83.65
X112.88Y-88.05
X114.406Y-128.594
X114.406Y-131.706
X114.436Y-84.294
X114.436Y-87.406
X115.05Y-130.15
X115.08Y-85.85
X204.95Y-85.85
X204.95Y-130.15
X205.594Y-84.294
X205.594Y-87.406
X205.594Y-128.594
X205.594Y-131.706
X207.15Y-83.65
X207.15Y-88.05
X207.15Y-127.95
X207.15Y-132.35
X208.706Y-84.294
X208.706Y-87.406
X208.706Y-128.594
X208.706Y-131.706
X209.35Y-85.85
X209.35Y-130.15
T3
X118.5Y-113.0
X144.5Y-106.0
X148.0Y-88.0
X150.5Y-84.0
X151.0Y-107.0
X151.0Y-109.0
X156.75Y-99.5
X161.5Y-89.0
X161.5Y-99.0
X163.0Y-117.5
X164.5Y-84.0
X166.75Y-99.0
X166.75Y-102.25
X169.0Y-109.5
X175.75Y-95.5
X179.0Y-95.0
X191.0Y-104.0
T4
X193.1Y-119.92
X198.8Y-119.92
T5
X130.38Y-89.38
X130.38Y-97.0
X132.92Y-89.38
X132.92Y-97.0
X135.46Y-89.38
X135.46Y-97.0
X138.0Y-89.38
X138.0Y-97.0
X192.38Y-90.22
X192.38Y-125.78
X194.92Y-90.22
X194.92Y-125.78
X197.46Y-90.22
X197.46Y-125.78
X200.0Y-90.22
X200.0Y-125.78
X202.54Y-90.22
X202.54Y-125.78
X205.08Y-90.22
X205.08Y-125.78
X207.62Y-90.22
X207.62Y-125.78
T6
X142.9Y-111.46
X142.9Y-116.54
T7
X198.272Y-104.0
X198.272Y-106.5
X198.272Y-108.5
X198.272Y-111.0
T8
X112.9Y-101.9
X112.9Y-104.4
X112.9Y-106.9
X121.75Y-123.25
X124.25Y-123.25
X149.25Y-94.025
X151.75Y-94.025
X154.25Y-94.025
X156.75Y-94.025
X163.25Y-94.025
X165.75Y-94.025
X168.25Y-94.025
X170.75Y-94.025
T9
X159.975Y-85.11
X159.975Y-87.65
X173.975Y-85.11
X173.975Y-87.65
X182.46Y-85.0
X182.46Y-87.54
X182.46Y-90.08
X182.46Y-92.62
X182.46Y-95.16
X182.46Y-97.7
X182.46Y-100.24
X182.46Y-102.78
X185.0Y-85.0
X185.0Y-87.54
X185.0Y-90.08
X185.0Y-92.62
X185.0Y-95.16
X185.0Y-97.7
X185.0Y-100.24
X185.0Y-102.78
X187.54Y-85.0
X187.54Y-87.54
X187.54Y-90.08
X187.54Y-92.62
X187.54Y-95.16
X187.54Y-97.7
X187.54Y-100.24
X187.54Y-102.78
T10
X136.35Y-123.0
X136.35Y-129.5
X140.85Y-123.0
X140.85Y-129.5
X145.35Y-123.0
X145.35Y-129.5
X149.85Y-123.0
X149.85Y-129.5
X154.35Y-123.0
X154.35Y-129.5
X158.85Y-123.0
X158.85Y-129.5
X163.5Y-123.0
X163.5Y-129.5
X168.0Y-123.0
X168.0Y-129.5
T11
X206.5Y-95.02
X207.0Y-120.42
T12
X200.982Y-100.93
X200.982Y-114.07
T13
X112.85Y-130.15
X112.88Y-85.85
X207.15Y-85.85
X207.15Y-130.15
T14
X122.6Y-129.75G85X123.4Y-129.75
G05
T0
M30
