G04 #@! TF.GenerationSoftware,KiCad,Pcbnew,7.0.9*
G04 #@! TF.CreationDate,2024-09-01T01:30:57+09:00*
G04 #@! TF.ProjectId,ODAmain_ver2.0,4f44416d-6169-46e5-9f76-6572322e302e,rev?*
G04 #@! TF.SameCoordinates,Original*
G04 #@! TF.FileFunction,Soldermask,Top*
G04 #@! TF.FilePolarity,Negative*
%FSLAX46Y46*%
G04 Gerber Fmt 4.6, Leading zero omitted, Abs format (unit mm)*
G04 Created by KiCad (PCBNEW 7.0.9) date 2024-09-01 01:30:57*
%MOMM*%
%LPD*%
G01*
G04 APERTURE LIST*
G04 Aperture macros list*
%AMRoundRect*
0 Rectangle with rounded corners*
0 $1 Rounding radius*
0 $2 $3 $4 $5 $6 $7 $8 $9 X,Y pos of 4 corners*
0 Add a 4 corners polygon primitive as box body*
4,1,4,$2,$3,$4,$5,$6,$7,$8,$9,$2,$3,0*
0 Add four circle primitives for the rounded corners*
1,1,$1+$1,$2,$3*
1,1,$1+$1,$4,$5*
1,1,$1+$1,$6,$7*
1,1,$1+$1,$8,$9*
0 Add four rect primitives between the rounded corners*
20,1,$1+$1,$2,$3,$4,$5,0*
20,1,$1+$1,$4,$5,$6,$7,0*
20,1,$1+$1,$6,$7,$8,$9,0*
20,1,$1+$1,$8,$9,$2,$3,0*%
%AMFreePoly0*
4,1,6,1.000000,0.000000,0.500000,-0.750000,-0.500000,-0.750000,-0.500000,0.750000,0.500000,0.750000,1.000000,0.000000,1.000000,0.000000,$1*%
%AMFreePoly1*
4,1,6,0.500000,-0.750000,-0.650000,-0.750000,-0.150000,0.000000,-0.650000,0.750000,0.500000,0.750000,0.500000,-0.750000,0.500000,-0.750000,$1*%
G04 Aperture macros list end*
%ADD10C,2.000000*%
%ADD11RoundRect,0.237500X-0.387500X-0.237500X0.387500X-0.237500X0.387500X0.237500X-0.387500X0.237500X0*%
%ADD12C,1.998980*%
%ADD13RoundRect,0.075000X0.441942X-0.548008X0.548008X-0.441942X-0.441942X0.548008X-0.548008X0.441942X0*%
%ADD14RoundRect,0.075000X-0.441942X-0.548008X0.548008X0.441942X0.441942X0.548008X-0.548008X-0.441942X0*%
%ADD15R,1.700000X1.700000*%
%ADD16O,1.700000X1.700000*%
%ADD17R,1.500000X1.000000*%
%ADD18RoundRect,0.100000X-0.100000X-0.450000X0.100000X-0.450000X0.100000X0.450000X-0.100000X0.450000X0*%
%ADD19RoundRect,0.075000X-0.075000X-0.475000X0.075000X-0.475000X0.075000X0.475000X-0.075000X0.475000X0*%
%ADD20C,1.000000*%
%ADD21C,5.000000*%
%ADD22O,1.800000X2.200000*%
%ADD23R,1.800000X2.200000*%
%ADD24O,1.524000X1.800000*%
%ADD25RoundRect,0.150000X0.700000X-0.150000X0.700000X0.150000X-0.700000X0.150000X-0.700000X-0.150000X0*%
%ADD26RoundRect,0.250000X1.150000X-0.250000X1.150000X0.250000X-1.150000X0.250000X-1.150000X-0.250000X0*%
%ADD27RoundRect,0.250000X0.725000X-0.600000X0.725000X0.600000X-0.725000X0.600000X-0.725000X-0.600000X0*%
%ADD28O,1.950000X1.700000*%
%ADD29RoundRect,0.237500X-0.237500X0.400000X-0.237500X-0.400000X0.237500X-0.400000X0.237500X0.400000X0*%
%ADD30FreePoly0,180.000000*%
%ADD31FreePoly1,180.000000*%
%ADD32R,1.000000X1.500000*%
%ADD33C,3.500000*%
%ADD34C,1.524000*%
%ADD35R,1.524000X1.524000*%
%ADD36RoundRect,0.150000X0.150000X0.700000X-0.150000X0.700000X-0.150000X-0.700000X0.150000X-0.700000X0*%
%ADD37RoundRect,0.250000X0.250000X1.100000X-0.250000X1.100000X-0.250000X-1.100000X0.250000X-1.100000X0*%
%ADD38RoundRect,0.250000X0.600000X0.725000X-0.600000X0.725000X-0.600000X-0.725000X0.600000X-0.725000X0*%
%ADD39O,1.700000X1.950000*%
%ADD40O,2.800000X2.000000*%
%ADD41RoundRect,0.250000X-0.600000X-0.725000X0.600000X-0.725000X0.600000X0.725000X-0.600000X0.725000X0*%
%ADD42RoundRect,0.237500X0.287500X0.237500X-0.287500X0.237500X-0.287500X-0.237500X0.287500X-0.237500X0*%
%ADD43RoundRect,0.292875X0.394625X0.432125X-0.394625X0.432125X-0.394625X-0.432125X0.394625X-0.432125X0*%
%ADD44RoundRect,0.292875X0.432125X-0.394625X0.432125X0.394625X-0.432125X0.394625X-0.432125X-0.394625X0*%
%ADD45RoundRect,0.292875X-0.432125X0.394625X-0.432125X-0.394625X0.432125X-0.394625X0.432125X0.394625X0*%
%ADD46RoundRect,0.292875X-0.394625X-0.432125X0.394625X-0.432125X0.394625X0.432125X-0.394625X0.432125X0*%
%ADD47RoundRect,0.292875X-0.584601X-0.026517X-0.026517X-0.584601X0.584601X0.026517X0.026517X0.584601X0*%
%ADD48C,5.600000*%
G04 APERTURE END LIST*
D10*
X163500000Y-123000000D03*
X163500000Y-129500000D03*
X168000000Y-123000000D03*
X168000000Y-129500000D03*
X158850000Y-129500000D03*
X158850000Y-123000000D03*
X154350000Y-129500000D03*
X154350000Y-123000000D03*
X145350000Y-123000000D03*
X145350000Y-129500000D03*
X149850000Y-123000000D03*
X149850000Y-129500000D03*
X136350000Y-123000000D03*
X136350000Y-129500000D03*
X140850000Y-123000000D03*
X140850000Y-129500000D03*
D11*
X180500000Y-109500000D03*
X178550000Y-109500000D03*
D12*
X142900000Y-116540000D03*
X142900000Y-111460000D03*
D13*
X153335519Y-106638819D03*
X153689072Y-106285266D03*
X154042625Y-105931713D03*
X154396179Y-105578159D03*
X154749732Y-105224606D03*
X155103286Y-104871052D03*
X155456839Y-104517499D03*
X155810392Y-104163946D03*
X156163946Y-103810392D03*
X156517499Y-103456839D03*
X156871052Y-103103286D03*
X157224606Y-102749732D03*
X157578159Y-102396179D03*
X157931713Y-102042625D03*
X158285266Y-101689072D03*
X158638819Y-101335519D03*
D14*
X161361181Y-101335519D03*
X161714734Y-101689072D03*
X162068287Y-102042625D03*
X162421841Y-102396179D03*
X162775394Y-102749732D03*
X163128948Y-103103286D03*
X163482501Y-103456839D03*
X163836054Y-103810392D03*
X164189608Y-104163946D03*
X164543161Y-104517499D03*
X164896714Y-104871052D03*
X165250268Y-105224606D03*
X165603821Y-105578159D03*
X165957375Y-105931713D03*
X166310928Y-106285266D03*
X166664481Y-106638819D03*
D13*
X166664481Y-109361181D03*
X166310928Y-109714734D03*
X165957375Y-110068287D03*
X165603821Y-110421841D03*
X165250268Y-110775394D03*
X164896714Y-111128948D03*
X164543161Y-111482501D03*
X164189608Y-111836054D03*
X163836054Y-112189608D03*
X163482501Y-112543161D03*
X163128948Y-112896714D03*
X162775394Y-113250268D03*
X162421841Y-113603821D03*
X162068287Y-113957375D03*
X161714734Y-114310928D03*
X161361181Y-114664481D03*
D14*
X158638819Y-114664481D03*
X158285266Y-114310928D03*
X157931713Y-113957375D03*
X157578159Y-113603821D03*
X157224606Y-113250268D03*
X156871052Y-112896714D03*
X156517499Y-112543161D03*
X156163946Y-112189608D03*
X155810392Y-111836054D03*
X155456839Y-111482501D03*
X155103286Y-111128948D03*
X154749732Y-110775394D03*
X154396179Y-110421841D03*
X154042625Y-110068287D03*
X153689072Y-109714734D03*
X153335519Y-109361181D03*
D15*
X187540000Y-102780000D03*
D16*
X187540000Y-100240000D03*
X187540000Y-97700000D03*
X187540000Y-95160000D03*
X187540000Y-92620000D03*
X187540000Y-90080000D03*
X187540000Y-87540000D03*
X187540000Y-85000000D03*
D15*
X185000000Y-102780000D03*
D16*
X185000000Y-100240000D03*
X185000000Y-97700000D03*
X185000000Y-95160000D03*
X185000000Y-92620000D03*
X185000000Y-90080000D03*
X185000000Y-87540000D03*
X185000000Y-85000000D03*
D15*
X182460000Y-102780000D03*
D16*
X182460000Y-100240000D03*
X182460000Y-97700000D03*
X182460000Y-95160000D03*
X182460000Y-92620000D03*
X182460000Y-90080000D03*
X182460000Y-87540000D03*
X182460000Y-85000000D03*
D17*
X202300000Y-131250000D03*
X197700000Y-131250000D03*
X202300000Y-128750000D03*
X197700000Y-128750000D03*
X174200000Y-126500000D03*
X178800000Y-126500000D03*
X174200000Y-129000000D03*
X178800000Y-129000000D03*
D18*
X198250000Y-121870000D03*
X198250000Y-117970000D03*
D19*
X197700000Y-121870000D03*
X197700000Y-117970000D03*
X197200000Y-121870000D03*
X197200000Y-117970000D03*
X196700000Y-121870000D03*
X196700000Y-117970000D03*
X196200000Y-121870000D03*
X196200000Y-117970000D03*
X195700000Y-121870000D03*
X195700000Y-117970000D03*
X195200000Y-121870000D03*
X195200000Y-117970000D03*
X194700000Y-121870000D03*
X194700000Y-117970000D03*
X194200000Y-121870000D03*
X194200000Y-117970000D03*
D18*
X193650000Y-121870000D03*
X193650000Y-117970000D03*
D20*
X193100000Y-119920000D03*
X198800000Y-119920000D03*
D21*
X206500000Y-95020000D03*
X207000000Y-120420000D03*
D22*
X207620000Y-125780000D03*
X205080000Y-125780000D03*
X202540000Y-125780000D03*
X200000000Y-125780000D03*
X197460000Y-125780000D03*
X194920000Y-125780000D03*
D23*
X192380000Y-125780000D03*
D22*
X192380000Y-90220000D03*
X194920000Y-90220000D03*
X197460000Y-90220000D03*
X200000000Y-90220000D03*
X202540000Y-90220000D03*
X205080000Y-90220000D03*
X207620000Y-90220000D03*
D24*
X130380000Y-97000000D03*
X132920000Y-97000000D03*
X135460000Y-97000000D03*
X138000000Y-97000000D03*
X138000000Y-89380000D03*
X135460000Y-89380000D03*
X132920000Y-89380000D03*
X130380000Y-89380000D03*
D25*
X115450000Y-121625000D03*
X115450000Y-120375000D03*
X115450000Y-119125000D03*
X115450000Y-117875000D03*
X115450000Y-116625000D03*
X115450000Y-115375000D03*
D26*
X112100000Y-113525000D03*
X112100000Y-123475000D03*
D27*
X112900000Y-106900000D03*
D28*
X112900000Y-104400000D03*
X112900000Y-101900000D03*
D29*
X153000000Y-100375000D03*
X153000000Y-102500000D03*
D30*
X188225000Y-107000000D03*
D31*
X186775000Y-107000000D03*
D30*
X188225000Y-114500000D03*
D31*
X186775000Y-114500000D03*
D32*
X186850000Y-112000000D03*
X188150000Y-112000000D03*
X186850000Y-109500000D03*
X188150000Y-109500000D03*
D33*
X200982500Y-100930000D03*
X200982500Y-114070000D03*
D34*
X198272500Y-104000000D03*
X198272500Y-106500000D03*
X198272500Y-108500000D03*
D35*
X198272500Y-111000000D03*
D36*
X168875000Y-88250000D03*
X167625000Y-88250000D03*
X166375000Y-88250000D03*
X165125000Y-88250000D03*
D37*
X163275000Y-85050000D03*
X170725000Y-85050000D03*
X156725000Y-85050000D03*
X149275000Y-85050000D03*
D36*
X151125000Y-88250000D03*
X152375000Y-88250000D03*
X153625000Y-88250000D03*
X154875000Y-88250000D03*
D38*
X170750000Y-94025000D03*
D39*
X168250000Y-94025000D03*
X165750000Y-94025000D03*
X163250000Y-94025000D03*
D38*
X156750000Y-94025000D03*
D39*
X154250000Y-94025000D03*
X151750000Y-94025000D03*
X149250000Y-94025000D03*
D16*
X173975000Y-85110000D03*
D15*
X173975000Y-87650000D03*
X159975000Y-87650000D03*
D16*
X159975000Y-85110000D03*
D40*
X123000000Y-129750000D03*
D41*
X121750000Y-123250000D03*
D39*
X124250000Y-123250000D03*
D42*
X182375000Y-119000000D03*
X180625000Y-119000000D03*
X180625000Y-117000000D03*
X182375000Y-117000000D03*
X182375000Y-121000000D03*
X180625000Y-121000000D03*
X180625000Y-123000000D03*
X182375000Y-123000000D03*
D11*
X119375000Y-101900000D03*
X121325000Y-101900000D03*
X121325000Y-106900000D03*
X119375000Y-106900000D03*
X178550000Y-113500000D03*
X180500000Y-113500000D03*
X178550000Y-111500000D03*
X180500000Y-111500000D03*
X178550000Y-107500000D03*
X180500000Y-107500000D03*
D43*
X150900000Y-107000000D03*
X148625000Y-107000000D03*
X161200000Y-99000000D03*
X158925000Y-99000000D03*
D44*
X169000000Y-109100000D03*
X169000000Y-106825000D03*
D45*
X163000000Y-117400000D03*
X163000000Y-119675000D03*
X155500000Y-118775000D03*
X155500000Y-116500000D03*
D46*
X163100000Y-98500000D03*
X165375000Y-98500000D03*
D47*
X172608668Y-111608668D03*
X171000000Y-110000000D03*
X170604334Y-113604334D03*
X168995666Y-111995666D03*
D43*
X150900000Y-109000000D03*
X148625000Y-109000000D03*
D46*
X136862500Y-116100000D03*
X139137500Y-116100000D03*
X136862500Y-112100000D03*
X139137500Y-112100000D03*
D45*
X172250000Y-126612500D03*
X172250000Y-128887500D03*
D46*
X114325000Y-91420000D03*
X112050000Y-91420000D03*
X112050000Y-95930000D03*
X114325000Y-95930000D03*
D20*
X204950000Y-130150000D03*
X205594370Y-128594370D03*
X205594370Y-131705630D03*
X207150000Y-127950000D03*
D48*
X207150000Y-130150000D03*
D20*
X207150000Y-132350000D03*
X208705630Y-128594370D03*
X208705630Y-131705630D03*
X209350000Y-130150000D03*
X110680000Y-85850000D03*
X111324370Y-84294370D03*
X111324370Y-87405630D03*
X112880000Y-83650000D03*
D48*
X112880000Y-85850000D03*
D20*
X112880000Y-88050000D03*
X114435630Y-84294370D03*
X114435630Y-87405630D03*
X115080000Y-85850000D03*
X110650000Y-130150000D03*
X111294370Y-128594370D03*
X111294370Y-131705630D03*
X112850000Y-127950000D03*
D48*
X112850000Y-130150000D03*
D20*
X112850000Y-132350000D03*
X114405630Y-128594370D03*
X114405630Y-131705630D03*
X115050000Y-130150000D03*
X204950000Y-85850000D03*
X205594370Y-84294370D03*
X205594370Y-87405630D03*
X207150000Y-83650000D03*
D48*
X207150000Y-85850000D03*
D20*
X207150000Y-88050000D03*
X208705630Y-84294370D03*
X208705630Y-87405630D03*
X209350000Y-85850000D03*
M02*
