G04 #@! TF.GenerationSoftware,KiCad,Pcbnew,7.0.9*
G04 #@! TF.CreationDate,2024-06-27T15:35:45+09:00*
G04 #@! TF.ProjectId,YAMADAmain,59414d41-4441-46d6-9169-6e2e6b696361,rev?*
G04 #@! TF.SameCoordinates,Original*
G04 #@! TF.FileFunction,Legend,Bot*
G04 #@! TF.FilePolarity,Positive*
%FSLAX46Y46*%
G04 Gerber Fmt 4.6, Leading zero omitted, Abs format (unit mm)*
G04 Created by KiCad (PCBNEW 7.0.9) date 2024-06-27 15:35:45*
%MOMM*%
%LPD*%
G01*
G04 APERTURE LIST*
G04 Aperture macros list*
%AMRoundRect*
0 Rectangle with rounded corners*
0 $1 Rounding radius*
0 $2 $3 $4 $5 $6 $7 $8 $9 X,Y pos of 4 corners*
0 Add a 4 corners polygon primitive as box body*
4,1,4,$2,$3,$4,$5,$6,$7,$8,$9,$2,$3,0*
0 Add four circle primitives for the rounded corners*
1,1,$1+$1,$2,$3*
1,1,$1+$1,$4,$5*
1,1,$1+$1,$6,$7*
1,1,$1+$1,$8,$9*
0 Add four rect primitives between the rounded corners*
20,1,$1+$1,$2,$3,$4,$5,0*
20,1,$1+$1,$4,$5,$6,$7,0*
20,1,$1+$1,$6,$7,$8,$9,0*
20,1,$1+$1,$8,$9,$2,$3,0*%
G04 Aperture macros list end*
%ADD10C,0.150000*%
%ADD11C,0.153000*%
%ADD12C,0.010000*%
%ADD13C,0.120000*%
%ADD14RoundRect,0.635000X0.635000X0.635000X-0.635000X0.635000X-0.635000X-0.635000X0.635000X-0.635000X0*%
%ADD15C,1.000000*%
%ADD16C,5.600000*%
%ADD17C,1.524000*%
%ADD18RoundRect,0.625000X-0.875000X-0.625000X0.875000X-0.625000X0.875000X0.625000X-0.875000X0.625000X0*%
%ADD19R,1.700000X1.700000*%
%ADD20O,1.700000X1.700000*%
%ADD21C,1.600000*%
%ADD22R,1.800000X2.200000*%
%ADD23O,1.800000X2.200000*%
%ADD24O,1.700000X2.000000*%
%ADD25RoundRect,0.250000X-0.600000X-0.750000X0.600000X-0.750000X0.600000X0.750000X-0.600000X0.750000X0*%
%ADD26RoundRect,0.250000X-0.350000X-0.450000X0.350000X-0.450000X0.350000X0.450000X-0.350000X0.450000X0*%
%ADD27RoundRect,0.250000X-1.100000X0.250000X-1.100000X-0.250000X1.100000X-0.250000X1.100000X0.250000X0*%
%ADD28RoundRect,0.150000X-0.700000X0.150000X-0.700000X-0.150000X0.700000X-0.150000X0.700000X0.150000X0*%
%ADD29RoundRect,0.292875X-0.394625X-0.432125X0.394625X-0.432125X0.394625X0.432125X-0.394625X0.432125X0*%
%ADD30RoundRect,0.508000X2.032000X-0.508000X2.032000X0.508000X-2.032000X0.508000X-2.032000X-0.508000X0*%
%ADD31RoundRect,0.250000X0.337500X0.475000X-0.337500X0.475000X-0.337500X-0.475000X0.337500X-0.475000X0*%
%ADD32RoundRect,0.225000X0.375000X-0.225000X0.375000X0.225000X-0.375000X0.225000X-0.375000X-0.225000X0*%
%ADD33RoundRect,0.250000X0.350000X0.450000X-0.350000X0.450000X-0.350000X-0.450000X0.350000X-0.450000X0*%
%ADD34RoundRect,0.250000X0.475000X-0.337500X0.475000X0.337500X-0.475000X0.337500X-0.475000X-0.337500X0*%
%ADD35RoundRect,0.292875X-0.432125X0.394625X-0.432125X-0.394625X0.432125X-0.394625X0.432125X0.394625X0*%
%ADD36R,2.200000X1.200000*%
%ADD37R,6.400000X5.800000*%
%ADD38RoundRect,0.250000X0.450000X-0.350000X0.450000X0.350000X-0.450000X0.350000X-0.450000X-0.350000X0*%
%ADD39RoundRect,0.292875X0.394625X0.432125X-0.394625X0.432125X-0.394625X-0.432125X0.394625X-0.432125X0*%
G04 APERTURE END LIST*
D10*
X117348000Y-118618000D02*
X117856000Y-118618000D01*
X123698000Y-118364000D02*
X123698000Y-118872000D01*
X123444000Y-118618000D02*
X123952000Y-118618000D01*
D11*
X118233663Y-109812752D02*
X117233663Y-109812752D01*
X117233663Y-109812752D02*
X117947948Y-110146085D01*
X117947948Y-110146085D02*
X117233663Y-110479418D01*
X117233663Y-110479418D02*
X118233663Y-110479418D01*
X117328901Y-110907990D02*
X117281282Y-110955609D01*
X117281282Y-110955609D02*
X117233663Y-111050847D01*
X117233663Y-111050847D02*
X117233663Y-111288942D01*
X117233663Y-111288942D02*
X117281282Y-111384180D01*
X117281282Y-111384180D02*
X117328901Y-111431799D01*
X117328901Y-111431799D02*
X117424139Y-111479418D01*
X117424139Y-111479418D02*
X117519377Y-111479418D01*
X117519377Y-111479418D02*
X117662234Y-111431799D01*
X117662234Y-111431799D02*
X118233663Y-110860371D01*
X118233663Y-110860371D02*
X118233663Y-111479418D01*
X118233663Y-101684752D02*
X117233663Y-101684752D01*
X117233663Y-101684752D02*
X117947948Y-102018085D01*
X117947948Y-102018085D02*
X117233663Y-102351418D01*
X117233663Y-102351418D02*
X118233663Y-102351418D01*
X118233663Y-103351418D02*
X118233663Y-102779990D01*
X118233663Y-103065704D02*
X117233663Y-103065704D01*
X117233663Y-103065704D02*
X117376520Y-102970466D01*
X117376520Y-102970466D02*
X117471758Y-102875228D01*
X117471758Y-102875228D02*
X117519377Y-102779990D01*
X125853663Y-109812752D02*
X124853663Y-109812752D01*
X124853663Y-109812752D02*
X125567948Y-110146085D01*
X125567948Y-110146085D02*
X124853663Y-110479418D01*
X124853663Y-110479418D02*
X125853663Y-110479418D01*
X125186996Y-111384180D02*
X125853663Y-111384180D01*
X124806044Y-111146085D02*
X125520329Y-110907990D01*
X125520329Y-110907990D02*
X125520329Y-111527037D01*
X125853663Y-101684752D02*
X124853663Y-101684752D01*
X124853663Y-101684752D02*
X125567948Y-102018085D01*
X125567948Y-102018085D02*
X124853663Y-102351418D01*
X124853663Y-102351418D02*
X125853663Y-102351418D01*
X124853663Y-102732371D02*
X124853663Y-103351418D01*
X124853663Y-103351418D02*
X125234615Y-103018085D01*
X125234615Y-103018085D02*
X125234615Y-103160942D01*
X125234615Y-103160942D02*
X125282234Y-103256180D01*
X125282234Y-103256180D02*
X125329853Y-103303799D01*
X125329853Y-103303799D02*
X125425091Y-103351418D01*
X125425091Y-103351418D02*
X125663186Y-103351418D01*
X125663186Y-103351418D02*
X125758424Y-103303799D01*
X125758424Y-103303799D02*
X125806044Y-103256180D01*
X125806044Y-103256180D02*
X125853663Y-103160942D01*
X125853663Y-103160942D02*
X125853663Y-102875228D01*
X125853663Y-102875228D02*
X125806044Y-102779990D01*
X125806044Y-102779990D02*
X125758424Y-102732371D01*
X117927333Y-93418663D02*
X118498761Y-93418663D01*
X118213047Y-93418663D02*
X118213047Y-92418663D01*
X118213047Y-92418663D02*
X118308285Y-92561520D01*
X118308285Y-92561520D02*
X118403523Y-92656758D01*
X118403523Y-92656758D02*
X118498761Y-92704377D01*
X117498761Y-93323424D02*
X117451142Y-93371044D01*
X117451142Y-93371044D02*
X117498761Y-93418663D01*
X117498761Y-93418663D02*
X117546380Y-93371044D01*
X117546380Y-93371044D02*
X117498761Y-93323424D01*
X117498761Y-93323424D02*
X117498761Y-93418663D01*
X116546381Y-92418663D02*
X117022571Y-92418663D01*
X117022571Y-92418663D02*
X117070190Y-92894853D01*
X117070190Y-92894853D02*
X117022571Y-92847234D01*
X117022571Y-92847234D02*
X116927333Y-92799615D01*
X116927333Y-92799615D02*
X116689238Y-92799615D01*
X116689238Y-92799615D02*
X116594000Y-92847234D01*
X116594000Y-92847234D02*
X116546381Y-92894853D01*
X116546381Y-92894853D02*
X116498762Y-92990091D01*
X116498762Y-92990091D02*
X116498762Y-93228186D01*
X116498762Y-93228186D02*
X116546381Y-93323424D01*
X116546381Y-93323424D02*
X116594000Y-93371044D01*
X116594000Y-93371044D02*
X116689238Y-93418663D01*
X116689238Y-93418663D02*
X116927333Y-93418663D01*
X116927333Y-93418663D02*
X117022571Y-93371044D01*
X117022571Y-93371044D02*
X117070190Y-93323424D01*
X116070190Y-93418663D02*
X116070190Y-92418663D01*
X115974952Y-93037710D02*
X115689238Y-93418663D01*
X115689238Y-92751996D02*
X116070190Y-93132948D01*
X153823044Y-97845619D02*
X153870663Y-97988476D01*
X153870663Y-97988476D02*
X153870663Y-98226571D01*
X153870663Y-98226571D02*
X153823044Y-98321809D01*
X153823044Y-98321809D02*
X153775424Y-98369428D01*
X153775424Y-98369428D02*
X153680186Y-98417047D01*
X153680186Y-98417047D02*
X153584948Y-98417047D01*
X153584948Y-98417047D02*
X153489710Y-98369428D01*
X153489710Y-98369428D02*
X153442091Y-98321809D01*
X153442091Y-98321809D02*
X153394472Y-98226571D01*
X153394472Y-98226571D02*
X153346853Y-98036095D01*
X153346853Y-98036095D02*
X153299234Y-97940857D01*
X153299234Y-97940857D02*
X153251615Y-97893238D01*
X153251615Y-97893238D02*
X153156377Y-97845619D01*
X153156377Y-97845619D02*
X153061139Y-97845619D01*
X153061139Y-97845619D02*
X152965901Y-97893238D01*
X152965901Y-97893238D02*
X152918282Y-97940857D01*
X152918282Y-97940857D02*
X152870663Y-98036095D01*
X152870663Y-98036095D02*
X152870663Y-98274190D01*
X152870663Y-98274190D02*
X152918282Y-98417047D01*
X152870663Y-98702762D02*
X152870663Y-99274190D01*
X153870663Y-98988476D02*
X152870663Y-98988476D01*
X153489710Y-99607524D02*
X153489710Y-100369429D01*
X153870663Y-101321809D02*
X153870663Y-100845619D01*
X153870663Y-100845619D02*
X152870663Y-100845619D01*
X153870663Y-101655143D02*
X152870663Y-101655143D01*
X153870663Y-102131333D02*
X152870663Y-102131333D01*
X152870663Y-102131333D02*
X153870663Y-102702761D01*
X153870663Y-102702761D02*
X152870663Y-102702761D01*
X153870663Y-103178952D02*
X152870663Y-103178952D01*
X153870663Y-103750380D02*
X153299234Y-103321809D01*
X152870663Y-103750380D02*
X153442091Y-103178952D01*
X150972685Y-115278663D02*
X150877447Y-115278663D01*
X150877447Y-115278663D02*
X150782209Y-115326282D01*
X150782209Y-115326282D02*
X150734590Y-115373901D01*
X150734590Y-115373901D02*
X150686971Y-115469139D01*
X150686971Y-115469139D02*
X150639352Y-115659615D01*
X150639352Y-115659615D02*
X150639352Y-115897710D01*
X150639352Y-115897710D02*
X150686971Y-116088186D01*
X150686971Y-116088186D02*
X150734590Y-116183424D01*
X150734590Y-116183424D02*
X150782209Y-116231044D01*
X150782209Y-116231044D02*
X150877447Y-116278663D01*
X150877447Y-116278663D02*
X150972685Y-116278663D01*
X150972685Y-116278663D02*
X151067923Y-116231044D01*
X151067923Y-116231044D02*
X151115542Y-116183424D01*
X151115542Y-116183424D02*
X151163161Y-116088186D01*
X151163161Y-116088186D02*
X151210780Y-115897710D01*
X151210780Y-115897710D02*
X151210780Y-115659615D01*
X151210780Y-115659615D02*
X151163161Y-115469139D01*
X151163161Y-115469139D02*
X151115542Y-115373901D01*
X151115542Y-115373901D02*
X151067923Y-115326282D01*
X151067923Y-115326282D02*
X150972685Y-115278663D01*
X150210780Y-116183424D02*
X150163161Y-116231044D01*
X150163161Y-116231044D02*
X150210780Y-116278663D01*
X150210780Y-116278663D02*
X150258399Y-116231044D01*
X150258399Y-116231044D02*
X150210780Y-116183424D01*
X150210780Y-116183424D02*
X150210780Y-116278663D01*
X149210781Y-116278663D02*
X149782209Y-116278663D01*
X149496495Y-116278663D02*
X149496495Y-115278663D01*
X149496495Y-115278663D02*
X149591733Y-115421520D01*
X149591733Y-115421520D02*
X149686971Y-115516758D01*
X149686971Y-115516758D02*
X149782209Y-115564377D01*
X148353638Y-115611996D02*
X148353638Y-116278663D01*
X148782209Y-115611996D02*
X148782209Y-116135805D01*
X148782209Y-116135805D02*
X148734590Y-116231044D01*
X148734590Y-116231044D02*
X148639352Y-116278663D01*
X148639352Y-116278663D02*
X148496495Y-116278663D01*
X148496495Y-116278663D02*
X148401257Y-116231044D01*
X148401257Y-116231044D02*
X148353638Y-116183424D01*
X131662285Y-86212853D02*
X131995618Y-86212853D01*
X131995618Y-86736663D02*
X131995618Y-85736663D01*
X131995618Y-85736663D02*
X131519428Y-85736663D01*
X131376571Y-86831901D02*
X130614666Y-86831901D01*
X129805142Y-86641424D02*
X129852761Y-86689044D01*
X129852761Y-86689044D02*
X129995618Y-86736663D01*
X129995618Y-86736663D02*
X130090856Y-86736663D01*
X130090856Y-86736663D02*
X130233713Y-86689044D01*
X130233713Y-86689044D02*
X130328951Y-86593805D01*
X130328951Y-86593805D02*
X130376570Y-86498567D01*
X130376570Y-86498567D02*
X130424189Y-86308091D01*
X130424189Y-86308091D02*
X130424189Y-86165234D01*
X130424189Y-86165234D02*
X130376570Y-85974758D01*
X130376570Y-85974758D02*
X130328951Y-85879520D01*
X130328951Y-85879520D02*
X130233713Y-85784282D01*
X130233713Y-85784282D02*
X130090856Y-85736663D01*
X130090856Y-85736663D02*
X129995618Y-85736663D01*
X129995618Y-85736663D02*
X129852761Y-85784282D01*
X129852761Y-85784282D02*
X129805142Y-85831901D01*
X128852761Y-86736663D02*
X129424189Y-86736663D01*
X129138475Y-86736663D02*
X129138475Y-85736663D01*
X129138475Y-85736663D02*
X129233713Y-85879520D01*
X129233713Y-85879520D02*
X129328951Y-85974758D01*
X129328951Y-85974758D02*
X129424189Y-86022377D01*
X117927333Y-95450663D02*
X118498761Y-95450663D01*
X118213047Y-95450663D02*
X118213047Y-94450663D01*
X118213047Y-94450663D02*
X118308285Y-94593520D01*
X118308285Y-94593520D02*
X118403523Y-94688758D01*
X118403523Y-94688758D02*
X118498761Y-94736377D01*
X117498761Y-95355424D02*
X117451142Y-95403044D01*
X117451142Y-95403044D02*
X117498761Y-95450663D01*
X117498761Y-95450663D02*
X117546380Y-95403044D01*
X117546380Y-95403044D02*
X117498761Y-95355424D01*
X117498761Y-95355424D02*
X117498761Y-95450663D01*
X116546381Y-94450663D02*
X117022571Y-94450663D01*
X117022571Y-94450663D02*
X117070190Y-94926853D01*
X117070190Y-94926853D02*
X117022571Y-94879234D01*
X117022571Y-94879234D02*
X116927333Y-94831615D01*
X116927333Y-94831615D02*
X116689238Y-94831615D01*
X116689238Y-94831615D02*
X116594000Y-94879234D01*
X116594000Y-94879234D02*
X116546381Y-94926853D01*
X116546381Y-94926853D02*
X116498762Y-95022091D01*
X116498762Y-95022091D02*
X116498762Y-95260186D01*
X116498762Y-95260186D02*
X116546381Y-95355424D01*
X116546381Y-95355424D02*
X116594000Y-95403044D01*
X116594000Y-95403044D02*
X116689238Y-95450663D01*
X116689238Y-95450663D02*
X116927333Y-95450663D01*
X116927333Y-95450663D02*
X117022571Y-95403044D01*
X117022571Y-95403044D02*
X117070190Y-95355424D01*
X116070190Y-95450663D02*
X116070190Y-94450663D01*
X115974952Y-95069710D02*
X115689238Y-95450663D01*
X115689238Y-94783996D02*
X116070190Y-95164948D01*
X117927333Y-97736663D02*
X118498761Y-97736663D01*
X118213047Y-97736663D02*
X118213047Y-96736663D01*
X118213047Y-96736663D02*
X118308285Y-96879520D01*
X118308285Y-96879520D02*
X118403523Y-96974758D01*
X118403523Y-96974758D02*
X118498761Y-97022377D01*
X117498761Y-97641424D02*
X117451142Y-97689044D01*
X117451142Y-97689044D02*
X117498761Y-97736663D01*
X117498761Y-97736663D02*
X117546380Y-97689044D01*
X117546380Y-97689044D02*
X117498761Y-97641424D01*
X117498761Y-97641424D02*
X117498761Y-97736663D01*
X116546381Y-96736663D02*
X117022571Y-96736663D01*
X117022571Y-96736663D02*
X117070190Y-97212853D01*
X117070190Y-97212853D02*
X117022571Y-97165234D01*
X117022571Y-97165234D02*
X116927333Y-97117615D01*
X116927333Y-97117615D02*
X116689238Y-97117615D01*
X116689238Y-97117615D02*
X116594000Y-97165234D01*
X116594000Y-97165234D02*
X116546381Y-97212853D01*
X116546381Y-97212853D02*
X116498762Y-97308091D01*
X116498762Y-97308091D02*
X116498762Y-97546186D01*
X116498762Y-97546186D02*
X116546381Y-97641424D01*
X116546381Y-97641424D02*
X116594000Y-97689044D01*
X116594000Y-97689044D02*
X116689238Y-97736663D01*
X116689238Y-97736663D02*
X116927333Y-97736663D01*
X116927333Y-97736663D02*
X117022571Y-97689044D01*
X117022571Y-97689044D02*
X117070190Y-97641424D01*
X116070190Y-97736663D02*
X116070190Y-96736663D01*
X115974952Y-97355710D02*
X115689238Y-97736663D01*
X115689238Y-97069996D02*
X116070190Y-97450948D01*
X117927333Y-91132663D02*
X118498761Y-91132663D01*
X118213047Y-91132663D02*
X118213047Y-90132663D01*
X118213047Y-90132663D02*
X118308285Y-90275520D01*
X118308285Y-90275520D02*
X118403523Y-90370758D01*
X118403523Y-90370758D02*
X118498761Y-90418377D01*
X117498761Y-91037424D02*
X117451142Y-91085044D01*
X117451142Y-91085044D02*
X117498761Y-91132663D01*
X117498761Y-91132663D02*
X117546380Y-91085044D01*
X117546380Y-91085044D02*
X117498761Y-91037424D01*
X117498761Y-91037424D02*
X117498761Y-91132663D01*
X116546381Y-90132663D02*
X117022571Y-90132663D01*
X117022571Y-90132663D02*
X117070190Y-90608853D01*
X117070190Y-90608853D02*
X117022571Y-90561234D01*
X117022571Y-90561234D02*
X116927333Y-90513615D01*
X116927333Y-90513615D02*
X116689238Y-90513615D01*
X116689238Y-90513615D02*
X116594000Y-90561234D01*
X116594000Y-90561234D02*
X116546381Y-90608853D01*
X116546381Y-90608853D02*
X116498762Y-90704091D01*
X116498762Y-90704091D02*
X116498762Y-90942186D01*
X116498762Y-90942186D02*
X116546381Y-91037424D01*
X116546381Y-91037424D02*
X116594000Y-91085044D01*
X116594000Y-91085044D02*
X116689238Y-91132663D01*
X116689238Y-91132663D02*
X116927333Y-91132663D01*
X116927333Y-91132663D02*
X117022571Y-91085044D01*
X117022571Y-91085044D02*
X117070190Y-91037424D01*
X116070190Y-91132663D02*
X116070190Y-90132663D01*
X115974952Y-90751710D02*
X115689238Y-91132663D01*
X115689238Y-90465996D02*
X116070190Y-90846948D01*
X136454663Y-75040095D02*
X135454663Y-75040095D01*
X135454663Y-75040095D02*
X135454663Y-75278190D01*
X135454663Y-75278190D02*
X135502282Y-75421047D01*
X135502282Y-75421047D02*
X135597520Y-75516285D01*
X135597520Y-75516285D02*
X135692758Y-75563904D01*
X135692758Y-75563904D02*
X135883234Y-75611523D01*
X135883234Y-75611523D02*
X136026091Y-75611523D01*
X136026091Y-75611523D02*
X136216567Y-75563904D01*
X136216567Y-75563904D02*
X136311805Y-75516285D01*
X136311805Y-75516285D02*
X136407044Y-75421047D01*
X136407044Y-75421047D02*
X136454663Y-75278190D01*
X136454663Y-75278190D02*
X136454663Y-75040095D01*
X136549901Y-75802000D02*
X136549901Y-76563904D01*
X136407044Y-76754381D02*
X136454663Y-76897238D01*
X136454663Y-76897238D02*
X136454663Y-77135333D01*
X136454663Y-77135333D02*
X136407044Y-77230571D01*
X136407044Y-77230571D02*
X136359424Y-77278190D01*
X136359424Y-77278190D02*
X136264186Y-77325809D01*
X136264186Y-77325809D02*
X136168948Y-77325809D01*
X136168948Y-77325809D02*
X136073710Y-77278190D01*
X136073710Y-77278190D02*
X136026091Y-77230571D01*
X136026091Y-77230571D02*
X135978472Y-77135333D01*
X135978472Y-77135333D02*
X135930853Y-76944857D01*
X135930853Y-76944857D02*
X135883234Y-76849619D01*
X135883234Y-76849619D02*
X135835615Y-76802000D01*
X135835615Y-76802000D02*
X135740377Y-76754381D01*
X135740377Y-76754381D02*
X135645139Y-76754381D01*
X135645139Y-76754381D02*
X135549901Y-76802000D01*
X135549901Y-76802000D02*
X135502282Y-76849619D01*
X135502282Y-76849619D02*
X135454663Y-76944857D01*
X135454663Y-76944857D02*
X135454663Y-77182952D01*
X135454663Y-77182952D02*
X135502282Y-77325809D01*
X136454663Y-77754381D02*
X135787996Y-77754381D01*
X135883234Y-77754381D02*
X135835615Y-77802000D01*
X135835615Y-77802000D02*
X135787996Y-77897238D01*
X135787996Y-77897238D02*
X135787996Y-78040095D01*
X135787996Y-78040095D02*
X135835615Y-78135333D01*
X135835615Y-78135333D02*
X135930853Y-78182952D01*
X135930853Y-78182952D02*
X136454663Y-78182952D01*
X135930853Y-78182952D02*
X135835615Y-78230571D01*
X135835615Y-78230571D02*
X135787996Y-78325809D01*
X135787996Y-78325809D02*
X135787996Y-78468666D01*
X135787996Y-78468666D02*
X135835615Y-78563905D01*
X135835615Y-78563905D02*
X135930853Y-78611524D01*
X135930853Y-78611524D02*
X136454663Y-78611524D01*
X136454663Y-79516285D02*
X135930853Y-79516285D01*
X135930853Y-79516285D02*
X135835615Y-79468666D01*
X135835615Y-79468666D02*
X135787996Y-79373428D01*
X135787996Y-79373428D02*
X135787996Y-79182952D01*
X135787996Y-79182952D02*
X135835615Y-79087714D01*
X136407044Y-79516285D02*
X136454663Y-79421047D01*
X136454663Y-79421047D02*
X136454663Y-79182952D01*
X136454663Y-79182952D02*
X136407044Y-79087714D01*
X136407044Y-79087714D02*
X136311805Y-79040095D01*
X136311805Y-79040095D02*
X136216567Y-79040095D01*
X136216567Y-79040095D02*
X136121329Y-79087714D01*
X136121329Y-79087714D02*
X136073710Y-79182952D01*
X136073710Y-79182952D02*
X136073710Y-79421047D01*
X136073710Y-79421047D02*
X136026091Y-79516285D01*
X136454663Y-80135333D02*
X136407044Y-80040095D01*
X136407044Y-80040095D02*
X136311805Y-79992476D01*
X136311805Y-79992476D02*
X135454663Y-79992476D01*
X136454663Y-80659143D02*
X136407044Y-80563905D01*
X136407044Y-80563905D02*
X136311805Y-80516286D01*
X136311805Y-80516286D02*
X135454663Y-80516286D01*
X134033333Y-71320663D02*
X134604761Y-71320663D01*
X134319047Y-71320663D02*
X134319047Y-70320663D01*
X134319047Y-70320663D02*
X134414285Y-70463520D01*
X134414285Y-70463520D02*
X134509523Y-70558758D01*
X134509523Y-70558758D02*
X134604761Y-70606377D01*
X133604761Y-71225424D02*
X133557142Y-71273044D01*
X133557142Y-71273044D02*
X133604761Y-71320663D01*
X133604761Y-71320663D02*
X133652380Y-71273044D01*
X133652380Y-71273044D02*
X133604761Y-71225424D01*
X133604761Y-71225424D02*
X133604761Y-71320663D01*
X132652381Y-70320663D02*
X133128571Y-70320663D01*
X133128571Y-70320663D02*
X133176190Y-70796853D01*
X133176190Y-70796853D02*
X133128571Y-70749234D01*
X133128571Y-70749234D02*
X133033333Y-70701615D01*
X133033333Y-70701615D02*
X132795238Y-70701615D01*
X132795238Y-70701615D02*
X132700000Y-70749234D01*
X132700000Y-70749234D02*
X132652381Y-70796853D01*
X132652381Y-70796853D02*
X132604762Y-70892091D01*
X132604762Y-70892091D02*
X132604762Y-71130186D01*
X132604762Y-71130186D02*
X132652381Y-71225424D01*
X132652381Y-71225424D02*
X132700000Y-71273044D01*
X132700000Y-71273044D02*
X132795238Y-71320663D01*
X132795238Y-71320663D02*
X133033333Y-71320663D01*
X133033333Y-71320663D02*
X133128571Y-71273044D01*
X133128571Y-71273044D02*
X133176190Y-71225424D01*
X132176190Y-71320663D02*
X132176190Y-70320663D01*
X132080952Y-70939710D02*
X131795238Y-71320663D01*
X131795238Y-70653996D02*
X132176190Y-71034948D01*
X119445066Y-77273901D02*
X119397447Y-77226282D01*
X119397447Y-77226282D02*
X119302209Y-77178663D01*
X119302209Y-77178663D02*
X119064114Y-77178663D01*
X119064114Y-77178663D02*
X118968876Y-77226282D01*
X118968876Y-77226282D02*
X118921257Y-77273901D01*
X118921257Y-77273901D02*
X118873638Y-77369139D01*
X118873638Y-77369139D02*
X118873638Y-77464377D01*
X118873638Y-77464377D02*
X118921257Y-77607234D01*
X118921257Y-77607234D02*
X119492685Y-78178663D01*
X119492685Y-78178663D02*
X118873638Y-78178663D01*
X118254590Y-77178663D02*
X118159352Y-77178663D01*
X118159352Y-77178663D02*
X118064114Y-77226282D01*
X118064114Y-77226282D02*
X118016495Y-77273901D01*
X118016495Y-77273901D02*
X117968876Y-77369139D01*
X117968876Y-77369139D02*
X117921257Y-77559615D01*
X117921257Y-77559615D02*
X117921257Y-77797710D01*
X117921257Y-77797710D02*
X117968876Y-77988186D01*
X117968876Y-77988186D02*
X118016495Y-78083424D01*
X118016495Y-78083424D02*
X118064114Y-78131044D01*
X118064114Y-78131044D02*
X118159352Y-78178663D01*
X118159352Y-78178663D02*
X118254590Y-78178663D01*
X118254590Y-78178663D02*
X118349828Y-78131044D01*
X118349828Y-78131044D02*
X118397447Y-78083424D01*
X118397447Y-78083424D02*
X118445066Y-77988186D01*
X118445066Y-77988186D02*
X118492685Y-77797710D01*
X118492685Y-77797710D02*
X118492685Y-77559615D01*
X118492685Y-77559615D02*
X118445066Y-77369139D01*
X118445066Y-77369139D02*
X118397447Y-77273901D01*
X118397447Y-77273901D02*
X118349828Y-77226282D01*
X118349828Y-77226282D02*
X118254590Y-77178663D01*
X117492685Y-78178663D02*
X117492685Y-77178663D01*
X117397447Y-77797710D02*
X117111733Y-78178663D01*
X117111733Y-77511996D02*
X117492685Y-77892948D01*
X111566663Y-80775714D02*
X111566663Y-80870952D01*
X111566663Y-80870952D02*
X111614282Y-80966190D01*
X111614282Y-80966190D02*
X111661901Y-81013809D01*
X111661901Y-81013809D02*
X111757139Y-81061428D01*
X111757139Y-81061428D02*
X111947615Y-81109047D01*
X111947615Y-81109047D02*
X112185710Y-81109047D01*
X112185710Y-81109047D02*
X112376186Y-81061428D01*
X112376186Y-81061428D02*
X112471424Y-81013809D01*
X112471424Y-81013809D02*
X112519044Y-80966190D01*
X112519044Y-80966190D02*
X112566663Y-80870952D01*
X112566663Y-80870952D02*
X112566663Y-80775714D01*
X112566663Y-80775714D02*
X112519044Y-80680476D01*
X112519044Y-80680476D02*
X112471424Y-80632857D01*
X112471424Y-80632857D02*
X112376186Y-80585238D01*
X112376186Y-80585238D02*
X112185710Y-80537619D01*
X112185710Y-80537619D02*
X111947615Y-80537619D01*
X111947615Y-80537619D02*
X111757139Y-80585238D01*
X111757139Y-80585238D02*
X111661901Y-80632857D01*
X111661901Y-80632857D02*
X111614282Y-80680476D01*
X111614282Y-80680476D02*
X111566663Y-80775714D01*
X112471424Y-81537619D02*
X112519044Y-81585238D01*
X112519044Y-81585238D02*
X112566663Y-81537619D01*
X112566663Y-81537619D02*
X112519044Y-81490000D01*
X112519044Y-81490000D02*
X112471424Y-81537619D01*
X112471424Y-81537619D02*
X112566663Y-81537619D01*
X112566663Y-82537618D02*
X112566663Y-81966190D01*
X112566663Y-82251904D02*
X111566663Y-82251904D01*
X111566663Y-82251904D02*
X111709520Y-82156666D01*
X111709520Y-82156666D02*
X111804758Y-82061428D01*
X111804758Y-82061428D02*
X111852377Y-81966190D01*
X111899996Y-83394761D02*
X112566663Y-83394761D01*
X111899996Y-82966190D02*
X112423805Y-82966190D01*
X112423805Y-82966190D02*
X112519044Y-83013809D01*
X112519044Y-83013809D02*
X112566663Y-83109047D01*
X112566663Y-83109047D02*
X112566663Y-83251904D01*
X112566663Y-83251904D02*
X112519044Y-83347142D01*
X112519044Y-83347142D02*
X112471424Y-83394761D01*
X129766666Y-70415901D02*
X129719047Y-70368282D01*
X129719047Y-70368282D02*
X129623809Y-70320663D01*
X129623809Y-70320663D02*
X129385714Y-70320663D01*
X129385714Y-70320663D02*
X129290476Y-70368282D01*
X129290476Y-70368282D02*
X129242857Y-70415901D01*
X129242857Y-70415901D02*
X129195238Y-70511139D01*
X129195238Y-70511139D02*
X129195238Y-70606377D01*
X129195238Y-70606377D02*
X129242857Y-70749234D01*
X129242857Y-70749234D02*
X129814285Y-71320663D01*
X129814285Y-71320663D02*
X129195238Y-71320663D01*
X128576190Y-70320663D02*
X128480952Y-70320663D01*
X128480952Y-70320663D02*
X128385714Y-70368282D01*
X128385714Y-70368282D02*
X128338095Y-70415901D01*
X128338095Y-70415901D02*
X128290476Y-70511139D01*
X128290476Y-70511139D02*
X128242857Y-70701615D01*
X128242857Y-70701615D02*
X128242857Y-70939710D01*
X128242857Y-70939710D02*
X128290476Y-71130186D01*
X128290476Y-71130186D02*
X128338095Y-71225424D01*
X128338095Y-71225424D02*
X128385714Y-71273044D01*
X128385714Y-71273044D02*
X128480952Y-71320663D01*
X128480952Y-71320663D02*
X128576190Y-71320663D01*
X128576190Y-71320663D02*
X128671428Y-71273044D01*
X128671428Y-71273044D02*
X128719047Y-71225424D01*
X128719047Y-71225424D02*
X128766666Y-71130186D01*
X128766666Y-71130186D02*
X128814285Y-70939710D01*
X128814285Y-70939710D02*
X128814285Y-70701615D01*
X128814285Y-70701615D02*
X128766666Y-70511139D01*
X128766666Y-70511139D02*
X128719047Y-70415901D01*
X128719047Y-70415901D02*
X128671428Y-70368282D01*
X128671428Y-70368282D02*
X128576190Y-70320663D01*
X127814285Y-71320663D02*
X127814285Y-70320663D01*
X127719047Y-70939710D02*
X127433333Y-71320663D01*
X127433333Y-70653996D02*
X127814285Y-71034948D01*
X126200663Y-100131714D02*
X126200663Y-100226952D01*
X126200663Y-100226952D02*
X126248282Y-100322190D01*
X126248282Y-100322190D02*
X126295901Y-100369809D01*
X126295901Y-100369809D02*
X126391139Y-100417428D01*
X126391139Y-100417428D02*
X126581615Y-100465047D01*
X126581615Y-100465047D02*
X126819710Y-100465047D01*
X126819710Y-100465047D02*
X127010186Y-100417428D01*
X127010186Y-100417428D02*
X127105424Y-100369809D01*
X127105424Y-100369809D02*
X127153044Y-100322190D01*
X127153044Y-100322190D02*
X127200663Y-100226952D01*
X127200663Y-100226952D02*
X127200663Y-100131714D01*
X127200663Y-100131714D02*
X127153044Y-100036476D01*
X127153044Y-100036476D02*
X127105424Y-99988857D01*
X127105424Y-99988857D02*
X127010186Y-99941238D01*
X127010186Y-99941238D02*
X126819710Y-99893619D01*
X126819710Y-99893619D02*
X126581615Y-99893619D01*
X126581615Y-99893619D02*
X126391139Y-99941238D01*
X126391139Y-99941238D02*
X126295901Y-99988857D01*
X126295901Y-99988857D02*
X126248282Y-100036476D01*
X126248282Y-100036476D02*
X126200663Y-100131714D01*
X127105424Y-100893619D02*
X127153044Y-100941238D01*
X127153044Y-100941238D02*
X127200663Y-100893619D01*
X127200663Y-100893619D02*
X127153044Y-100846000D01*
X127153044Y-100846000D02*
X127105424Y-100893619D01*
X127105424Y-100893619D02*
X127200663Y-100893619D01*
X127200663Y-101893618D02*
X127200663Y-101322190D01*
X127200663Y-101607904D02*
X126200663Y-101607904D01*
X126200663Y-101607904D02*
X126343520Y-101512666D01*
X126343520Y-101512666D02*
X126438758Y-101417428D01*
X126438758Y-101417428D02*
X126486377Y-101322190D01*
X126533996Y-102750761D02*
X127200663Y-102750761D01*
X126533996Y-102322190D02*
X127057805Y-102322190D01*
X127057805Y-102322190D02*
X127153044Y-102369809D01*
X127153044Y-102369809D02*
X127200663Y-102465047D01*
X127200663Y-102465047D02*
X127200663Y-102607904D01*
X127200663Y-102607904D02*
X127153044Y-102703142D01*
X127153044Y-102703142D02*
X127105424Y-102750761D01*
X155701237Y-82242663D02*
X155701237Y-81242663D01*
X155701237Y-81242663D02*
X155129809Y-82242663D01*
X155129809Y-82242663D02*
X155129809Y-81242663D01*
X154367904Y-81242663D02*
X154367904Y-81956948D01*
X154367904Y-81956948D02*
X154415523Y-82099805D01*
X154415523Y-82099805D02*
X154510761Y-82195044D01*
X154510761Y-82195044D02*
X154653618Y-82242663D01*
X154653618Y-82242663D02*
X154748856Y-82242663D01*
X153891713Y-82242663D02*
X153891713Y-81242663D01*
X153891713Y-81242663D02*
X153558380Y-81956948D01*
X153558380Y-81956948D02*
X153225047Y-81242663D01*
X153225047Y-81242663D02*
X153225047Y-82242663D01*
X152796475Y-81337901D02*
X152748856Y-81290282D01*
X152748856Y-81290282D02*
X152653618Y-81242663D01*
X152653618Y-81242663D02*
X152415523Y-81242663D01*
X152415523Y-81242663D02*
X152320285Y-81290282D01*
X152320285Y-81290282D02*
X152272666Y-81337901D01*
X152272666Y-81337901D02*
X152225047Y-81433139D01*
X152225047Y-81433139D02*
X152225047Y-81528377D01*
X152225047Y-81528377D02*
X152272666Y-81671234D01*
X152272666Y-81671234D02*
X152844094Y-82242663D01*
X152844094Y-82242663D02*
X152225047Y-82242663D01*
X151653618Y-81671234D02*
X151748856Y-81623615D01*
X151748856Y-81623615D02*
X151796475Y-81575996D01*
X151796475Y-81575996D02*
X151844094Y-81480758D01*
X151844094Y-81480758D02*
X151844094Y-81433139D01*
X151844094Y-81433139D02*
X151796475Y-81337901D01*
X151796475Y-81337901D02*
X151748856Y-81290282D01*
X151748856Y-81290282D02*
X151653618Y-81242663D01*
X151653618Y-81242663D02*
X151463142Y-81242663D01*
X151463142Y-81242663D02*
X151367904Y-81290282D01*
X151367904Y-81290282D02*
X151320285Y-81337901D01*
X151320285Y-81337901D02*
X151272666Y-81433139D01*
X151272666Y-81433139D02*
X151272666Y-81480758D01*
X151272666Y-81480758D02*
X151320285Y-81575996D01*
X151320285Y-81575996D02*
X151367904Y-81623615D01*
X151367904Y-81623615D02*
X151463142Y-81671234D01*
X151463142Y-81671234D02*
X151653618Y-81671234D01*
X151653618Y-81671234D02*
X151748856Y-81718853D01*
X151748856Y-81718853D02*
X151796475Y-81766472D01*
X151796475Y-81766472D02*
X151844094Y-81861710D01*
X151844094Y-81861710D02*
X151844094Y-82052186D01*
X151844094Y-82052186D02*
X151796475Y-82147424D01*
X151796475Y-82147424D02*
X151748856Y-82195044D01*
X151748856Y-82195044D02*
X151653618Y-82242663D01*
X151653618Y-82242663D02*
X151463142Y-82242663D01*
X151463142Y-82242663D02*
X151367904Y-82195044D01*
X151367904Y-82195044D02*
X151320285Y-82147424D01*
X151320285Y-82147424D02*
X151272666Y-82052186D01*
X151272666Y-82052186D02*
X151272666Y-81861710D01*
X151272666Y-81861710D02*
X151320285Y-81766472D01*
X151320285Y-81766472D02*
X151367904Y-81718853D01*
X151367904Y-81718853D02*
X151463142Y-81671234D01*
X150415523Y-81575996D02*
X150415523Y-82242663D01*
X150653618Y-81195044D02*
X150891713Y-81909329D01*
X150891713Y-81909329D02*
X150272666Y-81909329D01*
X149415523Y-81242663D02*
X149891713Y-81242663D01*
X149891713Y-81242663D02*
X149939332Y-81718853D01*
X149939332Y-81718853D02*
X149891713Y-81671234D01*
X149891713Y-81671234D02*
X149796475Y-81623615D01*
X149796475Y-81623615D02*
X149558380Y-81623615D01*
X149558380Y-81623615D02*
X149463142Y-81671234D01*
X149463142Y-81671234D02*
X149415523Y-81718853D01*
X149415523Y-81718853D02*
X149367904Y-81814091D01*
X149367904Y-81814091D02*
X149367904Y-82052186D01*
X149367904Y-82052186D02*
X149415523Y-82147424D01*
X149415523Y-82147424D02*
X149463142Y-82195044D01*
X149463142Y-82195044D02*
X149558380Y-82242663D01*
X149558380Y-82242663D02*
X149796475Y-82242663D01*
X149796475Y-82242663D02*
X149891713Y-82195044D01*
X149891713Y-82195044D02*
X149939332Y-82147424D01*
X148939332Y-82242663D02*
X148939332Y-81242663D01*
X148939332Y-81242663D02*
X148701237Y-81242663D01*
X148701237Y-81242663D02*
X148558380Y-81290282D01*
X148558380Y-81290282D02*
X148463142Y-81385520D01*
X148463142Y-81385520D02*
X148415523Y-81480758D01*
X148415523Y-81480758D02*
X148367904Y-81671234D01*
X148367904Y-81671234D02*
X148367904Y-81814091D01*
X148367904Y-81814091D02*
X148415523Y-82004567D01*
X148415523Y-82004567D02*
X148463142Y-82099805D01*
X148463142Y-82099805D02*
X148558380Y-82195044D01*
X148558380Y-82195044D02*
X148701237Y-82242663D01*
X148701237Y-82242663D02*
X148939332Y-82242663D01*
X147463142Y-82242663D02*
X147939332Y-82242663D01*
X147939332Y-82242663D02*
X147939332Y-81242663D01*
X146605999Y-82242663D02*
X147177427Y-82242663D01*
X146891713Y-82242663D02*
X146891713Y-81242663D01*
X146891713Y-81242663D02*
X146986951Y-81385520D01*
X146986951Y-81385520D02*
X147082189Y-81480758D01*
X147082189Y-81480758D02*
X147177427Y-81528377D01*
X146177427Y-81861710D02*
X145415523Y-81861710D01*
X145034570Y-81242663D02*
X144415523Y-81242663D01*
X144415523Y-81242663D02*
X144748856Y-81623615D01*
X144748856Y-81623615D02*
X144605999Y-81623615D01*
X144605999Y-81623615D02*
X144510761Y-81671234D01*
X144510761Y-81671234D02*
X144463142Y-81718853D01*
X144463142Y-81718853D02*
X144415523Y-81814091D01*
X144415523Y-81814091D02*
X144415523Y-82052186D01*
X144415523Y-82052186D02*
X144463142Y-82147424D01*
X144463142Y-82147424D02*
X144510761Y-82195044D01*
X144510761Y-82195044D02*
X144605999Y-82242663D01*
X144605999Y-82242663D02*
X144891713Y-82242663D01*
X144891713Y-82242663D02*
X144986951Y-82195044D01*
X144986951Y-82195044D02*
X145034570Y-82147424D01*
X144082189Y-81242663D02*
X143463142Y-81242663D01*
X143463142Y-81242663D02*
X143796475Y-81623615D01*
X143796475Y-81623615D02*
X143653618Y-81623615D01*
X143653618Y-81623615D02*
X143558380Y-81671234D01*
X143558380Y-81671234D02*
X143510761Y-81718853D01*
X143510761Y-81718853D02*
X143463142Y-81814091D01*
X143463142Y-81814091D02*
X143463142Y-82052186D01*
X143463142Y-82052186D02*
X143510761Y-82147424D01*
X143510761Y-82147424D02*
X143558380Y-82195044D01*
X143558380Y-82195044D02*
X143653618Y-82242663D01*
X143653618Y-82242663D02*
X143939332Y-82242663D01*
X143939332Y-82242663D02*
X144034570Y-82195044D01*
X144034570Y-82195044D02*
X144082189Y-82147424D01*
X136729901Y-85920333D02*
X136682282Y-85967952D01*
X136682282Y-85967952D02*
X136634663Y-86063190D01*
X136634663Y-86063190D02*
X136634663Y-86301285D01*
X136634663Y-86301285D02*
X136682282Y-86396523D01*
X136682282Y-86396523D02*
X136729901Y-86444142D01*
X136729901Y-86444142D02*
X136825139Y-86491761D01*
X136825139Y-86491761D02*
X136920377Y-86491761D01*
X136920377Y-86491761D02*
X137063234Y-86444142D01*
X137063234Y-86444142D02*
X137634663Y-85872714D01*
X137634663Y-85872714D02*
X137634663Y-86491761D01*
X136634663Y-87110809D02*
X136634663Y-87206047D01*
X136634663Y-87206047D02*
X136682282Y-87301285D01*
X136682282Y-87301285D02*
X136729901Y-87348904D01*
X136729901Y-87348904D02*
X136825139Y-87396523D01*
X136825139Y-87396523D02*
X137015615Y-87444142D01*
X137015615Y-87444142D02*
X137253710Y-87444142D01*
X137253710Y-87444142D02*
X137444186Y-87396523D01*
X137444186Y-87396523D02*
X137539424Y-87348904D01*
X137539424Y-87348904D02*
X137587044Y-87301285D01*
X137587044Y-87301285D02*
X137634663Y-87206047D01*
X137634663Y-87206047D02*
X137634663Y-87110809D01*
X137634663Y-87110809D02*
X137587044Y-87015571D01*
X137587044Y-87015571D02*
X137539424Y-86967952D01*
X137539424Y-86967952D02*
X137444186Y-86920333D01*
X137444186Y-86920333D02*
X137253710Y-86872714D01*
X137253710Y-86872714D02*
X137015615Y-86872714D01*
X137015615Y-86872714D02*
X136825139Y-86920333D01*
X136825139Y-86920333D02*
X136729901Y-86967952D01*
X136729901Y-86967952D02*
X136682282Y-87015571D01*
X136682282Y-87015571D02*
X136634663Y-87110809D01*
X137634663Y-87872714D02*
X136634663Y-87872714D01*
X137253710Y-87967952D02*
X137634663Y-88253666D01*
X136967996Y-88253666D02*
X137348948Y-87872714D01*
X124277333Y-78178663D02*
X124848761Y-78178663D01*
X124563047Y-78178663D02*
X124563047Y-77178663D01*
X124563047Y-77178663D02*
X124658285Y-77321520D01*
X124658285Y-77321520D02*
X124753523Y-77416758D01*
X124753523Y-77416758D02*
X124848761Y-77464377D01*
X123848761Y-78083424D02*
X123801142Y-78131044D01*
X123801142Y-78131044D02*
X123848761Y-78178663D01*
X123848761Y-78178663D02*
X123896380Y-78131044D01*
X123896380Y-78131044D02*
X123848761Y-78083424D01*
X123848761Y-78083424D02*
X123848761Y-78178663D01*
X122896381Y-77178663D02*
X123372571Y-77178663D01*
X123372571Y-77178663D02*
X123420190Y-77654853D01*
X123420190Y-77654853D02*
X123372571Y-77607234D01*
X123372571Y-77607234D02*
X123277333Y-77559615D01*
X123277333Y-77559615D02*
X123039238Y-77559615D01*
X123039238Y-77559615D02*
X122944000Y-77607234D01*
X122944000Y-77607234D02*
X122896381Y-77654853D01*
X122896381Y-77654853D02*
X122848762Y-77750091D01*
X122848762Y-77750091D02*
X122848762Y-77988186D01*
X122848762Y-77988186D02*
X122896381Y-78083424D01*
X122896381Y-78083424D02*
X122944000Y-78131044D01*
X122944000Y-78131044D02*
X123039238Y-78178663D01*
X123039238Y-78178663D02*
X123277333Y-78178663D01*
X123277333Y-78178663D02*
X123372571Y-78131044D01*
X123372571Y-78131044D02*
X123420190Y-78083424D01*
X122420190Y-78178663D02*
X122420190Y-77178663D01*
X122324952Y-77797710D02*
X122039238Y-78178663D01*
X122039238Y-77511996D02*
X122420190Y-77892948D01*
X126974663Y-94424761D02*
X126974663Y-93853333D01*
X126974663Y-94139047D02*
X125974663Y-94139047D01*
X125974663Y-94139047D02*
X126117520Y-94043809D01*
X126117520Y-94043809D02*
X126212758Y-93948571D01*
X126212758Y-93948571D02*
X126260377Y-93853333D01*
X125974663Y-95043809D02*
X125974663Y-95139047D01*
X125974663Y-95139047D02*
X126022282Y-95234285D01*
X126022282Y-95234285D02*
X126069901Y-95281904D01*
X126069901Y-95281904D02*
X126165139Y-95329523D01*
X126165139Y-95329523D02*
X126355615Y-95377142D01*
X126355615Y-95377142D02*
X126593710Y-95377142D01*
X126593710Y-95377142D02*
X126784186Y-95329523D01*
X126784186Y-95329523D02*
X126879424Y-95281904D01*
X126879424Y-95281904D02*
X126927044Y-95234285D01*
X126927044Y-95234285D02*
X126974663Y-95139047D01*
X126974663Y-95139047D02*
X126974663Y-95043809D01*
X126974663Y-95043809D02*
X126927044Y-94948571D01*
X126927044Y-94948571D02*
X126879424Y-94900952D01*
X126879424Y-94900952D02*
X126784186Y-94853333D01*
X126784186Y-94853333D02*
X126593710Y-94805714D01*
X126593710Y-94805714D02*
X126355615Y-94805714D01*
X126355615Y-94805714D02*
X126165139Y-94853333D01*
X126165139Y-94853333D02*
X126069901Y-94900952D01*
X126069901Y-94900952D02*
X126022282Y-94948571D01*
X126022282Y-94948571D02*
X125974663Y-95043809D01*
X126974663Y-95805714D02*
X125974663Y-95805714D01*
X126593710Y-95900952D02*
X126974663Y-96186666D01*
X126307996Y-96186666D02*
X126688948Y-95805714D01*
X140406285Y-103086663D02*
X140311047Y-103086663D01*
X140311047Y-103086663D02*
X140215809Y-103134282D01*
X140215809Y-103134282D02*
X140168190Y-103181901D01*
X140168190Y-103181901D02*
X140120571Y-103277139D01*
X140120571Y-103277139D02*
X140072952Y-103467615D01*
X140072952Y-103467615D02*
X140072952Y-103705710D01*
X140072952Y-103705710D02*
X140120571Y-103896186D01*
X140120571Y-103896186D02*
X140168190Y-103991424D01*
X140168190Y-103991424D02*
X140215809Y-104039044D01*
X140215809Y-104039044D02*
X140311047Y-104086663D01*
X140311047Y-104086663D02*
X140406285Y-104086663D01*
X140406285Y-104086663D02*
X140501523Y-104039044D01*
X140501523Y-104039044D02*
X140549142Y-103991424D01*
X140549142Y-103991424D02*
X140596761Y-103896186D01*
X140596761Y-103896186D02*
X140644380Y-103705710D01*
X140644380Y-103705710D02*
X140644380Y-103467615D01*
X140644380Y-103467615D02*
X140596761Y-103277139D01*
X140596761Y-103277139D02*
X140549142Y-103181901D01*
X140549142Y-103181901D02*
X140501523Y-103134282D01*
X140501523Y-103134282D02*
X140406285Y-103086663D01*
X139644380Y-103991424D02*
X139596761Y-104039044D01*
X139596761Y-104039044D02*
X139644380Y-104086663D01*
X139644380Y-104086663D02*
X139691999Y-104039044D01*
X139691999Y-104039044D02*
X139644380Y-103991424D01*
X139644380Y-103991424D02*
X139644380Y-104086663D01*
X138644381Y-104086663D02*
X139215809Y-104086663D01*
X138930095Y-104086663D02*
X138930095Y-103086663D01*
X138930095Y-103086663D02*
X139025333Y-103229520D01*
X139025333Y-103229520D02*
X139120571Y-103324758D01*
X139120571Y-103324758D02*
X139215809Y-103372377D01*
X137787238Y-103419996D02*
X137787238Y-104086663D01*
X138215809Y-103419996D02*
X138215809Y-103943805D01*
X138215809Y-103943805D02*
X138168190Y-104039044D01*
X138168190Y-104039044D02*
X138072952Y-104086663D01*
X138072952Y-104086663D02*
X137930095Y-104086663D01*
X137930095Y-104086663D02*
X137834857Y-104039044D01*
X137834857Y-104039044D02*
X137787238Y-103991424D01*
D12*
X148776880Y-110162350D02*
X148783875Y-110168224D01*
X148823594Y-110223417D01*
X148836098Y-110283134D01*
X148816623Y-110327574D01*
X148811092Y-110331562D01*
X148759665Y-110356297D01*
X148689050Y-110379912D01*
X148646797Y-110390212D01*
X148605269Y-110392173D01*
X148593800Y-110373643D01*
X148602669Y-110320479D01*
X148625658Y-110250130D01*
X148654401Y-110186106D01*
X148680510Y-110150039D01*
X148697903Y-110139342D01*
X148732558Y-110134424D01*
X148776880Y-110162350D01*
G36*
X148776880Y-110162350D02*
G01*
X148783875Y-110168224D01*
X148823594Y-110223417D01*
X148836098Y-110283134D01*
X148816623Y-110327574D01*
X148811092Y-110331562D01*
X148759665Y-110356297D01*
X148689050Y-110379912D01*
X148646797Y-110390212D01*
X148605269Y-110392173D01*
X148593800Y-110373643D01*
X148602669Y-110320479D01*
X148625658Y-110250130D01*
X148654401Y-110186106D01*
X148680510Y-110150039D01*
X148697903Y-110139342D01*
X148732558Y-110134424D01*
X148776880Y-110162350D01*
G37*
X146053800Y-109914700D02*
X146041100Y-109927400D01*
X146028400Y-109914700D01*
X146041100Y-109902000D01*
X146053800Y-109914700D01*
G36*
X146053800Y-109914700D02*
G01*
X146041100Y-109927400D01*
X146028400Y-109914700D01*
X146041100Y-109902000D01*
X146053800Y-109914700D01*
G37*
X142816970Y-109868205D02*
X142954402Y-109941786D01*
X142988720Y-109963228D01*
X143077510Y-110022855D01*
X143121299Y-110060722D01*
X143119891Y-110076616D01*
X143073088Y-110070321D01*
X143026899Y-110065059D01*
X143005800Y-110079317D01*
X142999483Y-110089080D01*
X142955949Y-110101160D01*
X142881850Y-110104484D01*
X142789972Y-110099472D01*
X142693097Y-110086542D01*
X142604010Y-110066116D01*
X142603725Y-110066032D01*
X142513829Y-110029339D01*
X142473989Y-109986583D01*
X142483648Y-109936049D01*
X142542250Y-109876026D01*
X142612447Y-109839300D01*
X142704770Y-109834328D01*
X142816970Y-109868205D01*
G36*
X142816970Y-109868205D02*
G01*
X142954402Y-109941786D01*
X142988720Y-109963228D01*
X143077510Y-110022855D01*
X143121299Y-110060722D01*
X143119891Y-110076616D01*
X143073088Y-110070321D01*
X143026899Y-110065059D01*
X143005800Y-110079317D01*
X142999483Y-110089080D01*
X142955949Y-110101160D01*
X142881850Y-110104484D01*
X142789972Y-110099472D01*
X142693097Y-110086542D01*
X142604010Y-110066116D01*
X142603725Y-110066032D01*
X142513829Y-110029339D01*
X142473989Y-109986583D01*
X142483648Y-109936049D01*
X142542250Y-109876026D01*
X142612447Y-109839300D01*
X142704770Y-109834328D01*
X142816970Y-109868205D01*
G37*
X149954167Y-109395143D02*
X149978100Y-109419400D01*
X149982831Y-109428393D01*
X149981098Y-109444800D01*
X149976632Y-109443658D01*
X149952700Y-109419400D01*
X149947968Y-109410408D01*
X149949701Y-109394000D01*
X149954167Y-109395143D01*
G36*
X149954167Y-109395143D02*
G01*
X149978100Y-109419400D01*
X149982831Y-109428393D01*
X149981098Y-109444800D01*
X149976632Y-109443658D01*
X149952700Y-109419400D01*
X149947968Y-109410408D01*
X149949701Y-109394000D01*
X149954167Y-109395143D01*
G37*
X147112588Y-109400382D02*
X147182026Y-109427625D01*
X147233039Y-109488311D01*
X147268810Y-109587964D01*
X147292523Y-109732110D01*
X147293270Y-109738843D01*
X147302722Y-109838578D01*
X147303387Y-109899808D01*
X147294368Y-109933616D01*
X147274765Y-109951089D01*
X147269372Y-109953644D01*
X147205537Y-109967248D01*
X147128050Y-109965915D01*
X147058135Y-109951665D01*
X147017015Y-109926524D01*
X147008438Y-109915208D01*
X146991038Y-109908146D01*
X146966289Y-109925107D01*
X146927155Y-109972110D01*
X146866600Y-110055175D01*
X146815439Y-110095880D01*
X146714200Y-110122028D01*
X146599900Y-110135518D01*
X146670740Y-110075909D01*
X146704274Y-110041984D01*
X146734097Y-109990839D01*
X146758789Y-109915078D01*
X146777098Y-109831726D01*
X146958641Y-109831726D01*
X146964807Y-109851200D01*
X146977355Y-109846929D01*
X147015532Y-109816622D01*
X147052938Y-109774494D01*
X147069800Y-109741250D01*
X147065299Y-109726392D01*
X147039039Y-109723466D01*
X147002928Y-109746434D01*
X146972821Y-109787700D01*
X146958641Y-109831726D01*
X146777098Y-109831726D01*
X146783680Y-109801761D01*
X146789938Y-109770403D01*
X146813342Y-109669561D01*
X146838778Y-109599522D01*
X146873282Y-109544602D01*
X146923887Y-109489113D01*
X146989125Y-109430525D01*
X147043581Y-109402201D01*
X147100536Y-109398853D01*
X147112588Y-109400382D01*
G36*
X147112588Y-109400382D02*
G01*
X147182026Y-109427625D01*
X147233039Y-109488311D01*
X147268810Y-109587964D01*
X147292523Y-109732110D01*
X147293270Y-109738843D01*
X147302722Y-109838578D01*
X147303387Y-109899808D01*
X147294368Y-109933616D01*
X147274765Y-109951089D01*
X147269372Y-109953644D01*
X147205537Y-109967248D01*
X147128050Y-109965915D01*
X147058135Y-109951665D01*
X147017015Y-109926524D01*
X147008438Y-109915208D01*
X146991038Y-109908146D01*
X146966289Y-109925107D01*
X146927155Y-109972110D01*
X146866600Y-110055175D01*
X146815439Y-110095880D01*
X146714200Y-110122028D01*
X146599900Y-110135518D01*
X146670740Y-110075909D01*
X146704274Y-110041984D01*
X146734097Y-109990839D01*
X146758789Y-109915078D01*
X146777098Y-109831726D01*
X146958641Y-109831726D01*
X146964807Y-109851200D01*
X146977355Y-109846929D01*
X147015532Y-109816622D01*
X147052938Y-109774494D01*
X147069800Y-109741250D01*
X147065299Y-109726392D01*
X147039039Y-109723466D01*
X147002928Y-109746434D01*
X146972821Y-109787700D01*
X146958641Y-109831726D01*
X146777098Y-109831726D01*
X146783680Y-109801761D01*
X146789938Y-109770403D01*
X146813342Y-109669561D01*
X146838778Y-109599522D01*
X146873282Y-109544602D01*
X146923887Y-109489113D01*
X146989125Y-109430525D01*
X147043581Y-109402201D01*
X147100536Y-109398853D01*
X147112588Y-109400382D01*
G37*
X145114000Y-109371318D02*
X145119329Y-109383638D01*
X145151712Y-109384964D01*
X145181691Y-109386646D01*
X145219246Y-109426214D01*
X145253337Y-109474136D01*
X145308533Y-109528711D01*
X145314090Y-109533470D01*
X145349372Y-109586981D01*
X145368461Y-109655811D01*
X145368211Y-109720233D01*
X145345479Y-109760521D01*
X145343388Y-109762122D01*
X145323643Y-109798854D01*
X145306707Y-109861068D01*
X145299928Y-109891986D01*
X145270692Y-109956963D01*
X145216863Y-109994978D01*
X145125439Y-110017232D01*
X145059826Y-110023153D01*
X145010332Y-110007892D01*
X144960338Y-109961196D01*
X144936845Y-109930677D01*
X144889243Y-109848509D01*
X144884417Y-109837210D01*
X144964371Y-109837210D01*
X144985233Y-109851200D01*
X145001662Y-109863560D01*
X145016983Y-109908091D01*
X145030738Y-109943378D01*
X145075900Y-109974056D01*
X145084148Y-109975446D01*
X145110942Y-109974037D01*
X145094950Y-109950186D01*
X145083428Y-109937101D01*
X145065797Y-109893714D01*
X145084721Y-109844627D01*
X145143276Y-109778938D01*
X145191435Y-109726769D01*
X145205635Y-109692061D01*
X145190966Y-109661624D01*
X145158372Y-109637846D01*
X145096893Y-109622600D01*
X145080165Y-109623714D01*
X145034861Y-109647475D01*
X144998403Y-109710685D01*
X144968975Y-109791365D01*
X144964371Y-109837210D01*
X144884417Y-109837210D01*
X144850503Y-109757803D01*
X144840702Y-109727963D01*
X144822914Y-109645981D01*
X144831305Y-109578677D01*
X144870277Y-109510464D01*
X144944230Y-109425750D01*
X144997242Y-109379317D01*
X145054498Y-109348327D01*
X145097222Y-109344441D01*
X145114000Y-109371318D01*
G36*
X145114000Y-109371318D02*
G01*
X145119329Y-109383638D01*
X145151712Y-109384964D01*
X145181691Y-109386646D01*
X145219246Y-109426214D01*
X145253337Y-109474136D01*
X145308533Y-109528711D01*
X145314090Y-109533470D01*
X145349372Y-109586981D01*
X145368461Y-109655811D01*
X145368211Y-109720233D01*
X145345479Y-109760521D01*
X145343388Y-109762122D01*
X145323643Y-109798854D01*
X145306707Y-109861068D01*
X145299928Y-109891986D01*
X145270692Y-109956963D01*
X145216863Y-109994978D01*
X145125439Y-110017232D01*
X145059826Y-110023153D01*
X145010332Y-110007892D01*
X144960338Y-109961196D01*
X144936845Y-109930677D01*
X144889243Y-109848509D01*
X144884417Y-109837210D01*
X144964371Y-109837210D01*
X144985233Y-109851200D01*
X145001662Y-109863560D01*
X145016983Y-109908091D01*
X145030738Y-109943378D01*
X145075900Y-109974056D01*
X145084148Y-109975446D01*
X145110942Y-109974037D01*
X145094950Y-109950186D01*
X145083428Y-109937101D01*
X145065797Y-109893714D01*
X145084721Y-109844627D01*
X145143276Y-109778938D01*
X145191435Y-109726769D01*
X145205635Y-109692061D01*
X145190966Y-109661624D01*
X145158372Y-109637846D01*
X145096893Y-109622600D01*
X145080165Y-109623714D01*
X145034861Y-109647475D01*
X144998403Y-109710685D01*
X144968975Y-109791365D01*
X144964371Y-109837210D01*
X144884417Y-109837210D01*
X144850503Y-109757803D01*
X144840702Y-109727963D01*
X144822914Y-109645981D01*
X144831305Y-109578677D01*
X144870277Y-109510464D01*
X144944230Y-109425750D01*
X144997242Y-109379317D01*
X145054498Y-109348327D01*
X145097222Y-109344441D01*
X145114000Y-109371318D01*
G37*
X151904446Y-109326928D02*
X151949505Y-109346845D01*
X151954824Y-109383803D01*
X151951755Y-109401136D01*
X151969282Y-109419400D01*
X151981870Y-109423343D01*
X151997400Y-109456425D01*
X151982959Y-109477957D01*
X151921276Y-109510465D01*
X151813250Y-109546697D01*
X151729515Y-109571063D01*
X151618399Y-109604607D01*
X151538964Y-109631343D01*
X151480282Y-109655473D01*
X151431420Y-109681199D01*
X151381450Y-109712725D01*
X151350136Y-109732737D01*
X151305015Y-109754796D01*
X151290902Y-109744485D01*
X151306797Y-109698466D01*
X151351701Y-109613404D01*
X151422139Y-109511304D01*
X151530227Y-109419762D01*
X151673272Y-109356879D01*
X151728693Y-109341425D01*
X151828044Y-109324853D01*
X151904446Y-109326928D01*
G36*
X151904446Y-109326928D02*
G01*
X151949505Y-109346845D01*
X151954824Y-109383803D01*
X151951755Y-109401136D01*
X151969282Y-109419400D01*
X151981870Y-109423343D01*
X151997400Y-109456425D01*
X151982959Y-109477957D01*
X151921276Y-109510465D01*
X151813250Y-109546697D01*
X151729515Y-109571063D01*
X151618399Y-109604607D01*
X151538964Y-109631343D01*
X151480282Y-109655473D01*
X151431420Y-109681199D01*
X151381450Y-109712725D01*
X151350136Y-109732737D01*
X151305015Y-109754796D01*
X151290902Y-109744485D01*
X151306797Y-109698466D01*
X151351701Y-109613404D01*
X151422139Y-109511304D01*
X151530227Y-109419762D01*
X151673272Y-109356879D01*
X151728693Y-109341425D01*
X151828044Y-109324853D01*
X151904446Y-109326928D01*
G37*
X148037833Y-109341650D02*
X148050840Y-109384892D01*
X148045939Y-109409647D01*
X148009528Y-109437460D01*
X147986659Y-109445993D01*
X147952920Y-109481842D01*
X147941246Y-109547997D01*
X147949188Y-109653211D01*
X147961746Y-109722710D01*
X147984867Y-109774394D01*
X148022848Y-109800609D01*
X148023452Y-109800842D01*
X148077970Y-109837271D01*
X148129223Y-109893887D01*
X148154426Y-109935348D01*
X148165245Y-109986765D01*
X148149230Y-110054400D01*
X148121477Y-110136222D01*
X148083719Y-110233157D01*
X148051107Y-110288172D01*
X148018673Y-110305698D01*
X147981445Y-110290171D01*
X147934455Y-110246024D01*
X147930105Y-110241485D01*
X147883007Y-110202148D01*
X147848643Y-110188874D01*
X147838872Y-110185576D01*
X147811382Y-110149630D01*
X147782948Y-110086150D01*
X147782049Y-110083636D01*
X147752938Y-110016446D01*
X147721220Y-109985608D01*
X147673833Y-109978200D01*
X147633831Y-109973840D01*
X147606723Y-109948994D01*
X147621887Y-109900336D01*
X147679400Y-109825800D01*
X147737329Y-109740499D01*
X147755600Y-109651347D01*
X147757410Y-109623356D01*
X147791026Y-109518900D01*
X147857801Y-109424078D01*
X147945544Y-109357734D01*
X147949953Y-109355600D01*
X148008436Y-109332978D01*
X148037833Y-109341650D01*
G36*
X148037833Y-109341650D02*
G01*
X148050840Y-109384892D01*
X148045939Y-109409647D01*
X148009528Y-109437460D01*
X147986659Y-109445993D01*
X147952920Y-109481842D01*
X147941246Y-109547997D01*
X147949188Y-109653211D01*
X147961746Y-109722710D01*
X147984867Y-109774394D01*
X148022848Y-109800609D01*
X148023452Y-109800842D01*
X148077970Y-109837271D01*
X148129223Y-109893887D01*
X148154426Y-109935348D01*
X148165245Y-109986765D01*
X148149230Y-110054400D01*
X148121477Y-110136222D01*
X148083719Y-110233157D01*
X148051107Y-110288172D01*
X148018673Y-110305698D01*
X147981445Y-110290171D01*
X147934455Y-110246024D01*
X147930105Y-110241485D01*
X147883007Y-110202148D01*
X147848643Y-110188874D01*
X147838872Y-110185576D01*
X147811382Y-110149630D01*
X147782948Y-110086150D01*
X147782049Y-110083636D01*
X147752938Y-110016446D01*
X147721220Y-109985608D01*
X147673833Y-109978200D01*
X147633831Y-109973840D01*
X147606723Y-109948994D01*
X147621887Y-109900336D01*
X147679400Y-109825800D01*
X147737329Y-109740499D01*
X147755600Y-109651347D01*
X147757410Y-109623356D01*
X147791026Y-109518900D01*
X147857801Y-109424078D01*
X147945544Y-109357734D01*
X147949953Y-109355600D01*
X148008436Y-109332978D01*
X148037833Y-109341650D01*
G37*
X148902367Y-109294417D02*
X148918763Y-109303670D01*
X148938285Y-109325692D01*
X148915425Y-109351567D01*
X148907606Y-109360483D01*
X148881187Y-109412775D01*
X148850512Y-109496141D01*
X148820739Y-109597200D01*
X148814007Y-109622247D01*
X148778784Y-109738961D01*
X148740612Y-109847582D01*
X148706648Y-109927400D01*
X148649073Y-110041700D01*
X148640486Y-109788290D01*
X148639174Y-109737798D01*
X148642789Y-109578306D01*
X148661058Y-109458889D01*
X148695606Y-109372340D01*
X148748059Y-109311450D01*
X148793382Y-109279411D01*
X148841826Y-109270109D01*
X148902367Y-109294417D01*
G36*
X148902367Y-109294417D02*
G01*
X148918763Y-109303670D01*
X148938285Y-109325692D01*
X148915425Y-109351567D01*
X148907606Y-109360483D01*
X148881187Y-109412775D01*
X148850512Y-109496141D01*
X148820739Y-109597200D01*
X148814007Y-109622247D01*
X148778784Y-109738961D01*
X148740612Y-109847582D01*
X148706648Y-109927400D01*
X148649073Y-110041700D01*
X148640486Y-109788290D01*
X148639174Y-109737798D01*
X148642789Y-109578306D01*
X148661058Y-109458889D01*
X148695606Y-109372340D01*
X148748059Y-109311450D01*
X148793382Y-109279411D01*
X148841826Y-109270109D01*
X148902367Y-109294417D01*
G37*
X144398474Y-109285391D02*
X144459617Y-109293022D01*
X144526415Y-109307920D01*
X144558986Y-109324345D01*
X144571654Y-109335147D01*
X144613750Y-109335915D01*
X144643912Y-109335690D01*
X144688080Y-109363963D01*
X144709030Y-109397886D01*
X144725039Y-109453758D01*
X144722939Y-109501058D01*
X144701166Y-109521000D01*
X144694820Y-109531076D01*
X144721795Y-109559164D01*
X144723865Y-109560768D01*
X144751086Y-109584712D01*
X144740585Y-109590974D01*
X144686244Y-109583795D01*
X144680292Y-109582842D01*
X144619071Y-109572543D01*
X144584644Y-109565889D01*
X144578841Y-109565420D01*
X144534383Y-109569916D01*
X144466703Y-109581624D01*
X144456679Y-109583788D01*
X144387325Y-109610279D01*
X144314356Y-109661938D01*
X144225403Y-109747256D01*
X144214611Y-109758391D01*
X144139002Y-109832758D01*
X144070478Y-109894651D01*
X144022713Y-109931632D01*
X143960126Y-109970484D01*
X144007821Y-110110802D01*
X144027472Y-110172408D01*
X144041610Y-110243256D01*
X144039484Y-110313402D01*
X144022302Y-110407634D01*
X144002035Y-110480763D01*
X143943903Y-110589782D01*
X143862939Y-110655396D01*
X143761883Y-110675855D01*
X143643478Y-110649409D01*
X143629358Y-110644069D01*
X143543779Y-110623093D01*
X143475300Y-110623731D01*
X143467295Y-110625532D01*
X143432870Y-110625616D01*
X143406637Y-110607001D01*
X143387540Y-110564344D01*
X143374526Y-110492299D01*
X143366540Y-110385523D01*
X143362529Y-110238671D01*
X143362358Y-110208665D01*
X143560686Y-110208665D01*
X143563453Y-110283773D01*
X143572678Y-110326323D01*
X143583315Y-110335904D01*
X143633081Y-110360466D01*
X143705319Y-110384886D01*
X143713392Y-110387129D01*
X143785268Y-110403490D01*
X143828050Y-110401512D01*
X143858751Y-110380735D01*
X143875678Y-110352745D01*
X143882102Y-110283771D01*
X143862054Y-110205888D01*
X143818775Y-110138710D01*
X143803865Y-110123728D01*
X143748335Y-110070082D01*
X143683945Y-110009818D01*
X143594094Y-109927135D01*
X143579270Y-109997118D01*
X143573104Y-110031912D01*
X143564022Y-110118784D01*
X143560686Y-110208665D01*
X143362358Y-110208665D01*
X143361439Y-110046397D01*
X143362110Y-109879397D01*
X143364599Y-109749553D01*
X143369562Y-109654411D01*
X143377659Y-109585812D01*
X143389549Y-109535595D01*
X143405889Y-109495600D01*
X143452091Y-109429841D01*
X143507450Y-109398584D01*
X143510816Y-109398123D01*
X143546045Y-109399904D01*
X143561298Y-109426458D01*
X143564600Y-109490724D01*
X143565111Y-109508329D01*
X143576820Y-109577222D01*
X143599146Y-109619652D01*
X143618220Y-109650806D01*
X143621585Y-109711662D01*
X143617598Y-109746032D01*
X143633349Y-109769910D01*
X143686358Y-109775000D01*
X143737881Y-109763827D01*
X143822614Y-109720957D01*
X143915495Y-109654845D01*
X144003522Y-109575024D01*
X144073691Y-109491027D01*
X144078005Y-109484800D01*
X144135465Y-109408186D01*
X144136714Y-109406700D01*
X144656800Y-109406700D01*
X144669500Y-109419400D01*
X144682200Y-109406700D01*
X144669500Y-109394000D01*
X144656800Y-109406700D01*
X144136714Y-109406700D01*
X144193011Y-109339697D01*
X144220958Y-109311506D01*
X144260287Y-109287480D01*
X144313373Y-109280384D01*
X144398474Y-109285391D01*
G36*
X144398474Y-109285391D02*
G01*
X144459617Y-109293022D01*
X144526415Y-109307920D01*
X144558986Y-109324345D01*
X144571654Y-109335147D01*
X144613750Y-109335915D01*
X144643912Y-109335690D01*
X144688080Y-109363963D01*
X144709030Y-109397886D01*
X144725039Y-109453758D01*
X144722939Y-109501058D01*
X144701166Y-109521000D01*
X144694820Y-109531076D01*
X144721795Y-109559164D01*
X144723865Y-109560768D01*
X144751086Y-109584712D01*
X144740585Y-109590974D01*
X144686244Y-109583795D01*
X144680292Y-109582842D01*
X144619071Y-109572543D01*
X144584644Y-109565889D01*
X144578841Y-109565420D01*
X144534383Y-109569916D01*
X144466703Y-109581624D01*
X144456679Y-109583788D01*
X144387325Y-109610279D01*
X144314356Y-109661938D01*
X144225403Y-109747256D01*
X144214611Y-109758391D01*
X144139002Y-109832758D01*
X144070478Y-109894651D01*
X144022713Y-109931632D01*
X143960126Y-109970484D01*
X144007821Y-110110802D01*
X144027472Y-110172408D01*
X144041610Y-110243256D01*
X144039484Y-110313402D01*
X144022302Y-110407634D01*
X144002035Y-110480763D01*
X143943903Y-110589782D01*
X143862939Y-110655396D01*
X143761883Y-110675855D01*
X143643478Y-110649409D01*
X143629358Y-110644069D01*
X143543779Y-110623093D01*
X143475300Y-110623731D01*
X143467295Y-110625532D01*
X143432870Y-110625616D01*
X143406637Y-110607001D01*
X143387540Y-110564344D01*
X143374526Y-110492299D01*
X143366540Y-110385523D01*
X143362529Y-110238671D01*
X143362358Y-110208665D01*
X143560686Y-110208665D01*
X143563453Y-110283773D01*
X143572678Y-110326323D01*
X143583315Y-110335904D01*
X143633081Y-110360466D01*
X143705319Y-110384886D01*
X143713392Y-110387129D01*
X143785268Y-110403490D01*
X143828050Y-110401512D01*
X143858751Y-110380735D01*
X143875678Y-110352745D01*
X143882102Y-110283771D01*
X143862054Y-110205888D01*
X143818775Y-110138710D01*
X143803865Y-110123728D01*
X143748335Y-110070082D01*
X143683945Y-110009818D01*
X143594094Y-109927135D01*
X143579270Y-109997118D01*
X143573104Y-110031912D01*
X143564022Y-110118784D01*
X143560686Y-110208665D01*
X143362358Y-110208665D01*
X143361439Y-110046397D01*
X143362110Y-109879397D01*
X143364599Y-109749553D01*
X143369562Y-109654411D01*
X143377659Y-109585812D01*
X143389549Y-109535595D01*
X143405889Y-109495600D01*
X143452091Y-109429841D01*
X143507450Y-109398584D01*
X143510816Y-109398123D01*
X143546045Y-109399904D01*
X143561298Y-109426458D01*
X143564600Y-109490724D01*
X143565111Y-109508329D01*
X143576820Y-109577222D01*
X143599146Y-109619652D01*
X143618220Y-109650806D01*
X143621585Y-109711662D01*
X143617598Y-109746032D01*
X143633349Y-109769910D01*
X143686358Y-109775000D01*
X143737881Y-109763827D01*
X143822614Y-109720957D01*
X143915495Y-109654845D01*
X144003522Y-109575024D01*
X144073691Y-109491027D01*
X144078005Y-109484800D01*
X144135465Y-109408186D01*
X144136714Y-109406700D01*
X144656800Y-109406700D01*
X144669500Y-109419400D01*
X144682200Y-109406700D01*
X144669500Y-109394000D01*
X144656800Y-109406700D01*
X144136714Y-109406700D01*
X144193011Y-109339697D01*
X144220958Y-109311506D01*
X144260287Y-109287480D01*
X144313373Y-109280384D01*
X144398474Y-109285391D01*
G37*
X149630563Y-109150989D02*
X149687669Y-109166294D01*
X149705035Y-109177131D01*
X149732852Y-109207267D01*
X149731614Y-109228036D01*
X149698700Y-109225386D01*
X149679316Y-109221050D01*
X149660600Y-109232921D01*
X149670493Y-109244985D01*
X149716586Y-109271148D01*
X149787600Y-109300183D01*
X149836534Y-109319454D01*
X149892720Y-109348249D01*
X149914600Y-109369645D01*
X149914705Y-109379726D01*
X149910924Y-109389954D01*
X149892625Y-109388606D01*
X149848759Y-109373683D01*
X149768277Y-109343188D01*
X149656791Y-109308727D01*
X149515099Y-109293235D01*
X149398799Y-109317440D01*
X149310951Y-109380518D01*
X149254614Y-109481644D01*
X149247573Y-109508500D01*
X149244794Y-109621281D01*
X149274688Y-109743265D01*
X149333185Y-109855112D01*
X149361584Y-109884815D01*
X149427893Y-109923870D01*
X149503212Y-109946144D01*
X149570677Y-109947503D01*
X149613425Y-109923814D01*
X149618549Y-109916643D01*
X149641735Y-109906701D01*
X149673782Y-109938605D01*
X149703659Y-109988976D01*
X149702733Y-110042884D01*
X149654250Y-110090056D01*
X149628824Y-110101838D01*
X149572872Y-110112591D01*
X149516676Y-110111684D01*
X149477005Y-110100130D01*
X149470629Y-110078944D01*
X149471828Y-110058153D01*
X149446199Y-110021907D01*
X149404194Y-109993588D01*
X149364411Y-109988955D01*
X149333673Y-109982803D01*
X149302418Y-109933312D01*
X149275897Y-109877839D01*
X149237440Y-109821315D01*
X149218001Y-109795580D01*
X149179818Y-109698431D01*
X149169482Y-109580163D01*
X149189277Y-109458004D01*
X149191413Y-109451050D01*
X149231222Y-109350157D01*
X149281682Y-109258663D01*
X149304450Y-109228900D01*
X149609800Y-109228900D01*
X149622500Y-109241600D01*
X149635200Y-109228900D01*
X149622500Y-109216200D01*
X149609800Y-109228900D01*
X149304450Y-109228900D01*
X149334454Y-109189676D01*
X149381200Y-109156306D01*
X149454774Y-109145336D01*
X149545496Y-109143761D01*
X149630563Y-109150989D01*
G36*
X149630563Y-109150989D02*
G01*
X149687669Y-109166294D01*
X149705035Y-109177131D01*
X149732852Y-109207267D01*
X149731614Y-109228036D01*
X149698700Y-109225386D01*
X149679316Y-109221050D01*
X149660600Y-109232921D01*
X149670493Y-109244985D01*
X149716586Y-109271148D01*
X149787600Y-109300183D01*
X149836534Y-109319454D01*
X149892720Y-109348249D01*
X149914600Y-109369645D01*
X149914705Y-109379726D01*
X149910924Y-109389954D01*
X149892625Y-109388606D01*
X149848759Y-109373683D01*
X149768277Y-109343188D01*
X149656791Y-109308727D01*
X149515099Y-109293235D01*
X149398799Y-109317440D01*
X149310951Y-109380518D01*
X149254614Y-109481644D01*
X149247573Y-109508500D01*
X149244794Y-109621281D01*
X149274688Y-109743265D01*
X149333185Y-109855112D01*
X149361584Y-109884815D01*
X149427893Y-109923870D01*
X149503212Y-109946144D01*
X149570677Y-109947503D01*
X149613425Y-109923814D01*
X149618549Y-109916643D01*
X149641735Y-109906701D01*
X149673782Y-109938605D01*
X149703659Y-109988976D01*
X149702733Y-110042884D01*
X149654250Y-110090056D01*
X149628824Y-110101838D01*
X149572872Y-110112591D01*
X149516676Y-110111684D01*
X149477005Y-110100130D01*
X149470629Y-110078944D01*
X149471828Y-110058153D01*
X149446199Y-110021907D01*
X149404194Y-109993588D01*
X149364411Y-109988955D01*
X149333673Y-109982803D01*
X149302418Y-109933312D01*
X149275897Y-109877839D01*
X149237440Y-109821315D01*
X149218001Y-109795580D01*
X149179818Y-109698431D01*
X149169482Y-109580163D01*
X149189277Y-109458004D01*
X149191413Y-109451050D01*
X149231222Y-109350157D01*
X149281682Y-109258663D01*
X149304450Y-109228900D01*
X149609800Y-109228900D01*
X149622500Y-109241600D01*
X149635200Y-109228900D01*
X149622500Y-109216200D01*
X149609800Y-109228900D01*
X149304450Y-109228900D01*
X149334454Y-109189676D01*
X149381200Y-109156306D01*
X149454774Y-109145336D01*
X149545496Y-109143761D01*
X149630563Y-109150989D01*
G37*
X150646897Y-108923066D02*
X150769618Y-108975971D01*
X150810483Y-109000757D01*
X150856763Y-109038315D01*
X150875789Y-109081113D01*
X150879242Y-109147421D01*
X150862877Y-109263073D01*
X150807578Y-109404612D01*
X150720276Y-109535407D01*
X150711969Y-109545615D01*
X150665425Y-109616447D01*
X150637438Y-109681287D01*
X150620378Y-109749260D01*
X150728924Y-109710963D01*
X150821974Y-109686988D01*
X150891505Y-109689011D01*
X150924388Y-109716684D01*
X150916634Y-109766367D01*
X150864253Y-109834420D01*
X150863445Y-109835224D01*
X150765081Y-109900303D01*
X150653299Y-109920163D01*
X150540297Y-109892615D01*
X150493305Y-109868601D01*
X150432985Y-109823247D01*
X150411427Y-109771827D01*
X150421437Y-109702854D01*
X150432241Y-109671708D01*
X150465604Y-109596466D01*
X150509688Y-109510320D01*
X150556603Y-109427579D01*
X150598457Y-109362549D01*
X150627357Y-109329538D01*
X150649042Y-109293300D01*
X150644290Y-109238588D01*
X150613429Y-109191074D01*
X150600019Y-109181941D01*
X150532676Y-109172955D01*
X150446600Y-109207198D01*
X150345759Y-109283301D01*
X150304074Y-109318523D01*
X150261356Y-109347251D01*
X150244800Y-109347351D01*
X150248322Y-109320705D01*
X150271262Y-109262018D01*
X150305321Y-109211975D01*
X150338405Y-109190800D01*
X150339176Y-109190789D01*
X150373265Y-109169595D01*
X150399548Y-109122555D01*
X150409862Y-109071357D01*
X150396043Y-109037686D01*
X150394656Y-109036757D01*
X150393269Y-109009613D01*
X150436584Y-108965728D01*
X150443847Y-108960198D01*
X150539110Y-108917832D01*
X150646897Y-108923066D01*
G36*
X150646897Y-108923066D02*
G01*
X150769618Y-108975971D01*
X150810483Y-109000757D01*
X150856763Y-109038315D01*
X150875789Y-109081113D01*
X150879242Y-109147421D01*
X150862877Y-109263073D01*
X150807578Y-109404612D01*
X150720276Y-109535407D01*
X150711969Y-109545615D01*
X150665425Y-109616447D01*
X150637438Y-109681287D01*
X150620378Y-109749260D01*
X150728924Y-109710963D01*
X150821974Y-109686988D01*
X150891505Y-109689011D01*
X150924388Y-109716684D01*
X150916634Y-109766367D01*
X150864253Y-109834420D01*
X150863445Y-109835224D01*
X150765081Y-109900303D01*
X150653299Y-109920163D01*
X150540297Y-109892615D01*
X150493305Y-109868601D01*
X150432985Y-109823247D01*
X150411427Y-109771827D01*
X150421437Y-109702854D01*
X150432241Y-109671708D01*
X150465604Y-109596466D01*
X150509688Y-109510320D01*
X150556603Y-109427579D01*
X150598457Y-109362549D01*
X150627357Y-109329538D01*
X150649042Y-109293300D01*
X150644290Y-109238588D01*
X150613429Y-109191074D01*
X150600019Y-109181941D01*
X150532676Y-109172955D01*
X150446600Y-109207198D01*
X150345759Y-109283301D01*
X150304074Y-109318523D01*
X150261356Y-109347251D01*
X150244800Y-109347351D01*
X150248322Y-109320705D01*
X150271262Y-109262018D01*
X150305321Y-109211975D01*
X150338405Y-109190800D01*
X150339176Y-109190789D01*
X150373265Y-109169595D01*
X150399548Y-109122555D01*
X150409862Y-109071357D01*
X150396043Y-109037686D01*
X150394656Y-109036757D01*
X150393269Y-109009613D01*
X150436584Y-108965728D01*
X150443847Y-108960198D01*
X150539110Y-108917832D01*
X150646897Y-108923066D01*
G37*
X146346970Y-108379732D02*
X146357303Y-108389994D01*
X146397754Y-108393811D01*
X146398989Y-108393375D01*
X146431041Y-108407640D01*
X146460654Y-108468279D01*
X146465061Y-108480892D01*
X146490456Y-108534178D01*
X146512969Y-108555800D01*
X146524742Y-108559453D01*
X146535510Y-108595374D01*
X146522302Y-108662379D01*
X146486341Y-108751467D01*
X146478130Y-108769365D01*
X146442529Y-108866719D01*
X146419477Y-108960179D01*
X146412385Y-108992550D01*
X146361062Y-109107625D01*
X146277329Y-109216126D01*
X146173536Y-109300942D01*
X146091900Y-109351000D01*
X146168100Y-109375815D01*
X146204678Y-109390161D01*
X146314853Y-109465236D01*
X146404055Y-109573869D01*
X146463799Y-109703601D01*
X146485600Y-109841974D01*
X146484190Y-109892926D01*
X146477281Y-109956562D01*
X146466550Y-109985890D01*
X146422698Y-110003157D01*
X146370338Y-110014616D01*
X146329257Y-110016935D01*
X146318149Y-110007404D01*
X146319116Y-110002155D01*
X146294573Y-109982677D01*
X146237727Y-109966136D01*
X146226512Y-109963885D01*
X146154351Y-109942164D01*
X146104600Y-109915929D01*
X146094886Y-109909121D01*
X146036605Y-109884979D01*
X145960389Y-109867272D01*
X145854279Y-109851189D01*
X145858400Y-110162345D01*
X145858343Y-110277904D01*
X145850376Y-110432019D01*
X145831893Y-110542504D01*
X145802096Y-110613304D01*
X145760187Y-110648366D01*
X145756518Y-110649680D01*
X145724152Y-110648093D01*
X145702770Y-110613818D01*
X145690380Y-110540902D01*
X145684992Y-110423388D01*
X145684463Y-110399506D01*
X145681051Y-110295490D01*
X145675505Y-110160275D01*
X145668463Y-110008709D01*
X145660564Y-109855638D01*
X145639345Y-109466375D01*
X145708535Y-109402217D01*
X145720735Y-109391137D01*
X145763640Y-109356452D01*
X145784295Y-109346980D01*
X145785135Y-109348149D01*
X145810094Y-109396090D01*
X145840977Y-109470943D01*
X145869747Y-109551799D01*
X145888368Y-109617752D01*
X145889524Y-109622780D01*
X145926743Y-109702828D01*
X145991721Y-109785397D01*
X146069016Y-109853886D01*
X146143184Y-109891692D01*
X146168250Y-109897038D01*
X146254873Y-109897095D01*
X146312364Y-109865192D01*
X146333200Y-109804771D01*
X146333040Y-109797494D01*
X146320740Y-109736059D01*
X146295034Y-109684263D01*
X146264679Y-109655274D01*
X146238432Y-109662261D01*
X146217803Y-109678008D01*
X146170428Y-109687883D01*
X146124935Y-109680722D01*
X146104600Y-109657374D01*
X146103258Y-109647447D01*
X146077561Y-109617821D01*
X146070438Y-109612271D01*
X146050833Y-109569782D01*
X146036167Y-109501781D01*
X146032198Y-109477749D01*
X146012095Y-109407967D01*
X145987006Y-109365867D01*
X145966028Y-109339275D01*
X145955065Y-109290749D01*
X145959965Y-109216899D01*
X145981332Y-109110291D01*
X146019771Y-108963491D01*
X146057443Y-108840006D01*
X146108792Y-108695927D01*
X146163029Y-108564290D01*
X146215042Y-108457365D01*
X146259721Y-108387421D01*
X146267956Y-108378138D01*
X146311325Y-108354002D01*
X146346970Y-108379732D01*
G36*
X146346970Y-108379732D02*
G01*
X146357303Y-108389994D01*
X146397754Y-108393811D01*
X146398989Y-108393375D01*
X146431041Y-108407640D01*
X146460654Y-108468279D01*
X146465061Y-108480892D01*
X146490456Y-108534178D01*
X146512969Y-108555800D01*
X146524742Y-108559453D01*
X146535510Y-108595374D01*
X146522302Y-108662379D01*
X146486341Y-108751467D01*
X146478130Y-108769365D01*
X146442529Y-108866719D01*
X146419477Y-108960179D01*
X146412385Y-108992550D01*
X146361062Y-109107625D01*
X146277329Y-109216126D01*
X146173536Y-109300942D01*
X146091900Y-109351000D01*
X146168100Y-109375815D01*
X146204678Y-109390161D01*
X146314853Y-109465236D01*
X146404055Y-109573869D01*
X146463799Y-109703601D01*
X146485600Y-109841974D01*
X146484190Y-109892926D01*
X146477281Y-109956562D01*
X146466550Y-109985890D01*
X146422698Y-110003157D01*
X146370338Y-110014616D01*
X146329257Y-110016935D01*
X146318149Y-110007404D01*
X146319116Y-110002155D01*
X146294573Y-109982677D01*
X146237727Y-109966136D01*
X146226512Y-109963885D01*
X146154351Y-109942164D01*
X146104600Y-109915929D01*
X146094886Y-109909121D01*
X146036605Y-109884979D01*
X145960389Y-109867272D01*
X145854279Y-109851189D01*
X145858400Y-110162345D01*
X145858343Y-110277904D01*
X145850376Y-110432019D01*
X145831893Y-110542504D01*
X145802096Y-110613304D01*
X145760187Y-110648366D01*
X145756518Y-110649680D01*
X145724152Y-110648093D01*
X145702770Y-110613818D01*
X145690380Y-110540902D01*
X145684992Y-110423388D01*
X145684463Y-110399506D01*
X145681051Y-110295490D01*
X145675505Y-110160275D01*
X145668463Y-110008709D01*
X145660564Y-109855638D01*
X145639345Y-109466375D01*
X145708535Y-109402217D01*
X145720735Y-109391137D01*
X145763640Y-109356452D01*
X145784295Y-109346980D01*
X145785135Y-109348149D01*
X145810094Y-109396090D01*
X145840977Y-109470943D01*
X145869747Y-109551799D01*
X145888368Y-109617752D01*
X145889524Y-109622780D01*
X145926743Y-109702828D01*
X145991721Y-109785397D01*
X146069016Y-109853886D01*
X146143184Y-109891692D01*
X146168250Y-109897038D01*
X146254873Y-109897095D01*
X146312364Y-109865192D01*
X146333200Y-109804771D01*
X146333040Y-109797494D01*
X146320740Y-109736059D01*
X146295034Y-109684263D01*
X146264679Y-109655274D01*
X146238432Y-109662261D01*
X146217803Y-109678008D01*
X146170428Y-109687883D01*
X146124935Y-109680722D01*
X146104600Y-109657374D01*
X146103258Y-109647447D01*
X146077561Y-109617821D01*
X146070438Y-109612271D01*
X146050833Y-109569782D01*
X146036167Y-109501781D01*
X146032198Y-109477749D01*
X146012095Y-109407967D01*
X145987006Y-109365867D01*
X145966028Y-109339275D01*
X145955065Y-109290749D01*
X145959965Y-109216899D01*
X145981332Y-109110291D01*
X146019771Y-108963491D01*
X146057443Y-108840006D01*
X146108792Y-108695927D01*
X146163029Y-108564290D01*
X146215042Y-108457365D01*
X146259721Y-108387421D01*
X146267956Y-108378138D01*
X146311325Y-108354002D01*
X146346970Y-108379732D01*
G37*
X145938383Y-108349184D02*
X145978976Y-108389538D01*
X145999441Y-108449964D01*
X145990142Y-108505256D01*
X145987338Y-108521962D01*
X146019501Y-108525749D01*
X146046292Y-108523334D01*
X146060671Y-108533642D01*
X146062796Y-108565971D01*
X146053250Y-108629548D01*
X146032616Y-108733600D01*
X146028465Y-108753838D01*
X146003092Y-108865580D01*
X145976213Y-108943998D01*
X145939141Y-109003696D01*
X145883193Y-109059280D01*
X145799684Y-109125356D01*
X145745418Y-109166253D01*
X145684885Y-109208104D01*
X145645233Y-109225577D01*
X145614740Y-109222920D01*
X145581684Y-109204384D01*
X145553038Y-109184718D01*
X145526313Y-109154498D01*
X145529718Y-109115909D01*
X145560824Y-109051100D01*
X145570971Y-109028818D01*
X145598434Y-108952594D01*
X145629839Y-108850045D01*
X145660197Y-108736946D01*
X145686413Y-108638493D01*
X145719517Y-108541012D01*
X145755452Y-108471184D01*
X145799865Y-108416033D01*
X145800655Y-108415220D01*
X145872755Y-108356740D01*
X145929214Y-108345872D01*
X145938383Y-108349184D01*
G36*
X145938383Y-108349184D02*
G01*
X145978976Y-108389538D01*
X145999441Y-108449964D01*
X145990142Y-108505256D01*
X145987338Y-108521962D01*
X146019501Y-108525749D01*
X146046292Y-108523334D01*
X146060671Y-108533642D01*
X146062796Y-108565971D01*
X146053250Y-108629548D01*
X146032616Y-108733600D01*
X146028465Y-108753838D01*
X146003092Y-108865580D01*
X145976213Y-108943998D01*
X145939141Y-109003696D01*
X145883193Y-109059280D01*
X145799684Y-109125356D01*
X145745418Y-109166253D01*
X145684885Y-109208104D01*
X145645233Y-109225577D01*
X145614740Y-109222920D01*
X145581684Y-109204384D01*
X145553038Y-109184718D01*
X145526313Y-109154498D01*
X145529718Y-109115909D01*
X145560824Y-109051100D01*
X145570971Y-109028818D01*
X145598434Y-108952594D01*
X145629839Y-108850045D01*
X145660197Y-108736946D01*
X145686413Y-108638493D01*
X145719517Y-108541012D01*
X145755452Y-108471184D01*
X145799865Y-108416033D01*
X145800655Y-108415220D01*
X145872755Y-108356740D01*
X145929214Y-108345872D01*
X145938383Y-108349184D01*
G37*
X148949400Y-108187500D02*
X148936700Y-108200200D01*
X148924000Y-108187500D01*
X148936700Y-108174800D01*
X148949400Y-108187500D01*
G36*
X148949400Y-108187500D02*
G01*
X148936700Y-108200200D01*
X148924000Y-108187500D01*
X148936700Y-108174800D01*
X148949400Y-108187500D01*
G37*
X146866941Y-107675217D02*
X146921929Y-107710620D01*
X146986390Y-107764565D01*
X147015970Y-107791327D01*
X147110534Y-107863174D01*
X147212188Y-107915133D01*
X147335500Y-107953505D01*
X147495036Y-107984591D01*
X147540294Y-107992438D01*
X147632486Y-108012076D01*
X147698256Y-108031290D01*
X147725650Y-108046851D01*
X147735281Y-108059764D01*
X147776766Y-108074101D01*
X147784268Y-108074545D01*
X147793182Y-108084697D01*
X147755918Y-108109972D01*
X147707317Y-108130668D01*
X147673368Y-108132973D01*
X147667080Y-108130551D01*
X147654000Y-108147901D01*
X147654976Y-108155274D01*
X147679400Y-108174800D01*
X147685471Y-108175539D01*
X147704800Y-108200200D01*
X147695274Y-108214964D01*
X147654000Y-108225600D01*
X147624375Y-108232672D01*
X147603200Y-108263700D01*
X147592116Y-108296822D01*
X147566640Y-108295322D01*
X147544508Y-108257350D01*
X147542152Y-108248684D01*
X147534070Y-108233465D01*
X147529946Y-108266969D01*
X147514305Y-108307828D01*
X147457150Y-108349291D01*
X147454409Y-108350396D01*
X147405484Y-108368025D01*
X147357055Y-108378833D01*
X147300726Y-108382352D01*
X147228101Y-108378111D01*
X147130786Y-108365642D01*
X147000384Y-108344474D01*
X146828500Y-108314138D01*
X146818682Y-108312384D01*
X146702635Y-108292577D01*
X146590483Y-108274854D01*
X146505242Y-108262866D01*
X146466844Y-108257063D01*
X146402697Y-108241587D01*
X146371084Y-108225251D01*
X146365767Y-108196239D01*
X146374924Y-108162100D01*
X147603200Y-108162100D01*
X147615900Y-108174800D01*
X147628600Y-108162100D01*
X147615900Y-108149400D01*
X147603200Y-108162100D01*
X146374924Y-108162100D01*
X146383515Y-108130071D01*
X146425677Y-108045378D01*
X146485373Y-107952520D01*
X146555724Y-107861859D01*
X146629850Y-107783754D01*
X146700872Y-107728568D01*
X146731572Y-107711128D01*
X146797940Y-107679631D01*
X146842323Y-107667041D01*
X146866941Y-107675217D01*
G36*
X146866941Y-107675217D02*
G01*
X146921929Y-107710620D01*
X146986390Y-107764565D01*
X147015970Y-107791327D01*
X147110534Y-107863174D01*
X147212188Y-107915133D01*
X147335500Y-107953505D01*
X147495036Y-107984591D01*
X147540294Y-107992438D01*
X147632486Y-108012076D01*
X147698256Y-108031290D01*
X147725650Y-108046851D01*
X147735281Y-108059764D01*
X147776766Y-108074101D01*
X147784268Y-108074545D01*
X147793182Y-108084697D01*
X147755918Y-108109972D01*
X147707317Y-108130668D01*
X147673368Y-108132973D01*
X147667080Y-108130551D01*
X147654000Y-108147901D01*
X147654976Y-108155274D01*
X147679400Y-108174800D01*
X147685471Y-108175539D01*
X147704800Y-108200200D01*
X147695274Y-108214964D01*
X147654000Y-108225600D01*
X147624375Y-108232672D01*
X147603200Y-108263700D01*
X147592116Y-108296822D01*
X147566640Y-108295322D01*
X147544508Y-108257350D01*
X147542152Y-108248684D01*
X147534070Y-108233465D01*
X147529946Y-108266969D01*
X147514305Y-108307828D01*
X147457150Y-108349291D01*
X147454409Y-108350396D01*
X147405484Y-108368025D01*
X147357055Y-108378833D01*
X147300726Y-108382352D01*
X147228101Y-108378111D01*
X147130786Y-108365642D01*
X147000384Y-108344474D01*
X146828500Y-108314138D01*
X146818682Y-108312384D01*
X146702635Y-108292577D01*
X146590483Y-108274854D01*
X146505242Y-108262866D01*
X146466844Y-108257063D01*
X146402697Y-108241587D01*
X146371084Y-108225251D01*
X146365767Y-108196239D01*
X146374924Y-108162100D01*
X147603200Y-108162100D01*
X147615900Y-108174800D01*
X147628600Y-108162100D01*
X147615900Y-108149400D01*
X147603200Y-108162100D01*
X146374924Y-108162100D01*
X146383515Y-108130071D01*
X146425677Y-108045378D01*
X146485373Y-107952520D01*
X146555724Y-107861859D01*
X146629850Y-107783754D01*
X146700872Y-107728568D01*
X146731572Y-107711128D01*
X146797940Y-107679631D01*
X146842323Y-107667041D01*
X146866941Y-107675217D01*
G37*
X145241000Y-106942900D02*
X145228300Y-106955600D01*
X145215600Y-106942900D01*
X145228300Y-106930200D01*
X145241000Y-106942900D01*
G36*
X145241000Y-106942900D02*
G01*
X145228300Y-106955600D01*
X145215600Y-106942900D01*
X145228300Y-106930200D01*
X145241000Y-106942900D01*
G37*
X144436362Y-106262020D02*
X144476280Y-106309149D01*
X144523000Y-106396800D01*
X144564803Y-106475394D01*
X144622597Y-106576492D01*
X144682836Y-106676200D01*
X144732078Y-106756172D01*
X144777172Y-106840447D01*
X144794879Y-106905400D01*
X144785234Y-106964669D01*
X144748277Y-107031893D01*
X144684043Y-107120709D01*
X144662222Y-107150214D01*
X144607557Y-107227308D01*
X144569487Y-107285791D01*
X144555200Y-107314836D01*
X144554487Y-107319948D01*
X144529800Y-107336600D01*
X144518115Y-107332302D01*
X144504400Y-107298500D01*
X144494971Y-107276282D01*
X144453600Y-107260400D01*
X144436102Y-107260244D01*
X144396125Y-107254600D01*
X144369917Y-107232635D01*
X144348836Y-107183348D01*
X144324238Y-107095739D01*
X144303547Y-107023998D01*
X144263760Y-106911824D01*
X144222582Y-106822118D01*
X144184397Y-106763866D01*
X144153589Y-106746050D01*
X144140012Y-106747490D01*
X144126969Y-106738505D01*
X144119094Y-106707882D01*
X144114332Y-106645903D01*
X144110631Y-106542850D01*
X144110198Y-106479380D01*
X144113816Y-106420154D01*
X144121145Y-106397608D01*
X144133503Y-106400707D01*
X144171324Y-106424652D01*
X144203806Y-106457597D01*
X144211905Y-106481862D01*
X144209106Y-106486116D01*
X144218650Y-106483584D01*
X144220128Y-106482299D01*
X144234247Y-106446172D01*
X144237063Y-106391646D01*
X144229454Y-106341539D01*
X144212300Y-106318668D01*
X144208920Y-106317448D01*
X144225528Y-106304491D01*
X144275800Y-106282500D01*
X144323821Y-106264774D01*
X144389969Y-106249275D01*
X144436362Y-106262020D01*
G36*
X144436362Y-106262020D02*
G01*
X144476280Y-106309149D01*
X144523000Y-106396800D01*
X144564803Y-106475394D01*
X144622597Y-106576492D01*
X144682836Y-106676200D01*
X144732078Y-106756172D01*
X144777172Y-106840447D01*
X144794879Y-106905400D01*
X144785234Y-106964669D01*
X144748277Y-107031893D01*
X144684043Y-107120709D01*
X144662222Y-107150214D01*
X144607557Y-107227308D01*
X144569487Y-107285791D01*
X144555200Y-107314836D01*
X144554487Y-107319948D01*
X144529800Y-107336600D01*
X144518115Y-107332302D01*
X144504400Y-107298500D01*
X144494971Y-107276282D01*
X144453600Y-107260400D01*
X144436102Y-107260244D01*
X144396125Y-107254600D01*
X144369917Y-107232635D01*
X144348836Y-107183348D01*
X144324238Y-107095739D01*
X144303547Y-107023998D01*
X144263760Y-106911824D01*
X144222582Y-106822118D01*
X144184397Y-106763866D01*
X144153589Y-106746050D01*
X144140012Y-106747490D01*
X144126969Y-106738505D01*
X144119094Y-106707882D01*
X144114332Y-106645903D01*
X144110631Y-106542850D01*
X144110198Y-106479380D01*
X144113816Y-106420154D01*
X144121145Y-106397608D01*
X144133503Y-106400707D01*
X144171324Y-106424652D01*
X144203806Y-106457597D01*
X144211905Y-106481862D01*
X144209106Y-106486116D01*
X144218650Y-106483584D01*
X144220128Y-106482299D01*
X144234247Y-106446172D01*
X144237063Y-106391646D01*
X144229454Y-106341539D01*
X144212300Y-106318668D01*
X144208920Y-106317448D01*
X144225528Y-106304491D01*
X144275800Y-106282500D01*
X144323821Y-106264774D01*
X144389969Y-106249275D01*
X144436362Y-106262020D01*
G37*
X145985106Y-106214286D02*
X146003000Y-106261843D01*
X146010855Y-106300782D01*
X146041100Y-106304386D01*
X146063582Y-106301743D01*
X146079200Y-106330583D01*
X146082876Y-106350687D01*
X146107353Y-106371400D01*
X146120118Y-106379486D01*
X146120816Y-106424893D01*
X146097700Y-106505722D01*
X146051943Y-106616776D01*
X146038561Y-106647720D01*
X146013105Y-106718183D01*
X146003000Y-106765284D01*
X146000774Y-106785560D01*
X145986350Y-106849466D01*
X145962955Y-106928783D01*
X145945951Y-106972870D01*
X145903074Y-107047510D01*
X145835829Y-107130209D01*
X145735952Y-107232006D01*
X145708636Y-107258190D01*
X145610088Y-107347430D01*
X145541136Y-107400176D01*
X145502725Y-107415977D01*
X145495796Y-107394379D01*
X145521293Y-107334931D01*
X145530417Y-107297386D01*
X145512813Y-107284153D01*
X145482300Y-107311200D01*
X145477103Y-107318114D01*
X145442217Y-107336600D01*
X145437616Y-107335766D01*
X145428954Y-107315313D01*
X145435701Y-107263491D01*
X145458902Y-107174989D01*
X145499598Y-107044500D01*
X145529356Y-106946463D01*
X145578449Y-106742122D01*
X145618185Y-106507392D01*
X145645232Y-106391256D01*
X145686647Y-106319556D01*
X145741121Y-106295200D01*
X145764139Y-106305638D01*
X145760690Y-106349181D01*
X145754375Y-106383771D01*
X145771678Y-106385782D01*
X145781162Y-106378462D01*
X145799800Y-106343608D01*
X145810902Y-106309686D01*
X145840494Y-106256706D01*
X145888313Y-106211367D01*
X145941727Y-106197298D01*
X145985106Y-106214286D01*
G36*
X145985106Y-106214286D02*
G01*
X146003000Y-106261843D01*
X146010855Y-106300782D01*
X146041100Y-106304386D01*
X146063582Y-106301743D01*
X146079200Y-106330583D01*
X146082876Y-106350687D01*
X146107353Y-106371400D01*
X146120118Y-106379486D01*
X146120816Y-106424893D01*
X146097700Y-106505722D01*
X146051943Y-106616776D01*
X146038561Y-106647720D01*
X146013105Y-106718183D01*
X146003000Y-106765284D01*
X146000774Y-106785560D01*
X145986350Y-106849466D01*
X145962955Y-106928783D01*
X145945951Y-106972870D01*
X145903074Y-107047510D01*
X145835829Y-107130209D01*
X145735952Y-107232006D01*
X145708636Y-107258190D01*
X145610088Y-107347430D01*
X145541136Y-107400176D01*
X145502725Y-107415977D01*
X145495796Y-107394379D01*
X145521293Y-107334931D01*
X145530417Y-107297386D01*
X145512813Y-107284153D01*
X145482300Y-107311200D01*
X145477103Y-107318114D01*
X145442217Y-107336600D01*
X145437616Y-107335766D01*
X145428954Y-107315313D01*
X145435701Y-107263491D01*
X145458902Y-107174989D01*
X145499598Y-107044500D01*
X145529356Y-106946463D01*
X145578449Y-106742122D01*
X145618185Y-106507392D01*
X145645232Y-106391256D01*
X145686647Y-106319556D01*
X145741121Y-106295200D01*
X145764139Y-106305638D01*
X145760690Y-106349181D01*
X145754375Y-106383771D01*
X145771678Y-106385782D01*
X145781162Y-106378462D01*
X145799800Y-106343608D01*
X145810902Y-106309686D01*
X145840494Y-106256706D01*
X145888313Y-106211367D01*
X145941727Y-106197298D01*
X145985106Y-106214286D01*
G37*
X142848074Y-106109646D02*
X142860195Y-106143658D01*
X142893082Y-106151379D01*
X142910989Y-106147322D01*
X142929611Y-106159133D01*
X142929788Y-106159865D01*
X142957384Y-106167900D01*
X143025286Y-106174191D01*
X143123820Y-106178122D01*
X143243313Y-106179079D01*
X143305693Y-106178604D01*
X143420547Y-106176291D01*
X143498913Y-106171073D01*
X143550827Y-106161431D01*
X143586326Y-106145849D01*
X143615448Y-106122807D01*
X143664667Y-106087839D01*
X143702933Y-106087357D01*
X143717000Y-106128107D01*
X143729696Y-106148233D01*
X143778455Y-106154469D01*
X143800349Y-106153167D01*
X143828263Y-106163281D01*
X143844687Y-106200016D01*
X143857466Y-106275375D01*
X143861908Y-106312833D01*
X143862247Y-106387269D01*
X143844416Y-106421943D01*
X143836334Y-106428357D01*
X143829868Y-106459681D01*
X143853590Y-106517787D01*
X143859572Y-106531363D01*
X143879886Y-106605939D01*
X143897435Y-106711404D01*
X143909474Y-106832308D01*
X143916130Y-106918929D01*
X143927944Y-107028459D01*
X143945038Y-107140103D01*
X143969911Y-107269544D01*
X144005061Y-107432468D01*
X144023274Y-107463040D01*
X144067830Y-107503758D01*
X144098986Y-107529347D01*
X144122597Y-107566952D01*
X144121027Y-107611663D01*
X144091425Y-107668461D01*
X144030938Y-107742329D01*
X143936714Y-107838248D01*
X143805900Y-107961200D01*
X143769191Y-107994469D01*
X143677452Y-108069365D01*
X143598129Y-108115722D01*
X143515870Y-108141078D01*
X143415321Y-108152971D01*
X143394721Y-108154353D01*
X143324212Y-108156404D01*
X143282212Y-108143737D01*
X143251624Y-108106124D01*
X143215350Y-108033336D01*
X143200100Y-108014053D01*
X143148428Y-107971515D01*
X143077652Y-107926222D01*
X143042040Y-107906348D01*
X142987350Y-107880828D01*
X142937129Y-107871068D01*
X142873235Y-107874885D01*
X142777525Y-107890094D01*
X142678182Y-107911937D01*
X142575697Y-107943446D01*
X142500498Y-107976204D01*
X142445121Y-108005693D01*
X142388944Y-108023556D01*
X142353306Y-108010496D01*
X142334883Y-107961673D01*
X142330347Y-107872248D01*
X142336372Y-107737380D01*
X142342468Y-107657741D01*
X142352915Y-107562113D01*
X142364165Y-107495127D01*
X142374647Y-107467834D01*
X142387593Y-107451818D01*
X142396588Y-107404334D01*
X142396803Y-107392869D01*
X142402727Y-107367191D01*
X142420931Y-107387188D01*
X142440330Y-107407780D01*
X142471527Y-107398433D01*
X142475208Y-107393848D01*
X142487039Y-107347961D01*
X142485762Y-107281020D01*
X142474134Y-107210978D01*
X142454911Y-107155787D01*
X142430847Y-107133400D01*
X142406824Y-107116093D01*
X142396200Y-107059317D01*
X142387308Y-107004423D01*
X142368037Y-106977385D01*
X142853400Y-106977385D01*
X142855627Y-106987229D01*
X142885150Y-107012853D01*
X142903897Y-107029137D01*
X142884325Y-107063015D01*
X142867772Y-107093102D01*
X142868351Y-107138837D01*
X142890306Y-107213196D01*
X142900714Y-107244473D01*
X142921000Y-107315984D01*
X142929230Y-107362373D01*
X142931819Y-107378052D01*
X142961545Y-107439329D01*
X143016969Y-107517980D01*
X143088627Y-107602508D01*
X143167053Y-107681418D01*
X143242784Y-107743214D01*
X143248374Y-107747085D01*
X143316481Y-107790598D01*
X143361864Y-107804307D01*
X143392378Y-107783152D01*
X143415879Y-107722070D01*
X143440224Y-107616000D01*
X143441762Y-107608284D01*
X143452824Y-107515521D01*
X143458041Y-107394485D01*
X143457953Y-107256468D01*
X143453098Y-107112757D01*
X143444017Y-106974645D01*
X143431248Y-106853420D01*
X143415330Y-106760372D01*
X143396803Y-106706793D01*
X143375604Y-106656820D01*
X143373942Y-106600497D01*
X143377798Y-106584337D01*
X143371685Y-106567210D01*
X143342596Y-106558199D01*
X143281268Y-106555201D01*
X143178436Y-106556113D01*
X143147333Y-106556682D01*
X143028587Y-106560291D01*
X142950647Y-106566733D01*
X142905265Y-106577793D01*
X142884195Y-106595258D01*
X142879188Y-106620913D01*
X142883615Y-106647324D01*
X142901065Y-106629603D01*
X142902355Y-106627606D01*
X142921346Y-106614622D01*
X142936398Y-106648653D01*
X142938501Y-106657538D01*
X142941231Y-106726896D01*
X142922786Y-106781233D01*
X142888537Y-106803200D01*
X142868137Y-106807692D01*
X142854444Y-106834511D01*
X142878800Y-106866700D01*
X142892865Y-106883951D01*
X142904200Y-106933199D01*
X142898980Y-106960731D01*
X142878800Y-106968300D01*
X142869086Y-106964192D01*
X142853400Y-106977385D01*
X142368037Y-106977385D01*
X142364450Y-106972351D01*
X142348073Y-106961559D01*
X142360664Y-106938484D01*
X142366021Y-106933784D01*
X142395669Y-106876093D01*
X142414063Y-106790500D01*
X142447000Y-106790500D01*
X142459700Y-106803200D01*
X142472400Y-106790500D01*
X142459700Y-106777800D01*
X142447000Y-106790500D01*
X142414063Y-106790500D01*
X142418623Y-106769277D01*
X142435028Y-106612700D01*
X142440510Y-106542147D01*
X142453586Y-106422794D01*
X142471703Y-106339317D01*
X142498865Y-106281534D01*
X142539072Y-106239262D01*
X142596329Y-106202319D01*
X142636093Y-106181935D01*
X142701314Y-106157070D01*
X142741991Y-106153096D01*
X142772492Y-106147823D01*
X142808004Y-106110105D01*
X142839583Y-106053900D01*
X142848074Y-106109646D01*
G36*
X142848074Y-106109646D02*
G01*
X142860195Y-106143658D01*
X142893082Y-106151379D01*
X142910989Y-106147322D01*
X142929611Y-106159133D01*
X142929788Y-106159865D01*
X142957384Y-106167900D01*
X143025286Y-106174191D01*
X143123820Y-106178122D01*
X143243313Y-106179079D01*
X143305693Y-106178604D01*
X143420547Y-106176291D01*
X143498913Y-106171073D01*
X143550827Y-106161431D01*
X143586326Y-106145849D01*
X143615448Y-106122807D01*
X143664667Y-106087839D01*
X143702933Y-106087357D01*
X143717000Y-106128107D01*
X143729696Y-106148233D01*
X143778455Y-106154469D01*
X143800349Y-106153167D01*
X143828263Y-106163281D01*
X143844687Y-106200016D01*
X143857466Y-106275375D01*
X143861908Y-106312833D01*
X143862247Y-106387269D01*
X143844416Y-106421943D01*
X143836334Y-106428357D01*
X143829868Y-106459681D01*
X143853590Y-106517787D01*
X143859572Y-106531363D01*
X143879886Y-106605939D01*
X143897435Y-106711404D01*
X143909474Y-106832308D01*
X143916130Y-106918929D01*
X143927944Y-107028459D01*
X143945038Y-107140103D01*
X143969911Y-107269544D01*
X144005061Y-107432468D01*
X144023274Y-107463040D01*
X144067830Y-107503758D01*
X144098986Y-107529347D01*
X144122597Y-107566952D01*
X144121027Y-107611663D01*
X144091425Y-107668461D01*
X144030938Y-107742329D01*
X143936714Y-107838248D01*
X143805900Y-107961200D01*
X143769191Y-107994469D01*
X143677452Y-108069365D01*
X143598129Y-108115722D01*
X143515870Y-108141078D01*
X143415321Y-108152971D01*
X143394721Y-108154353D01*
X143324212Y-108156404D01*
X143282212Y-108143737D01*
X143251624Y-108106124D01*
X143215350Y-108033336D01*
X143200100Y-108014053D01*
X143148428Y-107971515D01*
X143077652Y-107926222D01*
X143042040Y-107906348D01*
X142987350Y-107880828D01*
X142937129Y-107871068D01*
X142873235Y-107874885D01*
X142777525Y-107890094D01*
X142678182Y-107911937D01*
X142575697Y-107943446D01*
X142500498Y-107976204D01*
X142445121Y-108005693D01*
X142388944Y-108023556D01*
X142353306Y-108010496D01*
X142334883Y-107961673D01*
X142330347Y-107872248D01*
X142336372Y-107737380D01*
X142342468Y-107657741D01*
X142352915Y-107562113D01*
X142364165Y-107495127D01*
X142374647Y-107467834D01*
X142387593Y-107451818D01*
X142396588Y-107404334D01*
X142396803Y-107392869D01*
X142402727Y-107367191D01*
X142420931Y-107387188D01*
X142440330Y-107407780D01*
X142471527Y-107398433D01*
X142475208Y-107393848D01*
X142487039Y-107347961D01*
X142485762Y-107281020D01*
X142474134Y-107210978D01*
X142454911Y-107155787D01*
X142430847Y-107133400D01*
X142406824Y-107116093D01*
X142396200Y-107059317D01*
X142387308Y-107004423D01*
X142368037Y-106977385D01*
X142853400Y-106977385D01*
X142855627Y-106987229D01*
X142885150Y-107012853D01*
X142903897Y-107029137D01*
X142884325Y-107063015D01*
X142867772Y-107093102D01*
X142868351Y-107138837D01*
X142890306Y-107213196D01*
X142900714Y-107244473D01*
X142921000Y-107315984D01*
X142929230Y-107362373D01*
X142931819Y-107378052D01*
X142961545Y-107439329D01*
X143016969Y-107517980D01*
X143088627Y-107602508D01*
X143167053Y-107681418D01*
X143242784Y-107743214D01*
X143248374Y-107747085D01*
X143316481Y-107790598D01*
X143361864Y-107804307D01*
X143392378Y-107783152D01*
X143415879Y-107722070D01*
X143440224Y-107616000D01*
X143441762Y-107608284D01*
X143452824Y-107515521D01*
X143458041Y-107394485D01*
X143457953Y-107256468D01*
X143453098Y-107112757D01*
X143444017Y-106974645D01*
X143431248Y-106853420D01*
X143415330Y-106760372D01*
X143396803Y-106706793D01*
X143375604Y-106656820D01*
X143373942Y-106600497D01*
X143377798Y-106584337D01*
X143371685Y-106567210D01*
X143342596Y-106558199D01*
X143281268Y-106555201D01*
X143178436Y-106556113D01*
X143147333Y-106556682D01*
X143028587Y-106560291D01*
X142950647Y-106566733D01*
X142905265Y-106577793D01*
X142884195Y-106595258D01*
X142879188Y-106620913D01*
X142883615Y-106647324D01*
X142901065Y-106629603D01*
X142902355Y-106627606D01*
X142921346Y-106614622D01*
X142936398Y-106648653D01*
X142938501Y-106657538D01*
X142941231Y-106726896D01*
X142922786Y-106781233D01*
X142888537Y-106803200D01*
X142868137Y-106807692D01*
X142854444Y-106834511D01*
X142878800Y-106866700D01*
X142892865Y-106883951D01*
X142904200Y-106933199D01*
X142898980Y-106960731D01*
X142878800Y-106968300D01*
X142869086Y-106964192D01*
X142853400Y-106977385D01*
X142368037Y-106977385D01*
X142364450Y-106972351D01*
X142348073Y-106961559D01*
X142360664Y-106938484D01*
X142366021Y-106933784D01*
X142395669Y-106876093D01*
X142414063Y-106790500D01*
X142447000Y-106790500D01*
X142459700Y-106803200D01*
X142472400Y-106790500D01*
X142459700Y-106777800D01*
X142447000Y-106790500D01*
X142414063Y-106790500D01*
X142418623Y-106769277D01*
X142435028Y-106612700D01*
X142440510Y-106542147D01*
X142453586Y-106422794D01*
X142471703Y-106339317D01*
X142498865Y-106281534D01*
X142539072Y-106239262D01*
X142596329Y-106202319D01*
X142636093Y-106181935D01*
X142701314Y-106157070D01*
X142741991Y-106153096D01*
X142772492Y-106147823D01*
X142808004Y-106110105D01*
X142839583Y-106053900D01*
X142848074Y-106109646D01*
G37*
X149289291Y-105928220D02*
X149293742Y-105948032D01*
X149279309Y-105952121D01*
X149272647Y-105947144D01*
X149254200Y-105912701D01*
X149255541Y-105898457D01*
X149268794Y-105892468D01*
X149289291Y-105928220D01*
G36*
X149289291Y-105928220D02*
G01*
X149293742Y-105948032D01*
X149279309Y-105952121D01*
X149272647Y-105947144D01*
X149254200Y-105912701D01*
X149255541Y-105898457D01*
X149268794Y-105892468D01*
X149289291Y-105928220D01*
G37*
X146787068Y-105260499D02*
X146850271Y-105291900D01*
X146878461Y-105313045D01*
X146929997Y-105330000D01*
X146957598Y-105340195D01*
X146955297Y-105381439D01*
X146950103Y-105414610D01*
X146971039Y-105425889D01*
X146978366Y-105426289D01*
X147012248Y-105452908D01*
X147048368Y-105507800D01*
X147074220Y-105561990D01*
X147135276Y-105727262D01*
X147182787Y-105921439D01*
X147217626Y-106149745D01*
X147240666Y-106417401D01*
X147252783Y-106729630D01*
X147259395Y-107049759D01*
X147177297Y-107143264D01*
X147150137Y-107175459D01*
X147110701Y-107228404D01*
X147095200Y-107259052D01*
X147099134Y-107265655D01*
X147137377Y-107283678D01*
X147203150Y-107299218D01*
X147226221Y-107303379D01*
X147302795Y-107321580D01*
X147355550Y-107340444D01*
X147382010Y-107350340D01*
X147400000Y-107340826D01*
X147400315Y-107338858D01*
X147426700Y-107327358D01*
X147482550Y-107328386D01*
X147526286Y-107333647D01*
X147600365Y-107338402D01*
X147661821Y-107332076D01*
X147736550Y-107313110D01*
X147740806Y-107311892D01*
X147831607Y-107286647D01*
X147917458Y-107263807D01*
X148003116Y-107241813D01*
X148005886Y-107364754D01*
X147986829Y-107504331D01*
X147921544Y-107625445D01*
X147809103Y-107728427D01*
X147785862Y-107743405D01*
X147700578Y-107786110D01*
X147622805Y-107810300D01*
X147607512Y-107812616D01*
X147553519Y-107813144D01*
X147512250Y-107789839D01*
X147463891Y-107733071D01*
X147398195Y-107666014D01*
X147333485Y-107641400D01*
X147294592Y-107633919D01*
X147272995Y-107609650D01*
X147270992Y-107602140D01*
X147232882Y-107584142D01*
X147145995Y-107578551D01*
X147100294Y-107577886D01*
X147041848Y-107573352D01*
X147018980Y-107565851D01*
X147017604Y-107564286D01*
X146984081Y-107558564D01*
X146914852Y-107554914D01*
X146822130Y-107554068D01*
X146708423Y-107551096D01*
X146568832Y-107540373D01*
X146447500Y-107524324D01*
X146352059Y-107509689D01*
X146239036Y-107496753D01*
X146149050Y-107491007D01*
X146146059Y-107490955D01*
X146072928Y-107484997D01*
X146034369Y-107463034D01*
X146022090Y-107413779D01*
X146027801Y-107325945D01*
X146036448Y-107291821D01*
X146073264Y-107213944D01*
X146129036Y-107124447D01*
X146193580Y-107037707D01*
X146256713Y-106968104D01*
X146308247Y-106930015D01*
X146312155Y-106928367D01*
X146363027Y-106900382D01*
X146384000Y-106876319D01*
X146384667Y-106873571D01*
X146413563Y-106859664D01*
X146471960Y-106854000D01*
X146479261Y-106854029D01*
X146525882Y-106858571D01*
X146559287Y-106878233D01*
X146590540Y-106923543D01*
X146630710Y-107005030D01*
X146669336Y-107079160D01*
X146709742Y-107141101D01*
X146739600Y-107170146D01*
X146756821Y-107176771D01*
X146805888Y-107197846D01*
X146820599Y-107198956D01*
X146846545Y-107166917D01*
X146867005Y-107095609D01*
X146880748Y-106992623D01*
X146886540Y-106865549D01*
X146883150Y-106721976D01*
X146879064Y-106651709D01*
X146868842Y-106502430D01*
X146858115Y-106392305D01*
X146845696Y-106312952D01*
X146830398Y-106255992D01*
X146811032Y-106213041D01*
X146790079Y-106167869D01*
X146775433Y-106113889D01*
X146773888Y-106103490D01*
X146752487Y-106039388D01*
X146712520Y-105950750D01*
X146661625Y-105851847D01*
X146607441Y-105756947D01*
X146557607Y-105680321D01*
X146519760Y-105636240D01*
X146496477Y-105621538D01*
X146420615Y-105591199D01*
X146332697Y-105571231D01*
X146315188Y-105568500D01*
X146252141Y-105551342D01*
X146222072Y-105531329D01*
X146230068Y-105514727D01*
X146281212Y-105507800D01*
X146294816Y-105505560D01*
X146348733Y-105478835D01*
X146409400Y-105431600D01*
X146432085Y-105410847D01*
X146478958Y-105371158D01*
X146503329Y-105355400D01*
X146504022Y-105355338D01*
X146532303Y-105339633D01*
X146580269Y-105304600D01*
X146618033Y-105281402D01*
X146702814Y-105257321D01*
X146787068Y-105260499D01*
G36*
X146787068Y-105260499D02*
G01*
X146850271Y-105291900D01*
X146878461Y-105313045D01*
X146929997Y-105330000D01*
X146957598Y-105340195D01*
X146955297Y-105381439D01*
X146950103Y-105414610D01*
X146971039Y-105425889D01*
X146978366Y-105426289D01*
X147012248Y-105452908D01*
X147048368Y-105507800D01*
X147074220Y-105561990D01*
X147135276Y-105727262D01*
X147182787Y-105921439D01*
X147217626Y-106149745D01*
X147240666Y-106417401D01*
X147252783Y-106729630D01*
X147259395Y-107049759D01*
X147177297Y-107143264D01*
X147150137Y-107175459D01*
X147110701Y-107228404D01*
X147095200Y-107259052D01*
X147099134Y-107265655D01*
X147137377Y-107283678D01*
X147203150Y-107299218D01*
X147226221Y-107303379D01*
X147302795Y-107321580D01*
X147355550Y-107340444D01*
X147382010Y-107350340D01*
X147400000Y-107340826D01*
X147400315Y-107338858D01*
X147426700Y-107327358D01*
X147482550Y-107328386D01*
X147526286Y-107333647D01*
X147600365Y-107338402D01*
X147661821Y-107332076D01*
X147736550Y-107313110D01*
X147740806Y-107311892D01*
X147831607Y-107286647D01*
X147917458Y-107263807D01*
X148003116Y-107241813D01*
X148005886Y-107364754D01*
X147986829Y-107504331D01*
X147921544Y-107625445D01*
X147809103Y-107728427D01*
X147785862Y-107743405D01*
X147700578Y-107786110D01*
X147622805Y-107810300D01*
X147607512Y-107812616D01*
X147553519Y-107813144D01*
X147512250Y-107789839D01*
X147463891Y-107733071D01*
X147398195Y-107666014D01*
X147333485Y-107641400D01*
X147294592Y-107633919D01*
X147272995Y-107609650D01*
X147270992Y-107602140D01*
X147232882Y-107584142D01*
X147145995Y-107578551D01*
X147100294Y-107577886D01*
X147041848Y-107573352D01*
X147018980Y-107565851D01*
X147017604Y-107564286D01*
X146984081Y-107558564D01*
X146914852Y-107554914D01*
X146822130Y-107554068D01*
X146708423Y-107551096D01*
X146568832Y-107540373D01*
X146447500Y-107524324D01*
X146352059Y-107509689D01*
X146239036Y-107496753D01*
X146149050Y-107491007D01*
X146146059Y-107490955D01*
X146072928Y-107484997D01*
X146034369Y-107463034D01*
X146022090Y-107413779D01*
X146027801Y-107325945D01*
X146036448Y-107291821D01*
X146073264Y-107213944D01*
X146129036Y-107124447D01*
X146193580Y-107037707D01*
X146256713Y-106968104D01*
X146308247Y-106930015D01*
X146312155Y-106928367D01*
X146363027Y-106900382D01*
X146384000Y-106876319D01*
X146384667Y-106873571D01*
X146413563Y-106859664D01*
X146471960Y-106854000D01*
X146479261Y-106854029D01*
X146525882Y-106858571D01*
X146559287Y-106878233D01*
X146590540Y-106923543D01*
X146630710Y-107005030D01*
X146669336Y-107079160D01*
X146709742Y-107141101D01*
X146739600Y-107170146D01*
X146756821Y-107176771D01*
X146805888Y-107197846D01*
X146820599Y-107198956D01*
X146846545Y-107166917D01*
X146867005Y-107095609D01*
X146880748Y-106992623D01*
X146886540Y-106865549D01*
X146883150Y-106721976D01*
X146879064Y-106651709D01*
X146868842Y-106502430D01*
X146858115Y-106392305D01*
X146845696Y-106312952D01*
X146830398Y-106255992D01*
X146811032Y-106213041D01*
X146790079Y-106167869D01*
X146775433Y-106113889D01*
X146773888Y-106103490D01*
X146752487Y-106039388D01*
X146712520Y-105950750D01*
X146661625Y-105851847D01*
X146607441Y-105756947D01*
X146557607Y-105680321D01*
X146519760Y-105636240D01*
X146496477Y-105621538D01*
X146420615Y-105591199D01*
X146332697Y-105571231D01*
X146315188Y-105568500D01*
X146252141Y-105551342D01*
X146222072Y-105531329D01*
X146230068Y-105514727D01*
X146281212Y-105507800D01*
X146294816Y-105505560D01*
X146348733Y-105478835D01*
X146409400Y-105431600D01*
X146432085Y-105410847D01*
X146478958Y-105371158D01*
X146503329Y-105355400D01*
X146504022Y-105355338D01*
X146532303Y-105339633D01*
X146580269Y-105304600D01*
X146618033Y-105281402D01*
X146702814Y-105257321D01*
X146787068Y-105260499D01*
G37*
X145207836Y-105239436D02*
X145259245Y-105252365D01*
X145290594Y-105285866D01*
X145319338Y-105353946D01*
X145343720Y-105445436D01*
X145341430Y-105568578D01*
X145339477Y-105580536D01*
X145330320Y-105664085D01*
X145322951Y-105773789D01*
X145318813Y-105889169D01*
X145318311Y-105913242D01*
X145314467Y-106027748D01*
X145308905Y-106131248D01*
X145302647Y-106203845D01*
X145299023Y-106234511D01*
X145288681Y-106332253D01*
X145279369Y-106432077D01*
X145269754Y-106532440D01*
X145255081Y-106650523D01*
X145240061Y-106736608D01*
X145226122Y-106781324D01*
X145223162Y-106788607D01*
X145239500Y-106803200D01*
X145262750Y-106815765D01*
X145260744Y-106850581D01*
X145229872Y-106889300D01*
X145208862Y-106919473D01*
X145208511Y-106992991D01*
X145213383Y-107015021D01*
X145225811Y-107043584D01*
X145238689Y-107025688D01*
X145239433Y-107023780D01*
X145246970Y-107029115D01*
X145252833Y-107075341D01*
X145255807Y-107153398D01*
X145258407Y-107235726D01*
X145266423Y-107358923D01*
X145277515Y-107463600D01*
X145283331Y-107511714D01*
X145291956Y-107623275D01*
X145293911Y-107720260D01*
X145293785Y-107749913D01*
X145299765Y-107834420D01*
X145312744Y-107896793D01*
X145322444Y-107916132D01*
X145351031Y-107941811D01*
X145401019Y-107959124D01*
X145479733Y-107969351D01*
X145594496Y-107973771D01*
X145752631Y-107973664D01*
X145830854Y-107973837D01*
X145904089Y-107978849D01*
X145944522Y-107991176D01*
X145962558Y-108012758D01*
X145962629Y-108012942D01*
X145964314Y-108042343D01*
X145928817Y-108040969D01*
X145898389Y-108039276D01*
X145865100Y-108064968D01*
X145863327Y-108088738D01*
X145895209Y-108088141D01*
X145921597Y-108084658D01*
X145977600Y-108099696D01*
X145993762Y-108112711D01*
X145995403Y-108136342D01*
X145958550Y-108173038D01*
X145919440Y-108215998D01*
X145901400Y-108258140D01*
X145900873Y-108262960D01*
X145879539Y-108284003D01*
X145821764Y-108299982D01*
X145720371Y-108313075D01*
X145621654Y-108324933D01*
X145536741Y-108338892D01*
X145484084Y-108351922D01*
X145448524Y-108358996D01*
X145396000Y-108351885D01*
X145359442Y-108329952D01*
X145356264Y-108300239D01*
X145359741Y-108291738D01*
X145344099Y-108276400D01*
X145343929Y-108276403D01*
X145329448Y-108299688D01*
X145320642Y-108359028D01*
X145317552Y-108440131D01*
X145320218Y-108528706D01*
X145328681Y-108610461D01*
X145342981Y-108671105D01*
X145351586Y-108691613D01*
X145381287Y-108725489D01*
X145430013Y-108723543D01*
X145454970Y-108719162D01*
X145494570Y-108731628D01*
X145528537Y-108782887D01*
X145530032Y-108785901D01*
X145546434Y-108826532D01*
X145546438Y-108860443D01*
X145524210Y-108893467D01*
X145473915Y-108931437D01*
X145389717Y-108980186D01*
X145265782Y-109045547D01*
X145203438Y-109077407D01*
X145113415Y-109119295D01*
X145043840Y-109142559D01*
X144979445Y-109151664D01*
X144904967Y-109151074D01*
X144899912Y-109150832D01*
X144786907Y-109140135D01*
X144723342Y-109120617D01*
X144708408Y-109090756D01*
X144741296Y-109049036D01*
X144821195Y-108993935D01*
X144860138Y-108967680D01*
X144924502Y-108911252D01*
X144961700Y-108860358D01*
X144964405Y-108852831D01*
X144977653Y-108793436D01*
X144991357Y-108703078D01*
X145004193Y-108595292D01*
X145014838Y-108483612D01*
X145021966Y-108381574D01*
X145024254Y-108302711D01*
X145020378Y-108260559D01*
X145014407Y-108253186D01*
X144965947Y-108229943D01*
X144875451Y-108203735D01*
X144749156Y-108176189D01*
X144593300Y-108148938D01*
X144550625Y-108144159D01*
X144427083Y-108143290D01*
X144296907Y-108156680D01*
X144258498Y-108162498D01*
X144155447Y-108169346D01*
X144090595Y-108153524D01*
X144056870Y-108111750D01*
X144056808Y-108111300D01*
X145774400Y-108111300D01*
X145787100Y-108124000D01*
X145799800Y-108111300D01*
X145787100Y-108098600D01*
X145774400Y-108111300D01*
X144056808Y-108111300D01*
X144047199Y-108040738D01*
X144051235Y-108009056D01*
X144087107Y-107923089D01*
X144151973Y-107827459D01*
X144235882Y-107733898D01*
X144328885Y-107654139D01*
X144421034Y-107599915D01*
X144445463Y-107590017D01*
X144534845Y-107568111D01*
X144609311Y-107583204D01*
X144687666Y-107637982D01*
X144734479Y-107674420D01*
X144810228Y-107724677D01*
X144890238Y-107771375D01*
X144959358Y-107805790D01*
X145002437Y-107819200D01*
X145006545Y-107809447D01*
X145009277Y-107759430D01*
X145007491Y-107676523D01*
X145001237Y-107571550D01*
X144995363Y-107476820D01*
X144988761Y-107335934D01*
X144982514Y-107169864D01*
X144981793Y-107146100D01*
X145037800Y-107146100D01*
X145050500Y-107158800D01*
X145063200Y-107146100D01*
X145050500Y-107133400D01*
X145037800Y-107146100D01*
X144981793Y-107146100D01*
X144977123Y-106992042D01*
X144973087Y-106815900D01*
X144972462Y-106782614D01*
X144968127Y-106575045D01*
X144963094Y-106412192D01*
X144956183Y-106288729D01*
X144946209Y-106199329D01*
X144931992Y-106138666D01*
X144912348Y-106101415D01*
X144886096Y-106082248D01*
X144852053Y-106075839D01*
X144809036Y-106076863D01*
X144764543Y-106073665D01*
X144728585Y-106056275D01*
X144709211Y-106047688D01*
X144665085Y-106068234D01*
X144644071Y-106084461D01*
X144631637Y-106090172D01*
X144653560Y-106060250D01*
X144681294Y-106034241D01*
X144726959Y-106015800D01*
X144770586Y-105996901D01*
X144813651Y-105952630D01*
X144833792Y-105905133D01*
X144828840Y-105896090D01*
X144796500Y-105897986D01*
X144777142Y-105902413D01*
X144758400Y-105891113D01*
X144764592Y-105874265D01*
X144796500Y-105838000D01*
X144810521Y-105820513D01*
X144828774Y-105756167D01*
X144834600Y-105648099D01*
X144834879Y-105588458D01*
X144839233Y-105532655D01*
X144853588Y-105486381D01*
X144883894Y-105437772D01*
X144936101Y-105374966D01*
X145016159Y-105286100D01*
X145038164Y-105264865D01*
X145092538Y-105239106D01*
X145173032Y-105236568D01*
X145207836Y-105239436D01*
G36*
X145207836Y-105239436D02*
G01*
X145259245Y-105252365D01*
X145290594Y-105285866D01*
X145319338Y-105353946D01*
X145343720Y-105445436D01*
X145341430Y-105568578D01*
X145339477Y-105580536D01*
X145330320Y-105664085D01*
X145322951Y-105773789D01*
X145318813Y-105889169D01*
X145318311Y-105913242D01*
X145314467Y-106027748D01*
X145308905Y-106131248D01*
X145302647Y-106203845D01*
X145299023Y-106234511D01*
X145288681Y-106332253D01*
X145279369Y-106432077D01*
X145269754Y-106532440D01*
X145255081Y-106650523D01*
X145240061Y-106736608D01*
X145226122Y-106781324D01*
X145223162Y-106788607D01*
X145239500Y-106803200D01*
X145262750Y-106815765D01*
X145260744Y-106850581D01*
X145229872Y-106889300D01*
X145208862Y-106919473D01*
X145208511Y-106992991D01*
X145213383Y-107015021D01*
X145225811Y-107043584D01*
X145238689Y-107025688D01*
X145239433Y-107023780D01*
X145246970Y-107029115D01*
X145252833Y-107075341D01*
X145255807Y-107153398D01*
X145258407Y-107235726D01*
X145266423Y-107358923D01*
X145277515Y-107463600D01*
X145283331Y-107511714D01*
X145291956Y-107623275D01*
X145293911Y-107720260D01*
X145293785Y-107749913D01*
X145299765Y-107834420D01*
X145312744Y-107896793D01*
X145322444Y-107916132D01*
X145351031Y-107941811D01*
X145401019Y-107959124D01*
X145479733Y-107969351D01*
X145594496Y-107973771D01*
X145752631Y-107973664D01*
X145830854Y-107973837D01*
X145904089Y-107978849D01*
X145944522Y-107991176D01*
X145962558Y-108012758D01*
X145962629Y-108012942D01*
X145964314Y-108042343D01*
X145928817Y-108040969D01*
X145898389Y-108039276D01*
X145865100Y-108064968D01*
X145863327Y-108088738D01*
X145895209Y-108088141D01*
X145921597Y-108084658D01*
X145977600Y-108099696D01*
X145993762Y-108112711D01*
X145995403Y-108136342D01*
X145958550Y-108173038D01*
X145919440Y-108215998D01*
X145901400Y-108258140D01*
X145900873Y-108262960D01*
X145879539Y-108284003D01*
X145821764Y-108299982D01*
X145720371Y-108313075D01*
X145621654Y-108324933D01*
X145536741Y-108338892D01*
X145484084Y-108351922D01*
X145448524Y-108358996D01*
X145396000Y-108351885D01*
X145359442Y-108329952D01*
X145356264Y-108300239D01*
X145359741Y-108291738D01*
X145344099Y-108276400D01*
X145343929Y-108276403D01*
X145329448Y-108299688D01*
X145320642Y-108359028D01*
X145317552Y-108440131D01*
X145320218Y-108528706D01*
X145328681Y-108610461D01*
X145342981Y-108671105D01*
X145351586Y-108691613D01*
X145381287Y-108725489D01*
X145430013Y-108723543D01*
X145454970Y-108719162D01*
X145494570Y-108731628D01*
X145528537Y-108782887D01*
X145530032Y-108785901D01*
X145546434Y-108826532D01*
X145546438Y-108860443D01*
X145524210Y-108893467D01*
X145473915Y-108931437D01*
X145389717Y-108980186D01*
X145265782Y-109045547D01*
X145203438Y-109077407D01*
X145113415Y-109119295D01*
X145043840Y-109142559D01*
X144979445Y-109151664D01*
X144904967Y-109151074D01*
X144899912Y-109150832D01*
X144786907Y-109140135D01*
X144723342Y-109120617D01*
X144708408Y-109090756D01*
X144741296Y-109049036D01*
X144821195Y-108993935D01*
X144860138Y-108967680D01*
X144924502Y-108911252D01*
X144961700Y-108860358D01*
X144964405Y-108852831D01*
X144977653Y-108793436D01*
X144991357Y-108703078D01*
X145004193Y-108595292D01*
X145014838Y-108483612D01*
X145021966Y-108381574D01*
X145024254Y-108302711D01*
X145020378Y-108260559D01*
X145014407Y-108253186D01*
X144965947Y-108229943D01*
X144875451Y-108203735D01*
X144749156Y-108176189D01*
X144593300Y-108148938D01*
X144550625Y-108144159D01*
X144427083Y-108143290D01*
X144296907Y-108156680D01*
X144258498Y-108162498D01*
X144155447Y-108169346D01*
X144090595Y-108153524D01*
X144056870Y-108111750D01*
X144056808Y-108111300D01*
X145774400Y-108111300D01*
X145787100Y-108124000D01*
X145799800Y-108111300D01*
X145787100Y-108098600D01*
X145774400Y-108111300D01*
X144056808Y-108111300D01*
X144047199Y-108040738D01*
X144051235Y-108009056D01*
X144087107Y-107923089D01*
X144151973Y-107827459D01*
X144235882Y-107733898D01*
X144328885Y-107654139D01*
X144421034Y-107599915D01*
X144445463Y-107590017D01*
X144534845Y-107568111D01*
X144609311Y-107583204D01*
X144687666Y-107637982D01*
X144734479Y-107674420D01*
X144810228Y-107724677D01*
X144890238Y-107771375D01*
X144959358Y-107805790D01*
X145002437Y-107819200D01*
X145006545Y-107809447D01*
X145009277Y-107759430D01*
X145007491Y-107676523D01*
X145001237Y-107571550D01*
X144995363Y-107476820D01*
X144988761Y-107335934D01*
X144982514Y-107169864D01*
X144981793Y-107146100D01*
X145037800Y-107146100D01*
X145050500Y-107158800D01*
X145063200Y-107146100D01*
X145050500Y-107133400D01*
X145037800Y-107146100D01*
X144981793Y-107146100D01*
X144977123Y-106992042D01*
X144973087Y-106815900D01*
X144972462Y-106782614D01*
X144968127Y-106575045D01*
X144963094Y-106412192D01*
X144956183Y-106288729D01*
X144946209Y-106199329D01*
X144931992Y-106138666D01*
X144912348Y-106101415D01*
X144886096Y-106082248D01*
X144852053Y-106075839D01*
X144809036Y-106076863D01*
X144764543Y-106073665D01*
X144728585Y-106056275D01*
X144709211Y-106047688D01*
X144665085Y-106068234D01*
X144644071Y-106084461D01*
X144631637Y-106090172D01*
X144653560Y-106060250D01*
X144681294Y-106034241D01*
X144726959Y-106015800D01*
X144770586Y-105996901D01*
X144813651Y-105952630D01*
X144833792Y-105905133D01*
X144828840Y-105896090D01*
X144796500Y-105897986D01*
X144777142Y-105902413D01*
X144758400Y-105891113D01*
X144764592Y-105874265D01*
X144796500Y-105838000D01*
X144810521Y-105820513D01*
X144828774Y-105756167D01*
X144834600Y-105648099D01*
X144834879Y-105588458D01*
X144839233Y-105532655D01*
X144853588Y-105486381D01*
X144883894Y-105437772D01*
X144936101Y-105374966D01*
X145016159Y-105286100D01*
X145038164Y-105264865D01*
X145092538Y-105239106D01*
X145173032Y-105236568D01*
X145207836Y-105239436D01*
G37*
X150003500Y-103619015D02*
X150021738Y-103627240D01*
X150041600Y-103643618D01*
X150037388Y-103648166D01*
X150003500Y-103653600D01*
X149985985Y-103650829D01*
X149965400Y-103628998D01*
X149970793Y-103618487D01*
X150003500Y-103619015D01*
G36*
X150003500Y-103619015D02*
G01*
X150021738Y-103627240D01*
X150041600Y-103643618D01*
X150037388Y-103648166D01*
X150003500Y-103653600D01*
X149985985Y-103650829D01*
X149965400Y-103628998D01*
X149970793Y-103618487D01*
X150003500Y-103619015D01*
G37*
X149660600Y-103564700D02*
X149647900Y-103577400D01*
X149635200Y-103564700D01*
X149647900Y-103552000D01*
X149660600Y-103564700D01*
G36*
X149660600Y-103564700D02*
G01*
X149647900Y-103577400D01*
X149635200Y-103564700D01*
X149647900Y-103552000D01*
X149660600Y-103564700D01*
G37*
X150905200Y-102904300D02*
X150892500Y-102917000D01*
X150879800Y-102904300D01*
X150892500Y-102891600D01*
X150905200Y-102904300D01*
G36*
X150905200Y-102904300D02*
G01*
X150892500Y-102917000D01*
X150879800Y-102904300D01*
X150892500Y-102891600D01*
X150905200Y-102904300D01*
G37*
X148948909Y-102683130D02*
X149003843Y-102760018D01*
X149034202Y-102875358D01*
X149035531Y-102885691D01*
X149043513Y-102925979D01*
X149059259Y-102964300D01*
X149088407Y-103008227D01*
X149136594Y-103065330D01*
X149209455Y-103143183D01*
X149312630Y-103249356D01*
X149341430Y-103275177D01*
X149421547Y-103331626D01*
X149509480Y-103379728D01*
X149559792Y-103404209D01*
X149614104Y-103435171D01*
X149635200Y-103454051D01*
X149645212Y-103464113D01*
X149691311Y-103488022D01*
X149762200Y-103516367D01*
X149811264Y-103535814D01*
X149867359Y-103564370D01*
X149889200Y-103585136D01*
X149881103Y-103595106D01*
X149844750Y-103590220D01*
X149776659Y-103563588D01*
X149703569Y-103540276D01*
X149655732Y-103535317D01*
X149620881Y-103546304D01*
X149608281Y-103558830D01*
X149620397Y-103578200D01*
X149668801Y-103605707D01*
X149759363Y-103645558D01*
X149781107Y-103654768D01*
X149859843Y-103690738D01*
X149912087Y-103718921D01*
X149927466Y-103733868D01*
X149927065Y-103734329D01*
X149939599Y-103753008D01*
X149984488Y-103779292D01*
X150042560Y-103806909D01*
X150098405Y-103834364D01*
X150099622Y-103834979D01*
X150160948Y-103855748D01*
X150198939Y-103849399D01*
X150202786Y-103817662D01*
X150198933Y-103796302D01*
X150219458Y-103785912D01*
X150232834Y-103786250D01*
X150262791Y-103761550D01*
X150257403Y-103740034D01*
X150211534Y-103729800D01*
X150168339Y-103722359D01*
X150136490Y-103698050D01*
X150141611Y-103683738D01*
X150177406Y-103673875D01*
X150250954Y-103669076D01*
X150368722Y-103668519D01*
X150386156Y-103668677D01*
X150509283Y-103670046D01*
X150590617Y-103672590D01*
X150638223Y-103677929D01*
X150660164Y-103687686D01*
X150664504Y-103703480D01*
X150659309Y-103726934D01*
X150657033Y-103756493D01*
X150674387Y-103791933D01*
X150688315Y-103806829D01*
X150702000Y-103854746D01*
X150701504Y-103862651D01*
X150686297Y-103887545D01*
X150641843Y-103903628D01*
X150557366Y-103915421D01*
X150503139Y-103919094D01*
X150391877Y-103918259D01*
X150297016Y-103908104D01*
X150224782Y-103894577D01*
X150114279Y-103876489D01*
X150044668Y-103870144D01*
X150010335Y-103875219D01*
X150005668Y-103891393D01*
X150012495Y-103900583D01*
X150056693Y-103928331D01*
X150124814Y-103954571D01*
X150197148Y-103980579D01*
X150303303Y-104044202D01*
X150363519Y-104123343D01*
X150376417Y-104215672D01*
X150340616Y-104318861D01*
X150326280Y-104342491D01*
X150281442Y-104392218D01*
X150227851Y-104412495D01*
X150160291Y-104401817D01*
X150073548Y-104358678D01*
X149962405Y-104281570D01*
X149821648Y-104168989D01*
X149774531Y-104131350D01*
X149691121Y-104076895D01*
X149633665Y-104061044D01*
X149598878Y-104082523D01*
X149597642Y-104100658D01*
X149622779Y-104136433D01*
X149642683Y-104158224D01*
X149660600Y-104202811D01*
X149663570Y-104217582D01*
X149692350Y-104238189D01*
X149706666Y-104242662D01*
X149686000Y-104263200D01*
X149663463Y-104282119D01*
X149682161Y-104288212D01*
X149688047Y-104288708D01*
X149738292Y-104302896D01*
X149804602Y-104330445D01*
X149840561Y-104349005D01*
X149870285Y-104374893D01*
X149859241Y-104396341D01*
X149842653Y-104411906D01*
X149869365Y-104406395D01*
X149902183Y-104405228D01*
X149972608Y-104417511D01*
X150057491Y-104442099D01*
X150122734Y-104462797D01*
X150203687Y-104483703D01*
X150257539Y-104491800D01*
X150312845Y-104506257D01*
X150360153Y-104542400D01*
X150385423Y-104586418D01*
X150376279Y-104624481D01*
X150360406Y-104648238D01*
X150346400Y-104705622D01*
X150337320Y-104742380D01*
X150284628Y-104808584D01*
X150188405Y-104879099D01*
X150052600Y-104950630D01*
X149975362Y-104989364D01*
X149903657Y-105032042D01*
X149862459Y-105064915D01*
X149848003Y-105078895D01*
X149789609Y-105118385D01*
X149714581Y-105156280D01*
X149679961Y-105170778D01*
X149622819Y-105189224D01*
X149583206Y-105186681D01*
X149541406Y-105164030D01*
X149511908Y-105142920D01*
X149473338Y-105097013D01*
X149465194Y-105037263D01*
X149483163Y-104947649D01*
X149512825Y-104872057D01*
X149592531Y-104760028D01*
X149698700Y-104675991D01*
X149715949Y-104665912D01*
X149732791Y-104646808D01*
X149720146Y-104619385D01*
X149674897Y-104569741D01*
X149662887Y-104557107D01*
X149626240Y-104514439D01*
X149622790Y-104495173D01*
X149649497Y-104489738D01*
X149670141Y-104487988D01*
X149674905Y-104479186D01*
X149665072Y-104473952D01*
X149981259Y-104473952D01*
X149984450Y-104483222D01*
X149995947Y-104486577D01*
X150047950Y-104483222D01*
X150052258Y-104474403D01*
X150016200Y-104470411D01*
X149981259Y-104473952D01*
X149665072Y-104473952D01*
X149635082Y-104457988D01*
X149585561Y-104433249D01*
X149533482Y-104403572D01*
X149511915Y-104391424D01*
X149470100Y-104377376D01*
X149460252Y-104376347D01*
X149408066Y-104368252D01*
X149335163Y-104355154D01*
X149287493Y-104347707D01*
X149225367Y-104349561D01*
X149182183Y-104373715D01*
X149175140Y-104379644D01*
X149124261Y-104397232D01*
X149085479Y-104371414D01*
X149070050Y-104308714D01*
X149070645Y-104296968D01*
X149094832Y-104217183D01*
X149145146Y-104131334D01*
X149208815Y-104057881D01*
X149267293Y-104019111D01*
X149826723Y-104019111D01*
X149847633Y-104063985D01*
X149891272Y-104121980D01*
X149909748Y-104142404D01*
X149966213Y-104195099D01*
X150003122Y-104213105D01*
X150015142Y-104193350D01*
X150011715Y-104181631D01*
X149984492Y-104140378D01*
X149940257Y-104090037D01*
X149891217Y-104042781D01*
X149849576Y-104010785D01*
X149827539Y-104006223D01*
X149826723Y-104019111D01*
X149267293Y-104019111D01*
X149273065Y-104015284D01*
X149292113Y-104007525D01*
X149342523Y-103965169D01*
X149376578Y-103887608D01*
X149381672Y-103872145D01*
X149410715Y-103811274D01*
X149843469Y-103811274D01*
X149863800Y-103831400D01*
X149885558Y-103843376D01*
X149927300Y-103856023D01*
X149934930Y-103851527D01*
X149914600Y-103831400D01*
X149892841Y-103819425D01*
X149851100Y-103806778D01*
X149843469Y-103811274D01*
X149410715Y-103811274D01*
X149420723Y-103790297D01*
X149468440Y-103726413D01*
X149529661Y-103667490D01*
X149436380Y-103623307D01*
X149416493Y-103614060D01*
X149357482Y-103588818D01*
X149324744Y-103578262D01*
X149299809Y-103571380D01*
X149236279Y-103544700D01*
X149150391Y-103503813D01*
X149087203Y-103471567D01*
X149432000Y-103471567D01*
X149432048Y-103474114D01*
X149452201Y-103509854D01*
X149500112Y-103508616D01*
X149523783Y-103493627D01*
X149503979Y-103472655D01*
X149494575Y-103466981D01*
X149448999Y-103451778D01*
X149432000Y-103471567D01*
X149087203Y-103471567D01*
X149054779Y-103455020D01*
X149030708Y-103441934D01*
X149364266Y-103441934D01*
X149367989Y-103444974D01*
X149398133Y-103441934D01*
X149402107Y-103434294D01*
X149381200Y-103425000D01*
X149367753Y-103426834D01*
X149364266Y-103441934D01*
X149030708Y-103441934D01*
X148983987Y-103416534D01*
X149288066Y-103416534D01*
X149291789Y-103419574D01*
X149321933Y-103416534D01*
X149325907Y-103408894D01*
X149305000Y-103399600D01*
X149291553Y-103401434D01*
X149288066Y-103416534D01*
X148983987Y-103416534D01*
X148962076Y-103404622D01*
X148884918Y-103358919D01*
X148833747Y-103327608D01*
X148732602Y-103269897D01*
X148643618Y-103223651D01*
X148592463Y-103198619D01*
X148509866Y-103152502D01*
X148487016Y-103132900D01*
X149000200Y-103132900D01*
X149012900Y-103145600D01*
X149025600Y-103132900D01*
X149012900Y-103120200D01*
X149000200Y-103132900D01*
X148487016Y-103132900D01*
X148463655Y-103112859D01*
X148446184Y-103071696D01*
X148449806Y-103021019D01*
X148462855Y-102978067D01*
X148522196Y-102876345D01*
X148615623Y-102774789D01*
X148733500Y-102684819D01*
X148786677Y-102658247D01*
X148874739Y-102648078D01*
X148948909Y-102683130D01*
G36*
X148948909Y-102683130D02*
G01*
X149003843Y-102760018D01*
X149034202Y-102875358D01*
X149035531Y-102885691D01*
X149043513Y-102925979D01*
X149059259Y-102964300D01*
X149088407Y-103008227D01*
X149136594Y-103065330D01*
X149209455Y-103143183D01*
X149312630Y-103249356D01*
X149341430Y-103275177D01*
X149421547Y-103331626D01*
X149509480Y-103379728D01*
X149559792Y-103404209D01*
X149614104Y-103435171D01*
X149635200Y-103454051D01*
X149645212Y-103464113D01*
X149691311Y-103488022D01*
X149762200Y-103516367D01*
X149811264Y-103535814D01*
X149867359Y-103564370D01*
X149889200Y-103585136D01*
X149881103Y-103595106D01*
X149844750Y-103590220D01*
X149776659Y-103563588D01*
X149703569Y-103540276D01*
X149655732Y-103535317D01*
X149620881Y-103546304D01*
X149608281Y-103558830D01*
X149620397Y-103578200D01*
X149668801Y-103605707D01*
X149759363Y-103645558D01*
X149781107Y-103654768D01*
X149859843Y-103690738D01*
X149912087Y-103718921D01*
X149927466Y-103733868D01*
X149927065Y-103734329D01*
X149939599Y-103753008D01*
X149984488Y-103779292D01*
X150042560Y-103806909D01*
X150098405Y-103834364D01*
X150099622Y-103834979D01*
X150160948Y-103855748D01*
X150198939Y-103849399D01*
X150202786Y-103817662D01*
X150198933Y-103796302D01*
X150219458Y-103785912D01*
X150232834Y-103786250D01*
X150262791Y-103761550D01*
X150257403Y-103740034D01*
X150211534Y-103729800D01*
X150168339Y-103722359D01*
X150136490Y-103698050D01*
X150141611Y-103683738D01*
X150177406Y-103673875D01*
X150250954Y-103669076D01*
X150368722Y-103668519D01*
X150386156Y-103668677D01*
X150509283Y-103670046D01*
X150590617Y-103672590D01*
X150638223Y-103677929D01*
X150660164Y-103687686D01*
X150664504Y-103703480D01*
X150659309Y-103726934D01*
X150657033Y-103756493D01*
X150674387Y-103791933D01*
X150688315Y-103806829D01*
X150702000Y-103854746D01*
X150701504Y-103862651D01*
X150686297Y-103887545D01*
X150641843Y-103903628D01*
X150557366Y-103915421D01*
X150503139Y-103919094D01*
X150391877Y-103918259D01*
X150297016Y-103908104D01*
X150224782Y-103894577D01*
X150114279Y-103876489D01*
X150044668Y-103870144D01*
X150010335Y-103875219D01*
X150005668Y-103891393D01*
X150012495Y-103900583D01*
X150056693Y-103928331D01*
X150124814Y-103954571D01*
X150197148Y-103980579D01*
X150303303Y-104044202D01*
X150363519Y-104123343D01*
X150376417Y-104215672D01*
X150340616Y-104318861D01*
X150326280Y-104342491D01*
X150281442Y-104392218D01*
X150227851Y-104412495D01*
X150160291Y-104401817D01*
X150073548Y-104358678D01*
X149962405Y-104281570D01*
X149821648Y-104168989D01*
X149774531Y-104131350D01*
X149691121Y-104076895D01*
X149633665Y-104061044D01*
X149598878Y-104082523D01*
X149597642Y-104100658D01*
X149622779Y-104136433D01*
X149642683Y-104158224D01*
X149660600Y-104202811D01*
X149663570Y-104217582D01*
X149692350Y-104238189D01*
X149706666Y-104242662D01*
X149686000Y-104263200D01*
X149663463Y-104282119D01*
X149682161Y-104288212D01*
X149688047Y-104288708D01*
X149738292Y-104302896D01*
X149804602Y-104330445D01*
X149840561Y-104349005D01*
X149870285Y-104374893D01*
X149859241Y-104396341D01*
X149842653Y-104411906D01*
X149869365Y-104406395D01*
X149902183Y-104405228D01*
X149972608Y-104417511D01*
X150057491Y-104442099D01*
X150122734Y-104462797D01*
X150203687Y-104483703D01*
X150257539Y-104491800D01*
X150312845Y-104506257D01*
X150360153Y-104542400D01*
X150385423Y-104586418D01*
X150376279Y-104624481D01*
X150360406Y-104648238D01*
X150346400Y-104705622D01*
X150337320Y-104742380D01*
X150284628Y-104808584D01*
X150188405Y-104879099D01*
X150052600Y-104950630D01*
X149975362Y-104989364D01*
X149903657Y-105032042D01*
X149862459Y-105064915D01*
X149848003Y-105078895D01*
X149789609Y-105118385D01*
X149714581Y-105156280D01*
X149679961Y-105170778D01*
X149622819Y-105189224D01*
X149583206Y-105186681D01*
X149541406Y-105164030D01*
X149511908Y-105142920D01*
X149473338Y-105097013D01*
X149465194Y-105037263D01*
X149483163Y-104947649D01*
X149512825Y-104872057D01*
X149592531Y-104760028D01*
X149698700Y-104675991D01*
X149715949Y-104665912D01*
X149732791Y-104646808D01*
X149720146Y-104619385D01*
X149674897Y-104569741D01*
X149662887Y-104557107D01*
X149626240Y-104514439D01*
X149622790Y-104495173D01*
X149649497Y-104489738D01*
X149670141Y-104487988D01*
X149674905Y-104479186D01*
X149665072Y-104473952D01*
X149981259Y-104473952D01*
X149984450Y-104483222D01*
X149995947Y-104486577D01*
X150047950Y-104483222D01*
X150052258Y-104474403D01*
X150016200Y-104470411D01*
X149981259Y-104473952D01*
X149665072Y-104473952D01*
X149635082Y-104457988D01*
X149585561Y-104433249D01*
X149533482Y-104403572D01*
X149511915Y-104391424D01*
X149470100Y-104377376D01*
X149460252Y-104376347D01*
X149408066Y-104368252D01*
X149335163Y-104355154D01*
X149287493Y-104347707D01*
X149225367Y-104349561D01*
X149182183Y-104373715D01*
X149175140Y-104379644D01*
X149124261Y-104397232D01*
X149085479Y-104371414D01*
X149070050Y-104308714D01*
X149070645Y-104296968D01*
X149094832Y-104217183D01*
X149145146Y-104131334D01*
X149208815Y-104057881D01*
X149267293Y-104019111D01*
X149826723Y-104019111D01*
X149847633Y-104063985D01*
X149891272Y-104121980D01*
X149909748Y-104142404D01*
X149966213Y-104195099D01*
X150003122Y-104213105D01*
X150015142Y-104193350D01*
X150011715Y-104181631D01*
X149984492Y-104140378D01*
X149940257Y-104090037D01*
X149891217Y-104042781D01*
X149849576Y-104010785D01*
X149827539Y-104006223D01*
X149826723Y-104019111D01*
X149267293Y-104019111D01*
X149273065Y-104015284D01*
X149292113Y-104007525D01*
X149342523Y-103965169D01*
X149376578Y-103887608D01*
X149381672Y-103872145D01*
X149410715Y-103811274D01*
X149843469Y-103811274D01*
X149863800Y-103831400D01*
X149885558Y-103843376D01*
X149927300Y-103856023D01*
X149934930Y-103851527D01*
X149914600Y-103831400D01*
X149892841Y-103819425D01*
X149851100Y-103806778D01*
X149843469Y-103811274D01*
X149410715Y-103811274D01*
X149420723Y-103790297D01*
X149468440Y-103726413D01*
X149529661Y-103667490D01*
X149436380Y-103623307D01*
X149416493Y-103614060D01*
X149357482Y-103588818D01*
X149324744Y-103578262D01*
X149299809Y-103571380D01*
X149236279Y-103544700D01*
X149150391Y-103503813D01*
X149087203Y-103471567D01*
X149432000Y-103471567D01*
X149432048Y-103474114D01*
X149452201Y-103509854D01*
X149500112Y-103508616D01*
X149523783Y-103493627D01*
X149503979Y-103472655D01*
X149494575Y-103466981D01*
X149448999Y-103451778D01*
X149432000Y-103471567D01*
X149087203Y-103471567D01*
X149054779Y-103455020D01*
X149030708Y-103441934D01*
X149364266Y-103441934D01*
X149367989Y-103444974D01*
X149398133Y-103441934D01*
X149402107Y-103434294D01*
X149381200Y-103425000D01*
X149367753Y-103426834D01*
X149364266Y-103441934D01*
X149030708Y-103441934D01*
X148983987Y-103416534D01*
X149288066Y-103416534D01*
X149291789Y-103419574D01*
X149321933Y-103416534D01*
X149325907Y-103408894D01*
X149305000Y-103399600D01*
X149291553Y-103401434D01*
X149288066Y-103416534D01*
X148983987Y-103416534D01*
X148962076Y-103404622D01*
X148884918Y-103358919D01*
X148833747Y-103327608D01*
X148732602Y-103269897D01*
X148643618Y-103223651D01*
X148592463Y-103198619D01*
X148509866Y-103152502D01*
X148487016Y-103132900D01*
X149000200Y-103132900D01*
X149012900Y-103145600D01*
X149025600Y-103132900D01*
X149012900Y-103120200D01*
X149000200Y-103132900D01*
X148487016Y-103132900D01*
X148463655Y-103112859D01*
X148446184Y-103071696D01*
X148449806Y-103021019D01*
X148462855Y-102978067D01*
X148522196Y-102876345D01*
X148615623Y-102774789D01*
X148733500Y-102684819D01*
X148786677Y-102658247D01*
X148874739Y-102648078D01*
X148948909Y-102683130D01*
G37*
X151313787Y-102360145D02*
X151410735Y-102367966D01*
X151471323Y-102386048D01*
X151502787Y-102418377D01*
X151512362Y-102468946D01*
X151507283Y-102541743D01*
X151496518Y-102616779D01*
X151471504Y-102740310D01*
X151439802Y-102859124D01*
X151404583Y-102964172D01*
X151369017Y-103046404D01*
X151336274Y-103096770D01*
X151309526Y-103106219D01*
X151302848Y-103103649D01*
X151274840Y-103118031D01*
X151271298Y-103127345D01*
X151285785Y-103158044D01*
X151301941Y-103181564D01*
X151311600Y-103235106D01*
X151328223Y-103289560D01*
X151376082Y-103327811D01*
X151437544Y-103328787D01*
X151439340Y-103328109D01*
X151484160Y-103300858D01*
X151538876Y-103256027D01*
X151593851Y-103211994D01*
X151680812Y-103159931D01*
X151764872Y-103125543D01*
X151828726Y-103117123D01*
X151854854Y-103116608D01*
X151858977Y-103096867D01*
X151858108Y-103078022D01*
X151886748Y-103069897D01*
X151932070Y-103077814D01*
X151976902Y-103101150D01*
X151990806Y-103116939D01*
X152024001Y-103179725D01*
X152058985Y-103270739D01*
X152091000Y-103375255D01*
X152115284Y-103478546D01*
X152127081Y-103565883D01*
X152127266Y-103622398D01*
X152099960Y-103792691D01*
X152036590Y-103966587D01*
X151943605Y-104129042D01*
X151827451Y-104265011D01*
X151825089Y-104267226D01*
X151764084Y-104326466D01*
X151735905Y-104362666D01*
X151735490Y-104386158D01*
X151757782Y-104407272D01*
X151791752Y-104426581D01*
X151845621Y-104441000D01*
X151866463Y-104442939D01*
X151905075Y-104458743D01*
X151932555Y-104473551D01*
X151995670Y-104499085D01*
X152078956Y-104528593D01*
X152166631Y-104562238D01*
X152235878Y-104604381D01*
X152279490Y-104656900D01*
X152306432Y-104720559D01*
X152325000Y-104839313D01*
X152314919Y-104961378D01*
X152276364Y-105064006D01*
X152225128Y-105146907D01*
X152282714Y-105216375D01*
X152287207Y-105221746D01*
X152348295Y-105289848D01*
X152414014Y-105357082D01*
X152487729Y-105428320D01*
X152469973Y-105787039D01*
X152466770Y-105848067D01*
X152455387Y-106012364D01*
X152441639Y-106132008D01*
X152424626Y-106211678D01*
X152403451Y-106256049D01*
X152377214Y-106269800D01*
X152354302Y-106276760D01*
X152311046Y-106308125D01*
X152299795Y-106317244D01*
X152255264Y-106333772D01*
X152180416Y-106341256D01*
X152065211Y-106341042D01*
X152019460Y-106340114D01*
X151918500Y-106342482D01*
X151837006Y-106356076D01*
X151764356Y-106386263D01*
X151689926Y-106438409D01*
X151603096Y-106517881D01*
X151493243Y-106630047D01*
X151461703Y-106663187D01*
X151406563Y-106724980D01*
X151379777Y-106766451D01*
X151375717Y-106798478D01*
X151388752Y-106831937D01*
X151402936Y-106857155D01*
X151458114Y-106937101D01*
X151525755Y-107017987D01*
X151595604Y-107089074D01*
X151657408Y-107139624D01*
X151700914Y-107158895D01*
X151738063Y-107164466D01*
X151818829Y-107198813D01*
X151895919Y-107252689D01*
X151947187Y-107312298D01*
X151961143Y-107364727D01*
X151964766Y-107459708D01*
X151955363Y-107578728D01*
X151933400Y-107708465D01*
X151924905Y-107738159D01*
X151884209Y-107819781D01*
X151826409Y-107895010D01*
X151763286Y-107950174D01*
X151706625Y-107971601D01*
X151687721Y-107971422D01*
X151577218Y-107959129D01*
X151508489Y-107925956D01*
X151476641Y-107869736D01*
X151456039Y-107814569D01*
X151418110Y-107761844D01*
X151378385Y-107736806D01*
X151291048Y-107698232D01*
X151174500Y-107656250D01*
X151040485Y-107614265D01*
X150900749Y-107575682D01*
X150767036Y-107543907D01*
X150651092Y-107522345D01*
X150564660Y-107514400D01*
X150516417Y-107508080D01*
X150450334Y-107476024D01*
X150409883Y-107426832D01*
X150407501Y-107371793D01*
X150420605Y-107344622D01*
X150456583Y-107281504D01*
X150503357Y-107206368D01*
X150530579Y-107166946D01*
X150603414Y-107090316D01*
X150690688Y-107042620D01*
X150709484Y-107035767D01*
X150805466Y-107016198D01*
X150891805Y-107033517D01*
X150986946Y-107090717D01*
X151018883Y-107112713D01*
X151059902Y-107129678D01*
X151067651Y-107108870D01*
X151042140Y-107050693D01*
X150983380Y-106955552D01*
X150975767Y-106943977D01*
X150929058Y-106867053D01*
X150899328Y-106807521D01*
X150892718Y-106777447D01*
X150893861Y-106767448D01*
X150877927Y-106722841D01*
X150842119Y-106661702D01*
X150825056Y-106635538D01*
X150791484Y-106576131D01*
X150778091Y-106539306D01*
X150771837Y-106519356D01*
X150743171Y-106465442D01*
X150699141Y-106396800D01*
X150665667Y-106350892D01*
X150639956Y-106322612D01*
X150636331Y-106330543D01*
X150640010Y-106342029D01*
X150641176Y-106364449D01*
X150613346Y-106346205D01*
X150592555Y-106323379D01*
X150579644Y-106285462D01*
X150575129Y-106229854D01*
X150548318Y-106169325D01*
X150510533Y-106133244D01*
X150490442Y-106117753D01*
X150473400Y-106070386D01*
X150469163Y-106053975D01*
X150438498Y-106003013D01*
X150388325Y-105939920D01*
X150330749Y-105878171D01*
X150277876Y-105831239D01*
X150241811Y-105812600D01*
X150226332Y-105793463D01*
X150219011Y-105742750D01*
X150218770Y-105729720D01*
X150212479Y-105695800D01*
X150196170Y-105708359D01*
X150195022Y-105710101D01*
X150173316Y-105722206D01*
X150137474Y-105704053D01*
X150078362Y-105651209D01*
X150043775Y-105620668D01*
X149977011Y-105575979D01*
X149924902Y-105558600D01*
X149886608Y-105554002D01*
X149853205Y-105536607D01*
X149828981Y-105525212D01*
X149776388Y-105526699D01*
X149714010Y-105527973D01*
X149638241Y-105512667D01*
X149633888Y-105511176D01*
X149571521Y-105498194D01*
X149543454Y-105509769D01*
X149555910Y-105543563D01*
X149561191Y-105551586D01*
X149584852Y-105602381D01*
X149610489Y-105672900D01*
X149617987Y-105694575D01*
X149647527Y-105760783D01*
X149675169Y-105799900D01*
X149695537Y-105829563D01*
X149730341Y-105899002D01*
X149774281Y-105997317D01*
X149823378Y-106114507D01*
X149873655Y-106240576D01*
X149921131Y-106365524D01*
X149961829Y-106479355D01*
X149991770Y-106572070D01*
X150006974Y-106633670D01*
X150010957Y-106657631D01*
X150025991Y-106725504D01*
X150040492Y-106765100D01*
X150047033Y-106777435D01*
X150068186Y-106831139D01*
X150092400Y-106904800D01*
X150103075Y-106938198D01*
X150129383Y-107008351D01*
X150150885Y-107050850D01*
X150160210Y-107070930D01*
X150144972Y-107118564D01*
X150140826Y-107123762D01*
X150132679Y-107152243D01*
X150169176Y-107171684D01*
X150200023Y-107185867D01*
X150208525Y-107203542D01*
X150206962Y-107225661D01*
X150227103Y-107271073D01*
X150236402Y-107287800D01*
X150265759Y-107356402D01*
X150292999Y-107438200D01*
X150294872Y-107444589D01*
X150326102Y-107531329D01*
X150372321Y-107639324D01*
X150426819Y-107754866D01*
X150482882Y-107864248D01*
X150533797Y-107953762D01*
X150572854Y-108009700D01*
X150604984Y-108051838D01*
X150634380Y-108106155D01*
X150666797Y-108145334D01*
X150725028Y-108177780D01*
X150780929Y-108205350D01*
X150811882Y-108235948D01*
X150805453Y-108272043D01*
X150767147Y-108328195D01*
X150706433Y-108391144D01*
X150633909Y-108450026D01*
X150560172Y-108493977D01*
X150549468Y-108499021D01*
X150455874Y-108547130D01*
X150367268Y-108597943D01*
X150332018Y-108618957D01*
X150280705Y-108640272D01*
X150228362Y-108640462D01*
X150151368Y-108622178D01*
X150090576Y-108606599D01*
X149978888Y-108580884D01*
X149869029Y-108558280D01*
X149791258Y-108542774D01*
X149716898Y-108526287D01*
X149675294Y-108514951D01*
X149656044Y-108518552D01*
X149613242Y-108559007D01*
X149559421Y-108636828D01*
X149552519Y-108648123D01*
X149470177Y-108771448D01*
X149398790Y-108852818D01*
X149332551Y-108897659D01*
X149265654Y-108911400D01*
X149265578Y-108911400D01*
X149219639Y-108908406D01*
X149192173Y-108891422D01*
X149174041Y-108848444D01*
X149156106Y-108767464D01*
X149145596Y-108709141D01*
X149132370Y-108611733D01*
X149127200Y-108536433D01*
X149116952Y-108456669D01*
X149091092Y-108381920D01*
X149062642Y-108326386D01*
X149039481Y-108276400D01*
X149028667Y-108252014D01*
X148990785Y-108180405D01*
X148943625Y-108102572D01*
X148895568Y-108031232D01*
X148854992Y-107979103D01*
X148830277Y-107958900D01*
X148809034Y-107946919D01*
X148763294Y-107906628D01*
X148706997Y-107849982D01*
X148652046Y-107789606D01*
X148619785Y-107749777D01*
X149111329Y-107749777D01*
X149127709Y-107781714D01*
X149156141Y-107805869D01*
X149175852Y-107803156D01*
X149166344Y-107770090D01*
X149159818Y-107761694D01*
X149122590Y-107743000D01*
X149111329Y-107749777D01*
X148619785Y-107749777D01*
X148610345Y-107738121D01*
X148594343Y-107709134D01*
X149211866Y-107709134D01*
X149215589Y-107712174D01*
X149245733Y-107709134D01*
X149249707Y-107701494D01*
X149228800Y-107692200D01*
X149215353Y-107694034D01*
X149211866Y-107709134D01*
X148594343Y-107709134D01*
X148593800Y-107708150D01*
X148598254Y-107702986D01*
X148630046Y-107707704D01*
X148654519Y-107707321D01*
X148652796Y-107670000D01*
X148652780Y-107669938D01*
X148649324Y-107645721D01*
X148660426Y-107630772D01*
X148695141Y-107623080D01*
X148762527Y-107620636D01*
X148871641Y-107621429D01*
X148910666Y-107622137D01*
X149018190Y-107627531D01*
X149078189Y-107637669D01*
X149093077Y-107652894D01*
X149095003Y-107668922D01*
X149128220Y-107681315D01*
X149151785Y-107676951D01*
X149159268Y-107657041D01*
X149158065Y-107645734D01*
X149186533Y-107648987D01*
X149210157Y-107653424D01*
X149228800Y-107636418D01*
X149235620Y-107628630D01*
X149265495Y-107646653D01*
X149312262Y-107691305D01*
X149368375Y-107754003D01*
X149426289Y-107826166D01*
X149478455Y-107899210D01*
X149517329Y-107964554D01*
X149548753Y-108020511D01*
X149595058Y-108086520D01*
X149632895Y-108122767D01*
X149641930Y-108128464D01*
X149689228Y-108173893D01*
X149736322Y-108237527D01*
X149767066Y-108280008D01*
X149828369Y-108328831D01*
X149921002Y-108364849D01*
X150003643Y-108388162D01*
X150077999Y-108402306D01*
X150120142Y-108395194D01*
X150138944Y-108364563D01*
X150143279Y-108308150D01*
X150141257Y-108277145D01*
X150125810Y-108183529D01*
X150097203Y-108055393D01*
X150057886Y-107901685D01*
X150010310Y-107731351D01*
X149956924Y-107553338D01*
X149956654Y-107552500D01*
X150067000Y-107552500D01*
X150079700Y-107565200D01*
X150092400Y-107552500D01*
X150079700Y-107539800D01*
X150067000Y-107552500D01*
X149956654Y-107552500D01*
X149915881Y-107425500D01*
X150016200Y-107425500D01*
X150028900Y-107438200D01*
X150041600Y-107425500D01*
X150028900Y-107412800D01*
X150016200Y-107425500D01*
X149915881Y-107425500D01*
X149900180Y-107376595D01*
X149842527Y-107210068D01*
X149810795Y-107119124D01*
X149766402Y-106976339D01*
X149751920Y-106917500D01*
X149787600Y-106917500D01*
X149800300Y-106930200D01*
X149813000Y-106917500D01*
X149839177Y-106917500D01*
X149842306Y-106934696D01*
X149863800Y-106981000D01*
X149877940Y-106998244D01*
X149888422Y-106993700D01*
X149885293Y-106976505D01*
X149863800Y-106930200D01*
X149849659Y-106912957D01*
X149839177Y-106917500D01*
X149813000Y-106917500D01*
X149800300Y-106904800D01*
X149787600Y-106917500D01*
X149751920Y-106917500D01*
X149738321Y-106862241D01*
X149734291Y-106829456D01*
X149736800Y-106829456D01*
X149741698Y-106842540D01*
X149773258Y-106845445D01*
X149791643Y-106841780D01*
X149822153Y-106856062D01*
X149827187Y-106863773D01*
X149828040Y-106848285D01*
X149821395Y-106833483D01*
X149789783Y-106811323D01*
X149753892Y-106808393D01*
X149736800Y-106829456D01*
X149734291Y-106829456D01*
X149728903Y-106785612D01*
X149728907Y-106773470D01*
X149719821Y-106700437D01*
X149696720Y-106666256D01*
X149677173Y-106665170D01*
X149676667Y-106696544D01*
X149680623Y-106710460D01*
X149677388Y-106720526D01*
X149649973Y-106690396D01*
X149625093Y-106651126D01*
X149610188Y-106601496D01*
X149610287Y-106595382D01*
X149615385Y-106575174D01*
X149635200Y-106600000D01*
X149651954Y-106623307D01*
X149658132Y-106620547D01*
X149649323Y-106580304D01*
X149624996Y-106497221D01*
X149618412Y-106477851D01*
X149711788Y-106477851D01*
X149714699Y-106500252D01*
X149736800Y-106536500D01*
X149746262Y-106540870D01*
X149761811Y-106531650D01*
X149758363Y-106516434D01*
X149736800Y-106473000D01*
X149733458Y-106467889D01*
X149715899Y-106449426D01*
X149711788Y-106477851D01*
X149618412Y-106477851D01*
X149606223Y-106441990D01*
X149569431Y-106356295D01*
X149530785Y-106286515D01*
X149496526Y-106243317D01*
X149472899Y-106237367D01*
X149465613Y-106238312D01*
X149473073Y-106207710D01*
X149480154Y-106179103D01*
X149464808Y-106176321D01*
X149463192Y-106177186D01*
X149451886Y-106170810D01*
X149539852Y-106170810D01*
X149541694Y-106183705D01*
X149569684Y-106233378D01*
X149615552Y-106305293D01*
X149664752Y-106373078D01*
X149685366Y-106398533D01*
X149700487Y-106413724D01*
X149693363Y-106393028D01*
X149663892Y-106331601D01*
X149650796Y-106306300D01*
X149607621Y-106237101D01*
X149568824Y-106191901D01*
X149564021Y-106188003D01*
X149539852Y-106170810D01*
X149451886Y-106170810D01*
X149440375Y-106164318D01*
X149422116Y-106112431D01*
X149400621Y-106047424D01*
X149342279Y-105934282D01*
X149251757Y-105792514D01*
X149131386Y-105626024D01*
X149099462Y-105584788D01*
X149048055Y-105525926D01*
X149014973Y-105503175D01*
X148994452Y-105511724D01*
X148978116Y-105529640D01*
X148983594Y-105503308D01*
X148985212Y-105476199D01*
X148968082Y-105444300D01*
X149101800Y-105444300D01*
X149114500Y-105457000D01*
X149127200Y-105444300D01*
X149114500Y-105431600D01*
X149101800Y-105444300D01*
X148968082Y-105444300D01*
X148960590Y-105430347D01*
X148958563Y-105428680D01*
X148930840Y-105415141D01*
X148924000Y-105445618D01*
X148921891Y-105472176D01*
X148906937Y-105473844D01*
X148866850Y-105441921D01*
X148848402Y-105426420D01*
X148784673Y-105376859D01*
X148772424Y-105368100D01*
X148898600Y-105368100D01*
X148911300Y-105380800D01*
X148924000Y-105368100D01*
X148911300Y-105355400D01*
X148898600Y-105368100D01*
X148772424Y-105368100D01*
X148718032Y-105329203D01*
X148680065Y-105304600D01*
X148962100Y-105304600D01*
X148967313Y-105312202D01*
X148988999Y-105330000D01*
X148991533Y-105329340D01*
X149000200Y-105304600D01*
X148999166Y-105297639D01*
X148973300Y-105279200D01*
X148964113Y-105281195D01*
X148962100Y-105304600D01*
X148680065Y-105304600D01*
X148662707Y-105293351D01*
X148632928Y-105279201D01*
X148629799Y-105279870D01*
X148619200Y-105304600D01*
X148622169Y-105314929D01*
X148653363Y-105330000D01*
X148687216Y-105342595D01*
X148733500Y-105380800D01*
X148736884Y-105384635D01*
X148757766Y-105422283D01*
X148743129Y-105431584D01*
X148703585Y-105404226D01*
X148700285Y-105401298D01*
X148653523Y-105377251D01*
X148585580Y-105356411D01*
X148539668Y-105348396D01*
X148508389Y-105353710D01*
X148490576Y-105379988D01*
X148484034Y-105434635D01*
X148486569Y-105525057D01*
X148495986Y-105658657D01*
X148501019Y-105735301D01*
X148502156Y-105826911D01*
X148493721Y-105887951D01*
X148474767Y-105930558D01*
X148468941Y-105939639D01*
X148452377Y-105978017D01*
X148461768Y-106015514D01*
X148500728Y-106071802D01*
X148530971Y-106115240D01*
X148584689Y-106202837D01*
X148635081Y-106295200D01*
X148664594Y-106357406D01*
X148686591Y-106420057D01*
X148699527Y-106489614D01*
X148706010Y-106580703D01*
X148708647Y-106707950D01*
X148711524Y-106981000D01*
X148644944Y-106981001D01*
X148586184Y-106964897D01*
X148507223Y-106905113D01*
X148425109Y-106806484D01*
X148345325Y-106674618D01*
X148290274Y-106570828D01*
X148214913Y-106435426D01*
X148151354Y-106331973D01*
X148094009Y-106251593D01*
X148037288Y-106185412D01*
X148025176Y-106172804D01*
X147950363Y-106102672D01*
X147860964Y-106027979D01*
X147767436Y-105956444D01*
X147680239Y-105895789D01*
X147609832Y-105853735D01*
X147566673Y-105838001D01*
X147536746Y-105834173D01*
X147476821Y-105812933D01*
X147450201Y-105791199D01*
X147442863Y-105744973D01*
X147479152Y-105691142D01*
X147556429Y-105635588D01*
X147562284Y-105632290D01*
X147605527Y-105608742D01*
X147641896Y-105595318D01*
X147682605Y-105592522D01*
X147738870Y-105600858D01*
X147821907Y-105620828D01*
X147942930Y-105652938D01*
X147970910Y-105656048D01*
X147973181Y-105637522D01*
X147968651Y-105613819D01*
X147992456Y-105610316D01*
X148031930Y-105626651D01*
X148072557Y-105659602D01*
X148108868Y-105689807D01*
X148139994Y-105696203D01*
X148142810Y-105692800D01*
X148152579Y-105651795D01*
X148159421Y-105576517D01*
X148162000Y-105480104D01*
X148162678Y-105414523D01*
X148167974Y-105330610D01*
X148179868Y-105283156D01*
X148199954Y-105263042D01*
X148203064Y-105260996D01*
X148774175Y-105260996D01*
X148790226Y-105282352D01*
X148808902Y-105296846D01*
X148835772Y-105299695D01*
X148835548Y-105288255D01*
X148804445Y-105268134D01*
X148799626Y-105266325D01*
X148774175Y-105260996D01*
X148203064Y-105260996D01*
X148216840Y-105251933D01*
X148221187Y-105221423D01*
X148218075Y-105207276D01*
X148246733Y-105210587D01*
X148270088Y-105215424D01*
X148289000Y-105202203D01*
X148293292Y-105190893D01*
X148327100Y-105177600D01*
X148344868Y-105173175D01*
X148365200Y-105139500D01*
X148370128Y-105128746D01*
X148733416Y-105128746D01*
X148743577Y-105150694D01*
X148784300Y-105189513D01*
X148809741Y-105209456D01*
X148860795Y-105242488D01*
X148887158Y-105250171D01*
X148882386Y-105232507D01*
X148878341Y-105228400D01*
X148974800Y-105228400D01*
X148975833Y-105235362D01*
X149001699Y-105253800D01*
X149010886Y-105251806D01*
X149012900Y-105228400D01*
X149007686Y-105220799D01*
X148986000Y-105203000D01*
X148983466Y-105203661D01*
X148974800Y-105228400D01*
X148878341Y-105228400D01*
X148840033Y-105189498D01*
X148829859Y-105180806D01*
X148776132Y-105142442D01*
X148738433Y-105126927D01*
X148733416Y-105128746D01*
X148370128Y-105128746D01*
X148374781Y-105118588D01*
X148416063Y-105104529D01*
X148498550Y-105099395D01*
X148559968Y-105098046D01*
X148598971Y-105094330D01*
X148596565Y-105086022D01*
X148575831Y-105077690D01*
X148765708Y-105077690D01*
X148769877Y-105093482D01*
X148809700Y-105123465D01*
X148856363Y-105149095D01*
X148892389Y-105160405D01*
X148895366Y-105148523D01*
X148858645Y-105114646D01*
X148821089Y-105092043D01*
X148771600Y-105076942D01*
X148765708Y-105077690D01*
X148575831Y-105077690D01*
X148558059Y-105070548D01*
X148538119Y-105063300D01*
X148695400Y-105063300D01*
X148708100Y-105076000D01*
X148720800Y-105063300D01*
X148708100Y-105050600D01*
X148695400Y-105063300D01*
X148538119Y-105063300D01*
X148484218Y-105043707D01*
X148487967Y-105042134D01*
X148602266Y-105042134D01*
X148605989Y-105045174D01*
X148636133Y-105042134D01*
X148640107Y-105034494D01*
X148619200Y-105025200D01*
X148605753Y-105027034D01*
X148602266Y-105042134D01*
X148487967Y-105042134D01*
X148558059Y-105012722D01*
X148564619Y-105010032D01*
X148617590Y-104996219D01*
X148674467Y-105002215D01*
X148755852Y-105029800D01*
X148791446Y-105042973D01*
X148858409Y-105062687D01*
X148890247Y-105064124D01*
X148882571Y-105048119D01*
X148830995Y-105015505D01*
X148820147Y-105009455D01*
X148787198Y-104984580D01*
X148801272Y-104975417D01*
X148821703Y-104973702D01*
X148883822Y-104958983D01*
X148907722Y-104955413D01*
X148924000Y-104981421D01*
X148934993Y-105007131D01*
X148977944Y-105033382D01*
X148990327Y-105037092D01*
X149019479Y-105061451D01*
X149015560Y-105112545D01*
X149010633Y-105156594D01*
X149026615Y-105177600D01*
X149035134Y-105176336D01*
X149040916Y-105156434D01*
X149040497Y-105155678D01*
X149054628Y-105141237D01*
X149103424Y-105135267D01*
X149110625Y-105135460D01*
X149167047Y-105150379D01*
X149235084Y-105193343D01*
X149324557Y-105270352D01*
X149341137Y-105285636D01*
X149409835Y-105346615D01*
X149462292Y-105389506D01*
X149488248Y-105405819D01*
X149501420Y-105402101D01*
X149550140Y-105379842D01*
X149617625Y-105344102D01*
X149747230Y-105287039D01*
X149915651Y-105257948D01*
X150083654Y-105279346D01*
X150250218Y-105351068D01*
X150414324Y-105472948D01*
X150474098Y-105513117D01*
X150549961Y-105542163D01*
X150603565Y-105563486D01*
X150625800Y-105594222D01*
X150642134Y-105632454D01*
X150684980Y-105677665D01*
X150723652Y-105718309D01*
X150734742Y-105752474D01*
X150738246Y-105771162D01*
X150773575Y-105793351D01*
X150810909Y-105820541D01*
X150839469Y-105876256D01*
X150842028Y-105885259D01*
X150873386Y-105955866D01*
X150919133Y-106027860D01*
X150932566Y-106046492D01*
X150960892Y-106097630D01*
X150963760Y-106126573D01*
X150966929Y-106148966D01*
X151001982Y-106182925D01*
X151038607Y-106216932D01*
X151057600Y-106255431D01*
X151062795Y-106276925D01*
X151094175Y-106319335D01*
X151112685Y-106339657D01*
X151138625Y-106396448D01*
X151148370Y-106406938D01*
X151176837Y-106395252D01*
X151227770Y-106355866D01*
X151305210Y-106285612D01*
X151413200Y-106181323D01*
X151469428Y-106125926D01*
X151633621Y-105961365D01*
X151760311Y-105829390D01*
X151850082Y-105729362D01*
X151903517Y-105660638D01*
X151921200Y-105622577D01*
X151925964Y-105602478D01*
X151956683Y-105560772D01*
X151977801Y-105530153D01*
X152008621Y-105465946D01*
X152039790Y-105388166D01*
X152063915Y-105315432D01*
X152073600Y-105266366D01*
X152062924Y-105260024D01*
X152022247Y-105266676D01*
X151979681Y-105268305D01*
X151902718Y-105256031D01*
X151812697Y-105231728D01*
X151726784Y-105205607D01*
X151597427Y-105169988D01*
X151476700Y-105140197D01*
X151379441Y-105117739D01*
X151285428Y-105095259D01*
X151220106Y-105078787D01*
X151199286Y-105074592D01*
X151103363Y-105073095D01*
X150980437Y-105090813D01*
X150900921Y-105105364D01*
X150833985Y-105113803D01*
X150801564Y-105112842D01*
X150787007Y-105090225D01*
X150775274Y-105027432D01*
X150773338Y-104942781D01*
X150781307Y-104852525D01*
X150799290Y-104772915D01*
X150826912Y-104711843D01*
X150889114Y-104619083D01*
X150966962Y-104531569D01*
X151047947Y-104462836D01*
X151119561Y-104426417D01*
X151171607Y-104419537D01*
X151241749Y-104424912D01*
X151267495Y-104433614D01*
X151347717Y-104471479D01*
X151450412Y-104528800D01*
X151563216Y-104597848D01*
X151673765Y-104670896D01*
X151769698Y-104740212D01*
X151838650Y-104798070D01*
X151879047Y-104836248D01*
X151921604Y-104870932D01*
X151941607Y-104874405D01*
X151946600Y-104850317D01*
X151941494Y-104797173D01*
X151915065Y-104702393D01*
X151872327Y-104606844D01*
X151820322Y-104523069D01*
X151766096Y-104463608D01*
X151716691Y-104441000D01*
X151705621Y-104436712D01*
X151692600Y-104402900D01*
X151687170Y-104383972D01*
X151651782Y-104364800D01*
X151629118Y-104358810D01*
X151626091Y-104325381D01*
X151631084Y-104305947D01*
X151621246Y-104298305D01*
X151606906Y-104301449D01*
X151564865Y-104288147D01*
X151548178Y-104273205D01*
X151550533Y-104244650D01*
X151585957Y-104194573D01*
X151639414Y-104119568D01*
X151718349Y-103945821D01*
X151750127Y-103754859D01*
X151751620Y-103674518D01*
X151744766Y-103615754D01*
X151723776Y-103575283D01*
X151683405Y-103535896D01*
X151628156Y-103497212D01*
X151567809Y-103480824D01*
X151480205Y-103480922D01*
X151349700Y-103488500D01*
X151342162Y-103604160D01*
X151341283Y-103669421D01*
X151357065Y-103732402D01*
X151399312Y-103789618D01*
X151412252Y-103803212D01*
X151449163Y-103836759D01*
X151464000Y-103841176D01*
X151464095Y-103839091D01*
X151477338Y-103836272D01*
X151480686Y-103842363D01*
X151475053Y-103885170D01*
X151447644Y-103950677D01*
X151405819Y-104025317D01*
X151356939Y-104095521D01*
X151308366Y-104147723D01*
X151265966Y-104180001D01*
X151154063Y-104245958D01*
X151034181Y-104297040D01*
X150928537Y-104322996D01*
X150873344Y-104334884D01*
X150824085Y-104357908D01*
X150817469Y-104362170D01*
X150770076Y-104383271D01*
X150697316Y-104410402D01*
X150617195Y-104437407D01*
X150547718Y-104458126D01*
X150506889Y-104466400D01*
X150502216Y-104457039D01*
X150498800Y-104415794D01*
X150506019Y-104380753D01*
X150552242Y-104302497D01*
X150638789Y-104205653D01*
X150762833Y-104093672D01*
X150799266Y-104056813D01*
X150822929Y-104002518D01*
X150829000Y-103919793D01*
X150839979Y-103820879D01*
X150875986Y-103733722D01*
X150880752Y-103726534D01*
X150912840Y-103641778D01*
X150918334Y-103577400D01*
X150968700Y-103577400D01*
X150973913Y-103585002D01*
X150995599Y-103602800D01*
X150998133Y-103602140D01*
X151006800Y-103577400D01*
X151005766Y-103570439D01*
X150979900Y-103552000D01*
X150970713Y-103553995D01*
X150968700Y-103577400D01*
X150918334Y-103577400D01*
X150923271Y-103519532D01*
X150924935Y-103455784D01*
X150930948Y-103388923D01*
X150939785Y-103356549D01*
X150951001Y-103364264D01*
X150956000Y-103408067D01*
X150956535Y-103422875D01*
X150969474Y-103467207D01*
X150991519Y-103471561D01*
X151011698Y-103431350D01*
X151015695Y-103407403D01*
X151017825Y-103353786D01*
X151014821Y-103272842D01*
X151006332Y-103156873D01*
X150992705Y-103005900D01*
X151311600Y-103005900D01*
X151314371Y-103023415D01*
X151336202Y-103044000D01*
X151346713Y-103038607D01*
X151346185Y-103005900D01*
X151337960Y-102987662D01*
X151321582Y-102967800D01*
X151317034Y-102972012D01*
X151311600Y-103005900D01*
X150992705Y-103005900D01*
X150992009Y-102998180D01*
X150984093Y-102924818D01*
X150972311Y-102858653D01*
X150957378Y-102828907D01*
X150936569Y-102827168D01*
X150913283Y-102830545D01*
X150864015Y-102812841D01*
X150835098Y-102798954D01*
X150776781Y-102797731D01*
X150750235Y-102801629D01*
X150715981Y-102782671D01*
X150715193Y-102726448D01*
X150748008Y-102633732D01*
X150761195Y-102603654D01*
X150794392Y-102522315D01*
X150816696Y-102459800D01*
X150835646Y-102414643D01*
X150864173Y-102377639D01*
X150890818Y-102371258D01*
X150959921Y-102364805D01*
X151058561Y-102360346D01*
X151175139Y-102358589D01*
X151313787Y-102360145D01*
G36*
X151313787Y-102360145D02*
G01*
X151410735Y-102367966D01*
X151471323Y-102386048D01*
X151502787Y-102418377D01*
X151512362Y-102468946D01*
X151507283Y-102541743D01*
X151496518Y-102616779D01*
X151471504Y-102740310D01*
X151439802Y-102859124D01*
X151404583Y-102964172D01*
X151369017Y-103046404D01*
X151336274Y-103096770D01*
X151309526Y-103106219D01*
X151302848Y-103103649D01*
X151274840Y-103118031D01*
X151271298Y-103127345D01*
X151285785Y-103158044D01*
X151301941Y-103181564D01*
X151311600Y-103235106D01*
X151328223Y-103289560D01*
X151376082Y-103327811D01*
X151437544Y-103328787D01*
X151439340Y-103328109D01*
X151484160Y-103300858D01*
X151538876Y-103256027D01*
X151593851Y-103211994D01*
X151680812Y-103159931D01*
X151764872Y-103125543D01*
X151828726Y-103117123D01*
X151854854Y-103116608D01*
X151858977Y-103096867D01*
X151858108Y-103078022D01*
X151886748Y-103069897D01*
X151932070Y-103077814D01*
X151976902Y-103101150D01*
X151990806Y-103116939D01*
X152024001Y-103179725D01*
X152058985Y-103270739D01*
X152091000Y-103375255D01*
X152115284Y-103478546D01*
X152127081Y-103565883D01*
X152127266Y-103622398D01*
X152099960Y-103792691D01*
X152036590Y-103966587D01*
X151943605Y-104129042D01*
X151827451Y-104265011D01*
X151825089Y-104267226D01*
X151764084Y-104326466D01*
X151735905Y-104362666D01*
X151735490Y-104386158D01*
X151757782Y-104407272D01*
X151791752Y-104426581D01*
X151845621Y-104441000D01*
X151866463Y-104442939D01*
X151905075Y-104458743D01*
X151932555Y-104473551D01*
X151995670Y-104499085D01*
X152078956Y-104528593D01*
X152166631Y-104562238D01*
X152235878Y-104604381D01*
X152279490Y-104656900D01*
X152306432Y-104720559D01*
X152325000Y-104839313D01*
X152314919Y-104961378D01*
X152276364Y-105064006D01*
X152225128Y-105146907D01*
X152282714Y-105216375D01*
X152287207Y-105221746D01*
X152348295Y-105289848D01*
X152414014Y-105357082D01*
X152487729Y-105428320D01*
X152469973Y-105787039D01*
X152466770Y-105848067D01*
X152455387Y-106012364D01*
X152441639Y-106132008D01*
X152424626Y-106211678D01*
X152403451Y-106256049D01*
X152377214Y-106269800D01*
X152354302Y-106276760D01*
X152311046Y-106308125D01*
X152299795Y-106317244D01*
X152255264Y-106333772D01*
X152180416Y-106341256D01*
X152065211Y-106341042D01*
X152019460Y-106340114D01*
X151918500Y-106342482D01*
X151837006Y-106356076D01*
X151764356Y-106386263D01*
X151689926Y-106438409D01*
X151603096Y-106517881D01*
X151493243Y-106630047D01*
X151461703Y-106663187D01*
X151406563Y-106724980D01*
X151379777Y-106766451D01*
X151375717Y-106798478D01*
X151388752Y-106831937D01*
X151402936Y-106857155D01*
X151458114Y-106937101D01*
X151525755Y-107017987D01*
X151595604Y-107089074D01*
X151657408Y-107139624D01*
X151700914Y-107158895D01*
X151738063Y-107164466D01*
X151818829Y-107198813D01*
X151895919Y-107252689D01*
X151947187Y-107312298D01*
X151961143Y-107364727D01*
X151964766Y-107459708D01*
X151955363Y-107578728D01*
X151933400Y-107708465D01*
X151924905Y-107738159D01*
X151884209Y-107819781D01*
X151826409Y-107895010D01*
X151763286Y-107950174D01*
X151706625Y-107971601D01*
X151687721Y-107971422D01*
X151577218Y-107959129D01*
X151508489Y-107925956D01*
X151476641Y-107869736D01*
X151456039Y-107814569D01*
X151418110Y-107761844D01*
X151378385Y-107736806D01*
X151291048Y-107698232D01*
X151174500Y-107656250D01*
X151040485Y-107614265D01*
X150900749Y-107575682D01*
X150767036Y-107543907D01*
X150651092Y-107522345D01*
X150564660Y-107514400D01*
X150516417Y-107508080D01*
X150450334Y-107476024D01*
X150409883Y-107426832D01*
X150407501Y-107371793D01*
X150420605Y-107344622D01*
X150456583Y-107281504D01*
X150503357Y-107206368D01*
X150530579Y-107166946D01*
X150603414Y-107090316D01*
X150690688Y-107042620D01*
X150709484Y-107035767D01*
X150805466Y-107016198D01*
X150891805Y-107033517D01*
X150986946Y-107090717D01*
X151018883Y-107112713D01*
X151059902Y-107129678D01*
X151067651Y-107108870D01*
X151042140Y-107050693D01*
X150983380Y-106955552D01*
X150975767Y-106943977D01*
X150929058Y-106867053D01*
X150899328Y-106807521D01*
X150892718Y-106777447D01*
X150893861Y-106767448D01*
X150877927Y-106722841D01*
X150842119Y-106661702D01*
X150825056Y-106635538D01*
X150791484Y-106576131D01*
X150778091Y-106539306D01*
X150771837Y-106519356D01*
X150743171Y-106465442D01*
X150699141Y-106396800D01*
X150665667Y-106350892D01*
X150639956Y-106322612D01*
X150636331Y-106330543D01*
X150640010Y-106342029D01*
X150641176Y-106364449D01*
X150613346Y-106346205D01*
X150592555Y-106323379D01*
X150579644Y-106285462D01*
X150575129Y-106229854D01*
X150548318Y-106169325D01*
X150510533Y-106133244D01*
X150490442Y-106117753D01*
X150473400Y-106070386D01*
X150469163Y-106053975D01*
X150438498Y-106003013D01*
X150388325Y-105939920D01*
X150330749Y-105878171D01*
X150277876Y-105831239D01*
X150241811Y-105812600D01*
X150226332Y-105793463D01*
X150219011Y-105742750D01*
X150218770Y-105729720D01*
X150212479Y-105695800D01*
X150196170Y-105708359D01*
X150195022Y-105710101D01*
X150173316Y-105722206D01*
X150137474Y-105704053D01*
X150078362Y-105651209D01*
X150043775Y-105620668D01*
X149977011Y-105575979D01*
X149924902Y-105558600D01*
X149886608Y-105554002D01*
X149853205Y-105536607D01*
X149828981Y-105525212D01*
X149776388Y-105526699D01*
X149714010Y-105527973D01*
X149638241Y-105512667D01*
X149633888Y-105511176D01*
X149571521Y-105498194D01*
X149543454Y-105509769D01*
X149555910Y-105543563D01*
X149561191Y-105551586D01*
X149584852Y-105602381D01*
X149610489Y-105672900D01*
X149617987Y-105694575D01*
X149647527Y-105760783D01*
X149675169Y-105799900D01*
X149695537Y-105829563D01*
X149730341Y-105899002D01*
X149774281Y-105997317D01*
X149823378Y-106114507D01*
X149873655Y-106240576D01*
X149921131Y-106365524D01*
X149961829Y-106479355D01*
X149991770Y-106572070D01*
X150006974Y-106633670D01*
X150010957Y-106657631D01*
X150025991Y-106725504D01*
X150040492Y-106765100D01*
X150047033Y-106777435D01*
X150068186Y-106831139D01*
X150092400Y-106904800D01*
X150103075Y-106938198D01*
X150129383Y-107008351D01*
X150150885Y-107050850D01*
X150160210Y-107070930D01*
X150144972Y-107118564D01*
X150140826Y-107123762D01*
X150132679Y-107152243D01*
X150169176Y-107171684D01*
X150200023Y-107185867D01*
X150208525Y-107203542D01*
X150206962Y-107225661D01*
X150227103Y-107271073D01*
X150236402Y-107287800D01*
X150265759Y-107356402D01*
X150292999Y-107438200D01*
X150294872Y-107444589D01*
X150326102Y-107531329D01*
X150372321Y-107639324D01*
X150426819Y-107754866D01*
X150482882Y-107864248D01*
X150533797Y-107953762D01*
X150572854Y-108009700D01*
X150604984Y-108051838D01*
X150634380Y-108106155D01*
X150666797Y-108145334D01*
X150725028Y-108177780D01*
X150780929Y-108205350D01*
X150811882Y-108235948D01*
X150805453Y-108272043D01*
X150767147Y-108328195D01*
X150706433Y-108391144D01*
X150633909Y-108450026D01*
X150560172Y-108493977D01*
X150549468Y-108499021D01*
X150455874Y-108547130D01*
X150367268Y-108597943D01*
X150332018Y-108618957D01*
X150280705Y-108640272D01*
X150228362Y-108640462D01*
X150151368Y-108622178D01*
X150090576Y-108606599D01*
X149978888Y-108580884D01*
X149869029Y-108558280D01*
X149791258Y-108542774D01*
X149716898Y-108526287D01*
X149675294Y-108514951D01*
X149656044Y-108518552D01*
X149613242Y-108559007D01*
X149559421Y-108636828D01*
X149552519Y-108648123D01*
X149470177Y-108771448D01*
X149398790Y-108852818D01*
X149332551Y-108897659D01*
X149265654Y-108911400D01*
X149265578Y-108911400D01*
X149219639Y-108908406D01*
X149192173Y-108891422D01*
X149174041Y-108848444D01*
X149156106Y-108767464D01*
X149145596Y-108709141D01*
X149132370Y-108611733D01*
X149127200Y-108536433D01*
X149116952Y-108456669D01*
X149091092Y-108381920D01*
X149062642Y-108326386D01*
X149039481Y-108276400D01*
X149028667Y-108252014D01*
X148990785Y-108180405D01*
X148943625Y-108102572D01*
X148895568Y-108031232D01*
X148854992Y-107979103D01*
X148830277Y-107958900D01*
X148809034Y-107946919D01*
X148763294Y-107906628D01*
X148706997Y-107849982D01*
X148652046Y-107789606D01*
X148619785Y-107749777D01*
X149111329Y-107749777D01*
X149127709Y-107781714D01*
X149156141Y-107805869D01*
X149175852Y-107803156D01*
X149166344Y-107770090D01*
X149159818Y-107761694D01*
X149122590Y-107743000D01*
X149111329Y-107749777D01*
X148619785Y-107749777D01*
X148610345Y-107738121D01*
X148594343Y-107709134D01*
X149211866Y-107709134D01*
X149215589Y-107712174D01*
X149245733Y-107709134D01*
X149249707Y-107701494D01*
X149228800Y-107692200D01*
X149215353Y-107694034D01*
X149211866Y-107709134D01*
X148594343Y-107709134D01*
X148593800Y-107708150D01*
X148598254Y-107702986D01*
X148630046Y-107707704D01*
X148654519Y-107707321D01*
X148652796Y-107670000D01*
X148652780Y-107669938D01*
X148649324Y-107645721D01*
X148660426Y-107630772D01*
X148695141Y-107623080D01*
X148762527Y-107620636D01*
X148871641Y-107621429D01*
X148910666Y-107622137D01*
X149018190Y-107627531D01*
X149078189Y-107637669D01*
X149093077Y-107652894D01*
X149095003Y-107668922D01*
X149128220Y-107681315D01*
X149151785Y-107676951D01*
X149159268Y-107657041D01*
X149158065Y-107645734D01*
X149186533Y-107648987D01*
X149210157Y-107653424D01*
X149228800Y-107636418D01*
X149235620Y-107628630D01*
X149265495Y-107646653D01*
X149312262Y-107691305D01*
X149368375Y-107754003D01*
X149426289Y-107826166D01*
X149478455Y-107899210D01*
X149517329Y-107964554D01*
X149548753Y-108020511D01*
X149595058Y-108086520D01*
X149632895Y-108122767D01*
X149641930Y-108128464D01*
X149689228Y-108173893D01*
X149736322Y-108237527D01*
X149767066Y-108280008D01*
X149828369Y-108328831D01*
X149921002Y-108364849D01*
X150003643Y-108388162D01*
X150077999Y-108402306D01*
X150120142Y-108395194D01*
X150138944Y-108364563D01*
X150143279Y-108308150D01*
X150141257Y-108277145D01*
X150125810Y-108183529D01*
X150097203Y-108055393D01*
X150057886Y-107901685D01*
X150010310Y-107731351D01*
X149956924Y-107553338D01*
X149956654Y-107552500D01*
X150067000Y-107552500D01*
X150079700Y-107565200D01*
X150092400Y-107552500D01*
X150079700Y-107539800D01*
X150067000Y-107552500D01*
X149956654Y-107552500D01*
X149915881Y-107425500D01*
X150016200Y-107425500D01*
X150028900Y-107438200D01*
X150041600Y-107425500D01*
X150028900Y-107412800D01*
X150016200Y-107425500D01*
X149915881Y-107425500D01*
X149900180Y-107376595D01*
X149842527Y-107210068D01*
X149810795Y-107119124D01*
X149766402Y-106976339D01*
X149751920Y-106917500D01*
X149787600Y-106917500D01*
X149800300Y-106930200D01*
X149813000Y-106917500D01*
X149839177Y-106917500D01*
X149842306Y-106934696D01*
X149863800Y-106981000D01*
X149877940Y-106998244D01*
X149888422Y-106993700D01*
X149885293Y-106976505D01*
X149863800Y-106930200D01*
X149849659Y-106912957D01*
X149839177Y-106917500D01*
X149813000Y-106917500D01*
X149800300Y-106904800D01*
X149787600Y-106917500D01*
X149751920Y-106917500D01*
X149738321Y-106862241D01*
X149734291Y-106829456D01*
X149736800Y-106829456D01*
X149741698Y-106842540D01*
X149773258Y-106845445D01*
X149791643Y-106841780D01*
X149822153Y-106856062D01*
X149827187Y-106863773D01*
X149828040Y-106848285D01*
X149821395Y-106833483D01*
X149789783Y-106811323D01*
X149753892Y-106808393D01*
X149736800Y-106829456D01*
X149734291Y-106829456D01*
X149728903Y-106785612D01*
X149728907Y-106773470D01*
X149719821Y-106700437D01*
X149696720Y-106666256D01*
X149677173Y-106665170D01*
X149676667Y-106696544D01*
X149680623Y-106710460D01*
X149677388Y-106720526D01*
X149649973Y-106690396D01*
X149625093Y-106651126D01*
X149610188Y-106601496D01*
X149610287Y-106595382D01*
X149615385Y-106575174D01*
X149635200Y-106600000D01*
X149651954Y-106623307D01*
X149658132Y-106620547D01*
X149649323Y-106580304D01*
X149624996Y-106497221D01*
X149618412Y-106477851D01*
X149711788Y-106477851D01*
X149714699Y-106500252D01*
X149736800Y-106536500D01*
X149746262Y-106540870D01*
X149761811Y-106531650D01*
X149758363Y-106516434D01*
X149736800Y-106473000D01*
X149733458Y-106467889D01*
X149715899Y-106449426D01*
X149711788Y-106477851D01*
X149618412Y-106477851D01*
X149606223Y-106441990D01*
X149569431Y-106356295D01*
X149530785Y-106286515D01*
X149496526Y-106243317D01*
X149472899Y-106237367D01*
X149465613Y-106238312D01*
X149473073Y-106207710D01*
X149480154Y-106179103D01*
X149464808Y-106176321D01*
X149463192Y-106177186D01*
X149451886Y-106170810D01*
X149539852Y-106170810D01*
X149541694Y-106183705D01*
X149569684Y-106233378D01*
X149615552Y-106305293D01*
X149664752Y-106373078D01*
X149685366Y-106398533D01*
X149700487Y-106413724D01*
X149693363Y-106393028D01*
X149663892Y-106331601D01*
X149650796Y-106306300D01*
X149607621Y-106237101D01*
X149568824Y-106191901D01*
X149564021Y-106188003D01*
X149539852Y-106170810D01*
X149451886Y-106170810D01*
X149440375Y-106164318D01*
X149422116Y-106112431D01*
X149400621Y-106047424D01*
X149342279Y-105934282D01*
X149251757Y-105792514D01*
X149131386Y-105626024D01*
X149099462Y-105584788D01*
X149048055Y-105525926D01*
X149014973Y-105503175D01*
X148994452Y-105511724D01*
X148978116Y-105529640D01*
X148983594Y-105503308D01*
X148985212Y-105476199D01*
X148968082Y-105444300D01*
X149101800Y-105444300D01*
X149114500Y-105457000D01*
X149127200Y-105444300D01*
X149114500Y-105431600D01*
X149101800Y-105444300D01*
X148968082Y-105444300D01*
X148960590Y-105430347D01*
X148958563Y-105428680D01*
X148930840Y-105415141D01*
X148924000Y-105445618D01*
X148921891Y-105472176D01*
X148906937Y-105473844D01*
X148866850Y-105441921D01*
X148848402Y-105426420D01*
X148784673Y-105376859D01*
X148772424Y-105368100D01*
X148898600Y-105368100D01*
X148911300Y-105380800D01*
X148924000Y-105368100D01*
X148911300Y-105355400D01*
X148898600Y-105368100D01*
X148772424Y-105368100D01*
X148718032Y-105329203D01*
X148680065Y-105304600D01*
X148962100Y-105304600D01*
X148967313Y-105312202D01*
X148988999Y-105330000D01*
X148991533Y-105329340D01*
X149000200Y-105304600D01*
X148999166Y-105297639D01*
X148973300Y-105279200D01*
X148964113Y-105281195D01*
X148962100Y-105304600D01*
X148680065Y-105304600D01*
X148662707Y-105293351D01*
X148632928Y-105279201D01*
X148629799Y-105279870D01*
X148619200Y-105304600D01*
X148622169Y-105314929D01*
X148653363Y-105330000D01*
X148687216Y-105342595D01*
X148733500Y-105380800D01*
X148736884Y-105384635D01*
X148757766Y-105422283D01*
X148743129Y-105431584D01*
X148703585Y-105404226D01*
X148700285Y-105401298D01*
X148653523Y-105377251D01*
X148585580Y-105356411D01*
X148539668Y-105348396D01*
X148508389Y-105353710D01*
X148490576Y-105379988D01*
X148484034Y-105434635D01*
X148486569Y-105525057D01*
X148495986Y-105658657D01*
X148501019Y-105735301D01*
X148502156Y-105826911D01*
X148493721Y-105887951D01*
X148474767Y-105930558D01*
X148468941Y-105939639D01*
X148452377Y-105978017D01*
X148461768Y-106015514D01*
X148500728Y-106071802D01*
X148530971Y-106115240D01*
X148584689Y-106202837D01*
X148635081Y-106295200D01*
X148664594Y-106357406D01*
X148686591Y-106420057D01*
X148699527Y-106489614D01*
X148706010Y-106580703D01*
X148708647Y-106707950D01*
X148711524Y-106981000D01*
X148644944Y-106981001D01*
X148586184Y-106964897D01*
X148507223Y-106905113D01*
X148425109Y-106806484D01*
X148345325Y-106674618D01*
X148290274Y-106570828D01*
X148214913Y-106435426D01*
X148151354Y-106331973D01*
X148094009Y-106251593D01*
X148037288Y-106185412D01*
X148025176Y-106172804D01*
X147950363Y-106102672D01*
X147860964Y-106027979D01*
X147767436Y-105956444D01*
X147680239Y-105895789D01*
X147609832Y-105853735D01*
X147566673Y-105838001D01*
X147536746Y-105834173D01*
X147476821Y-105812933D01*
X147450201Y-105791199D01*
X147442863Y-105744973D01*
X147479152Y-105691142D01*
X147556429Y-105635588D01*
X147562284Y-105632290D01*
X147605527Y-105608742D01*
X147641896Y-105595318D01*
X147682605Y-105592522D01*
X147738870Y-105600858D01*
X147821907Y-105620828D01*
X147942930Y-105652938D01*
X147970910Y-105656048D01*
X147973181Y-105637522D01*
X147968651Y-105613819D01*
X147992456Y-105610316D01*
X148031930Y-105626651D01*
X148072557Y-105659602D01*
X148108868Y-105689807D01*
X148139994Y-105696203D01*
X148142810Y-105692800D01*
X148152579Y-105651795D01*
X148159421Y-105576517D01*
X148162000Y-105480104D01*
X148162678Y-105414523D01*
X148167974Y-105330610D01*
X148179868Y-105283156D01*
X148199954Y-105263042D01*
X148203064Y-105260996D01*
X148774175Y-105260996D01*
X148790226Y-105282352D01*
X148808902Y-105296846D01*
X148835772Y-105299695D01*
X148835548Y-105288255D01*
X148804445Y-105268134D01*
X148799626Y-105266325D01*
X148774175Y-105260996D01*
X148203064Y-105260996D01*
X148216840Y-105251933D01*
X148221187Y-105221423D01*
X148218075Y-105207276D01*
X148246733Y-105210587D01*
X148270088Y-105215424D01*
X148289000Y-105202203D01*
X148293292Y-105190893D01*
X148327100Y-105177600D01*
X148344868Y-105173175D01*
X148365200Y-105139500D01*
X148370128Y-105128746D01*
X148733416Y-105128746D01*
X148743577Y-105150694D01*
X148784300Y-105189513D01*
X148809741Y-105209456D01*
X148860795Y-105242488D01*
X148887158Y-105250171D01*
X148882386Y-105232507D01*
X148878341Y-105228400D01*
X148974800Y-105228400D01*
X148975833Y-105235362D01*
X149001699Y-105253800D01*
X149010886Y-105251806D01*
X149012900Y-105228400D01*
X149007686Y-105220799D01*
X148986000Y-105203000D01*
X148983466Y-105203661D01*
X148974800Y-105228400D01*
X148878341Y-105228400D01*
X148840033Y-105189498D01*
X148829859Y-105180806D01*
X148776132Y-105142442D01*
X148738433Y-105126927D01*
X148733416Y-105128746D01*
X148370128Y-105128746D01*
X148374781Y-105118588D01*
X148416063Y-105104529D01*
X148498550Y-105099395D01*
X148559968Y-105098046D01*
X148598971Y-105094330D01*
X148596565Y-105086022D01*
X148575831Y-105077690D01*
X148765708Y-105077690D01*
X148769877Y-105093482D01*
X148809700Y-105123465D01*
X148856363Y-105149095D01*
X148892389Y-105160405D01*
X148895366Y-105148523D01*
X148858645Y-105114646D01*
X148821089Y-105092043D01*
X148771600Y-105076942D01*
X148765708Y-105077690D01*
X148575831Y-105077690D01*
X148558059Y-105070548D01*
X148538119Y-105063300D01*
X148695400Y-105063300D01*
X148708100Y-105076000D01*
X148720800Y-105063300D01*
X148708100Y-105050600D01*
X148695400Y-105063300D01*
X148538119Y-105063300D01*
X148484218Y-105043707D01*
X148487967Y-105042134D01*
X148602266Y-105042134D01*
X148605989Y-105045174D01*
X148636133Y-105042134D01*
X148640107Y-105034494D01*
X148619200Y-105025200D01*
X148605753Y-105027034D01*
X148602266Y-105042134D01*
X148487967Y-105042134D01*
X148558059Y-105012722D01*
X148564619Y-105010032D01*
X148617590Y-104996219D01*
X148674467Y-105002215D01*
X148755852Y-105029800D01*
X148791446Y-105042973D01*
X148858409Y-105062687D01*
X148890247Y-105064124D01*
X148882571Y-105048119D01*
X148830995Y-105015505D01*
X148820147Y-105009455D01*
X148787198Y-104984580D01*
X148801272Y-104975417D01*
X148821703Y-104973702D01*
X148883822Y-104958983D01*
X148907722Y-104955413D01*
X148924000Y-104981421D01*
X148934993Y-105007131D01*
X148977944Y-105033382D01*
X148990327Y-105037092D01*
X149019479Y-105061451D01*
X149015560Y-105112545D01*
X149010633Y-105156594D01*
X149026615Y-105177600D01*
X149035134Y-105176336D01*
X149040916Y-105156434D01*
X149040497Y-105155678D01*
X149054628Y-105141237D01*
X149103424Y-105135267D01*
X149110625Y-105135460D01*
X149167047Y-105150379D01*
X149235084Y-105193343D01*
X149324557Y-105270352D01*
X149341137Y-105285636D01*
X149409835Y-105346615D01*
X149462292Y-105389506D01*
X149488248Y-105405819D01*
X149501420Y-105402101D01*
X149550140Y-105379842D01*
X149617625Y-105344102D01*
X149747230Y-105287039D01*
X149915651Y-105257948D01*
X150083654Y-105279346D01*
X150250218Y-105351068D01*
X150414324Y-105472948D01*
X150474098Y-105513117D01*
X150549961Y-105542163D01*
X150603565Y-105563486D01*
X150625800Y-105594222D01*
X150642134Y-105632454D01*
X150684980Y-105677665D01*
X150723652Y-105718309D01*
X150734742Y-105752474D01*
X150738246Y-105771162D01*
X150773575Y-105793351D01*
X150810909Y-105820541D01*
X150839469Y-105876256D01*
X150842028Y-105885259D01*
X150873386Y-105955866D01*
X150919133Y-106027860D01*
X150932566Y-106046492D01*
X150960892Y-106097630D01*
X150963760Y-106126573D01*
X150966929Y-106148966D01*
X151001982Y-106182925D01*
X151038607Y-106216932D01*
X151057600Y-106255431D01*
X151062795Y-106276925D01*
X151094175Y-106319335D01*
X151112685Y-106339657D01*
X151138625Y-106396448D01*
X151148370Y-106406938D01*
X151176837Y-106395252D01*
X151227770Y-106355866D01*
X151305210Y-106285612D01*
X151413200Y-106181323D01*
X151469428Y-106125926D01*
X151633621Y-105961365D01*
X151760311Y-105829390D01*
X151850082Y-105729362D01*
X151903517Y-105660638D01*
X151921200Y-105622577D01*
X151925964Y-105602478D01*
X151956683Y-105560772D01*
X151977801Y-105530153D01*
X152008621Y-105465946D01*
X152039790Y-105388166D01*
X152063915Y-105315432D01*
X152073600Y-105266366D01*
X152062924Y-105260024D01*
X152022247Y-105266676D01*
X151979681Y-105268305D01*
X151902718Y-105256031D01*
X151812697Y-105231728D01*
X151726784Y-105205607D01*
X151597427Y-105169988D01*
X151476700Y-105140197D01*
X151379441Y-105117739D01*
X151285428Y-105095259D01*
X151220106Y-105078787D01*
X151199286Y-105074592D01*
X151103363Y-105073095D01*
X150980437Y-105090813D01*
X150900921Y-105105364D01*
X150833985Y-105113803D01*
X150801564Y-105112842D01*
X150787007Y-105090225D01*
X150775274Y-105027432D01*
X150773338Y-104942781D01*
X150781307Y-104852525D01*
X150799290Y-104772915D01*
X150826912Y-104711843D01*
X150889114Y-104619083D01*
X150966962Y-104531569D01*
X151047947Y-104462836D01*
X151119561Y-104426417D01*
X151171607Y-104419537D01*
X151241749Y-104424912D01*
X151267495Y-104433614D01*
X151347717Y-104471479D01*
X151450412Y-104528800D01*
X151563216Y-104597848D01*
X151673765Y-104670896D01*
X151769698Y-104740212D01*
X151838650Y-104798070D01*
X151879047Y-104836248D01*
X151921604Y-104870932D01*
X151941607Y-104874405D01*
X151946600Y-104850317D01*
X151941494Y-104797173D01*
X151915065Y-104702393D01*
X151872327Y-104606844D01*
X151820322Y-104523069D01*
X151766096Y-104463608D01*
X151716691Y-104441000D01*
X151705621Y-104436712D01*
X151692600Y-104402900D01*
X151687170Y-104383972D01*
X151651782Y-104364800D01*
X151629118Y-104358810D01*
X151626091Y-104325381D01*
X151631084Y-104305947D01*
X151621246Y-104298305D01*
X151606906Y-104301449D01*
X151564865Y-104288147D01*
X151548178Y-104273205D01*
X151550533Y-104244650D01*
X151585957Y-104194573D01*
X151639414Y-104119568D01*
X151718349Y-103945821D01*
X151750127Y-103754859D01*
X151751620Y-103674518D01*
X151744766Y-103615754D01*
X151723776Y-103575283D01*
X151683405Y-103535896D01*
X151628156Y-103497212D01*
X151567809Y-103480824D01*
X151480205Y-103480922D01*
X151349700Y-103488500D01*
X151342162Y-103604160D01*
X151341283Y-103669421D01*
X151357065Y-103732402D01*
X151399312Y-103789618D01*
X151412252Y-103803212D01*
X151449163Y-103836759D01*
X151464000Y-103841176D01*
X151464095Y-103839091D01*
X151477338Y-103836272D01*
X151480686Y-103842363D01*
X151475053Y-103885170D01*
X151447644Y-103950677D01*
X151405819Y-104025317D01*
X151356939Y-104095521D01*
X151308366Y-104147723D01*
X151265966Y-104180001D01*
X151154063Y-104245958D01*
X151034181Y-104297040D01*
X150928537Y-104322996D01*
X150873344Y-104334884D01*
X150824085Y-104357908D01*
X150817469Y-104362170D01*
X150770076Y-104383271D01*
X150697316Y-104410402D01*
X150617195Y-104437407D01*
X150547718Y-104458126D01*
X150506889Y-104466400D01*
X150502216Y-104457039D01*
X150498800Y-104415794D01*
X150506019Y-104380753D01*
X150552242Y-104302497D01*
X150638789Y-104205653D01*
X150762833Y-104093672D01*
X150799266Y-104056813D01*
X150822929Y-104002518D01*
X150829000Y-103919793D01*
X150839979Y-103820879D01*
X150875986Y-103733722D01*
X150880752Y-103726534D01*
X150912840Y-103641778D01*
X150918334Y-103577400D01*
X150968700Y-103577400D01*
X150973913Y-103585002D01*
X150995599Y-103602800D01*
X150998133Y-103602140D01*
X151006800Y-103577400D01*
X151005766Y-103570439D01*
X150979900Y-103552000D01*
X150970713Y-103553995D01*
X150968700Y-103577400D01*
X150918334Y-103577400D01*
X150923271Y-103519532D01*
X150924935Y-103455784D01*
X150930948Y-103388923D01*
X150939785Y-103356549D01*
X150951001Y-103364264D01*
X150956000Y-103408067D01*
X150956535Y-103422875D01*
X150969474Y-103467207D01*
X150991519Y-103471561D01*
X151011698Y-103431350D01*
X151015695Y-103407403D01*
X151017825Y-103353786D01*
X151014821Y-103272842D01*
X151006332Y-103156873D01*
X150992705Y-103005900D01*
X151311600Y-103005900D01*
X151314371Y-103023415D01*
X151336202Y-103044000D01*
X151346713Y-103038607D01*
X151346185Y-103005900D01*
X151337960Y-102987662D01*
X151321582Y-102967800D01*
X151317034Y-102972012D01*
X151311600Y-103005900D01*
X150992705Y-103005900D01*
X150992009Y-102998180D01*
X150984093Y-102924818D01*
X150972311Y-102858653D01*
X150957378Y-102828907D01*
X150936569Y-102827168D01*
X150913283Y-102830545D01*
X150864015Y-102812841D01*
X150835098Y-102798954D01*
X150776781Y-102797731D01*
X150750235Y-102801629D01*
X150715981Y-102782671D01*
X150715193Y-102726448D01*
X150748008Y-102633732D01*
X150761195Y-102603654D01*
X150794392Y-102522315D01*
X150816696Y-102459800D01*
X150835646Y-102414643D01*
X150864173Y-102377639D01*
X150890818Y-102371258D01*
X150959921Y-102364805D01*
X151058561Y-102360346D01*
X151175139Y-102358589D01*
X151313787Y-102360145D01*
G37*
X149797675Y-102367958D02*
X149852460Y-102394033D01*
X149875800Y-102414357D01*
X149918457Y-102439920D01*
X149925805Y-102443832D01*
X149930968Y-102473414D01*
X149906211Y-102534990D01*
X149876404Y-102613514D01*
X149867689Y-102727709D01*
X149903435Y-102826880D01*
X149911870Y-102840302D01*
X149929384Y-102889958D01*
X149912049Y-102937046D01*
X149904810Y-102949792D01*
X149898787Y-102982775D01*
X149919452Y-103021039D01*
X149972763Y-103078457D01*
X150008155Y-103111654D01*
X150053253Y-103146011D01*
X150075463Y-103151547D01*
X150087394Y-103126781D01*
X150104722Y-103043698D01*
X150101003Y-102951634D01*
X150079354Y-102865352D01*
X150042890Y-102799614D01*
X149994730Y-102769184D01*
X149967702Y-102762189D01*
X149939464Y-102734181D01*
X149949669Y-102696154D01*
X149993715Y-102657200D01*
X150067000Y-102626413D01*
X150115267Y-102610905D01*
X150184474Y-102582611D01*
X150208931Y-102573192D01*
X150253076Y-102577275D01*
X150308503Y-102615958D01*
X150322022Y-102627519D01*
X150389971Y-102688367D01*
X150427913Y-102731847D01*
X150444404Y-102770213D01*
X150448000Y-102815716D01*
X150455029Y-102869926D01*
X150473814Y-102904557D01*
X150481830Y-102911534D01*
X150485015Y-102944156D01*
X150481446Y-102952300D01*
X150494219Y-102967800D01*
X150516117Y-102976761D01*
X150543431Y-103022560D01*
X150559494Y-103093808D01*
X150562892Y-103175330D01*
X150552207Y-103251953D01*
X150526022Y-103308504D01*
X150511775Y-103323881D01*
X150440910Y-103379188D01*
X150351018Y-103430394D01*
X150261160Y-103467690D01*
X150190399Y-103481262D01*
X150163643Y-103476869D01*
X150089729Y-103453103D01*
X149993141Y-103413517D01*
X149887808Y-103363530D01*
X149791100Y-103315475D01*
X149709420Y-103279843D01*
X149644545Y-103260924D01*
X149581685Y-103254579D01*
X149506049Y-103256667D01*
X149502739Y-103256854D01*
X149418157Y-103260006D01*
X149369850Y-103254411D01*
X149343891Y-103235613D01*
X149326352Y-103199152D01*
X149316693Y-103164921D01*
X149320869Y-103107453D01*
X149353340Y-103031300D01*
X149361286Y-103015285D01*
X149402454Y-102916178D01*
X149433661Y-102817697D01*
X149440434Y-102792806D01*
X149470635Y-102707536D01*
X149503383Y-102641834D01*
X149508902Y-102633220D01*
X149529099Y-102587864D01*
X149514389Y-102567697D01*
X149507413Y-102563110D01*
X149504060Y-102528908D01*
X149524123Y-102477351D01*
X149559840Y-102424304D01*
X149603449Y-102385635D01*
X149639513Y-102370826D01*
X149718799Y-102359956D01*
X149797675Y-102367958D01*
G36*
X149797675Y-102367958D02*
G01*
X149852460Y-102394033D01*
X149875800Y-102414357D01*
X149918457Y-102439920D01*
X149925805Y-102443832D01*
X149930968Y-102473414D01*
X149906211Y-102534990D01*
X149876404Y-102613514D01*
X149867689Y-102727709D01*
X149903435Y-102826880D01*
X149911870Y-102840302D01*
X149929384Y-102889958D01*
X149912049Y-102937046D01*
X149904810Y-102949792D01*
X149898787Y-102982775D01*
X149919452Y-103021039D01*
X149972763Y-103078457D01*
X150008155Y-103111654D01*
X150053253Y-103146011D01*
X150075463Y-103151547D01*
X150087394Y-103126781D01*
X150104722Y-103043698D01*
X150101003Y-102951634D01*
X150079354Y-102865352D01*
X150042890Y-102799614D01*
X149994730Y-102769184D01*
X149967702Y-102762189D01*
X149939464Y-102734181D01*
X149949669Y-102696154D01*
X149993715Y-102657200D01*
X150067000Y-102626413D01*
X150115267Y-102610905D01*
X150184474Y-102582611D01*
X150208931Y-102573192D01*
X150253076Y-102577275D01*
X150308503Y-102615958D01*
X150322022Y-102627519D01*
X150389971Y-102688367D01*
X150427913Y-102731847D01*
X150444404Y-102770213D01*
X150448000Y-102815716D01*
X150455029Y-102869926D01*
X150473814Y-102904557D01*
X150481830Y-102911534D01*
X150485015Y-102944156D01*
X150481446Y-102952300D01*
X150494219Y-102967800D01*
X150516117Y-102976761D01*
X150543431Y-103022560D01*
X150559494Y-103093808D01*
X150562892Y-103175330D01*
X150552207Y-103251953D01*
X150526022Y-103308504D01*
X150511775Y-103323881D01*
X150440910Y-103379188D01*
X150351018Y-103430394D01*
X150261160Y-103467690D01*
X150190399Y-103481262D01*
X150163643Y-103476869D01*
X150089729Y-103453103D01*
X149993141Y-103413517D01*
X149887808Y-103363530D01*
X149791100Y-103315475D01*
X149709420Y-103279843D01*
X149644545Y-103260924D01*
X149581685Y-103254579D01*
X149506049Y-103256667D01*
X149502739Y-103256854D01*
X149418157Y-103260006D01*
X149369850Y-103254411D01*
X149343891Y-103235613D01*
X149326352Y-103199152D01*
X149316693Y-103164921D01*
X149320869Y-103107453D01*
X149353340Y-103031300D01*
X149361286Y-103015285D01*
X149402454Y-102916178D01*
X149433661Y-102817697D01*
X149440434Y-102792806D01*
X149470635Y-102707536D01*
X149503383Y-102641834D01*
X149508902Y-102633220D01*
X149529099Y-102587864D01*
X149514389Y-102567697D01*
X149507413Y-102563110D01*
X149504060Y-102528908D01*
X149524123Y-102477351D01*
X149559840Y-102424304D01*
X149603449Y-102385635D01*
X149639513Y-102370826D01*
X149718799Y-102359956D01*
X149797675Y-102367958D01*
G37*
D13*
X113326936Y-92127400D02*
X113781064Y-92127400D01*
X113326936Y-93597400D02*
X113781064Y-93597400D01*
X155638000Y-106283000D02*
X155638000Y-104483000D01*
X157088000Y-106283000D02*
X155638000Y-106283000D01*
X155638000Y-97113000D02*
X154648000Y-97113000D01*
X159908000Y-96583000D02*
X159908000Y-105013000D01*
X155638000Y-95313000D02*
X155638000Y-97113000D01*
X157088000Y-95313000D02*
X155638000Y-95313000D01*
X149497148Y-116491400D02*
X150019652Y-116491400D01*
X149497148Y-117961400D02*
X150019652Y-117961400D01*
X130709252Y-88697000D02*
X130186748Y-88697000D01*
X130709252Y-87227000D02*
X130186748Y-87227000D01*
X113326936Y-94311800D02*
X113781064Y-94311800D01*
X113326936Y-95781800D02*
X113781064Y-95781800D01*
X113326936Y-96496200D02*
X113781064Y-96496200D01*
X113326936Y-97966200D02*
X113781064Y-97966200D01*
X113326936Y-89981000D02*
X113781064Y-89981000D01*
X113326936Y-91451000D02*
X113781064Y-91451000D01*
X132604000Y-80162000D02*
X132604000Y-76152000D01*
X134604000Y-80162000D02*
X132604000Y-80162000D01*
X134604000Y-80162000D02*
X134604000Y-76152000D01*
X133427064Y-73125000D02*
X132972936Y-73125000D01*
X133427064Y-71655000D02*
X132972936Y-71655000D01*
X118505464Y-79983000D02*
X118051336Y-79983000D01*
X118505464Y-78513000D02*
X118051336Y-78513000D01*
X113057000Y-82251252D02*
X113057000Y-81728748D01*
X114527000Y-82251252D02*
X114527000Y-81728748D01*
X128827064Y-71655000D02*
X128372936Y-71655000D01*
X128827064Y-73125000D02*
X128372936Y-73125000D01*
X129030400Y-101084748D02*
X129030400Y-101607252D01*
X127560400Y-101084748D02*
X127560400Y-101607252D01*
X138095000Y-87314064D02*
X138095000Y-86859936D01*
X139565000Y-87314064D02*
X139565000Y-86859936D01*
X123585464Y-79983000D02*
X123131336Y-79983000D01*
X123585464Y-78513000D02*
X123131336Y-78513000D01*
X127435000Y-95247064D02*
X127435000Y-94792936D01*
X128905000Y-95247064D02*
X128905000Y-94792936D01*
X135902752Y-104494000D02*
X135380248Y-104494000D01*
X135902752Y-103024000D02*
X135380248Y-103024000D01*
%LPC*%
D14*
X122174000Y-116840000D03*
X119126000Y-116840000D03*
D15*
X111680000Y-72850000D03*
X112324370Y-71294370D03*
X112324370Y-74405630D03*
X113880000Y-70650000D03*
D16*
X113880000Y-72850000D03*
D15*
X113880000Y-75050000D03*
X115435630Y-71294370D03*
X115435630Y-74405630D03*
X116080000Y-72850000D03*
D17*
X128270000Y-80342000D03*
X130810000Y-80342000D03*
X138430000Y-80342000D03*
X128270000Y-75262000D03*
X130810000Y-75262000D03*
X138430000Y-75262000D03*
D18*
X121012000Y-84660000D03*
X121012000Y-88060000D03*
X134512000Y-84660000D03*
X134512000Y-88060000D03*
D19*
X130282000Y-105156000D03*
D20*
X127742000Y-105156000D03*
X130282000Y-107696000D03*
X127742000Y-107696000D03*
X130282000Y-110236000D03*
X127742000Y-110236000D03*
X130282000Y-112776000D03*
X127742000Y-112776000D03*
X130282000Y-115316000D03*
X127742000Y-115316000D03*
X130282000Y-117856000D03*
X127742000Y-117856000D03*
D15*
X155950000Y-72850000D03*
X156594370Y-71294370D03*
X156594370Y-74405630D03*
X158150000Y-70650000D03*
D16*
X158150000Y-72850000D03*
D15*
X158150000Y-75050000D03*
X159705630Y-71294370D03*
X159705630Y-74405630D03*
X160350000Y-72850000D03*
D19*
X137668000Y-107696000D03*
D20*
X135128000Y-107696000D03*
X137668000Y-110236000D03*
X135128000Y-110236000D03*
X137668000Y-112776000D03*
X135128000Y-112776000D03*
X137668000Y-115316000D03*
X135128000Y-115316000D03*
X137668000Y-117856000D03*
X135128000Y-117856000D03*
D21*
X113792000Y-85240000D03*
X113792000Y-78740000D03*
D15*
X111650000Y-117150000D03*
X112294370Y-115594370D03*
X112294370Y-118705630D03*
X113850000Y-114950000D03*
D16*
X113850000Y-117150000D03*
D15*
X113850000Y-119350000D03*
X115405630Y-115594370D03*
X115405630Y-118705630D03*
X116050000Y-117150000D03*
X155950000Y-117150000D03*
X156594370Y-115594370D03*
X156594370Y-118705630D03*
X158150000Y-114950000D03*
D16*
X158150000Y-117150000D03*
D15*
X158150000Y-119350000D03*
X159705630Y-115594370D03*
X159705630Y-118705630D03*
X160350000Y-117150000D03*
D22*
X143002000Y-112776000D03*
D23*
X145542000Y-112776000D03*
X148082000Y-112776000D03*
X150622000Y-112776000D03*
X153162000Y-112776000D03*
X155702000Y-112776000D03*
X158242000Y-112776000D03*
X158242000Y-77216000D03*
X155702000Y-77216000D03*
X153162000Y-77216000D03*
X150622000Y-77216000D03*
X148082000Y-77216000D03*
X145542000Y-77216000D03*
X143002000Y-77216000D03*
D24*
X122916000Y-72881000D03*
D25*
X120416000Y-72881000D03*
D26*
X112554000Y-92862400D03*
X114554000Y-92862400D03*
D27*
X158698000Y-105773000D03*
X158698000Y-95823000D03*
D28*
X155498000Y-103923000D03*
X155498000Y-102673000D03*
X155498000Y-101423000D03*
X155498000Y-100173000D03*
X155498000Y-98923000D03*
X155498000Y-97673000D03*
D29*
X148620900Y-117226400D03*
X150895900Y-117226400D03*
D30*
X121996200Y-103687999D03*
X121996200Y-101147999D03*
D31*
X131485500Y-87962000D03*
X129410500Y-87962000D03*
D26*
X112554000Y-95046800D03*
X114554000Y-95046800D03*
X112554000Y-97231200D03*
X114554000Y-97231200D03*
X112554000Y-90716000D03*
X114554000Y-90716000D03*
D30*
X114274600Y-111765199D03*
X114274600Y-109225199D03*
X114274600Y-103632000D03*
X114274600Y-101092000D03*
X121945400Y-111810800D03*
X121945400Y-109270800D03*
D32*
X133604000Y-79452000D03*
X133604000Y-76152000D03*
D33*
X134200000Y-72390000D03*
X132200000Y-72390000D03*
X119278400Y-79248000D03*
X117278400Y-79248000D03*
D34*
X113792000Y-83027500D03*
X113792000Y-80952500D03*
D33*
X127600000Y-72390000D03*
X129600000Y-72390000D03*
D35*
X128295400Y-100208500D03*
X128295400Y-102483500D03*
D36*
X153806000Y-84588000D03*
X153806000Y-86868000D03*
D37*
X147506000Y-86868000D03*
D36*
X153806000Y-89148000D03*
D38*
X138830000Y-88087000D03*
X138830000Y-86087000D03*
D33*
X124358400Y-79248000D03*
X122358400Y-79248000D03*
D38*
X128170000Y-96020000D03*
X128170000Y-94020000D03*
D39*
X136779000Y-103759000D03*
X134504000Y-103759000D03*
%LPD*%
M02*
