G04 #@! TF.GenerationSoftware,KiCad,Pcbnew,7.0.9*
G04 #@! TF.CreationDate,2024-06-27T15:35:45+09:00*
G04 #@! TF.ProjectId,YAMADAmain,59414d41-4441-46d6-9169-6e2e6b696361,rev?*
G04 #@! TF.SameCoordinates,Original*
G04 #@! TF.FileFunction,Paste,Bot*
G04 #@! TF.FilePolarity,Positive*
%FSLAX46Y46*%
G04 Gerber Fmt 4.6, Leading zero omitted, Abs format (unit mm)*
G04 Created by KiCad (PCBNEW 7.0.9) date 2024-06-27 15:35:45*
%MOMM*%
%LPD*%
G01*
G04 APERTURE LIST*
G04 Aperture macros list*
%AMRoundRect*
0 Rectangle with rounded corners*
0 $1 Rounding radius*
0 $2 $3 $4 $5 $6 $7 $8 $9 X,Y pos of 4 corners*
0 Add a 4 corners polygon primitive as box body*
4,1,4,$2,$3,$4,$5,$6,$7,$8,$9,$2,$3,0*
0 Add four circle primitives for the rounded corners*
1,1,$1+$1,$2,$3*
1,1,$1+$1,$4,$5*
1,1,$1+$1,$6,$7*
1,1,$1+$1,$8,$9*
0 Add four rect primitives between the rounded corners*
20,1,$1+$1,$2,$3,$4,$5,0*
20,1,$1+$1,$4,$5,$6,$7,0*
20,1,$1+$1,$6,$7,$8,$9,0*
20,1,$1+$1,$8,$9,$2,$3,0*%
G04 Aperture macros list end*
%ADD10RoundRect,0.635000X0.635000X0.635000X-0.635000X0.635000X-0.635000X-0.635000X0.635000X-0.635000X0*%
%ADD11RoundRect,0.250000X-0.350000X-0.450000X0.350000X-0.450000X0.350000X0.450000X-0.350000X0.450000X0*%
%ADD12RoundRect,0.250000X-1.100000X0.250000X-1.100000X-0.250000X1.100000X-0.250000X1.100000X0.250000X0*%
%ADD13RoundRect,0.150000X-0.700000X0.150000X-0.700000X-0.150000X0.700000X-0.150000X0.700000X0.150000X0*%
%ADD14RoundRect,0.292875X-0.394625X-0.432125X0.394625X-0.432125X0.394625X0.432125X-0.394625X0.432125X0*%
%ADD15RoundRect,0.508000X2.032000X-0.508000X2.032000X0.508000X-2.032000X0.508000X-2.032000X-0.508000X0*%
%ADD16RoundRect,0.250000X0.337500X0.475000X-0.337500X0.475000X-0.337500X-0.475000X0.337500X-0.475000X0*%
%ADD17RoundRect,0.225000X0.375000X-0.225000X0.375000X0.225000X-0.375000X0.225000X-0.375000X-0.225000X0*%
%ADD18RoundRect,0.250000X0.350000X0.450000X-0.350000X0.450000X-0.350000X-0.450000X0.350000X-0.450000X0*%
%ADD19RoundRect,0.250000X0.475000X-0.337500X0.475000X0.337500X-0.475000X0.337500X-0.475000X-0.337500X0*%
%ADD20RoundRect,0.292875X-0.432125X0.394625X-0.432125X-0.394625X0.432125X-0.394625X0.432125X0.394625X0*%
%ADD21R,2.200000X1.200000*%
%ADD22R,6.400000X5.800000*%
%ADD23RoundRect,0.250000X0.450000X-0.350000X0.450000X0.350000X-0.450000X0.350000X-0.450000X-0.350000X0*%
%ADD24RoundRect,0.292875X0.394625X0.432125X-0.394625X0.432125X-0.394625X-0.432125X0.394625X-0.432125X0*%
G04 APERTURE END LIST*
D10*
X122174000Y-116840000D03*
X119126000Y-116840000D03*
D11*
X112554000Y-92862400D03*
X114554000Y-92862400D03*
D12*
X158698000Y-105773000D03*
X158698000Y-95823000D03*
D13*
X155498000Y-103923000D03*
X155498000Y-102673000D03*
X155498000Y-101423000D03*
X155498000Y-100173000D03*
X155498000Y-98923000D03*
X155498000Y-97673000D03*
D14*
X148620900Y-117226400D03*
X150895900Y-117226400D03*
D15*
X121996200Y-103687999D03*
X121996200Y-101147999D03*
D16*
X131485500Y-87962000D03*
X129410500Y-87962000D03*
D11*
X112554000Y-95046800D03*
X114554000Y-95046800D03*
X112554000Y-97231200D03*
X114554000Y-97231200D03*
X112554000Y-90716000D03*
X114554000Y-90716000D03*
D15*
X114274600Y-111765199D03*
X114274600Y-109225199D03*
X114274600Y-103632000D03*
X114274600Y-101092000D03*
X121945400Y-111810800D03*
X121945400Y-109270800D03*
D17*
X133604000Y-79452000D03*
X133604000Y-76152000D03*
D18*
X134200000Y-72390000D03*
X132200000Y-72390000D03*
X119278400Y-79248000D03*
X117278400Y-79248000D03*
D19*
X113792000Y-83027500D03*
X113792000Y-80952500D03*
D18*
X127600000Y-72390000D03*
X129600000Y-72390000D03*
D20*
X128295400Y-100208500D03*
X128295400Y-102483500D03*
D21*
X153806000Y-84588000D03*
X153806000Y-86868000D03*
D22*
X147506000Y-86868000D03*
D21*
X153806000Y-89148000D03*
D23*
X138830000Y-88087000D03*
X138830000Y-86087000D03*
D18*
X124358400Y-79248000D03*
X122358400Y-79248000D03*
D23*
X128170000Y-96020000D03*
X128170000Y-94020000D03*
D24*
X136779000Y-103759000D03*
X134504000Y-103759000D03*
M02*
