G04 #@! TF.GenerationSoftware,KiCad,Pcbnew,7.0.9*
G04 #@! TF.CreationDate,2024-06-27T15:35:45+09:00*
G04 #@! TF.ProjectId,YAMADAmain,59414d41-4441-46d6-9169-6e2e6b696361,rev?*
G04 #@! TF.SameCoordinates,Original*
G04 #@! TF.FileFunction,Paste,Top*
G04 #@! TF.FilePolarity,Positive*
%FSLAX46Y46*%
G04 Gerber Fmt 4.6, Leading zero omitted, Abs format (unit mm)*
G04 Created by KiCad (PCBNEW 7.0.9) date 2024-06-27 15:35:45*
%MOMM*%
%LPD*%
G01*
G04 APERTURE LIST*
G04 Aperture macros list*
%AMRoundRect*
0 Rectangle with rounded corners*
0 $1 Rounding radius*
0 $2 $3 $4 $5 $6 $7 $8 $9 X,Y pos of 4 corners*
0 Add a 4 corners polygon primitive as box body*
4,1,4,$2,$3,$4,$5,$6,$7,$8,$9,$2,$3,0*
0 Add four circle primitives for the rounded corners*
1,1,$1+$1,$2,$3*
1,1,$1+$1,$4,$5*
1,1,$1+$1,$6,$7*
1,1,$1+$1,$8,$9*
0 Add four rect primitives between the rounded corners*
20,1,$1+$1,$2,$3,$4,$5,0*
20,1,$1+$1,$4,$5,$6,$7,0*
20,1,$1+$1,$6,$7,$8,$9,0*
20,1,$1+$1,$8,$9,$2,$3,0*%
G04 Aperture macros list end*
%ADD10R,0.760000X1.100000*%
%ADD11R,1.500000X1.000000*%
%ADD12RoundRect,0.237500X0.237500X-0.400000X0.237500X0.400000X-0.237500X0.400000X-0.237500X-0.400000X0*%
%ADD13RoundRect,0.292875X0.394625X0.432125X-0.394625X0.432125X-0.394625X-0.432125X0.394625X-0.432125X0*%
%ADD14RoundRect,0.237500X-0.287500X-0.237500X0.287500X-0.237500X0.287500X0.237500X-0.287500X0.237500X0*%
%ADD15RoundRect,0.237500X0.287500X0.237500X-0.287500X0.237500X-0.287500X-0.237500X0.287500X-0.237500X0*%
%ADD16RoundRect,0.225000X2.025000X-2.025000X2.025000X2.025000X-2.025000X2.025000X-2.025000X-2.025000X0*%
%ADD17RoundRect,0.292875X-0.432125X0.394625X-0.432125X-0.394625X0.432125X-0.394625X0.432125X0.394625X0*%
%ADD18RoundRect,0.292875X-0.394625X-0.432125X0.394625X-0.432125X0.394625X0.432125X-0.394625X0.432125X0*%
%ADD19RoundRect,0.237500X0.237500X-0.287500X0.237500X0.287500X-0.237500X0.287500X-0.237500X-0.287500X0*%
%ADD20RoundRect,0.062500X0.687500X-0.062500X0.687500X0.062500X-0.687500X0.062500X-0.687500X-0.062500X0*%
%ADD21RoundRect,0.062500X0.062500X-0.687500X0.062500X0.687500X-0.062500X0.687500X-0.062500X-0.687500X0*%
%ADD22R,1.000000X1.000000*%
G04 APERTURE END LIST*
D10*
X112369600Y-105211999D03*
X113639600Y-105211999D03*
X114909600Y-105211999D03*
X116179600Y-105211999D03*
X116179600Y-99512001D03*
X114909600Y-99512001D03*
X113639600Y-99512001D03*
X112369600Y-99512001D03*
X112369600Y-113345198D03*
X113639600Y-113345198D03*
X114909600Y-113345198D03*
X116179600Y-113345198D03*
X116179600Y-107645200D03*
X114909600Y-107645200D03*
X113639600Y-107645200D03*
X112369600Y-107645200D03*
X120040400Y-113390799D03*
X121310400Y-113390799D03*
X122580400Y-113390799D03*
X123850400Y-113390799D03*
X123850400Y-107690801D03*
X122580400Y-107690801D03*
X121310400Y-107690801D03*
X120040400Y-107690801D03*
X120091200Y-105267998D03*
X121361200Y-105267998D03*
X122631200Y-105267998D03*
X123901200Y-105267998D03*
X123901200Y-99568000D03*
X122631200Y-99568000D03*
X121361200Y-99568000D03*
X120091200Y-99568000D03*
D11*
X147458400Y-115976400D03*
X147458400Y-118476400D03*
X152058400Y-115976400D03*
X152058400Y-118476400D03*
D12*
X145694400Y-118288900D03*
X145694400Y-116163900D03*
D13*
X130209600Y-91916000D03*
X127934600Y-91916000D03*
D14*
X127725000Y-72390000D03*
X129475000Y-72390000D03*
D13*
X142900400Y-100939600D03*
X140625400Y-100939600D03*
D14*
X119153400Y-79248000D03*
X117403400Y-79248000D03*
D15*
X114429000Y-92862400D03*
X112679000Y-92862400D03*
D14*
X132325000Y-72390000D03*
X134075000Y-72390000D03*
D16*
X113792000Y-85240000D03*
X113792000Y-78740000D03*
D17*
X128295400Y-100214000D03*
X128295400Y-102489000D03*
D15*
X114429000Y-95046800D03*
X112679000Y-95046800D03*
D18*
X140623600Y-91948000D03*
X142898600Y-91948000D03*
D19*
X138830000Y-86212000D03*
X138830000Y-87962000D03*
D13*
X153806000Y-84576000D03*
X151531000Y-84576000D03*
D14*
X124233400Y-79248000D03*
X122483400Y-79248000D03*
D15*
X114429000Y-97231200D03*
X112679000Y-97231200D03*
D20*
X130352600Y-99885000D03*
X130352600Y-99485000D03*
X130352600Y-99085000D03*
X130352600Y-98685000D03*
X130352600Y-98285000D03*
X130352600Y-97885000D03*
X130352600Y-97485000D03*
X130352600Y-97085000D03*
X130352600Y-96685000D03*
X130352600Y-96285000D03*
X130352600Y-95885000D03*
X130352600Y-95485000D03*
X130352600Y-95085000D03*
X130352600Y-94685000D03*
X130352600Y-94285000D03*
X130352600Y-93885000D03*
D21*
X131527600Y-92710000D03*
X131927600Y-92710000D03*
X132327600Y-92710000D03*
X132727600Y-92710000D03*
X133127600Y-92710000D03*
X133527600Y-92710000D03*
X133927600Y-92710000D03*
X134327600Y-92710000D03*
X134727600Y-92710000D03*
X135127600Y-92710000D03*
X135527600Y-92710000D03*
X135927600Y-92710000D03*
X136327600Y-92710000D03*
X136727600Y-92710000D03*
X137127600Y-92710000D03*
X137527600Y-92710000D03*
D20*
X138702600Y-93885000D03*
X138702600Y-94285000D03*
X138702600Y-94685000D03*
X138702600Y-95085000D03*
X138702600Y-95485000D03*
X138702600Y-95885000D03*
X138702600Y-96285000D03*
X138702600Y-96685000D03*
X138702600Y-97085000D03*
X138702600Y-97485000D03*
X138702600Y-97885000D03*
X138702600Y-98285000D03*
X138702600Y-98685000D03*
X138702600Y-99085000D03*
X138702600Y-99485000D03*
X138702600Y-99885000D03*
D21*
X137527600Y-101060000D03*
X137127600Y-101060000D03*
X136727600Y-101060000D03*
X136327600Y-101060000D03*
X135927600Y-101060000D03*
X135527600Y-101060000D03*
X135127600Y-101060000D03*
X134727600Y-101060000D03*
X134327600Y-101060000D03*
X133927600Y-101060000D03*
X133527600Y-101060000D03*
X133127600Y-101060000D03*
X132727600Y-101060000D03*
X132327600Y-101060000D03*
X131927600Y-101060000D03*
X131527600Y-101060000D03*
D22*
X158364000Y-102108000D03*
X158364000Y-99608000D03*
D18*
X140614400Y-93980000D03*
X142889400Y-93980000D03*
D15*
X114429000Y-90716000D03*
X112679000Y-90716000D03*
D13*
X153806000Y-89148000D03*
X151531000Y-89148000D03*
M02*
