G04 #@! TF.GenerationSoftware,KiCad,Pcbnew,7.0.9*
G04 #@! TF.CreationDate,2024-06-27T15:35:45+09:00*
G04 #@! TF.ProjectId,YAMADAmain,59414d41-4441-46d6-9169-6e2e6b696361,rev?*
G04 #@! TF.SameCoordinates,Original*
G04 #@! TF.FileFunction,Copper,L2,Bot*
G04 #@! TF.FilePolarity,Positive*
%FSLAX46Y46*%
G04 Gerber Fmt 4.6, Leading zero omitted, Abs format (unit mm)*
G04 Created by KiCad (PCBNEW 7.0.9) date 2024-06-27 15:35:45*
%MOMM*%
%LPD*%
G01*
G04 APERTURE LIST*
G04 Aperture macros list*
%AMRoundRect*
0 Rectangle with rounded corners*
0 $1 Rounding radius*
0 $2 $3 $4 $5 $6 $7 $8 $9 X,Y pos of 4 corners*
0 Add a 4 corners polygon primitive as box body*
4,1,4,$2,$3,$4,$5,$6,$7,$8,$9,$2,$3,0*
0 Add four circle primitives for the rounded corners*
1,1,$1+$1,$2,$3*
1,1,$1+$1,$4,$5*
1,1,$1+$1,$6,$7*
1,1,$1+$1,$8,$9*
0 Add four rect primitives between the rounded corners*
20,1,$1+$1,$2,$3,$4,$5,0*
20,1,$1+$1,$4,$5,$6,$7,0*
20,1,$1+$1,$6,$7,$8,$9,0*
20,1,$1+$1,$8,$9,$2,$3,0*%
G04 Aperture macros list end*
G04 #@! TA.AperFunction,SMDPad,CuDef*
%ADD10RoundRect,0.635000X0.635000X0.635000X-0.635000X0.635000X-0.635000X-0.635000X0.635000X-0.635000X0*%
G04 #@! TD*
G04 #@! TA.AperFunction,ComponentPad*
%ADD11C,1.000000*%
G04 #@! TD*
G04 #@! TA.AperFunction,ComponentPad*
%ADD12C,5.600000*%
G04 #@! TD*
G04 #@! TA.AperFunction,ComponentPad*
%ADD13C,1.524000*%
G04 #@! TD*
G04 #@! TA.AperFunction,ComponentPad*
%ADD14RoundRect,0.625000X-0.875000X-0.625000X0.875000X-0.625000X0.875000X0.625000X-0.875000X0.625000X0*%
G04 #@! TD*
G04 #@! TA.AperFunction,ComponentPad*
%ADD15R,1.700000X1.700000*%
G04 #@! TD*
G04 #@! TA.AperFunction,ComponentPad*
%ADD16O,1.700000X1.700000*%
G04 #@! TD*
G04 #@! TA.AperFunction,ComponentPad*
%ADD17C,1.600000*%
G04 #@! TD*
G04 #@! TA.AperFunction,ComponentPad*
%ADD18R,1.800000X2.200000*%
G04 #@! TD*
G04 #@! TA.AperFunction,ComponentPad*
%ADD19O,1.800000X2.200000*%
G04 #@! TD*
G04 #@! TA.AperFunction,ComponentPad*
%ADD20O,1.700000X2.000000*%
G04 #@! TD*
G04 #@! TA.AperFunction,ComponentPad*
%ADD21RoundRect,0.250000X-0.600000X-0.750000X0.600000X-0.750000X0.600000X0.750000X-0.600000X0.750000X0*%
G04 #@! TD*
G04 #@! TA.AperFunction,SMDPad,CuDef*
%ADD22RoundRect,0.250000X-0.350000X-0.450000X0.350000X-0.450000X0.350000X0.450000X-0.350000X0.450000X0*%
G04 #@! TD*
G04 #@! TA.AperFunction,SMDPad,CuDef*
%ADD23RoundRect,0.250000X-1.100000X0.250000X-1.100000X-0.250000X1.100000X-0.250000X1.100000X0.250000X0*%
G04 #@! TD*
G04 #@! TA.AperFunction,SMDPad,CuDef*
%ADD24RoundRect,0.150000X-0.700000X0.150000X-0.700000X-0.150000X0.700000X-0.150000X0.700000X0.150000X0*%
G04 #@! TD*
G04 #@! TA.AperFunction,SMDPad,CuDef*
%ADD25RoundRect,0.292875X-0.394625X-0.432125X0.394625X-0.432125X0.394625X0.432125X-0.394625X0.432125X0*%
G04 #@! TD*
G04 #@! TA.AperFunction,SMDPad,CuDef*
%ADD26RoundRect,0.508000X2.032000X-0.508000X2.032000X0.508000X-2.032000X0.508000X-2.032000X-0.508000X0*%
G04 #@! TD*
G04 #@! TA.AperFunction,SMDPad,CuDef*
%ADD27RoundRect,0.250000X0.337500X0.475000X-0.337500X0.475000X-0.337500X-0.475000X0.337500X-0.475000X0*%
G04 #@! TD*
G04 #@! TA.AperFunction,SMDPad,CuDef*
%ADD28RoundRect,0.225000X0.375000X-0.225000X0.375000X0.225000X-0.375000X0.225000X-0.375000X-0.225000X0*%
G04 #@! TD*
G04 #@! TA.AperFunction,SMDPad,CuDef*
%ADD29RoundRect,0.250000X0.350000X0.450000X-0.350000X0.450000X-0.350000X-0.450000X0.350000X-0.450000X0*%
G04 #@! TD*
G04 #@! TA.AperFunction,SMDPad,CuDef*
%ADD30RoundRect,0.250000X0.475000X-0.337500X0.475000X0.337500X-0.475000X0.337500X-0.475000X-0.337500X0*%
G04 #@! TD*
G04 #@! TA.AperFunction,SMDPad,CuDef*
%ADD31RoundRect,0.292875X-0.432125X0.394625X-0.432125X-0.394625X0.432125X-0.394625X0.432125X0.394625X0*%
G04 #@! TD*
G04 #@! TA.AperFunction,SMDPad,CuDef*
%ADD32R,2.200000X1.200000*%
G04 #@! TD*
G04 #@! TA.AperFunction,SMDPad,CuDef*
%ADD33R,6.400000X5.800000*%
G04 #@! TD*
G04 #@! TA.AperFunction,SMDPad,CuDef*
%ADD34RoundRect,0.250000X0.450000X-0.350000X0.450000X0.350000X-0.450000X0.350000X-0.450000X-0.350000X0*%
G04 #@! TD*
G04 #@! TA.AperFunction,SMDPad,CuDef*
%ADD35RoundRect,0.292875X0.394625X0.432125X-0.394625X0.432125X-0.394625X-0.432125X0.394625X-0.432125X0*%
G04 #@! TD*
G04 #@! TA.AperFunction,ViaPad*
%ADD36C,0.500000*%
G04 #@! TD*
G04 #@! TA.AperFunction,Conductor*
%ADD37C,1.000000*%
G04 #@! TD*
G04 #@! TA.AperFunction,Conductor*
%ADD38C,0.500000*%
G04 #@! TD*
G04 #@! TA.AperFunction,Conductor*
%ADD39C,0.150000*%
G04 #@! TD*
G04 APERTURE END LIST*
D10*
X122174000Y-116840000D03*
X119126000Y-116840000D03*
D11*
X111680000Y-72850000D03*
X112324370Y-71294370D03*
X112324370Y-74405630D03*
X113880000Y-70650000D03*
D12*
X113880000Y-72850000D03*
D11*
X113880000Y-75050000D03*
X115435630Y-71294370D03*
X115435630Y-74405630D03*
X116080000Y-72850000D03*
D13*
X128270000Y-80342000D03*
X130810000Y-80342000D03*
X138430000Y-80342000D03*
X128270000Y-75262000D03*
X130810000Y-75262000D03*
X138430000Y-75262000D03*
D14*
X121012000Y-84660000D03*
X121012000Y-88060000D03*
X134512000Y-84660000D03*
X134512000Y-88060000D03*
D15*
X130282000Y-105156000D03*
D16*
X127742000Y-105156000D03*
X130282000Y-107696000D03*
X127742000Y-107696000D03*
X130282000Y-110236000D03*
X127742000Y-110236000D03*
X130282000Y-112776000D03*
X127742000Y-112776000D03*
X130282000Y-115316000D03*
X127742000Y-115316000D03*
X130282000Y-117856000D03*
X127742000Y-117856000D03*
D11*
X155950000Y-72850000D03*
X156594370Y-71294370D03*
X156594370Y-74405630D03*
X158150000Y-70650000D03*
D12*
X158150000Y-72850000D03*
D11*
X158150000Y-75050000D03*
X159705630Y-71294370D03*
X159705630Y-74405630D03*
X160350000Y-72850000D03*
D15*
X137668000Y-107696000D03*
D16*
X135128000Y-107696000D03*
X137668000Y-110236000D03*
X135128000Y-110236000D03*
X137668000Y-112776000D03*
X135128000Y-112776000D03*
X137668000Y-115316000D03*
X135128000Y-115316000D03*
X137668000Y-117856000D03*
X135128000Y-117856000D03*
D17*
X113792000Y-85240000D03*
X113792000Y-78740000D03*
D11*
X111650000Y-117150000D03*
X112294370Y-115594370D03*
X112294370Y-118705630D03*
X113850000Y-114950000D03*
D12*
X113850000Y-117150000D03*
D11*
X113850000Y-119350000D03*
X115405630Y-115594370D03*
X115405630Y-118705630D03*
X116050000Y-117150000D03*
X155950000Y-117150000D03*
X156594370Y-115594370D03*
X156594370Y-118705630D03*
X158150000Y-114950000D03*
D12*
X158150000Y-117150000D03*
D11*
X158150000Y-119350000D03*
X159705630Y-115594370D03*
X159705630Y-118705630D03*
X160350000Y-117150000D03*
D18*
X143002000Y-112776000D03*
D19*
X145542000Y-112776000D03*
X148082000Y-112776000D03*
X150622000Y-112776000D03*
X153162000Y-112776000D03*
X155702000Y-112776000D03*
X158242000Y-112776000D03*
X158242000Y-77216000D03*
X155702000Y-77216000D03*
X153162000Y-77216000D03*
X150622000Y-77216000D03*
X148082000Y-77216000D03*
X145542000Y-77216000D03*
X143002000Y-77216000D03*
D20*
X122916000Y-72881000D03*
D21*
X120416000Y-72881000D03*
D22*
X112554000Y-92862400D03*
X114554000Y-92862400D03*
D23*
X158698000Y-105773000D03*
X158698000Y-95823000D03*
D24*
X155498000Y-103923000D03*
X155498000Y-102673000D03*
X155498000Y-101423000D03*
X155498000Y-100173000D03*
X155498000Y-98923000D03*
X155498000Y-97673000D03*
D25*
X148620900Y-117226400D03*
X150895900Y-117226400D03*
D26*
X121996200Y-103687999D03*
X121996200Y-101147999D03*
D27*
X131485500Y-87962000D03*
X129410500Y-87962000D03*
D22*
X112554000Y-95046800D03*
X114554000Y-95046800D03*
X112554000Y-97231200D03*
X114554000Y-97231200D03*
X112554000Y-90716000D03*
X114554000Y-90716000D03*
D26*
X114274600Y-111765199D03*
X114274600Y-109225199D03*
X114274600Y-103632000D03*
X114274600Y-101092000D03*
X121945400Y-111810800D03*
X121945400Y-109270800D03*
D28*
X133604000Y-79452000D03*
X133604000Y-76152000D03*
D29*
X134200000Y-72390000D03*
X132200000Y-72390000D03*
X119278400Y-79248000D03*
X117278400Y-79248000D03*
D30*
X113792000Y-83027500D03*
X113792000Y-80952500D03*
D29*
X127600000Y-72390000D03*
X129600000Y-72390000D03*
D31*
X128295400Y-100208500D03*
X128295400Y-102483500D03*
D32*
X153806000Y-84588000D03*
X153806000Y-86868000D03*
D33*
X147506000Y-86868000D03*
D32*
X153806000Y-89148000D03*
D34*
X138830000Y-88087000D03*
X138830000Y-86087000D03*
D29*
X124358400Y-79248000D03*
X122358400Y-79248000D03*
D34*
X128170000Y-96020000D03*
X128170000Y-94020000D03*
D35*
X136779000Y-103759000D03*
X134504000Y-103759000D03*
D36*
X122555000Y-113665000D03*
X113792000Y-82981800D03*
X153797000Y-84582000D03*
X153797000Y-89154000D03*
X142900400Y-100939600D03*
X130200400Y-91897200D03*
X136779000Y-103759000D03*
X140614400Y-91897200D03*
X130302000Y-100330000D03*
X134232000Y-72390000D03*
X119557800Y-79248000D03*
X138836400Y-85801200D03*
X124637800Y-79248000D03*
X129884000Y-72390000D03*
X112268000Y-90703400D03*
X112268000Y-92837000D03*
X112293400Y-95046800D03*
X112268000Y-97231200D03*
X127482600Y-97180400D03*
X126466600Y-98323400D03*
X133858000Y-102489000D03*
X145694400Y-116179600D03*
X137160000Y-102489000D03*
X146050000Y-102616000D03*
X151028400Y-117221000D03*
X143129000Y-102489000D03*
X128803400Y-98285000D03*
X124460000Y-93472000D03*
X140563600Y-98298000D03*
X140563600Y-97536000D03*
X140563600Y-96774000D03*
X140563600Y-99060000D03*
X112242600Y-103378000D03*
X112217200Y-101346000D03*
X112242600Y-111506000D03*
X112293400Y-109499400D03*
X119964200Y-103454200D03*
X119938800Y-101422200D03*
X119913400Y-111556800D03*
X120167400Y-109524800D03*
X114909600Y-99364800D03*
X114909600Y-107264200D03*
X122631200Y-99415600D03*
X114909600Y-105410000D03*
X122580400Y-107442000D03*
X122605800Y-105486200D03*
X140563600Y-95250000D03*
X141224000Y-117297200D03*
X121666000Y-96520000D03*
X125272800Y-99999800D03*
X125272800Y-98323400D03*
X122186700Y-95237300D03*
X119634000Y-97028000D03*
X116967000Y-98171000D03*
X150622000Y-83261200D03*
X148082000Y-83261200D03*
X146685000Y-90805000D03*
X144145000Y-90805000D03*
X140665200Y-116840000D03*
X140563600Y-96012000D03*
X155448000Y-97663000D03*
X147066000Y-103505000D03*
X135890000Y-97790000D03*
X135890000Y-95250000D03*
X149860000Y-99060000D03*
X116840000Y-71120000D03*
X160020000Y-91440000D03*
X111760000Y-76200000D03*
X157480000Y-104140000D03*
X116840000Y-114300000D03*
X160020000Y-104140000D03*
X157480000Y-83820000D03*
X142240000Y-86360000D03*
X152400000Y-73660000D03*
X160020000Y-114300000D03*
X133350000Y-95250000D03*
X137160000Y-96520000D03*
X149860000Y-73660000D03*
X144780000Y-73660000D03*
X160020000Y-81280000D03*
X114300000Y-88900000D03*
X154940000Y-119380000D03*
X134493000Y-103759000D03*
X137160000Y-71120000D03*
X160020000Y-76200000D03*
X116840000Y-88900000D03*
X139700000Y-71120000D03*
X129540000Y-83820000D03*
X134620000Y-95250000D03*
X157480000Y-81280000D03*
X149860000Y-96520000D03*
X152400000Y-96520000D03*
X132080000Y-86360000D03*
X144780000Y-119380000D03*
X134620000Y-99060000D03*
X111760000Y-88900000D03*
X149860000Y-109220000D03*
X160020000Y-109220000D03*
X144780000Y-81280000D03*
X132080000Y-99060000D03*
X129540000Y-86360000D03*
X121920000Y-119380000D03*
X132080000Y-83820000D03*
X116840000Y-119380000D03*
X144780000Y-71120000D03*
X121920000Y-71120000D03*
X116840000Y-86360000D03*
X152400000Y-119380000D03*
X132080000Y-116840000D03*
X160020000Y-88900000D03*
X111760000Y-106680000D03*
X152400000Y-71120000D03*
X147320000Y-73660000D03*
X137160000Y-78740000D03*
X160020000Y-78740000D03*
X160020000Y-83820000D03*
X135890000Y-99060000D03*
X132080000Y-97790000D03*
X119380000Y-119380000D03*
X139700000Y-76200000D03*
X149860000Y-106680000D03*
X160020000Y-111760000D03*
X147320000Y-71120000D03*
X137160000Y-83820000D03*
X160020000Y-86360000D03*
X157480000Y-93980000D03*
X124460000Y-83820000D03*
X154940000Y-109220000D03*
X119380000Y-71120000D03*
X152400000Y-99060000D03*
X133350000Y-99060000D03*
X137160000Y-99060000D03*
X142240000Y-119380000D03*
X119380000Y-93980000D03*
X119380000Y-76200000D03*
X142240000Y-81280000D03*
X119380000Y-86360000D03*
X157480000Y-109220000D03*
X149860000Y-101600000D03*
X111760000Y-114300000D03*
X142240000Y-71120000D03*
X137160000Y-76200000D03*
X137160000Y-97790000D03*
X124460000Y-71120000D03*
X142240000Y-109220000D03*
X142240000Y-83820000D03*
X157480000Y-86360000D03*
X116840000Y-93980000D03*
X134620000Y-97790000D03*
X149860000Y-71120000D03*
X124460000Y-86360000D03*
X132080000Y-95250000D03*
X133350000Y-96520000D03*
X116840000Y-76200000D03*
X139700000Y-78740000D03*
X137160000Y-95250000D03*
X139700000Y-83820000D03*
X157480000Y-88900000D03*
X154940000Y-91440000D03*
X152400000Y-109220000D03*
X152400000Y-93980000D03*
X154940000Y-93980000D03*
X135890000Y-96520000D03*
X149860000Y-119380000D03*
X132080000Y-96520000D03*
X144780000Y-96520000D03*
X132080000Y-71120000D03*
X127000000Y-71120000D03*
X133350000Y-97790000D03*
X139700000Y-81280000D03*
X124460000Y-119380000D03*
X154940000Y-71120000D03*
X157480000Y-91440000D03*
X129540000Y-76200000D03*
X147320000Y-119380000D03*
X154940000Y-73660000D03*
X152400000Y-101600000D03*
X142240000Y-106680000D03*
X152400000Y-106680000D03*
X113792000Y-81000600D03*
X134620000Y-96520000D03*
D37*
X122555000Y-116459000D02*
X122174000Y-116840000D01*
X122555000Y-113665000D02*
X122555000Y-116459000D01*
D38*
X141986000Y-73660000D02*
X145542000Y-77216000D01*
X133470000Y-73660000D02*
X141986000Y-73660000D01*
X128270000Y-73060000D02*
X127600000Y-72390000D01*
X128270000Y-75262000D02*
X128270000Y-73060000D01*
X121012000Y-84660000D02*
X117278400Y-80926400D01*
X117278400Y-80926400D02*
X117278400Y-79248000D01*
D37*
X140614400Y-91897200D02*
X142544800Y-93827600D01*
X142900400Y-100053600D02*
X145034000Y-97920000D01*
X130200400Y-91897200D02*
X140614400Y-91897200D01*
X145034000Y-97920000D02*
X153797000Y-89157000D01*
X145034000Y-110744000D02*
X143002000Y-112776000D01*
X145034000Y-105918000D02*
X145034000Y-97920000D01*
X142544800Y-93827600D02*
X149126400Y-93827600D01*
X153797000Y-89157000D02*
X153797000Y-89154000D01*
X153797000Y-89154000D02*
X153800000Y-89154000D01*
X145034000Y-105918000D02*
X145034000Y-110744000D01*
D38*
X132200000Y-72390000D02*
X133470000Y-73660000D01*
D37*
X153800000Y-89154000D02*
X153806000Y-89148000D01*
X142900400Y-100939600D02*
X142900400Y-100053600D01*
D39*
X128295400Y-100208500D02*
X130180500Y-100208500D01*
X130180500Y-100208500D02*
X130302000Y-100330000D01*
D37*
X130810000Y-80342000D02*
X131700000Y-79452000D01*
X131700000Y-79452000D02*
X133604000Y-79452000D01*
X138430000Y-80742000D02*
X134512000Y-84660000D01*
X138803000Y-88060000D02*
X138830000Y-88087000D01*
X134512000Y-88060000D02*
X131583500Y-88060000D01*
X131583500Y-88060000D02*
X131485500Y-87962000D01*
X134512000Y-88060000D02*
X138803000Y-88060000D01*
X138430000Y-80342000D02*
X138430000Y-80742000D01*
D39*
X127482600Y-97180400D02*
X127000000Y-97663000D01*
X127000000Y-97663000D02*
X127000000Y-104414000D01*
X127000000Y-104414000D02*
X127742000Y-105156000D01*
X126472000Y-106426000D02*
X127742000Y-107696000D01*
X126466600Y-98323400D02*
X126466600Y-106426000D01*
X126466600Y-106426000D02*
X126472000Y-106426000D01*
X141681200Y-114757200D02*
X143103600Y-116179600D01*
X146107000Y-102673000D02*
X155498000Y-102673000D01*
X143129000Y-102489000D02*
X141681200Y-103936800D01*
X133858000Y-102489000D02*
X137160000Y-102489000D01*
X146050000Y-102616000D02*
X146107000Y-102673000D01*
X133858000Y-102489000D02*
X133045200Y-103301800D01*
X133045200Y-103301800D02*
X133045200Y-107472800D01*
X133045200Y-107472800D02*
X130282000Y-110236000D01*
X143103600Y-116179600D02*
X145694400Y-116179600D01*
X141681200Y-103936800D02*
X141681200Y-114757200D01*
X127742000Y-117856000D02*
X125880000Y-115994000D01*
X128170000Y-96020000D02*
X128170000Y-97651600D01*
X125880000Y-115994000D02*
X125880000Y-97800000D01*
X125880000Y-97800000D02*
X127660000Y-96020000D01*
X128170000Y-97651600D02*
X128803400Y-98285000D01*
X127660000Y-96020000D02*
X128170000Y-96020000D01*
X123647200Y-80536800D02*
X122358400Y-79248000D01*
D37*
X122916000Y-78690400D02*
X122358400Y-79248000D01*
D39*
X123647200Y-92659200D02*
X123647200Y-80536800D01*
X124460000Y-93472000D02*
X123647200Y-92659200D01*
D37*
X122916000Y-72881000D02*
X122916000Y-78690400D01*
D39*
X138684000Y-100177600D02*
X138684000Y-106680000D01*
X138684000Y-106680000D02*
X137668000Y-107696000D01*
X140563600Y-98298000D02*
X138684000Y-100177600D01*
X137033000Y-106121200D02*
X134899400Y-106121200D01*
X140563600Y-97536000D02*
X139496800Y-97536000D01*
X133858000Y-107162600D02*
X133858000Y-108966000D01*
X134899400Y-106121200D02*
X133858000Y-107162600D01*
X138277600Y-98755200D02*
X138277600Y-104876600D01*
X139496800Y-97536000D02*
X138277600Y-98755200D01*
X133858000Y-108966000D02*
X135128000Y-110236000D01*
X138277600Y-104876600D02*
X137033000Y-106121200D01*
X137922000Y-104546400D02*
X136804400Y-105664000D01*
X136804400Y-105664000D02*
X134721600Y-105664000D01*
X137922000Y-98602800D02*
X137922000Y-104546400D01*
X134721600Y-105664000D02*
X133451600Y-106934000D01*
X133451600Y-106934000D02*
X133451600Y-111099600D01*
X133451600Y-111099600D02*
X135128000Y-112776000D01*
X140563600Y-96774000D02*
X139750800Y-96774000D01*
X139750800Y-96774000D02*
X137922000Y-98602800D01*
X140106400Y-112877600D02*
X137668000Y-115316000D01*
X140106400Y-99517200D02*
X140106400Y-112877600D01*
X140563600Y-99060000D02*
X140106400Y-99517200D01*
D37*
X122605800Y-105486200D02*
X122605800Y-107416600D01*
X114909600Y-99364800D02*
X122580400Y-99364800D01*
X122605800Y-107416600D02*
X122580400Y-107442000D01*
X114909600Y-105359200D02*
X114909600Y-105410000D01*
X126085600Y-77446400D02*
X126085600Y-95910400D01*
X126085600Y-95910400D02*
X122631200Y-99364800D01*
X114909600Y-105410000D02*
X114909600Y-107264200D01*
X122580400Y-99364800D02*
X122631200Y-99364800D01*
X128270000Y-75262000D02*
X126085600Y-77446400D01*
D39*
X141935200Y-102412800D02*
X141224000Y-103124000D01*
X141935200Y-96621600D02*
X141935200Y-102412800D01*
X122936000Y-94488000D02*
X119164000Y-90716000D01*
X140563600Y-95250000D02*
X141935200Y-96621600D01*
X141224000Y-103124000D02*
X141224000Y-117297200D01*
X121666000Y-96520000D02*
X122936000Y-95250000D01*
X122936000Y-95250000D02*
X122936000Y-94488000D01*
X119164000Y-90716000D02*
X114554000Y-90716000D01*
X122186700Y-95237300D02*
X119811800Y-92862400D01*
X125272800Y-99999800D02*
X125272800Y-98323400D01*
X119811800Y-92862400D02*
X114554000Y-92862400D01*
X119634000Y-97028000D02*
X117652800Y-95046800D01*
X117652800Y-95046800D02*
X114554000Y-95046800D01*
X116967000Y-98171000D02*
X116027200Y-97231200D01*
X116027200Y-97231200D02*
X114554000Y-97231200D01*
X150622000Y-83261200D02*
X150622000Y-77216000D01*
X148082000Y-83261200D02*
X148082000Y-77216000D01*
X144145000Y-90805000D02*
X146685000Y-90805000D01*
X140563600Y-96012000D02*
X141579600Y-97028000D01*
X141579600Y-102158800D02*
X140665200Y-103073200D01*
X140665200Y-103073200D02*
X140665200Y-116840000D01*
X141579600Y-97028000D02*
X141579600Y-102158800D01*
X147484000Y-103923000D02*
X155498000Y-103923000D01*
X147066000Y-103505000D02*
X147484000Y-103923000D01*
G04 #@! TA.AperFunction,Conductor*
G36*
X144301945Y-99729192D02*
G01*
X144330979Y-99770656D01*
X144333500Y-99789809D01*
X144333500Y-110423191D01*
X144316187Y-110470757D01*
X144311826Y-110475517D01*
X143333517Y-111453826D01*
X143287641Y-111475218D01*
X143281191Y-111475500D01*
X142082251Y-111475500D01*
X142045135Y-111482882D01*
X141995105Y-111475181D01*
X141961731Y-111437123D01*
X141956700Y-111410304D01*
X141956700Y-104081568D01*
X141974013Y-104034002D01*
X141978374Y-104029242D01*
X143046442Y-102961174D01*
X143092318Y-102939782D01*
X143098768Y-102939500D01*
X143193772Y-102939500D01*
X143318069Y-102903004D01*
X143427049Y-102832967D01*
X143511882Y-102735063D01*
X143565697Y-102617226D01*
X143584133Y-102489000D01*
X143565697Y-102360774D01*
X143511882Y-102242937D01*
X143427049Y-102145033D01*
X143350992Y-102096154D01*
X143318068Y-102074995D01*
X143193772Y-102038500D01*
X143064228Y-102038500D01*
X142939931Y-102074995D01*
X142830954Y-102145031D01*
X142830950Y-102145034D01*
X142746119Y-102242935D01*
X142692302Y-102360776D01*
X142673917Y-102488649D01*
X142673867Y-102489000D01*
X142673973Y-102489740D01*
X142676831Y-102509615D01*
X142666463Y-102559161D01*
X142655910Y-102572472D01*
X141625826Y-103602557D01*
X141579950Y-103623949D01*
X141531055Y-103610848D01*
X141502021Y-103569384D01*
X141499500Y-103550231D01*
X141499500Y-103268767D01*
X141516813Y-103221201D01*
X141521163Y-103216452D01*
X142105673Y-102631941D01*
X142116876Y-102622747D01*
X142133824Y-102611424D01*
X142194715Y-102520295D01*
X142210700Y-102439933D01*
X142210700Y-102439932D01*
X142216097Y-102412800D01*
X142212122Y-102392815D01*
X142210700Y-102378379D01*
X142210700Y-101411006D01*
X142228013Y-101363440D01*
X142271850Y-101338130D01*
X142321700Y-101346920D01*
X142345600Y-101368968D01*
X142372217Y-101407529D01*
X142499548Y-101520334D01*
X142650175Y-101599390D01*
X142815344Y-101640100D01*
X142815348Y-101640100D01*
X142985452Y-101640100D01*
X142985456Y-101640100D01*
X143150625Y-101599390D01*
X143301252Y-101520334D01*
X143428583Y-101407529D01*
X143525218Y-101267530D01*
X143585540Y-101108472D01*
X143600900Y-100981972D01*
X143600900Y-100374409D01*
X143618213Y-100326843D01*
X143622574Y-100322083D01*
X144207174Y-99737483D01*
X144253050Y-99716091D01*
X144301945Y-99729192D01*
G37*
G04 #@! TD.AperFunction*
G04 #@! TA.AperFunction,Conductor*
G36*
X136137569Y-102781813D02*
G01*
X136162879Y-102825650D01*
X136154089Y-102875500D01*
X136134350Y-102897740D01*
X136031919Y-102974419D01*
X135946897Y-103087994D01*
X135946896Y-103087995D01*
X135897319Y-103220917D01*
X135897317Y-103220923D01*
X135891000Y-103279687D01*
X135891000Y-104238311D01*
X135891001Y-104238312D01*
X135897318Y-104297080D01*
X135946896Y-104430004D01*
X135946897Y-104430005D01*
X135946898Y-104430006D01*
X136031919Y-104543581D01*
X136124150Y-104612624D01*
X136145494Y-104628602D01*
X136145495Y-104628603D01*
X136254856Y-104669392D01*
X136278422Y-104678182D01*
X136337189Y-104684500D01*
X137215632Y-104684499D01*
X137263198Y-104701812D01*
X137288508Y-104745649D01*
X137279718Y-104795499D01*
X137267958Y-104810825D01*
X136711958Y-105366826D01*
X136666082Y-105388218D01*
X136659632Y-105388500D01*
X134756020Y-105388500D01*
X134741583Y-105387078D01*
X134721600Y-105383103D01*
X134614104Y-105404485D01*
X134547905Y-105448718D01*
X134522976Y-105465375D01*
X134522974Y-105465377D01*
X134511653Y-105482319D01*
X134502453Y-105493529D01*
X133447026Y-106548957D01*
X133401150Y-106570349D01*
X133352255Y-106557248D01*
X133323221Y-106515784D01*
X133320700Y-106496631D01*
X133320700Y-103446568D01*
X133338013Y-103399002D01*
X133342374Y-103394242D01*
X133775442Y-102961174D01*
X133821318Y-102939782D01*
X133827768Y-102939500D01*
X133922772Y-102939500D01*
X134047069Y-102903004D01*
X134156049Y-102832967D01*
X134193244Y-102790041D01*
X134237477Y-102765430D01*
X134249170Y-102764500D01*
X136090003Y-102764500D01*
X136137569Y-102781813D01*
G37*
G04 #@! TD.AperFunction*
G04 #@! TA.AperFunction,Conductor*
G36*
X156873538Y-70017813D02*
G01*
X156898848Y-70061650D01*
X156890058Y-70111500D01*
X156859183Y-70140628D01*
X156652997Y-70244178D01*
X156647203Y-70247089D01*
X156355188Y-70439151D01*
X156087451Y-70663808D01*
X156087443Y-70663816D01*
X155847587Y-70918047D01*
X155638872Y-71198400D01*
X155638871Y-71198401D01*
X155464109Y-71501099D01*
X155464109Y-71501100D01*
X155325673Y-71822030D01*
X155325671Y-71822033D01*
X155225432Y-72156856D01*
X155164737Y-72501074D01*
X155144415Y-72850000D01*
X155164737Y-73198925D01*
X155225432Y-73543143D01*
X155325671Y-73877966D01*
X155325673Y-73877969D01*
X155390166Y-74027480D01*
X155435326Y-74132174D01*
X155464109Y-74198899D01*
X155464109Y-74198900D01*
X155638871Y-74501598D01*
X155638872Y-74501599D01*
X155695838Y-74578118D01*
X155847588Y-74781953D01*
X156087442Y-75036183D01*
X156087448Y-75036188D01*
X156087451Y-75036191D01*
X156284452Y-75201493D01*
X156355189Y-75260849D01*
X156647207Y-75452913D01*
X156959549Y-75609777D01*
X156959555Y-75609780D01*
X157287983Y-75729317D01*
X157287995Y-75729321D01*
X157628077Y-75809921D01*
X157628080Y-75809921D01*
X157628086Y-75809923D01*
X157847213Y-75835535D01*
X157892447Y-75858253D01*
X157912496Y-75904732D01*
X157897978Y-75953225D01*
X157869362Y-75976347D01*
X157689247Y-76058604D01*
X157689245Y-76058605D01*
X157518047Y-76180514D01*
X157373014Y-76332620D01*
X157259385Y-76509431D01*
X157181274Y-76704544D01*
X157141500Y-76910916D01*
X157141500Y-77468424D01*
X157156472Y-77625220D01*
X157215683Y-77826873D01*
X157215685Y-77826877D01*
X157311986Y-78013678D01*
X157311988Y-78013681D01*
X157311989Y-78013682D01*
X157441908Y-78178886D01*
X157600740Y-78316516D01*
X157600741Y-78316516D01*
X157600744Y-78316519D01*
X157782756Y-78421604D01*
X157981367Y-78490344D01*
X158189398Y-78520254D01*
X158399330Y-78510254D01*
X158603576Y-78460704D01*
X158794753Y-78373396D01*
X158965952Y-78251486D01*
X159110986Y-78099378D01*
X159224613Y-77922572D01*
X159302725Y-77727457D01*
X159342500Y-77521085D01*
X159342500Y-76963575D01*
X159327528Y-76806782D01*
X159268316Y-76605125D01*
X159172011Y-76418318D01*
X159042092Y-76253114D01*
X159033087Y-76245311D01*
X158883259Y-76115483D01*
X158797833Y-76066162D01*
X158701244Y-76010396D01*
X158701240Y-76010394D01*
X158701239Y-76010394D01*
X158566692Y-75963827D01*
X158527404Y-75931909D01*
X158517825Y-75882205D01*
X158542435Y-75837971D01*
X158582304Y-75820397D01*
X158671914Y-75809923D01*
X158751391Y-75791086D01*
X159012004Y-75729321D01*
X159012007Y-75729319D01*
X159012011Y-75729319D01*
X159105581Y-75695262D01*
X159340444Y-75609780D01*
X159340447Y-75609778D01*
X159340451Y-75609777D01*
X159652793Y-75452913D01*
X159944811Y-75260849D01*
X160212558Y-75036183D01*
X160452412Y-74781953D01*
X160661130Y-74501596D01*
X160835889Y-74198904D01*
X160857552Y-74148682D01*
X160892289Y-74111864D01*
X160942566Y-74105988D01*
X160984857Y-74133803D01*
X160999500Y-74177993D01*
X160999500Y-115822006D01*
X160982187Y-115869572D01*
X160938350Y-115894882D01*
X160888500Y-115886092D01*
X160857552Y-115851316D01*
X160850786Y-115835631D01*
X160835889Y-115801096D01*
X160661130Y-115498404D01*
X160452412Y-115218047D01*
X160212558Y-114963817D01*
X160212551Y-114963811D01*
X160212548Y-114963808D01*
X159944811Y-114739151D01*
X159831702Y-114664758D01*
X159652793Y-114547087D01*
X159436210Y-114438315D01*
X159340444Y-114390219D01*
X159012016Y-114270682D01*
X159012004Y-114270678D01*
X158671922Y-114190078D01*
X158671912Y-114190076D01*
X158565123Y-114177594D01*
X158519888Y-114154875D01*
X158499839Y-114108396D01*
X158514357Y-114059904D01*
X158556267Y-114032181D01*
X158603576Y-114020704D01*
X158794753Y-113933396D01*
X158965952Y-113811486D01*
X159110986Y-113659378D01*
X159224613Y-113482572D01*
X159302725Y-113287457D01*
X159342500Y-113081085D01*
X159342500Y-112523575D01*
X159327528Y-112366782D01*
X159268316Y-112165125D01*
X159218981Y-112069428D01*
X159172013Y-111978321D01*
X159104616Y-111892620D01*
X159042092Y-111813114D01*
X159042091Y-111813113D01*
X158883259Y-111675483D01*
X158883256Y-111675481D01*
X158701244Y-111570396D01*
X158701240Y-111570394D01*
X158701239Y-111570394D01*
X158502636Y-111501657D01*
X158502633Y-111501656D01*
X158294602Y-111471746D01*
X158294598Y-111471746D01*
X158294596Y-111471746D01*
X158084668Y-111481746D01*
X157880427Y-111531295D01*
X157880425Y-111531295D01*
X157880424Y-111531296D01*
X157689247Y-111618604D01*
X157689245Y-111618605D01*
X157518047Y-111740514D01*
X157373014Y-111892620D01*
X157259385Y-112069431D01*
X157181274Y-112264544D01*
X157141500Y-112470916D01*
X157141500Y-113028424D01*
X157156472Y-113185220D01*
X157215683Y-113386873D01*
X157215685Y-113386877D01*
X157311986Y-113573678D01*
X157311988Y-113573681D01*
X157311989Y-113573682D01*
X157441908Y-113738886D01*
X157600740Y-113876516D01*
X157600741Y-113876516D01*
X157600744Y-113876519D01*
X157782756Y-113981604D01*
X157888135Y-114018076D01*
X157927423Y-114049994D01*
X157937002Y-114099698D01*
X157912392Y-114143932D01*
X157872523Y-114161506D01*
X157628087Y-114190076D01*
X157628077Y-114190078D01*
X157287995Y-114270678D01*
X157287983Y-114270682D01*
X156959555Y-114390219D01*
X156647203Y-114547089D01*
X156355188Y-114739151D01*
X156087451Y-114963808D01*
X156087443Y-114963816D01*
X155847587Y-115218047D01*
X155638872Y-115498400D01*
X155638871Y-115498401D01*
X155464109Y-115801099D01*
X155464109Y-115801100D01*
X155325673Y-116122030D01*
X155325671Y-116122033D01*
X155225432Y-116456856D01*
X155164737Y-116801074D01*
X155144415Y-117150000D01*
X155164737Y-117498925D01*
X155225432Y-117843143D01*
X155325671Y-118177966D01*
X155325673Y-118177969D01*
X155464109Y-118498899D01*
X155464109Y-118498900D01*
X155638871Y-118801598D01*
X155638872Y-118801599D01*
X155720751Y-118911582D01*
X155847588Y-119081953D01*
X156087442Y-119336183D01*
X156087448Y-119336188D01*
X156087451Y-119336191D01*
X156284452Y-119501493D01*
X156355189Y-119560849D01*
X156647207Y-119752913D01*
X156859183Y-119859371D01*
X156893920Y-119896190D01*
X156896863Y-119946724D01*
X156866636Y-119987326D01*
X156825972Y-119999500D01*
X115174028Y-119999500D01*
X115126462Y-119982187D01*
X115101152Y-119938350D01*
X115109942Y-119888500D01*
X115140816Y-119859371D01*
X115352793Y-119752913D01*
X115644811Y-119560849D01*
X115912558Y-119336183D01*
X116152412Y-119081953D01*
X116361130Y-118801596D01*
X116535889Y-118498904D01*
X116674326Y-118177971D01*
X116674327Y-118177967D01*
X116674328Y-118177966D01*
X116774567Y-117843143D01*
X116774567Y-117843142D01*
X116774569Y-117843136D01*
X116835262Y-117498927D01*
X116855585Y-117150000D01*
X116835262Y-116801073D01*
X116774569Y-116456864D01*
X116774467Y-116456522D01*
X116674328Y-116122033D01*
X116674326Y-116122030D01*
X116661175Y-116091542D01*
X116535889Y-115801096D01*
X116361130Y-115498404D01*
X116152412Y-115218047D01*
X115912558Y-114963817D01*
X115912551Y-114963811D01*
X115912548Y-114963808D01*
X115644811Y-114739151D01*
X115531702Y-114664758D01*
X115352793Y-114547087D01*
X115136210Y-114438315D01*
X115040444Y-114390219D01*
X114712016Y-114270682D01*
X114712004Y-114270678D01*
X114371922Y-114190078D01*
X114371912Y-114190076D01*
X114024759Y-114149500D01*
X113675241Y-114149500D01*
X113328087Y-114190076D01*
X113328077Y-114190078D01*
X112987995Y-114270678D01*
X112987983Y-114270682D01*
X112659555Y-114390219D01*
X112347203Y-114547089D01*
X112055188Y-114739151D01*
X111787451Y-114963808D01*
X111787443Y-114963816D01*
X111547587Y-115218047D01*
X111338872Y-115498400D01*
X111338871Y-115498401D01*
X111164109Y-115801099D01*
X111164109Y-115801100D01*
X111142448Y-115851316D01*
X111107711Y-115888135D01*
X111057434Y-115894011D01*
X111015143Y-115866195D01*
X111000500Y-115822006D01*
X111000500Y-112330459D01*
X111534100Y-112330459D01*
X111534101Y-112330472D01*
X111540586Y-112401842D01*
X111540586Y-112401843D01*
X111540586Y-112401845D01*
X111540587Y-112401848D01*
X111591773Y-112566112D01*
X111680784Y-112713354D01*
X111802445Y-112835015D01*
X111949687Y-112924026D01*
X112113951Y-112975212D01*
X112185335Y-112981699D01*
X116363864Y-112981698D01*
X116435249Y-112975212D01*
X116599513Y-112924026D01*
X116746755Y-112835015D01*
X116868416Y-112713354D01*
X116957427Y-112566112D01*
X117008613Y-112401848D01*
X117015100Y-112330464D01*
X117015099Y-111199935D01*
X117008613Y-111128550D01*
X116957427Y-110964286D01*
X116868416Y-110817044D01*
X116746755Y-110695383D01*
X116599513Y-110606372D01*
X116469464Y-110565847D01*
X116429204Y-110535169D01*
X116418082Y-110485787D01*
X116441304Y-110440809D01*
X116469463Y-110424550D01*
X116599513Y-110384026D01*
X116746755Y-110295015D01*
X116868416Y-110173354D01*
X116957427Y-110026112D01*
X117008613Y-109861848D01*
X117015100Y-109790464D01*
X117015099Y-108659935D01*
X117008613Y-108588550D01*
X116957427Y-108424286D01*
X116868416Y-108277044D01*
X116746755Y-108155383D01*
X116599513Y-108066372D01*
X116435249Y-108015186D01*
X116435246Y-108015185D01*
X116435244Y-108015185D01*
X116363872Y-108008699D01*
X115298653Y-108008699D01*
X115251087Y-107991386D01*
X115225777Y-107947549D01*
X115234567Y-107897699D01*
X115264260Y-107869177D01*
X115310452Y-107844934D01*
X115437783Y-107732129D01*
X115534418Y-107592130D01*
X115594740Y-107433072D01*
X115610100Y-107306572D01*
X115610100Y-105367628D01*
X115610100Y-105316828D01*
X115594740Y-105190328D01*
X115534418Y-105031270D01*
X115493199Y-104971554D01*
X115488355Y-104964536D01*
X115475583Y-104915555D01*
X115497283Y-104869823D01*
X115543301Y-104848739D01*
X115549256Y-104848499D01*
X116363860Y-104848499D01*
X116363864Y-104848499D01*
X116435249Y-104842013D01*
X116599513Y-104790827D01*
X116746755Y-104701816D01*
X116868416Y-104580155D01*
X116957427Y-104432913D01*
X117008613Y-104268649D01*
X117015100Y-104197265D01*
X117015099Y-103066736D01*
X117008613Y-102995351D01*
X116957427Y-102831087D01*
X116868416Y-102683845D01*
X116746755Y-102562184D01*
X116599513Y-102473173D01*
X116469464Y-102432648D01*
X116429204Y-102401970D01*
X116418082Y-102352588D01*
X116441304Y-102307610D01*
X116469463Y-102291351D01*
X116599513Y-102250827D01*
X116746755Y-102161816D01*
X116868416Y-102040155D01*
X116957427Y-101892913D01*
X117008613Y-101728649D01*
X117015100Y-101657265D01*
X117015099Y-100526736D01*
X117008613Y-100455351D01*
X116957427Y-100291087D01*
X116888810Y-100177582D01*
X116879019Y-100127920D01*
X116903441Y-100083582D01*
X116950649Y-100065315D01*
X116952139Y-100065300D01*
X119358276Y-100065300D01*
X119405842Y-100082613D01*
X119431152Y-100126450D01*
X119422362Y-100176300D01*
X119410602Y-100191626D01*
X119402384Y-100199843D01*
X119313373Y-100347085D01*
X119298315Y-100395409D01*
X119262473Y-100510434D01*
X119262186Y-100511354D01*
X119262186Y-100511355D01*
X119255700Y-100582726D01*
X119255700Y-101713259D01*
X119255701Y-101713272D01*
X119262186Y-101784642D01*
X119262186Y-101784643D01*
X119262186Y-101784645D01*
X119262187Y-101784648D01*
X119313373Y-101948912D01*
X119402384Y-102096154D01*
X119524045Y-102217815D01*
X119671287Y-102306826D01*
X119671289Y-102306827D01*
X119801333Y-102347350D01*
X119841595Y-102378029D01*
X119852717Y-102427411D01*
X119829495Y-102472389D01*
X119801333Y-102488648D01*
X119671289Y-102529170D01*
X119524044Y-102618183D01*
X119402384Y-102739843D01*
X119313373Y-102887085D01*
X119298285Y-102935506D01*
X119271327Y-103022020D01*
X119262186Y-103051354D01*
X119262186Y-103051355D01*
X119255700Y-103122726D01*
X119255700Y-104253259D01*
X119255701Y-104253272D01*
X119262186Y-104324642D01*
X119262186Y-104324643D01*
X119262186Y-104324645D01*
X119262187Y-104324648D01*
X119313373Y-104488912D01*
X119402384Y-104636154D01*
X119524045Y-104757815D01*
X119671287Y-104846826D01*
X119835551Y-104898012D01*
X119906935Y-104904499D01*
X122015153Y-104904498D01*
X122062719Y-104921811D01*
X122088029Y-104965648D01*
X122079239Y-105015498D01*
X122076054Y-105020535D01*
X121980981Y-105158270D01*
X121920659Y-105317328D01*
X121905300Y-105443820D01*
X121905300Y-107233008D01*
X121904088Y-107246347D01*
X121876042Y-107399392D01*
X121886313Y-107569190D01*
X121886315Y-107569202D01*
X121936920Y-107731601D01*
X121936922Y-107731607D01*
X122024928Y-107877185D01*
X122075717Y-107927974D01*
X122097109Y-107973850D01*
X122084008Y-108022745D01*
X122042544Y-108051779D01*
X122023391Y-108054300D01*
X119856139Y-108054300D01*
X119856126Y-108054301D01*
X119784756Y-108060786D01*
X119784755Y-108060786D01*
X119784752Y-108060786D01*
X119784751Y-108060787D01*
X119766828Y-108066372D01*
X119620486Y-108111973D01*
X119473244Y-108200984D01*
X119351584Y-108322644D01*
X119262573Y-108469886D01*
X119211386Y-108634155D01*
X119211386Y-108634156D01*
X119204900Y-108705527D01*
X119204900Y-109836060D01*
X119204901Y-109836073D01*
X119211386Y-109907443D01*
X119211386Y-109907444D01*
X119211386Y-109907446D01*
X119211387Y-109907449D01*
X119262573Y-110071713D01*
X119351584Y-110218955D01*
X119473245Y-110340616D01*
X119620487Y-110429627D01*
X119620489Y-110429628D01*
X119750533Y-110470151D01*
X119790795Y-110500830D01*
X119801917Y-110550212D01*
X119778695Y-110595190D01*
X119750533Y-110611449D01*
X119620489Y-110651971D01*
X119473244Y-110740984D01*
X119351584Y-110862644D01*
X119262573Y-111009886D01*
X119237752Y-111089542D01*
X119216000Y-111159349D01*
X119211386Y-111174155D01*
X119211386Y-111174156D01*
X119204900Y-111245527D01*
X119204900Y-112376060D01*
X119204901Y-112376073D01*
X119211386Y-112447443D01*
X119211386Y-112447444D01*
X119211386Y-112447446D01*
X119211387Y-112447449D01*
X119262573Y-112611713D01*
X119351584Y-112758955D01*
X119473245Y-112880616D01*
X119620487Y-112969627D01*
X119784751Y-113020813D01*
X119856135Y-113027300D01*
X122023327Y-113027299D01*
X122070893Y-113044612D01*
X122096203Y-113088449D01*
X122087413Y-113138299D01*
X122072399Y-113156688D01*
X122026817Y-113197070D01*
X121930181Y-113337070D01*
X121869859Y-113496128D01*
X121854500Y-113622620D01*
X121854500Y-115295500D01*
X121837187Y-115343066D01*
X121793350Y-115368376D01*
X121780500Y-115369500D01*
X121466366Y-115369500D01*
X121466346Y-115369501D01*
X121425542Y-115372267D01*
X121425541Y-115372267D01*
X121367165Y-115386784D01*
X121249182Y-115416125D01*
X121086373Y-115496871D01*
X120944728Y-115610728D01*
X120830871Y-115752373D01*
X120750125Y-115915182D01*
X120723777Y-116021132D01*
X120706266Y-116091547D01*
X120705592Y-116101495D01*
X120703500Y-116132345D01*
X120703501Y-117547654D01*
X120706267Y-117588458D01*
X120750125Y-117764818D01*
X120830871Y-117927627D01*
X120944728Y-118069272D01*
X121086373Y-118183129D01*
X121249182Y-118263875D01*
X121425542Y-118307733D01*
X121466345Y-118310500D01*
X121466347Y-118310499D01*
X121466348Y-118310500D01*
X122072906Y-118310499D01*
X122881654Y-118310499D01*
X122922458Y-118307733D01*
X123098818Y-118263875D01*
X123261627Y-118183129D01*
X123403272Y-118069272D01*
X123517129Y-117927627D01*
X123597875Y-117764818D01*
X123641733Y-117588458D01*
X123644500Y-117547655D01*
X123644499Y-116132346D01*
X123641733Y-116091542D01*
X123597875Y-115915182D01*
X123517129Y-115752373D01*
X123403272Y-115610728D01*
X123283137Y-115514161D01*
X123256911Y-115470867D01*
X123255500Y-115456485D01*
X123255500Y-113622628D01*
X123255499Y-113622620D01*
X123240140Y-113496128D01*
X123179818Y-113337070D01*
X123083183Y-113197071D01*
X123037601Y-113156689D01*
X123013477Y-113112188D01*
X123023603Y-113062592D01*
X123063239Y-113031107D01*
X123086672Y-113027299D01*
X124034660Y-113027299D01*
X124034664Y-113027299D01*
X124106049Y-113020813D01*
X124270313Y-112969627D01*
X124417555Y-112880616D01*
X124539216Y-112758955D01*
X124628227Y-112611713D01*
X124679413Y-112447449D01*
X124685900Y-112376065D01*
X124685899Y-111245536D01*
X124679413Y-111174151D01*
X124628227Y-111009887D01*
X124539216Y-110862645D01*
X124417555Y-110740984D01*
X124270313Y-110651973D01*
X124140264Y-110611448D01*
X124100004Y-110580770D01*
X124088882Y-110531388D01*
X124112104Y-110486410D01*
X124140263Y-110470151D01*
X124270313Y-110429627D01*
X124417555Y-110340616D01*
X124539216Y-110218955D01*
X124628227Y-110071713D01*
X124679413Y-109907449D01*
X124685900Y-109836065D01*
X124685899Y-108705536D01*
X124679413Y-108634151D01*
X124628227Y-108469887D01*
X124539216Y-108322645D01*
X124417555Y-108200984D01*
X124270313Y-108111973D01*
X124106049Y-108060787D01*
X124106046Y-108060786D01*
X124106044Y-108060786D01*
X124034672Y-108054300D01*
X124034665Y-108054300D01*
X123137471Y-108054300D01*
X123089905Y-108036987D01*
X123064595Y-107993150D01*
X123073385Y-107943300D01*
X123088397Y-107924913D01*
X123133983Y-107884529D01*
X123169643Y-107832864D01*
X123170947Y-107831092D01*
X123209678Y-107781657D01*
X123215701Y-107768271D01*
X123222283Y-107756604D01*
X123230618Y-107744530D01*
X123252878Y-107685832D01*
X123253720Y-107683798D01*
X123279495Y-107626532D01*
X123282142Y-107612082D01*
X123285738Y-107599187D01*
X123290940Y-107585472D01*
X123298508Y-107523140D01*
X123298837Y-107520978D01*
X123310158Y-107459206D01*
X123306540Y-107399392D01*
X123306368Y-107396546D01*
X123306300Y-107394312D01*
X123306300Y-105443828D01*
X123306299Y-105443820D01*
X123290940Y-105317328D01*
X123230618Y-105158270D01*
X123135546Y-105020535D01*
X123122774Y-104971554D01*
X123144473Y-104925822D01*
X123190492Y-104904738D01*
X123196447Y-104904498D01*
X124085460Y-104904498D01*
X124085464Y-104904498D01*
X124156849Y-104898012D01*
X124321113Y-104846826D01*
X124468355Y-104757815D01*
X124590016Y-104636154D01*
X124679027Y-104488912D01*
X124730213Y-104324648D01*
X124736700Y-104253264D01*
X124736699Y-103122735D01*
X124730213Y-103051350D01*
X124679027Y-102887086D01*
X124590016Y-102739844D01*
X124468355Y-102618183D01*
X124321113Y-102529172D01*
X124191064Y-102488647D01*
X124150804Y-102457969D01*
X124139682Y-102408587D01*
X124162904Y-102363609D01*
X124191063Y-102347350D01*
X124321113Y-102306826D01*
X124468355Y-102217815D01*
X124590016Y-102096154D01*
X124679027Y-101948912D01*
X124730213Y-101784648D01*
X124736700Y-101713264D01*
X124736699Y-100582735D01*
X124730213Y-100511350D01*
X124679027Y-100347086D01*
X124590016Y-100199844D01*
X124468355Y-100078183D01*
X124321113Y-99989172D01*
X124156849Y-99937986D01*
X124156846Y-99937985D01*
X124156844Y-99937985D01*
X124085472Y-99931499D01*
X124085465Y-99931499D01*
X123233809Y-99931499D01*
X123186243Y-99914186D01*
X123160933Y-99870349D01*
X123169723Y-99820499D01*
X123181483Y-99805173D01*
X123926656Y-99060000D01*
X124693723Y-98292932D01*
X124739598Y-98271541D01*
X124788493Y-98284642D01*
X124817527Y-98326106D01*
X124819295Y-98334727D01*
X124836102Y-98451623D01*
X124836102Y-98451624D01*
X124836103Y-98451626D01*
X124889918Y-98569463D01*
X124974751Y-98667367D01*
X124974752Y-98667368D01*
X124978217Y-98671366D01*
X124976332Y-98672998D01*
X124996368Y-98708995D01*
X124997300Y-98720700D01*
X124997300Y-99602499D01*
X124979987Y-99650065D01*
X124977998Y-99652086D01*
X124889919Y-99753735D01*
X124889918Y-99753736D01*
X124889918Y-99753737D01*
X124883811Y-99767110D01*
X124836102Y-99871576D01*
X124817667Y-99999800D01*
X124836102Y-100128023D01*
X124836102Y-100128024D01*
X124836103Y-100128026D01*
X124889918Y-100245863D01*
X124974751Y-100343767D01*
X125083731Y-100413804D01*
X125208028Y-100450300D01*
X125337572Y-100450300D01*
X125461869Y-100413804D01*
X125490492Y-100395408D01*
X125539867Y-100384256D01*
X125584859Y-100407451D01*
X125604416Y-100454139D01*
X125604500Y-100457661D01*
X125604500Y-115959579D01*
X125603078Y-115974015D01*
X125599103Y-115994000D01*
X125604500Y-116021132D01*
X125604500Y-116021133D01*
X125620485Y-116101495D01*
X125641098Y-116132345D01*
X125681377Y-116192625D01*
X125698314Y-116203942D01*
X125709529Y-116213145D01*
X126791238Y-117294854D01*
X126812630Y-117340730D01*
X126804174Y-117382063D01*
X126766770Y-117452041D01*
X126706700Y-117650064D01*
X126686417Y-117856000D01*
X126706700Y-118061935D01*
X126732073Y-118145580D01*
X126766768Y-118259954D01*
X126864315Y-118442450D01*
X126995590Y-118602410D01*
X127155550Y-118733685D01*
X127338046Y-118831232D01*
X127536066Y-118891300D01*
X127742000Y-118911583D01*
X127947934Y-118891300D01*
X128145954Y-118831232D01*
X128328450Y-118733685D01*
X128488410Y-118602410D01*
X128619685Y-118442450D01*
X128717232Y-118259954D01*
X128777300Y-118061934D01*
X128797583Y-117856000D01*
X129226417Y-117856000D01*
X129246700Y-118061935D01*
X129272073Y-118145580D01*
X129306768Y-118259954D01*
X129404315Y-118442450D01*
X129535590Y-118602410D01*
X129695550Y-118733685D01*
X129878046Y-118831232D01*
X130076066Y-118891300D01*
X130282000Y-118911583D01*
X130487934Y-118891300D01*
X130685954Y-118831232D01*
X130868450Y-118733685D01*
X131028410Y-118602410D01*
X131159685Y-118442450D01*
X131257232Y-118259954D01*
X131317300Y-118061934D01*
X131337583Y-117856000D01*
X131317300Y-117650066D01*
X131257232Y-117452046D01*
X131159685Y-117269550D01*
X131028410Y-117109590D01*
X130957184Y-117051137D01*
X130868450Y-116978315D01*
X130685956Y-116880769D01*
X130685955Y-116880768D01*
X130685954Y-116880768D01*
X130574158Y-116846855D01*
X130487935Y-116820700D01*
X130282000Y-116800417D01*
X130076064Y-116820700D01*
X129878043Y-116880769D01*
X129695549Y-116978315D01*
X129535590Y-117109589D01*
X129535589Y-117109590D01*
X129404315Y-117269549D01*
X129306769Y-117452043D01*
X129246700Y-117650064D01*
X129226417Y-117856000D01*
X128797583Y-117856000D01*
X128777300Y-117650066D01*
X128717232Y-117452046D01*
X128619685Y-117269550D01*
X128488410Y-117109590D01*
X128417184Y-117051137D01*
X128328450Y-116978315D01*
X128145956Y-116880769D01*
X128145955Y-116880768D01*
X128145954Y-116880768D01*
X128034158Y-116846855D01*
X127947935Y-116820700D01*
X127742000Y-116800417D01*
X127536064Y-116820700D01*
X127425842Y-116854135D01*
X127338046Y-116880768D01*
X127338043Y-116880769D01*
X127338041Y-116880770D01*
X127268063Y-116918174D01*
X127217952Y-116925328D01*
X127180854Y-116905238D01*
X126177174Y-115901558D01*
X126155782Y-115855682D01*
X126155500Y-115849232D01*
X126155500Y-115316000D01*
X126686417Y-115316000D01*
X126706700Y-115521935D01*
X126766769Y-115719956D01*
X126864315Y-115902450D01*
X126923046Y-115974015D01*
X126995590Y-116062410D01*
X127155550Y-116193685D01*
X127338046Y-116291232D01*
X127536066Y-116351300D01*
X127742000Y-116371583D01*
X127947934Y-116351300D01*
X128145954Y-116291232D01*
X128328450Y-116193685D01*
X128488410Y-116062410D01*
X128619685Y-115902450D01*
X128717232Y-115719954D01*
X128777300Y-115521934D01*
X128797583Y-115316000D01*
X129226417Y-115316000D01*
X129246700Y-115521935D01*
X129306769Y-115719956D01*
X129404315Y-115902450D01*
X129463046Y-115974015D01*
X129535590Y-116062410D01*
X129695550Y-116193685D01*
X129878046Y-116291232D01*
X130076066Y-116351300D01*
X130282000Y-116371583D01*
X130487934Y-116351300D01*
X130685954Y-116291232D01*
X130868450Y-116193685D01*
X131028410Y-116062410D01*
X131159685Y-115902450D01*
X131257232Y-115719954D01*
X131317300Y-115521934D01*
X131337583Y-115316000D01*
X134072417Y-115316000D01*
X134092700Y-115521935D01*
X134152769Y-115719956D01*
X134250315Y-115902450D01*
X134309046Y-115974015D01*
X134381590Y-116062410D01*
X134541550Y-116193685D01*
X134724046Y-116291232D01*
X134922066Y-116351300D01*
X135128000Y-116371583D01*
X135333934Y-116351300D01*
X135531954Y-116291232D01*
X135714450Y-116193685D01*
X135874410Y-116062410D01*
X136005685Y-115902450D01*
X136103232Y-115719954D01*
X136163300Y-115521934D01*
X136183583Y-115316000D01*
X136163300Y-115110066D01*
X136103232Y-114912046D01*
X136005685Y-114729550D01*
X135874410Y-114569590D01*
X135714450Y-114438315D01*
X135531954Y-114340768D01*
X135420158Y-114306855D01*
X135333935Y-114280700D01*
X135128000Y-114260417D01*
X134922064Y-114280700D01*
X134724043Y-114340769D01*
X134541549Y-114438315D01*
X134381590Y-114569589D01*
X134381589Y-114569590D01*
X134250315Y-114729549D01*
X134152769Y-114912043D01*
X134092700Y-115110064D01*
X134072417Y-115316000D01*
X131337583Y-115316000D01*
X131317300Y-115110066D01*
X131257232Y-114912046D01*
X131159685Y-114729550D01*
X131028410Y-114569590D01*
X130868450Y-114438315D01*
X130685954Y-114340768D01*
X130574158Y-114306855D01*
X130487935Y-114280700D01*
X130282000Y-114260417D01*
X130076064Y-114280700D01*
X129878043Y-114340769D01*
X129695549Y-114438315D01*
X129535590Y-114569589D01*
X129535589Y-114569590D01*
X129404315Y-114729549D01*
X129306769Y-114912043D01*
X129246700Y-115110064D01*
X129226417Y-115316000D01*
X128797583Y-115316000D01*
X128777300Y-115110066D01*
X128717232Y-114912046D01*
X128619685Y-114729550D01*
X128488410Y-114569590D01*
X128328450Y-114438315D01*
X128145954Y-114340768D01*
X128034158Y-114306855D01*
X127947935Y-114280700D01*
X127742000Y-114260417D01*
X127536064Y-114280700D01*
X127338043Y-114340769D01*
X127155549Y-114438315D01*
X126995590Y-114569589D01*
X126995589Y-114569590D01*
X126864315Y-114729549D01*
X126766769Y-114912043D01*
X126706700Y-115110064D01*
X126686417Y-115316000D01*
X126155500Y-115316000D01*
X126155500Y-112776000D01*
X126686417Y-112776000D01*
X126706700Y-112981934D01*
X126766768Y-113179954D01*
X126864315Y-113362450D01*
X126995590Y-113522410D01*
X127155550Y-113653685D01*
X127338046Y-113751232D01*
X127536066Y-113811300D01*
X127742000Y-113831583D01*
X127947934Y-113811300D01*
X128145954Y-113751232D01*
X128328450Y-113653685D01*
X128488410Y-113522410D01*
X128619685Y-113362450D01*
X128717232Y-113179954D01*
X128777300Y-112981934D01*
X128797583Y-112776000D01*
X129226417Y-112776000D01*
X129246700Y-112981934D01*
X129306768Y-113179954D01*
X129404315Y-113362450D01*
X129535590Y-113522410D01*
X129695550Y-113653685D01*
X129878046Y-113751232D01*
X130076066Y-113811300D01*
X130282000Y-113831583D01*
X130487934Y-113811300D01*
X130685954Y-113751232D01*
X130868450Y-113653685D01*
X131028410Y-113522410D01*
X131159685Y-113362450D01*
X131257232Y-113179954D01*
X131317300Y-112981934D01*
X131337583Y-112776000D01*
X131317300Y-112570066D01*
X131257232Y-112372046D01*
X131159685Y-112189550D01*
X131028410Y-112029590D01*
X130868450Y-111898315D01*
X130857799Y-111892622D01*
X130685956Y-111800769D01*
X130685955Y-111800768D01*
X130685954Y-111800768D01*
X130574158Y-111766855D01*
X130487935Y-111740700D01*
X130282000Y-111720417D01*
X130076064Y-111740700D01*
X129878043Y-111800769D01*
X129695549Y-111898315D01*
X129535590Y-112029589D01*
X129535589Y-112029590D01*
X129404315Y-112189549D01*
X129306769Y-112372043D01*
X129306768Y-112372045D01*
X129306768Y-112372046D01*
X129299011Y-112397616D01*
X129246700Y-112570064D01*
X129238902Y-112649242D01*
X129226417Y-112776000D01*
X128797583Y-112776000D01*
X128777300Y-112570066D01*
X128717232Y-112372046D01*
X128619685Y-112189550D01*
X128488410Y-112029590D01*
X128328450Y-111898315D01*
X128317799Y-111892622D01*
X128145956Y-111800769D01*
X128145955Y-111800768D01*
X128145954Y-111800768D01*
X128034158Y-111766855D01*
X127947935Y-111740700D01*
X127742000Y-111720417D01*
X127536064Y-111740700D01*
X127338043Y-111800769D01*
X127155549Y-111898315D01*
X126995590Y-112029589D01*
X126995589Y-112029590D01*
X126864315Y-112189549D01*
X126766769Y-112372043D01*
X126766768Y-112372045D01*
X126766768Y-112372046D01*
X126759011Y-112397616D01*
X126706700Y-112570064D01*
X126698902Y-112649242D01*
X126686417Y-112776000D01*
X126155500Y-112776000D01*
X126155500Y-110236000D01*
X126686417Y-110236000D01*
X126706700Y-110441935D01*
X126720191Y-110486410D01*
X126752919Y-110594301D01*
X126766769Y-110639956D01*
X126864315Y-110822450D01*
X126949777Y-110926587D01*
X126995590Y-110982410D01*
X127155550Y-111113685D01*
X127338046Y-111211232D01*
X127536066Y-111271300D01*
X127742000Y-111291583D01*
X127947934Y-111271300D01*
X128145954Y-111211232D01*
X128328450Y-111113685D01*
X128488410Y-110982410D01*
X128619685Y-110822450D01*
X128717232Y-110639954D01*
X128777300Y-110441934D01*
X128797583Y-110236000D01*
X129226417Y-110236000D01*
X129246700Y-110441935D01*
X129260191Y-110486410D01*
X129292919Y-110594301D01*
X129306769Y-110639956D01*
X129404315Y-110822450D01*
X129489777Y-110926587D01*
X129535590Y-110982410D01*
X129695550Y-111113685D01*
X129878046Y-111211232D01*
X130076066Y-111271300D01*
X130282000Y-111291583D01*
X130487934Y-111271300D01*
X130685954Y-111211232D01*
X130868450Y-111113685D01*
X131028410Y-110982410D01*
X131159685Y-110822450D01*
X131257232Y-110639954D01*
X131317300Y-110441934D01*
X131337583Y-110236000D01*
X131317300Y-110030066D01*
X131257232Y-109832046D01*
X131235010Y-109790472D01*
X131219825Y-109762063D01*
X131212671Y-109711952D01*
X131232759Y-109674855D01*
X133049775Y-107857840D01*
X133095650Y-107836449D01*
X133144545Y-107849550D01*
X133173579Y-107891014D01*
X133176100Y-107910167D01*
X133176100Y-111065179D01*
X133174678Y-111079615D01*
X133172704Y-111089542D01*
X133170703Y-111099600D01*
X133176100Y-111126732D01*
X133176100Y-111126733D01*
X133182412Y-111158464D01*
X133192085Y-111207095D01*
X133217770Y-111245535D01*
X133234985Y-111271300D01*
X133252976Y-111298224D01*
X133252978Y-111298226D01*
X133269914Y-111309542D01*
X133281129Y-111318745D01*
X134177238Y-112214854D01*
X134198630Y-112260730D01*
X134190174Y-112302063D01*
X134152770Y-112372041D01*
X134152769Y-112372043D01*
X134152768Y-112372046D01*
X134143728Y-112401848D01*
X134092700Y-112570064D01*
X134084902Y-112649242D01*
X134072417Y-112776000D01*
X134092700Y-112981934D01*
X134152768Y-113179954D01*
X134250315Y-113362450D01*
X134381590Y-113522410D01*
X134541550Y-113653685D01*
X134724046Y-113751232D01*
X134922066Y-113811300D01*
X135128000Y-113831583D01*
X135333934Y-113811300D01*
X135531954Y-113751232D01*
X135714450Y-113653685D01*
X135874410Y-113522410D01*
X136005685Y-113362450D01*
X136103232Y-113179954D01*
X136163300Y-112981934D01*
X136183583Y-112776000D01*
X136612417Y-112776000D01*
X136632700Y-112981934D01*
X136692768Y-113179954D01*
X136790315Y-113362450D01*
X136921590Y-113522410D01*
X137081550Y-113653685D01*
X137264046Y-113751232D01*
X137462066Y-113811300D01*
X137668000Y-113831583D01*
X137873934Y-113811300D01*
X138071954Y-113751232D01*
X138254450Y-113653685D01*
X138414410Y-113522410D01*
X138545685Y-113362450D01*
X138643232Y-113179954D01*
X138703300Y-112981934D01*
X138723583Y-112776000D01*
X138703300Y-112570066D01*
X138643232Y-112372046D01*
X138545685Y-112189550D01*
X138414410Y-112029590D01*
X138254450Y-111898315D01*
X138243799Y-111892622D01*
X138071956Y-111800769D01*
X138071955Y-111800768D01*
X138071954Y-111800768D01*
X137960158Y-111766855D01*
X137873935Y-111740700D01*
X137668000Y-111720417D01*
X137462064Y-111740700D01*
X137264043Y-111800769D01*
X137081549Y-111898315D01*
X136921590Y-112029589D01*
X136921589Y-112029590D01*
X136790315Y-112189549D01*
X136692769Y-112372043D01*
X136692768Y-112372045D01*
X136692768Y-112372046D01*
X136685011Y-112397616D01*
X136632700Y-112570064D01*
X136624902Y-112649242D01*
X136612417Y-112776000D01*
X136183583Y-112776000D01*
X136163300Y-112570066D01*
X136103232Y-112372046D01*
X136005685Y-112189550D01*
X135874410Y-112029590D01*
X135714450Y-111898315D01*
X135703799Y-111892622D01*
X135531956Y-111800769D01*
X135531955Y-111800768D01*
X135531954Y-111800768D01*
X135420158Y-111766855D01*
X135333935Y-111740700D01*
X135128000Y-111720417D01*
X134922064Y-111740700D01*
X134811842Y-111774135D01*
X134724046Y-111800768D01*
X134724043Y-111800769D01*
X134724041Y-111800770D01*
X134654063Y-111838174D01*
X134603952Y-111845328D01*
X134566854Y-111825238D01*
X133748774Y-111007158D01*
X133727382Y-110961282D01*
X133727100Y-110954832D01*
X133727100Y-109403368D01*
X133744413Y-109355802D01*
X133788250Y-109330492D01*
X133838100Y-109339282D01*
X133853426Y-109351042D01*
X134177238Y-109674854D01*
X134198630Y-109720730D01*
X134190174Y-109762063D01*
X134152770Y-109832041D01*
X134152769Y-109832043D01*
X134152768Y-109832046D01*
X134143728Y-109861848D01*
X134092700Y-110030064D01*
X134072417Y-110236000D01*
X134092700Y-110441935D01*
X134106191Y-110486410D01*
X134138919Y-110594301D01*
X134152769Y-110639956D01*
X134250315Y-110822450D01*
X134335777Y-110926587D01*
X134381590Y-110982410D01*
X134541550Y-111113685D01*
X134724046Y-111211232D01*
X134922066Y-111271300D01*
X135128000Y-111291583D01*
X135333934Y-111271300D01*
X135531954Y-111211232D01*
X135714450Y-111113685D01*
X135874410Y-110982410D01*
X136005685Y-110822450D01*
X136103232Y-110639954D01*
X136163300Y-110441934D01*
X136183583Y-110236000D01*
X136612417Y-110236000D01*
X136632700Y-110441935D01*
X136646191Y-110486410D01*
X136678919Y-110594301D01*
X136692769Y-110639956D01*
X136790315Y-110822450D01*
X136875777Y-110926587D01*
X136921590Y-110982410D01*
X137081550Y-111113685D01*
X137264046Y-111211232D01*
X137462066Y-111271300D01*
X137668000Y-111291583D01*
X137873934Y-111271300D01*
X138071954Y-111211232D01*
X138254450Y-111113685D01*
X138414410Y-110982410D01*
X138545685Y-110822450D01*
X138643232Y-110639954D01*
X138703300Y-110441934D01*
X138723583Y-110236000D01*
X138703300Y-110030066D01*
X138643232Y-109832046D01*
X138545685Y-109649550D01*
X138414410Y-109489590D01*
X138254450Y-109358315D01*
X138071954Y-109260768D01*
X137953105Y-109224716D01*
X137873935Y-109200700D01*
X137668000Y-109180417D01*
X137462064Y-109200700D01*
X137264043Y-109260769D01*
X137081549Y-109358315D01*
X136921590Y-109489589D01*
X136921589Y-109489590D01*
X136790315Y-109649549D01*
X136692769Y-109832043D01*
X136692769Y-109832044D01*
X136692768Y-109832046D01*
X136685011Y-109857616D01*
X136632700Y-110030064D01*
X136612417Y-110236000D01*
X136183583Y-110236000D01*
X136163300Y-110030066D01*
X136103232Y-109832046D01*
X136005685Y-109649550D01*
X135874410Y-109489590D01*
X135714450Y-109358315D01*
X135531954Y-109260768D01*
X135413105Y-109224716D01*
X135333935Y-109200700D01*
X135128000Y-109180417D01*
X134922064Y-109200700D01*
X134811842Y-109234135D01*
X134724046Y-109260768D01*
X134724043Y-109260769D01*
X134724041Y-109260770D01*
X134654063Y-109298174D01*
X134603952Y-109305328D01*
X134566854Y-109285238D01*
X134155174Y-108873558D01*
X134133782Y-108827682D01*
X134133500Y-108821232D01*
X134133500Y-108346926D01*
X134150813Y-108299360D01*
X134194650Y-108274050D01*
X134244500Y-108282840D01*
X134264700Y-108299978D01*
X134381590Y-108442410D01*
X134541550Y-108573685D01*
X134724046Y-108671232D01*
X134922066Y-108731300D01*
X135128000Y-108751583D01*
X135333934Y-108731300D01*
X135531954Y-108671232D01*
X135714450Y-108573685D01*
X135874410Y-108442410D01*
X136005685Y-108282450D01*
X136103232Y-108099954D01*
X136163300Y-107901934D01*
X136183583Y-107696000D01*
X136163300Y-107490066D01*
X136103232Y-107292046D01*
X136005685Y-107109550D01*
X135874410Y-106949590D01*
X135812943Y-106899146D01*
X135714450Y-106818315D01*
X135531956Y-106720769D01*
X135531955Y-106720768D01*
X135531954Y-106720768D01*
X135420158Y-106686855D01*
X135333935Y-106660700D01*
X135192969Y-106646816D01*
X135128000Y-106640417D01*
X135127999Y-106640417D01*
X135021911Y-106650866D01*
X134936483Y-106659279D01*
X134887450Y-106646713D01*
X134857966Y-106605567D01*
X134861827Y-106555096D01*
X134876903Y-106533312D01*
X134991842Y-106418374D01*
X135037719Y-106396982D01*
X135044168Y-106396700D01*
X136998580Y-106396700D01*
X137013016Y-106398121D01*
X137033000Y-106402097D01*
X137033001Y-106402097D01*
X137037622Y-106401177D01*
X137060132Y-106396700D01*
X137060133Y-106396700D01*
X137140495Y-106380715D01*
X137182465Y-106352671D01*
X137208622Y-106335194D01*
X137208622Y-106335193D01*
X137216636Y-106329839D01*
X137216638Y-106329836D01*
X137231624Y-106319824D01*
X137242944Y-106302881D01*
X137252141Y-106291674D01*
X138282174Y-105261642D01*
X138328051Y-105240250D01*
X138376945Y-105253351D01*
X138405979Y-105294815D01*
X138408500Y-105313968D01*
X138408500Y-106535232D01*
X138391187Y-106582798D01*
X138386826Y-106587558D01*
X138350558Y-106623826D01*
X138304682Y-106645218D01*
X138298232Y-106645500D01*
X136798252Y-106645500D01*
X136771275Y-106650866D01*
X136739767Y-106657133D01*
X136673449Y-106701447D01*
X136673447Y-106701449D01*
X136629133Y-106767767D01*
X136629133Y-106767769D01*
X136617500Y-106826252D01*
X136617500Y-108565748D01*
X136622037Y-108588555D01*
X136629133Y-108624232D01*
X136652983Y-108659925D01*
X136673448Y-108690552D01*
X136717560Y-108720027D01*
X136739767Y-108734866D01*
X136739768Y-108734866D01*
X136739769Y-108734867D01*
X136798252Y-108746500D01*
X136798254Y-108746500D01*
X138537746Y-108746500D01*
X138537748Y-108746500D01*
X138596231Y-108734867D01*
X138662552Y-108690552D01*
X138706867Y-108624231D01*
X138718500Y-108565748D01*
X138718500Y-107065767D01*
X138735813Y-107018201D01*
X138740164Y-107013451D01*
X138854473Y-106899141D01*
X138865676Y-106889947D01*
X138882624Y-106878624D01*
X138943515Y-106787495D01*
X138959500Y-106707133D01*
X138959500Y-106707132D01*
X138964897Y-106680000D01*
X138960922Y-106660015D01*
X138959500Y-106645579D01*
X138959500Y-100322367D01*
X138976813Y-100274801D01*
X138981163Y-100270052D01*
X139704574Y-99546640D01*
X139750450Y-99525249D01*
X139799345Y-99538350D01*
X139828379Y-99579814D01*
X139830900Y-99598967D01*
X139830900Y-112732831D01*
X139813587Y-112780397D01*
X139809226Y-112785157D01*
X138229144Y-114365238D01*
X138183268Y-114386630D01*
X138141935Y-114378174D01*
X138071954Y-114340768D01*
X137934003Y-114298921D01*
X137873935Y-114280700D01*
X137668000Y-114260417D01*
X137462064Y-114280700D01*
X137264043Y-114340769D01*
X137081549Y-114438315D01*
X136921590Y-114569589D01*
X136921589Y-114569590D01*
X136790315Y-114729549D01*
X136692769Y-114912043D01*
X136632700Y-115110064D01*
X136612417Y-115316000D01*
X136632700Y-115521935D01*
X136692769Y-115719956D01*
X136790315Y-115902450D01*
X136849046Y-115974015D01*
X136921590Y-116062410D01*
X137081550Y-116193685D01*
X137264046Y-116291232D01*
X137462066Y-116351300D01*
X137668000Y-116371583D01*
X137873934Y-116351300D01*
X138071954Y-116291232D01*
X138254450Y-116193685D01*
X138414410Y-116062410D01*
X138545685Y-115902450D01*
X138643232Y-115719954D01*
X138703300Y-115521934D01*
X138723583Y-115316000D01*
X138703300Y-115110066D01*
X138643232Y-114912046D01*
X138643228Y-114912038D01*
X138605825Y-114842063D01*
X138598671Y-114791952D01*
X138618759Y-114754855D01*
X140263374Y-113110241D01*
X140309250Y-113088849D01*
X140358145Y-113101950D01*
X140387179Y-113143414D01*
X140389700Y-113162567D01*
X140389700Y-116442699D01*
X140372387Y-116490265D01*
X140370398Y-116492286D01*
X140282319Y-116593935D01*
X140228502Y-116711776D01*
X140210067Y-116840000D01*
X140228502Y-116968223D01*
X140228502Y-116968224D01*
X140228503Y-116968226D01*
X140282318Y-117086063D01*
X140367151Y-117183967D01*
X140476131Y-117254004D01*
X140600428Y-117290500D01*
X140703782Y-117290500D01*
X140751348Y-117307813D01*
X140776658Y-117351650D01*
X140777029Y-117353969D01*
X140787302Y-117425423D01*
X140787302Y-117425424D01*
X140787303Y-117425426D01*
X140841118Y-117543263D01*
X140925951Y-117641167D01*
X141034931Y-117711204D01*
X141159228Y-117747700D01*
X141288772Y-117747700D01*
X141413069Y-117711204D01*
X141421616Y-117705711D01*
X150007900Y-117705711D01*
X150007901Y-117705712D01*
X150014218Y-117764480D01*
X150063796Y-117897404D01*
X150063797Y-117897405D01*
X150063798Y-117897406D01*
X150148819Y-118010981D01*
X150226687Y-118069272D01*
X150262394Y-118096002D01*
X150262395Y-118096003D01*
X150371756Y-118136792D01*
X150395322Y-118145582D01*
X150454089Y-118151900D01*
X151337710Y-118151899D01*
X151337711Y-118151899D01*
X151337711Y-118151898D01*
X151396478Y-118145582D01*
X151462942Y-118120792D01*
X151529404Y-118096003D01*
X151529404Y-118096002D01*
X151529406Y-118096002D01*
X151642981Y-118010981D01*
X151728002Y-117897406D01*
X151777582Y-117764478D01*
X151783900Y-117705711D01*
X151783899Y-116747090D01*
X151777582Y-116688322D01*
X151742378Y-116593937D01*
X151728003Y-116555395D01*
X151728002Y-116555394D01*
X151704177Y-116523568D01*
X151642981Y-116441819D01*
X151557959Y-116378172D01*
X151529405Y-116356797D01*
X151529404Y-116356796D01*
X151396482Y-116307219D01*
X151396476Y-116307217D01*
X151337712Y-116300900D01*
X150454088Y-116300900D01*
X150454087Y-116300901D01*
X150395319Y-116307218D01*
X150262395Y-116356796D01*
X150262394Y-116356797D01*
X150148819Y-116441819D01*
X150063797Y-116555394D01*
X150063796Y-116555395D01*
X150014219Y-116688317D01*
X150014217Y-116688323D01*
X150007900Y-116747087D01*
X150007900Y-117705711D01*
X141421616Y-117705711D01*
X141522049Y-117641167D01*
X141606882Y-117543263D01*
X141660697Y-117425426D01*
X141679133Y-117297200D01*
X141660697Y-117168974D01*
X141606882Y-117051137D01*
X141522049Y-116953233D01*
X141522047Y-116953231D01*
X141518583Y-116949234D01*
X141520460Y-116947606D01*
X141500425Y-116911562D01*
X141499500Y-116899899D01*
X141499500Y-115143768D01*
X141516813Y-115096202D01*
X141560650Y-115070892D01*
X141610500Y-115079682D01*
X141625826Y-115091442D01*
X142884454Y-116350070D01*
X142893656Y-116361283D01*
X142904975Y-116378223D01*
X142904976Y-116378224D01*
X142924955Y-116391574D01*
X142975974Y-116425664D01*
X142996103Y-116439114D01*
X142996105Y-116439115D01*
X143076467Y-116455100D01*
X143076471Y-116455100D01*
X143103600Y-116460496D01*
X143123580Y-116456522D01*
X143138016Y-116455100D01*
X145303230Y-116455100D01*
X145350796Y-116472413D01*
X145359156Y-116480641D01*
X145396347Y-116523563D01*
X145396348Y-116523564D01*
X145396351Y-116523567D01*
X145505331Y-116593604D01*
X145629628Y-116630100D01*
X145759172Y-116630100D01*
X145883469Y-116593604D01*
X145992449Y-116523567D01*
X146077282Y-116425663D01*
X146131097Y-116307826D01*
X146149533Y-116179600D01*
X146131097Y-116051374D01*
X146077282Y-115933537D01*
X145992449Y-115835633D01*
X145925432Y-115792564D01*
X145883468Y-115765595D01*
X145759172Y-115729100D01*
X145629628Y-115729100D01*
X145505331Y-115765595D01*
X145396354Y-115835631D01*
X145396347Y-115835636D01*
X145359156Y-115878559D01*
X145314923Y-115903170D01*
X145303230Y-115904100D01*
X143248368Y-115904100D01*
X143200802Y-115886787D01*
X143196042Y-115882426D01*
X141978374Y-114664758D01*
X141956982Y-114618882D01*
X141956700Y-114612432D01*
X141956700Y-114141695D01*
X141974013Y-114094129D01*
X142017850Y-114068819D01*
X142045135Y-114069116D01*
X142082252Y-114076500D01*
X142082254Y-114076500D01*
X143921746Y-114076500D01*
X143921748Y-114076500D01*
X143980231Y-114064867D01*
X144046552Y-114020552D01*
X144090867Y-113954231D01*
X144102500Y-113895748D01*
X144102500Y-112696808D01*
X144119813Y-112649242D01*
X144124163Y-112644493D01*
X144315174Y-112453481D01*
X144361050Y-112432090D01*
X144409945Y-112445191D01*
X144438979Y-112486655D01*
X144441500Y-112505808D01*
X144441500Y-113028424D01*
X144456472Y-113185220D01*
X144515683Y-113386873D01*
X144515685Y-113386877D01*
X144611986Y-113573678D01*
X144611988Y-113573681D01*
X144611989Y-113573682D01*
X144741908Y-113738886D01*
X144900740Y-113876516D01*
X144900741Y-113876516D01*
X144900744Y-113876519D01*
X145082756Y-113981604D01*
X145281367Y-114050344D01*
X145489398Y-114080254D01*
X145699330Y-114070254D01*
X145903576Y-114020704D01*
X146094753Y-113933396D01*
X146265952Y-113811486D01*
X146410986Y-113659378D01*
X146524613Y-113482572D01*
X146602725Y-113287457D01*
X146642500Y-113081085D01*
X146642500Y-113028424D01*
X146981500Y-113028424D01*
X146996472Y-113185220D01*
X147055683Y-113386873D01*
X147055685Y-113386877D01*
X147151986Y-113573678D01*
X147151988Y-113573681D01*
X147151989Y-113573682D01*
X147281908Y-113738886D01*
X147440740Y-113876516D01*
X147440741Y-113876516D01*
X147440744Y-113876519D01*
X147622756Y-113981604D01*
X147821367Y-114050344D01*
X148029398Y-114080254D01*
X148239330Y-114070254D01*
X148443576Y-114020704D01*
X148634753Y-113933396D01*
X148805952Y-113811486D01*
X148950986Y-113659378D01*
X149064613Y-113482572D01*
X149142725Y-113287457D01*
X149182500Y-113081085D01*
X149182500Y-113028424D01*
X149521500Y-113028424D01*
X149536472Y-113185220D01*
X149595683Y-113386873D01*
X149595685Y-113386877D01*
X149691986Y-113573678D01*
X149691988Y-113573681D01*
X149691989Y-113573682D01*
X149821908Y-113738886D01*
X149980740Y-113876516D01*
X149980741Y-113876516D01*
X149980744Y-113876519D01*
X150162756Y-113981604D01*
X150361367Y-114050344D01*
X150569398Y-114080254D01*
X150779330Y-114070254D01*
X150983576Y-114020704D01*
X151174753Y-113933396D01*
X151345952Y-113811486D01*
X151490986Y-113659378D01*
X151604613Y-113482572D01*
X151682725Y-113287457D01*
X151722500Y-113081085D01*
X151722500Y-113028424D01*
X152061500Y-113028424D01*
X152076472Y-113185220D01*
X152135683Y-113386873D01*
X152135685Y-113386877D01*
X152231986Y-113573678D01*
X152231988Y-113573681D01*
X152231989Y-113573682D01*
X152361908Y-113738886D01*
X152520740Y-113876516D01*
X152520741Y-113876516D01*
X152520744Y-113876519D01*
X152702756Y-113981604D01*
X152901367Y-114050344D01*
X153109398Y-114080254D01*
X153319330Y-114070254D01*
X153523576Y-114020704D01*
X153714753Y-113933396D01*
X153885952Y-113811486D01*
X154030986Y-113659378D01*
X154144613Y-113482572D01*
X154222725Y-113287457D01*
X154262500Y-113081085D01*
X154262500Y-113028424D01*
X154601500Y-113028424D01*
X154616472Y-113185220D01*
X154675683Y-113386873D01*
X154675685Y-113386877D01*
X154771986Y-113573678D01*
X154771988Y-113573681D01*
X154771989Y-113573682D01*
X154901908Y-113738886D01*
X155060740Y-113876516D01*
X155060741Y-113876516D01*
X155060744Y-113876519D01*
X155242756Y-113981604D01*
X155441367Y-114050344D01*
X155649398Y-114080254D01*
X155859330Y-114070254D01*
X156063576Y-114020704D01*
X156254753Y-113933396D01*
X156425952Y-113811486D01*
X156570986Y-113659378D01*
X156684613Y-113482572D01*
X156762725Y-113287457D01*
X156802500Y-113081085D01*
X156802500Y-112523575D01*
X156787528Y-112366782D01*
X156728316Y-112165125D01*
X156678981Y-112069428D01*
X156632013Y-111978321D01*
X156564616Y-111892620D01*
X156502092Y-111813114D01*
X156502091Y-111813113D01*
X156343259Y-111675483D01*
X156343256Y-111675481D01*
X156161244Y-111570396D01*
X156161240Y-111570394D01*
X156161239Y-111570394D01*
X155962636Y-111501657D01*
X155962633Y-111501656D01*
X155754602Y-111471746D01*
X155754598Y-111471746D01*
X155754596Y-111471746D01*
X155544668Y-111481746D01*
X155340427Y-111531295D01*
X155340425Y-111531295D01*
X155340424Y-111531296D01*
X155149247Y-111618604D01*
X155149245Y-111618605D01*
X154978047Y-111740514D01*
X154833014Y-111892620D01*
X154719385Y-112069431D01*
X154641274Y-112264544D01*
X154601500Y-112470916D01*
X154601500Y-113028424D01*
X154262500Y-113028424D01*
X154262500Y-112523575D01*
X154247528Y-112366782D01*
X154188316Y-112165125D01*
X154138981Y-112069428D01*
X154092013Y-111978321D01*
X154024616Y-111892620D01*
X153962092Y-111813114D01*
X153962091Y-111813113D01*
X153803259Y-111675483D01*
X153803256Y-111675481D01*
X153621244Y-111570396D01*
X153621240Y-111570394D01*
X153621239Y-111570394D01*
X153422636Y-111501657D01*
X153422633Y-111501656D01*
X153214602Y-111471746D01*
X153214598Y-111471746D01*
X153214596Y-111471746D01*
X153004668Y-111481746D01*
X152800427Y-111531295D01*
X152800425Y-111531295D01*
X152800424Y-111531296D01*
X152609247Y-111618604D01*
X152609245Y-111618605D01*
X152438047Y-111740514D01*
X152293014Y-111892620D01*
X152179385Y-112069431D01*
X152101274Y-112264544D01*
X152061500Y-112470916D01*
X152061500Y-113028424D01*
X151722500Y-113028424D01*
X151722500Y-112523575D01*
X151707528Y-112366782D01*
X151648316Y-112165125D01*
X151598981Y-112069428D01*
X151552013Y-111978321D01*
X151484616Y-111892620D01*
X151422092Y-111813114D01*
X151422091Y-111813113D01*
X151263259Y-111675483D01*
X151263256Y-111675481D01*
X151081244Y-111570396D01*
X151081240Y-111570394D01*
X151081239Y-111570394D01*
X150882636Y-111501657D01*
X150882633Y-111501656D01*
X150674602Y-111471746D01*
X150674598Y-111471746D01*
X150674596Y-111471746D01*
X150464668Y-111481746D01*
X150260427Y-111531295D01*
X150260425Y-111531295D01*
X150260424Y-111531296D01*
X150069247Y-111618604D01*
X150069245Y-111618605D01*
X149898047Y-111740514D01*
X149753014Y-111892620D01*
X149639385Y-112069431D01*
X149561274Y-112264544D01*
X149521500Y-112470916D01*
X149521500Y-113028424D01*
X149182500Y-113028424D01*
X149182500Y-112523575D01*
X149167528Y-112366782D01*
X149108316Y-112165125D01*
X149058981Y-112069428D01*
X149012013Y-111978321D01*
X148944616Y-111892620D01*
X148882092Y-111813114D01*
X148882091Y-111813113D01*
X148723259Y-111675483D01*
X148723256Y-111675481D01*
X148541244Y-111570396D01*
X148541240Y-111570394D01*
X148541239Y-111570394D01*
X148342636Y-111501657D01*
X148342633Y-111501656D01*
X148134602Y-111471746D01*
X148134598Y-111471746D01*
X148134596Y-111471746D01*
X147924668Y-111481746D01*
X147720427Y-111531295D01*
X147720425Y-111531295D01*
X147720424Y-111531296D01*
X147529247Y-111618604D01*
X147529245Y-111618605D01*
X147358047Y-111740514D01*
X147213014Y-111892620D01*
X147099385Y-112069431D01*
X147021274Y-112264544D01*
X146981500Y-112470916D01*
X146981500Y-113028424D01*
X146642500Y-113028424D01*
X146642500Y-112523575D01*
X146627528Y-112366782D01*
X146568316Y-112165125D01*
X146518981Y-112069428D01*
X146472013Y-111978321D01*
X146404616Y-111892620D01*
X146342092Y-111813114D01*
X146342091Y-111813113D01*
X146183259Y-111675483D01*
X146183256Y-111675481D01*
X146001244Y-111570396D01*
X146001240Y-111570394D01*
X146001239Y-111570394D01*
X145802636Y-111501657D01*
X145802633Y-111501656D01*
X145594602Y-111471746D01*
X145594598Y-111471746D01*
X145594596Y-111471746D01*
X145473216Y-111477528D01*
X145424880Y-111462498D01*
X145397513Y-111419915D01*
X145403921Y-111369703D01*
X145417366Y-111351289D01*
X145513599Y-111255056D01*
X145515166Y-111253580D01*
X145562183Y-111211929D01*
X145597843Y-111160264D01*
X145599147Y-111158492D01*
X145637878Y-111109057D01*
X145643901Y-111095671D01*
X145650483Y-111084004D01*
X145658447Y-111072467D01*
X145658818Y-111071930D01*
X145681077Y-111013235D01*
X145681933Y-111011169D01*
X145682510Y-111009887D01*
X145707695Y-110953931D01*
X145710342Y-110939482D01*
X145713938Y-110926587D01*
X145719140Y-110912872D01*
X145726708Y-110850538D01*
X145727037Y-110848377D01*
X145738358Y-110786606D01*
X145735598Y-110740984D01*
X145734568Y-110723946D01*
X145734500Y-110721712D01*
X145734500Y-106077266D01*
X157147500Y-106077266D01*
X157150354Y-106107699D01*
X157150354Y-106107701D01*
X157150355Y-106107704D01*
X157195206Y-106235881D01*
X157195207Y-106235883D01*
X157275846Y-106345146D01*
X157275853Y-106345153D01*
X157385116Y-106425792D01*
X157385118Y-106425793D01*
X157513295Y-106470644D01*
X157513301Y-106470646D01*
X157543734Y-106473500D01*
X157543741Y-106473500D01*
X159852258Y-106473500D01*
X159852266Y-106473500D01*
X159882699Y-106470646D01*
X160010882Y-106425793D01*
X160120150Y-106345150D01*
X160200793Y-106235882D01*
X160245646Y-106107699D01*
X160248500Y-106077266D01*
X160248500Y-105468734D01*
X160245646Y-105438301D01*
X160226331Y-105383103D01*
X160200793Y-105310118D01*
X160200792Y-105310116D01*
X160120153Y-105200853D01*
X160120146Y-105200846D01*
X160010883Y-105120207D01*
X160010881Y-105120206D01*
X159882704Y-105075355D01*
X159882705Y-105075355D01*
X159882700Y-105075354D01*
X159882699Y-105075354D01*
X159852266Y-105072500D01*
X157543734Y-105072500D01*
X157513301Y-105075354D01*
X157513299Y-105075354D01*
X157513295Y-105075355D01*
X157385118Y-105120206D01*
X157385116Y-105120207D01*
X157275853Y-105200846D01*
X157275846Y-105200853D01*
X157195207Y-105310116D01*
X157195206Y-105310118D01*
X157150355Y-105438295D01*
X157150354Y-105438299D01*
X157150354Y-105438301D01*
X157147500Y-105468734D01*
X157147500Y-106077266D01*
X145734500Y-106077266D01*
X145734500Y-103084272D01*
X145751813Y-103036706D01*
X145795650Y-103011396D01*
X145845500Y-103020186D01*
X145848482Y-103022003D01*
X145860931Y-103030004D01*
X145985228Y-103066500D01*
X146114772Y-103066500D01*
X146239069Y-103030004D01*
X146347613Y-102960246D01*
X146387620Y-102948500D01*
X146848781Y-102948500D01*
X146896347Y-102965813D01*
X146921657Y-103009650D01*
X146912867Y-103059500D01*
X146881377Y-103088126D01*
X146881383Y-103088135D01*
X146881334Y-103088166D01*
X146879524Y-103089812D01*
X146876930Y-103090996D01*
X146767954Y-103161031D01*
X146767950Y-103161034D01*
X146683119Y-103258935D01*
X146629302Y-103376776D01*
X146610867Y-103505000D01*
X146629302Y-103633223D01*
X146629302Y-103633224D01*
X146629303Y-103633226D01*
X146683118Y-103751063D01*
X146767951Y-103848967D01*
X146876931Y-103919004D01*
X147001228Y-103955500D01*
X147096232Y-103955500D01*
X147143798Y-103972813D01*
X147148558Y-103977174D01*
X147264854Y-104093470D01*
X147274056Y-104104683D01*
X147285375Y-104121623D01*
X147285376Y-104121624D01*
X147305355Y-104134974D01*
X147308377Y-104136993D01*
X147308378Y-104136994D01*
X147344976Y-104161448D01*
X147376505Y-104182515D01*
X147450633Y-104197260D01*
X147450658Y-104197265D01*
X147483999Y-104203897D01*
X147484000Y-104203897D01*
X147503983Y-104199921D01*
X147518420Y-104198500D01*
X154423019Y-104198500D01*
X154470585Y-104215813D01*
X154489500Y-104240000D01*
X154508801Y-104279482D01*
X154508802Y-104279483D01*
X154591517Y-104362198D01*
X154696607Y-104413573D01*
X154764740Y-104423500D01*
X154764746Y-104423500D01*
X156231254Y-104423500D01*
X156231260Y-104423500D01*
X156299393Y-104413573D01*
X156404483Y-104362198D01*
X156487198Y-104279483D01*
X156538573Y-104174393D01*
X156548500Y-104106260D01*
X156548500Y-103739740D01*
X156538573Y-103671607D01*
X156487198Y-103566517D01*
X156404483Y-103483802D01*
X156404482Y-103483801D01*
X156299394Y-103432427D01*
X156231264Y-103422500D01*
X156231260Y-103422500D01*
X154764740Y-103422500D01*
X154764735Y-103422500D01*
X154696606Y-103432427D01*
X154696605Y-103432427D01*
X154591517Y-103483801D01*
X154508801Y-103566517D01*
X154489500Y-103606000D01*
X154453056Y-103641130D01*
X154423019Y-103647500D01*
X147628768Y-103647500D01*
X147581202Y-103630187D01*
X147576442Y-103625826D01*
X147539089Y-103588473D01*
X147517697Y-103542597D01*
X147518169Y-103525614D01*
X147521133Y-103505003D01*
X147521133Y-103505001D01*
X147512732Y-103446568D01*
X147502697Y-103376774D01*
X147448882Y-103258937D01*
X147364049Y-103161033D01*
X147255069Y-103090996D01*
X147252476Y-103089812D01*
X147251064Y-103088422D01*
X147250617Y-103088135D01*
X147250677Y-103088041D01*
X147216402Y-103054303D01*
X147211591Y-103003913D01*
X147240296Y-102962220D01*
X147283219Y-102948500D01*
X154423019Y-102948500D01*
X154470585Y-102965813D01*
X154489500Y-102990000D01*
X154508801Y-103029482D01*
X154508802Y-103029483D01*
X154591517Y-103112198D01*
X154696607Y-103163573D01*
X154764740Y-103173500D01*
X154764746Y-103173500D01*
X156231254Y-103173500D01*
X156231260Y-103173500D01*
X156299393Y-103163573D01*
X156404483Y-103112198D01*
X156487198Y-103029483D01*
X156538573Y-102924393D01*
X156548500Y-102856260D01*
X156548500Y-102489740D01*
X156538573Y-102421607D01*
X156487198Y-102316517D01*
X156404483Y-102233802D01*
X156404482Y-102233801D01*
X156299394Y-102182427D01*
X156231264Y-102172500D01*
X156231260Y-102172500D01*
X154764740Y-102172500D01*
X154764735Y-102172500D01*
X154696606Y-102182427D01*
X154696605Y-102182427D01*
X154591517Y-102233801D01*
X154508801Y-102316517D01*
X154489500Y-102356000D01*
X154453056Y-102391130D01*
X154423019Y-102397500D01*
X146490560Y-102397500D01*
X146442994Y-102380187D01*
X146434634Y-102371959D01*
X146348052Y-102272036D01*
X146348050Y-102272035D01*
X146348049Y-102272033D01*
X146263684Y-102217815D01*
X146239068Y-102201995D01*
X146114772Y-102165500D01*
X145985228Y-102165500D01*
X145860931Y-102201995D01*
X145848506Y-102209981D01*
X145799130Y-102221131D01*
X145754139Y-102197935D01*
X145734584Y-102151246D01*
X145734500Y-102147727D01*
X145734500Y-101606264D01*
X154447500Y-101606264D01*
X154457427Y-101674393D01*
X154457427Y-101674394D01*
X154508801Y-101779482D01*
X154508802Y-101779483D01*
X154591517Y-101862198D01*
X154696607Y-101913573D01*
X154764740Y-101923500D01*
X154764746Y-101923500D01*
X156231254Y-101923500D01*
X156231260Y-101923500D01*
X156299393Y-101913573D01*
X156404483Y-101862198D01*
X156487198Y-101779483D01*
X156538573Y-101674393D01*
X156548500Y-101606260D01*
X156548500Y-101239740D01*
X156538573Y-101171607D01*
X156487198Y-101066517D01*
X156404483Y-100983802D01*
X156404482Y-100983801D01*
X156299394Y-100932427D01*
X156231264Y-100922500D01*
X156231260Y-100922500D01*
X154764740Y-100922500D01*
X154764735Y-100922500D01*
X154696606Y-100932427D01*
X154696605Y-100932427D01*
X154591517Y-100983801D01*
X154508801Y-101066517D01*
X154457427Y-101171605D01*
X154457427Y-101171606D01*
X154447500Y-101239735D01*
X154447500Y-101606264D01*
X145734500Y-101606264D01*
X145734500Y-99106264D01*
X154447500Y-99106264D01*
X154457427Y-99174393D01*
X154457427Y-99174394D01*
X154508801Y-99279482D01*
X154508802Y-99279483D01*
X154591517Y-99362198D01*
X154696607Y-99413573D01*
X154764740Y-99423500D01*
X154764746Y-99423500D01*
X156231254Y-99423500D01*
X156231260Y-99423500D01*
X156299393Y-99413573D01*
X156404483Y-99362198D01*
X156487198Y-99279483D01*
X156538573Y-99174393D01*
X156548500Y-99106260D01*
X156548500Y-98739740D01*
X156538573Y-98671607D01*
X156487198Y-98566517D01*
X156404483Y-98483802D01*
X156404482Y-98483801D01*
X156299394Y-98432427D01*
X156231264Y-98422500D01*
X156231260Y-98422500D01*
X154764740Y-98422500D01*
X154764735Y-98422500D01*
X154696606Y-98432427D01*
X154696605Y-98432427D01*
X154591517Y-98483801D01*
X154508801Y-98566517D01*
X154457427Y-98671605D01*
X154457427Y-98671606D01*
X154447500Y-98739735D01*
X154447500Y-99106264D01*
X145734500Y-99106264D01*
X145734500Y-98240808D01*
X145751813Y-98193242D01*
X145756163Y-98188493D01*
X146088392Y-97856264D01*
X154447500Y-97856264D01*
X154457427Y-97924393D01*
X154457427Y-97924394D01*
X154508801Y-98029482D01*
X154508802Y-98029483D01*
X154591517Y-98112198D01*
X154696607Y-98163573D01*
X154764740Y-98173500D01*
X154764746Y-98173500D01*
X156231254Y-98173500D01*
X156231260Y-98173500D01*
X156299393Y-98163573D01*
X156404483Y-98112198D01*
X156487198Y-98029483D01*
X156538573Y-97924393D01*
X156548500Y-97856260D01*
X156548500Y-97489740D01*
X156538573Y-97421607D01*
X156487198Y-97316517D01*
X156404483Y-97233802D01*
X156404482Y-97233801D01*
X156299394Y-97182427D01*
X156231264Y-97172500D01*
X156231260Y-97172500D01*
X154764740Y-97172500D01*
X154764735Y-97172500D01*
X154696606Y-97182427D01*
X154696605Y-97182427D01*
X154591517Y-97233801D01*
X154508801Y-97316517D01*
X154457427Y-97421605D01*
X154457427Y-97421606D01*
X154447500Y-97489735D01*
X154447500Y-97856264D01*
X146088392Y-97856264D01*
X147817390Y-96127266D01*
X157147500Y-96127266D01*
X157150354Y-96157699D01*
X157150354Y-96157701D01*
X157150355Y-96157704D01*
X157195206Y-96285881D01*
X157195207Y-96285883D01*
X157275846Y-96395146D01*
X157275853Y-96395153D01*
X157385116Y-96475792D01*
X157385118Y-96475793D01*
X157513295Y-96520644D01*
X157513301Y-96520646D01*
X157543734Y-96523500D01*
X157543741Y-96523500D01*
X159852258Y-96523500D01*
X159852266Y-96523500D01*
X159882699Y-96520646D01*
X160010882Y-96475793D01*
X160120150Y-96395150D01*
X160200793Y-96285882D01*
X160245646Y-96157699D01*
X160248500Y-96127266D01*
X160248500Y-95518734D01*
X160245646Y-95488301D01*
X160243918Y-95483364D01*
X160200793Y-95360118D01*
X160200792Y-95360116D01*
X160120153Y-95250853D01*
X160120146Y-95250846D01*
X160010883Y-95170207D01*
X160010881Y-95170206D01*
X159882704Y-95125355D01*
X159882705Y-95125355D01*
X159882700Y-95125354D01*
X159882699Y-95125354D01*
X159852266Y-95122500D01*
X157543734Y-95122500D01*
X157513301Y-95125354D01*
X157513299Y-95125354D01*
X157513295Y-95125355D01*
X157385118Y-95170206D01*
X157385116Y-95170207D01*
X157275853Y-95250846D01*
X157275846Y-95250853D01*
X157195207Y-95360116D01*
X157195206Y-95360118D01*
X157150355Y-95488295D01*
X157150354Y-95488299D01*
X157150354Y-95488301D01*
X157147500Y-95518734D01*
X157147500Y-96127266D01*
X147817390Y-96127266D01*
X149571967Y-94372688D01*
X149582250Y-94364119D01*
X149594329Y-94355783D01*
X149635980Y-94308766D01*
X149637456Y-94307199D01*
X153974483Y-89970174D01*
X154020359Y-89948782D01*
X154026809Y-89948500D01*
X154925746Y-89948500D01*
X154925748Y-89948500D01*
X154984231Y-89936867D01*
X155050552Y-89892552D01*
X155094867Y-89826231D01*
X155106500Y-89767748D01*
X155106500Y-88528252D01*
X155094867Y-88469769D01*
X155050552Y-88403448D01*
X155028343Y-88388608D01*
X154984232Y-88359133D01*
X154984233Y-88359133D01*
X154954989Y-88353316D01*
X154925748Y-88347500D01*
X152686252Y-88347500D01*
X152657010Y-88353316D01*
X152627767Y-88359133D01*
X152561449Y-88403447D01*
X152561447Y-88403449D01*
X152517133Y-88469767D01*
X152517133Y-88469769D01*
X152506803Y-88521704D01*
X152505500Y-88528253D01*
X152505500Y-89427191D01*
X152488187Y-89474757D01*
X152483826Y-89479517D01*
X148857917Y-93105426D01*
X148812041Y-93126818D01*
X148805591Y-93127100D01*
X142865609Y-93127100D01*
X142818043Y-93109787D01*
X142813283Y-93105426D01*
X141125481Y-91417624D01*
X141123958Y-91416006D01*
X141082329Y-91369017D01*
X141030677Y-91333364D01*
X141028878Y-91332040D01*
X140979458Y-91293323D01*
X140979457Y-91293322D01*
X140979455Y-91293321D01*
X140966069Y-91287296D01*
X140954405Y-91280717D01*
X140942327Y-91272380D01*
X140892822Y-91253605D01*
X140883644Y-91250125D01*
X140881584Y-91249271D01*
X140824331Y-91223504D01*
X140809884Y-91220856D01*
X140796989Y-91217261D01*
X140783274Y-91212060D01*
X140783269Y-91212059D01*
X140747838Y-91207757D01*
X140720962Y-91204493D01*
X140718768Y-91204159D01*
X140657007Y-91192842D01*
X140657006Y-91192842D01*
X140650105Y-91193259D01*
X140594347Y-91196632D01*
X140592113Y-91196700D01*
X130158020Y-91196700D01*
X130031528Y-91212059D01*
X129872470Y-91272381D01*
X129732471Y-91369016D01*
X129619669Y-91496343D01*
X129619667Y-91496346D01*
X129540609Y-91646977D01*
X129499900Y-91812141D01*
X129499900Y-91982258D01*
X129540609Y-92147422D01*
X129540610Y-92147425D01*
X129567950Y-92199516D01*
X129619667Y-92298053D01*
X129619669Y-92298056D01*
X129672894Y-92358134D01*
X129732471Y-92425383D01*
X129872470Y-92522018D01*
X130031528Y-92582340D01*
X130158028Y-92597700D01*
X140293591Y-92597700D01*
X140341157Y-92615013D01*
X140345917Y-92619374D01*
X142033717Y-94307174D01*
X142035241Y-94308793D01*
X142038416Y-94312376D01*
X142076871Y-94355783D01*
X142128530Y-94391441D01*
X142130330Y-94392766D01*
X142166049Y-94420749D01*
X142179743Y-94431478D01*
X142193122Y-94437499D01*
X142204790Y-94444079D01*
X142216870Y-94452418D01*
X142275554Y-94474673D01*
X142277621Y-94475529D01*
X142334864Y-94501293D01*
X142334869Y-94501295D01*
X142349318Y-94503942D01*
X142362207Y-94507536D01*
X142375928Y-94512740D01*
X142438255Y-94520307D01*
X142440426Y-94520638D01*
X142502194Y-94531958D01*
X142545084Y-94529363D01*
X142564853Y-94528168D01*
X142567087Y-94528100D01*
X147256591Y-94528100D01*
X147304157Y-94545413D01*
X147329467Y-94589250D01*
X147320677Y-94639100D01*
X147308917Y-94654426D01*
X144568632Y-97394711D01*
X144554421Y-97408920D01*
X144552796Y-97410450D01*
X144505816Y-97452071D01*
X144505813Y-97452074D01*
X144497479Y-97464148D01*
X144488907Y-97474434D01*
X142420823Y-99542518D01*
X142419196Y-99544050D01*
X142372216Y-99585671D01*
X142345600Y-99624230D01*
X142304330Y-99653541D01*
X142253876Y-99649466D01*
X142217844Y-99613914D01*
X142210700Y-99582192D01*
X142210700Y-96656020D01*
X142212122Y-96641583D01*
X142216097Y-96621600D01*
X142211477Y-96598376D01*
X142194715Y-96514105D01*
X142149194Y-96445978D01*
X142149193Y-96445977D01*
X142147174Y-96442955D01*
X142133824Y-96422976D01*
X142133823Y-96422975D01*
X142116883Y-96411656D01*
X142105670Y-96402454D01*
X141036689Y-95333473D01*
X141015297Y-95287597D01*
X141015769Y-95270614D01*
X141018733Y-95250003D01*
X141018733Y-95250001D01*
X141016907Y-95237299D01*
X141000297Y-95121774D01*
X140946482Y-95003937D01*
X140861649Y-94906033D01*
X140771622Y-94848176D01*
X140752668Y-94835995D01*
X140628372Y-94799500D01*
X140498828Y-94799500D01*
X140374531Y-94835995D01*
X140265554Y-94906031D01*
X140265550Y-94906034D01*
X140180719Y-95003935D01*
X140126902Y-95121776D01*
X140108467Y-95250000D01*
X140126902Y-95378223D01*
X140126902Y-95378224D01*
X140126903Y-95378226D01*
X140177173Y-95488301D01*
X140180719Y-95496065D01*
X140180720Y-95496067D01*
X140255650Y-95582541D01*
X140273715Y-95629826D01*
X140257159Y-95677661D01*
X140255650Y-95679459D01*
X140180720Y-95765932D01*
X140180719Y-95765934D01*
X140126902Y-95883776D01*
X140108467Y-96012000D01*
X140126902Y-96140223D01*
X140180719Y-96258065D01*
X140180720Y-96258067D01*
X140255650Y-96344541D01*
X140273715Y-96391826D01*
X140257159Y-96439661D01*
X140255650Y-96441459D01*
X140228356Y-96472959D01*
X140184123Y-96497570D01*
X140172430Y-96498500D01*
X139785220Y-96498500D01*
X139770784Y-96497078D01*
X139750800Y-96493103D01*
X139750799Y-96493103D01*
X139723668Y-96498500D01*
X139723667Y-96498500D01*
X139696879Y-96503828D01*
X139643303Y-96514485D01*
X139623173Y-96527937D01*
X139577105Y-96558718D01*
X139552176Y-96575375D01*
X139552174Y-96575377D01*
X139540853Y-96592319D01*
X139531653Y-96603529D01*
X137751529Y-98383653D01*
X137740319Y-98392853D01*
X137723377Y-98404174D01*
X137723375Y-98404176D01*
X137706077Y-98430065D01*
X137704504Y-98432420D01*
X137662485Y-98495304D01*
X137648320Y-98566517D01*
X137641103Y-98602799D01*
X137641103Y-98602800D01*
X137645078Y-98622783D01*
X137646500Y-98637220D01*
X137646500Y-102164115D01*
X137629187Y-102211681D01*
X137585350Y-102236991D01*
X137535500Y-102228201D01*
X137516575Y-102212575D01*
X137458053Y-102145037D01*
X137458051Y-102145035D01*
X137458049Y-102145033D01*
X137381992Y-102096154D01*
X137349068Y-102074995D01*
X137224772Y-102038500D01*
X137095228Y-102038500D01*
X136970931Y-102074995D01*
X136861954Y-102145031D01*
X136861947Y-102145036D01*
X136824756Y-102187959D01*
X136780523Y-102212570D01*
X136768830Y-102213500D01*
X134249170Y-102213500D01*
X134201604Y-102196187D01*
X134193244Y-102187959D01*
X134156052Y-102145036D01*
X134156050Y-102145035D01*
X134156049Y-102145033D01*
X134079992Y-102096154D01*
X134047068Y-102074995D01*
X133922772Y-102038500D01*
X133793228Y-102038500D01*
X133668931Y-102074995D01*
X133559954Y-102145031D01*
X133559950Y-102145034D01*
X133475119Y-102242935D01*
X133421302Y-102360776D01*
X133402917Y-102488649D01*
X133402867Y-102489000D01*
X133402973Y-102489740D01*
X133405831Y-102509615D01*
X133395463Y-102559161D01*
X133384910Y-102572472D01*
X132874729Y-103082653D01*
X132863519Y-103091853D01*
X132846577Y-103103174D01*
X132846575Y-103103176D01*
X132785684Y-103194306D01*
X132784622Y-103197808D01*
X132784263Y-103201454D01*
X132764303Y-103301800D01*
X132768278Y-103321783D01*
X132769700Y-103336220D01*
X132769700Y-107328031D01*
X132752387Y-107375597D01*
X132748026Y-107380357D01*
X130843144Y-109285238D01*
X130797268Y-109306630D01*
X130755935Y-109298174D01*
X130685954Y-109260768D01*
X130548003Y-109218921D01*
X130487935Y-109200700D01*
X130282000Y-109180417D01*
X130076064Y-109200700D01*
X129878043Y-109260769D01*
X129695549Y-109358315D01*
X129535590Y-109489589D01*
X129535589Y-109489590D01*
X129404315Y-109649549D01*
X129306769Y-109832043D01*
X129306769Y-109832044D01*
X129306768Y-109832046D01*
X129299011Y-109857616D01*
X129246700Y-110030064D01*
X129226417Y-110236000D01*
X128797583Y-110236000D01*
X128777300Y-110030066D01*
X128717232Y-109832046D01*
X128619685Y-109649550D01*
X128488410Y-109489590D01*
X128328450Y-109358315D01*
X128145954Y-109260768D01*
X128027105Y-109224716D01*
X127947935Y-109200700D01*
X127742000Y-109180417D01*
X127536064Y-109200700D01*
X127338043Y-109260769D01*
X127155549Y-109358315D01*
X126995590Y-109489589D01*
X126995589Y-109489590D01*
X126864315Y-109649549D01*
X126766769Y-109832043D01*
X126766769Y-109832044D01*
X126766768Y-109832046D01*
X126759011Y-109857616D01*
X126706700Y-110030064D01*
X126686417Y-110236000D01*
X126155500Y-110236000D01*
X126155500Y-106687914D01*
X126172813Y-106640348D01*
X126216650Y-106615038D01*
X126266500Y-106623828D01*
X126270605Y-106626380D01*
X126301035Y-106646713D01*
X126301189Y-106646816D01*
X126312403Y-106656019D01*
X126791238Y-107134854D01*
X126812630Y-107180730D01*
X126804174Y-107222063D01*
X126766770Y-107292041D01*
X126706700Y-107490064D01*
X126686417Y-107696000D01*
X126706700Y-107901935D01*
X126714599Y-107927974D01*
X126766768Y-108099954D01*
X126864315Y-108282450D01*
X126995590Y-108442410D01*
X127155550Y-108573685D01*
X127338046Y-108671232D01*
X127536066Y-108731300D01*
X127742000Y-108751583D01*
X127947934Y-108731300D01*
X128145954Y-108671232D01*
X128328450Y-108573685D01*
X128488410Y-108442410D01*
X128619685Y-108282450D01*
X128717232Y-108099954D01*
X128777300Y-107901934D01*
X128797583Y-107696000D01*
X129226417Y-107696000D01*
X129246700Y-107901935D01*
X129254599Y-107927974D01*
X129306768Y-108099954D01*
X129404315Y-108282450D01*
X129535590Y-108442410D01*
X129695550Y-108573685D01*
X129878046Y-108671232D01*
X130076066Y-108731300D01*
X130282000Y-108751583D01*
X130487934Y-108731300D01*
X130685954Y-108671232D01*
X130868450Y-108573685D01*
X131028410Y-108442410D01*
X131159685Y-108282450D01*
X131257232Y-108099954D01*
X131317300Y-107901934D01*
X131337583Y-107696000D01*
X131317300Y-107490066D01*
X131257232Y-107292046D01*
X131159685Y-107109550D01*
X131028410Y-106949590D01*
X130966943Y-106899146D01*
X130868450Y-106818315D01*
X130685956Y-106720769D01*
X130685955Y-106720768D01*
X130685954Y-106720768D01*
X130574158Y-106686855D01*
X130487935Y-106660700D01*
X130282000Y-106640417D01*
X130076064Y-106660700D01*
X129878043Y-106720769D01*
X129695549Y-106818315D01*
X129535590Y-106949589D01*
X129535589Y-106949590D01*
X129404315Y-107109549D01*
X129306769Y-107292043D01*
X129246700Y-107490064D01*
X129226417Y-107696000D01*
X128797583Y-107696000D01*
X128777300Y-107490066D01*
X128717232Y-107292046D01*
X128619685Y-107109550D01*
X128488410Y-106949590D01*
X128426943Y-106899146D01*
X128328450Y-106818315D01*
X128145956Y-106720769D01*
X128145955Y-106720768D01*
X128145954Y-106720768D01*
X128034158Y-106686855D01*
X127947935Y-106660700D01*
X127742000Y-106640417D01*
X127536064Y-106660700D01*
X127446352Y-106687914D01*
X127338046Y-106720768D01*
X127338043Y-106720769D01*
X127338041Y-106720770D01*
X127268063Y-106758174D01*
X127217952Y-106765328D01*
X127180854Y-106745238D01*
X126763774Y-106328158D01*
X126742382Y-106282282D01*
X126742100Y-106275832D01*
X126742100Y-105800346D01*
X126759413Y-105752780D01*
X126803250Y-105727470D01*
X126853100Y-105736260D01*
X126873300Y-105753398D01*
X126995590Y-105902410D01*
X127155550Y-106033685D01*
X127338046Y-106131232D01*
X127536066Y-106191300D01*
X127742000Y-106211583D01*
X127947934Y-106191300D01*
X128145954Y-106131232D01*
X128328450Y-106033685D01*
X128338124Y-106025746D01*
X129231500Y-106025746D01*
X129243133Y-106084232D01*
X129258814Y-106107699D01*
X129287448Y-106150552D01*
X129331560Y-106180027D01*
X129353767Y-106194866D01*
X129353768Y-106194866D01*
X129353769Y-106194867D01*
X129412252Y-106206500D01*
X129412254Y-106206500D01*
X131151746Y-106206500D01*
X131151748Y-106206500D01*
X131210231Y-106194867D01*
X131276552Y-106150552D01*
X131320867Y-106084231D01*
X131332500Y-106025748D01*
X131332500Y-104286252D01*
X131320867Y-104227769D01*
X131276552Y-104161448D01*
X131236932Y-104134974D01*
X131210232Y-104117133D01*
X131210233Y-104117133D01*
X131180989Y-104111316D01*
X131151748Y-104105500D01*
X129412252Y-104105500D01*
X129383010Y-104111316D01*
X129353767Y-104117133D01*
X129287449Y-104161447D01*
X129287447Y-104161449D01*
X129243133Y-104227767D01*
X129243133Y-104227769D01*
X129232847Y-104279483D01*
X129231500Y-104286253D01*
X129231500Y-106025746D01*
X128338124Y-106025746D01*
X128488410Y-105902410D01*
X128619685Y-105742450D01*
X128717232Y-105559954D01*
X128777300Y-105361934D01*
X128797583Y-105156000D01*
X128777300Y-104950066D01*
X128717232Y-104752046D01*
X128619685Y-104569550D01*
X128488410Y-104409590D01*
X128328450Y-104278315D01*
X128211518Y-104215813D01*
X128145956Y-104180769D01*
X128145955Y-104180768D01*
X128145954Y-104180768D01*
X128001649Y-104136994D01*
X127947935Y-104120700D01*
X127742000Y-104100417D01*
X127536064Y-104120700D01*
X127482351Y-104136994D01*
X127370979Y-104170777D01*
X127320437Y-104168018D01*
X127283492Y-104133415D01*
X127275500Y-104099964D01*
X127275500Y-100849196D01*
X127292813Y-100801630D01*
X127336650Y-100776320D01*
X127386500Y-100785110D01*
X127418834Y-100823336D01*
X127425796Y-100842004D01*
X127425797Y-100842005D01*
X127425798Y-100842006D01*
X127510819Y-100955581D01*
X127624394Y-101040602D01*
X127624395Y-101040603D01*
X127693874Y-101066517D01*
X127757322Y-101090182D01*
X127816089Y-101096500D01*
X128774710Y-101096499D01*
X128774711Y-101096499D01*
X128774711Y-101096498D01*
X128833478Y-101090182D01*
X128899942Y-101065392D01*
X128966404Y-101040603D01*
X128966404Y-101040602D01*
X128966406Y-101040602D01*
X129079981Y-100955581D01*
X129165002Y-100842006D01*
X129214582Y-100709078D01*
X129220900Y-100650311D01*
X129220900Y-100558000D01*
X129238213Y-100510434D01*
X129282050Y-100485124D01*
X129294900Y-100484000D01*
X129829517Y-100484000D01*
X129877083Y-100501313D01*
X129896829Y-100527258D01*
X129919118Y-100576063D01*
X130003951Y-100673967D01*
X130112931Y-100744004D01*
X130237228Y-100780500D01*
X130366772Y-100780500D01*
X130491069Y-100744004D01*
X130600049Y-100673967D01*
X130684882Y-100576063D01*
X130738697Y-100458226D01*
X130757133Y-100330000D01*
X130738697Y-100201774D01*
X130684882Y-100083937D01*
X130600049Y-99986033D01*
X130511733Y-99929276D01*
X130491068Y-99915995D01*
X130366772Y-99879500D01*
X130237228Y-99879500D01*
X130112931Y-99915995D01*
X130104751Y-99921253D01*
X130064744Y-99933000D01*
X129294899Y-99933000D01*
X129247333Y-99915687D01*
X129222023Y-99871850D01*
X129220899Y-99859000D01*
X129220899Y-99766688D01*
X129220898Y-99766687D01*
X129214582Y-99707922D01*
X129214581Y-99707919D01*
X129165003Y-99574995D01*
X129165002Y-99574994D01*
X129143777Y-99546641D01*
X129079981Y-99461419D01*
X128966406Y-99376398D01*
X128966405Y-99376397D01*
X128966404Y-99376396D01*
X128833482Y-99326819D01*
X128833476Y-99326817D01*
X128774712Y-99320500D01*
X127816088Y-99320500D01*
X127816087Y-99320501D01*
X127757319Y-99326818D01*
X127624395Y-99376396D01*
X127624394Y-99376397D01*
X127510819Y-99461419D01*
X127425797Y-99574994D01*
X127418834Y-99593664D01*
X127385990Y-99632181D01*
X127336072Y-99640574D01*
X127292437Y-99614918D01*
X127275500Y-99567803D01*
X127275500Y-97807768D01*
X127292813Y-97760202D01*
X127297174Y-97755442D01*
X127400042Y-97652574D01*
X127445918Y-97631182D01*
X127452368Y-97630900D01*
X127547372Y-97630900D01*
X127671669Y-97594404D01*
X127780493Y-97524466D01*
X127829868Y-97513315D01*
X127874860Y-97536510D01*
X127894416Y-97583199D01*
X127894500Y-97586720D01*
X127894500Y-97617179D01*
X127893078Y-97631615D01*
X127889103Y-97651600D01*
X127894500Y-97678732D01*
X127894500Y-97678733D01*
X127898217Y-97697420D01*
X127910485Y-97759096D01*
X127933009Y-97792804D01*
X127953248Y-97823095D01*
X127971376Y-97850224D01*
X127971378Y-97850226D01*
X127988314Y-97861542D01*
X127999529Y-97870745D01*
X128330310Y-98201526D01*
X128351702Y-98247402D01*
X128351231Y-98264382D01*
X128348267Y-98284999D01*
X128366702Y-98413223D01*
X128366702Y-98413224D01*
X128366703Y-98413226D01*
X128420518Y-98531063D01*
X128505351Y-98628967D01*
X128614331Y-98699004D01*
X128738628Y-98735500D01*
X128868172Y-98735500D01*
X128992469Y-98699004D01*
X129101449Y-98628967D01*
X129186282Y-98531063D01*
X129240097Y-98413226D01*
X129258533Y-98285000D01*
X129240097Y-98156774D01*
X129186282Y-98038937D01*
X129101449Y-97941033D01*
X129028390Y-97894081D01*
X128992468Y-97870995D01*
X128868172Y-97834500D01*
X128773168Y-97834500D01*
X128725602Y-97817187D01*
X128720842Y-97812826D01*
X128467174Y-97559158D01*
X128445782Y-97513282D01*
X128445500Y-97506832D01*
X128445500Y-96894500D01*
X128462813Y-96846934D01*
X128506650Y-96821624D01*
X128519500Y-96820500D01*
X128674258Y-96820500D01*
X128674266Y-96820500D01*
X128704699Y-96817646D01*
X128832882Y-96772793D01*
X128942150Y-96692150D01*
X129022793Y-96582882D01*
X129067646Y-96454699D01*
X129070500Y-96424266D01*
X129070500Y-95615734D01*
X129067646Y-95585301D01*
X129066234Y-95581267D01*
X129022793Y-95457118D01*
X129022792Y-95457116D01*
X128942153Y-95347853D01*
X128942146Y-95347846D01*
X128832883Y-95267207D01*
X128832881Y-95267206D01*
X128704704Y-95222355D01*
X128704705Y-95222355D01*
X128704700Y-95222354D01*
X128704699Y-95222354D01*
X128674266Y-95219500D01*
X127665734Y-95219500D01*
X127635301Y-95222354D01*
X127635299Y-95222354D01*
X127635295Y-95222355D01*
X127507118Y-95267206D01*
X127507116Y-95267207D01*
X127397853Y-95347846D01*
X127397846Y-95347853D01*
X127317207Y-95457116D01*
X127317206Y-95457118D01*
X127272355Y-95585295D01*
X127272354Y-95585299D01*
X127272354Y-95585301D01*
X127269500Y-95615734D01*
X127269500Y-95615740D01*
X127269500Y-95990231D01*
X127252187Y-96037797D01*
X127247826Y-96042557D01*
X125709529Y-97580853D01*
X125698319Y-97590053D01*
X125681377Y-97601374D01*
X125681375Y-97601376D01*
X125666005Y-97624379D01*
X125653233Y-97643494D01*
X125620485Y-97692504D01*
X125605886Y-97765899D01*
X125599103Y-97799999D01*
X125599103Y-97800000D01*
X125603078Y-97819983D01*
X125604500Y-97834420D01*
X125604500Y-97865538D01*
X125587187Y-97913104D01*
X125543350Y-97938414D01*
X125493500Y-97929624D01*
X125490493Y-97927791D01*
X125461868Y-97909395D01*
X125337572Y-97872900D01*
X125292408Y-97872900D01*
X125244842Y-97855587D01*
X125219532Y-97811750D01*
X125228322Y-97761900D01*
X125240082Y-97746574D01*
X125880116Y-97106540D01*
X126565199Y-96421456D01*
X126566766Y-96419980D01*
X126613783Y-96378329D01*
X126649448Y-96326657D01*
X126650765Y-96324868D01*
X126689477Y-96275457D01*
X126695500Y-96262071D01*
X126702077Y-96250411D01*
X126710418Y-96238330D01*
X126732681Y-96179625D01*
X126733537Y-96177559D01*
X126759294Y-96120332D01*
X126761939Y-96105890D01*
X126765533Y-96092999D01*
X126770740Y-96079272D01*
X126778308Y-96016938D01*
X126778641Y-96014757D01*
X126789957Y-95953006D01*
X126786168Y-95890356D01*
X126786100Y-95888122D01*
X126786100Y-90805000D01*
X143689867Y-90805000D01*
X143708302Y-90933223D01*
X143708302Y-90933224D01*
X143708303Y-90933226D01*
X143762118Y-91051063D01*
X143846951Y-91148967D01*
X143955931Y-91219004D01*
X144080228Y-91255500D01*
X144209772Y-91255500D01*
X144334069Y-91219004D01*
X144443049Y-91148967D01*
X144480244Y-91106041D01*
X144524477Y-91081430D01*
X144536170Y-91080500D01*
X146293830Y-91080500D01*
X146341396Y-91097813D01*
X146349756Y-91106041D01*
X146386947Y-91148963D01*
X146386948Y-91148964D01*
X146386951Y-91148967D01*
X146495931Y-91219004D01*
X146620228Y-91255500D01*
X146749772Y-91255500D01*
X146874069Y-91219004D01*
X146983049Y-91148967D01*
X147067882Y-91051063D01*
X147121697Y-90933226D01*
X147140133Y-90805000D01*
X147121697Y-90676774D01*
X147067882Y-90558937D01*
X146983049Y-90461033D01*
X146916032Y-90417964D01*
X146874068Y-90390995D01*
X146749772Y-90354500D01*
X146620228Y-90354500D01*
X146495931Y-90390995D01*
X146386954Y-90461031D01*
X146386947Y-90461036D01*
X146349756Y-90503959D01*
X146305523Y-90528570D01*
X146293830Y-90529500D01*
X144536170Y-90529500D01*
X144488604Y-90512187D01*
X144480244Y-90503959D01*
X144443052Y-90461036D01*
X144443050Y-90461035D01*
X144443049Y-90461033D01*
X144376032Y-90417964D01*
X144334068Y-90390995D01*
X144209772Y-90354500D01*
X144080228Y-90354500D01*
X143955931Y-90390995D01*
X143846954Y-90461031D01*
X143846950Y-90461034D01*
X143762119Y-90558935D01*
X143708302Y-90676776D01*
X143689867Y-90805000D01*
X126786100Y-90805000D01*
X126786100Y-88491266D01*
X130697500Y-88491266D01*
X130700354Y-88521699D01*
X130700354Y-88521701D01*
X130700355Y-88521704D01*
X130745206Y-88649881D01*
X130745207Y-88649883D01*
X130825846Y-88759146D01*
X130825853Y-88759153D01*
X130935116Y-88839792D01*
X130935118Y-88839793D01*
X131063295Y-88884644D01*
X131063301Y-88884646D01*
X131093734Y-88887500D01*
X131093741Y-88887500D01*
X131877258Y-88887500D01*
X131877266Y-88887500D01*
X131907699Y-88884646D01*
X132035882Y-88839793D01*
X132123729Y-88774959D01*
X132167670Y-88760500D01*
X132747281Y-88760500D01*
X132794847Y-88777813D01*
X132819093Y-88816639D01*
X132857567Y-88971349D01*
X132937347Y-89132210D01*
X133049841Y-89272159D01*
X133189790Y-89384653D01*
X133350651Y-89464433D01*
X133524900Y-89507766D01*
X133565216Y-89510500D01*
X133565219Y-89510500D01*
X135458781Y-89510500D01*
X135458784Y-89510500D01*
X135499100Y-89507766D01*
X135673349Y-89464433D01*
X135834210Y-89384653D01*
X135974159Y-89272159D01*
X136086653Y-89132210D01*
X136166433Y-88971349D01*
X136204906Y-88816639D01*
X136233187Y-88774659D01*
X136276719Y-88760500D01*
X138035330Y-88760500D01*
X138079270Y-88774959D01*
X138167118Y-88839793D01*
X138295295Y-88884644D01*
X138295301Y-88884646D01*
X138325734Y-88887500D01*
X138325741Y-88887500D01*
X139334258Y-88887500D01*
X139334266Y-88887500D01*
X139364699Y-88884646D01*
X139492882Y-88839793D01*
X139602150Y-88759150D01*
X139682793Y-88649882D01*
X139727646Y-88521699D01*
X139730500Y-88491266D01*
X139730500Y-87682734D01*
X139727646Y-87652301D01*
X139682793Y-87524118D01*
X139682792Y-87524116D01*
X139602153Y-87414853D01*
X139602146Y-87414846D01*
X139492883Y-87334207D01*
X139492881Y-87334206D01*
X139364704Y-87289355D01*
X139364705Y-87289355D01*
X139364700Y-87289354D01*
X139364699Y-87289354D01*
X139334266Y-87286500D01*
X138325734Y-87286500D01*
X138295301Y-87289354D01*
X138295299Y-87289354D01*
X138295295Y-87289355D01*
X138167119Y-87334206D01*
X138167118Y-87334207D01*
X138156306Y-87342187D01*
X138152440Y-87345040D01*
X138108497Y-87359500D01*
X136276719Y-87359500D01*
X136229153Y-87342187D01*
X136204906Y-87303359D01*
X136166433Y-87148651D01*
X136086653Y-86987790D01*
X135974159Y-86847841D01*
X135834210Y-86735347D01*
X135673349Y-86655567D01*
X135499100Y-86612234D01*
X135499097Y-86612233D01*
X135499094Y-86612233D01*
X135469077Y-86610198D01*
X135458784Y-86609500D01*
X133565216Y-86609500D01*
X133555730Y-86610143D01*
X133524905Y-86612233D01*
X133524901Y-86612233D01*
X133524900Y-86612234D01*
X133350651Y-86655567D01*
X133350649Y-86655568D01*
X133189791Y-86735346D01*
X133049841Y-86847841D01*
X132937346Y-86987791D01*
X132911773Y-87039355D01*
X132857567Y-87148651D01*
X132819094Y-87303359D01*
X132790813Y-87345341D01*
X132747281Y-87359500D01*
X132308175Y-87359500D01*
X132260609Y-87342187D01*
X132238327Y-87309940D01*
X132225793Y-87274118D01*
X132225791Y-87274115D01*
X132145153Y-87164853D01*
X132145146Y-87164846D01*
X132035883Y-87084207D01*
X132035881Y-87084206D01*
X131907704Y-87039355D01*
X131907705Y-87039355D01*
X131907700Y-87039354D01*
X131907699Y-87039354D01*
X131877266Y-87036500D01*
X131093734Y-87036500D01*
X131063301Y-87039354D01*
X131063299Y-87039354D01*
X131063295Y-87039355D01*
X130935118Y-87084206D01*
X130935116Y-87084207D01*
X130825853Y-87164846D01*
X130825846Y-87164853D01*
X130745207Y-87274116D01*
X130745206Y-87274118D01*
X130700355Y-87402295D01*
X130700354Y-87402299D01*
X130700354Y-87402301D01*
X130697500Y-87432734D01*
X130697500Y-88491266D01*
X126786100Y-88491266D01*
X126786100Y-86491266D01*
X137929500Y-86491266D01*
X137932354Y-86521699D01*
X137932354Y-86521701D01*
X137932355Y-86521704D01*
X137977206Y-86649881D01*
X137977207Y-86649883D01*
X138057846Y-86759146D01*
X138057853Y-86759153D01*
X138167116Y-86839792D01*
X138167118Y-86839793D01*
X138295295Y-86884644D01*
X138295301Y-86884646D01*
X138325734Y-86887500D01*
X138325741Y-86887500D01*
X139334258Y-86887500D01*
X139334266Y-86887500D01*
X139364699Y-86884646D01*
X139492882Y-86839793D01*
X139602150Y-86759150D01*
X139682793Y-86649882D01*
X139727646Y-86521699D01*
X139730500Y-86491266D01*
X139730500Y-85682734D01*
X139727646Y-85652301D01*
X139717997Y-85624727D01*
X139682793Y-85524118D01*
X139682792Y-85524116D01*
X139602153Y-85414853D01*
X139602146Y-85414846D01*
X139492883Y-85334207D01*
X139492881Y-85334206D01*
X139364704Y-85289355D01*
X139364705Y-85289355D01*
X139364700Y-85289354D01*
X139364699Y-85289354D01*
X139334266Y-85286500D01*
X138325734Y-85286500D01*
X138295301Y-85289354D01*
X138295299Y-85289354D01*
X138295295Y-85289355D01*
X138167118Y-85334206D01*
X138167116Y-85334207D01*
X138057853Y-85414846D01*
X138057846Y-85414853D01*
X137977207Y-85524116D01*
X137977206Y-85524118D01*
X137932355Y-85652295D01*
X137932354Y-85652299D01*
X137932354Y-85652301D01*
X137929500Y-85682734D01*
X137929500Y-86491266D01*
X126786100Y-86491266D01*
X126786100Y-85356781D01*
X132811500Y-85356781D01*
X132814233Y-85397094D01*
X132814233Y-85397097D01*
X132814234Y-85397100D01*
X132857567Y-85571349D01*
X132937347Y-85732210D01*
X133049841Y-85872159D01*
X133189790Y-85984653D01*
X133350651Y-86064433D01*
X133524900Y-86107766D01*
X133565216Y-86110500D01*
X133565219Y-86110500D01*
X135458781Y-86110500D01*
X135458784Y-86110500D01*
X135499100Y-86107766D01*
X135673349Y-86064433D01*
X135834210Y-85984653D01*
X135974159Y-85872159D01*
X136086653Y-85732210D01*
X136166433Y-85571349D01*
X136209766Y-85397100D01*
X136212500Y-85356784D01*
X136212500Y-85207746D01*
X152505500Y-85207746D01*
X152517133Y-85266232D01*
X152532584Y-85289355D01*
X152561448Y-85332552D01*
X152597709Y-85356781D01*
X152627767Y-85376866D01*
X152627768Y-85376866D01*
X152627769Y-85376867D01*
X152686252Y-85388500D01*
X152686254Y-85388500D01*
X154925746Y-85388500D01*
X154925748Y-85388500D01*
X154984231Y-85376867D01*
X155050552Y-85332552D01*
X155094867Y-85266231D01*
X155106500Y-85207748D01*
X155106500Y-83968252D01*
X155094867Y-83909769D01*
X155050552Y-83843448D01*
X155008726Y-83815500D01*
X154984232Y-83799133D01*
X154984233Y-83799133D01*
X154954989Y-83793316D01*
X154925748Y-83787500D01*
X152686252Y-83787500D01*
X152657010Y-83793316D01*
X152627767Y-83799133D01*
X152561449Y-83843447D01*
X152561447Y-83843449D01*
X152517133Y-83909767D01*
X152505500Y-83968253D01*
X152505500Y-85207746D01*
X136212500Y-85207746D01*
X136212500Y-83980808D01*
X136229813Y-83933242D01*
X136234174Y-83928482D01*
X137557361Y-82605295D01*
X138909599Y-81253056D01*
X138911166Y-81251580D01*
X138958183Y-81209929D01*
X138993854Y-81158249D01*
X138995153Y-81156484D01*
X139033878Y-81107056D01*
X139037827Y-81098280D01*
X139058364Y-81071446D01*
X139113878Y-81025887D01*
X139113877Y-81025887D01*
X139113883Y-81025883D01*
X139234162Y-80879324D01*
X139323537Y-80712115D01*
X139378573Y-80530683D01*
X139397157Y-80342000D01*
X139378573Y-80153317D01*
X139323537Y-79971885D01*
X139234162Y-79804676D01*
X139113883Y-79658117D01*
X138967324Y-79537838D01*
X138967323Y-79537837D01*
X138800119Y-79448465D01*
X138800118Y-79448464D01*
X138800115Y-79448463D01*
X138694683Y-79416481D01*
X138618685Y-79393427D01*
X138430000Y-79374843D01*
X138241314Y-79393427D01*
X138149625Y-79421241D01*
X138059885Y-79448463D01*
X138059882Y-79448464D01*
X138059880Y-79448465D01*
X137892676Y-79537837D01*
X137746118Y-79658116D01*
X137746116Y-79658118D01*
X137625837Y-79804676D01*
X137536465Y-79971880D01*
X137536464Y-79971882D01*
X137536463Y-79971885D01*
X137521822Y-80020150D01*
X137481427Y-80153314D01*
X137465241Y-80317654D01*
X137462843Y-80342000D01*
X137481427Y-80530683D01*
X137493722Y-80571215D01*
X137507939Y-80618084D01*
X137505179Y-80668627D01*
X137489451Y-80691890D01*
X134993517Y-83187826D01*
X134947641Y-83209218D01*
X134941191Y-83209500D01*
X133565216Y-83209500D01*
X133555730Y-83210143D01*
X133524905Y-83212233D01*
X133524901Y-83212233D01*
X133524900Y-83212234D01*
X133350651Y-83255567D01*
X133350649Y-83255568D01*
X133189791Y-83335346D01*
X133049841Y-83447841D01*
X132937346Y-83587791D01*
X132893993Y-83675204D01*
X132857567Y-83748651D01*
X132814234Y-83922900D01*
X132814233Y-83922905D01*
X132811500Y-83963219D01*
X132811500Y-85356781D01*
X126786100Y-85356781D01*
X126786100Y-80342000D01*
X127302843Y-80342000D01*
X127321427Y-80530685D01*
X127333722Y-80571215D01*
X127376463Y-80712115D01*
X127376464Y-80712118D01*
X127376465Y-80712119D01*
X127465837Y-80879323D01*
X127492117Y-80911344D01*
X127586117Y-81025883D01*
X127732676Y-81146162D01*
X127899885Y-81235537D01*
X128081317Y-81290573D01*
X128270000Y-81309157D01*
X128458683Y-81290573D01*
X128640115Y-81235537D01*
X128807324Y-81146162D01*
X128953883Y-81025883D01*
X129074162Y-80879324D01*
X129163537Y-80712115D01*
X129218573Y-80530683D01*
X129237157Y-80342000D01*
X129842843Y-80342000D01*
X129861427Y-80530685D01*
X129873722Y-80571215D01*
X129916463Y-80712115D01*
X129916464Y-80712118D01*
X129916465Y-80712119D01*
X130005837Y-80879323D01*
X130032117Y-80911344D01*
X130126117Y-81025883D01*
X130272676Y-81146162D01*
X130439885Y-81235537D01*
X130621317Y-81290573D01*
X130810000Y-81309157D01*
X130998683Y-81290573D01*
X131180115Y-81235537D01*
X131347324Y-81146162D01*
X131493883Y-81025883D01*
X131614162Y-80879324D01*
X131703537Y-80712115D01*
X131758573Y-80530683D01*
X131771994Y-80394414D01*
X131793310Y-80349346D01*
X131968483Y-80174174D01*
X132014360Y-80152782D01*
X132020809Y-80152500D01*
X133646372Y-80152500D01*
X133772872Y-80137140D01*
X133851531Y-80107309D01*
X133877772Y-80102500D01*
X134012489Y-80102500D01*
X134062307Y-80094609D01*
X134112126Y-80086719D01*
X134232220Y-80025528D01*
X134327528Y-79930220D01*
X134388719Y-79810126D01*
X134404500Y-79710488D01*
X134404500Y-79193512D01*
X134388719Y-79093874D01*
X134327528Y-78973780D01*
X134232220Y-78878472D01*
X134232219Y-78878471D01*
X134112126Y-78817281D01*
X134112125Y-78817280D01*
X134012489Y-78801500D01*
X134012488Y-78801500D01*
X133877772Y-78801500D01*
X133851531Y-78796691D01*
X133772871Y-78766859D01*
X133646379Y-78751500D01*
X133646372Y-78751500D01*
X131722287Y-78751500D01*
X131720053Y-78751432D01*
X131674357Y-78748668D01*
X131657394Y-78747642D01*
X131657393Y-78747642D01*
X131657391Y-78747642D01*
X131595631Y-78758959D01*
X131593423Y-78759295D01*
X131531130Y-78766859D01*
X131531125Y-78766860D01*
X131517411Y-78772061D01*
X131504516Y-78775656D01*
X131490068Y-78778304D01*
X131432819Y-78804069D01*
X131430755Y-78804925D01*
X131372067Y-78827182D01*
X131359988Y-78835520D01*
X131348331Y-78842095D01*
X131334946Y-78848120D01*
X131285535Y-78886829D01*
X131283735Y-78888153D01*
X131232072Y-78923815D01*
X131190450Y-78970796D01*
X131188918Y-78972423D01*
X130802654Y-79358687D01*
X130757582Y-79380005D01*
X130621315Y-79393427D01*
X130545317Y-79416481D01*
X130439885Y-79448463D01*
X130439882Y-79448464D01*
X130439880Y-79448465D01*
X130272676Y-79537837D01*
X130126118Y-79658116D01*
X130126116Y-79658118D01*
X130005837Y-79804676D01*
X129916465Y-79971880D01*
X129916464Y-79971882D01*
X129916463Y-79971885D01*
X129901822Y-80020150D01*
X129861427Y-80153314D01*
X129842843Y-80342000D01*
X129237157Y-80342000D01*
X129218573Y-80153317D01*
X129163537Y-79971885D01*
X129074162Y-79804676D01*
X128953883Y-79658117D01*
X128807324Y-79537838D01*
X128807323Y-79537837D01*
X128640119Y-79448465D01*
X128640118Y-79448464D01*
X128640115Y-79448463D01*
X128534683Y-79416481D01*
X128458685Y-79393427D01*
X128270000Y-79374843D01*
X128081314Y-79393427D01*
X127989625Y-79421241D01*
X127899885Y-79448463D01*
X127899882Y-79448464D01*
X127899880Y-79448465D01*
X127732676Y-79537837D01*
X127586118Y-79658116D01*
X127586116Y-79658118D01*
X127465837Y-79804676D01*
X127376465Y-79971880D01*
X127376464Y-79971882D01*
X127376463Y-79971885D01*
X127361822Y-80020150D01*
X127321427Y-80153314D01*
X127302843Y-80342000D01*
X126786100Y-80342000D01*
X126786100Y-77767208D01*
X126803413Y-77719642D01*
X126807763Y-77714893D01*
X128277345Y-76245310D01*
X128322414Y-76223994D01*
X128458683Y-76210573D01*
X128640115Y-76155537D01*
X128807324Y-76066162D01*
X128953883Y-75945883D01*
X129074162Y-75799324D01*
X129163537Y-75632115D01*
X129218573Y-75450683D01*
X129237157Y-75262000D01*
X137462843Y-75262000D01*
X137481427Y-75450685D01*
X137482103Y-75452913D01*
X137536463Y-75632115D01*
X137536464Y-75632118D01*
X137536465Y-75632119D01*
X137588420Y-75729321D01*
X137625838Y-75799324D01*
X137746117Y-75945883D01*
X137892676Y-76066162D01*
X138059885Y-76155537D01*
X138241317Y-76210573D01*
X138430000Y-76229157D01*
X138618683Y-76210573D01*
X138800115Y-76155537D01*
X138967324Y-76066162D01*
X139113883Y-75945883D01*
X139234162Y-75799324D01*
X139323537Y-75632115D01*
X139378573Y-75450683D01*
X139397157Y-75262000D01*
X139378573Y-75073317D01*
X139323537Y-74891885D01*
X139234162Y-74724676D01*
X139113883Y-74578117D01*
X138967324Y-74457838D01*
X138967323Y-74457837D01*
X138800119Y-74368465D01*
X138800118Y-74368464D01*
X138800115Y-74368463D01*
X138697685Y-74337391D01*
X138618685Y-74313427D01*
X138430000Y-74294843D01*
X138241314Y-74313427D01*
X138122812Y-74349374D01*
X138059885Y-74368463D01*
X138059882Y-74368464D01*
X138059880Y-74368465D01*
X137892676Y-74457837D01*
X137746118Y-74578116D01*
X137746116Y-74578118D01*
X137625837Y-74724676D01*
X137536465Y-74891880D01*
X137481427Y-75073314D01*
X137462843Y-75262000D01*
X129237157Y-75262000D01*
X129218573Y-75073317D01*
X129163537Y-74891885D01*
X129074162Y-74724676D01*
X128953883Y-74578117D01*
X128889590Y-74525352D01*
X128807325Y-74457838D01*
X128759616Y-74432337D01*
X128725828Y-74394645D01*
X128720500Y-74367075D01*
X128720500Y-73106083D01*
X128737813Y-73058517D01*
X128781650Y-73033207D01*
X128831500Y-73041997D01*
X128854040Y-73062141D01*
X128927846Y-73162146D01*
X128927853Y-73162153D01*
X129037116Y-73242792D01*
X129037118Y-73242793D01*
X129165295Y-73287644D01*
X129165301Y-73287646D01*
X129195734Y-73290500D01*
X129195741Y-73290500D01*
X130004258Y-73290500D01*
X130004266Y-73290500D01*
X130034699Y-73287646D01*
X130162882Y-73242793D01*
X130272150Y-73162150D01*
X130352793Y-73052882D01*
X130397646Y-72924699D01*
X130400500Y-72894266D01*
X131399500Y-72894266D01*
X131402354Y-72924699D01*
X131402354Y-72924701D01*
X131402355Y-72924704D01*
X131447206Y-73052881D01*
X131447207Y-73052883D01*
X131527846Y-73162146D01*
X131527853Y-73162153D01*
X131637116Y-73242792D01*
X131637118Y-73242793D01*
X131765295Y-73287644D01*
X131765301Y-73287646D01*
X131795734Y-73290500D01*
X132432744Y-73290500D01*
X132480310Y-73307813D01*
X132485070Y-73312174D01*
X133132090Y-73959193D01*
X133134857Y-73962290D01*
X133160122Y-73993971D01*
X133209271Y-74027480D01*
X133257118Y-74062793D01*
X133262022Y-74065385D01*
X133261999Y-74065427D01*
X133267310Y-74068107D01*
X133267330Y-74068066D01*
X133272326Y-74070472D01*
X133329172Y-74088006D01*
X133385300Y-74107646D01*
X133385303Y-74107646D01*
X133390749Y-74108677D01*
X133390740Y-74108723D01*
X133396605Y-74109719D01*
X133396612Y-74109673D01*
X133402097Y-74110499D01*
X133402098Y-74110500D01*
X133461573Y-74110500D01*
X133521005Y-74112724D01*
X133521006Y-74112723D01*
X133521010Y-74112724D01*
X133521013Y-74112723D01*
X133526519Y-74112103D01*
X133526524Y-74112149D01*
X133539052Y-74110500D01*
X141768744Y-74110500D01*
X141816310Y-74127813D01*
X141821070Y-74132174D01*
X144439312Y-76750416D01*
X144460704Y-76796292D01*
X144459649Y-76816746D01*
X144441500Y-76910915D01*
X144441500Y-77468424D01*
X144456472Y-77625220D01*
X144515683Y-77826873D01*
X144515685Y-77826877D01*
X144611986Y-78013678D01*
X144611988Y-78013681D01*
X144611989Y-78013682D01*
X144741908Y-78178886D01*
X144900740Y-78316516D01*
X144900741Y-78316516D01*
X144900744Y-78316519D01*
X145082756Y-78421604D01*
X145281367Y-78490344D01*
X145489398Y-78520254D01*
X145699330Y-78510254D01*
X145903576Y-78460704D01*
X146094753Y-78373396D01*
X146265952Y-78251486D01*
X146410986Y-78099378D01*
X146524613Y-77922572D01*
X146602725Y-77727457D01*
X146642500Y-77521085D01*
X146642500Y-77468424D01*
X146981500Y-77468424D01*
X146996472Y-77625220D01*
X147055683Y-77826873D01*
X147055685Y-77826877D01*
X147151986Y-78013678D01*
X147151988Y-78013681D01*
X147151989Y-78013682D01*
X147281908Y-78178886D01*
X147440740Y-78316516D01*
X147440741Y-78316516D01*
X147440744Y-78316519D01*
X147622756Y-78421604D01*
X147756703Y-78467963D01*
X147795991Y-78499881D01*
X147806500Y-78537893D01*
X147806500Y-82863899D01*
X147789187Y-82911465D01*
X147787198Y-82913486D01*
X147699119Y-83015135D01*
X147645302Y-83132976D01*
X147626867Y-83261200D01*
X147645302Y-83389423D01*
X147645302Y-83389424D01*
X147645303Y-83389426D01*
X147699118Y-83507263D01*
X147783951Y-83605167D01*
X147892931Y-83675204D01*
X148017228Y-83711700D01*
X148146772Y-83711700D01*
X148271069Y-83675204D01*
X148380049Y-83605167D01*
X148464882Y-83507263D01*
X148518697Y-83389426D01*
X148537133Y-83261200D01*
X148518697Y-83132974D01*
X148464882Y-83015137D01*
X148380049Y-82917233D01*
X148380047Y-82917231D01*
X148376583Y-82913234D01*
X148378460Y-82911606D01*
X148358425Y-82875562D01*
X148357500Y-82863899D01*
X148357500Y-78539780D01*
X148374813Y-78492214D01*
X148414054Y-78467866D01*
X148443576Y-78460704D01*
X148634753Y-78373396D01*
X148805952Y-78251486D01*
X148950986Y-78099378D01*
X149064613Y-77922572D01*
X149142725Y-77727457D01*
X149182500Y-77521085D01*
X149182500Y-77468424D01*
X149521500Y-77468424D01*
X149536472Y-77625220D01*
X149595683Y-77826873D01*
X149595685Y-77826877D01*
X149691986Y-78013678D01*
X149691988Y-78013681D01*
X149691989Y-78013682D01*
X149821908Y-78178886D01*
X149980740Y-78316516D01*
X149980741Y-78316516D01*
X149980744Y-78316519D01*
X150162756Y-78421604D01*
X150296703Y-78467963D01*
X150335991Y-78499881D01*
X150346500Y-78537893D01*
X150346500Y-82863899D01*
X150329187Y-82911465D01*
X150327198Y-82913486D01*
X150239119Y-83015135D01*
X150185302Y-83132976D01*
X150166867Y-83261200D01*
X150185302Y-83389423D01*
X150185302Y-83389424D01*
X150185303Y-83389426D01*
X150239118Y-83507263D01*
X150323951Y-83605167D01*
X150432931Y-83675204D01*
X150557228Y-83711700D01*
X150686772Y-83711700D01*
X150811069Y-83675204D01*
X150920049Y-83605167D01*
X151004882Y-83507263D01*
X151058697Y-83389426D01*
X151077133Y-83261200D01*
X151058697Y-83132974D01*
X151004882Y-83015137D01*
X150920049Y-82917233D01*
X150920047Y-82917231D01*
X150916583Y-82913234D01*
X150918460Y-82911606D01*
X150898425Y-82875562D01*
X150897500Y-82863899D01*
X150897500Y-78539780D01*
X150914813Y-78492214D01*
X150954054Y-78467866D01*
X150983576Y-78460704D01*
X151174753Y-78373396D01*
X151345952Y-78251486D01*
X151490986Y-78099378D01*
X151604613Y-77922572D01*
X151682725Y-77727457D01*
X151722500Y-77521085D01*
X151722500Y-77468424D01*
X152061500Y-77468424D01*
X152076472Y-77625220D01*
X152135683Y-77826873D01*
X152135685Y-77826877D01*
X152231986Y-78013678D01*
X152231988Y-78013681D01*
X152231989Y-78013682D01*
X152361908Y-78178886D01*
X152520740Y-78316516D01*
X152520741Y-78316516D01*
X152520744Y-78316519D01*
X152702756Y-78421604D01*
X152901367Y-78490344D01*
X153109398Y-78520254D01*
X153319330Y-78510254D01*
X153523576Y-78460704D01*
X153714753Y-78373396D01*
X153885952Y-78251486D01*
X154030986Y-78099378D01*
X154144613Y-77922572D01*
X154222725Y-77727457D01*
X154262500Y-77521085D01*
X154262500Y-77468424D01*
X154601500Y-77468424D01*
X154616472Y-77625220D01*
X154675683Y-77826873D01*
X154675685Y-77826877D01*
X154771986Y-78013678D01*
X154771988Y-78013681D01*
X154771989Y-78013682D01*
X154901908Y-78178886D01*
X155060740Y-78316516D01*
X155060741Y-78316516D01*
X155060744Y-78316519D01*
X155242756Y-78421604D01*
X155441367Y-78490344D01*
X155649398Y-78520254D01*
X155859330Y-78510254D01*
X156063576Y-78460704D01*
X156254753Y-78373396D01*
X156425952Y-78251486D01*
X156570986Y-78099378D01*
X156684613Y-77922572D01*
X156762725Y-77727457D01*
X156802500Y-77521085D01*
X156802500Y-76963575D01*
X156787528Y-76806782D01*
X156728316Y-76605125D01*
X156632011Y-76418318D01*
X156502092Y-76253114D01*
X156493087Y-76245311D01*
X156343259Y-76115483D01*
X156257833Y-76066162D01*
X156161244Y-76010396D01*
X156161240Y-76010394D01*
X156161239Y-76010394D01*
X155962636Y-75941657D01*
X155962633Y-75941656D01*
X155754602Y-75911746D01*
X155754598Y-75911746D01*
X155754596Y-75911746D01*
X155544668Y-75921746D01*
X155340427Y-75971295D01*
X155340425Y-75971295D01*
X155340424Y-75971296D01*
X155149247Y-76058604D01*
X155149245Y-76058605D01*
X154978047Y-76180514D01*
X154833014Y-76332620D01*
X154719385Y-76509431D01*
X154641274Y-76704544D01*
X154601500Y-76910916D01*
X154601500Y-77468424D01*
X154262500Y-77468424D01*
X154262500Y-76963575D01*
X154247528Y-76806782D01*
X154188316Y-76605125D01*
X154092011Y-76418318D01*
X153962092Y-76253114D01*
X153953087Y-76245311D01*
X153803259Y-76115483D01*
X153717833Y-76066162D01*
X153621244Y-76010396D01*
X153621240Y-76010394D01*
X153621239Y-76010394D01*
X153422636Y-75941657D01*
X153422633Y-75941656D01*
X153214602Y-75911746D01*
X153214598Y-75911746D01*
X153214596Y-75911746D01*
X153004668Y-75921746D01*
X152800427Y-75971295D01*
X152800425Y-75971295D01*
X152800424Y-75971296D01*
X152609247Y-76058604D01*
X152609245Y-76058605D01*
X152438047Y-76180514D01*
X152293014Y-76332620D01*
X152179385Y-76509431D01*
X152101274Y-76704544D01*
X152061500Y-76910916D01*
X152061500Y-77468424D01*
X151722500Y-77468424D01*
X151722500Y-76963575D01*
X151707528Y-76806782D01*
X151648316Y-76605125D01*
X151552011Y-76418318D01*
X151422092Y-76253114D01*
X151413087Y-76245311D01*
X151263259Y-76115483D01*
X151177833Y-76066162D01*
X151081244Y-76010396D01*
X151081240Y-76010394D01*
X151081239Y-76010394D01*
X150882636Y-75941657D01*
X150882633Y-75941656D01*
X150674602Y-75911746D01*
X150674598Y-75911746D01*
X150674596Y-75911746D01*
X150464668Y-75921746D01*
X150260427Y-75971295D01*
X150260425Y-75971295D01*
X150260424Y-75971296D01*
X150069247Y-76058604D01*
X150069245Y-76058605D01*
X149898047Y-76180514D01*
X149753014Y-76332620D01*
X149639385Y-76509431D01*
X149561274Y-76704544D01*
X149521500Y-76910916D01*
X149521500Y-77468424D01*
X149182500Y-77468424D01*
X149182500Y-76963575D01*
X149167528Y-76806782D01*
X149108316Y-76605125D01*
X149012011Y-76418318D01*
X148882092Y-76253114D01*
X148873087Y-76245311D01*
X148723259Y-76115483D01*
X148637833Y-76066162D01*
X148541244Y-76010396D01*
X148541240Y-76010394D01*
X148541239Y-76010394D01*
X148342636Y-75941657D01*
X148342633Y-75941656D01*
X148134602Y-75911746D01*
X148134598Y-75911746D01*
X148134596Y-75911746D01*
X147924668Y-75921746D01*
X147720427Y-75971295D01*
X147720425Y-75971295D01*
X147720424Y-75971296D01*
X147529247Y-76058604D01*
X147529245Y-76058605D01*
X147358047Y-76180514D01*
X147213014Y-76332620D01*
X147099385Y-76509431D01*
X147021274Y-76704544D01*
X146981500Y-76910916D01*
X146981500Y-77468424D01*
X146642500Y-77468424D01*
X146642500Y-76963575D01*
X146627528Y-76806782D01*
X146568316Y-76605125D01*
X146472011Y-76418318D01*
X146342092Y-76253114D01*
X146333087Y-76245311D01*
X146183259Y-76115483D01*
X146097833Y-76066162D01*
X146001244Y-76010396D01*
X146001240Y-76010394D01*
X146001239Y-76010394D01*
X145802636Y-75941657D01*
X145802633Y-75941656D01*
X145594602Y-75911746D01*
X145594598Y-75911746D01*
X145594596Y-75911746D01*
X145384668Y-75921746D01*
X145180425Y-75971295D01*
X145058265Y-76027083D01*
X145007805Y-76031094D01*
X144975199Y-76012096D01*
X142323912Y-73360809D01*
X142321145Y-73357712D01*
X142295877Y-73326028D01*
X142246728Y-73292519D01*
X142198882Y-73257207D01*
X142193981Y-73254617D01*
X142194002Y-73254575D01*
X142188687Y-73251892D01*
X142188668Y-73251933D01*
X142183673Y-73249527D01*
X142126822Y-73231992D01*
X142070699Y-73212354D01*
X142070697Y-73212353D01*
X142070695Y-73212353D01*
X142065251Y-73211323D01*
X142065259Y-73211278D01*
X142059391Y-73210281D01*
X142059385Y-73210326D01*
X142053903Y-73209500D01*
X142053902Y-73209500D01*
X141994426Y-73209500D01*
X141934994Y-73207275D01*
X141929481Y-73207897D01*
X141929475Y-73207850D01*
X141916948Y-73209500D01*
X134983790Y-73209500D01*
X134936224Y-73192187D01*
X134910914Y-73148350D01*
X134919704Y-73098500D01*
X134924249Y-73091558D01*
X134930856Y-73082606D01*
X134952793Y-73052882D01*
X134997646Y-72924699D01*
X135000500Y-72894266D01*
X135000500Y-71885734D01*
X134997646Y-71855301D01*
X134952793Y-71727118D01*
X134918388Y-71680500D01*
X134872153Y-71617853D01*
X134872146Y-71617846D01*
X134762883Y-71537207D01*
X134762881Y-71537206D01*
X134634704Y-71492355D01*
X134634705Y-71492355D01*
X134634700Y-71492354D01*
X134634699Y-71492354D01*
X134604266Y-71489500D01*
X133795734Y-71489500D01*
X133765301Y-71492354D01*
X133765299Y-71492354D01*
X133765295Y-71492355D01*
X133637118Y-71537206D01*
X133637116Y-71537207D01*
X133527853Y-71617846D01*
X133527846Y-71617853D01*
X133447207Y-71727116D01*
X133447206Y-71727118D01*
X133402355Y-71855295D01*
X133402354Y-71855299D01*
X133402354Y-71855301D01*
X133399500Y-71885734D01*
X133399500Y-71885740D01*
X133399500Y-72773745D01*
X133382187Y-72821311D01*
X133338350Y-72846621D01*
X133288500Y-72837831D01*
X133273174Y-72826071D01*
X133022174Y-72575071D01*
X133000782Y-72529195D01*
X133000500Y-72522745D01*
X133000500Y-71885740D01*
X133000500Y-71885734D01*
X132997646Y-71855301D01*
X132952793Y-71727118D01*
X132918388Y-71680500D01*
X132872153Y-71617853D01*
X132872146Y-71617846D01*
X132762883Y-71537207D01*
X132762881Y-71537206D01*
X132634704Y-71492355D01*
X132634705Y-71492355D01*
X132634700Y-71492354D01*
X132634699Y-71492354D01*
X132604266Y-71489500D01*
X131795734Y-71489500D01*
X131765301Y-71492354D01*
X131765299Y-71492354D01*
X131765295Y-71492355D01*
X131637118Y-71537206D01*
X131637116Y-71537207D01*
X131527853Y-71617846D01*
X131527846Y-71617853D01*
X131447207Y-71727116D01*
X131447206Y-71727118D01*
X131402355Y-71855295D01*
X131402354Y-71855299D01*
X131402354Y-71855301D01*
X131399500Y-71885734D01*
X131399500Y-72894266D01*
X130400500Y-72894266D01*
X130400500Y-71885734D01*
X130397646Y-71855301D01*
X130352793Y-71727118D01*
X130318388Y-71680500D01*
X130272153Y-71617853D01*
X130272146Y-71617846D01*
X130162883Y-71537207D01*
X130162881Y-71537206D01*
X130034704Y-71492355D01*
X130034705Y-71492355D01*
X130034700Y-71492354D01*
X130034699Y-71492354D01*
X130004266Y-71489500D01*
X129195734Y-71489500D01*
X129165301Y-71492354D01*
X129165299Y-71492354D01*
X129165295Y-71492355D01*
X129037118Y-71537206D01*
X129037116Y-71537207D01*
X128927853Y-71617846D01*
X128927846Y-71617853D01*
X128847207Y-71727116D01*
X128847206Y-71727118D01*
X128802355Y-71855295D01*
X128802354Y-71855299D01*
X128802354Y-71855301D01*
X128799500Y-71885734D01*
X128799500Y-71885740D01*
X128799500Y-72797007D01*
X128782187Y-72844573D01*
X128738350Y-72869883D01*
X128688500Y-72861093D01*
X128658829Y-72829116D01*
X128646425Y-72803358D01*
X128646421Y-72803354D01*
X128646420Y-72803351D01*
X128643300Y-72798773D01*
X128643337Y-72798747D01*
X128639893Y-72793893D01*
X128639856Y-72793921D01*
X128636567Y-72789465D01*
X128636566Y-72789462D01*
X128594504Y-72747400D01*
X128554055Y-72703806D01*
X128554054Y-72703805D01*
X128549720Y-72700349D01*
X128549748Y-72700313D01*
X128539725Y-72692621D01*
X128422174Y-72575070D01*
X128400782Y-72529194D01*
X128400500Y-72522744D01*
X128400500Y-71885740D01*
X128400500Y-71885734D01*
X128397646Y-71855301D01*
X128352793Y-71727118D01*
X128318388Y-71680500D01*
X128272153Y-71617853D01*
X128272146Y-71617846D01*
X128162883Y-71537207D01*
X128162881Y-71537206D01*
X128034704Y-71492355D01*
X128034705Y-71492355D01*
X128034700Y-71492354D01*
X128034699Y-71492354D01*
X128004266Y-71489500D01*
X127195734Y-71489500D01*
X127165301Y-71492354D01*
X127165299Y-71492354D01*
X127165295Y-71492355D01*
X127037118Y-71537206D01*
X127037116Y-71537207D01*
X126927853Y-71617846D01*
X126927846Y-71617853D01*
X126847207Y-71727116D01*
X126847206Y-71727118D01*
X126802355Y-71855295D01*
X126802354Y-71855299D01*
X126802354Y-71855301D01*
X126799500Y-71885734D01*
X126799500Y-72894266D01*
X126802354Y-72924699D01*
X126802354Y-72924701D01*
X126802355Y-72924704D01*
X126847206Y-73052881D01*
X126847207Y-73052883D01*
X126927846Y-73162146D01*
X126927853Y-73162153D01*
X127037116Y-73242792D01*
X127037118Y-73242793D01*
X127165295Y-73287644D01*
X127165301Y-73287646D01*
X127195734Y-73290500D01*
X127745500Y-73290500D01*
X127793066Y-73307813D01*
X127818376Y-73351650D01*
X127819500Y-73364500D01*
X127819500Y-74367075D01*
X127802187Y-74414641D01*
X127780384Y-74432337D01*
X127732674Y-74457838D01*
X127586118Y-74578116D01*
X127586116Y-74578118D01*
X127465837Y-74724676D01*
X127376465Y-74891880D01*
X127321427Y-75073315D01*
X127308005Y-75209582D01*
X127286687Y-75254654D01*
X125606023Y-76935318D01*
X125604396Y-76936850D01*
X125557415Y-76978472D01*
X125521753Y-77030135D01*
X125520429Y-77031935D01*
X125481720Y-77081346D01*
X125475695Y-77094731D01*
X125469120Y-77106388D01*
X125460782Y-77118467D01*
X125438525Y-77177155D01*
X125437669Y-77179219D01*
X125411904Y-77236468D01*
X125409256Y-77250916D01*
X125405661Y-77263811D01*
X125400460Y-77277525D01*
X125400459Y-77277530D01*
X125392895Y-77339823D01*
X125392559Y-77342031D01*
X125381242Y-77403791D01*
X125385032Y-77466452D01*
X125385100Y-77468686D01*
X125385100Y-95589591D01*
X125367787Y-95637157D01*
X125363426Y-95641917D01*
X122362717Y-98642626D01*
X122316841Y-98664018D01*
X122310391Y-98664300D01*
X117284703Y-98664300D01*
X117237137Y-98646987D01*
X117211827Y-98603150D01*
X117220617Y-98553300D01*
X117244693Y-98528048D01*
X117265049Y-98514967D01*
X117349882Y-98417063D01*
X117403697Y-98299226D01*
X117422133Y-98171000D01*
X117403697Y-98042774D01*
X117349882Y-97924937D01*
X117265049Y-97827033D01*
X117195074Y-97782063D01*
X117156068Y-97756995D01*
X117031772Y-97720500D01*
X116936768Y-97720500D01*
X116889202Y-97703187D01*
X116884442Y-97698826D01*
X116246345Y-97060729D01*
X116237142Y-97049514D01*
X116225826Y-97032578D01*
X116225824Y-97032576D01*
X116205844Y-97019225D01*
X116205841Y-97019223D01*
X116154826Y-96985136D01*
X116134696Y-96971685D01*
X116134697Y-96971685D01*
X116094514Y-96963692D01*
X116054333Y-96955700D01*
X116054332Y-96955700D01*
X116054330Y-96955699D01*
X116027201Y-96950303D01*
X116027200Y-96950303D01*
X116007217Y-96954278D01*
X115992780Y-96955700D01*
X115428500Y-96955700D01*
X115380934Y-96938387D01*
X115355624Y-96894550D01*
X115354500Y-96881700D01*
X115354500Y-96726940D01*
X115354500Y-96726934D01*
X115351646Y-96696501D01*
X115311889Y-96582883D01*
X115306793Y-96568318D01*
X115306792Y-96568316D01*
X115226153Y-96459053D01*
X115226146Y-96459046D01*
X115116883Y-96378407D01*
X115116881Y-96378406D01*
X114988704Y-96333555D01*
X114988705Y-96333555D01*
X114988700Y-96333554D01*
X114988699Y-96333554D01*
X114958266Y-96330700D01*
X114149734Y-96330700D01*
X114119301Y-96333554D01*
X114119299Y-96333554D01*
X114119295Y-96333555D01*
X113991118Y-96378406D01*
X113991116Y-96378407D01*
X113881853Y-96459046D01*
X113881846Y-96459053D01*
X113801207Y-96568316D01*
X113801206Y-96568318D01*
X113756355Y-96696495D01*
X113756354Y-96696499D01*
X113756354Y-96696501D01*
X113753500Y-96726934D01*
X113753500Y-97735466D01*
X113756354Y-97765899D01*
X113756354Y-97765901D01*
X113756355Y-97765904D01*
X113801206Y-97894081D01*
X113801207Y-97894083D01*
X113881846Y-98003346D01*
X113881853Y-98003353D01*
X113991116Y-98083992D01*
X113991118Y-98083993D01*
X114119295Y-98128844D01*
X114119301Y-98128846D01*
X114149734Y-98131700D01*
X114149741Y-98131700D01*
X114958258Y-98131700D01*
X114958266Y-98131700D01*
X114988699Y-98128846D01*
X115116882Y-98083993D01*
X115226150Y-98003350D01*
X115306793Y-97894082D01*
X115351646Y-97765899D01*
X115354500Y-97735466D01*
X115354500Y-97580700D01*
X115371813Y-97533134D01*
X115415650Y-97507824D01*
X115428500Y-97506700D01*
X115882432Y-97506700D01*
X115929998Y-97524013D01*
X115934758Y-97528374D01*
X116493910Y-98087526D01*
X116515302Y-98133402D01*
X116514830Y-98150382D01*
X116511867Y-98171000D01*
X116514381Y-98188482D01*
X116530302Y-98299223D01*
X116530302Y-98299224D01*
X116530303Y-98299226D01*
X116584118Y-98417063D01*
X116668951Y-98514967D01*
X116689306Y-98528048D01*
X116719960Y-98568328D01*
X116717551Y-98618890D01*
X116683205Y-98656074D01*
X116649297Y-98664300D01*
X114867220Y-98664300D01*
X114740728Y-98679659D01*
X114581670Y-98739981D01*
X114441671Y-98836616D01*
X114328869Y-98963943D01*
X114328867Y-98963946D01*
X114249809Y-99114577D01*
X114209100Y-99279741D01*
X114209100Y-99449858D01*
X114249809Y-99615022D01*
X114249810Y-99615025D01*
X114328866Y-99765652D01*
X114328867Y-99765654D01*
X114329632Y-99767110D01*
X114336407Y-99817274D01*
X114309353Y-99860056D01*
X114264108Y-99875500D01*
X112185339Y-99875500D01*
X112185326Y-99875501D01*
X112113956Y-99881986D01*
X112113955Y-99881986D01*
X112113952Y-99881986D01*
X112113951Y-99881987D01*
X112105155Y-99884728D01*
X111949686Y-99933173D01*
X111802444Y-100022184D01*
X111680784Y-100143844D01*
X111591773Y-100291086D01*
X111540586Y-100455355D01*
X111540586Y-100455356D01*
X111534100Y-100526727D01*
X111534100Y-101657260D01*
X111534101Y-101657273D01*
X111540586Y-101728643D01*
X111540586Y-101728644D01*
X111540586Y-101728646D01*
X111540587Y-101728649D01*
X111591773Y-101892913D01*
X111680784Y-102040155D01*
X111802445Y-102161816D01*
X111949687Y-102250827D01*
X111949689Y-102250828D01*
X112079733Y-102291351D01*
X112119995Y-102322030D01*
X112131117Y-102371412D01*
X112107895Y-102416390D01*
X112079733Y-102432649D01*
X111949689Y-102473171D01*
X111802444Y-102562184D01*
X111680784Y-102683844D01*
X111591773Y-102831086D01*
X111574323Y-102887086D01*
X111542255Y-102990000D01*
X111540586Y-102995355D01*
X111540586Y-102995356D01*
X111534100Y-103066727D01*
X111534100Y-104197260D01*
X111534101Y-104197265D01*
X111540586Y-104268643D01*
X111540586Y-104268644D01*
X111540586Y-104268646D01*
X111540587Y-104268649D01*
X111591773Y-104432913D01*
X111680784Y-104580155D01*
X111802445Y-104701816D01*
X111949687Y-104790827D01*
X112113951Y-104842013D01*
X112185335Y-104848500D01*
X114269944Y-104848499D01*
X114317510Y-104865812D01*
X114342820Y-104909649D01*
X114334030Y-104959499D01*
X114330845Y-104964536D01*
X114284781Y-105031270D01*
X114224459Y-105190328D01*
X114209100Y-105316820D01*
X114209100Y-107306579D01*
X114224459Y-107433071D01*
X114284781Y-107592129D01*
X114381416Y-107732128D01*
X114494090Y-107831949D01*
X114508748Y-107844934D01*
X114554938Y-107869177D01*
X114589009Y-107906610D01*
X114591047Y-107957188D01*
X114560097Y-107997243D01*
X114520547Y-108008699D01*
X112185339Y-108008699D01*
X112185326Y-108008700D01*
X112113956Y-108015185D01*
X112113955Y-108015185D01*
X112113952Y-108015185D01*
X112113951Y-108015186D01*
X112089693Y-108022745D01*
X111949686Y-108066372D01*
X111802444Y-108155383D01*
X111680784Y-108277043D01*
X111591773Y-108424285D01*
X111586125Y-108442410D01*
X111545220Y-108573684D01*
X111540586Y-108588554D01*
X111540586Y-108588555D01*
X111534100Y-108659926D01*
X111534100Y-109790459D01*
X111534101Y-109790472D01*
X111540586Y-109861842D01*
X111540586Y-109861843D01*
X111540586Y-109861845D01*
X111540587Y-109861848D01*
X111591773Y-110026112D01*
X111680784Y-110173354D01*
X111802445Y-110295015D01*
X111949687Y-110384026D01*
X111949689Y-110384027D01*
X112079733Y-110424550D01*
X112119995Y-110455229D01*
X112131117Y-110504611D01*
X112107895Y-110549589D01*
X112079733Y-110565848D01*
X111949689Y-110606370D01*
X111802444Y-110695383D01*
X111680784Y-110817043D01*
X111591773Y-110964285D01*
X111578414Y-111007158D01*
X111545220Y-111113684D01*
X111540586Y-111128554D01*
X111540586Y-111128555D01*
X111534100Y-111199926D01*
X111534100Y-112330459D01*
X111000500Y-112330459D01*
X111000500Y-97735466D01*
X111753500Y-97735466D01*
X111756354Y-97765899D01*
X111756354Y-97765901D01*
X111756355Y-97765904D01*
X111801206Y-97894081D01*
X111801207Y-97894083D01*
X111881846Y-98003346D01*
X111881853Y-98003353D01*
X111991116Y-98083992D01*
X111991118Y-98083993D01*
X112119295Y-98128844D01*
X112119301Y-98128846D01*
X112149734Y-98131700D01*
X112149741Y-98131700D01*
X112958258Y-98131700D01*
X112958266Y-98131700D01*
X112988699Y-98128846D01*
X113116882Y-98083993D01*
X113226150Y-98003350D01*
X113306793Y-97894082D01*
X113351646Y-97765899D01*
X113354500Y-97735466D01*
X113354500Y-96726934D01*
X113351646Y-96696501D01*
X113311889Y-96582883D01*
X113306793Y-96568318D01*
X113306792Y-96568316D01*
X113226153Y-96459053D01*
X113226146Y-96459046D01*
X113116883Y-96378407D01*
X113116881Y-96378406D01*
X112988704Y-96333555D01*
X112988705Y-96333555D01*
X112988700Y-96333554D01*
X112988699Y-96333554D01*
X112958266Y-96330700D01*
X112149734Y-96330700D01*
X112119301Y-96333554D01*
X112119299Y-96333554D01*
X112119295Y-96333555D01*
X111991118Y-96378406D01*
X111991116Y-96378407D01*
X111881853Y-96459046D01*
X111881846Y-96459053D01*
X111801207Y-96568316D01*
X111801206Y-96568318D01*
X111756355Y-96696495D01*
X111756354Y-96696499D01*
X111756354Y-96696501D01*
X111753500Y-96726934D01*
X111753500Y-97735466D01*
X111000500Y-97735466D01*
X111000500Y-95551066D01*
X111753500Y-95551066D01*
X111756354Y-95581499D01*
X111756354Y-95581501D01*
X111756355Y-95581504D01*
X111801206Y-95709681D01*
X111801207Y-95709683D01*
X111881846Y-95818946D01*
X111881853Y-95818953D01*
X111991116Y-95899592D01*
X111991118Y-95899593D01*
X112119295Y-95944444D01*
X112119301Y-95944446D01*
X112149734Y-95947300D01*
X112149741Y-95947300D01*
X112958258Y-95947300D01*
X112958266Y-95947300D01*
X112988699Y-95944446D01*
X113116882Y-95899593D01*
X113226150Y-95818950D01*
X113306793Y-95709682D01*
X113351646Y-95581499D01*
X113354500Y-95551066D01*
X113753500Y-95551066D01*
X113756354Y-95581499D01*
X113756354Y-95581501D01*
X113756355Y-95581504D01*
X113801206Y-95709681D01*
X113801207Y-95709683D01*
X113881846Y-95818946D01*
X113881853Y-95818953D01*
X113991116Y-95899592D01*
X113991118Y-95899593D01*
X114119295Y-95944444D01*
X114119301Y-95944446D01*
X114149734Y-95947300D01*
X114149741Y-95947300D01*
X114958258Y-95947300D01*
X114958266Y-95947300D01*
X114988699Y-95944446D01*
X115116882Y-95899593D01*
X115226150Y-95818950D01*
X115306793Y-95709682D01*
X115351646Y-95581499D01*
X115354500Y-95551066D01*
X115354500Y-95396300D01*
X115371813Y-95348734D01*
X115415650Y-95323424D01*
X115428500Y-95322300D01*
X117508032Y-95322300D01*
X117555598Y-95339613D01*
X117560358Y-95343974D01*
X119160910Y-96944526D01*
X119182302Y-96990402D01*
X119181831Y-97007382D01*
X119178867Y-97027999D01*
X119197302Y-97156223D01*
X119197302Y-97156224D01*
X119197303Y-97156226D01*
X119251118Y-97274063D01*
X119335951Y-97371967D01*
X119444931Y-97442004D01*
X119569228Y-97478500D01*
X119698772Y-97478500D01*
X119823069Y-97442004D01*
X119932049Y-97371967D01*
X120016882Y-97274063D01*
X120070697Y-97156226D01*
X120089133Y-97028000D01*
X120070697Y-96899774D01*
X120016882Y-96781937D01*
X119932049Y-96684033D01*
X119834901Y-96621600D01*
X119823068Y-96613995D01*
X119698772Y-96577500D01*
X119603768Y-96577500D01*
X119556202Y-96560187D01*
X119551442Y-96555826D01*
X117871945Y-94876329D01*
X117862742Y-94865114D01*
X117851426Y-94848178D01*
X117851424Y-94848176D01*
X117831444Y-94834825D01*
X117831441Y-94834823D01*
X117780426Y-94800736D01*
X117760296Y-94787285D01*
X117760297Y-94787285D01*
X117720114Y-94779292D01*
X117679933Y-94771300D01*
X117679932Y-94771300D01*
X117679930Y-94771299D01*
X117652801Y-94765903D01*
X117652800Y-94765903D01*
X117634783Y-94769487D01*
X117632817Y-94769878D01*
X117618380Y-94771300D01*
X115428500Y-94771300D01*
X115380934Y-94753987D01*
X115355624Y-94710150D01*
X115354500Y-94697300D01*
X115354500Y-94542540D01*
X115354500Y-94542534D01*
X115351646Y-94512101D01*
X115306793Y-94383918D01*
X115304275Y-94380506D01*
X115226153Y-94274653D01*
X115226146Y-94274646D01*
X115116883Y-94194007D01*
X115116881Y-94194006D01*
X114988704Y-94149155D01*
X114988705Y-94149155D01*
X114988700Y-94149154D01*
X114988699Y-94149154D01*
X114958266Y-94146300D01*
X114149734Y-94146300D01*
X114119301Y-94149154D01*
X114119299Y-94149154D01*
X114119295Y-94149155D01*
X113991118Y-94194006D01*
X113991116Y-94194007D01*
X113881853Y-94274646D01*
X113881846Y-94274653D01*
X113801207Y-94383916D01*
X113801206Y-94383918D01*
X113756355Y-94512095D01*
X113756354Y-94512099D01*
X113756354Y-94512101D01*
X113753500Y-94542534D01*
X113753500Y-95551066D01*
X113354500Y-95551066D01*
X113354500Y-94542534D01*
X113351646Y-94512101D01*
X113306793Y-94383918D01*
X113304275Y-94380506D01*
X113226153Y-94274653D01*
X113226146Y-94274646D01*
X113116883Y-94194007D01*
X113116881Y-94194006D01*
X112988704Y-94149155D01*
X112988705Y-94149155D01*
X112988700Y-94149154D01*
X112988699Y-94149154D01*
X112958266Y-94146300D01*
X112149734Y-94146300D01*
X112119301Y-94149154D01*
X112119299Y-94149154D01*
X112119295Y-94149155D01*
X111991118Y-94194006D01*
X111991116Y-94194007D01*
X111881853Y-94274646D01*
X111881846Y-94274653D01*
X111801207Y-94383916D01*
X111801206Y-94383918D01*
X111756355Y-94512095D01*
X111756354Y-94512099D01*
X111756354Y-94512101D01*
X111753500Y-94542534D01*
X111753500Y-95551066D01*
X111000500Y-95551066D01*
X111000500Y-93366666D01*
X111753500Y-93366666D01*
X111756354Y-93397099D01*
X111756354Y-93397101D01*
X111756355Y-93397104D01*
X111801206Y-93525281D01*
X111801207Y-93525283D01*
X111881846Y-93634546D01*
X111881853Y-93634553D01*
X111991116Y-93715192D01*
X111991118Y-93715193D01*
X112119295Y-93760044D01*
X112119301Y-93760046D01*
X112149734Y-93762900D01*
X112149741Y-93762900D01*
X112958258Y-93762900D01*
X112958266Y-93762900D01*
X112988699Y-93760046D01*
X113116882Y-93715193D01*
X113226150Y-93634550D01*
X113306793Y-93525282D01*
X113351646Y-93397099D01*
X113354500Y-93366666D01*
X113753500Y-93366666D01*
X113756354Y-93397099D01*
X113756354Y-93397101D01*
X113756355Y-93397104D01*
X113801206Y-93525281D01*
X113801207Y-93525283D01*
X113881846Y-93634546D01*
X113881853Y-93634553D01*
X113991116Y-93715192D01*
X113991118Y-93715193D01*
X114119295Y-93760044D01*
X114119301Y-93760046D01*
X114149734Y-93762900D01*
X114149741Y-93762900D01*
X114958258Y-93762900D01*
X114958266Y-93762900D01*
X114988699Y-93760046D01*
X115116882Y-93715193D01*
X115226150Y-93634550D01*
X115306793Y-93525282D01*
X115351646Y-93397099D01*
X115354500Y-93366666D01*
X115354500Y-93211900D01*
X115371813Y-93164334D01*
X115415650Y-93139024D01*
X115428500Y-93137900D01*
X119667032Y-93137900D01*
X119714598Y-93155213D01*
X119719358Y-93159574D01*
X121713610Y-95153826D01*
X121735002Y-95199702D01*
X121734531Y-95216682D01*
X121731567Y-95237299D01*
X121750002Y-95365523D01*
X121750002Y-95365524D01*
X121750003Y-95365526D01*
X121803818Y-95483363D01*
X121888651Y-95581267D01*
X121975618Y-95637157D01*
X121997633Y-95651305D01*
X122001906Y-95653257D01*
X122037980Y-95688767D01*
X122042789Y-95739157D01*
X122023488Y-95772894D01*
X121748558Y-96047826D01*
X121702682Y-96069218D01*
X121696232Y-96069500D01*
X121601228Y-96069500D01*
X121476931Y-96105995D01*
X121367954Y-96176031D01*
X121367950Y-96176034D01*
X121283119Y-96273935D01*
X121229302Y-96391776D01*
X121210867Y-96520000D01*
X121229302Y-96648223D01*
X121229302Y-96648224D01*
X121229303Y-96648226D01*
X121283118Y-96766063D01*
X121367951Y-96863967D01*
X121476931Y-96934004D01*
X121601228Y-96970500D01*
X121730772Y-96970500D01*
X121855069Y-96934004D01*
X121964049Y-96863967D01*
X122048882Y-96766063D01*
X122102697Y-96648226D01*
X122121133Y-96520000D01*
X122118168Y-96499381D01*
X122128535Y-96449837D01*
X122139085Y-96436529D01*
X123106473Y-95469141D01*
X123117676Y-95459947D01*
X123134624Y-95448624D01*
X123195515Y-95357495D01*
X123211500Y-95277133D01*
X123211500Y-95277132D01*
X123216897Y-95250000D01*
X123212922Y-95230015D01*
X123211500Y-95215579D01*
X123211500Y-94522420D01*
X123212922Y-94507983D01*
X123213727Y-94503939D01*
X123216897Y-94488000D01*
X123214416Y-94475529D01*
X123195516Y-94380506D01*
X123184564Y-94364116D01*
X123149994Y-94312378D01*
X123149993Y-94312377D01*
X123147974Y-94309355D01*
X123134624Y-94289376D01*
X123134623Y-94289375D01*
X123117683Y-94278056D01*
X123106470Y-94268854D01*
X119383145Y-90545529D01*
X119373942Y-90534314D01*
X119362626Y-90517378D01*
X119362624Y-90517376D01*
X119354858Y-90512187D01*
X119342644Y-90504026D01*
X119342639Y-90504021D01*
X119313465Y-90484528D01*
X119271495Y-90456485D01*
X119191133Y-90440500D01*
X119191132Y-90440500D01*
X119191130Y-90440499D01*
X119164001Y-90435103D01*
X119164000Y-90435103D01*
X119144017Y-90439078D01*
X119129580Y-90440500D01*
X115428500Y-90440500D01*
X115380934Y-90423187D01*
X115355624Y-90379350D01*
X115354500Y-90366500D01*
X115354500Y-90211740D01*
X115354500Y-90211734D01*
X115351646Y-90181301D01*
X115306793Y-90053118D01*
X115306792Y-90053116D01*
X115226153Y-89943853D01*
X115226146Y-89943846D01*
X115116883Y-89863207D01*
X115116881Y-89863206D01*
X114988704Y-89818355D01*
X114988705Y-89818355D01*
X114988700Y-89818354D01*
X114988699Y-89818354D01*
X114958266Y-89815500D01*
X114149734Y-89815500D01*
X114119301Y-89818354D01*
X114119299Y-89818354D01*
X114119295Y-89818355D01*
X113991118Y-89863206D01*
X113991116Y-89863207D01*
X113881853Y-89943846D01*
X113881846Y-89943853D01*
X113801207Y-90053116D01*
X113801206Y-90053118D01*
X113756355Y-90181295D01*
X113756354Y-90181299D01*
X113756354Y-90181301D01*
X113753500Y-90211734D01*
X113753500Y-91220266D01*
X113756354Y-91250699D01*
X113756354Y-91250701D01*
X113756355Y-91250704D01*
X113801206Y-91378881D01*
X113801207Y-91378883D01*
X113881846Y-91488146D01*
X113881853Y-91488153D01*
X113991116Y-91568792D01*
X113991118Y-91568793D01*
X114119295Y-91613644D01*
X114119301Y-91613646D01*
X114149734Y-91616500D01*
X114149741Y-91616500D01*
X114958258Y-91616500D01*
X114958266Y-91616500D01*
X114988699Y-91613646D01*
X115116882Y-91568793D01*
X115226150Y-91488150D01*
X115306793Y-91378882D01*
X115351646Y-91250699D01*
X115354500Y-91220266D01*
X115354500Y-91065500D01*
X115371813Y-91017934D01*
X115415650Y-90992624D01*
X115428500Y-90991500D01*
X119019232Y-90991500D01*
X119066798Y-91008813D01*
X119071558Y-91013174D01*
X122638826Y-94580442D01*
X122660218Y-94626318D01*
X122660500Y-94632768D01*
X122660500Y-94897759D01*
X122643187Y-94945325D01*
X122599350Y-94970635D01*
X122549500Y-94961845D01*
X122530574Y-94946219D01*
X122484749Y-94893333D01*
X122393715Y-94834829D01*
X122375768Y-94823295D01*
X122251472Y-94786800D01*
X122156468Y-94786800D01*
X122108902Y-94769487D01*
X122104142Y-94765126D01*
X120030945Y-92691929D01*
X120021742Y-92680714D01*
X120010426Y-92663778D01*
X120010424Y-92663776D01*
X119990444Y-92650425D01*
X119990441Y-92650423D01*
X119957500Y-92628413D01*
X119919295Y-92602885D01*
X119893223Y-92597699D01*
X119838933Y-92586900D01*
X119838932Y-92586900D01*
X119838930Y-92586899D01*
X119811801Y-92581503D01*
X119811800Y-92581503D01*
X119791817Y-92585478D01*
X119777380Y-92586900D01*
X115428500Y-92586900D01*
X115380934Y-92569587D01*
X115355624Y-92525750D01*
X115354500Y-92512900D01*
X115354500Y-92358140D01*
X115354500Y-92358134D01*
X115351646Y-92327701D01*
X115306793Y-92199518D01*
X115268345Y-92147422D01*
X115226153Y-92090253D01*
X115226146Y-92090246D01*
X115116883Y-92009607D01*
X115116881Y-92009606D01*
X114988704Y-91964755D01*
X114988705Y-91964755D01*
X114988700Y-91964754D01*
X114988699Y-91964754D01*
X114958266Y-91961900D01*
X114149734Y-91961900D01*
X114119301Y-91964754D01*
X114119299Y-91964754D01*
X114119295Y-91964755D01*
X113991118Y-92009606D01*
X113991116Y-92009607D01*
X113881853Y-92090246D01*
X113881846Y-92090253D01*
X113801207Y-92199516D01*
X113801206Y-92199518D01*
X113756355Y-92327695D01*
X113756354Y-92327699D01*
X113756354Y-92327701D01*
X113753500Y-92358134D01*
X113753500Y-93366666D01*
X113354500Y-93366666D01*
X113354500Y-92358134D01*
X113351646Y-92327701D01*
X113306793Y-92199518D01*
X113268345Y-92147422D01*
X113226153Y-92090253D01*
X113226146Y-92090246D01*
X113116883Y-92009607D01*
X113116881Y-92009606D01*
X112988704Y-91964755D01*
X112988705Y-91964755D01*
X112988700Y-91964754D01*
X112988699Y-91964754D01*
X112958266Y-91961900D01*
X112149734Y-91961900D01*
X112119301Y-91964754D01*
X112119299Y-91964754D01*
X112119295Y-91964755D01*
X111991118Y-92009606D01*
X111991116Y-92009607D01*
X111881853Y-92090246D01*
X111881846Y-92090253D01*
X111801207Y-92199516D01*
X111801206Y-92199518D01*
X111756355Y-92327695D01*
X111756354Y-92327699D01*
X111756354Y-92327701D01*
X111753500Y-92358134D01*
X111753500Y-93366666D01*
X111000500Y-93366666D01*
X111000500Y-91220266D01*
X111753500Y-91220266D01*
X111756354Y-91250699D01*
X111756354Y-91250701D01*
X111756355Y-91250704D01*
X111801206Y-91378881D01*
X111801207Y-91378883D01*
X111881846Y-91488146D01*
X111881853Y-91488153D01*
X111991116Y-91568792D01*
X111991118Y-91568793D01*
X112119295Y-91613644D01*
X112119301Y-91613646D01*
X112149734Y-91616500D01*
X112149741Y-91616500D01*
X112958258Y-91616500D01*
X112958266Y-91616500D01*
X112988699Y-91613646D01*
X113116882Y-91568793D01*
X113226150Y-91488150D01*
X113306793Y-91378882D01*
X113351646Y-91250699D01*
X113354500Y-91220266D01*
X113354500Y-90211734D01*
X113351646Y-90181301D01*
X113306793Y-90053118D01*
X113306792Y-90053116D01*
X113226153Y-89943853D01*
X113226146Y-89943846D01*
X113116883Y-89863207D01*
X113116881Y-89863206D01*
X112988704Y-89818355D01*
X112988705Y-89818355D01*
X112988700Y-89818354D01*
X112988699Y-89818354D01*
X112958266Y-89815500D01*
X112149734Y-89815500D01*
X112119301Y-89818354D01*
X112119299Y-89818354D01*
X112119295Y-89818355D01*
X111991118Y-89863206D01*
X111991116Y-89863207D01*
X111881853Y-89943846D01*
X111881846Y-89943853D01*
X111801207Y-90053116D01*
X111801206Y-90053118D01*
X111756355Y-90181295D01*
X111756354Y-90181299D01*
X111756354Y-90181301D01*
X111753500Y-90211734D01*
X111753500Y-91220266D01*
X111000500Y-91220266D01*
X111000500Y-88756784D01*
X119311500Y-88756784D01*
X119311661Y-88759153D01*
X119314233Y-88797094D01*
X119314233Y-88797097D01*
X119314234Y-88797100D01*
X119357567Y-88971349D01*
X119437347Y-89132210D01*
X119549841Y-89272159D01*
X119689790Y-89384653D01*
X119850651Y-89464433D01*
X120024900Y-89507766D01*
X120065216Y-89510500D01*
X120065219Y-89510500D01*
X121958781Y-89510500D01*
X121958784Y-89510500D01*
X121999100Y-89507766D01*
X122173349Y-89464433D01*
X122334210Y-89384653D01*
X122474159Y-89272159D01*
X122586653Y-89132210D01*
X122666433Y-88971349D01*
X122709766Y-88797100D01*
X122712500Y-88756784D01*
X122712500Y-87363216D01*
X122709766Y-87322900D01*
X122666433Y-87148651D01*
X122586653Y-86987790D01*
X122474159Y-86847841D01*
X122334210Y-86735347D01*
X122173349Y-86655567D01*
X121999100Y-86612234D01*
X121999097Y-86612233D01*
X121999094Y-86612233D01*
X121969077Y-86610198D01*
X121958784Y-86609500D01*
X120065216Y-86609500D01*
X120055730Y-86610143D01*
X120024905Y-86612233D01*
X120024901Y-86612233D01*
X120024900Y-86612234D01*
X119850651Y-86655567D01*
X119850649Y-86655568D01*
X119689791Y-86735346D01*
X119549841Y-86847841D01*
X119437346Y-86987791D01*
X119411773Y-87039355D01*
X119357567Y-87148651D01*
X119322576Y-87289355D01*
X119314233Y-87322905D01*
X119312712Y-87345341D01*
X119311500Y-87363216D01*
X119311500Y-88756784D01*
X111000500Y-88756784D01*
X111000500Y-85240000D01*
X112786659Y-85240000D01*
X112805976Y-85436133D01*
X112863187Y-85624731D01*
X112920637Y-85732210D01*
X112956090Y-85798538D01*
X113081117Y-85950883D01*
X113233462Y-86075910D01*
X113298175Y-86110500D01*
X113407268Y-86168812D01*
X113407270Y-86168812D01*
X113407273Y-86168814D01*
X113595868Y-86226024D01*
X113792000Y-86245341D01*
X113988132Y-86226024D01*
X114176727Y-86168814D01*
X114350538Y-86075910D01*
X114502883Y-85950883D01*
X114627910Y-85798538D01*
X114720814Y-85624727D01*
X114778024Y-85436132D01*
X114797341Y-85240000D01*
X114778024Y-85043868D01*
X114720814Y-84855273D01*
X114720812Y-84855270D01*
X114720812Y-84855268D01*
X114669048Y-84758426D01*
X114627910Y-84681462D01*
X114502883Y-84529117D01*
X114350538Y-84404090D01*
X114340597Y-84398776D01*
X114176731Y-84311187D01*
X113988133Y-84253976D01*
X113792000Y-84234659D01*
X113595866Y-84253976D01*
X113407268Y-84311187D01*
X113233463Y-84404089D01*
X113081117Y-84529117D01*
X112956089Y-84681463D01*
X112863187Y-84855268D01*
X112805976Y-85043866D01*
X112786659Y-85240000D01*
X111000500Y-85240000D01*
X111000500Y-83419266D01*
X112866500Y-83419266D01*
X112869354Y-83449699D01*
X112869354Y-83449701D01*
X112869355Y-83449704D01*
X112914206Y-83577881D01*
X112914207Y-83577883D01*
X112994846Y-83687146D01*
X112994853Y-83687153D01*
X113104116Y-83767792D01*
X113104118Y-83767793D01*
X113232295Y-83812644D01*
X113232301Y-83812646D01*
X113262734Y-83815500D01*
X113262741Y-83815500D01*
X114321258Y-83815500D01*
X114321266Y-83815500D01*
X114351699Y-83812646D01*
X114479882Y-83767793D01*
X114589150Y-83687150D01*
X114597967Y-83675204D01*
X114662480Y-83587791D01*
X114669793Y-83577882D01*
X114714646Y-83449699D01*
X114717500Y-83419266D01*
X114717500Y-82635734D01*
X114714646Y-82605301D01*
X114669793Y-82477118D01*
X114669792Y-82477116D01*
X114589153Y-82367853D01*
X114589146Y-82367846D01*
X114479883Y-82287207D01*
X114479881Y-82287206D01*
X114351704Y-82242355D01*
X114351705Y-82242355D01*
X114351700Y-82242354D01*
X114351699Y-82242354D01*
X114321266Y-82239500D01*
X113262734Y-82239500D01*
X113232301Y-82242354D01*
X113232299Y-82242354D01*
X113232295Y-82242355D01*
X113104118Y-82287206D01*
X113104116Y-82287207D01*
X112994853Y-82367846D01*
X112994846Y-82367853D01*
X112914207Y-82477116D01*
X112914206Y-82477118D01*
X112869355Y-82605295D01*
X112869354Y-82605299D01*
X112869354Y-82605301D01*
X112866500Y-82635734D01*
X112866500Y-83419266D01*
X111000500Y-83419266D01*
X111000500Y-79752266D01*
X116477900Y-79752266D01*
X116480754Y-79782699D01*
X116480754Y-79782701D01*
X116480755Y-79782704D01*
X116525606Y-79910881D01*
X116525607Y-79910883D01*
X116606246Y-80020146D01*
X116606253Y-80020153D01*
X116696447Y-80086718D01*
X116715518Y-80100793D01*
X116778342Y-80122776D01*
X116817519Y-80154825D01*
X116827900Y-80192622D01*
X116827900Y-80899016D01*
X116827667Y-80903162D01*
X116823129Y-80943434D01*
X116834188Y-81001879D01*
X116843052Y-81060691D01*
X116844687Y-81065989D01*
X116844642Y-81066002D01*
X116846502Y-81071654D01*
X116846546Y-81071639D01*
X116848378Y-81076875D01*
X116876177Y-81129472D01*
X116901976Y-81183045D01*
X116905098Y-81187624D01*
X116905060Y-81187649D01*
X116908504Y-81192502D01*
X116908540Y-81192476D01*
X116911834Y-81196939D01*
X116924823Y-81209927D01*
X116953896Y-81238999D01*
X116994345Y-81282594D01*
X116994347Y-81282595D01*
X116998685Y-81286055D01*
X116998655Y-81286091D01*
X117008674Y-81293778D01*
X119355117Y-83640221D01*
X119376509Y-83686097D01*
X119369086Y-83725424D01*
X119357567Y-83748651D01*
X119314234Y-83922900D01*
X119314233Y-83922905D01*
X119311500Y-83963219D01*
X119311500Y-85356781D01*
X119314233Y-85397094D01*
X119314233Y-85397097D01*
X119314234Y-85397100D01*
X119357567Y-85571349D01*
X119437347Y-85732210D01*
X119549841Y-85872159D01*
X119689790Y-85984653D01*
X119850651Y-86064433D01*
X120024900Y-86107766D01*
X120065216Y-86110500D01*
X120065219Y-86110500D01*
X121958781Y-86110500D01*
X121958784Y-86110500D01*
X121999100Y-86107766D01*
X122173349Y-86064433D01*
X122334210Y-85984653D01*
X122474159Y-85872159D01*
X122586653Y-85732210D01*
X122666433Y-85571349D01*
X122709766Y-85397100D01*
X122712500Y-85356784D01*
X122712500Y-83963216D01*
X122709766Y-83922900D01*
X122666433Y-83748651D01*
X122586653Y-83587790D01*
X122474159Y-83447841D01*
X122334210Y-83335347D01*
X122173349Y-83255567D01*
X121999100Y-83212234D01*
X121999097Y-83212233D01*
X121999094Y-83212233D01*
X121969077Y-83210198D01*
X121958784Y-83209500D01*
X121958781Y-83209500D01*
X120229255Y-83209500D01*
X120181689Y-83192187D01*
X120176929Y-83187826D01*
X117750574Y-80761471D01*
X117729182Y-80715595D01*
X117728900Y-80709145D01*
X117728900Y-80192622D01*
X117746213Y-80145056D01*
X117778456Y-80122776D01*
X117841282Y-80100793D01*
X117950550Y-80020150D01*
X118031193Y-79910882D01*
X118076046Y-79782699D01*
X118078900Y-79752266D01*
X118477900Y-79752266D01*
X118480754Y-79782699D01*
X118480754Y-79782701D01*
X118480755Y-79782704D01*
X118525606Y-79910881D01*
X118525607Y-79910883D01*
X118606246Y-80020146D01*
X118606253Y-80020153D01*
X118715516Y-80100792D01*
X118715518Y-80100793D01*
X118843695Y-80145644D01*
X118843701Y-80145646D01*
X118874134Y-80148500D01*
X118874141Y-80148500D01*
X119682658Y-80148500D01*
X119682666Y-80148500D01*
X119713099Y-80145646D01*
X119841282Y-80100793D01*
X119950550Y-80020150D01*
X120031193Y-79910882D01*
X120076046Y-79782699D01*
X120078900Y-79752266D01*
X121557900Y-79752266D01*
X121560754Y-79782699D01*
X121560754Y-79782701D01*
X121560755Y-79782704D01*
X121605606Y-79910881D01*
X121605607Y-79910883D01*
X121686246Y-80020146D01*
X121686253Y-80020153D01*
X121795516Y-80100792D01*
X121795518Y-80100793D01*
X121923695Y-80145644D01*
X121923701Y-80145646D01*
X121954134Y-80148500D01*
X121954141Y-80148500D01*
X122762660Y-80148500D01*
X122762666Y-80148500D01*
X122793099Y-80145646D01*
X122803532Y-80141995D01*
X122854142Y-80142623D01*
X122880299Y-80159515D01*
X123350026Y-80629242D01*
X123371418Y-80675118D01*
X123371700Y-80681568D01*
X123371700Y-92624779D01*
X123370278Y-92639215D01*
X123366303Y-92659199D01*
X123366303Y-92659200D01*
X123371700Y-92686332D01*
X123387685Y-92766695D01*
X123448577Y-92857825D01*
X123465514Y-92869142D01*
X123476729Y-92878345D01*
X123986910Y-93388526D01*
X124008302Y-93434402D01*
X124007831Y-93451382D01*
X124004867Y-93471999D01*
X124023302Y-93600223D01*
X124023302Y-93600224D01*
X124023303Y-93600226D01*
X124077118Y-93718063D01*
X124161951Y-93815967D01*
X124270931Y-93886004D01*
X124395228Y-93922500D01*
X124524772Y-93922500D01*
X124649069Y-93886004D01*
X124758049Y-93815967D01*
X124842882Y-93718063D01*
X124896697Y-93600226D01*
X124915133Y-93472000D01*
X124896697Y-93343774D01*
X124842882Y-93225937D01*
X124758049Y-93128033D01*
X124691032Y-93084964D01*
X124649068Y-93057995D01*
X124524772Y-93021500D01*
X124429768Y-93021500D01*
X124382202Y-93004187D01*
X124377442Y-92999826D01*
X123944374Y-92566758D01*
X123922982Y-92520882D01*
X123922700Y-92514432D01*
X123922700Y-80571215D01*
X123924122Y-80556778D01*
X123928096Y-80536800D01*
X123922700Y-80509671D01*
X123922700Y-80509667D01*
X123906715Y-80429305D01*
X123845824Y-80338176D01*
X123828879Y-80326853D01*
X123817670Y-80317654D01*
X123725260Y-80225244D01*
X123703868Y-80179368D01*
X123716969Y-80130473D01*
X123758433Y-80101439D01*
X123802027Y-80103071D01*
X123923695Y-80145644D01*
X123923701Y-80145646D01*
X123954134Y-80148500D01*
X123954141Y-80148500D01*
X124762658Y-80148500D01*
X124762666Y-80148500D01*
X124793099Y-80145646D01*
X124921282Y-80100793D01*
X125030550Y-80020150D01*
X125111193Y-79910882D01*
X125156046Y-79782699D01*
X125158900Y-79752266D01*
X125158900Y-78743734D01*
X125156046Y-78713301D01*
X125111193Y-78585118D01*
X125100300Y-78570358D01*
X125030553Y-78475853D01*
X125030546Y-78475846D01*
X124921283Y-78395207D01*
X124921281Y-78395206D01*
X124793104Y-78350355D01*
X124793105Y-78350355D01*
X124793100Y-78350354D01*
X124793099Y-78350354D01*
X124762666Y-78347500D01*
X123954134Y-78347500D01*
X123923701Y-78350354D01*
X123923699Y-78350354D01*
X123923695Y-78350355D01*
X123795518Y-78395206D01*
X123795516Y-78395207D01*
X123734442Y-78440282D01*
X123685890Y-78454598D01*
X123639495Y-78434356D01*
X123616965Y-78389027D01*
X123616500Y-78380742D01*
X123616500Y-73850086D01*
X123633813Y-73802520D01*
X123643550Y-73792887D01*
X123662410Y-73777410D01*
X123793685Y-73617450D01*
X123891232Y-73434954D01*
X123951300Y-73236934D01*
X123966500Y-73082608D01*
X123966500Y-72679392D01*
X123951300Y-72525066D01*
X123891232Y-72327046D01*
X123793685Y-72144550D01*
X123662410Y-71984590D01*
X123502450Y-71853315D01*
X123319954Y-71755768D01*
X123208158Y-71721855D01*
X123121935Y-71695700D01*
X122916000Y-71675417D01*
X122710064Y-71695700D01*
X122512043Y-71755769D01*
X122329549Y-71853315D01*
X122169590Y-71984589D01*
X122169589Y-71984590D01*
X122038315Y-72144549D01*
X121940769Y-72327043D01*
X121880700Y-72525064D01*
X121865500Y-72679393D01*
X121865500Y-73082606D01*
X121880700Y-73236935D01*
X121906855Y-73323158D01*
X121940768Y-73434954D01*
X122038315Y-73617450D01*
X122169590Y-73777410D01*
X122188445Y-73792883D01*
X122214231Y-73836440D01*
X122215500Y-73850086D01*
X122215500Y-78273500D01*
X122198187Y-78321066D01*
X122154350Y-78346376D01*
X122141500Y-78347500D01*
X121954134Y-78347500D01*
X121923701Y-78350354D01*
X121923699Y-78350354D01*
X121923695Y-78350355D01*
X121795518Y-78395206D01*
X121795516Y-78395207D01*
X121686253Y-78475846D01*
X121686246Y-78475853D01*
X121605607Y-78585116D01*
X121605606Y-78585118D01*
X121560755Y-78713295D01*
X121560754Y-78713299D01*
X121560754Y-78713301D01*
X121557900Y-78743734D01*
X121557900Y-79752266D01*
X120078900Y-79752266D01*
X120078900Y-78743734D01*
X120076046Y-78713301D01*
X120031193Y-78585118D01*
X120020300Y-78570358D01*
X119950553Y-78475853D01*
X119950546Y-78475846D01*
X119841283Y-78395207D01*
X119841281Y-78395206D01*
X119713104Y-78350355D01*
X119713105Y-78350355D01*
X119713100Y-78350354D01*
X119713099Y-78350354D01*
X119682666Y-78347500D01*
X118874134Y-78347500D01*
X118843701Y-78350354D01*
X118843699Y-78350354D01*
X118843695Y-78350355D01*
X118715518Y-78395206D01*
X118715516Y-78395207D01*
X118606253Y-78475846D01*
X118606246Y-78475853D01*
X118525607Y-78585116D01*
X118525606Y-78585118D01*
X118480755Y-78713295D01*
X118480754Y-78713299D01*
X118480754Y-78713301D01*
X118477900Y-78743734D01*
X118477900Y-79752266D01*
X118078900Y-79752266D01*
X118078900Y-78743734D01*
X118076046Y-78713301D01*
X118031193Y-78585118D01*
X118020300Y-78570358D01*
X117950553Y-78475853D01*
X117950546Y-78475846D01*
X117841283Y-78395207D01*
X117841281Y-78395206D01*
X117713104Y-78350355D01*
X117713105Y-78350355D01*
X117713100Y-78350354D01*
X117713099Y-78350354D01*
X117682666Y-78347500D01*
X116874134Y-78347500D01*
X116843701Y-78350354D01*
X116843699Y-78350354D01*
X116843695Y-78350355D01*
X116715518Y-78395206D01*
X116715516Y-78395207D01*
X116606253Y-78475846D01*
X116606246Y-78475853D01*
X116525607Y-78585116D01*
X116525606Y-78585118D01*
X116480755Y-78713295D01*
X116480754Y-78713299D01*
X116480754Y-78713301D01*
X116477900Y-78743734D01*
X116477900Y-79752266D01*
X111000500Y-79752266D01*
X111000500Y-74108445D01*
X111017813Y-74060879D01*
X111061650Y-74035569D01*
X111111500Y-74044359D01*
X111142447Y-74079134D01*
X111166029Y-74133803D01*
X111194109Y-74198899D01*
X111194109Y-74198900D01*
X111368871Y-74501598D01*
X111368872Y-74501599D01*
X111425838Y-74578118D01*
X111577588Y-74781953D01*
X111817442Y-75036183D01*
X111817448Y-75036188D01*
X111817451Y-75036191D01*
X112014452Y-75201493D01*
X112085189Y-75260849D01*
X112377207Y-75452913D01*
X112689549Y-75609777D01*
X112689555Y-75609780D01*
X113017983Y-75729317D01*
X113017995Y-75729321D01*
X113358077Y-75809921D01*
X113358080Y-75809921D01*
X113358086Y-75809923D01*
X113705241Y-75850500D01*
X114054759Y-75850500D01*
X114401914Y-75809923D01*
X114481391Y-75791086D01*
X114742004Y-75729321D01*
X114742007Y-75729319D01*
X114742011Y-75729319D01*
X114835581Y-75695262D01*
X115070444Y-75609780D01*
X115070447Y-75609778D01*
X115070451Y-75609777D01*
X115382793Y-75452913D01*
X115674811Y-75260849D01*
X115942558Y-75036183D01*
X116182412Y-74781953D01*
X116391130Y-74501596D01*
X116565889Y-74198904D01*
X116704326Y-73877971D01*
X116704327Y-73877967D01*
X116704328Y-73877966D01*
X116762018Y-73685266D01*
X119365500Y-73685266D01*
X119368354Y-73715699D01*
X119368354Y-73715701D01*
X119368355Y-73715704D01*
X119413206Y-73843881D01*
X119413207Y-73843883D01*
X119493846Y-73953146D01*
X119493853Y-73953153D01*
X119603116Y-74033792D01*
X119603118Y-74033793D01*
X119731295Y-74078644D01*
X119731301Y-74078646D01*
X119761734Y-74081500D01*
X119761741Y-74081500D01*
X121070258Y-74081500D01*
X121070266Y-74081500D01*
X121100699Y-74078646D01*
X121228882Y-74033793D01*
X121338150Y-73953150D01*
X121418793Y-73843882D01*
X121463646Y-73715699D01*
X121466500Y-73685266D01*
X121466500Y-72076734D01*
X121463646Y-72046301D01*
X121442052Y-71984590D01*
X121418793Y-71918118D01*
X121418792Y-71918116D01*
X121338153Y-71808853D01*
X121338146Y-71808846D01*
X121228883Y-71728207D01*
X121228881Y-71728206D01*
X121100704Y-71683355D01*
X121100705Y-71683355D01*
X121100700Y-71683354D01*
X121100699Y-71683354D01*
X121070266Y-71680500D01*
X119761734Y-71680500D01*
X119731301Y-71683354D01*
X119731299Y-71683354D01*
X119731295Y-71683355D01*
X119603118Y-71728206D01*
X119603116Y-71728207D01*
X119493853Y-71808846D01*
X119493846Y-71808853D01*
X119413207Y-71918116D01*
X119413206Y-71918118D01*
X119368355Y-72046295D01*
X119368354Y-72046299D01*
X119368354Y-72046301D01*
X119365500Y-72076734D01*
X119365500Y-73685266D01*
X116762018Y-73685266D01*
X116804567Y-73543143D01*
X116804567Y-73543142D01*
X116804569Y-73543136D01*
X116865262Y-73198927D01*
X116885585Y-72850000D01*
X116865262Y-72501073D01*
X116804569Y-72156864D01*
X116804567Y-72156856D01*
X116704328Y-71822033D01*
X116704326Y-71822030D01*
X116675744Y-71755769D01*
X116565889Y-71501096D01*
X116391130Y-71198404D01*
X116182412Y-70918047D01*
X115942558Y-70663817D01*
X115942551Y-70663811D01*
X115942548Y-70663808D01*
X115674811Y-70439151D01*
X115382793Y-70247087D01*
X115170816Y-70140628D01*
X115136080Y-70103810D01*
X115133137Y-70053276D01*
X115163364Y-70012674D01*
X115204028Y-70000500D01*
X156825972Y-70000500D01*
X156873538Y-70017813D01*
G37*
G04 #@! TD.AperFunction*
M02*
