M48
; DRILL file {KiCad 7.0.9} date Thu Jun 27 15:37:01 2024
; FORMAT={-:-/ absolute / metric / decimal}
; #@! TF.CreationDate,2024-06-27T15:37:01+09:00
; #@! TF.GenerationSoftware,Kicad,Pcbnew,7.0.9
; #@! TF.FileFunction,MixedPlating,1,2
FMAT,2
METRIC
; #@! TA.AperFunction,Plated,PTH,ViaDrill
T1C0.300
; #@! TA.AperFunction,Plated,PTH,ComponentDrill
T2C0.300
; #@! TA.AperFunction,Plated,PTH,ComponentDrill
T3C0.762
; #@! TA.AperFunction,Plated,PTH,ComponentDrill
T4C0.800
; #@! TA.AperFunction,Plated,PTH,ComponentDrill
T5C1.000
; #@! TA.AperFunction,Plated,PTH,ComponentDrill
T6C1.500
; #@! TA.AperFunction,Plated,PTH,ComponentDrill
T7C3.200
%
G90
G05
T1
X111.76Y-76.2
X111.76Y-88.9
X111.76Y-106.68
X111.76Y-114.3
X112.217Y-101.346
X112.243Y-103.378
X112.243Y-111.506
X112.268Y-90.703
X112.268Y-92.837
X112.268Y-97.231
X112.293Y-95.047
X112.293Y-109.499
X113.792Y-81.001
X113.792Y-82.982
X114.3Y-88.9
X114.91Y-99.365
X114.91Y-105.41
X114.91Y-107.264
X116.84Y-71.12
X116.84Y-76.2
X116.84Y-86.36
X116.84Y-88.9
X116.84Y-93.98
X116.84Y-114.3
X116.84Y-119.38
X116.967Y-98.171
X119.38Y-71.12
X119.38Y-76.2
X119.38Y-86.36
X119.38Y-93.98
X119.38Y-119.38
X119.558Y-79.248
X119.634Y-97.028
X119.913Y-111.557
X119.939Y-101.422
X119.964Y-103.454
X120.167Y-109.525
X121.666Y-96.52
X121.92Y-71.12
X121.92Y-119.38
X122.187Y-95.237
X122.555Y-113.665
X122.58Y-107.442
X122.606Y-105.486
X122.631Y-99.416
X124.46Y-71.12
X124.46Y-83.82
X124.46Y-86.36
X124.46Y-93.472
X124.46Y-119.38
X124.638Y-79.248
X125.273Y-98.323
X125.273Y-100.0
X126.467Y-98.323
X127.0Y-71.12
X127.483Y-97.18
X128.803Y-98.285
X129.54Y-76.2
X129.54Y-83.82
X129.54Y-86.36
X129.884Y-72.39
X130.2Y-91.897
X130.302Y-100.33
X132.08Y-71.12
X132.08Y-83.82
X132.08Y-86.36
X132.08Y-95.25
X132.08Y-96.52
X132.08Y-97.79
X132.08Y-99.06
X132.08Y-116.84
X133.35Y-95.25
X133.35Y-96.52
X133.35Y-97.79
X133.35Y-99.06
X133.858Y-102.489
X134.232Y-72.39
X134.493Y-103.759
X134.62Y-95.25
X134.62Y-96.52
X134.62Y-97.79
X134.62Y-99.06
X135.89Y-95.25
X135.89Y-96.52
X135.89Y-97.79
X135.89Y-99.06
X136.779Y-103.759
X137.16Y-71.12
X137.16Y-76.2
X137.16Y-78.74
X137.16Y-83.82
X137.16Y-95.25
X137.16Y-96.52
X137.16Y-97.79
X137.16Y-99.06
X137.16Y-102.489
X138.836Y-85.801
X139.7Y-71.12
X139.7Y-76.2
X139.7Y-78.74
X139.7Y-81.28
X139.7Y-83.82
X140.564Y-95.25
X140.564Y-96.012
X140.564Y-96.774
X140.564Y-97.536
X140.564Y-98.298
X140.564Y-99.06
X140.614Y-91.897
X140.665Y-116.84
X141.224Y-117.297
X142.24Y-71.12
X142.24Y-81.28
X142.24Y-83.82
X142.24Y-86.36
X142.24Y-106.68
X142.24Y-109.22
X142.24Y-119.38
X142.9Y-100.94
X143.129Y-102.489
X144.145Y-90.805
X144.78Y-71.12
X144.78Y-73.66
X144.78Y-81.28
X144.78Y-96.52
X144.78Y-119.38
X145.694Y-116.18
X146.05Y-102.616
X146.685Y-90.805
X147.066Y-103.505
X147.32Y-71.12
X147.32Y-73.66
X147.32Y-119.38
X148.082Y-83.261
X149.86Y-71.12
X149.86Y-73.66
X149.86Y-96.52
X149.86Y-99.06
X149.86Y-101.6
X149.86Y-106.68
X149.86Y-109.22
X149.86Y-119.38
X150.622Y-83.261
X151.028Y-117.221
X152.4Y-71.12
X152.4Y-73.66
X152.4Y-93.98
X152.4Y-96.52
X152.4Y-99.06
X152.4Y-101.6
X152.4Y-106.68
X152.4Y-109.22
X152.4Y-119.38
X153.797Y-84.582
X153.797Y-89.154
X154.94Y-71.12
X154.94Y-73.66
X154.94Y-91.44
X154.94Y-93.98
X154.94Y-109.22
X154.94Y-119.38
X155.448Y-97.663
X157.48Y-81.28
X157.48Y-83.82
X157.48Y-86.36
X157.48Y-88.9
X157.48Y-91.44
X157.48Y-93.98
X157.48Y-104.14
X157.48Y-109.22
X160.02Y-76.2
X160.02Y-78.74
X160.02Y-81.28
X160.02Y-83.82
X160.02Y-86.36
X160.02Y-88.9
X160.02Y-91.44
X160.02Y-104.14
X160.02Y-109.22
X160.02Y-111.76
X160.02Y-114.3
T2
X111.65Y-117.15
X111.68Y-72.85
X112.294Y-115.594
X112.294Y-118.706
X112.324Y-71.294
X112.324Y-74.406
X113.85Y-114.95
X113.85Y-119.35
X113.88Y-70.65
X113.88Y-75.05
X115.406Y-115.594
X115.406Y-118.706
X115.436Y-71.294
X115.436Y-74.406
X116.05Y-117.15
X116.08Y-72.85
X155.95Y-72.85
X155.95Y-117.15
X156.594Y-71.294
X156.594Y-74.406
X156.594Y-115.594
X156.594Y-118.706
X158.15Y-70.65
X158.15Y-75.05
X158.15Y-114.95
X158.15Y-119.35
X159.706Y-71.294
X159.706Y-74.406
X159.706Y-115.594
X159.706Y-118.706
X160.35Y-72.85
X160.35Y-117.15
T3
X128.27Y-75.262
X128.27Y-80.342
X130.81Y-75.262
X130.81Y-80.342
X138.43Y-75.262
X138.43Y-80.342
T4
X143.002Y-77.216
X143.002Y-112.776
X145.542Y-77.216
X145.542Y-112.776
X148.082Y-77.216
X148.082Y-112.776
X150.622Y-77.216
X150.622Y-112.776
X153.162Y-77.216
X153.162Y-112.776
X155.702Y-77.216
X155.702Y-112.776
X158.242Y-77.216
X158.242Y-112.776
T5
X113.792Y-78.74
X113.792Y-85.24
X120.416Y-72.881
X122.916Y-72.881
X127.742Y-105.156
X127.742Y-107.696
X127.742Y-110.236
X127.742Y-112.776
X127.742Y-115.316
X127.742Y-117.856
X130.282Y-105.156
X130.282Y-107.696
X130.282Y-110.236
X130.282Y-112.776
X130.282Y-115.316
X130.282Y-117.856
X135.128Y-107.696
X135.128Y-110.236
X135.128Y-112.776
X135.128Y-115.316
X135.128Y-117.856
X137.668Y-107.696
X137.668Y-110.236
X137.668Y-112.776
X137.668Y-115.316
X137.668Y-117.856
T7
X113.85Y-117.15
X113.88Y-72.85
X158.15Y-72.85
X158.15Y-117.15
T6
X120.862Y-84.66G85X121.162Y-84.66
G05
X120.862Y-88.06G85X121.162Y-88.06
G05
X134.362Y-84.66G85X134.662Y-84.66
G05
X134.362Y-88.06G85X134.662Y-88.06
G05
T0
M30
