G04 #@! TF.GenerationSoftware,KiCad,Pcbnew,7.0.9*
G04 #@! TF.CreationDate,2024-08-22T18:13:54+09:00*
G04 #@! TF.ProjectId,short_checker,73686f72-745f-4636-9865-636b65722e6b,rev?*
G04 #@! TF.SameCoordinates,Original*
G04 #@! TF.FileFunction,Copper,L2,Bot*
G04 #@! TF.FilePolarity,Positive*
%FSLAX46Y46*%
G04 Gerber Fmt 4.6, Leading zero omitted, Abs format (unit mm)*
G04 Created by KiCad (PCBNEW 7.0.9) date 2024-08-22 18:13:54*
%MOMM*%
%LPD*%
G01*
G04 APERTURE LIST*
G04 #@! TA.AperFunction,ComponentPad*
%ADD10R,1.700000X1.950000*%
G04 #@! TD*
G04 #@! TA.AperFunction,ComponentPad*
%ADD11O,1.700000X1.950000*%
G04 #@! TD*
G04 #@! TA.AperFunction,ComponentPad*
%ADD12C,1.600000*%
G04 #@! TD*
G04 #@! TA.AperFunction,ComponentPad*
%ADD13O,1.600000X1.600000*%
G04 #@! TD*
G04 #@! TA.AperFunction,ComponentPad*
%ADD14O,1.700000X1.700000*%
G04 #@! TD*
G04 #@! TA.AperFunction,ComponentPad*
%ADD15R,1.700000X1.700000*%
G04 #@! TD*
G04 #@! TA.AperFunction,ComponentPad*
%ADD16C,1.800000*%
G04 #@! TD*
G04 #@! TA.AperFunction,ComponentPad*
%ADD17R,1.800000X1.800000*%
G04 #@! TD*
G04 #@! TA.AperFunction,Conductor*
%ADD18C,1.000000*%
G04 #@! TD*
G04 APERTURE END LIST*
D10*
X152500000Y-107500000D03*
D11*
X150000000Y-107500000D03*
X147500000Y-107500000D03*
D12*
X135880000Y-105500000D03*
D13*
X143500000Y-105500000D03*
X143500000Y-101000000D03*
D12*
X135880000Y-101000000D03*
D13*
X143500000Y-96500000D03*
D12*
X135880000Y-96500000D03*
D13*
X143500000Y-92000000D03*
D12*
X135880000Y-92000000D03*
X135880000Y-87500000D03*
D13*
X143500000Y-87500000D03*
X143500000Y-83000000D03*
D12*
X135880000Y-83000000D03*
D14*
X123000000Y-97700000D03*
X123000000Y-95160000D03*
X123000000Y-92620000D03*
X123000000Y-90080000D03*
X123000000Y-87540000D03*
D15*
X123000000Y-85000000D03*
X151000000Y-85000000D03*
D14*
X151000000Y-87540000D03*
X151000000Y-90080000D03*
X151000000Y-92620000D03*
X151000000Y-95160000D03*
X151000000Y-97700000D03*
D16*
X133380000Y-105500000D03*
D17*
X130840000Y-105500000D03*
D16*
X133380000Y-101000000D03*
D17*
X130840000Y-101000000D03*
D16*
X133380000Y-96500000D03*
D17*
X130840000Y-96500000D03*
D16*
X133380000Y-92000000D03*
D17*
X130840000Y-92000000D03*
D16*
X133380000Y-87500000D03*
D17*
X130840000Y-87500000D03*
D16*
X133380000Y-83000000D03*
D17*
X130840000Y-83000000D03*
D18*
X151000000Y-97700000D02*
X150000000Y-98700000D01*
X150000000Y-98700000D02*
X150000000Y-107500000D01*
X151000000Y-85000000D02*
X151000000Y-97700000D01*
X143500000Y-83000000D02*
X143500000Y-105500000D01*
X145500000Y-107500000D02*
X147500000Y-107500000D01*
X143500000Y-105500000D02*
X145500000Y-107500000D01*
X130800000Y-105500000D02*
X130840000Y-105500000D01*
X123000000Y-97700000D02*
X130800000Y-105500000D01*
X125000000Y-95160000D02*
X130840000Y-101000000D01*
X123000000Y-95160000D02*
X125000000Y-95160000D01*
X123000000Y-92620000D02*
X126960000Y-92620000D01*
X126960000Y-92620000D02*
X130840000Y-96500000D01*
X123000000Y-90080000D02*
X128920000Y-90080000D01*
X128920000Y-90080000D02*
X130840000Y-92000000D01*
X130800000Y-87540000D02*
X130840000Y-87500000D01*
X123000000Y-87540000D02*
X130800000Y-87540000D01*
X128840000Y-85000000D02*
X130840000Y-83000000D01*
X123000000Y-85000000D02*
X128840000Y-85000000D01*
X133380000Y-105500000D02*
X135880000Y-105500000D01*
X133380000Y-101000000D02*
X135880000Y-101000000D01*
X133380000Y-96500000D02*
X135880000Y-96500000D01*
X133380000Y-92000000D02*
X135880000Y-92000000D01*
X133380000Y-87500000D02*
X135880000Y-87500000D01*
X133380000Y-83000000D02*
X135880000Y-83000000D01*
M02*
