M48
; DRILL file {KiCad 7.0.9} date Thu Aug 22 18:13:56 2024
; FORMAT={3:3/ absolute / metric / keep zeros}
; #@! TF.CreationDate,2024-08-22T18:13:56+09:00
; #@! TF.GenerationSoftware,Kicad,Pcbnew,7.0.9
; #@! TF.FileFunction,MixedPlating,1,2
FMAT,2
METRIC
; #@! TA.AperFunction,Plated,PTH,ComponentDrill
T1C0.800
; #@! TA.AperFunction,Plated,PTH,ComponentDrill
T2C0.900
; #@! TA.AperFunction,Plated,PTH,ComponentDrill
T3C0.950
; #@! TA.AperFunction,Plated,PTH,ComponentDrill
T4C1.000
%
G90
G05
T1
X135880Y-083000
X135880Y-087500
X135880Y-092000
X135880Y-096500
X135880Y-101000
X135880Y-105500
X143500Y-083000
X143500Y-087500
X143500Y-092000
X143500Y-096500
X143500Y-101000
X143500Y-105500
T2
X130840Y-083000
X130840Y-087500
X130840Y-092000
X130840Y-096500
X130840Y-101000
X130840Y-105500
X133380Y-083000
X133380Y-087500
X133380Y-092000
X133380Y-096500
X133380Y-101000
X133380Y-105500
T3
X147500Y-107500
X150000Y-107500
X152500Y-107500
T4
X123000Y-085000
X123000Y-087540
X123000Y-090080
X123000Y-092620
X123000Y-095160
X123000Y-097700
X151000Y-085000
X151000Y-087540
X151000Y-090080
X151000Y-092620
X151000Y-095160
X151000Y-097700
T0
M30
