M48
; DRILL file {KiCad 7.0.9} date Mon Sep  9 10:04:32 2024
; FORMAT={3:3/ absolute / metric / keep zeros}
; #@! TF.CreationDate,2024-09-09T10:04:32+09:00
; #@! TF.GenerationSoftware,Kicad,Pcbnew,7.0.9
; #@! TF.FileFunction,MixedPlating,1,2
FMAT,2
METRIC
; #@! TA.AperFunction,Plated,PTH,ComponentDrill
T1C0.700
; #@! TA.AperFunction,Plated,PTH,ComponentDrill
T2C0.900
; #@! TA.AperFunction,Plated,PTH,ComponentDrill
T3C0.950
; #@! TA.AperFunction,Plated,PTH,ComponentDrill
T4C1.000
; #@! TA.AperFunction,Plated,PTH,ViaDrill
T5C3.200
%
G90
G05
T1
X161380Y-119500
X169000Y-119500
X169000Y-121880
X169000Y-129500
T2
X162960Y-116000
X162960Y-123000
X165500Y-116000
X165500Y-123000
T3
X162500Y-083500
X162500Y-086000
X162500Y-088500
X162500Y-094500
X162500Y-097000
X162500Y-099500
X162500Y-105500
X162500Y-108000
X162500Y-110500
T4
X161500Y-137500
X161500Y-140040
T5
X172000Y-082000
X172000Y-140000
X198500Y-083000
X198500Y-111000
X198500Y-139000
T0
M30
