G04 #@! TF.GenerationSoftware,KiCad,Pcbnew,7.0.9*
G04 #@! TF.CreationDate,2024-09-09T10:01:14+09:00*
G04 #@! TF.ProjectId,NJU7386RB1test,4e4a5537-3338-4365-9242-31746573742e,rev?*
G04 #@! TF.SameCoordinates,Original*
G04 #@! TF.FileFunction,Copper,L2,Bot*
G04 #@! TF.FilePolarity,Positive*
%FSLAX46Y46*%
G04 Gerber Fmt 4.6, Leading zero omitted, Abs format (unit mm)*
G04 Created by KiCad (PCBNEW 7.0.9) date 2024-09-09 10:01:14*
%MOMM*%
%LPD*%
G01*
G04 APERTURE LIST*
G04 Aperture macros list*
%AMOutline4P*
0 Free polygon, 4 corners , with rotation*
0 The origin of the aperture is its center*
0 number of corners: always 4*
0 $1 to $8 corner X, Y*
0 $9 Rotation angle, in degrees counterclockwise*
0 create outline with 4 corners*
4,1,4,$1,$2,$3,$4,$5,$6,$7,$8,$1,$2,$9*%
G04 Aperture macros list end*
G04 #@! TA.AperFunction,ComponentPad*
%ADD10C,1.700000*%
G04 #@! TD*
G04 #@! TA.AperFunction,ComponentPad*
%ADD11O,1.700000X1.700000*%
G04 #@! TD*
G04 #@! TA.AperFunction,ComponentPad*
%ADD12Outline4P,-0.850000X-0.850000X0.850000X-0.850000X0.850000X0.850000X-0.850000X0.850000X0.000000*%
G04 #@! TD*
G04 #@! TA.AperFunction,SMDPad,CuDef*
%ADD13R,1.500000X0.230000*%
G04 #@! TD*
G04 #@! TA.AperFunction,SMDPad,CuDef*
%ADD14R,1.000000X0.230000*%
G04 #@! TD*
G04 #@! TA.AperFunction,SMDPad,CuDef*
%ADD15R,0.800000X0.230000*%
G04 #@! TD*
G04 #@! TA.AperFunction,Conductor*
%ADD16C,0.250000*%
G04 #@! TD*
G04 APERTURE END LIST*
D10*
X122000000Y-86460000D03*
D11*
X122000000Y-89000000D03*
X122000000Y-91540000D03*
D12*
X122000000Y-94080000D03*
D10*
X138000000Y-86460000D03*
D11*
X138000000Y-89000000D03*
X138000000Y-91540000D03*
X138000000Y-94080000D03*
D13*
X131875000Y-89025000D03*
D14*
X131875000Y-89675000D03*
X131875000Y-90325000D03*
X131875000Y-90975000D03*
D15*
X128375000Y-90975000D03*
D14*
X128375000Y-90325000D03*
X128375000Y-89675000D03*
X128375000Y-89025000D03*
D16*
X124565000Y-89025000D02*
X122000000Y-86460000D01*
X128375000Y-89025000D02*
X124565000Y-89025000D01*
X122675000Y-89675000D02*
X122000000Y-89000000D01*
X128375000Y-89675000D02*
X122675000Y-89675000D01*
X123215000Y-90325000D02*
X122000000Y-91540000D01*
X128375000Y-90325000D02*
X123215000Y-90325000D01*
X125105000Y-90975000D02*
X122000000Y-94080000D01*
X128375000Y-90975000D02*
X125105000Y-90975000D01*
X135435000Y-89025000D02*
X138000000Y-86460000D01*
X131875000Y-89025000D02*
X135435000Y-89025000D01*
X137325000Y-89675000D02*
X138000000Y-89000000D01*
X131875000Y-89675000D02*
X137325000Y-89675000D01*
X136785000Y-90325000D02*
X138000000Y-91540000D01*
X131875000Y-90325000D02*
X136785000Y-90325000D01*
X134895000Y-90975000D02*
X138000000Y-94080000D01*
X131875000Y-90975000D02*
X134895000Y-90975000D01*
M02*
