G04 #@! TF.GenerationSoftware,KiCad,Pcbnew,7.0.9*
G04 #@! TF.CreationDate,2024-09-12T18:27:50+09:00*
G04 #@! TF.ProjectId,YAMADAmain_ver2.0,59414d41-4441-46d6-9169-6e5f76657232,rev?*
G04 #@! TF.SameCoordinates,Original*
G04 #@! TF.FileFunction,Paste,Bot*
G04 #@! TF.FilePolarity,Positive*
%FSLAX46Y46*%
G04 Gerber Fmt 4.6, Leading zero omitted, Abs format (unit mm)*
G04 Created by KiCad (PCBNEW 7.0.9) date 2024-09-12 18:27:50*
%MOMM*%
%LPD*%
G01*
G04 APERTURE LIST*
G04 Aperture macros list*
%AMRoundRect*
0 Rectangle with rounded corners*
0 $1 Rounding radius*
0 $2 $3 $4 $5 $6 $7 $8 $9 X,Y pos of 4 corners*
0 Add a 4 corners polygon primitive as box body*
4,1,4,$2,$3,$4,$5,$6,$7,$8,$9,$2,$3,0*
0 Add four circle primitives for the rounded corners*
1,1,$1+$1,$2,$3*
1,1,$1+$1,$4,$5*
1,1,$1+$1,$6,$7*
1,1,$1+$1,$8,$9*
0 Add four rect primitives between the rounded corners*
20,1,$1+$1,$2,$3,$4,$5,0*
20,1,$1+$1,$4,$5,$6,$7,0*
20,1,$1+$1,$6,$7,$8,$9,0*
20,1,$1+$1,$8,$9,$2,$3,0*%
G04 Aperture macros list end*
%ADD10RoundRect,0.237500X-0.400000X-0.237500X0.400000X-0.237500X0.400000X0.237500X-0.400000X0.237500X0*%
%ADD11RoundRect,0.237500X0.400000X0.237500X-0.400000X0.237500X-0.400000X-0.237500X0.400000X-0.237500X0*%
%ADD12RoundRect,0.292875X-0.394625X-0.432125X0.394625X-0.432125X0.394625X0.432125X-0.394625X0.432125X0*%
%ADD13RoundRect,0.250000X0.337500X0.475000X-0.337500X0.475000X-0.337500X-0.475000X0.337500X-0.475000X0*%
%ADD14R,2.200000X1.200000*%
%ADD15R,6.400000X5.800000*%
%ADD16RoundRect,0.292875X-0.432125X0.394625X-0.432125X-0.394625X0.432125X-0.394625X0.432125X0.394625X0*%
%ADD17RoundRect,0.292875X0.394625X0.432125X-0.394625X0.432125X-0.394625X-0.432125X0.394625X-0.432125X0*%
%ADD18R,1.000000X1.000000*%
%ADD19R,1.000000X0.230000*%
%ADD20RoundRect,0.237500X-0.237500X0.400000X-0.237500X-0.400000X0.237500X-0.400000X0.237500X0.400000X0*%
%ADD21R,0.800000X1.800000*%
%ADD22RoundRect,0.225000X0.375000X-0.225000X0.375000X0.225000X-0.375000X0.225000X-0.375000X-0.225000X0*%
G04 APERTURE END LIST*
D10*
X148475000Y-71300000D03*
X150600000Y-71300000D03*
X148475000Y-72800000D03*
X150600000Y-72800000D03*
D11*
X124000000Y-83500000D03*
X121875000Y-83500000D03*
D12*
X144300000Y-87100000D03*
X146575000Y-87100000D03*
D13*
X133300000Y-70100000D03*
X131225000Y-70100000D03*
D14*
X114600000Y-99660000D03*
X114600000Y-97380000D03*
D15*
X120900000Y-97380000D03*
D14*
X114600000Y-95100000D03*
D10*
X159675000Y-96250000D03*
X161800000Y-96250000D03*
D16*
X115800000Y-78212500D03*
X115800000Y-80487500D03*
D12*
X133300000Y-86100000D03*
X135575000Y-86100000D03*
D17*
X131300000Y-85100000D03*
X129025000Y-85100000D03*
D18*
X120675000Y-107550000D03*
X118175000Y-107550000D03*
D19*
X134300000Y-104950000D03*
X134300000Y-105600000D03*
X134300000Y-106250000D03*
X134300000Y-106900000D03*
X130800000Y-106900000D03*
X130800000Y-106250000D03*
X130800000Y-105600000D03*
X130800000Y-104950000D03*
D12*
X138550000Y-100350000D03*
X140825000Y-100350000D03*
D10*
X121175000Y-115100000D03*
X123300000Y-115100000D03*
D20*
X144800000Y-114337500D03*
X144800000Y-116462500D03*
D12*
X144300000Y-96100000D03*
X146575000Y-96100000D03*
D10*
X140425000Y-68600000D03*
X142550000Y-68600000D03*
D21*
X161500000Y-94250000D03*
X159600000Y-94250000D03*
X160550000Y-90950000D03*
D12*
X144300000Y-90100000D03*
X146575000Y-90100000D03*
D10*
X148475000Y-68300000D03*
X150600000Y-68300000D03*
D11*
X124000000Y-80400000D03*
X121875000Y-80400000D03*
D12*
X144300000Y-93100000D03*
X146575000Y-93100000D03*
D10*
X121175000Y-116600000D03*
X123300000Y-116600000D03*
D17*
X131300000Y-99600000D03*
X129025000Y-99600000D03*
D19*
X141800000Y-112275000D03*
X141800000Y-112925000D03*
X141800000Y-113575000D03*
X141800000Y-114225000D03*
X138300000Y-114225000D03*
X138300000Y-113575000D03*
X138300000Y-112925000D03*
X138300000Y-112275000D03*
D10*
X121175000Y-113600000D03*
X123300000Y-113600000D03*
D11*
X161800000Y-89000000D03*
X159675000Y-89000000D03*
D19*
X134300000Y-112275000D03*
X134300000Y-112925000D03*
X134300000Y-113575000D03*
X134300000Y-114225000D03*
X130800000Y-114225000D03*
X130800000Y-113575000D03*
X130800000Y-112925000D03*
X130800000Y-112275000D03*
D11*
X116300000Y-102200000D03*
X114175000Y-102200000D03*
X121050000Y-77100000D03*
X118925000Y-77100000D03*
D10*
X148475000Y-69800000D03*
X150600000Y-69800000D03*
D20*
X129300000Y-95100000D03*
X129300000Y-97225000D03*
D22*
X131800000Y-81677000D03*
X131800000Y-78377000D03*
D12*
X133300000Y-100600000D03*
X135575000Y-100600000D03*
D10*
X121175000Y-112090000D03*
X123300000Y-112090000D03*
D19*
X141800000Y-104950000D03*
X141800000Y-105600000D03*
X141800000Y-106250000D03*
X141800000Y-106900000D03*
X138300000Y-106900000D03*
X138300000Y-106250000D03*
X138300000Y-105600000D03*
X138300000Y-104950000D03*
D12*
X146662500Y-115400000D03*
X148937500Y-115400000D03*
M02*
