G04 #@! TF.GenerationSoftware,KiCad,Pcbnew,7.0.9*
G04 #@! TF.CreationDate,2024-09-12T18:27:50+09:00*
G04 #@! TF.ProjectId,YAMADAmain_ver2.0,59414d41-4441-46d6-9169-6e5f76657232,rev?*
G04 #@! TF.SameCoordinates,Original*
G04 #@! TF.FileFunction,Legend,Top*
G04 #@! TF.FilePolarity,Positive*
%FSLAX46Y46*%
G04 Gerber Fmt 4.6, Leading zero omitted, Abs format (unit mm)*
G04 Created by KiCad (PCBNEW 7.0.9) date 2024-09-12 18:27:50*
%MOMM*%
%LPD*%
G01*
G04 APERTURE LIST*
G04 Aperture macros list*
%AMRoundRect*
0 Rectangle with rounded corners*
0 $1 Rounding radius*
0 $2 $3 $4 $5 $6 $7 $8 $9 X,Y pos of 4 corners*
0 Add a 4 corners polygon primitive as box body*
4,1,4,$2,$3,$4,$5,$6,$7,$8,$9,$2,$3,0*
0 Add four circle primitives for the rounded corners*
1,1,$1+$1,$2,$3*
1,1,$1+$1,$4,$5*
1,1,$1+$1,$6,$7*
1,1,$1+$1,$8,$9*
0 Add four rect primitives between the rounded corners*
20,1,$1+$1,$2,$3,$4,$5,0*
20,1,$1+$1,$4,$5,$6,$7,0*
20,1,$1+$1,$6,$7,$8,$9,0*
20,1,$1+$1,$8,$9,$2,$3,0*%
G04 Aperture macros list end*
%ADD10C,0.150000*%
%ADD11C,0.153000*%
%ADD12C,0.120000*%
%ADD13C,0.100000*%
%ADD14C,0.200000*%
%ADD15R,1.800000X2.200000*%
%ADD16O,1.800000X2.200000*%
%ADD17O,1.800000X1.900000*%
%ADD18RoundRect,0.237500X-0.287500X-0.237500X0.287500X-0.237500X0.287500X0.237500X-0.287500X0.237500X0*%
%ADD19C,1.000000*%
%ADD20C,5.600000*%
%ADD21RoundRect,0.150000X0.150000X0.700000X-0.150000X0.700000X-0.150000X-0.700000X0.150000X-0.700000X0*%
%ADD22RoundRect,0.356250X0.356250X0.993750X-0.356250X0.993750X-0.356250X-0.993750X0.356250X-0.993750X0*%
%ADD23RoundRect,0.356250X0.356250X1.043750X-0.356250X1.043750X-0.356250X-1.043750X0.356250X-1.043750X0*%
%ADD24RoundRect,0.292875X-0.394625X-0.432125X0.394625X-0.432125X0.394625X0.432125X-0.394625X0.432125X0*%
%ADD25RoundRect,0.237500X0.287500X0.237500X-0.287500X0.237500X-0.287500X-0.237500X0.287500X-0.237500X0*%
%ADD26C,1.600000*%
%ADD27RoundRect,0.225000X-2.025000X2.025000X-2.025000X-2.025000X2.025000X-2.025000X2.025000X2.025000X0*%
%ADD28C,1.524000*%
%ADD29R,1.500000X1.000000*%
%ADD30RoundRect,0.100000X-0.100000X-0.450000X0.100000X-0.450000X0.100000X0.450000X-0.100000X0.450000X0*%
%ADD31RoundRect,0.075000X-0.075000X-0.475000X0.075000X-0.475000X0.075000X0.475000X-0.075000X0.475000X0*%
%ADD32C,5.000000*%
%ADD33RoundRect,0.075000X0.075000X-0.700000X0.075000X0.700000X-0.075000X0.700000X-0.075000X-0.700000X0*%
%ADD34RoundRect,0.075000X0.700000X-0.075000X0.700000X0.075000X-0.700000X0.075000X-0.700000X-0.075000X0*%
%ADD35R,1.524000X1.524000*%
%ADD36C,3.500000*%
%ADD37R,0.900000X0.600000*%
%ADD38O,2.000000X2.800000*%
%ADD39RoundRect,0.250000X-0.725000X0.600000X-0.725000X-0.600000X0.725000X-0.600000X0.725000X0.600000X0*%
%ADD40O,1.950000X1.700000*%
%ADD41RoundRect,0.625000X-0.875000X-0.625000X0.875000X-0.625000X0.875000X0.625000X-0.875000X0.625000X0*%
%ADD42R,1.700000X1.700000*%
%ADD43O,1.700000X1.700000*%
%ADD44RoundRect,0.250000X0.250000X1.150000X-0.250000X1.150000X-0.250000X-1.150000X0.250000X-1.150000X0*%
G04 APERTURE END LIST*
D10*
X132582843Y-97600000D02*
G75*
G03*
X132582843Y-97600000I-282843J0D01*
G01*
D11*
X118300000Y-74600000D02*
X119300000Y-74600000D01*
X118800000Y-74100000D02*
X118800000Y-75100000D01*
X118138752Y-99688710D02*
X118900657Y-99688710D01*
X118519704Y-100069663D02*
X118519704Y-99307758D01*
X119853037Y-99069663D02*
X119376847Y-99069663D01*
X119376847Y-99069663D02*
X119329228Y-99545853D01*
X119329228Y-99545853D02*
X119376847Y-99498234D01*
X119376847Y-99498234D02*
X119472085Y-99450615D01*
X119472085Y-99450615D02*
X119710180Y-99450615D01*
X119710180Y-99450615D02*
X119805418Y-99498234D01*
X119805418Y-99498234D02*
X119853037Y-99545853D01*
X119853037Y-99545853D02*
X119900656Y-99641091D01*
X119900656Y-99641091D02*
X119900656Y-99879186D01*
X119900656Y-99879186D02*
X119853037Y-99974424D01*
X119853037Y-99974424D02*
X119805418Y-100022044D01*
X119805418Y-100022044D02*
X119710180Y-100069663D01*
X119710180Y-100069663D02*
X119472085Y-100069663D01*
X119472085Y-100069663D02*
X119376847Y-100022044D01*
X119376847Y-100022044D02*
X119329228Y-99974424D01*
X120186371Y-99069663D02*
X120519704Y-100069663D01*
X120519704Y-100069663D02*
X120853037Y-99069663D01*
X136955853Y-95537914D02*
X136955853Y-95871247D01*
X137479663Y-95871247D02*
X136479663Y-95871247D01*
X136479663Y-95871247D02*
X136479663Y-95395057D01*
X136812996Y-94585533D02*
X137479663Y-94585533D01*
X136432044Y-94823628D02*
X137146329Y-95061723D01*
X137146329Y-95061723D02*
X137146329Y-94442676D01*
X136812996Y-93633152D02*
X137479663Y-93633152D01*
X136432044Y-93871247D02*
X137146329Y-94109342D01*
X137146329Y-94109342D02*
X137146329Y-93490295D01*
X136479663Y-92680771D02*
X136479663Y-92871247D01*
X136479663Y-92871247D02*
X136527282Y-92966485D01*
X136527282Y-92966485D02*
X136574901Y-93014104D01*
X136574901Y-93014104D02*
X136717758Y-93109342D01*
X136717758Y-93109342D02*
X136908234Y-93156961D01*
X136908234Y-93156961D02*
X137289186Y-93156961D01*
X137289186Y-93156961D02*
X137384424Y-93109342D01*
X137384424Y-93109342D02*
X137432044Y-93061723D01*
X137432044Y-93061723D02*
X137479663Y-92966485D01*
X137479663Y-92966485D02*
X137479663Y-92776009D01*
X137479663Y-92776009D02*
X137432044Y-92680771D01*
X137432044Y-92680771D02*
X137384424Y-92633152D01*
X137384424Y-92633152D02*
X137289186Y-92585533D01*
X137289186Y-92585533D02*
X137051091Y-92585533D01*
X137051091Y-92585533D02*
X136955853Y-92633152D01*
X136955853Y-92633152D02*
X136908234Y-92680771D01*
X136908234Y-92680771D02*
X136860615Y-92776009D01*
X136860615Y-92776009D02*
X136860615Y-92966485D01*
X136860615Y-92966485D02*
X136908234Y-93061723D01*
X136908234Y-93061723D02*
X136955853Y-93109342D01*
X136955853Y-93109342D02*
X137051091Y-93156961D01*
X137479663Y-91585533D02*
X137003472Y-91918866D01*
X137479663Y-92156961D02*
X136479663Y-92156961D01*
X136479663Y-92156961D02*
X136479663Y-91776009D01*
X136479663Y-91776009D02*
X136527282Y-91680771D01*
X136527282Y-91680771D02*
X136574901Y-91633152D01*
X136574901Y-91633152D02*
X136670139Y-91585533D01*
X136670139Y-91585533D02*
X136812996Y-91585533D01*
X136812996Y-91585533D02*
X136908234Y-91633152D01*
X136908234Y-91633152D02*
X136955853Y-91680771D01*
X136955853Y-91680771D02*
X137003472Y-91776009D01*
X137003472Y-91776009D02*
X137003472Y-92156961D01*
X137432044Y-90776009D02*
X137479663Y-90871247D01*
X137479663Y-90871247D02*
X137479663Y-91061723D01*
X137479663Y-91061723D02*
X137432044Y-91156961D01*
X137432044Y-91156961D02*
X137336805Y-91204580D01*
X137336805Y-91204580D02*
X136955853Y-91204580D01*
X136955853Y-91204580D02*
X136860615Y-91156961D01*
X136860615Y-91156961D02*
X136812996Y-91061723D01*
X136812996Y-91061723D02*
X136812996Y-90871247D01*
X136812996Y-90871247D02*
X136860615Y-90776009D01*
X136860615Y-90776009D02*
X136955853Y-90728390D01*
X136955853Y-90728390D02*
X137051091Y-90728390D01*
X137051091Y-90728390D02*
X137146329Y-91204580D01*
X138238752Y-100369663D02*
X138238752Y-101179186D01*
X138238752Y-101179186D02*
X138286371Y-101274424D01*
X138286371Y-101274424D02*
X138333990Y-101322044D01*
X138333990Y-101322044D02*
X138429228Y-101369663D01*
X138429228Y-101369663D02*
X138619704Y-101369663D01*
X138619704Y-101369663D02*
X138714942Y-101322044D01*
X138714942Y-101322044D02*
X138762561Y-101274424D01*
X138762561Y-101274424D02*
X138810180Y-101179186D01*
X138810180Y-101179186D02*
X138810180Y-100369663D01*
X139238752Y-101083948D02*
X139714942Y-101083948D01*
X139143514Y-101369663D02*
X139476847Y-100369663D01*
X139476847Y-100369663D02*
X139810180Y-101369663D01*
X140714942Y-101369663D02*
X140381609Y-100893472D01*
X140143514Y-101369663D02*
X140143514Y-100369663D01*
X140143514Y-100369663D02*
X140524466Y-100369663D01*
X140524466Y-100369663D02*
X140619704Y-100417282D01*
X140619704Y-100417282D02*
X140667323Y-100464901D01*
X140667323Y-100464901D02*
X140714942Y-100560139D01*
X140714942Y-100560139D02*
X140714942Y-100702996D01*
X140714942Y-100702996D02*
X140667323Y-100798234D01*
X140667323Y-100798234D02*
X140619704Y-100845853D01*
X140619704Y-100845853D02*
X140524466Y-100893472D01*
X140524466Y-100893472D02*
X140143514Y-100893472D01*
X141000657Y-100369663D02*
X141572085Y-100369663D01*
X141286371Y-101369663D02*
X141286371Y-100369663D01*
X142333990Y-100702996D02*
X142333990Y-101369663D01*
X142095895Y-100322044D02*
X141857800Y-101036329D01*
X141857800Y-101036329D02*
X142476847Y-101036329D01*
X142619705Y-101464901D02*
X143381609Y-101464901D01*
X144191133Y-101369663D02*
X143857800Y-100893472D01*
X143619705Y-101369663D02*
X143619705Y-100369663D01*
X143619705Y-100369663D02*
X144000657Y-100369663D01*
X144000657Y-100369663D02*
X144095895Y-100417282D01*
X144095895Y-100417282D02*
X144143514Y-100464901D01*
X144143514Y-100464901D02*
X144191133Y-100560139D01*
X144191133Y-100560139D02*
X144191133Y-100702996D01*
X144191133Y-100702996D02*
X144143514Y-100798234D01*
X144143514Y-100798234D02*
X144095895Y-100845853D01*
X144095895Y-100845853D02*
X144000657Y-100893472D01*
X144000657Y-100893472D02*
X143619705Y-100893472D01*
X144524467Y-100369663D02*
X145191133Y-101369663D01*
X145191133Y-100369663D02*
X144524467Y-101369663D01*
X145572086Y-101274424D02*
X145619705Y-101322044D01*
X145619705Y-101322044D02*
X145572086Y-101369663D01*
X145572086Y-101369663D02*
X145524467Y-101322044D01*
X145524467Y-101322044D02*
X145572086Y-101274424D01*
X145572086Y-101274424D02*
X145572086Y-101369663D01*
X145572086Y-100750615D02*
X145619705Y-100798234D01*
X145619705Y-100798234D02*
X145572086Y-100845853D01*
X145572086Y-100845853D02*
X145524467Y-100798234D01*
X145524467Y-100798234D02*
X145572086Y-100750615D01*
X145572086Y-100750615D02*
X145572086Y-100845853D01*
X146048276Y-101369663D02*
X146048276Y-100369663D01*
X146048276Y-100369663D02*
X146429228Y-100369663D01*
X146429228Y-100369663D02*
X146524466Y-100417282D01*
X146524466Y-100417282D02*
X146572085Y-100464901D01*
X146572085Y-100464901D02*
X146619704Y-100560139D01*
X146619704Y-100560139D02*
X146619704Y-100702996D01*
X146619704Y-100702996D02*
X146572085Y-100798234D01*
X146572085Y-100798234D02*
X146524466Y-100845853D01*
X146524466Y-100845853D02*
X146429228Y-100893472D01*
X146429228Y-100893472D02*
X146048276Y-100893472D01*
X147000657Y-101083948D02*
X147476847Y-101083948D01*
X146905419Y-101369663D02*
X147238752Y-100369663D01*
X147238752Y-100369663D02*
X147572085Y-101369663D01*
X148429228Y-101369663D02*
X147857800Y-101369663D01*
X148143514Y-101369663D02*
X148143514Y-100369663D01*
X148143514Y-100369663D02*
X148048276Y-100512520D01*
X148048276Y-100512520D02*
X147953038Y-100607758D01*
X147953038Y-100607758D02*
X147857800Y-100655377D01*
X160169663Y-95761247D02*
X159169663Y-95761247D01*
X159788710Y-95666009D02*
X160169663Y-95380295D01*
X159502996Y-95380295D02*
X159883948Y-95761247D01*
X160169663Y-94808866D02*
X160122044Y-94904104D01*
X160122044Y-94904104D02*
X160074424Y-94951723D01*
X160074424Y-94951723D02*
X159979186Y-94999342D01*
X159979186Y-94999342D02*
X159693472Y-94999342D01*
X159693472Y-94999342D02*
X159598234Y-94951723D01*
X159598234Y-94951723D02*
X159550615Y-94904104D01*
X159550615Y-94904104D02*
X159502996Y-94808866D01*
X159502996Y-94808866D02*
X159502996Y-94666009D01*
X159502996Y-94666009D02*
X159550615Y-94570771D01*
X159550615Y-94570771D02*
X159598234Y-94523152D01*
X159598234Y-94523152D02*
X159693472Y-94475533D01*
X159693472Y-94475533D02*
X159979186Y-94475533D01*
X159979186Y-94475533D02*
X160074424Y-94523152D01*
X160074424Y-94523152D02*
X160122044Y-94570771D01*
X160122044Y-94570771D02*
X160169663Y-94666009D01*
X160169663Y-94666009D02*
X160169663Y-94808866D01*
X159502996Y-94189818D02*
X159502996Y-93808866D01*
X159169663Y-94046961D02*
X160026805Y-94046961D01*
X160026805Y-94046961D02*
X160122044Y-93999342D01*
X160122044Y-93999342D02*
X160169663Y-93904104D01*
X160169663Y-93904104D02*
X160169663Y-93808866D01*
X159502996Y-93618389D02*
X159502996Y-93237437D01*
X159169663Y-93475532D02*
X160026805Y-93475532D01*
X160026805Y-93475532D02*
X160122044Y-93427913D01*
X160122044Y-93427913D02*
X160169663Y-93332675D01*
X160169663Y-93332675D02*
X160169663Y-93237437D01*
X160169663Y-92904103D02*
X159502996Y-92904103D01*
X159169663Y-92904103D02*
X159217282Y-92951722D01*
X159217282Y-92951722D02*
X159264901Y-92904103D01*
X159264901Y-92904103D02*
X159217282Y-92856484D01*
X159217282Y-92856484D02*
X159169663Y-92904103D01*
X159169663Y-92904103D02*
X159264901Y-92904103D01*
X159502996Y-91999342D02*
X160312520Y-91999342D01*
X160312520Y-91999342D02*
X160407758Y-92046961D01*
X160407758Y-92046961D02*
X160455377Y-92094580D01*
X160455377Y-92094580D02*
X160502996Y-92189818D01*
X160502996Y-92189818D02*
X160502996Y-92332675D01*
X160502996Y-92332675D02*
X160455377Y-92427913D01*
X160122044Y-91999342D02*
X160169663Y-92094580D01*
X160169663Y-92094580D02*
X160169663Y-92285056D01*
X160169663Y-92285056D02*
X160122044Y-92380294D01*
X160122044Y-92380294D02*
X160074424Y-92427913D01*
X160074424Y-92427913D02*
X159979186Y-92475532D01*
X159979186Y-92475532D02*
X159693472Y-92475532D01*
X159693472Y-92475532D02*
X159598234Y-92427913D01*
X159598234Y-92427913D02*
X159550615Y-92380294D01*
X159550615Y-92380294D02*
X159502996Y-92285056D01*
X159502996Y-92285056D02*
X159502996Y-92094580D01*
X159502996Y-92094580D02*
X159550615Y-91999342D01*
X160169663Y-91094580D02*
X159645853Y-91094580D01*
X159645853Y-91094580D02*
X159550615Y-91142199D01*
X159550615Y-91142199D02*
X159502996Y-91237437D01*
X159502996Y-91237437D02*
X159502996Y-91427913D01*
X159502996Y-91427913D02*
X159550615Y-91523151D01*
X160122044Y-91094580D02*
X160169663Y-91189818D01*
X160169663Y-91189818D02*
X160169663Y-91427913D01*
X160169663Y-91427913D02*
X160122044Y-91523151D01*
X160122044Y-91523151D02*
X160026805Y-91570770D01*
X160026805Y-91570770D02*
X159931567Y-91570770D01*
X159931567Y-91570770D02*
X159836329Y-91523151D01*
X159836329Y-91523151D02*
X159788710Y-91427913D01*
X159788710Y-91427913D02*
X159788710Y-91189818D01*
X159788710Y-91189818D02*
X159741091Y-91094580D01*
X159502996Y-90189818D02*
X160169663Y-90189818D01*
X159502996Y-90618389D02*
X160026805Y-90618389D01*
X160026805Y-90618389D02*
X160122044Y-90570770D01*
X160122044Y-90570770D02*
X160169663Y-90475532D01*
X160169663Y-90475532D02*
X160169663Y-90332675D01*
X160169663Y-90332675D02*
X160122044Y-90237437D01*
X160122044Y-90237437D02*
X160074424Y-90189818D01*
X160122044Y-89332675D02*
X160169663Y-89427913D01*
X160169663Y-89427913D02*
X160169663Y-89618389D01*
X160169663Y-89618389D02*
X160122044Y-89713627D01*
X160122044Y-89713627D02*
X160026805Y-89761246D01*
X160026805Y-89761246D02*
X159645853Y-89761246D01*
X159645853Y-89761246D02*
X159550615Y-89713627D01*
X159550615Y-89713627D02*
X159502996Y-89618389D01*
X159502996Y-89618389D02*
X159502996Y-89427913D01*
X159502996Y-89427913D02*
X159550615Y-89332675D01*
X159550615Y-89332675D02*
X159645853Y-89285056D01*
X159645853Y-89285056D02*
X159741091Y-89285056D01*
X159741091Y-89285056D02*
X159836329Y-89761246D01*
X148347618Y-79017282D02*
X148252380Y-78969663D01*
X148252380Y-78969663D02*
X148109523Y-78969663D01*
X148109523Y-78969663D02*
X147966666Y-79017282D01*
X147966666Y-79017282D02*
X147871428Y-79112520D01*
X147871428Y-79112520D02*
X147823809Y-79207758D01*
X147823809Y-79207758D02*
X147776190Y-79398234D01*
X147776190Y-79398234D02*
X147776190Y-79541091D01*
X147776190Y-79541091D02*
X147823809Y-79731567D01*
X147823809Y-79731567D02*
X147871428Y-79826805D01*
X147871428Y-79826805D02*
X147966666Y-79922044D01*
X147966666Y-79922044D02*
X148109523Y-79969663D01*
X148109523Y-79969663D02*
X148204761Y-79969663D01*
X148204761Y-79969663D02*
X148347618Y-79922044D01*
X148347618Y-79922044D02*
X148395237Y-79874424D01*
X148395237Y-79874424D02*
X148395237Y-79541091D01*
X148395237Y-79541091D02*
X148204761Y-79541091D01*
X149585714Y-79588710D02*
X150347619Y-79588710D01*
X149966666Y-79969663D02*
X149966666Y-79207758D01*
X151299999Y-78969663D02*
X150823809Y-78969663D01*
X150823809Y-78969663D02*
X150776190Y-79445853D01*
X150776190Y-79445853D02*
X150823809Y-79398234D01*
X150823809Y-79398234D02*
X150919047Y-79350615D01*
X150919047Y-79350615D02*
X151157142Y-79350615D01*
X151157142Y-79350615D02*
X151252380Y-79398234D01*
X151252380Y-79398234D02*
X151299999Y-79445853D01*
X151299999Y-79445853D02*
X151347618Y-79541091D01*
X151347618Y-79541091D02*
X151347618Y-79779186D01*
X151347618Y-79779186D02*
X151299999Y-79874424D01*
X151299999Y-79874424D02*
X151252380Y-79922044D01*
X151252380Y-79922044D02*
X151157142Y-79969663D01*
X151157142Y-79969663D02*
X150919047Y-79969663D01*
X150919047Y-79969663D02*
X150823809Y-79922044D01*
X150823809Y-79922044D02*
X150776190Y-79874424D01*
X151680952Y-79302996D02*
X151919047Y-79969663D01*
X151919047Y-79969663D02*
X152157142Y-79302996D01*
X153252381Y-79922044D02*
X153395238Y-79969663D01*
X153395238Y-79969663D02*
X153633333Y-79969663D01*
X153633333Y-79969663D02*
X153728571Y-79922044D01*
X153728571Y-79922044D02*
X153776190Y-79874424D01*
X153776190Y-79874424D02*
X153823809Y-79779186D01*
X153823809Y-79779186D02*
X153823809Y-79683948D01*
X153823809Y-79683948D02*
X153776190Y-79588710D01*
X153776190Y-79588710D02*
X153728571Y-79541091D01*
X153728571Y-79541091D02*
X153633333Y-79493472D01*
X153633333Y-79493472D02*
X153442857Y-79445853D01*
X153442857Y-79445853D02*
X153347619Y-79398234D01*
X153347619Y-79398234D02*
X153300000Y-79350615D01*
X153300000Y-79350615D02*
X153252381Y-79255377D01*
X153252381Y-79255377D02*
X153252381Y-79160139D01*
X153252381Y-79160139D02*
X153300000Y-79064901D01*
X153300000Y-79064901D02*
X153347619Y-79017282D01*
X153347619Y-79017282D02*
X153442857Y-78969663D01*
X153442857Y-78969663D02*
X153680952Y-78969663D01*
X153680952Y-78969663D02*
X153823809Y-79017282D01*
X154585714Y-79445853D02*
X154728571Y-79493472D01*
X154728571Y-79493472D02*
X154776190Y-79541091D01*
X154776190Y-79541091D02*
X154823809Y-79636329D01*
X154823809Y-79636329D02*
X154823809Y-79779186D01*
X154823809Y-79779186D02*
X154776190Y-79874424D01*
X154776190Y-79874424D02*
X154728571Y-79922044D01*
X154728571Y-79922044D02*
X154633333Y-79969663D01*
X154633333Y-79969663D02*
X154252381Y-79969663D01*
X154252381Y-79969663D02*
X154252381Y-78969663D01*
X154252381Y-78969663D02*
X154585714Y-78969663D01*
X154585714Y-78969663D02*
X154680952Y-79017282D01*
X154680952Y-79017282D02*
X154728571Y-79064901D01*
X154728571Y-79064901D02*
X154776190Y-79160139D01*
X154776190Y-79160139D02*
X154776190Y-79255377D01*
X154776190Y-79255377D02*
X154728571Y-79350615D01*
X154728571Y-79350615D02*
X154680952Y-79398234D01*
X154680952Y-79398234D02*
X154585714Y-79445853D01*
X154585714Y-79445853D02*
X154252381Y-79445853D01*
X155252381Y-78969663D02*
X155252381Y-79779186D01*
X155252381Y-79779186D02*
X155300000Y-79874424D01*
X155300000Y-79874424D02*
X155347619Y-79922044D01*
X155347619Y-79922044D02*
X155442857Y-79969663D01*
X155442857Y-79969663D02*
X155633333Y-79969663D01*
X155633333Y-79969663D02*
X155728571Y-79922044D01*
X155728571Y-79922044D02*
X155776190Y-79874424D01*
X155776190Y-79874424D02*
X155823809Y-79779186D01*
X155823809Y-79779186D02*
X155823809Y-78969663D01*
X156252381Y-79922044D02*
X156395238Y-79969663D01*
X156395238Y-79969663D02*
X156633333Y-79969663D01*
X156633333Y-79969663D02*
X156728571Y-79922044D01*
X156728571Y-79922044D02*
X156776190Y-79874424D01*
X156776190Y-79874424D02*
X156823809Y-79779186D01*
X156823809Y-79779186D02*
X156823809Y-79683948D01*
X156823809Y-79683948D02*
X156776190Y-79588710D01*
X156776190Y-79588710D02*
X156728571Y-79541091D01*
X156728571Y-79541091D02*
X156633333Y-79493472D01*
X156633333Y-79493472D02*
X156442857Y-79445853D01*
X156442857Y-79445853D02*
X156347619Y-79398234D01*
X156347619Y-79398234D02*
X156300000Y-79350615D01*
X156300000Y-79350615D02*
X156252381Y-79255377D01*
X156252381Y-79255377D02*
X156252381Y-79160139D01*
X156252381Y-79160139D02*
X156300000Y-79064901D01*
X156300000Y-79064901D02*
X156347619Y-79017282D01*
X156347619Y-79017282D02*
X156442857Y-78969663D01*
X156442857Y-78969663D02*
X156680952Y-78969663D01*
X156680952Y-78969663D02*
X156823809Y-79017282D01*
X117838752Y-95188710D02*
X118600657Y-95188710D01*
X118219704Y-95569663D02*
X118219704Y-94807758D01*
X118981609Y-94569663D02*
X119600656Y-94569663D01*
X119600656Y-94569663D02*
X119267323Y-94950615D01*
X119267323Y-94950615D02*
X119410180Y-94950615D01*
X119410180Y-94950615D02*
X119505418Y-94998234D01*
X119505418Y-94998234D02*
X119553037Y-95045853D01*
X119553037Y-95045853D02*
X119600656Y-95141091D01*
X119600656Y-95141091D02*
X119600656Y-95379186D01*
X119600656Y-95379186D02*
X119553037Y-95474424D01*
X119553037Y-95474424D02*
X119505418Y-95522044D01*
X119505418Y-95522044D02*
X119410180Y-95569663D01*
X119410180Y-95569663D02*
X119124466Y-95569663D01*
X119124466Y-95569663D02*
X119029228Y-95522044D01*
X119029228Y-95522044D02*
X118981609Y-95474424D01*
X120029228Y-95474424D02*
X120076847Y-95522044D01*
X120076847Y-95522044D02*
X120029228Y-95569663D01*
X120029228Y-95569663D02*
X119981609Y-95522044D01*
X119981609Y-95522044D02*
X120029228Y-95474424D01*
X120029228Y-95474424D02*
X120029228Y-95569663D01*
X120410180Y-94569663D02*
X121029227Y-94569663D01*
X121029227Y-94569663D02*
X120695894Y-94950615D01*
X120695894Y-94950615D02*
X120838751Y-94950615D01*
X120838751Y-94950615D02*
X120933989Y-94998234D01*
X120933989Y-94998234D02*
X120981608Y-95045853D01*
X120981608Y-95045853D02*
X121029227Y-95141091D01*
X121029227Y-95141091D02*
X121029227Y-95379186D01*
X121029227Y-95379186D02*
X120981608Y-95474424D01*
X120981608Y-95474424D02*
X120933989Y-95522044D01*
X120933989Y-95522044D02*
X120838751Y-95569663D01*
X120838751Y-95569663D02*
X120553037Y-95569663D01*
X120553037Y-95569663D02*
X120457799Y-95522044D01*
X120457799Y-95522044D02*
X120410180Y-95474424D01*
X121314942Y-94569663D02*
X121648275Y-95569663D01*
X121648275Y-95569663D02*
X121981608Y-94569663D01*
X152093514Y-69254663D02*
X152760180Y-70254663D01*
X152760180Y-69254663D02*
X152093514Y-70254663D01*
X153141133Y-70254663D02*
X153141133Y-69254663D01*
X153141133Y-69254663D02*
X153474466Y-69968948D01*
X153474466Y-69968948D02*
X153807799Y-69254663D01*
X153807799Y-69254663D02*
X153807799Y-70254663D01*
X154283990Y-70254663D02*
X154283990Y-69254663D01*
X154617323Y-69254663D02*
X155188751Y-69254663D01*
X154903037Y-70254663D02*
X154903037Y-69254663D01*
X130020238Y-102954663D02*
X130020238Y-102287996D01*
X130020238Y-102383234D02*
X130067857Y-102335615D01*
X130067857Y-102335615D02*
X130163095Y-102287996D01*
X130163095Y-102287996D02*
X130305952Y-102287996D01*
X130305952Y-102287996D02*
X130401190Y-102335615D01*
X130401190Y-102335615D02*
X130448809Y-102430853D01*
X130448809Y-102430853D02*
X130448809Y-102954663D01*
X130448809Y-102430853D02*
X130496428Y-102335615D01*
X130496428Y-102335615D02*
X130591666Y-102287996D01*
X130591666Y-102287996D02*
X130734523Y-102287996D01*
X130734523Y-102287996D02*
X130829762Y-102335615D01*
X130829762Y-102335615D02*
X130877381Y-102430853D01*
X130877381Y-102430853D02*
X130877381Y-102954663D01*
X131496428Y-102954663D02*
X131401190Y-102907044D01*
X131401190Y-102907044D02*
X131353571Y-102859424D01*
X131353571Y-102859424D02*
X131305952Y-102764186D01*
X131305952Y-102764186D02*
X131305952Y-102478472D01*
X131305952Y-102478472D02*
X131353571Y-102383234D01*
X131353571Y-102383234D02*
X131401190Y-102335615D01*
X131401190Y-102335615D02*
X131496428Y-102287996D01*
X131496428Y-102287996D02*
X131639285Y-102287996D01*
X131639285Y-102287996D02*
X131734523Y-102335615D01*
X131734523Y-102335615D02*
X131782142Y-102383234D01*
X131782142Y-102383234D02*
X131829761Y-102478472D01*
X131829761Y-102478472D02*
X131829761Y-102764186D01*
X131829761Y-102764186D02*
X131782142Y-102859424D01*
X131782142Y-102859424D02*
X131734523Y-102907044D01*
X131734523Y-102907044D02*
X131639285Y-102954663D01*
X131639285Y-102954663D02*
X131496428Y-102954663D01*
X132115476Y-102287996D02*
X132496428Y-102287996D01*
X132258333Y-101954663D02*
X132258333Y-102811805D01*
X132258333Y-102811805D02*
X132305952Y-102907044D01*
X132305952Y-102907044D02*
X132401190Y-102954663D01*
X132401190Y-102954663D02*
X132496428Y-102954663D01*
X132972619Y-102954663D02*
X132877381Y-102907044D01*
X132877381Y-102907044D02*
X132829762Y-102859424D01*
X132829762Y-102859424D02*
X132782143Y-102764186D01*
X132782143Y-102764186D02*
X132782143Y-102478472D01*
X132782143Y-102478472D02*
X132829762Y-102383234D01*
X132829762Y-102383234D02*
X132877381Y-102335615D01*
X132877381Y-102335615D02*
X132972619Y-102287996D01*
X132972619Y-102287996D02*
X133115476Y-102287996D01*
X133115476Y-102287996D02*
X133210714Y-102335615D01*
X133210714Y-102335615D02*
X133258333Y-102383234D01*
X133258333Y-102383234D02*
X133305952Y-102478472D01*
X133305952Y-102478472D02*
X133305952Y-102764186D01*
X133305952Y-102764186D02*
X133258333Y-102859424D01*
X133258333Y-102859424D02*
X133210714Y-102907044D01*
X133210714Y-102907044D02*
X133115476Y-102954663D01*
X133115476Y-102954663D02*
X132972619Y-102954663D01*
X133734524Y-102954663D02*
X133734524Y-102287996D01*
X133734524Y-102478472D02*
X133782143Y-102383234D01*
X133782143Y-102383234D02*
X133829762Y-102335615D01*
X133829762Y-102335615D02*
X133925000Y-102287996D01*
X133925000Y-102287996D02*
X134020238Y-102287996D01*
X134258334Y-101954663D02*
X134877381Y-101954663D01*
X134877381Y-101954663D02*
X134544048Y-102335615D01*
X134544048Y-102335615D02*
X134686905Y-102335615D01*
X134686905Y-102335615D02*
X134782143Y-102383234D01*
X134782143Y-102383234D02*
X134829762Y-102430853D01*
X134829762Y-102430853D02*
X134877381Y-102526091D01*
X134877381Y-102526091D02*
X134877381Y-102764186D01*
X134877381Y-102764186D02*
X134829762Y-102859424D01*
X134829762Y-102859424D02*
X134782143Y-102907044D01*
X134782143Y-102907044D02*
X134686905Y-102954663D01*
X134686905Y-102954663D02*
X134401191Y-102954663D01*
X134401191Y-102954663D02*
X134305953Y-102907044D01*
X134305953Y-102907044D02*
X134258334Y-102859424D01*
X152522085Y-68230853D02*
X152664942Y-68278472D01*
X152664942Y-68278472D02*
X152712561Y-68326091D01*
X152712561Y-68326091D02*
X152760180Y-68421329D01*
X152760180Y-68421329D02*
X152760180Y-68564186D01*
X152760180Y-68564186D02*
X152712561Y-68659424D01*
X152712561Y-68659424D02*
X152664942Y-68707044D01*
X152664942Y-68707044D02*
X152569704Y-68754663D01*
X152569704Y-68754663D02*
X152188752Y-68754663D01*
X152188752Y-68754663D02*
X152188752Y-67754663D01*
X152188752Y-67754663D02*
X152522085Y-67754663D01*
X152522085Y-67754663D02*
X152617323Y-67802282D01*
X152617323Y-67802282D02*
X152664942Y-67849901D01*
X152664942Y-67849901D02*
X152712561Y-67945139D01*
X152712561Y-67945139D02*
X152712561Y-68040377D01*
X152712561Y-68040377D02*
X152664942Y-68135615D01*
X152664942Y-68135615D02*
X152617323Y-68183234D01*
X152617323Y-68183234D02*
X152522085Y-68230853D01*
X152522085Y-68230853D02*
X152188752Y-68230853D01*
X153188752Y-67754663D02*
X153188752Y-68564186D01*
X153188752Y-68564186D02*
X153236371Y-68659424D01*
X153236371Y-68659424D02*
X153283990Y-68707044D01*
X153283990Y-68707044D02*
X153379228Y-68754663D01*
X153379228Y-68754663D02*
X153569704Y-68754663D01*
X153569704Y-68754663D02*
X153664942Y-68707044D01*
X153664942Y-68707044D02*
X153712561Y-68659424D01*
X153712561Y-68659424D02*
X153760180Y-68564186D01*
X153760180Y-68564186D02*
X153760180Y-67754663D01*
X154188752Y-68707044D02*
X154331609Y-68754663D01*
X154331609Y-68754663D02*
X154569704Y-68754663D01*
X154569704Y-68754663D02*
X154664942Y-68707044D01*
X154664942Y-68707044D02*
X154712561Y-68659424D01*
X154712561Y-68659424D02*
X154760180Y-68564186D01*
X154760180Y-68564186D02*
X154760180Y-68468948D01*
X154760180Y-68468948D02*
X154712561Y-68373710D01*
X154712561Y-68373710D02*
X154664942Y-68326091D01*
X154664942Y-68326091D02*
X154569704Y-68278472D01*
X154569704Y-68278472D02*
X154379228Y-68230853D01*
X154379228Y-68230853D02*
X154283990Y-68183234D01*
X154283990Y-68183234D02*
X154236371Y-68135615D01*
X154236371Y-68135615D02*
X154188752Y-68040377D01*
X154188752Y-68040377D02*
X154188752Y-67945139D01*
X154188752Y-67945139D02*
X154236371Y-67849901D01*
X154236371Y-67849901D02*
X154283990Y-67802282D01*
X154283990Y-67802282D02*
X154379228Y-67754663D01*
X154379228Y-67754663D02*
X154617323Y-67754663D01*
X154617323Y-67754663D02*
X154760180Y-67802282D01*
X155379228Y-68278472D02*
X155379228Y-68754663D01*
X155045895Y-67754663D02*
X155379228Y-68278472D01*
X155379228Y-68278472D02*
X155712561Y-67754663D01*
X114009524Y-97654663D02*
X114104762Y-97654663D01*
X114104762Y-97654663D02*
X114200000Y-97702282D01*
X114200000Y-97702282D02*
X114247619Y-97749901D01*
X114247619Y-97749901D02*
X114295238Y-97845139D01*
X114295238Y-97845139D02*
X114342857Y-98035615D01*
X114342857Y-98035615D02*
X114342857Y-98273710D01*
X114342857Y-98273710D02*
X114295238Y-98464186D01*
X114295238Y-98464186D02*
X114247619Y-98559424D01*
X114247619Y-98559424D02*
X114200000Y-98607044D01*
X114200000Y-98607044D02*
X114104762Y-98654663D01*
X114104762Y-98654663D02*
X114009524Y-98654663D01*
X114009524Y-98654663D02*
X113914286Y-98607044D01*
X113914286Y-98607044D02*
X113866667Y-98559424D01*
X113866667Y-98559424D02*
X113819048Y-98464186D01*
X113819048Y-98464186D02*
X113771429Y-98273710D01*
X113771429Y-98273710D02*
X113771429Y-98035615D01*
X113771429Y-98035615D02*
X113819048Y-97845139D01*
X113819048Y-97845139D02*
X113866667Y-97749901D01*
X113866667Y-97749901D02*
X113914286Y-97702282D01*
X113914286Y-97702282D02*
X114009524Y-97654663D01*
X114771429Y-98559424D02*
X114819048Y-98607044D01*
X114819048Y-98607044D02*
X114771429Y-98654663D01*
X114771429Y-98654663D02*
X114723810Y-98607044D01*
X114723810Y-98607044D02*
X114771429Y-98559424D01*
X114771429Y-98559424D02*
X114771429Y-98654663D01*
X115152381Y-97654663D02*
X115771428Y-97654663D01*
X115771428Y-97654663D02*
X115438095Y-98035615D01*
X115438095Y-98035615D02*
X115580952Y-98035615D01*
X115580952Y-98035615D02*
X115676190Y-98083234D01*
X115676190Y-98083234D02*
X115723809Y-98130853D01*
X115723809Y-98130853D02*
X115771428Y-98226091D01*
X115771428Y-98226091D02*
X115771428Y-98464186D01*
X115771428Y-98464186D02*
X115723809Y-98559424D01*
X115723809Y-98559424D02*
X115676190Y-98607044D01*
X115676190Y-98607044D02*
X115580952Y-98654663D01*
X115580952Y-98654663D02*
X115295238Y-98654663D01*
X115295238Y-98654663D02*
X115200000Y-98607044D01*
X115200000Y-98607044D02*
X115152381Y-98559424D01*
X116104762Y-97654663D02*
X116723809Y-97654663D01*
X116723809Y-97654663D02*
X116390476Y-98035615D01*
X116390476Y-98035615D02*
X116533333Y-98035615D01*
X116533333Y-98035615D02*
X116628571Y-98083234D01*
X116628571Y-98083234D02*
X116676190Y-98130853D01*
X116676190Y-98130853D02*
X116723809Y-98226091D01*
X116723809Y-98226091D02*
X116723809Y-98464186D01*
X116723809Y-98464186D02*
X116676190Y-98559424D01*
X116676190Y-98559424D02*
X116628571Y-98607044D01*
X116628571Y-98607044D02*
X116533333Y-98654663D01*
X116533333Y-98654663D02*
X116247619Y-98654663D01*
X116247619Y-98654663D02*
X116152381Y-98607044D01*
X116152381Y-98607044D02*
X116104762Y-98559424D01*
X117580952Y-97987996D02*
X117580952Y-98654663D01*
X117152381Y-97987996D02*
X117152381Y-98511805D01*
X117152381Y-98511805D02*
X117200000Y-98607044D01*
X117200000Y-98607044D02*
X117295238Y-98654663D01*
X117295238Y-98654663D02*
X117438095Y-98654663D01*
X117438095Y-98654663D02*
X117533333Y-98607044D01*
X117533333Y-98607044D02*
X117580952Y-98559424D01*
X130020238Y-110254663D02*
X130020238Y-109587996D01*
X130020238Y-109683234D02*
X130067857Y-109635615D01*
X130067857Y-109635615D02*
X130163095Y-109587996D01*
X130163095Y-109587996D02*
X130305952Y-109587996D01*
X130305952Y-109587996D02*
X130401190Y-109635615D01*
X130401190Y-109635615D02*
X130448809Y-109730853D01*
X130448809Y-109730853D02*
X130448809Y-110254663D01*
X130448809Y-109730853D02*
X130496428Y-109635615D01*
X130496428Y-109635615D02*
X130591666Y-109587996D01*
X130591666Y-109587996D02*
X130734523Y-109587996D01*
X130734523Y-109587996D02*
X130829762Y-109635615D01*
X130829762Y-109635615D02*
X130877381Y-109730853D01*
X130877381Y-109730853D02*
X130877381Y-110254663D01*
X131496428Y-110254663D02*
X131401190Y-110207044D01*
X131401190Y-110207044D02*
X131353571Y-110159424D01*
X131353571Y-110159424D02*
X131305952Y-110064186D01*
X131305952Y-110064186D02*
X131305952Y-109778472D01*
X131305952Y-109778472D02*
X131353571Y-109683234D01*
X131353571Y-109683234D02*
X131401190Y-109635615D01*
X131401190Y-109635615D02*
X131496428Y-109587996D01*
X131496428Y-109587996D02*
X131639285Y-109587996D01*
X131639285Y-109587996D02*
X131734523Y-109635615D01*
X131734523Y-109635615D02*
X131782142Y-109683234D01*
X131782142Y-109683234D02*
X131829761Y-109778472D01*
X131829761Y-109778472D02*
X131829761Y-110064186D01*
X131829761Y-110064186D02*
X131782142Y-110159424D01*
X131782142Y-110159424D02*
X131734523Y-110207044D01*
X131734523Y-110207044D02*
X131639285Y-110254663D01*
X131639285Y-110254663D02*
X131496428Y-110254663D01*
X132115476Y-109587996D02*
X132496428Y-109587996D01*
X132258333Y-109254663D02*
X132258333Y-110111805D01*
X132258333Y-110111805D02*
X132305952Y-110207044D01*
X132305952Y-110207044D02*
X132401190Y-110254663D01*
X132401190Y-110254663D02*
X132496428Y-110254663D01*
X132972619Y-110254663D02*
X132877381Y-110207044D01*
X132877381Y-110207044D02*
X132829762Y-110159424D01*
X132829762Y-110159424D02*
X132782143Y-110064186D01*
X132782143Y-110064186D02*
X132782143Y-109778472D01*
X132782143Y-109778472D02*
X132829762Y-109683234D01*
X132829762Y-109683234D02*
X132877381Y-109635615D01*
X132877381Y-109635615D02*
X132972619Y-109587996D01*
X132972619Y-109587996D02*
X133115476Y-109587996D01*
X133115476Y-109587996D02*
X133210714Y-109635615D01*
X133210714Y-109635615D02*
X133258333Y-109683234D01*
X133258333Y-109683234D02*
X133305952Y-109778472D01*
X133305952Y-109778472D02*
X133305952Y-110064186D01*
X133305952Y-110064186D02*
X133258333Y-110159424D01*
X133258333Y-110159424D02*
X133210714Y-110207044D01*
X133210714Y-110207044D02*
X133115476Y-110254663D01*
X133115476Y-110254663D02*
X132972619Y-110254663D01*
X133734524Y-110254663D02*
X133734524Y-109587996D01*
X133734524Y-109778472D02*
X133782143Y-109683234D01*
X133782143Y-109683234D02*
X133829762Y-109635615D01*
X133829762Y-109635615D02*
X133925000Y-109587996D01*
X133925000Y-109587996D02*
X134020238Y-109587996D01*
X134877381Y-110254663D02*
X134305953Y-110254663D01*
X134591667Y-110254663D02*
X134591667Y-109254663D01*
X134591667Y-109254663D02*
X134496429Y-109397520D01*
X134496429Y-109397520D02*
X134401191Y-109492758D01*
X134401191Y-109492758D02*
X134305953Y-109540377D01*
X124615476Y-117054663D02*
X124615476Y-116054663D01*
X124615476Y-116054663D02*
X124948809Y-116768948D01*
X124948809Y-116768948D02*
X125282142Y-116054663D01*
X125282142Y-116054663D02*
X125282142Y-117054663D01*
X126186904Y-116387996D02*
X126186904Y-117054663D01*
X125948809Y-116007044D02*
X125710714Y-116721329D01*
X125710714Y-116721329D02*
X126329761Y-116721329D01*
X119222618Y-78460853D02*
X119365475Y-78508472D01*
X119365475Y-78508472D02*
X119413094Y-78556091D01*
X119413094Y-78556091D02*
X119460713Y-78651329D01*
X119460713Y-78651329D02*
X119460713Y-78794186D01*
X119460713Y-78794186D02*
X119413094Y-78889424D01*
X119413094Y-78889424D02*
X119365475Y-78937044D01*
X119365475Y-78937044D02*
X119270237Y-78984663D01*
X119270237Y-78984663D02*
X118889285Y-78984663D01*
X118889285Y-78984663D02*
X118889285Y-77984663D01*
X118889285Y-77984663D02*
X119222618Y-77984663D01*
X119222618Y-77984663D02*
X119317856Y-78032282D01*
X119317856Y-78032282D02*
X119365475Y-78079901D01*
X119365475Y-78079901D02*
X119413094Y-78175139D01*
X119413094Y-78175139D02*
X119413094Y-78270377D01*
X119413094Y-78270377D02*
X119365475Y-78365615D01*
X119365475Y-78365615D02*
X119317856Y-78413234D01*
X119317856Y-78413234D02*
X119222618Y-78460853D01*
X119222618Y-78460853D02*
X118889285Y-78460853D01*
X120317856Y-78984663D02*
X120317856Y-78460853D01*
X120317856Y-78460853D02*
X120270237Y-78365615D01*
X120270237Y-78365615D02*
X120174999Y-78317996D01*
X120174999Y-78317996D02*
X119984523Y-78317996D01*
X119984523Y-78317996D02*
X119889285Y-78365615D01*
X120317856Y-78937044D02*
X120222618Y-78984663D01*
X120222618Y-78984663D02*
X119984523Y-78984663D01*
X119984523Y-78984663D02*
X119889285Y-78937044D01*
X119889285Y-78937044D02*
X119841666Y-78841805D01*
X119841666Y-78841805D02*
X119841666Y-78746567D01*
X119841666Y-78746567D02*
X119889285Y-78651329D01*
X119889285Y-78651329D02*
X119984523Y-78603710D01*
X119984523Y-78603710D02*
X120222618Y-78603710D01*
X120222618Y-78603710D02*
X120317856Y-78556091D01*
X120651190Y-78317996D02*
X121032142Y-78317996D01*
X120794047Y-77984663D02*
X120794047Y-78841805D01*
X120794047Y-78841805D02*
X120841666Y-78937044D01*
X120841666Y-78937044D02*
X120936904Y-78984663D01*
X120936904Y-78984663D02*
X121032142Y-78984663D01*
X121222619Y-78317996D02*
X121603571Y-78317996D01*
X121365476Y-77984663D02*
X121365476Y-78841805D01*
X121365476Y-78841805D02*
X121413095Y-78937044D01*
X121413095Y-78937044D02*
X121508333Y-78984663D01*
X121508333Y-78984663D02*
X121603571Y-78984663D01*
X152141133Y-73207044D02*
X152283990Y-73254663D01*
X152283990Y-73254663D02*
X152522085Y-73254663D01*
X152522085Y-73254663D02*
X152617323Y-73207044D01*
X152617323Y-73207044D02*
X152664942Y-73159424D01*
X152664942Y-73159424D02*
X152712561Y-73064186D01*
X152712561Y-73064186D02*
X152712561Y-72968948D01*
X152712561Y-72968948D02*
X152664942Y-72873710D01*
X152664942Y-72873710D02*
X152617323Y-72826091D01*
X152617323Y-72826091D02*
X152522085Y-72778472D01*
X152522085Y-72778472D02*
X152331609Y-72730853D01*
X152331609Y-72730853D02*
X152236371Y-72683234D01*
X152236371Y-72683234D02*
X152188752Y-72635615D01*
X152188752Y-72635615D02*
X152141133Y-72540377D01*
X152141133Y-72540377D02*
X152141133Y-72445139D01*
X152141133Y-72445139D02*
X152188752Y-72349901D01*
X152188752Y-72349901D02*
X152236371Y-72302282D01*
X152236371Y-72302282D02*
X152331609Y-72254663D01*
X152331609Y-72254663D02*
X152569704Y-72254663D01*
X152569704Y-72254663D02*
X152712561Y-72302282D01*
X152998276Y-72254663D02*
X153569704Y-72254663D01*
X153283990Y-73254663D02*
X153283990Y-72254663D01*
X153855419Y-72968948D02*
X154331609Y-72968948D01*
X153760181Y-73254663D02*
X154093514Y-72254663D01*
X154093514Y-72254663D02*
X154426847Y-73254663D01*
X154617324Y-72254663D02*
X155188752Y-72254663D01*
X154903038Y-73254663D02*
X154903038Y-72254663D01*
X155522086Y-72254663D02*
X155522086Y-73064186D01*
X155522086Y-73064186D02*
X155569705Y-73159424D01*
X155569705Y-73159424D02*
X155617324Y-73207044D01*
X155617324Y-73207044D02*
X155712562Y-73254663D01*
X155712562Y-73254663D02*
X155903038Y-73254663D01*
X155903038Y-73254663D02*
X155998276Y-73207044D01*
X155998276Y-73207044D02*
X156045895Y-73159424D01*
X156045895Y-73159424D02*
X156093514Y-73064186D01*
X156093514Y-73064186D02*
X156093514Y-72254663D01*
X156522086Y-73207044D02*
X156664943Y-73254663D01*
X156664943Y-73254663D02*
X156903038Y-73254663D01*
X156903038Y-73254663D02*
X156998276Y-73207044D01*
X156998276Y-73207044D02*
X157045895Y-73159424D01*
X157045895Y-73159424D02*
X157093514Y-73064186D01*
X157093514Y-73064186D02*
X157093514Y-72968948D01*
X157093514Y-72968948D02*
X157045895Y-72873710D01*
X157045895Y-72873710D02*
X156998276Y-72826091D01*
X156998276Y-72826091D02*
X156903038Y-72778472D01*
X156903038Y-72778472D02*
X156712562Y-72730853D01*
X156712562Y-72730853D02*
X156617324Y-72683234D01*
X156617324Y-72683234D02*
X156569705Y-72635615D01*
X156569705Y-72635615D02*
X156522086Y-72540377D01*
X156522086Y-72540377D02*
X156522086Y-72445139D01*
X156522086Y-72445139D02*
X156569705Y-72349901D01*
X156569705Y-72349901D02*
X156617324Y-72302282D01*
X156617324Y-72302282D02*
X156712562Y-72254663D01*
X156712562Y-72254663D02*
X156950657Y-72254663D01*
X156950657Y-72254663D02*
X157093514Y-72302282D01*
X137520238Y-102954663D02*
X137520238Y-102287996D01*
X137520238Y-102383234D02*
X137567857Y-102335615D01*
X137567857Y-102335615D02*
X137663095Y-102287996D01*
X137663095Y-102287996D02*
X137805952Y-102287996D01*
X137805952Y-102287996D02*
X137901190Y-102335615D01*
X137901190Y-102335615D02*
X137948809Y-102430853D01*
X137948809Y-102430853D02*
X137948809Y-102954663D01*
X137948809Y-102430853D02*
X137996428Y-102335615D01*
X137996428Y-102335615D02*
X138091666Y-102287996D01*
X138091666Y-102287996D02*
X138234523Y-102287996D01*
X138234523Y-102287996D02*
X138329762Y-102335615D01*
X138329762Y-102335615D02*
X138377381Y-102430853D01*
X138377381Y-102430853D02*
X138377381Y-102954663D01*
X138996428Y-102954663D02*
X138901190Y-102907044D01*
X138901190Y-102907044D02*
X138853571Y-102859424D01*
X138853571Y-102859424D02*
X138805952Y-102764186D01*
X138805952Y-102764186D02*
X138805952Y-102478472D01*
X138805952Y-102478472D02*
X138853571Y-102383234D01*
X138853571Y-102383234D02*
X138901190Y-102335615D01*
X138901190Y-102335615D02*
X138996428Y-102287996D01*
X138996428Y-102287996D02*
X139139285Y-102287996D01*
X139139285Y-102287996D02*
X139234523Y-102335615D01*
X139234523Y-102335615D02*
X139282142Y-102383234D01*
X139282142Y-102383234D02*
X139329761Y-102478472D01*
X139329761Y-102478472D02*
X139329761Y-102764186D01*
X139329761Y-102764186D02*
X139282142Y-102859424D01*
X139282142Y-102859424D02*
X139234523Y-102907044D01*
X139234523Y-102907044D02*
X139139285Y-102954663D01*
X139139285Y-102954663D02*
X138996428Y-102954663D01*
X139615476Y-102287996D02*
X139996428Y-102287996D01*
X139758333Y-101954663D02*
X139758333Y-102811805D01*
X139758333Y-102811805D02*
X139805952Y-102907044D01*
X139805952Y-102907044D02*
X139901190Y-102954663D01*
X139901190Y-102954663D02*
X139996428Y-102954663D01*
X140472619Y-102954663D02*
X140377381Y-102907044D01*
X140377381Y-102907044D02*
X140329762Y-102859424D01*
X140329762Y-102859424D02*
X140282143Y-102764186D01*
X140282143Y-102764186D02*
X140282143Y-102478472D01*
X140282143Y-102478472D02*
X140329762Y-102383234D01*
X140329762Y-102383234D02*
X140377381Y-102335615D01*
X140377381Y-102335615D02*
X140472619Y-102287996D01*
X140472619Y-102287996D02*
X140615476Y-102287996D01*
X140615476Y-102287996D02*
X140710714Y-102335615D01*
X140710714Y-102335615D02*
X140758333Y-102383234D01*
X140758333Y-102383234D02*
X140805952Y-102478472D01*
X140805952Y-102478472D02*
X140805952Y-102764186D01*
X140805952Y-102764186D02*
X140758333Y-102859424D01*
X140758333Y-102859424D02*
X140710714Y-102907044D01*
X140710714Y-102907044D02*
X140615476Y-102954663D01*
X140615476Y-102954663D02*
X140472619Y-102954663D01*
X141234524Y-102954663D02*
X141234524Y-102287996D01*
X141234524Y-102478472D02*
X141282143Y-102383234D01*
X141282143Y-102383234D02*
X141329762Y-102335615D01*
X141329762Y-102335615D02*
X141425000Y-102287996D01*
X141425000Y-102287996D02*
X141520238Y-102287996D01*
X142282143Y-102287996D02*
X142282143Y-102954663D01*
X142044048Y-101907044D02*
X141805953Y-102621329D01*
X141805953Y-102621329D02*
X142425000Y-102621329D01*
X124615476Y-112544663D02*
X124615476Y-111544663D01*
X124615476Y-111544663D02*
X124948809Y-112258948D01*
X124948809Y-112258948D02*
X125282142Y-111544663D01*
X125282142Y-111544663D02*
X125282142Y-112544663D01*
X126282142Y-112544663D02*
X125710714Y-112544663D01*
X125996428Y-112544663D02*
X125996428Y-111544663D01*
X125996428Y-111544663D02*
X125901190Y-111687520D01*
X125901190Y-111687520D02*
X125805952Y-111782758D01*
X125805952Y-111782758D02*
X125710714Y-111830377D01*
X124615476Y-115554663D02*
X124615476Y-114554663D01*
X124615476Y-114554663D02*
X124948809Y-115268948D01*
X124948809Y-115268948D02*
X125282142Y-114554663D01*
X125282142Y-114554663D02*
X125282142Y-115554663D01*
X125663095Y-114554663D02*
X126282142Y-114554663D01*
X126282142Y-114554663D02*
X125948809Y-114935615D01*
X125948809Y-114935615D02*
X126091666Y-114935615D01*
X126091666Y-114935615D02*
X126186904Y-114983234D01*
X126186904Y-114983234D02*
X126234523Y-115030853D01*
X126234523Y-115030853D02*
X126282142Y-115126091D01*
X126282142Y-115126091D02*
X126282142Y-115364186D01*
X126282142Y-115364186D02*
X126234523Y-115459424D01*
X126234523Y-115459424D02*
X126186904Y-115507044D01*
X126186904Y-115507044D02*
X126091666Y-115554663D01*
X126091666Y-115554663D02*
X125805952Y-115554663D01*
X125805952Y-115554663D02*
X125710714Y-115507044D01*
X125710714Y-115507044D02*
X125663095Y-115459424D01*
X121910713Y-82284663D02*
X121577380Y-81808472D01*
X121339285Y-82284663D02*
X121339285Y-81284663D01*
X121339285Y-81284663D02*
X121720237Y-81284663D01*
X121720237Y-81284663D02*
X121815475Y-81332282D01*
X121815475Y-81332282D02*
X121863094Y-81379901D01*
X121863094Y-81379901D02*
X121910713Y-81475139D01*
X121910713Y-81475139D02*
X121910713Y-81617996D01*
X121910713Y-81617996D02*
X121863094Y-81713234D01*
X121863094Y-81713234D02*
X121815475Y-81760853D01*
X121815475Y-81760853D02*
X121720237Y-81808472D01*
X121720237Y-81808472D02*
X121339285Y-81808472D01*
X122720237Y-82237044D02*
X122624999Y-82284663D01*
X122624999Y-82284663D02*
X122434523Y-82284663D01*
X122434523Y-82284663D02*
X122339285Y-82237044D01*
X122339285Y-82237044D02*
X122291666Y-82141805D01*
X122291666Y-82141805D02*
X122291666Y-81760853D01*
X122291666Y-81760853D02*
X122339285Y-81665615D01*
X122339285Y-81665615D02*
X122434523Y-81617996D01*
X122434523Y-81617996D02*
X122624999Y-81617996D01*
X122624999Y-81617996D02*
X122720237Y-81665615D01*
X122720237Y-81665615D02*
X122767856Y-81760853D01*
X122767856Y-81760853D02*
X122767856Y-81856091D01*
X122767856Y-81856091D02*
X122291666Y-81951329D01*
X123339285Y-82284663D02*
X123244047Y-82237044D01*
X123244047Y-82237044D02*
X123196428Y-82141805D01*
X123196428Y-82141805D02*
X123196428Y-81284663D01*
X124148809Y-82284663D02*
X124148809Y-81760853D01*
X124148809Y-81760853D02*
X124101190Y-81665615D01*
X124101190Y-81665615D02*
X124005952Y-81617996D01*
X124005952Y-81617996D02*
X123815476Y-81617996D01*
X123815476Y-81617996D02*
X123720238Y-81665615D01*
X124148809Y-82237044D02*
X124053571Y-82284663D01*
X124053571Y-82284663D02*
X123815476Y-82284663D01*
X123815476Y-82284663D02*
X123720238Y-82237044D01*
X123720238Y-82237044D02*
X123672619Y-82141805D01*
X123672619Y-82141805D02*
X123672619Y-82046567D01*
X123672619Y-82046567D02*
X123720238Y-81951329D01*
X123720238Y-81951329D02*
X123815476Y-81903710D01*
X123815476Y-81903710D02*
X124053571Y-81903710D01*
X124053571Y-81903710D02*
X124148809Y-81856091D01*
X124529762Y-81617996D02*
X124767857Y-82284663D01*
X125005952Y-81617996D02*
X124767857Y-82284663D01*
X124767857Y-82284663D02*
X124672619Y-82522758D01*
X124672619Y-82522758D02*
X124625000Y-82570377D01*
X124625000Y-82570377D02*
X124529762Y-82617996D01*
X146180952Y-113254663D02*
X146180952Y-112587996D01*
X146180952Y-112778472D02*
X146228571Y-112683234D01*
X146228571Y-112683234D02*
X146276190Y-112635615D01*
X146276190Y-112635615D02*
X146371428Y-112587996D01*
X146371428Y-112587996D02*
X146466666Y-112587996D01*
X147180952Y-113207044D02*
X147085714Y-113254663D01*
X147085714Y-113254663D02*
X146895238Y-113254663D01*
X146895238Y-113254663D02*
X146800000Y-113207044D01*
X146800000Y-113207044D02*
X146752381Y-113111805D01*
X146752381Y-113111805D02*
X146752381Y-112730853D01*
X146752381Y-112730853D02*
X146800000Y-112635615D01*
X146800000Y-112635615D02*
X146895238Y-112587996D01*
X146895238Y-112587996D02*
X147085714Y-112587996D01*
X147085714Y-112587996D02*
X147180952Y-112635615D01*
X147180952Y-112635615D02*
X147228571Y-112730853D01*
X147228571Y-112730853D02*
X147228571Y-112826091D01*
X147228571Y-112826091D02*
X146752381Y-112921329D01*
X147609524Y-113207044D02*
X147704762Y-113254663D01*
X147704762Y-113254663D02*
X147895238Y-113254663D01*
X147895238Y-113254663D02*
X147990476Y-113207044D01*
X147990476Y-113207044D02*
X148038095Y-113111805D01*
X148038095Y-113111805D02*
X148038095Y-113064186D01*
X148038095Y-113064186D02*
X147990476Y-112968948D01*
X147990476Y-112968948D02*
X147895238Y-112921329D01*
X147895238Y-112921329D02*
X147752381Y-112921329D01*
X147752381Y-112921329D02*
X147657143Y-112873710D01*
X147657143Y-112873710D02*
X147609524Y-112778472D01*
X147609524Y-112778472D02*
X147609524Y-112730853D01*
X147609524Y-112730853D02*
X147657143Y-112635615D01*
X147657143Y-112635615D02*
X147752381Y-112587996D01*
X147752381Y-112587996D02*
X147895238Y-112587996D01*
X147895238Y-112587996D02*
X147990476Y-112635615D01*
X148847619Y-113207044D02*
X148752381Y-113254663D01*
X148752381Y-113254663D02*
X148561905Y-113254663D01*
X148561905Y-113254663D02*
X148466667Y-113207044D01*
X148466667Y-113207044D02*
X148419048Y-113111805D01*
X148419048Y-113111805D02*
X148419048Y-112730853D01*
X148419048Y-112730853D02*
X148466667Y-112635615D01*
X148466667Y-112635615D02*
X148561905Y-112587996D01*
X148561905Y-112587996D02*
X148752381Y-112587996D01*
X148752381Y-112587996D02*
X148847619Y-112635615D01*
X148847619Y-112635615D02*
X148895238Y-112730853D01*
X148895238Y-112730853D02*
X148895238Y-112826091D01*
X148895238Y-112826091D02*
X148419048Y-112921329D01*
X149180953Y-112587996D02*
X149561905Y-112587996D01*
X149323810Y-112254663D02*
X149323810Y-113111805D01*
X149323810Y-113111805D02*
X149371429Y-113207044D01*
X149371429Y-113207044D02*
X149466667Y-113254663D01*
X149466667Y-113254663D02*
X149561905Y-113254663D01*
X140532142Y-69960853D02*
X140198809Y-69960853D01*
X140198809Y-70484663D02*
X140198809Y-69484663D01*
X140198809Y-69484663D02*
X140674999Y-69484663D01*
X141484523Y-69817996D02*
X141484523Y-70484663D01*
X141055952Y-69817996D02*
X141055952Y-70341805D01*
X141055952Y-70341805D02*
X141103571Y-70437044D01*
X141103571Y-70437044D02*
X141198809Y-70484663D01*
X141198809Y-70484663D02*
X141341666Y-70484663D01*
X141341666Y-70484663D02*
X141436904Y-70437044D01*
X141436904Y-70437044D02*
X141484523Y-70389424D01*
X141913095Y-70437044D02*
X142008333Y-70484663D01*
X142008333Y-70484663D02*
X142198809Y-70484663D01*
X142198809Y-70484663D02*
X142294047Y-70437044D01*
X142294047Y-70437044D02*
X142341666Y-70341805D01*
X142341666Y-70341805D02*
X142341666Y-70294186D01*
X142341666Y-70294186D02*
X142294047Y-70198948D01*
X142294047Y-70198948D02*
X142198809Y-70151329D01*
X142198809Y-70151329D02*
X142055952Y-70151329D01*
X142055952Y-70151329D02*
X141960714Y-70103710D01*
X141960714Y-70103710D02*
X141913095Y-70008472D01*
X141913095Y-70008472D02*
X141913095Y-69960853D01*
X141913095Y-69960853D02*
X141960714Y-69865615D01*
X141960714Y-69865615D02*
X142055952Y-69817996D01*
X142055952Y-69817996D02*
X142198809Y-69817996D01*
X142198809Y-69817996D02*
X142294047Y-69865615D01*
X143151190Y-70437044D02*
X143055952Y-70484663D01*
X143055952Y-70484663D02*
X142865476Y-70484663D01*
X142865476Y-70484663D02*
X142770238Y-70437044D01*
X142770238Y-70437044D02*
X142722619Y-70341805D01*
X142722619Y-70341805D02*
X142722619Y-69960853D01*
X142722619Y-69960853D02*
X142770238Y-69865615D01*
X142770238Y-69865615D02*
X142865476Y-69817996D01*
X142865476Y-69817996D02*
X143055952Y-69817996D01*
X143055952Y-69817996D02*
X143151190Y-69865615D01*
X143151190Y-69865615D02*
X143198809Y-69960853D01*
X143198809Y-69960853D02*
X143198809Y-70056091D01*
X143198809Y-70056091D02*
X142722619Y-70151329D01*
X150990476Y-78054663D02*
X150990476Y-77054663D01*
X151466666Y-78054663D02*
X151466666Y-77054663D01*
X151466666Y-77054663D02*
X151799999Y-77768948D01*
X151799999Y-77768948D02*
X152133332Y-77054663D01*
X152133332Y-77054663D02*
X152133332Y-78054663D01*
X152657142Y-78054663D02*
X152847618Y-78054663D01*
X152847618Y-78054663D02*
X152942856Y-78007044D01*
X152942856Y-78007044D02*
X152990475Y-77959424D01*
X152990475Y-77959424D02*
X153085713Y-77816567D01*
X153085713Y-77816567D02*
X153133332Y-77626091D01*
X153133332Y-77626091D02*
X153133332Y-77245139D01*
X153133332Y-77245139D02*
X153085713Y-77149901D01*
X153085713Y-77149901D02*
X153038094Y-77102282D01*
X153038094Y-77102282D02*
X152942856Y-77054663D01*
X152942856Y-77054663D02*
X152752380Y-77054663D01*
X152752380Y-77054663D02*
X152657142Y-77102282D01*
X152657142Y-77102282D02*
X152609523Y-77149901D01*
X152609523Y-77149901D02*
X152561904Y-77245139D01*
X152561904Y-77245139D02*
X152561904Y-77483234D01*
X152561904Y-77483234D02*
X152609523Y-77578472D01*
X152609523Y-77578472D02*
X152657142Y-77626091D01*
X152657142Y-77626091D02*
X152752380Y-77673710D01*
X152752380Y-77673710D02*
X152942856Y-77673710D01*
X152942856Y-77673710D02*
X153038094Y-77626091D01*
X153038094Y-77626091D02*
X153085713Y-77578472D01*
X153085713Y-77578472D02*
X153133332Y-77483234D01*
X153514285Y-77149901D02*
X153561904Y-77102282D01*
X153561904Y-77102282D02*
X153657142Y-77054663D01*
X153657142Y-77054663D02*
X153895237Y-77054663D01*
X153895237Y-77054663D02*
X153990475Y-77102282D01*
X153990475Y-77102282D02*
X154038094Y-77149901D01*
X154038094Y-77149901D02*
X154085713Y-77245139D01*
X154085713Y-77245139D02*
X154085713Y-77340377D01*
X154085713Y-77340377D02*
X154038094Y-77483234D01*
X154038094Y-77483234D02*
X153466666Y-78054663D01*
X153466666Y-78054663D02*
X154085713Y-78054663D01*
X154704761Y-77054663D02*
X154799999Y-77054663D01*
X154799999Y-77054663D02*
X154895237Y-77102282D01*
X154895237Y-77102282D02*
X154942856Y-77149901D01*
X154942856Y-77149901D02*
X154990475Y-77245139D01*
X154990475Y-77245139D02*
X155038094Y-77435615D01*
X155038094Y-77435615D02*
X155038094Y-77673710D01*
X155038094Y-77673710D02*
X154990475Y-77864186D01*
X154990475Y-77864186D02*
X154942856Y-77959424D01*
X154942856Y-77959424D02*
X154895237Y-78007044D01*
X154895237Y-78007044D02*
X154799999Y-78054663D01*
X154799999Y-78054663D02*
X154704761Y-78054663D01*
X154704761Y-78054663D02*
X154609523Y-78007044D01*
X154609523Y-78007044D02*
X154561904Y-77959424D01*
X154561904Y-77959424D02*
X154514285Y-77864186D01*
X154514285Y-77864186D02*
X154466666Y-77673710D01*
X154466666Y-77673710D02*
X154466666Y-77435615D01*
X154466666Y-77435615D02*
X154514285Y-77245139D01*
X154514285Y-77245139D02*
X154561904Y-77149901D01*
X154561904Y-77149901D02*
X154609523Y-77102282D01*
X154609523Y-77102282D02*
X154704761Y-77054663D01*
X155419047Y-78007044D02*
X155514285Y-78054663D01*
X155514285Y-78054663D02*
X155704761Y-78054663D01*
X155704761Y-78054663D02*
X155799999Y-78007044D01*
X155799999Y-78007044D02*
X155847618Y-77911805D01*
X155847618Y-77911805D02*
X155847618Y-77864186D01*
X155847618Y-77864186D02*
X155799999Y-77768948D01*
X155799999Y-77768948D02*
X155704761Y-77721329D01*
X155704761Y-77721329D02*
X155561904Y-77721329D01*
X155561904Y-77721329D02*
X155466666Y-77673710D01*
X155466666Y-77673710D02*
X155419047Y-77578472D01*
X155419047Y-77578472D02*
X155419047Y-77530853D01*
X155419047Y-77530853D02*
X155466666Y-77435615D01*
X155466666Y-77435615D02*
X155561904Y-77387996D01*
X155561904Y-77387996D02*
X155704761Y-77387996D01*
X155704761Y-77387996D02*
X155799999Y-77435615D01*
X156752380Y-78054663D02*
X156276190Y-78054663D01*
X156276190Y-78054663D02*
X156276190Y-77054663D01*
X153657142Y-113254663D02*
X153323809Y-112778472D01*
X153085714Y-113254663D02*
X153085714Y-112254663D01*
X153085714Y-112254663D02*
X153466666Y-112254663D01*
X153466666Y-112254663D02*
X153561904Y-112302282D01*
X153561904Y-112302282D02*
X153609523Y-112349901D01*
X153609523Y-112349901D02*
X153657142Y-112445139D01*
X153657142Y-112445139D02*
X153657142Y-112587996D01*
X153657142Y-112587996D02*
X153609523Y-112683234D01*
X153609523Y-112683234D02*
X153561904Y-112730853D01*
X153561904Y-112730853D02*
X153466666Y-112778472D01*
X153466666Y-112778472D02*
X153085714Y-112778472D01*
X154085714Y-112730853D02*
X154419047Y-112730853D01*
X154561904Y-113254663D02*
X154085714Y-113254663D01*
X154085714Y-113254663D02*
X154085714Y-112254663D01*
X154085714Y-112254663D02*
X154561904Y-112254663D01*
X155514285Y-112302282D02*
X155419047Y-112254663D01*
X155419047Y-112254663D02*
X155276190Y-112254663D01*
X155276190Y-112254663D02*
X155133333Y-112302282D01*
X155133333Y-112302282D02*
X155038095Y-112397520D01*
X155038095Y-112397520D02*
X154990476Y-112492758D01*
X154990476Y-112492758D02*
X154942857Y-112683234D01*
X154942857Y-112683234D02*
X154942857Y-112826091D01*
X154942857Y-112826091D02*
X154990476Y-113016567D01*
X154990476Y-113016567D02*
X155038095Y-113111805D01*
X155038095Y-113111805D02*
X155133333Y-113207044D01*
X155133333Y-113207044D02*
X155276190Y-113254663D01*
X155276190Y-113254663D02*
X155371428Y-113254663D01*
X155371428Y-113254663D02*
X155514285Y-113207044D01*
X155514285Y-113207044D02*
X155561904Y-113159424D01*
X155561904Y-113159424D02*
X155561904Y-112826091D01*
X155561904Y-112826091D02*
X155371428Y-112826091D01*
X121414286Y-84930853D02*
X121747619Y-84930853D01*
X121890476Y-85454663D02*
X121414286Y-85454663D01*
X121414286Y-85454663D02*
X121414286Y-84454663D01*
X121414286Y-84454663D02*
X121890476Y-84454663D01*
X122319048Y-85454663D02*
X122319048Y-84454663D01*
X122319048Y-84454663D02*
X122652381Y-85168948D01*
X122652381Y-85168948D02*
X122985714Y-84454663D01*
X122985714Y-84454663D02*
X122985714Y-85454663D01*
X124033333Y-85359424D02*
X123985714Y-85407044D01*
X123985714Y-85407044D02*
X123842857Y-85454663D01*
X123842857Y-85454663D02*
X123747619Y-85454663D01*
X123747619Y-85454663D02*
X123604762Y-85407044D01*
X123604762Y-85407044D02*
X123509524Y-85311805D01*
X123509524Y-85311805D02*
X123461905Y-85216567D01*
X123461905Y-85216567D02*
X123414286Y-85026091D01*
X123414286Y-85026091D02*
X123414286Y-84883234D01*
X123414286Y-84883234D02*
X123461905Y-84692758D01*
X123461905Y-84692758D02*
X123509524Y-84597520D01*
X123509524Y-84597520D02*
X123604762Y-84502282D01*
X123604762Y-84502282D02*
X123747619Y-84454663D01*
X123747619Y-84454663D02*
X123842857Y-84454663D01*
X123842857Y-84454663D02*
X123985714Y-84502282D01*
X123985714Y-84502282D02*
X124033333Y-84549901D01*
X161754663Y-97242856D02*
X161087996Y-97242856D01*
X160754663Y-97242856D02*
X160802282Y-97290475D01*
X160802282Y-97290475D02*
X160849901Y-97242856D01*
X160849901Y-97242856D02*
X160802282Y-97195237D01*
X160802282Y-97195237D02*
X160754663Y-97242856D01*
X160754663Y-97242856D02*
X160849901Y-97242856D01*
X161754663Y-96766666D02*
X161087996Y-96766666D01*
X161183234Y-96766666D02*
X161135615Y-96719047D01*
X161135615Y-96719047D02*
X161087996Y-96623809D01*
X161087996Y-96623809D02*
X161087996Y-96480952D01*
X161087996Y-96480952D02*
X161135615Y-96385714D01*
X161135615Y-96385714D02*
X161230853Y-96338095D01*
X161230853Y-96338095D02*
X161754663Y-96338095D01*
X161230853Y-96338095D02*
X161135615Y-96290476D01*
X161135615Y-96290476D02*
X161087996Y-96195238D01*
X161087996Y-96195238D02*
X161087996Y-96052381D01*
X161087996Y-96052381D02*
X161135615Y-95957142D01*
X161135615Y-95957142D02*
X161230853Y-95909523D01*
X161230853Y-95909523D02*
X161754663Y-95909523D01*
X161754663Y-95385714D02*
X161754663Y-95195238D01*
X161754663Y-95195238D02*
X161707044Y-95100000D01*
X161707044Y-95100000D02*
X161659424Y-95052381D01*
X161659424Y-95052381D02*
X161516567Y-94957143D01*
X161516567Y-94957143D02*
X161326091Y-94909524D01*
X161326091Y-94909524D02*
X160945139Y-94909524D01*
X160945139Y-94909524D02*
X160849901Y-94957143D01*
X160849901Y-94957143D02*
X160802282Y-95004762D01*
X160802282Y-95004762D02*
X160754663Y-95100000D01*
X160754663Y-95100000D02*
X160754663Y-95290476D01*
X160754663Y-95290476D02*
X160802282Y-95385714D01*
X160802282Y-95385714D02*
X160849901Y-95433333D01*
X160849901Y-95433333D02*
X160945139Y-95480952D01*
X160945139Y-95480952D02*
X161183234Y-95480952D01*
X161183234Y-95480952D02*
X161278472Y-95433333D01*
X161278472Y-95433333D02*
X161326091Y-95385714D01*
X161326091Y-95385714D02*
X161373710Y-95290476D01*
X161373710Y-95290476D02*
X161373710Y-95100000D01*
X161373710Y-95100000D02*
X161326091Y-95004762D01*
X161326091Y-95004762D02*
X161278472Y-94957143D01*
X161278472Y-94957143D02*
X161183234Y-94909524D01*
X160849901Y-94528571D02*
X160802282Y-94480952D01*
X160802282Y-94480952D02*
X160754663Y-94385714D01*
X160754663Y-94385714D02*
X160754663Y-94147619D01*
X160754663Y-94147619D02*
X160802282Y-94052381D01*
X160802282Y-94052381D02*
X160849901Y-94004762D01*
X160849901Y-94004762D02*
X160945139Y-93957143D01*
X160945139Y-93957143D02*
X161040377Y-93957143D01*
X161040377Y-93957143D02*
X161183234Y-94004762D01*
X161183234Y-94004762D02*
X161754663Y-94576190D01*
X161754663Y-94576190D02*
X161754663Y-93957143D01*
X160754663Y-93338095D02*
X160754663Y-93242857D01*
X160754663Y-93242857D02*
X160802282Y-93147619D01*
X160802282Y-93147619D02*
X160849901Y-93100000D01*
X160849901Y-93100000D02*
X160945139Y-93052381D01*
X160945139Y-93052381D02*
X161135615Y-93004762D01*
X161135615Y-93004762D02*
X161373710Y-93004762D01*
X161373710Y-93004762D02*
X161564186Y-93052381D01*
X161564186Y-93052381D02*
X161659424Y-93100000D01*
X161659424Y-93100000D02*
X161707044Y-93147619D01*
X161707044Y-93147619D02*
X161754663Y-93242857D01*
X161754663Y-93242857D02*
X161754663Y-93338095D01*
X161754663Y-93338095D02*
X161707044Y-93433333D01*
X161707044Y-93433333D02*
X161659424Y-93480952D01*
X161659424Y-93480952D02*
X161564186Y-93528571D01*
X161564186Y-93528571D02*
X161373710Y-93576190D01*
X161373710Y-93576190D02*
X161135615Y-93576190D01*
X161135615Y-93576190D02*
X160945139Y-93528571D01*
X160945139Y-93528571D02*
X160849901Y-93480952D01*
X160849901Y-93480952D02*
X160802282Y-93433333D01*
X160802282Y-93433333D02*
X160754663Y-93338095D01*
X161707044Y-92623809D02*
X161754663Y-92528571D01*
X161754663Y-92528571D02*
X161754663Y-92338095D01*
X161754663Y-92338095D02*
X161707044Y-92242857D01*
X161707044Y-92242857D02*
X161611805Y-92195238D01*
X161611805Y-92195238D02*
X161564186Y-92195238D01*
X161564186Y-92195238D02*
X161468948Y-92242857D01*
X161468948Y-92242857D02*
X161421329Y-92338095D01*
X161421329Y-92338095D02*
X161421329Y-92480952D01*
X161421329Y-92480952D02*
X161373710Y-92576190D01*
X161373710Y-92576190D02*
X161278472Y-92623809D01*
X161278472Y-92623809D02*
X161230853Y-92623809D01*
X161230853Y-92623809D02*
X161135615Y-92576190D01*
X161135615Y-92576190D02*
X161087996Y-92480952D01*
X161087996Y-92480952D02*
X161087996Y-92338095D01*
X161087996Y-92338095D02*
X161135615Y-92242857D01*
X161754663Y-91623809D02*
X161707044Y-91719047D01*
X161707044Y-91719047D02*
X161611805Y-91766666D01*
X161611805Y-91766666D02*
X160754663Y-91766666D01*
X161849901Y-91480952D02*
X161849901Y-90719047D01*
X160754663Y-90480951D02*
X161564186Y-90480951D01*
X161564186Y-90480951D02*
X161659424Y-90433332D01*
X161659424Y-90433332D02*
X161707044Y-90385713D01*
X161707044Y-90385713D02*
X161754663Y-90290475D01*
X161754663Y-90290475D02*
X161754663Y-90099999D01*
X161754663Y-90099999D02*
X161707044Y-90004761D01*
X161707044Y-90004761D02*
X161659424Y-89957142D01*
X161659424Y-89957142D02*
X161564186Y-89909523D01*
X161564186Y-89909523D02*
X160754663Y-89909523D01*
X161707044Y-89480951D02*
X161754663Y-89338094D01*
X161754663Y-89338094D02*
X161754663Y-89099999D01*
X161754663Y-89099999D02*
X161707044Y-89004761D01*
X161707044Y-89004761D02*
X161659424Y-88957142D01*
X161659424Y-88957142D02*
X161564186Y-88909523D01*
X161564186Y-88909523D02*
X161468948Y-88909523D01*
X161468948Y-88909523D02*
X161373710Y-88957142D01*
X161373710Y-88957142D02*
X161326091Y-89004761D01*
X161326091Y-89004761D02*
X161278472Y-89099999D01*
X161278472Y-89099999D02*
X161230853Y-89290475D01*
X161230853Y-89290475D02*
X161183234Y-89385713D01*
X161183234Y-89385713D02*
X161135615Y-89433332D01*
X161135615Y-89433332D02*
X161040377Y-89480951D01*
X161040377Y-89480951D02*
X160945139Y-89480951D01*
X160945139Y-89480951D02*
X160849901Y-89433332D01*
X160849901Y-89433332D02*
X160802282Y-89385713D01*
X160802282Y-89385713D02*
X160754663Y-89290475D01*
X160754663Y-89290475D02*
X160754663Y-89052380D01*
X160754663Y-89052380D02*
X160802282Y-88909523D01*
X161230853Y-88147618D02*
X161278472Y-88004761D01*
X161278472Y-88004761D02*
X161326091Y-87957142D01*
X161326091Y-87957142D02*
X161421329Y-87909523D01*
X161421329Y-87909523D02*
X161564186Y-87909523D01*
X161564186Y-87909523D02*
X161659424Y-87957142D01*
X161659424Y-87957142D02*
X161707044Y-88004761D01*
X161707044Y-88004761D02*
X161754663Y-88099999D01*
X161754663Y-88099999D02*
X161754663Y-88480951D01*
X161754663Y-88480951D02*
X160754663Y-88480951D01*
X160754663Y-88480951D02*
X160754663Y-88147618D01*
X160754663Y-88147618D02*
X160802282Y-88052380D01*
X160802282Y-88052380D02*
X160849901Y-88004761D01*
X160849901Y-88004761D02*
X160945139Y-87957142D01*
X160945139Y-87957142D02*
X161040377Y-87957142D01*
X161040377Y-87957142D02*
X161135615Y-88004761D01*
X161135615Y-88004761D02*
X161183234Y-88052380D01*
X161183234Y-88052380D02*
X161230853Y-88147618D01*
X161230853Y-88147618D02*
X161230853Y-88480951D01*
X152141133Y-71707044D02*
X152283990Y-71754663D01*
X152283990Y-71754663D02*
X152522085Y-71754663D01*
X152522085Y-71754663D02*
X152617323Y-71707044D01*
X152617323Y-71707044D02*
X152664942Y-71659424D01*
X152664942Y-71659424D02*
X152712561Y-71564186D01*
X152712561Y-71564186D02*
X152712561Y-71468948D01*
X152712561Y-71468948D02*
X152664942Y-71373710D01*
X152664942Y-71373710D02*
X152617323Y-71326091D01*
X152617323Y-71326091D02*
X152522085Y-71278472D01*
X152522085Y-71278472D02*
X152331609Y-71230853D01*
X152331609Y-71230853D02*
X152236371Y-71183234D01*
X152236371Y-71183234D02*
X152188752Y-71135615D01*
X152188752Y-71135615D02*
X152141133Y-71040377D01*
X152141133Y-71040377D02*
X152141133Y-70945139D01*
X152141133Y-70945139D02*
X152188752Y-70849901D01*
X152188752Y-70849901D02*
X152236371Y-70802282D01*
X152236371Y-70802282D02*
X152331609Y-70754663D01*
X152331609Y-70754663D02*
X152569704Y-70754663D01*
X152569704Y-70754663D02*
X152712561Y-70802282D01*
X153617323Y-71754663D02*
X153141133Y-71754663D01*
X153141133Y-71754663D02*
X153141133Y-70754663D01*
X153950657Y-71230853D02*
X154283990Y-71230853D01*
X154426847Y-71754663D02*
X153950657Y-71754663D01*
X153950657Y-71754663D02*
X153950657Y-70754663D01*
X153950657Y-70754663D02*
X154426847Y-70754663D01*
X154855419Y-71230853D02*
X155188752Y-71230853D01*
X155331609Y-71754663D02*
X154855419Y-71754663D01*
X154855419Y-71754663D02*
X154855419Y-70754663D01*
X154855419Y-70754663D02*
X155331609Y-70754663D01*
X155760181Y-71754663D02*
X155760181Y-70754663D01*
X155760181Y-70754663D02*
X156141133Y-70754663D01*
X156141133Y-70754663D02*
X156236371Y-70802282D01*
X156236371Y-70802282D02*
X156283990Y-70849901D01*
X156283990Y-70849901D02*
X156331609Y-70945139D01*
X156331609Y-70945139D02*
X156331609Y-71087996D01*
X156331609Y-71087996D02*
X156283990Y-71183234D01*
X156283990Y-71183234D02*
X156236371Y-71230853D01*
X156236371Y-71230853D02*
X156141133Y-71278472D01*
X156141133Y-71278472D02*
X155760181Y-71278472D01*
X137520238Y-110254663D02*
X137520238Y-109587996D01*
X137520238Y-109683234D02*
X137567857Y-109635615D01*
X137567857Y-109635615D02*
X137663095Y-109587996D01*
X137663095Y-109587996D02*
X137805952Y-109587996D01*
X137805952Y-109587996D02*
X137901190Y-109635615D01*
X137901190Y-109635615D02*
X137948809Y-109730853D01*
X137948809Y-109730853D02*
X137948809Y-110254663D01*
X137948809Y-109730853D02*
X137996428Y-109635615D01*
X137996428Y-109635615D02*
X138091666Y-109587996D01*
X138091666Y-109587996D02*
X138234523Y-109587996D01*
X138234523Y-109587996D02*
X138329762Y-109635615D01*
X138329762Y-109635615D02*
X138377381Y-109730853D01*
X138377381Y-109730853D02*
X138377381Y-110254663D01*
X138996428Y-110254663D02*
X138901190Y-110207044D01*
X138901190Y-110207044D02*
X138853571Y-110159424D01*
X138853571Y-110159424D02*
X138805952Y-110064186D01*
X138805952Y-110064186D02*
X138805952Y-109778472D01*
X138805952Y-109778472D02*
X138853571Y-109683234D01*
X138853571Y-109683234D02*
X138901190Y-109635615D01*
X138901190Y-109635615D02*
X138996428Y-109587996D01*
X138996428Y-109587996D02*
X139139285Y-109587996D01*
X139139285Y-109587996D02*
X139234523Y-109635615D01*
X139234523Y-109635615D02*
X139282142Y-109683234D01*
X139282142Y-109683234D02*
X139329761Y-109778472D01*
X139329761Y-109778472D02*
X139329761Y-110064186D01*
X139329761Y-110064186D02*
X139282142Y-110159424D01*
X139282142Y-110159424D02*
X139234523Y-110207044D01*
X139234523Y-110207044D02*
X139139285Y-110254663D01*
X139139285Y-110254663D02*
X138996428Y-110254663D01*
X139615476Y-109587996D02*
X139996428Y-109587996D01*
X139758333Y-109254663D02*
X139758333Y-110111805D01*
X139758333Y-110111805D02*
X139805952Y-110207044D01*
X139805952Y-110207044D02*
X139901190Y-110254663D01*
X139901190Y-110254663D02*
X139996428Y-110254663D01*
X140472619Y-110254663D02*
X140377381Y-110207044D01*
X140377381Y-110207044D02*
X140329762Y-110159424D01*
X140329762Y-110159424D02*
X140282143Y-110064186D01*
X140282143Y-110064186D02*
X140282143Y-109778472D01*
X140282143Y-109778472D02*
X140329762Y-109683234D01*
X140329762Y-109683234D02*
X140377381Y-109635615D01*
X140377381Y-109635615D02*
X140472619Y-109587996D01*
X140472619Y-109587996D02*
X140615476Y-109587996D01*
X140615476Y-109587996D02*
X140710714Y-109635615D01*
X140710714Y-109635615D02*
X140758333Y-109683234D01*
X140758333Y-109683234D02*
X140805952Y-109778472D01*
X140805952Y-109778472D02*
X140805952Y-110064186D01*
X140805952Y-110064186D02*
X140758333Y-110159424D01*
X140758333Y-110159424D02*
X140710714Y-110207044D01*
X140710714Y-110207044D02*
X140615476Y-110254663D01*
X140615476Y-110254663D02*
X140472619Y-110254663D01*
X141234524Y-110254663D02*
X141234524Y-109587996D01*
X141234524Y-109778472D02*
X141282143Y-109683234D01*
X141282143Y-109683234D02*
X141329762Y-109635615D01*
X141329762Y-109635615D02*
X141425000Y-109587996D01*
X141425000Y-109587996D02*
X141520238Y-109587996D01*
X141805953Y-109349901D02*
X141853572Y-109302282D01*
X141853572Y-109302282D02*
X141948810Y-109254663D01*
X141948810Y-109254663D02*
X142186905Y-109254663D01*
X142186905Y-109254663D02*
X142282143Y-109302282D01*
X142282143Y-109302282D02*
X142329762Y-109349901D01*
X142329762Y-109349901D02*
X142377381Y-109445139D01*
X142377381Y-109445139D02*
X142377381Y-109540377D01*
X142377381Y-109540377D02*
X142329762Y-109683234D01*
X142329762Y-109683234D02*
X141758334Y-110254663D01*
X141758334Y-110254663D02*
X142377381Y-110254663D01*
X124615476Y-114054663D02*
X124615476Y-113054663D01*
X124615476Y-113054663D02*
X124948809Y-113768948D01*
X124948809Y-113768948D02*
X125282142Y-113054663D01*
X125282142Y-113054663D02*
X125282142Y-114054663D01*
X125710714Y-113149901D02*
X125758333Y-113102282D01*
X125758333Y-113102282D02*
X125853571Y-113054663D01*
X125853571Y-113054663D02*
X126091666Y-113054663D01*
X126091666Y-113054663D02*
X126186904Y-113102282D01*
X126186904Y-113102282D02*
X126234523Y-113149901D01*
X126234523Y-113149901D02*
X126282142Y-113245139D01*
X126282142Y-113245139D02*
X126282142Y-113340377D01*
X126282142Y-113340377D02*
X126234523Y-113483234D01*
X126234523Y-113483234D02*
X125663095Y-114054663D01*
X125663095Y-114054663D02*
X126282142Y-114054663D01*
X127230853Y-92599999D02*
X127230853Y-92266666D01*
X127754663Y-92123809D02*
X127754663Y-92599999D01*
X127754663Y-92599999D02*
X126754663Y-92599999D01*
X126754663Y-92599999D02*
X126754663Y-92123809D01*
X127754663Y-91695237D02*
X126754663Y-91695237D01*
X126754663Y-91695237D02*
X127468948Y-91361904D01*
X127468948Y-91361904D02*
X126754663Y-91028571D01*
X126754663Y-91028571D02*
X127754663Y-91028571D01*
X127659424Y-89980952D02*
X127707044Y-90028571D01*
X127707044Y-90028571D02*
X127754663Y-90171428D01*
X127754663Y-90171428D02*
X127754663Y-90266666D01*
X127754663Y-90266666D02*
X127707044Y-90409523D01*
X127707044Y-90409523D02*
X127611805Y-90504761D01*
X127611805Y-90504761D02*
X127516567Y-90552380D01*
X127516567Y-90552380D02*
X127326091Y-90599999D01*
X127326091Y-90599999D02*
X127183234Y-90599999D01*
X127183234Y-90599999D02*
X126992758Y-90552380D01*
X126992758Y-90552380D02*
X126897520Y-90504761D01*
X126897520Y-90504761D02*
X126802282Y-90409523D01*
X126802282Y-90409523D02*
X126754663Y-90266666D01*
X126754663Y-90266666D02*
X126754663Y-90171428D01*
X126754663Y-90171428D02*
X126802282Y-90028571D01*
X126802282Y-90028571D02*
X126849901Y-89980952D01*
X127659424Y-89552380D02*
X127707044Y-89504761D01*
X127707044Y-89504761D02*
X127754663Y-89552380D01*
X127754663Y-89552380D02*
X127707044Y-89599999D01*
X127707044Y-89599999D02*
X127659424Y-89552380D01*
X127659424Y-89552380D02*
X127754663Y-89552380D01*
X127135615Y-89552380D02*
X127183234Y-89504761D01*
X127183234Y-89504761D02*
X127230853Y-89552380D01*
X127230853Y-89552380D02*
X127183234Y-89599999D01*
X127183234Y-89599999D02*
X127135615Y-89552380D01*
X127135615Y-89552380D02*
X127230853Y-89552380D01*
X127754663Y-89076190D02*
X126754663Y-89076190D01*
X126754663Y-89076190D02*
X126754663Y-88695238D01*
X126754663Y-88695238D02*
X126802282Y-88600000D01*
X126802282Y-88600000D02*
X126849901Y-88552381D01*
X126849901Y-88552381D02*
X126945139Y-88504762D01*
X126945139Y-88504762D02*
X127087996Y-88504762D01*
X127087996Y-88504762D02*
X127183234Y-88552381D01*
X127183234Y-88552381D02*
X127230853Y-88600000D01*
X127230853Y-88600000D02*
X127278472Y-88695238D01*
X127278472Y-88695238D02*
X127278472Y-89076190D01*
X127230853Y-87742857D02*
X127278472Y-87600000D01*
X127278472Y-87600000D02*
X127326091Y-87552381D01*
X127326091Y-87552381D02*
X127421329Y-87504762D01*
X127421329Y-87504762D02*
X127564186Y-87504762D01*
X127564186Y-87504762D02*
X127659424Y-87552381D01*
X127659424Y-87552381D02*
X127707044Y-87600000D01*
X127707044Y-87600000D02*
X127754663Y-87695238D01*
X127754663Y-87695238D02*
X127754663Y-88076190D01*
X127754663Y-88076190D02*
X126754663Y-88076190D01*
X126754663Y-88076190D02*
X126754663Y-87742857D01*
X126754663Y-87742857D02*
X126802282Y-87647619D01*
X126802282Y-87647619D02*
X126849901Y-87600000D01*
X126849901Y-87600000D02*
X126945139Y-87552381D01*
X126945139Y-87552381D02*
X127040377Y-87552381D01*
X127040377Y-87552381D02*
X127135615Y-87600000D01*
X127135615Y-87600000D02*
X127183234Y-87647619D01*
X127183234Y-87647619D02*
X127230853Y-87742857D01*
X127230853Y-87742857D02*
X127230853Y-88076190D01*
X127754663Y-87028571D02*
X127754663Y-86838095D01*
X127754663Y-86838095D02*
X127707044Y-86742857D01*
X127707044Y-86742857D02*
X127659424Y-86695238D01*
X127659424Y-86695238D02*
X127516567Y-86600000D01*
X127516567Y-86600000D02*
X127326091Y-86552381D01*
X127326091Y-86552381D02*
X126945139Y-86552381D01*
X126945139Y-86552381D02*
X126849901Y-86600000D01*
X126849901Y-86600000D02*
X126802282Y-86647619D01*
X126802282Y-86647619D02*
X126754663Y-86742857D01*
X126754663Y-86742857D02*
X126754663Y-86933333D01*
X126754663Y-86933333D02*
X126802282Y-87028571D01*
X126802282Y-87028571D02*
X126849901Y-87076190D01*
X126849901Y-87076190D02*
X126945139Y-87123809D01*
X126945139Y-87123809D02*
X127183234Y-87123809D01*
X127183234Y-87123809D02*
X127278472Y-87076190D01*
X127278472Y-87076190D02*
X127326091Y-87028571D01*
X127326091Y-87028571D02*
X127373710Y-86933333D01*
X127373710Y-86933333D02*
X127373710Y-86742857D01*
X127373710Y-86742857D02*
X127326091Y-86647619D01*
X127326091Y-86647619D02*
X127278472Y-86600000D01*
X127278472Y-86600000D02*
X127183234Y-86552381D01*
X117323810Y-101654663D02*
X117942857Y-101654663D01*
X117942857Y-101654663D02*
X117609524Y-102035615D01*
X117609524Y-102035615D02*
X117752381Y-102035615D01*
X117752381Y-102035615D02*
X117847619Y-102083234D01*
X117847619Y-102083234D02*
X117895238Y-102130853D01*
X117895238Y-102130853D02*
X117942857Y-102226091D01*
X117942857Y-102226091D02*
X117942857Y-102464186D01*
X117942857Y-102464186D02*
X117895238Y-102559424D01*
X117895238Y-102559424D02*
X117847619Y-102607044D01*
X117847619Y-102607044D02*
X117752381Y-102654663D01*
X117752381Y-102654663D02*
X117466667Y-102654663D01*
X117466667Y-102654663D02*
X117371429Y-102607044D01*
X117371429Y-102607044D02*
X117323810Y-102559424D01*
X118371429Y-102559424D02*
X118419048Y-102607044D01*
X118419048Y-102607044D02*
X118371429Y-102654663D01*
X118371429Y-102654663D02*
X118323810Y-102607044D01*
X118323810Y-102607044D02*
X118371429Y-102559424D01*
X118371429Y-102559424D02*
X118371429Y-102654663D01*
X118752381Y-101654663D02*
X119371428Y-101654663D01*
X119371428Y-101654663D02*
X119038095Y-102035615D01*
X119038095Y-102035615D02*
X119180952Y-102035615D01*
X119180952Y-102035615D02*
X119276190Y-102083234D01*
X119276190Y-102083234D02*
X119323809Y-102130853D01*
X119323809Y-102130853D02*
X119371428Y-102226091D01*
X119371428Y-102226091D02*
X119371428Y-102464186D01*
X119371428Y-102464186D02*
X119323809Y-102559424D01*
X119323809Y-102559424D02*
X119276190Y-102607044D01*
X119276190Y-102607044D02*
X119180952Y-102654663D01*
X119180952Y-102654663D02*
X118895238Y-102654663D01*
X118895238Y-102654663D02*
X118800000Y-102607044D01*
X118800000Y-102607044D02*
X118752381Y-102559424D01*
X119657143Y-101654663D02*
X119990476Y-102654663D01*
X119990476Y-102654663D02*
X120323809Y-101654663D01*
X128407142Y-72030853D02*
X128073809Y-72030853D01*
X128073809Y-72554663D02*
X128073809Y-71554663D01*
X128073809Y-71554663D02*
X128549999Y-71554663D01*
X129359523Y-71887996D02*
X129359523Y-72554663D01*
X128930952Y-71887996D02*
X128930952Y-72411805D01*
X128930952Y-72411805D02*
X128978571Y-72507044D01*
X128978571Y-72507044D02*
X129073809Y-72554663D01*
X129073809Y-72554663D02*
X129216666Y-72554663D01*
X129216666Y-72554663D02*
X129311904Y-72507044D01*
X129311904Y-72507044D02*
X129359523Y-72459424D01*
X129788095Y-72507044D02*
X129883333Y-72554663D01*
X129883333Y-72554663D02*
X130073809Y-72554663D01*
X130073809Y-72554663D02*
X130169047Y-72507044D01*
X130169047Y-72507044D02*
X130216666Y-72411805D01*
X130216666Y-72411805D02*
X130216666Y-72364186D01*
X130216666Y-72364186D02*
X130169047Y-72268948D01*
X130169047Y-72268948D02*
X130073809Y-72221329D01*
X130073809Y-72221329D02*
X129930952Y-72221329D01*
X129930952Y-72221329D02*
X129835714Y-72173710D01*
X129835714Y-72173710D02*
X129788095Y-72078472D01*
X129788095Y-72078472D02*
X129788095Y-72030853D01*
X129788095Y-72030853D02*
X129835714Y-71935615D01*
X129835714Y-71935615D02*
X129930952Y-71887996D01*
X129930952Y-71887996D02*
X130073809Y-71887996D01*
X130073809Y-71887996D02*
X130169047Y-71935615D01*
X131026190Y-72507044D02*
X130930952Y-72554663D01*
X130930952Y-72554663D02*
X130740476Y-72554663D01*
X130740476Y-72554663D02*
X130645238Y-72507044D01*
X130645238Y-72507044D02*
X130597619Y-72411805D01*
X130597619Y-72411805D02*
X130597619Y-72030853D01*
X130597619Y-72030853D02*
X130645238Y-71935615D01*
X130645238Y-71935615D02*
X130740476Y-71887996D01*
X130740476Y-71887996D02*
X130930952Y-71887996D01*
X130930952Y-71887996D02*
X131026190Y-71935615D01*
X131026190Y-71935615D02*
X131073809Y-72030853D01*
X131073809Y-72030853D02*
X131073809Y-72126091D01*
X131073809Y-72126091D02*
X130597619Y-72221329D01*
X116472619Y-104107044D02*
X116615476Y-104154663D01*
X116615476Y-104154663D02*
X116853571Y-104154663D01*
X116853571Y-104154663D02*
X116948809Y-104107044D01*
X116948809Y-104107044D02*
X116996428Y-104059424D01*
X116996428Y-104059424D02*
X117044047Y-103964186D01*
X117044047Y-103964186D02*
X117044047Y-103868948D01*
X117044047Y-103868948D02*
X116996428Y-103773710D01*
X116996428Y-103773710D02*
X116948809Y-103726091D01*
X116948809Y-103726091D02*
X116853571Y-103678472D01*
X116853571Y-103678472D02*
X116663095Y-103630853D01*
X116663095Y-103630853D02*
X116567857Y-103583234D01*
X116567857Y-103583234D02*
X116520238Y-103535615D01*
X116520238Y-103535615D02*
X116472619Y-103440377D01*
X116472619Y-103440377D02*
X116472619Y-103345139D01*
X116472619Y-103345139D02*
X116520238Y-103249901D01*
X116520238Y-103249901D02*
X116567857Y-103202282D01*
X116567857Y-103202282D02*
X116663095Y-103154663D01*
X116663095Y-103154663D02*
X116901190Y-103154663D01*
X116901190Y-103154663D02*
X117044047Y-103202282D01*
X117329762Y-103154663D02*
X117901190Y-103154663D01*
X117615476Y-104154663D02*
X117615476Y-103154663D01*
X118234524Y-103773710D02*
X118996429Y-103773710D01*
X119948809Y-104154663D02*
X119472619Y-104154663D01*
X119472619Y-104154663D02*
X119472619Y-103154663D01*
X120282143Y-104154663D02*
X120282143Y-103154663D01*
X120758333Y-104154663D02*
X120758333Y-103154663D01*
X120758333Y-103154663D02*
X121329761Y-104154663D01*
X121329761Y-104154663D02*
X121329761Y-103154663D01*
X121805952Y-104154663D02*
X121805952Y-103154663D01*
X122377380Y-104154663D02*
X121948809Y-103583234D01*
X122377380Y-103154663D02*
X121805952Y-103726091D01*
X113947619Y-96149901D02*
X113995238Y-96102282D01*
X113995238Y-96102282D02*
X114090476Y-96054663D01*
X114090476Y-96054663D02*
X114328571Y-96054663D01*
X114328571Y-96054663D02*
X114423809Y-96102282D01*
X114423809Y-96102282D02*
X114471428Y-96149901D01*
X114471428Y-96149901D02*
X114519047Y-96245139D01*
X114519047Y-96245139D02*
X114519047Y-96340377D01*
X114519047Y-96340377D02*
X114471428Y-96483234D01*
X114471428Y-96483234D02*
X113900000Y-97054663D01*
X113900000Y-97054663D02*
X114519047Y-97054663D01*
X114947619Y-96959424D02*
X114995238Y-97007044D01*
X114995238Y-97007044D02*
X114947619Y-97054663D01*
X114947619Y-97054663D02*
X114900000Y-97007044D01*
X114900000Y-97007044D02*
X114947619Y-96959424D01*
X114947619Y-96959424D02*
X114947619Y-97054663D01*
X115376190Y-96149901D02*
X115423809Y-96102282D01*
X115423809Y-96102282D02*
X115519047Y-96054663D01*
X115519047Y-96054663D02*
X115757142Y-96054663D01*
X115757142Y-96054663D02*
X115852380Y-96102282D01*
X115852380Y-96102282D02*
X115899999Y-96149901D01*
X115899999Y-96149901D02*
X115947618Y-96245139D01*
X115947618Y-96245139D02*
X115947618Y-96340377D01*
X115947618Y-96340377D02*
X115899999Y-96483234D01*
X115899999Y-96483234D02*
X115328571Y-97054663D01*
X115328571Y-97054663D02*
X115947618Y-97054663D01*
X116804761Y-96387996D02*
X116804761Y-97054663D01*
X116376190Y-96387996D02*
X116376190Y-96911805D01*
X116376190Y-96911805D02*
X116423809Y-97007044D01*
X116423809Y-97007044D02*
X116519047Y-97054663D01*
X116519047Y-97054663D02*
X116661904Y-97054663D01*
X116661904Y-97054663D02*
X116757142Y-97007044D01*
X116757142Y-97007044D02*
X116804761Y-96959424D01*
D12*
X148065000Y-69065000D02*
X148065000Y-70535000D01*
X148065000Y-70535000D02*
X150525000Y-70535000D01*
X150525000Y-69065000D02*
X148065000Y-69065000D01*
X135410000Y-105665000D02*
X135410000Y-104065000D01*
X135410000Y-104065000D02*
X133610000Y-104065000D01*
X134140000Y-108535000D02*
X130710000Y-108535000D01*
X133610000Y-104065000D02*
X133610000Y-103125000D01*
X129440000Y-105665000D02*
X129440000Y-104065000D01*
X129440000Y-104065000D02*
X131240000Y-104065000D01*
X148065000Y-67565000D02*
X148065000Y-69035000D01*
X148065000Y-69035000D02*
X150525000Y-69035000D01*
X150525000Y-67565000D02*
X148065000Y-67565000D01*
X115476248Y-98925000D02*
X115998752Y-98925000D01*
X115476248Y-100395000D02*
X115998752Y-100395000D01*
X135410000Y-112940000D02*
X135410000Y-111340000D01*
X135410000Y-111340000D02*
X133610000Y-111340000D01*
X134140000Y-115810000D02*
X130710000Y-115810000D01*
X133610000Y-111340000D02*
X133610000Y-110400000D01*
X129440000Y-112940000D02*
X129440000Y-111340000D01*
X129440000Y-111340000D02*
X131240000Y-111340000D01*
X123710000Y-117335000D02*
X123710000Y-115865000D01*
X123710000Y-115865000D02*
X121250000Y-115865000D01*
X121250000Y-117335000D02*
X123710000Y-117335000D01*
X118515000Y-76365000D02*
X118515000Y-77835000D01*
X118515000Y-77835000D02*
X120975000Y-77835000D01*
X120975000Y-76365000D02*
X118515000Y-76365000D01*
X148065000Y-72065000D02*
X148065000Y-73535000D01*
X148065000Y-73535000D02*
X150525000Y-73535000D01*
X150525000Y-72065000D02*
X148065000Y-72065000D01*
X142910000Y-105665000D02*
X142910000Y-104065000D01*
X142910000Y-104065000D02*
X141110000Y-104065000D01*
X141640000Y-108535000D02*
X138210000Y-108535000D01*
X141110000Y-104065000D02*
X141110000Y-103125000D01*
X136940000Y-105665000D02*
X136940000Y-104065000D01*
X136940000Y-104065000D02*
X138740000Y-104065000D01*
D10*
X163960000Y-73550000D02*
X143640000Y-73550000D01*
X163960000Y-73550000D02*
X163960000Y-111650000D01*
X143640000Y-73550000D02*
X143640000Y-76090000D01*
X163960000Y-111650000D02*
X143640000Y-111650000D01*
D12*
X129006000Y-80060000D02*
X126720000Y-81584000D01*
X129260000Y-78536000D02*
X129260000Y-79044000D01*
X129260000Y-81330000D02*
X129260000Y-81584000D01*
X136880000Y-78536000D02*
X136880000Y-81584000D01*
X136880000Y-80060000D02*
X129514000Y-80060000D01*
X125450000Y-76250000D02*
X138150000Y-76250000D01*
X138150000Y-76250000D02*
X138150000Y-83870000D01*
X138150000Y-83870000D02*
X125450000Y-83870000D01*
X125450000Y-83870000D02*
X125450000Y-76250000D01*
X129006000Y-79044000D02*
X129514000Y-79044000D01*
X129514000Y-79044000D02*
X129514000Y-81330000D01*
X129514000Y-81330000D02*
X129006000Y-81330000D01*
X129006000Y-81330000D02*
X129006000Y-79044000D01*
X123710000Y-112825000D02*
X123710000Y-111355000D01*
X123710000Y-111355000D02*
X121250000Y-111355000D01*
X121250000Y-112825000D02*
X123710000Y-112825000D01*
X123710000Y-115835000D02*
X123710000Y-114365000D01*
X123710000Y-114365000D02*
X121250000Y-114365000D01*
X121250000Y-115835000D02*
X123710000Y-115835000D01*
X121465000Y-79665000D02*
X121465000Y-81135000D01*
X121465000Y-81135000D02*
X123925000Y-81135000D01*
X123925000Y-79665000D02*
X121465000Y-79665000D01*
D10*
X145800000Y-114150000D02*
X145800000Y-116650000D01*
X145800000Y-116650000D02*
X149800000Y-116650000D01*
X149800000Y-114150000D02*
X145800000Y-114150000D01*
X149800000Y-116650000D02*
X149800000Y-114150000D01*
X148550000Y-115400000D02*
G75*
G03*
X148550000Y-115400000I-750000J0D01*
G01*
D12*
X140015000Y-67865000D02*
X140015000Y-69335000D01*
X140015000Y-69335000D02*
X142475000Y-69335000D01*
X142475000Y-67865000D02*
X140015000Y-67865000D01*
X143800000Y-78520000D02*
X159200000Y-78520000D01*
X144800000Y-81520000D02*
X144800000Y-99520000D01*
X144800000Y-99520000D02*
X162800000Y-99520000D01*
X146050000Y-102520000D02*
X147150000Y-102520000D01*
X146050000Y-106520000D02*
X147150000Y-106520000D01*
X152050000Y-105820000D02*
X152350000Y-105820000D01*
X152350000Y-105820000D02*
X152350000Y-106120000D01*
X153550000Y-102520000D02*
X152350000Y-102520000D01*
X153550000Y-106520000D02*
X152350000Y-106520000D01*
X158800000Y-81520000D02*
X144800000Y-81520000D01*
X158800000Y-82520000D02*
X158800000Y-81520000D01*
X159200000Y-79620000D02*
X159200000Y-78520000D01*
X161400000Y-78520000D02*
X163800000Y-78520000D01*
X161400000Y-79620000D02*
X161400000Y-78520000D01*
X162800000Y-82520000D02*
X158800000Y-82520000D01*
X162800000Y-99520000D02*
X162800000Y-82520000D01*
X163800000Y-78520000D02*
X163800000Y-108020000D01*
X163800000Y-108020000D02*
X143800000Y-108020000D01*
D13*
X146050000Y-102520000D02*
X146050000Y-102520000D01*
X146050000Y-102520000D02*
X146050000Y-106520000D01*
X146050000Y-106520000D02*
X146050000Y-106520000D01*
X146050000Y-106520000D02*
X146050000Y-102520000D01*
X153550000Y-102520000D02*
X153550000Y-102520000D01*
X153550000Y-102520000D02*
X153550000Y-106520000D01*
X153550000Y-106520000D02*
X153550000Y-106520000D01*
X153550000Y-106520000D02*
X153550000Y-102520000D01*
X159200000Y-79620000D02*
G75*
G03*
X161400000Y-79620000I1100000J0D01*
G01*
D12*
X161900000Y-105020000D02*
G75*
G03*
X161900000Y-105020000I-1100000J0D01*
G01*
D10*
X152300000Y-114150000D02*
X152300000Y-116650000D01*
X152300000Y-116650000D02*
X156300000Y-116650000D01*
X156300000Y-114150000D02*
X152300000Y-114150000D01*
X156300000Y-116650000D02*
X156300000Y-114150000D01*
X155050000Y-115400000D02*
G75*
G03*
X155050000Y-115400000I-750000J0D01*
G01*
D12*
X131515000Y-98460000D02*
X132465000Y-98460000D01*
X132465000Y-98460000D02*
X132465000Y-99800000D01*
X141735000Y-98460000D02*
X140785000Y-98460000D01*
X131515000Y-97510000D02*
X131515000Y-98460000D01*
X141735000Y-97510000D02*
X141735000Y-98460000D01*
X131515000Y-89190000D02*
X131515000Y-88240000D01*
X141735000Y-89190000D02*
X141735000Y-88240000D01*
X131515000Y-88240000D02*
X132465000Y-88240000D01*
X141735000Y-88240000D02*
X140785000Y-88240000D01*
X121465000Y-82765000D02*
X121465000Y-84235000D01*
X121465000Y-84235000D02*
X123925000Y-84235000D01*
X123925000Y-82765000D02*
X121465000Y-82765000D01*
X156680000Y-99960000D02*
X158660000Y-99960000D01*
X156680000Y-99960000D02*
X156680000Y-85240000D01*
X162360000Y-99960000D02*
X170900000Y-99960000D01*
X170900000Y-99960000D02*
X170900000Y-85240000D01*
X155800000Y-96600000D02*
X156300000Y-96100000D01*
X156300000Y-96100000D02*
X155800000Y-95600000D01*
X155800000Y-95600000D02*
X155800000Y-96600000D01*
X158660000Y-85240000D02*
X156680000Y-85240000D01*
X162360000Y-85240000D02*
X170900000Y-85240000D01*
X148065000Y-70565000D02*
X148065000Y-72035000D01*
X148065000Y-72035000D02*
X150525000Y-72035000D01*
X150525000Y-70565000D02*
X148065000Y-70565000D01*
X142910000Y-112940000D02*
X142910000Y-111340000D01*
X142910000Y-111340000D02*
X141110000Y-111340000D01*
X141640000Y-115810000D02*
X138210000Y-115810000D01*
X141110000Y-111340000D02*
X141110000Y-110400000D01*
X136940000Y-112940000D02*
X136940000Y-111340000D01*
X136940000Y-111340000D02*
X138740000Y-111340000D01*
X123710000Y-114335000D02*
X123710000Y-112865000D01*
X123710000Y-112865000D02*
X121250000Y-112865000D01*
X121250000Y-114335000D02*
X123710000Y-114335000D01*
D14*
X147350000Y-96650000D02*
X146450000Y-96650000D01*
X146100000Y-96600000D02*
X144900000Y-96600000D01*
X146100000Y-93700000D02*
X146100000Y-96600000D01*
X144900000Y-96600000D02*
X144900000Y-93700000D01*
X144900000Y-93700000D02*
X146100000Y-93700000D01*
D12*
X126210000Y-85740000D02*
X113390000Y-85740000D01*
X113390000Y-85740000D02*
X113390000Y-93460000D01*
X120700000Y-86400000D02*
X120700000Y-85740000D01*
X117290000Y-86400000D02*
X120700000Y-86400000D01*
X115690000Y-86850000D02*
X115690000Y-88000000D01*
X113390000Y-86850000D02*
X115690000Y-86850000D01*
X126210000Y-86960000D02*
X126210000Y-85740000D01*
X123310000Y-86960000D02*
X126210000Y-86960000D01*
X123310000Y-87240000D02*
X123310000Y-86960000D01*
X120700000Y-87500000D02*
X117290000Y-87500000D01*
X117290000Y-87500000D02*
X117290000Y-86400000D01*
X124300000Y-87950000D02*
X124300000Y-88750000D01*
X120700000Y-88000000D02*
X120700000Y-87500000D01*
X115690000Y-88000000D02*
X120700000Y-88000000D01*
X123900000Y-88350000D02*
X124300000Y-87950000D01*
X124300000Y-88750000D02*
X123900000Y-88350000D01*
X119300000Y-89200000D02*
X119300000Y-90000000D01*
X117500000Y-89200000D02*
X119300000Y-89200000D01*
X119300000Y-90000000D02*
X117500000Y-90000000D01*
X117500000Y-90000000D02*
X117500000Y-89200000D01*
X120700000Y-91200000D02*
X120700000Y-91700000D01*
X115690000Y-91200000D02*
X120700000Y-91200000D01*
X115690000Y-91200000D02*
X115690000Y-92350000D01*
X120700000Y-91700000D02*
X117290000Y-91700000D01*
X117290000Y-91700000D02*
X117290000Y-92800000D01*
X126210000Y-92240000D02*
X123310000Y-92240000D01*
X123310000Y-92240000D02*
X123310000Y-91960000D01*
X115690000Y-92350000D02*
X113390000Y-92350000D01*
X120700000Y-92800000D02*
X120700000Y-93460000D01*
X117290000Y-92800000D02*
X120700000Y-92800000D01*
X126210000Y-93460000D02*
X126210000Y-92240000D01*
X113390000Y-93460000D02*
X126210000Y-93460000D01*
X113765000Y-101465000D02*
X113765000Y-102935000D01*
X113765000Y-102935000D02*
X116225000Y-102935000D01*
X116225000Y-101465000D02*
X113765000Y-101465000D01*
X119650000Y-67450000D02*
X119650000Y-76250000D01*
X119650000Y-76250000D02*
X139450000Y-76250000D01*
X139450000Y-67450000D02*
X119650000Y-67450000D01*
X139450000Y-67450000D02*
X139450000Y-76250000D01*
X148430000Y-80770000D02*
X149760000Y-80770000D01*
X148430000Y-82100000D02*
X148430000Y-80770000D01*
X148430000Y-88450000D02*
X151090000Y-88450000D01*
X148430000Y-93530000D02*
X151090000Y-93530000D01*
X150970000Y-80770000D02*
X152300000Y-80770000D01*
X150970000Y-82100000D02*
X150970000Y-80770000D01*
X150970000Y-88450000D02*
X153630000Y-88450000D01*
X150970000Y-93530000D02*
X153630000Y-93530000D01*
X153510000Y-80770000D02*
X154840000Y-80770000D01*
X153510000Y-82100000D02*
X153510000Y-80770000D01*
X153510000Y-88450000D02*
X156170000Y-88450000D01*
X153510000Y-93530000D02*
X156170000Y-93530000D01*
X154840000Y-80830000D02*
X156364000Y-80830000D01*
X154840000Y-83370000D02*
X156364000Y-83370000D01*
X154840000Y-85910000D02*
X156364000Y-85910000D01*
X154840000Y-88450000D02*
X156364000Y-88450000D01*
X154840000Y-90990000D02*
X156364000Y-90990000D01*
X154840000Y-93530000D02*
X156364000Y-93530000D01*
X154840000Y-96070000D02*
X156364000Y-96070000D01*
X154840000Y-98610000D02*
X156364000Y-98610000D01*
X156364000Y-80830000D02*
X156364000Y-81084000D01*
X156364000Y-81084000D02*
X154840000Y-81084000D01*
X156364000Y-83370000D02*
X156364000Y-83624000D01*
X156364000Y-83624000D02*
X154840000Y-83624000D01*
X156364000Y-85910000D02*
X156364000Y-86164000D01*
X156364000Y-86164000D02*
X154840000Y-86164000D01*
X156364000Y-88450000D02*
X156364000Y-88704000D01*
X156364000Y-88704000D02*
X154840000Y-88704000D01*
X156364000Y-90990000D02*
X156364000Y-91244000D01*
X156364000Y-91244000D02*
X154840000Y-91244000D01*
X156364000Y-93530000D02*
X156364000Y-93784000D01*
X156364000Y-93784000D02*
X154840000Y-93784000D01*
X156364000Y-96070000D02*
X156364000Y-96324000D01*
X156364000Y-96324000D02*
X154840000Y-96324000D01*
X156364000Y-98610000D02*
X156364000Y-98864000D01*
X156364000Y-98864000D02*
X154840000Y-98864000D01*
X124910000Y-107290000D02*
X124910000Y-105690000D01*
X124910000Y-105690000D02*
X123110000Y-105690000D01*
X123640000Y-110160000D02*
X115210000Y-110160000D01*
X123110000Y-105690000D02*
X123110000Y-104750000D01*
X113940000Y-107290000D02*
X113940000Y-105690000D01*
X113940000Y-105690000D02*
X115740000Y-105690000D01*
G36*
X141200169Y-74789940D02*
G01*
X141193098Y-74789940D01*
X141193098Y-74782869D01*
X141200169Y-74782869D01*
X141200169Y-74789940D01*
G37*
G36*
X140959753Y-74507097D02*
G01*
X140952682Y-74507097D01*
X140952682Y-74500026D01*
X140959753Y-74500026D01*
X140959753Y-74507097D01*
G37*
G36*
X140980966Y-74485884D02*
G01*
X140973895Y-74485884D01*
X140973895Y-74478813D01*
X140980966Y-74478813D01*
X140980966Y-74485884D01*
G37*
G36*
X140967472Y-74765212D02*
G01*
X140969739Y-74769348D01*
X140968046Y-74772817D01*
X140957333Y-74764075D01*
X140948406Y-74752925D01*
X140952061Y-74751670D01*
X140967472Y-74765212D01*
G37*
G36*
X141437351Y-73339234D02*
G01*
X141446998Y-73355713D01*
X141459634Y-73385512D01*
X141476411Y-73430862D01*
X141488650Y-73465622D01*
X141536698Y-73633033D01*
X141565286Y-73802219D01*
X141574618Y-73971762D01*
X141564897Y-74140248D01*
X141536329Y-74306259D01*
X141489119Y-74468382D01*
X141423467Y-74625199D01*
X141339582Y-74775295D01*
X141288961Y-74850026D01*
X141255936Y-74891874D01*
X141212339Y-74941544D01*
X141162955Y-74994043D01*
X141112563Y-75044374D01*
X141065946Y-75087542D01*
X141043228Y-75106760D01*
X140984455Y-75150703D01*
X140914951Y-75197229D01*
X140842485Y-75241339D01*
X140785387Y-75272671D01*
X140744292Y-75292690D01*
X140697185Y-75313806D01*
X140647648Y-75334634D01*
X140599263Y-75353791D01*
X140555610Y-75369894D01*
X140520273Y-75381559D01*
X140496834Y-75387402D01*
X140489168Y-75387086D01*
X140486063Y-75372485D01*
X140487233Y-75341684D01*
X140492100Y-75297889D01*
X140497722Y-75260177D01*
X140500088Y-75244303D01*
X140510619Y-75184130D01*
X140523116Y-75120575D01*
X140537002Y-75056840D01*
X140551699Y-74996129D01*
X140566630Y-74941647D01*
X140573362Y-74919737D01*
X140589601Y-74870156D01*
X140604825Y-74826725D01*
X140620776Y-74785277D01*
X140639194Y-74741648D01*
X140661821Y-74691668D01*
X140682898Y-74647053D01*
X140876119Y-74647053D01*
X140885774Y-74694213D01*
X140914972Y-74755033D01*
X140957117Y-74800781D01*
X141011250Y-74830726D01*
X141076411Y-74844136D01*
X141083371Y-74844534D01*
X141150191Y-74838678D01*
X141207759Y-74815365D01*
X141254677Y-74775530D01*
X141289547Y-74720108D01*
X141297148Y-74701416D01*
X141309989Y-74639453D01*
X141304533Y-74579250D01*
X141282439Y-74523834D01*
X141245370Y-74476229D01*
X141194986Y-74439460D01*
X141141921Y-74418722D01*
X141081640Y-74412311D01*
X141024747Y-74423263D01*
X140973670Y-74448969D01*
X140930840Y-74486812D01*
X140898685Y-74534183D01*
X140879636Y-74588468D01*
X140876119Y-74647053D01*
X140682898Y-74647053D01*
X140690400Y-74631173D01*
X140717198Y-74575540D01*
X140873974Y-74263486D01*
X141035399Y-73966068D01*
X141204426Y-73677989D01*
X141327562Y-73481064D01*
X141357535Y-73434558D01*
X141384028Y-73393925D01*
X141405046Y-73362182D01*
X141418595Y-73342357D01*
X141422424Y-73337320D01*
X141429544Y-73333847D01*
X141437351Y-73339234D01*
G37*
G36*
X146067000Y-68499404D02*
G01*
X146078218Y-68532926D01*
X146091818Y-68581425D01*
X146107295Y-68642533D01*
X146124144Y-68713882D01*
X146141860Y-68793105D01*
X146159939Y-68877835D01*
X146177874Y-68965706D01*
X146195161Y-69054350D01*
X146211297Y-69141400D01*
X146225773Y-69224487D01*
X146238087Y-69301247D01*
X146247734Y-69369310D01*
X146247790Y-69369745D01*
X146255676Y-69429081D01*
X146263041Y-69481363D01*
X146269407Y-69523443D01*
X146274296Y-69552177D01*
X146277231Y-69564419D01*
X146277346Y-69564571D01*
X146288943Y-69567988D01*
X146315445Y-69572704D01*
X146351869Y-69577872D01*
X146365532Y-69579570D01*
X146413856Y-69585525D01*
X146472186Y-69592951D01*
X146530718Y-69600592D01*
X146553298Y-69603604D01*
X146613272Y-69612529D01*
X146682214Y-69624242D01*
X146757766Y-69638210D01*
X146837568Y-69653900D01*
X146919260Y-69670779D01*
X147000483Y-69688314D01*
X147078877Y-69705972D01*
X147152084Y-69723220D01*
X147217743Y-69739526D01*
X147273495Y-69754354D01*
X147316982Y-69767175D01*
X147345842Y-69777453D01*
X147357717Y-69784656D01*
X147357891Y-69785354D01*
X147348999Y-69790240D01*
X147325179Y-69799144D01*
X147290716Y-69810522D01*
X147271329Y-69816509D01*
X147112348Y-69860125D01*
X146939535Y-69899589D01*
X146758552Y-69933983D01*
X146575056Y-69962389D01*
X146394711Y-69983887D01*
X146223175Y-69997561D01*
X146130805Y-70001522D01*
X146015666Y-70004681D01*
X145888578Y-70131275D01*
X145833646Y-70186465D01*
X145791491Y-70230426D01*
X145760395Y-70265706D01*
X145738638Y-70294852D01*
X145724499Y-70320412D01*
X145716260Y-70344934D01*
X145712198Y-70370964D01*
X145710801Y-70394611D01*
X145697772Y-70522212D01*
X145668693Y-70651010D01*
X145631166Y-70759127D01*
X145616073Y-70795789D01*
X145608320Y-70755294D01*
X145601089Y-70730127D01*
X145587869Y-70694415D01*
X145570940Y-70653342D01*
X145552579Y-70612092D01*
X145535065Y-70575849D01*
X145520676Y-70549799D01*
X145514035Y-70540742D01*
X145500202Y-70539203D01*
X145479437Y-70548237D01*
X145478165Y-70549067D01*
X145461611Y-70562582D01*
X145433987Y-70587826D01*
X145398033Y-70622058D01*
X145356485Y-70662541D01*
X145312083Y-70706531D01*
X145267565Y-70751293D01*
X145225670Y-70794083D01*
X145189136Y-70832164D01*
X145160701Y-70862795D01*
X145143104Y-70883238D01*
X145140196Y-70887198D01*
X145132227Y-70902553D01*
X145129927Y-70919899D01*
X145133749Y-70944089D01*
X145144149Y-70979976D01*
X145150799Y-71000338D01*
X145176527Y-71084984D01*
X145193707Y-71160861D01*
X145203858Y-71236486D01*
X145208500Y-71320373D01*
X145208598Y-71324226D01*
X145206646Y-71429736D01*
X145194508Y-71524862D01*
X145171017Y-71617069D01*
X145156057Y-71660618D01*
X145140978Y-71700544D01*
X145129115Y-71726797D01*
X145116900Y-71744518D01*
X145100765Y-71758847D01*
X145077143Y-71774926D01*
X145076399Y-71775414D01*
X145049650Y-71792026D01*
X145030449Y-71802325D01*
X145023837Y-71804170D01*
X145022242Y-71793434D01*
X145020454Y-71766811D01*
X145018699Y-71728408D01*
X145017306Y-71686052D01*
X145008117Y-71567777D01*
X144987812Y-71451378D01*
X144957615Y-71342022D01*
X144918748Y-71244875D01*
X144907684Y-71222842D01*
X144889639Y-71191797D01*
X144874774Y-71177310D01*
X144858811Y-71177378D01*
X144837470Y-71190000D01*
X144837469Y-71190001D01*
X144817107Y-71206945D01*
X144786292Y-71235487D01*
X144748109Y-71272504D01*
X144705646Y-71314876D01*
X144661987Y-71359481D01*
X144620221Y-71403195D01*
X144583432Y-71442898D01*
X144554707Y-71475470D01*
X144551664Y-71479093D01*
X144507289Y-71532317D01*
X144545260Y-71649910D01*
X144561938Y-71704216D01*
X144577674Y-71760141D01*
X144590478Y-71810353D01*
X144597276Y-71841496D01*
X144615695Y-71990980D01*
X144615370Y-72143175D01*
X144596654Y-72294863D01*
X144559902Y-72442828D01*
X144518509Y-72554602D01*
X144479641Y-72645183D01*
X144399871Y-72693342D01*
X144320101Y-72741502D01*
X144342773Y-72658752D01*
X144367326Y-72556850D01*
X144382156Y-72462602D01*
X144388425Y-72366883D01*
X144388464Y-72299855D01*
X144383100Y-72208397D01*
X144371243Y-72117198D01*
X144353818Y-72029942D01*
X144331744Y-71950312D01*
X144305942Y-71881992D01*
X144277336Y-71828665D01*
X144267060Y-71814511D01*
X144239032Y-71779361D01*
X144070252Y-71948297D01*
X144009048Y-72009715D01*
X143960691Y-72058899D01*
X143923812Y-72097685D01*
X143897046Y-72127910D01*
X143879020Y-72151407D01*
X143868369Y-72170013D01*
X143863725Y-72185562D01*
X143863718Y-72199893D01*
X143866980Y-72214837D01*
X143868261Y-72219273D01*
X143876525Y-72247334D01*
X143888239Y-72287271D01*
X143901256Y-72331758D01*
X143905145Y-72345065D01*
X143940441Y-72499688D01*
X143955798Y-72653162D01*
X143951260Y-72805051D01*
X143926870Y-72954919D01*
X143882673Y-73102331D01*
X143818714Y-73246850D01*
X143812539Y-73258663D01*
X143790256Y-73297619D01*
X143770756Y-73323200D01*
X143749798Y-73340759D01*
X143745091Y-73343759D01*
X143711893Y-73364108D01*
X143734664Y-73280998D01*
X143762382Y-73144237D01*
X143773059Y-73000985D01*
X143766579Y-72855405D01*
X143749443Y-72742422D01*
X143733092Y-72672108D01*
X143713532Y-72605849D01*
X143691917Y-72546196D01*
X143669396Y-72495697D01*
X143647120Y-72456901D01*
X143626241Y-72432358D01*
X143607908Y-72424618D01*
X143606102Y-72424899D01*
X143593084Y-72433320D01*
X143568865Y-72453995D01*
X143535831Y-72484507D01*
X143496369Y-72522433D01*
X143452866Y-72565355D01*
X143407707Y-72610851D01*
X143363278Y-72656502D01*
X143321966Y-72699886D01*
X143286158Y-72738586D01*
X143258239Y-72770177D01*
X143240596Y-72792242D01*
X143235675Y-72800605D01*
X143234767Y-72821994D01*
X143239702Y-72857395D01*
X143249684Y-72901949D01*
X143255998Y-72925030D01*
X143293154Y-73082449D01*
X143311585Y-73234038D01*
X143311273Y-73381036D01*
X143292203Y-73524679D01*
X143254360Y-73666206D01*
X143245993Y-73690327D01*
X143214586Y-73777939D01*
X143151930Y-73817814D01*
X143121207Y-73836412D01*
X143097463Y-73849004D01*
X143085182Y-73853247D01*
X143084581Y-73852995D01*
X143083967Y-73841566D01*
X143086805Y-73815982D01*
X143092483Y-73781673D01*
X143092794Y-73780013D01*
X143104159Y-73685728D01*
X143105831Y-73579986D01*
X143098300Y-73468544D01*
X143082057Y-73357157D01*
X143057592Y-73251585D01*
X143044080Y-73207658D01*
X143024840Y-73158621D01*
X143003584Y-73118272D01*
X142982366Y-73089681D01*
X142963241Y-73075915D01*
X142955564Y-73075437D01*
X142943243Y-73083602D01*
X142919799Y-73103731D01*
X142887835Y-73133252D01*
X142849960Y-73169586D01*
X142808776Y-73210157D01*
X142766890Y-73252388D01*
X142726906Y-73293703D01*
X142691429Y-73331524D01*
X142663066Y-73363274D01*
X142655584Y-73372135D01*
X142632516Y-73401181D01*
X142620810Y-73420477D01*
X142618351Y-73435053D01*
X142622941Y-73449750D01*
X142631681Y-73479369D01*
X142634496Y-73503216D01*
X142636721Y-73524647D01*
X142642391Y-73560193D01*
X142650583Y-73604451D01*
X142658031Y-73641074D01*
X142675039Y-73750600D01*
X142681882Y-73865938D01*
X142678699Y-73981081D01*
X142665624Y-74090022D01*
X142645892Y-74176511D01*
X142629195Y-74233506D01*
X142570925Y-74269940D01*
X142541231Y-74288256D01*
X142518849Y-74301594D01*
X142508513Y-74307137D01*
X142508446Y-74307151D01*
X142505872Y-74298246D01*
X142502375Y-74273665D01*
X142498505Y-74237677D01*
X142496242Y-74212487D01*
X142488761Y-74144716D01*
X142477651Y-74072483D01*
X142463701Y-73998884D01*
X142447701Y-73927019D01*
X142430438Y-73859985D01*
X142412702Y-73800879D01*
X142395281Y-73752799D01*
X142378964Y-73718844D01*
X142366635Y-73703462D01*
X142354049Y-73697229D01*
X142341371Y-73701723D01*
X142323034Y-73719314D01*
X142318959Y-73723770D01*
X142297991Y-73746516D01*
X142281470Y-73763771D01*
X142277753Y-73767417D01*
X142268204Y-73776611D01*
X142246057Y-73798061D01*
X142213049Y-73830079D01*
X142170920Y-73870976D01*
X142121410Y-73919065D01*
X142066256Y-73972659D01*
X142021280Y-74016376D01*
X141775755Y-74255071D01*
X141786246Y-74163180D01*
X141796918Y-73982509D01*
X141788172Y-73801253D01*
X141760395Y-73621607D01*
X141713977Y-73445760D01*
X141649306Y-73275905D01*
X141616901Y-73207097D01*
X141594471Y-73158569D01*
X141583249Y-73125020D01*
X141582813Y-73105158D01*
X141583263Y-73104053D01*
X141592727Y-73088457D01*
X141611740Y-73060901D01*
X141638274Y-73024051D01*
X141670304Y-72980575D01*
X141705802Y-72933134D01*
X141742741Y-72884396D01*
X141779094Y-72837026D01*
X141812836Y-72793688D01*
X141841939Y-72757047D01*
X141864377Y-72729770D01*
X141878123Y-72714520D01*
X141881223Y-72712225D01*
X141892633Y-72720667D01*
X141911643Y-72744335D01*
X141936566Y-72780736D01*
X141965719Y-72827379D01*
X141997420Y-72881774D01*
X142005015Y-72895336D01*
X142067936Y-73018801D01*
X142125473Y-73151566D01*
X142166405Y-73263038D01*
X142180943Y-73305054D01*
X142193611Y-73338994D01*
X142202911Y-73361011D01*
X142207048Y-73367477D01*
X142213134Y-73358862D01*
X142223770Y-73336196D01*
X142236735Y-73304246D01*
X142237677Y-73301774D01*
X142255996Y-73255841D01*
X142277176Y-73206111D01*
X142291311Y-73174841D01*
X142306372Y-73140466D01*
X142312704Y-73116215D01*
X142311032Y-73094590D01*
X142302081Y-73068091D01*
X142301729Y-73067198D01*
X142277015Y-73009987D01*
X142244044Y-72941531D01*
X142205675Y-72867216D01*
X142164766Y-72792421D01*
X142124176Y-72722530D01*
X142087952Y-72664721D01*
X142060831Y-72622943D01*
X142038203Y-72586865D01*
X142022146Y-72559889D01*
X142014737Y-72545422D01*
X142014475Y-72544316D01*
X142020643Y-72533853D01*
X142038246Y-72510523D01*
X142065495Y-72476460D01*
X142100600Y-72433799D01*
X142141768Y-72384675D01*
X142187211Y-72331222D01*
X142235138Y-72275576D01*
X142283757Y-72219871D01*
X142331280Y-72166240D01*
X142336254Y-72160681D01*
X142418111Y-72069297D01*
X142444751Y-72095937D01*
X142477556Y-72133190D01*
X142517139Y-72185334D01*
X142561556Y-72249260D01*
X142608865Y-72321858D01*
X142657126Y-72400021D01*
X142704395Y-72480638D01*
X142748731Y-72560601D01*
X142788193Y-72636800D01*
X142807401Y-72676591D01*
X142829069Y-72722207D01*
X142848280Y-72761375D01*
X142863207Y-72790456D01*
X142872018Y-72805809D01*
X142872960Y-72806988D01*
X142877306Y-72808965D01*
X142883991Y-72806126D01*
X142894760Y-72796595D01*
X142911358Y-72778496D01*
X142935529Y-72749953D01*
X142969017Y-72709089D01*
X143002919Y-72667222D01*
X143022608Y-72641625D01*
X143030862Y-72624471D01*
X143029200Y-72608965D01*
X143020124Y-72590141D01*
X143008745Y-72568896D01*
X142990334Y-72534427D01*
X142967254Y-72491162D01*
X142941869Y-72443530D01*
X142936723Y-72433871D01*
X142885544Y-72342863D01*
X142825785Y-72244963D01*
X142761629Y-72146602D01*
X142697262Y-72054208D01*
X142640769Y-71979133D01*
X142575961Y-71897028D01*
X142762293Y-71717727D01*
X142812917Y-71669362D01*
X142859062Y-71625939D01*
X142898713Y-71589300D01*
X142929857Y-71561288D01*
X142950478Y-71543744D01*
X142958351Y-71538427D01*
X142970560Y-71546479D01*
X142991960Y-71569155D01*
X143020962Y-71604231D01*
X143055977Y-71649482D01*
X143095417Y-71702686D01*
X143137693Y-71761619D01*
X143181216Y-71824059D01*
X143224397Y-71887781D01*
X143265647Y-71950563D01*
X143303379Y-72010181D01*
X143336002Y-72064411D01*
X143343428Y-72077312D01*
X143367498Y-72117969D01*
X143389428Y-72152069D01*
X143406672Y-72175840D01*
X143416190Y-72185328D01*
X143424984Y-72186125D01*
X143437150Y-72179965D01*
X143455339Y-72164706D01*
X143482206Y-72138205D01*
X143508973Y-72110371D01*
X143586655Y-72028688D01*
X143566564Y-72006352D01*
X143551908Y-71987160D01*
X143531295Y-71956574D01*
X143508708Y-71920552D01*
X143504240Y-71913113D01*
X143447061Y-71821579D01*
X143380272Y-71722117D01*
X143308287Y-71621054D01*
X143235518Y-71524722D01*
X143217710Y-71502107D01*
X143121753Y-71381363D01*
X143186733Y-71325423D01*
X143229635Y-71288812D01*
X143277984Y-71248085D01*
X143328857Y-71205646D01*
X143379333Y-71163900D01*
X143426490Y-71125252D01*
X143467404Y-71092110D01*
X143499155Y-71066876D01*
X143518818Y-71051957D01*
X143519852Y-71051233D01*
X143548201Y-71031600D01*
X143615406Y-71107398D01*
X143675999Y-71180026D01*
X143743635Y-71268957D01*
X143816969Y-71372337D01*
X143894654Y-71488318D01*
X143912287Y-71515485D01*
X143941411Y-71559622D01*
X143967320Y-71597064D01*
X143987891Y-71624879D01*
X144001000Y-71640134D01*
X144004066Y-71642136D01*
X144014973Y-71635496D01*
X144036411Y-71617584D01*
X144064910Y-71591414D01*
X144086750Y-71570247D01*
X144159411Y-71498358D01*
X144122449Y-71436325D01*
X144096192Y-71394534D01*
X144060425Y-71340835D01*
X144017909Y-71279108D01*
X143971407Y-71213237D01*
X143923680Y-71147104D01*
X143877490Y-71084591D01*
X143835598Y-71029582D01*
X143810860Y-70998298D01*
X143779807Y-70959424D01*
X143759922Y-70932863D01*
X143749522Y-70915597D01*
X143746928Y-70904610D01*
X143750456Y-70896887D01*
X143752901Y-70894326D01*
X143765638Y-70885155D01*
X143792822Y-70867579D01*
X143831663Y-70843334D01*
X143879370Y-70814154D01*
X143933154Y-70781777D01*
X143949357Y-70772116D01*
X144009647Y-70736321D01*
X144055184Y-70709696D01*
X144088389Y-70691169D01*
X144111690Y-70679663D01*
X144127507Y-70674105D01*
X144138265Y-70673422D01*
X144146386Y-70676536D01*
X144153398Y-70681665D01*
X144169954Y-70698496D01*
X144195831Y-70729408D01*
X144229169Y-70771900D01*
X144268108Y-70823473D01*
X144310787Y-70881622D01*
X144355347Y-70943848D01*
X144399927Y-71007651D01*
X144442667Y-71070529D01*
X144442950Y-71070951D01*
X144477749Y-71122432D01*
X144503574Y-71159115D01*
X144522125Y-71183113D01*
X144535107Y-71196539D01*
X144544219Y-71201507D01*
X144548051Y-71201437D01*
X144565616Y-71193175D01*
X144591705Y-71176319D01*
X144621767Y-71154411D01*
X144651249Y-71130998D01*
X144675603Y-71109622D01*
X144690274Y-71093831D01*
X144692569Y-71088886D01*
X144686918Y-71074836D01*
X144671098Y-71047202D01*
X144646812Y-71008499D01*
X144615762Y-70961242D01*
X144579648Y-70907942D01*
X144540173Y-70851115D01*
X144499038Y-70793274D01*
X144457947Y-70736933D01*
X144421025Y-70687775D01*
X144320884Y-70556719D01*
X144343873Y-70544365D01*
X144442216Y-70491600D01*
X144524082Y-70447872D01*
X144590544Y-70412619D01*
X144642674Y-70385285D01*
X144681545Y-70365308D01*
X144708227Y-70352131D01*
X144723793Y-70345196D01*
X144728582Y-70343758D01*
X144739219Y-70351363D01*
X144759430Y-70373574D01*
X144787664Y-70408375D01*
X144822366Y-70453752D01*
X144861986Y-70507692D01*
X144904970Y-70568181D01*
X144934899Y-70611399D01*
X144987335Y-70687908D01*
X145069526Y-70641929D01*
X145105032Y-70621817D01*
X145132825Y-70605600D01*
X145149080Y-70595535D01*
X145151718Y-70593426D01*
X145146152Y-70584175D01*
X145130913Y-70561841D01*
X145108180Y-70529448D01*
X145080136Y-70490019D01*
X145048962Y-70446577D01*
X145016840Y-70402146D01*
X144985953Y-70359751D01*
X144958481Y-70322413D01*
X144936607Y-70293157D01*
X144922512Y-70275008D01*
X144919137Y-70271114D01*
X144902148Y-70254124D01*
X145047698Y-70184007D01*
X145127269Y-70146322D01*
X145216146Y-70105337D01*
X145310235Y-70062853D01*
X145405443Y-70020674D01*
X145497677Y-69980598D01*
X145582845Y-69944431D01*
X145656856Y-69913972D01*
X145698233Y-69897627D01*
X145750790Y-69877026D01*
X145787304Y-69861510D01*
X145810538Y-69849371D01*
X145823256Y-69838897D01*
X145828226Y-69828378D01*
X145828324Y-69817144D01*
X145828422Y-69800220D01*
X145830112Y-69766975D01*
X145833118Y-69720999D01*
X145837164Y-69665886D01*
X145841973Y-69605224D01*
X145847267Y-69542608D01*
X145852769Y-69481627D01*
X145858205Y-69425872D01*
X145859305Y-69415231D01*
X145882230Y-69232457D01*
X145912976Y-69043663D01*
X145950009Y-68857294D01*
X145991796Y-68681797D01*
X145994058Y-68673171D01*
X146008857Y-68619519D01*
X146023553Y-68570616D01*
X146037059Y-68529663D01*
X146048285Y-68499861D01*
X146056143Y-68484411D01*
X146058669Y-68483223D01*
X146067000Y-68499404D01*
G37*
X115176248Y-94365000D02*
X115698752Y-94365000D01*
X115176248Y-95835000D02*
X115698752Y-95835000D01*
D15*
X146180000Y-110380000D03*
D16*
X148720000Y-110380000D03*
X151260000Y-110380000D03*
D17*
X153800000Y-110380000D03*
X156340000Y-110380000D03*
D16*
X158880000Y-110380000D03*
X161420000Y-110380000D03*
X161420000Y-74820000D03*
X158880000Y-74820000D03*
X156340000Y-74820000D03*
X153800000Y-74820000D03*
X151260000Y-74820000D03*
X148720000Y-74820000D03*
X146180000Y-74820000D03*
%LPC*%
D18*
X148850000Y-69800000D03*
X150600000Y-69800000D03*
D19*
X114040000Y-70310000D03*
X114684370Y-68754370D03*
X114684370Y-71865630D03*
X116240000Y-68110000D03*
D20*
X116240000Y-70310000D03*
D19*
X116240000Y-72510000D03*
X117795630Y-68754370D03*
X117795630Y-71865630D03*
X118440000Y-70310000D03*
D21*
X133050000Y-103975000D03*
X131800000Y-103975000D03*
D22*
X135112500Y-107375000D03*
D23*
X129737500Y-107325000D03*
D18*
X148850000Y-68300000D03*
X150600000Y-68300000D03*
D24*
X114600000Y-99660000D03*
X116875000Y-99660000D03*
D21*
X133050000Y-111250000D03*
X131800000Y-111250000D03*
D23*
X135112500Y-114600000D03*
X129737500Y-114600000D03*
D25*
X122925000Y-116600000D03*
X121175000Y-116600000D03*
D18*
X119300000Y-77100000D03*
X121050000Y-77100000D03*
D19*
X158310000Y-70310000D03*
X158954370Y-68754370D03*
X158954370Y-71865630D03*
X160510000Y-68110000D03*
D20*
X160510000Y-70310000D03*
D19*
X160510000Y-72510000D03*
X162065630Y-68754370D03*
X162065630Y-71865630D03*
X162710000Y-70310000D03*
D18*
X148850000Y-72800000D03*
X150600000Y-72800000D03*
D26*
X115800000Y-76100000D03*
D27*
X115800000Y-76100000D03*
D26*
X115800000Y-82600000D03*
D27*
X115800000Y-82600000D03*
D21*
X140550000Y-103975000D03*
X139300000Y-103975000D03*
D23*
X142612500Y-107325000D03*
X137237500Y-107325000D03*
D15*
X146180000Y-110380000D03*
D16*
X148720000Y-110380000D03*
X151260000Y-110380000D03*
D17*
X153800000Y-110380000D03*
X156340000Y-110380000D03*
D16*
X158880000Y-110380000D03*
X161420000Y-110380000D03*
X161420000Y-74820000D03*
X158880000Y-74820000D03*
X156340000Y-74820000D03*
X153800000Y-74820000D03*
X151260000Y-74820000D03*
X148720000Y-74820000D03*
X146180000Y-74820000D03*
D28*
X126720000Y-82600000D03*
X129260000Y-82600000D03*
X136880000Y-82600000D03*
X126720000Y-77520000D03*
X129260000Y-77520000D03*
X136880000Y-77520000D03*
D25*
X122925000Y-112090000D03*
X121175000Y-112090000D03*
D19*
X114010000Y-114610000D03*
X114654370Y-113054370D03*
X114654370Y-116165630D03*
X116210000Y-112410000D03*
D20*
X116210000Y-114610000D03*
D19*
X116210000Y-116810000D03*
X117765630Y-113054370D03*
X117765630Y-116165630D03*
X118410000Y-114610000D03*
D25*
X122925000Y-115100000D03*
X121175000Y-115100000D03*
D18*
X122250000Y-80400000D03*
X124000000Y-80400000D03*
D19*
X158310000Y-114610000D03*
X158954370Y-113054370D03*
X158954370Y-116165630D03*
X160510000Y-112410000D03*
D20*
X160510000Y-114610000D03*
D19*
X160510000Y-116810000D03*
X162065630Y-113054370D03*
X162065630Y-116165630D03*
X162710000Y-114610000D03*
D29*
X145500000Y-114150000D03*
X145500000Y-116650000D03*
X150100000Y-114150000D03*
X150100000Y-116650000D03*
D18*
X140800000Y-68600000D03*
X142550000Y-68600000D03*
D30*
X152050000Y-106470000D03*
X152050000Y-102570000D03*
D31*
X151500000Y-106470000D03*
X151500000Y-102570000D03*
X151000000Y-106470000D03*
X151000000Y-102570000D03*
X150500000Y-106470000D03*
X150500000Y-102570000D03*
X150000000Y-106470000D03*
X150000000Y-102570000D03*
X149500000Y-106470000D03*
X149500000Y-102570000D03*
X149000000Y-106470000D03*
X149000000Y-102570000D03*
X148500000Y-106470000D03*
X148500000Y-102570000D03*
X148000000Y-106470000D03*
X148000000Y-102570000D03*
D30*
X147450000Y-106470000D03*
X147450000Y-102570000D03*
D19*
X146900000Y-104520000D03*
X152600000Y-104520000D03*
D32*
X160300000Y-79620000D03*
X160800000Y-105020000D03*
D29*
X152000000Y-114150000D03*
X152000000Y-116650000D03*
X156600000Y-114150000D03*
X156600000Y-116650000D03*
D33*
X132875000Y-99025000D03*
X133375000Y-99025000D03*
X133875000Y-99025000D03*
X134375000Y-99025000D03*
X134875000Y-99025000D03*
X135375000Y-99025000D03*
X135875000Y-99025000D03*
X136375000Y-99025000D03*
X136875000Y-99025000D03*
X137375000Y-99025000D03*
X137875000Y-99025000D03*
X138375000Y-99025000D03*
X138875000Y-99025000D03*
X139375000Y-99025000D03*
X139875000Y-99025000D03*
X140375000Y-99025000D03*
D34*
X142300000Y-97100000D03*
X142300000Y-96600000D03*
X142300000Y-96100000D03*
X142300000Y-95600000D03*
X142300000Y-95100000D03*
X142300000Y-94600000D03*
X142300000Y-94100000D03*
X142300000Y-93600000D03*
X142300000Y-93100000D03*
X142300000Y-92600000D03*
X142300000Y-92100000D03*
X142300000Y-91600000D03*
X142300000Y-91100000D03*
X142300000Y-90600000D03*
X142300000Y-90100000D03*
X142300000Y-89600000D03*
D33*
X140375000Y-87675000D03*
X139875000Y-87675000D03*
X139375000Y-87675000D03*
X138875000Y-87675000D03*
X138375000Y-87675000D03*
X137875000Y-87675000D03*
X137375000Y-87675000D03*
X136875000Y-87675000D03*
X136375000Y-87675000D03*
X135875000Y-87675000D03*
X135375000Y-87675000D03*
X134875000Y-87675000D03*
X134375000Y-87675000D03*
X133875000Y-87675000D03*
X133375000Y-87675000D03*
X132875000Y-87675000D03*
D34*
X130950000Y-89600000D03*
X130950000Y-90100000D03*
X130950000Y-90600000D03*
X130950000Y-91100000D03*
X130950000Y-91600000D03*
X130950000Y-92100000D03*
X130950000Y-92600000D03*
X130950000Y-93100000D03*
X130950000Y-93600000D03*
X130950000Y-94100000D03*
X130950000Y-94600000D03*
X130950000Y-95100000D03*
X130950000Y-95600000D03*
X130950000Y-96100000D03*
X130950000Y-96600000D03*
X130950000Y-97100000D03*
D18*
X122250000Y-83500000D03*
X124000000Y-83500000D03*
D35*
X157800000Y-96100000D03*
D28*
X157800000Y-93600000D03*
X157800000Y-91600000D03*
X157800000Y-89100000D03*
D36*
X160510000Y-99170000D03*
X160510000Y-86030000D03*
D18*
X148850000Y-71300000D03*
X150600000Y-71300000D03*
D21*
X140550000Y-111250000D03*
X139300000Y-111250000D03*
D23*
X142612500Y-114600000D03*
X137237500Y-114600000D03*
D25*
X122925000Y-113600000D03*
X121175000Y-113600000D03*
D37*
X146900000Y-96100000D03*
X146900000Y-95150000D03*
X146900000Y-94200000D03*
X144100000Y-94200000D03*
X144100000Y-96100000D03*
D38*
X116200000Y-89600000D03*
D39*
X122700000Y-88350000D03*
D40*
X122700000Y-90850000D03*
D18*
X114550000Y-102200000D03*
X116300000Y-102200000D03*
D41*
X122800000Y-70150000D03*
X122800000Y-73550000D03*
X136300000Y-70150000D03*
X136300000Y-73550000D03*
D42*
X149760000Y-82100000D03*
D43*
X149760000Y-84640000D03*
X149760000Y-87180000D03*
X149760000Y-89720000D03*
X149760000Y-92260000D03*
X149760000Y-94800000D03*
X149760000Y-97340000D03*
X149760000Y-99880000D03*
D42*
X152300000Y-82100000D03*
D43*
X152300000Y-84640000D03*
X152300000Y-87180000D03*
X152300000Y-89720000D03*
X152300000Y-92260000D03*
X152300000Y-94800000D03*
X152300000Y-97340000D03*
X152300000Y-99880000D03*
D42*
X154840000Y-82100000D03*
D43*
X154840000Y-84640000D03*
X154840000Y-87180000D03*
X154840000Y-89720000D03*
X154840000Y-92260000D03*
X154840000Y-94800000D03*
X154840000Y-97340000D03*
X154840000Y-99880000D03*
D21*
X122550000Y-105600000D03*
X121300000Y-105600000D03*
X120050000Y-105600000D03*
X118800000Y-105600000D03*
X117550000Y-105600000D03*
X116300000Y-105600000D03*
D44*
X124400000Y-108950000D03*
X114450000Y-108950000D03*
D24*
X114300000Y-95100000D03*
X116575000Y-95100000D03*
%LPD*%
M02*
