M48
; DRILL file {KiCad 7.0.9} date Thu Sep 12 18:27:53 2024
; FORMAT={3:3/ absolute / metric / keep zeros}
; #@! TF.CreationDate,2024-09-12T18:27:53+09:00
; #@! TF.GenerationSoftware,Kicad,Pcbnew,7.0.9
; #@! TF.FileFunction,MixedPlating,1,2
FMAT,2
METRIC
; #@! TA.AperFunction,Plated,PTH,ViaDrill
T1C0.300
; #@! TA.AperFunction,Plated,PTH,ComponentDrill
T2C0.300
; #@! TA.AperFunction,Plated,PTH,ViaDrill
T3C0.400
; #@! TA.AperFunction,Plated,PTH,ComponentDrill
T4C0.600
; #@! TA.AperFunction,Plated,PTH,ComponentDrill
T5C0.762
; #@! TA.AperFunction,Plated,PTH,ComponentDrill
T6C0.800
; #@! TA.AperFunction,Plated,PTH,ComponentDrill
T7C0.920
; #@! TA.AperFunction,Plated,PTH,ComponentDrill
T8C0.950
; #@! TA.AperFunction,Plated,PTH,ComponentDrill
T9C1.000
; #@! TA.AperFunction,Plated,PTH,ComponentDrill
T10C1.500
; #@! TA.AperFunction,Plated,PTH,ComponentDrill
T11C2.200
; #@! TA.AperFunction,Plated,PTH,ComponentDrill
T12C2.300
; #@! TA.AperFunction,Plated,PTH,ComponentDrill
T13C3.200
; #@! TA.AperFunction,NonPlated,NPTH,ComponentDrill
T14C2.000
%
G90
G05
T1
X114300Y-095100
X114600Y-097400
X114600Y-099660
X115300Y-077850
X115300Y-080850
X116300Y-077850
X116300Y-080850
X116300Y-102200
X118175Y-107550
X119200Y-109220
X120300Y-079850
X120400Y-087600
X120800Y-107600
X121050Y-077100
X121175Y-112090
X121175Y-113600
X121175Y-115100
X121175Y-116600
X121300Y-105600
X121700Y-085600
X124000Y-080400
X124000Y-083500
X124300Y-111600
X124300Y-113100
X124300Y-116100
X124600Y-090600
X125300Y-090700
X125400Y-107700
X125900Y-091200
X126200Y-106900
X126500Y-091700
X126800Y-114600
X126820Y-068580
X126820Y-071120
X126820Y-073660
X126820Y-116840
X127000Y-092200
X127100Y-106200
X127600Y-093200
X128100Y-093700
X128100Y-105600
X128300Y-088100
X128500Y-094300
X128800Y-085100
X129300Y-095100
X129360Y-068580
X129360Y-071120
X129360Y-073660
X130925Y-104925
X130925Y-112250
X131300Y-085100
X131300Y-099600
X131900Y-073660
X131925Y-104600
X131925Y-111850
X132925Y-104600
X132925Y-111850
X133170Y-090170
X133170Y-091440
X133170Y-092710
X133170Y-093980
X133170Y-095250
X133170Y-096520
X133300Y-086100
X133300Y-100600
X134050Y-084850
X134440Y-090170
X134440Y-091440
X134440Y-092710
X134440Y-093980
X134440Y-095250
X134440Y-096520
X134800Y-084850
X135500Y-085400
X135710Y-090170
X135710Y-091440
X135710Y-092710
X135710Y-093980
X135710Y-095250
X135710Y-096520
X136800Y-086100
X136980Y-090170
X136980Y-091440
X136980Y-092710
X136980Y-095250
X136980Y-096520
X137550Y-086100
X138250Y-090170
X138250Y-091440
X138250Y-092710
X138250Y-093980
X138250Y-095250
X138380Y-084100
X138425Y-104925
X138425Y-112250
X138550Y-100350
X139000Y-097500
X139130Y-084100
X139425Y-104600
X139425Y-111850
X139520Y-071120
X139520Y-073660
X139520Y-090170
X139520Y-091440
X139520Y-092710
X139520Y-093980
X139520Y-095250
X139700Y-083500
X140425Y-104600
X140425Y-111850
X142060Y-071120
X142060Y-073660
X142500Y-086500
X142550Y-068600
X142880Y-078100
X143300Y-102200
X143300Y-103000
X144300Y-087100
X144300Y-090100
X144300Y-093100
X144300Y-096100
X144400Y-104200
X144600Y-068580
X144600Y-071120
X146500Y-102800
X146500Y-106300
X146900Y-088500
X147100Y-101500
X147140Y-068580
X147140Y-071120
X147140Y-081280
X147140Y-083820
X147600Y-100300
X147700Y-088500
X148000Y-107500
X148500Y-104500
X148600Y-099200
X148700Y-098100
X148800Y-115400
X150200Y-104500
X150600Y-068300
X150600Y-069800
X150600Y-071300
X150600Y-072800
X151500Y-104500
X151800Y-107600
X152220Y-068580
X154760Y-068580
X154760Y-071120
X154760Y-101600
X154760Y-104140
X154760Y-106680
X157300Y-076200
X157300Y-078740
X157300Y-101600
X157300Y-106680
X161800Y-096300
T2
X114010Y-114610
X114040Y-070310
X114654Y-113054
X114654Y-116166
X114684Y-068754
X114684Y-071866
X116210Y-112410
X116210Y-116810
X116240Y-068110
X116240Y-072510
X117766Y-113054
X117766Y-116166
X117796Y-068754
X117796Y-071866
X118410Y-114610
X118440Y-070310
X158310Y-070310
X158310Y-114610
X158954Y-068754
X158954Y-071866
X158954Y-113054
X158954Y-116166
X160510Y-068110
X160510Y-072510
X160510Y-112410
X160510Y-116810
X162066Y-068754
X162066Y-071866
X162066Y-113054
X162066Y-116166
X162710Y-070310
X162710Y-114610
T3
X119300Y-101100
X126685Y-085175
X141600Y-079900
T4
X146900Y-104520
X152600Y-104520
T5
X126720Y-077520
X126720Y-082600
X129260Y-077520
X129260Y-082600
X136880Y-077520
X136880Y-082600
T6
X146180Y-074820
X146180Y-110380
X148720Y-074820
X148720Y-110380
X151260Y-074820
X151260Y-110380
X153800Y-074820
X153800Y-110380
X156340Y-074820
X156340Y-110380
X158880Y-074820
X158880Y-110380
X161420Y-074820
X161420Y-110380
T7
X157800Y-089100
X157800Y-091600
X157800Y-093600
X157800Y-096100
T8
X122700Y-088350
X122700Y-090850
T9
X115800Y-076100
X115800Y-082600
X149760Y-082100
X149760Y-084640
X149760Y-087180
X149760Y-089720
X149760Y-092260
X149760Y-094800
X149760Y-097340
X149760Y-099880
X152300Y-082100
X152300Y-084640
X152300Y-087180
X152300Y-089720
X152300Y-092260
X152300Y-094800
X152300Y-097340
X152300Y-099880
X154840Y-082100
X154840Y-084640
X154840Y-087180
X154840Y-089720
X154840Y-092260
X154840Y-094800
X154840Y-097340
X154840Y-099880
T11
X160300Y-079620
X160800Y-105020
T12
X160510Y-086030
X160510Y-099170
T13
X116210Y-114610
X116240Y-070310
X160510Y-070310
X160510Y-114610
T10
G00X122650Y-070150
M15
G01X122950Y-070150
M16
G05
G00X122650Y-073550
M15
G01X122950Y-073550
M16
G05
G00X136150Y-070150
M15
G01X136450Y-070150
M16
G05
G00X136150Y-073550
M15
G01X136450Y-073550
M16
G05
T14
G00X116200Y-089200
M15
G01X116200Y-090000
M16
G05
T0
M30
