G04 #@! TF.GenerationSoftware,KiCad,Pcbnew,7.0.9*
G04 #@! TF.CreationDate,2024-09-12T18:27:50+09:00*
G04 #@! TF.ProjectId,YAMADAmain_ver2.0,59414d41-4441-46d6-9169-6e5f76657232,rev?*
G04 #@! TF.SameCoordinates,Original*
G04 #@! TF.FileFunction,Soldermask,Bot*
G04 #@! TF.FilePolarity,Negative*
%FSLAX46Y46*%
G04 Gerber Fmt 4.6, Leading zero omitted, Abs format (unit mm)*
G04 Created by KiCad (PCBNEW 7.0.9) date 2024-09-12 18:27:50*
%MOMM*%
%LPD*%
G01*
G04 APERTURE LIST*
G04 Aperture macros list*
%AMRoundRect*
0 Rectangle with rounded corners*
0 $1 Rounding radius*
0 $2 $3 $4 $5 $6 $7 $8 $9 X,Y pos of 4 corners*
0 Add a 4 corners polygon primitive as box body*
4,1,4,$2,$3,$4,$5,$6,$7,$8,$9,$2,$3,0*
0 Add four circle primitives for the rounded corners*
1,1,$1+$1,$2,$3*
1,1,$1+$1,$4,$5*
1,1,$1+$1,$6,$7*
1,1,$1+$1,$8,$9*
0 Add four rect primitives between the rounded corners*
20,1,$1+$1,$2,$3,$4,$5,0*
20,1,$1+$1,$4,$5,$6,$7,0*
20,1,$1+$1,$6,$7,$8,$9,0*
20,1,$1+$1,$8,$9,$2,$3,0*%
G04 Aperture macros list end*
%ADD10C,1.000000*%
%ADD11C,5.600000*%
%ADD12C,1.600000*%
%ADD13R,1.800000X2.200000*%
%ADD14O,1.800000X2.200000*%
%ADD15O,1.800000X1.900000*%
%ADD16C,1.524000*%
%ADD17C,5.000000*%
%ADD18R,1.524000X1.524000*%
%ADD19C,3.500000*%
%ADD20O,2.000000X2.800000*%
%ADD21RoundRect,0.250000X-0.725000X0.600000X-0.725000X-0.600000X0.725000X-0.600000X0.725000X0.600000X0*%
%ADD22O,1.950000X1.700000*%
%ADD23RoundRect,0.625000X-0.875000X-0.625000X0.875000X-0.625000X0.875000X0.625000X-0.875000X0.625000X0*%
%ADD24R,1.700000X1.700000*%
%ADD25O,1.700000X1.700000*%
%ADD26RoundRect,0.237500X-0.400000X-0.237500X0.400000X-0.237500X0.400000X0.237500X-0.400000X0.237500X0*%
%ADD27RoundRect,0.237500X0.400000X0.237500X-0.400000X0.237500X-0.400000X-0.237500X0.400000X-0.237500X0*%
%ADD28RoundRect,0.292875X-0.394625X-0.432125X0.394625X-0.432125X0.394625X0.432125X-0.394625X0.432125X0*%
%ADD29RoundRect,0.250000X0.337500X0.475000X-0.337500X0.475000X-0.337500X-0.475000X0.337500X-0.475000X0*%
%ADD30R,2.200000X1.200000*%
%ADD31R,6.400000X5.800000*%
%ADD32RoundRect,0.292875X-0.432125X0.394625X-0.432125X-0.394625X0.432125X-0.394625X0.432125X0.394625X0*%
%ADD33RoundRect,0.292875X0.394625X0.432125X-0.394625X0.432125X-0.394625X-0.432125X0.394625X-0.432125X0*%
%ADD34R,1.000000X1.000000*%
%ADD35R,1.000000X0.230000*%
%ADD36RoundRect,0.237500X-0.237500X0.400000X-0.237500X-0.400000X0.237500X-0.400000X0.237500X0.400000X0*%
%ADD37R,0.800000X1.800000*%
%ADD38RoundRect,0.225000X0.375000X-0.225000X0.375000X0.225000X-0.375000X0.225000X-0.375000X-0.225000X0*%
G04 APERTURE END LIST*
D10*
X114040000Y-70310000D03*
X114684370Y-68754370D03*
X114684370Y-71865630D03*
X116240000Y-68110000D03*
D11*
X116240000Y-70310000D03*
D10*
X116240000Y-72510000D03*
X117795630Y-68754370D03*
X117795630Y-71865630D03*
X118440000Y-70310000D03*
X158310000Y-70310000D03*
X158954370Y-68754370D03*
X158954370Y-71865630D03*
X160510000Y-68110000D03*
D11*
X160510000Y-70310000D03*
D10*
X160510000Y-72510000D03*
X162065630Y-68754370D03*
X162065630Y-71865630D03*
X162710000Y-70310000D03*
D12*
X115800000Y-76100000D03*
X115800000Y-82600000D03*
D13*
X146180000Y-110380000D03*
D14*
X148720000Y-110380000D03*
X151260000Y-110380000D03*
D15*
X153800000Y-110380000D03*
X156340000Y-110380000D03*
D14*
X158880000Y-110380000D03*
X161420000Y-110380000D03*
X161420000Y-74820000D03*
X158880000Y-74820000D03*
X156340000Y-74820000D03*
X153800000Y-74820000D03*
X151260000Y-74820000D03*
X148720000Y-74820000D03*
X146180000Y-74820000D03*
D16*
X126720000Y-82600000D03*
X129260000Y-82600000D03*
X136880000Y-82600000D03*
X126720000Y-77520000D03*
X129260000Y-77520000D03*
X136880000Y-77520000D03*
D10*
X114010000Y-114610000D03*
X114654370Y-113054370D03*
X114654370Y-116165630D03*
X116210000Y-112410000D03*
D11*
X116210000Y-114610000D03*
D10*
X116210000Y-116810000D03*
X117765630Y-113054370D03*
X117765630Y-116165630D03*
X118410000Y-114610000D03*
X158310000Y-114610000D03*
X158954370Y-113054370D03*
X158954370Y-116165630D03*
X160510000Y-112410000D03*
D11*
X160510000Y-114610000D03*
D10*
X160510000Y-116810000D03*
X162065630Y-113054370D03*
X162065630Y-116165630D03*
X162710000Y-114610000D03*
X146900000Y-104520000D03*
X152600000Y-104520000D03*
D17*
X160300000Y-79620000D03*
X160800000Y-105020000D03*
D18*
X157800000Y-96100000D03*
D16*
X157800000Y-93600000D03*
X157800000Y-91600000D03*
X157800000Y-89100000D03*
D19*
X160510000Y-99170000D03*
X160510000Y-86030000D03*
D20*
X116200000Y-89600000D03*
D21*
X122700000Y-88350000D03*
D22*
X122700000Y-90850000D03*
D23*
X122800000Y-70150000D03*
X122800000Y-73550000D03*
X136300000Y-70150000D03*
X136300000Y-73550000D03*
D24*
X149760000Y-82100000D03*
D25*
X149760000Y-84640000D03*
X149760000Y-87180000D03*
X149760000Y-89720000D03*
X149760000Y-92260000D03*
X149760000Y-94800000D03*
X149760000Y-97340000D03*
X149760000Y-99880000D03*
D24*
X152300000Y-82100000D03*
D25*
X152300000Y-84640000D03*
X152300000Y-87180000D03*
X152300000Y-89720000D03*
X152300000Y-92260000D03*
X152300000Y-94800000D03*
X152300000Y-97340000D03*
X152300000Y-99880000D03*
D24*
X154840000Y-82100000D03*
D25*
X154840000Y-84640000D03*
X154840000Y-87180000D03*
X154840000Y-89720000D03*
X154840000Y-92260000D03*
X154840000Y-94800000D03*
X154840000Y-97340000D03*
X154840000Y-99880000D03*
D26*
X148475000Y-71300000D03*
X150600000Y-71300000D03*
X148475000Y-72800000D03*
X150600000Y-72800000D03*
D27*
X124000000Y-83500000D03*
X121875000Y-83500000D03*
D28*
X144300000Y-87100000D03*
X146575000Y-87100000D03*
D29*
X133300000Y-70100000D03*
X131225000Y-70100000D03*
D30*
X114600000Y-99660000D03*
X114600000Y-97380000D03*
D31*
X120900000Y-97380000D03*
D30*
X114600000Y-95100000D03*
D26*
X159675000Y-96250000D03*
X161800000Y-96250000D03*
D32*
X115800000Y-78212500D03*
X115800000Y-80487500D03*
D28*
X133300000Y-86100000D03*
X135575000Y-86100000D03*
D33*
X131300000Y-85100000D03*
X129025000Y-85100000D03*
D34*
X120675000Y-107550000D03*
X118175000Y-107550000D03*
D35*
X134300000Y-104950000D03*
X134300000Y-105600000D03*
X134300000Y-106250000D03*
X134300000Y-106900000D03*
X130800000Y-106900000D03*
X130800000Y-106250000D03*
X130800000Y-105600000D03*
X130800000Y-104950000D03*
D28*
X138550000Y-100350000D03*
X140825000Y-100350000D03*
D26*
X121175000Y-115100000D03*
X123300000Y-115100000D03*
D36*
X144800000Y-114337500D03*
X144800000Y-116462500D03*
D28*
X144300000Y-96100000D03*
X146575000Y-96100000D03*
D26*
X140425000Y-68600000D03*
X142550000Y-68600000D03*
D37*
X161500000Y-94250000D03*
X159600000Y-94250000D03*
X160550000Y-90950000D03*
D28*
X144300000Y-90100000D03*
X146575000Y-90100000D03*
D26*
X148475000Y-68300000D03*
X150600000Y-68300000D03*
D27*
X124000000Y-80400000D03*
X121875000Y-80400000D03*
D28*
X144300000Y-93100000D03*
X146575000Y-93100000D03*
D26*
X121175000Y-116600000D03*
X123300000Y-116600000D03*
D33*
X131300000Y-99600000D03*
X129025000Y-99600000D03*
D35*
X141800000Y-112275000D03*
X141800000Y-112925000D03*
X141800000Y-113575000D03*
X141800000Y-114225000D03*
X138300000Y-114225000D03*
X138300000Y-113575000D03*
X138300000Y-112925000D03*
X138300000Y-112275000D03*
D26*
X121175000Y-113600000D03*
X123300000Y-113600000D03*
D27*
X161800000Y-89000000D03*
X159675000Y-89000000D03*
D35*
X134300000Y-112275000D03*
X134300000Y-112925000D03*
X134300000Y-113575000D03*
X134300000Y-114225000D03*
X130800000Y-114225000D03*
X130800000Y-113575000D03*
X130800000Y-112925000D03*
X130800000Y-112275000D03*
D27*
X116300000Y-102200000D03*
X114175000Y-102200000D03*
X121050000Y-77100000D03*
X118925000Y-77100000D03*
D26*
X148475000Y-69800000D03*
X150600000Y-69800000D03*
D36*
X129300000Y-95100000D03*
X129300000Y-97225000D03*
D38*
X131800000Y-81677000D03*
X131800000Y-78377000D03*
D28*
X133300000Y-100600000D03*
X135575000Y-100600000D03*
D26*
X121175000Y-112090000D03*
X123300000Y-112090000D03*
D35*
X141800000Y-104950000D03*
X141800000Y-105600000D03*
X141800000Y-106250000D03*
X141800000Y-106900000D03*
X138300000Y-106900000D03*
X138300000Y-106250000D03*
X138300000Y-105600000D03*
X138300000Y-104950000D03*
D28*
X146662500Y-115400000D03*
X148937500Y-115400000D03*
M02*
