G04 #@! TF.GenerationSoftware,KiCad,Pcbnew,7.0.9*
G04 #@! TF.CreationDate,2024-07-05T17:08:16+09:00*
G04 #@! TF.ProjectId,YAMADAmain_correct,59414d41-4441-46d6-9169-6e5f636f7272,rev?*
G04 #@! TF.SameCoordinates,Original*
G04 #@! TF.FileFunction,Paste,Top*
G04 #@! TF.FilePolarity,Positive*
%FSLAX46Y46*%
G04 Gerber Fmt 4.6, Leading zero omitted, Abs format (unit mm)*
G04 Created by KiCad (PCBNEW 7.0.9) date 2024-07-05 17:08:16*
%MOMM*%
%LPD*%
G01*
G04 APERTURE LIST*
G04 Aperture macros list*
%AMRoundRect*
0 Rectangle with rounded corners*
0 $1 Rounding radius*
0 $2 $3 $4 $5 $6 $7 $8 $9 X,Y pos of 4 corners*
0 Add a 4 corners polygon primitive as box body*
4,1,4,$2,$3,$4,$5,$6,$7,$8,$9,$2,$3,0*
0 Add four circle primitives for the rounded corners*
1,1,$1+$1,$2,$3*
1,1,$1+$1,$4,$5*
1,1,$1+$1,$6,$7*
1,1,$1+$1,$8,$9*
0 Add four rect primitives between the rounded corners*
20,1,$1+$1,$2,$3,$4,$5,0*
20,1,$1+$1,$4,$5,$6,$7,0*
20,1,$1+$1,$6,$7,$8,$9,0*
20,1,$1+$1,$8,$9,$2,$3,0*%
G04 Aperture macros list end*
%ADD10RoundRect,0.292875X0.394625X0.432125X-0.394625X0.432125X-0.394625X-0.432125X0.394625X-0.432125X0*%
%ADD11RoundRect,0.075000X0.700000X-0.075000X0.700000X0.075000X-0.700000X0.075000X-0.700000X-0.075000X0*%
%ADD12RoundRect,0.075000X0.075000X-0.700000X0.075000X0.700000X-0.075000X0.700000X-0.075000X-0.700000X0*%
%ADD13RoundRect,0.237500X0.237500X-0.400000X0.237500X0.400000X-0.237500X0.400000X-0.237500X-0.400000X0*%
%ADD14RoundRect,0.237500X-0.287500X-0.237500X0.287500X-0.237500X0.287500X0.237500X-0.287500X0.237500X0*%
%ADD15R,0.760000X1.100000*%
%ADD16RoundRect,0.292875X-0.394625X-0.432125X0.394625X-0.432125X0.394625X0.432125X-0.394625X0.432125X0*%
%ADD17RoundRect,0.237500X0.287500X0.237500X-0.287500X0.237500X-0.287500X-0.237500X0.287500X-0.237500X0*%
%ADD18RoundRect,0.225000X2.025000X-2.025000X2.025000X2.025000X-2.025000X2.025000X-2.025000X-2.025000X0*%
%ADD19R,1.500000X1.000000*%
%ADD20RoundRect,0.237500X0.237500X-0.287500X0.237500X0.287500X-0.237500X0.287500X-0.237500X-0.287500X0*%
%ADD21R,1.000000X1.000000*%
G04 APERTURE END LIST*
D10*
X130860000Y-99560000D03*
X128585000Y-99560000D03*
D11*
X131212600Y-98095000D03*
X131212600Y-97595000D03*
X131212600Y-97095000D03*
X131212600Y-96595000D03*
X131212600Y-96095000D03*
X131212600Y-95595000D03*
X131212600Y-95095000D03*
X131212600Y-94595000D03*
X131212600Y-94095000D03*
X131212600Y-93595000D03*
X131212600Y-93095000D03*
X131212600Y-92595000D03*
X131212600Y-92095000D03*
X131212600Y-91595000D03*
X131212600Y-91095000D03*
X131212600Y-90595000D03*
D12*
X133137600Y-88670000D03*
X133637600Y-88670000D03*
X134137600Y-88670000D03*
X134637600Y-88670000D03*
X135137600Y-88670000D03*
X135637600Y-88670000D03*
X136137600Y-88670000D03*
X136637600Y-88670000D03*
X137137600Y-88670000D03*
X137637600Y-88670000D03*
X138137600Y-88670000D03*
X138637600Y-88670000D03*
X139137600Y-88670000D03*
X139637600Y-88670000D03*
X140137600Y-88670000D03*
X140637600Y-88670000D03*
D11*
X142562600Y-90595000D03*
X142562600Y-91095000D03*
X142562600Y-91595000D03*
X142562600Y-92095000D03*
X142562600Y-92595000D03*
X142562600Y-93095000D03*
X142562600Y-93595000D03*
X142562600Y-94095000D03*
X142562600Y-94595000D03*
X142562600Y-95095000D03*
X142562600Y-95595000D03*
X142562600Y-96095000D03*
X142562600Y-96595000D03*
X142562600Y-97095000D03*
X142562600Y-97595000D03*
X142562600Y-98095000D03*
D12*
X140637600Y-100020000D03*
X140137600Y-100020000D03*
X139637600Y-100020000D03*
X139137600Y-100020000D03*
X138637600Y-100020000D03*
X138137600Y-100020000D03*
X137637600Y-100020000D03*
X137137600Y-100020000D03*
X136637600Y-100020000D03*
X136137600Y-100020000D03*
X135637600Y-100020000D03*
X135137600Y-100020000D03*
X134637600Y-100020000D03*
X134137600Y-100020000D03*
X133637600Y-100020000D03*
X133137600Y-100020000D03*
D13*
X148054400Y-113623900D03*
X148054400Y-115748900D03*
D10*
X128385000Y-88760000D03*
X130660000Y-88760000D03*
D14*
X131835000Y-69850000D03*
X130085000Y-69850000D03*
D15*
X121850000Y-97028000D03*
X123120000Y-97028000D03*
X124390000Y-97028000D03*
X125660000Y-97028000D03*
X125660000Y-102727998D03*
X124390000Y-102727998D03*
X123120000Y-102727998D03*
X121850000Y-102727998D03*
D16*
X144860000Y-97760000D03*
X147135000Y-97760000D03*
D14*
X121513400Y-76708000D03*
X119763400Y-76708000D03*
D17*
X115039000Y-90322400D03*
X116789000Y-90322400D03*
D14*
X136435000Y-69850000D03*
X134685000Y-69850000D03*
D18*
X116152000Y-76200000D03*
X116152000Y-82700000D03*
D19*
X154418400Y-115936400D03*
X154418400Y-113436400D03*
X149818400Y-115936400D03*
X149818400Y-113436400D03*
D17*
X115039000Y-92506800D03*
X116789000Y-92506800D03*
D16*
X144560000Y-88925000D03*
X146835000Y-88925000D03*
D20*
X141128000Y-84862000D03*
X141128000Y-83112000D03*
D15*
X114729600Y-105105200D03*
X115999600Y-105105200D03*
X117269600Y-105105200D03*
X118539600Y-105105200D03*
X118539600Y-110805198D03*
X117269600Y-110805198D03*
X115999600Y-110805198D03*
X114729600Y-110805198D03*
D10*
X153885000Y-81068000D03*
X156160000Y-81068000D03*
D14*
X126593400Y-76708000D03*
X124843400Y-76708000D03*
D17*
X115039000Y-94691200D03*
X116789000Y-94691200D03*
D15*
X121799200Y-105150801D03*
X123069200Y-105150801D03*
X124339200Y-105150801D03*
X125609200Y-105150801D03*
X125609200Y-110850799D03*
X124339200Y-110850799D03*
X123069200Y-110850799D03*
X121799200Y-110850799D03*
D21*
X160724000Y-97068000D03*
X160724000Y-99568000D03*
D16*
X144550800Y-90957000D03*
X146825800Y-90957000D03*
D17*
X115039000Y-88176000D03*
X116789000Y-88176000D03*
D10*
X153885000Y-85640000D03*
X156160000Y-85640000D03*
D15*
X114729600Y-96972001D03*
X115999600Y-96972001D03*
X117269600Y-96972001D03*
X118539600Y-96972001D03*
X118539600Y-102671999D03*
X117269600Y-102671999D03*
X115999600Y-102671999D03*
X114729600Y-102671999D03*
D10*
X136885000Y-102060000D03*
X139160000Y-102060000D03*
M02*
