G04 #@! TF.GenerationSoftware,KiCad,Pcbnew,8.0.3*
G04 #@! TF.CreationDate,2024-09-19T09:09:21+09:00*
G04 #@! TF.ProjectId,YAMADAmain_ver.nucleo,59414d41-4441-46d6-9169-6e5f7665722e,rev?*
G04 #@! TF.SameCoordinates,Original*
G04 #@! TF.FileFunction,Legend,Top*
G04 #@! TF.FilePolarity,Positive*
%FSLAX46Y46*%
G04 Gerber Fmt 4.6, Leading zero omitted, Abs format (unit mm)*
G04 Created by KiCad (PCBNEW 8.0.3) date 2024-09-19 09:09:21*
%MOMM*%
%LPD*%
G01*
G04 APERTURE LIST*
%ADD10C,0.150000*%
%ADD11C,0.120000*%
%ADD12R,1.800000X1.800000*%
%ADD13C,1.800000*%
%ADD14C,1.524000*%
%ADD15C,1.600000*%
%ADD16O,1.600000X1.600000*%
%ADD17O,1.700000X1.700000*%
%ADD18R,1.800000X1.524000*%
%ADD19O,1.800000X1.524000*%
%ADD20C,1.000000*%
%ADD21R,2.500000X3.000000*%
%ADD22O,2.800000X2.000000*%
%ADD23R,1.700000X1.950000*%
%ADD24O,1.700000X1.950000*%
G04 APERTURE END LIST*
D10*
X200331905Y-104014819D02*
X200331905Y-103014819D01*
X200331905Y-103014819D02*
X200570000Y-103014819D01*
X200570000Y-103014819D02*
X200712857Y-103062438D01*
X200712857Y-103062438D02*
X200808095Y-103157676D01*
X200808095Y-103157676D02*
X200855714Y-103252914D01*
X200855714Y-103252914D02*
X200903333Y-103443390D01*
X200903333Y-103443390D02*
X200903333Y-103586247D01*
X200903333Y-103586247D02*
X200855714Y-103776723D01*
X200855714Y-103776723D02*
X200808095Y-103871961D01*
X200808095Y-103871961D02*
X200712857Y-103967200D01*
X200712857Y-103967200D02*
X200570000Y-104014819D01*
X200570000Y-104014819D02*
X200331905Y-104014819D01*
X201760476Y-103348152D02*
X201760476Y-104014819D01*
X201522381Y-102967200D02*
X201284286Y-103681485D01*
X201284286Y-103681485D02*
X201903333Y-103681485D01*
X140998095Y-101434819D02*
X140998095Y-102244342D01*
X140998095Y-102244342D02*
X141045714Y-102339580D01*
X141045714Y-102339580D02*
X141093333Y-102387200D01*
X141093333Y-102387200D02*
X141188571Y-102434819D01*
X141188571Y-102434819D02*
X141379047Y-102434819D01*
X141379047Y-102434819D02*
X141474285Y-102387200D01*
X141474285Y-102387200D02*
X141521904Y-102339580D01*
X141521904Y-102339580D02*
X141569523Y-102244342D01*
X141569523Y-102244342D02*
X141569523Y-101434819D01*
X142474285Y-101434819D02*
X142283809Y-101434819D01*
X142283809Y-101434819D02*
X142188571Y-101482438D01*
X142188571Y-101482438D02*
X142140952Y-101530057D01*
X142140952Y-101530057D02*
X142045714Y-101672914D01*
X142045714Y-101672914D02*
X141998095Y-101863390D01*
X141998095Y-101863390D02*
X141998095Y-102244342D01*
X141998095Y-102244342D02*
X142045714Y-102339580D01*
X142045714Y-102339580D02*
X142093333Y-102387200D01*
X142093333Y-102387200D02*
X142188571Y-102434819D01*
X142188571Y-102434819D02*
X142379047Y-102434819D01*
X142379047Y-102434819D02*
X142474285Y-102387200D01*
X142474285Y-102387200D02*
X142521904Y-102339580D01*
X142521904Y-102339580D02*
X142569523Y-102244342D01*
X142569523Y-102244342D02*
X142569523Y-102006247D01*
X142569523Y-102006247D02*
X142521904Y-101911009D01*
X142521904Y-101911009D02*
X142474285Y-101863390D01*
X142474285Y-101863390D02*
X142379047Y-101815771D01*
X142379047Y-101815771D02*
X142188571Y-101815771D01*
X142188571Y-101815771D02*
X142093333Y-101863390D01*
X142093333Y-101863390D02*
X142045714Y-101911009D01*
X142045714Y-101911009D02*
X141998095Y-102006247D01*
X160884819Y-125956666D02*
X160408628Y-126289999D01*
X160884819Y-126528094D02*
X159884819Y-126528094D01*
X159884819Y-126528094D02*
X159884819Y-126147142D01*
X159884819Y-126147142D02*
X159932438Y-126051904D01*
X159932438Y-126051904D02*
X159980057Y-126004285D01*
X159980057Y-126004285D02*
X160075295Y-125956666D01*
X160075295Y-125956666D02*
X160218152Y-125956666D01*
X160218152Y-125956666D02*
X160313390Y-126004285D01*
X160313390Y-126004285D02*
X160361009Y-126051904D01*
X160361009Y-126051904D02*
X160408628Y-126147142D01*
X160408628Y-126147142D02*
X160408628Y-126528094D01*
X160218152Y-125099523D02*
X160884819Y-125099523D01*
X159837200Y-125337618D02*
X160551485Y-125575713D01*
X160551485Y-125575713D02*
X160551485Y-124956666D01*
X144884819Y-131552857D02*
X144408628Y-131886190D01*
X144884819Y-132124285D02*
X143884819Y-132124285D01*
X143884819Y-132124285D02*
X143884819Y-131743333D01*
X143884819Y-131743333D02*
X143932438Y-131648095D01*
X143932438Y-131648095D02*
X143980057Y-131600476D01*
X143980057Y-131600476D02*
X144075295Y-131552857D01*
X144075295Y-131552857D02*
X144218152Y-131552857D01*
X144218152Y-131552857D02*
X144313390Y-131600476D01*
X144313390Y-131600476D02*
X144361009Y-131648095D01*
X144361009Y-131648095D02*
X144408628Y-131743333D01*
X144408628Y-131743333D02*
X144408628Y-132124285D01*
X144884819Y-130600476D02*
X144884819Y-131171904D01*
X144884819Y-130886190D02*
X143884819Y-130886190D01*
X143884819Y-130886190D02*
X144027676Y-130981428D01*
X144027676Y-130981428D02*
X144122914Y-131076666D01*
X144122914Y-131076666D02*
X144170533Y-131171904D01*
X143884819Y-129981428D02*
X143884819Y-129886190D01*
X143884819Y-129886190D02*
X143932438Y-129790952D01*
X143932438Y-129790952D02*
X143980057Y-129743333D01*
X143980057Y-129743333D02*
X144075295Y-129695714D01*
X144075295Y-129695714D02*
X144265771Y-129648095D01*
X144265771Y-129648095D02*
X144503866Y-129648095D01*
X144503866Y-129648095D02*
X144694342Y-129695714D01*
X144694342Y-129695714D02*
X144789580Y-129743333D01*
X144789580Y-129743333D02*
X144837200Y-129790952D01*
X144837200Y-129790952D02*
X144884819Y-129886190D01*
X144884819Y-129886190D02*
X144884819Y-129981428D01*
X144884819Y-129981428D02*
X144837200Y-130076666D01*
X144837200Y-130076666D02*
X144789580Y-130124285D01*
X144789580Y-130124285D02*
X144694342Y-130171904D01*
X144694342Y-130171904D02*
X144503866Y-130219523D01*
X144503866Y-130219523D02*
X144265771Y-130219523D01*
X144265771Y-130219523D02*
X144075295Y-130171904D01*
X144075295Y-130171904D02*
X143980057Y-130124285D01*
X143980057Y-130124285D02*
X143932438Y-130076666D01*
X143932438Y-130076666D02*
X143884819Y-129981428D01*
X145788095Y-79834819D02*
X145788095Y-80644342D01*
X145788095Y-80644342D02*
X145835714Y-80739580D01*
X145835714Y-80739580D02*
X145883333Y-80787200D01*
X145883333Y-80787200D02*
X145978571Y-80834819D01*
X145978571Y-80834819D02*
X146169047Y-80834819D01*
X146169047Y-80834819D02*
X146264285Y-80787200D01*
X146264285Y-80787200D02*
X146311904Y-80739580D01*
X146311904Y-80739580D02*
X146359523Y-80644342D01*
X146359523Y-80644342D02*
X146359523Y-79834819D01*
X146788095Y-79930057D02*
X146835714Y-79882438D01*
X146835714Y-79882438D02*
X146930952Y-79834819D01*
X146930952Y-79834819D02*
X147169047Y-79834819D01*
X147169047Y-79834819D02*
X147264285Y-79882438D01*
X147264285Y-79882438D02*
X147311904Y-79930057D01*
X147311904Y-79930057D02*
X147359523Y-80025295D01*
X147359523Y-80025295D02*
X147359523Y-80120533D01*
X147359523Y-80120533D02*
X147311904Y-80263390D01*
X147311904Y-80263390D02*
X146740476Y-80834819D01*
X146740476Y-80834819D02*
X147359523Y-80834819D01*
X193443333Y-103424819D02*
X193110000Y-102948628D01*
X192871905Y-103424819D02*
X192871905Y-102424819D01*
X192871905Y-102424819D02*
X193252857Y-102424819D01*
X193252857Y-102424819D02*
X193348095Y-102472438D01*
X193348095Y-102472438D02*
X193395714Y-102520057D01*
X193395714Y-102520057D02*
X193443333Y-102615295D01*
X193443333Y-102615295D02*
X193443333Y-102758152D01*
X193443333Y-102758152D02*
X193395714Y-102853390D01*
X193395714Y-102853390D02*
X193348095Y-102901009D01*
X193348095Y-102901009D02*
X193252857Y-102948628D01*
X193252857Y-102948628D02*
X192871905Y-102948628D01*
X193776667Y-102424819D02*
X194395714Y-102424819D01*
X194395714Y-102424819D02*
X194062381Y-102805771D01*
X194062381Y-102805771D02*
X194205238Y-102805771D01*
X194205238Y-102805771D02*
X194300476Y-102853390D01*
X194300476Y-102853390D02*
X194348095Y-102901009D01*
X194348095Y-102901009D02*
X194395714Y-102996247D01*
X194395714Y-102996247D02*
X194395714Y-103234342D01*
X194395714Y-103234342D02*
X194348095Y-103329580D01*
X194348095Y-103329580D02*
X194300476Y-103377200D01*
X194300476Y-103377200D02*
X194205238Y-103424819D01*
X194205238Y-103424819D02*
X193919524Y-103424819D01*
X193919524Y-103424819D02*
X193824286Y-103377200D01*
X193824286Y-103377200D02*
X193776667Y-103329580D01*
X193443333Y-115924819D02*
X193110000Y-115448628D01*
X192871905Y-115924819D02*
X192871905Y-114924819D01*
X192871905Y-114924819D02*
X193252857Y-114924819D01*
X193252857Y-114924819D02*
X193348095Y-114972438D01*
X193348095Y-114972438D02*
X193395714Y-115020057D01*
X193395714Y-115020057D02*
X193443333Y-115115295D01*
X193443333Y-115115295D02*
X193443333Y-115258152D01*
X193443333Y-115258152D02*
X193395714Y-115353390D01*
X193395714Y-115353390D02*
X193348095Y-115401009D01*
X193348095Y-115401009D02*
X193252857Y-115448628D01*
X193252857Y-115448628D02*
X192871905Y-115448628D01*
X193824286Y-115020057D02*
X193871905Y-114972438D01*
X193871905Y-114972438D02*
X193967143Y-114924819D01*
X193967143Y-114924819D02*
X194205238Y-114924819D01*
X194205238Y-114924819D02*
X194300476Y-114972438D01*
X194300476Y-114972438D02*
X194348095Y-115020057D01*
X194348095Y-115020057D02*
X194395714Y-115115295D01*
X194395714Y-115115295D02*
X194395714Y-115210533D01*
X194395714Y-115210533D02*
X194348095Y-115353390D01*
X194348095Y-115353390D02*
X193776667Y-115924819D01*
X193776667Y-115924819D02*
X194395714Y-115924819D01*
X133331905Y-141514819D02*
X133331905Y-140514819D01*
X133331905Y-140514819D02*
X133570000Y-140514819D01*
X133570000Y-140514819D02*
X133712857Y-140562438D01*
X133712857Y-140562438D02*
X133808095Y-140657676D01*
X133808095Y-140657676D02*
X133855714Y-140752914D01*
X133855714Y-140752914D02*
X133903333Y-140943390D01*
X133903333Y-140943390D02*
X133903333Y-141086247D01*
X133903333Y-141086247D02*
X133855714Y-141276723D01*
X133855714Y-141276723D02*
X133808095Y-141371961D01*
X133808095Y-141371961D02*
X133712857Y-141467200D01*
X133712857Y-141467200D02*
X133570000Y-141514819D01*
X133570000Y-141514819D02*
X133331905Y-141514819D01*
X134855714Y-141514819D02*
X134284286Y-141514819D01*
X134570000Y-141514819D02*
X134570000Y-140514819D01*
X134570000Y-140514819D02*
X134474762Y-140657676D01*
X134474762Y-140657676D02*
X134379524Y-140752914D01*
X134379524Y-140752914D02*
X134284286Y-140800533D01*
X200331905Y-116514819D02*
X200331905Y-115514819D01*
X200331905Y-115514819D02*
X200570000Y-115514819D01*
X200570000Y-115514819D02*
X200712857Y-115562438D01*
X200712857Y-115562438D02*
X200808095Y-115657676D01*
X200808095Y-115657676D02*
X200855714Y-115752914D01*
X200855714Y-115752914D02*
X200903333Y-115943390D01*
X200903333Y-115943390D02*
X200903333Y-116086247D01*
X200903333Y-116086247D02*
X200855714Y-116276723D01*
X200855714Y-116276723D02*
X200808095Y-116371961D01*
X200808095Y-116371961D02*
X200712857Y-116467200D01*
X200712857Y-116467200D02*
X200570000Y-116514819D01*
X200570000Y-116514819D02*
X200331905Y-116514819D01*
X201236667Y-115514819D02*
X201855714Y-115514819D01*
X201855714Y-115514819D02*
X201522381Y-115895771D01*
X201522381Y-115895771D02*
X201665238Y-115895771D01*
X201665238Y-115895771D02*
X201760476Y-115943390D01*
X201760476Y-115943390D02*
X201808095Y-115991009D01*
X201808095Y-115991009D02*
X201855714Y-116086247D01*
X201855714Y-116086247D02*
X201855714Y-116324342D01*
X201855714Y-116324342D02*
X201808095Y-116419580D01*
X201808095Y-116419580D02*
X201760476Y-116467200D01*
X201760476Y-116467200D02*
X201665238Y-116514819D01*
X201665238Y-116514819D02*
X201379524Y-116514819D01*
X201379524Y-116514819D02*
X201284286Y-116467200D01*
X201284286Y-116467200D02*
X201236667Y-116419580D01*
X210331905Y-95514819D02*
X210331905Y-94514819D01*
X210331905Y-94514819D02*
X210570000Y-94514819D01*
X210570000Y-94514819D02*
X210712857Y-94562438D01*
X210712857Y-94562438D02*
X210808095Y-94657676D01*
X210808095Y-94657676D02*
X210855714Y-94752914D01*
X210855714Y-94752914D02*
X210903333Y-94943390D01*
X210903333Y-94943390D02*
X210903333Y-95086247D01*
X210903333Y-95086247D02*
X210855714Y-95276723D01*
X210855714Y-95276723D02*
X210808095Y-95371961D01*
X210808095Y-95371961D02*
X210712857Y-95467200D01*
X210712857Y-95467200D02*
X210570000Y-95514819D01*
X210570000Y-95514819D02*
X210331905Y-95514819D01*
X211808095Y-94514819D02*
X211331905Y-94514819D01*
X211331905Y-94514819D02*
X211284286Y-94991009D01*
X211284286Y-94991009D02*
X211331905Y-94943390D01*
X211331905Y-94943390D02*
X211427143Y-94895771D01*
X211427143Y-94895771D02*
X211665238Y-94895771D01*
X211665238Y-94895771D02*
X211760476Y-94943390D01*
X211760476Y-94943390D02*
X211808095Y-94991009D01*
X211808095Y-94991009D02*
X211855714Y-95086247D01*
X211855714Y-95086247D02*
X211855714Y-95324342D01*
X211855714Y-95324342D02*
X211808095Y-95419580D01*
X211808095Y-95419580D02*
X211760476Y-95467200D01*
X211760476Y-95467200D02*
X211665238Y-95514819D01*
X211665238Y-95514819D02*
X211427143Y-95514819D01*
X211427143Y-95514819D02*
X211331905Y-95467200D01*
X211331905Y-95467200D02*
X211284286Y-95419580D01*
X100381009Y-92433333D02*
X100381009Y-92766666D01*
X100904819Y-92766666D02*
X99904819Y-92766666D01*
X99904819Y-92766666D02*
X99904819Y-92290476D01*
X100904819Y-91385714D02*
X100904819Y-91957142D01*
X100904819Y-91671428D02*
X99904819Y-91671428D01*
X99904819Y-91671428D02*
X100047676Y-91766666D01*
X100047676Y-91766666D02*
X100142914Y-91861904D01*
X100142914Y-91861904D02*
X100190533Y-91957142D01*
X166384819Y-126432857D02*
X165908628Y-126766190D01*
X166384819Y-127004285D02*
X165384819Y-127004285D01*
X165384819Y-127004285D02*
X165384819Y-126623333D01*
X165384819Y-126623333D02*
X165432438Y-126528095D01*
X165432438Y-126528095D02*
X165480057Y-126480476D01*
X165480057Y-126480476D02*
X165575295Y-126432857D01*
X165575295Y-126432857D02*
X165718152Y-126432857D01*
X165718152Y-126432857D02*
X165813390Y-126480476D01*
X165813390Y-126480476D02*
X165861009Y-126528095D01*
X165861009Y-126528095D02*
X165908628Y-126623333D01*
X165908628Y-126623333D02*
X165908628Y-127004285D01*
X166384819Y-125480476D02*
X166384819Y-126051904D01*
X166384819Y-125766190D02*
X165384819Y-125766190D01*
X165384819Y-125766190D02*
X165527676Y-125861428D01*
X165527676Y-125861428D02*
X165622914Y-125956666D01*
X165622914Y-125956666D02*
X165670533Y-126051904D01*
X166384819Y-124528095D02*
X166384819Y-125099523D01*
X166384819Y-124813809D02*
X165384819Y-124813809D01*
X165384819Y-124813809D02*
X165527676Y-124909047D01*
X165527676Y-124909047D02*
X165622914Y-125004285D01*
X165622914Y-125004285D02*
X165670533Y-125099523D01*
X127884819Y-135076666D02*
X127408628Y-135409999D01*
X127884819Y-135648094D02*
X126884819Y-135648094D01*
X126884819Y-135648094D02*
X126884819Y-135267142D01*
X126884819Y-135267142D02*
X126932438Y-135171904D01*
X126932438Y-135171904D02*
X126980057Y-135124285D01*
X126980057Y-135124285D02*
X127075295Y-135076666D01*
X127075295Y-135076666D02*
X127218152Y-135076666D01*
X127218152Y-135076666D02*
X127313390Y-135124285D01*
X127313390Y-135124285D02*
X127361009Y-135171904D01*
X127361009Y-135171904D02*
X127408628Y-135267142D01*
X127408628Y-135267142D02*
X127408628Y-135648094D01*
X127884819Y-134124285D02*
X127884819Y-134695713D01*
X127884819Y-134409999D02*
X126884819Y-134409999D01*
X126884819Y-134409999D02*
X127027676Y-134505237D01*
X127027676Y-134505237D02*
X127122914Y-134600475D01*
X127122914Y-134600475D02*
X127170533Y-134695713D01*
X213443333Y-86184819D02*
X213110000Y-85708628D01*
X212871905Y-86184819D02*
X212871905Y-85184819D01*
X212871905Y-85184819D02*
X213252857Y-85184819D01*
X213252857Y-85184819D02*
X213348095Y-85232438D01*
X213348095Y-85232438D02*
X213395714Y-85280057D01*
X213395714Y-85280057D02*
X213443333Y-85375295D01*
X213443333Y-85375295D02*
X213443333Y-85518152D01*
X213443333Y-85518152D02*
X213395714Y-85613390D01*
X213395714Y-85613390D02*
X213348095Y-85661009D01*
X213348095Y-85661009D02*
X213252857Y-85708628D01*
X213252857Y-85708628D02*
X212871905Y-85708628D01*
X214348095Y-85184819D02*
X213871905Y-85184819D01*
X213871905Y-85184819D02*
X213824286Y-85661009D01*
X213824286Y-85661009D02*
X213871905Y-85613390D01*
X213871905Y-85613390D02*
X213967143Y-85565771D01*
X213967143Y-85565771D02*
X214205238Y-85565771D01*
X214205238Y-85565771D02*
X214300476Y-85613390D01*
X214300476Y-85613390D02*
X214348095Y-85661009D01*
X214348095Y-85661009D02*
X214395714Y-85756247D01*
X214395714Y-85756247D02*
X214395714Y-85994342D01*
X214395714Y-85994342D02*
X214348095Y-86089580D01*
X214348095Y-86089580D02*
X214300476Y-86137200D01*
X214300476Y-86137200D02*
X214205238Y-86184819D01*
X214205238Y-86184819D02*
X213967143Y-86184819D01*
X213967143Y-86184819D02*
X213871905Y-86137200D01*
X213871905Y-86137200D02*
X213824286Y-86089580D01*
X165794819Y-134584285D02*
X164794819Y-134584285D01*
X164794819Y-134584285D02*
X164794819Y-134346190D01*
X164794819Y-134346190D02*
X164842438Y-134203333D01*
X164842438Y-134203333D02*
X164937676Y-134108095D01*
X164937676Y-134108095D02*
X165032914Y-134060476D01*
X165032914Y-134060476D02*
X165223390Y-134012857D01*
X165223390Y-134012857D02*
X165366247Y-134012857D01*
X165366247Y-134012857D02*
X165556723Y-134060476D01*
X165556723Y-134060476D02*
X165651961Y-134108095D01*
X165651961Y-134108095D02*
X165747200Y-134203333D01*
X165747200Y-134203333D02*
X165794819Y-134346190D01*
X165794819Y-134346190D02*
X165794819Y-134584285D01*
X165794819Y-133060476D02*
X165794819Y-133631904D01*
X165794819Y-133346190D02*
X164794819Y-133346190D01*
X164794819Y-133346190D02*
X164937676Y-133441428D01*
X164937676Y-133441428D02*
X165032914Y-133536666D01*
X165032914Y-133536666D02*
X165080533Y-133631904D01*
X164794819Y-132441428D02*
X164794819Y-132346190D01*
X164794819Y-132346190D02*
X164842438Y-132250952D01*
X164842438Y-132250952D02*
X164890057Y-132203333D01*
X164890057Y-132203333D02*
X164985295Y-132155714D01*
X164985295Y-132155714D02*
X165175771Y-132108095D01*
X165175771Y-132108095D02*
X165413866Y-132108095D01*
X165413866Y-132108095D02*
X165604342Y-132155714D01*
X165604342Y-132155714D02*
X165699580Y-132203333D01*
X165699580Y-132203333D02*
X165747200Y-132250952D01*
X165747200Y-132250952D02*
X165794819Y-132346190D01*
X165794819Y-132346190D02*
X165794819Y-132441428D01*
X165794819Y-132441428D02*
X165747200Y-132536666D01*
X165747200Y-132536666D02*
X165699580Y-132584285D01*
X165699580Y-132584285D02*
X165604342Y-132631904D01*
X165604342Y-132631904D02*
X165413866Y-132679523D01*
X165413866Y-132679523D02*
X165175771Y-132679523D01*
X165175771Y-132679523D02*
X164985295Y-132631904D01*
X164985295Y-132631904D02*
X164890057Y-132584285D01*
X164890057Y-132584285D02*
X164842438Y-132536666D01*
X164842438Y-132536666D02*
X164794819Y-132441428D01*
X106943333Y-80424819D02*
X106610000Y-79948628D01*
X106371905Y-80424819D02*
X106371905Y-79424819D01*
X106371905Y-79424819D02*
X106752857Y-79424819D01*
X106752857Y-79424819D02*
X106848095Y-79472438D01*
X106848095Y-79472438D02*
X106895714Y-79520057D01*
X106895714Y-79520057D02*
X106943333Y-79615295D01*
X106943333Y-79615295D02*
X106943333Y-79758152D01*
X106943333Y-79758152D02*
X106895714Y-79853390D01*
X106895714Y-79853390D02*
X106848095Y-79901009D01*
X106848095Y-79901009D02*
X106752857Y-79948628D01*
X106752857Y-79948628D02*
X106371905Y-79948628D01*
X107419524Y-80424819D02*
X107610000Y-80424819D01*
X107610000Y-80424819D02*
X107705238Y-80377200D01*
X107705238Y-80377200D02*
X107752857Y-80329580D01*
X107752857Y-80329580D02*
X107848095Y-80186723D01*
X107848095Y-80186723D02*
X107895714Y-79996247D01*
X107895714Y-79996247D02*
X107895714Y-79615295D01*
X107895714Y-79615295D02*
X107848095Y-79520057D01*
X107848095Y-79520057D02*
X107800476Y-79472438D01*
X107800476Y-79472438D02*
X107705238Y-79424819D01*
X107705238Y-79424819D02*
X107514762Y-79424819D01*
X107514762Y-79424819D02*
X107419524Y-79472438D01*
X107419524Y-79472438D02*
X107371905Y-79520057D01*
X107371905Y-79520057D02*
X107324286Y-79615295D01*
X107324286Y-79615295D02*
X107324286Y-79853390D01*
X107324286Y-79853390D02*
X107371905Y-79948628D01*
X107371905Y-79948628D02*
X107419524Y-79996247D01*
X107419524Y-79996247D02*
X107514762Y-80043866D01*
X107514762Y-80043866D02*
X107705238Y-80043866D01*
X107705238Y-80043866D02*
X107800476Y-79996247D01*
X107800476Y-79996247D02*
X107848095Y-79948628D01*
X107848095Y-79948628D02*
X107895714Y-79853390D01*
X160294819Y-134108094D02*
X159294819Y-134108094D01*
X159294819Y-134108094D02*
X159294819Y-133869999D01*
X159294819Y-133869999D02*
X159342438Y-133727142D01*
X159342438Y-133727142D02*
X159437676Y-133631904D01*
X159437676Y-133631904D02*
X159532914Y-133584285D01*
X159532914Y-133584285D02*
X159723390Y-133536666D01*
X159723390Y-133536666D02*
X159866247Y-133536666D01*
X159866247Y-133536666D02*
X160056723Y-133584285D01*
X160056723Y-133584285D02*
X160151961Y-133631904D01*
X160151961Y-133631904D02*
X160247200Y-133727142D01*
X160247200Y-133727142D02*
X160294819Y-133869999D01*
X160294819Y-133869999D02*
X160294819Y-134108094D01*
X159390057Y-133155713D02*
X159342438Y-133108094D01*
X159342438Y-133108094D02*
X159294819Y-133012856D01*
X159294819Y-133012856D02*
X159294819Y-132774761D01*
X159294819Y-132774761D02*
X159342438Y-132679523D01*
X159342438Y-132679523D02*
X159390057Y-132631904D01*
X159390057Y-132631904D02*
X159485295Y-132584285D01*
X159485295Y-132584285D02*
X159580533Y-132584285D01*
X159580533Y-132584285D02*
X159723390Y-132631904D01*
X159723390Y-132631904D02*
X160294819Y-133203332D01*
X160294819Y-133203332D02*
X160294819Y-132584285D01*
X201566905Y-78514819D02*
X201566905Y-77514819D01*
X201566905Y-77514819D02*
X201805000Y-77514819D01*
X201805000Y-77514819D02*
X201947857Y-77562438D01*
X201947857Y-77562438D02*
X202043095Y-77657676D01*
X202043095Y-77657676D02*
X202090714Y-77752914D01*
X202090714Y-77752914D02*
X202138333Y-77943390D01*
X202138333Y-77943390D02*
X202138333Y-78086247D01*
X202138333Y-78086247D02*
X202090714Y-78276723D01*
X202090714Y-78276723D02*
X202043095Y-78371961D01*
X202043095Y-78371961D02*
X201947857Y-78467200D01*
X201947857Y-78467200D02*
X201805000Y-78514819D01*
X201805000Y-78514819D02*
X201566905Y-78514819D01*
X202995476Y-77514819D02*
X202805000Y-77514819D01*
X202805000Y-77514819D02*
X202709762Y-77562438D01*
X202709762Y-77562438D02*
X202662143Y-77610057D01*
X202662143Y-77610057D02*
X202566905Y-77752914D01*
X202566905Y-77752914D02*
X202519286Y-77943390D01*
X202519286Y-77943390D02*
X202519286Y-78324342D01*
X202519286Y-78324342D02*
X202566905Y-78419580D01*
X202566905Y-78419580D02*
X202614524Y-78467200D01*
X202614524Y-78467200D02*
X202709762Y-78514819D01*
X202709762Y-78514819D02*
X202900238Y-78514819D01*
X202900238Y-78514819D02*
X202995476Y-78467200D01*
X202995476Y-78467200D02*
X203043095Y-78419580D01*
X203043095Y-78419580D02*
X203090714Y-78324342D01*
X203090714Y-78324342D02*
X203090714Y-78086247D01*
X203090714Y-78086247D02*
X203043095Y-77991009D01*
X203043095Y-77991009D02*
X202995476Y-77943390D01*
X202995476Y-77943390D02*
X202900238Y-77895771D01*
X202900238Y-77895771D02*
X202709762Y-77895771D01*
X202709762Y-77895771D02*
X202614524Y-77943390D01*
X202614524Y-77943390D02*
X202566905Y-77991009D01*
X202566905Y-77991009D02*
X202519286Y-78086247D01*
X139966666Y-119672819D02*
X139966666Y-120387104D01*
X139966666Y-120387104D02*
X139919047Y-120529961D01*
X139919047Y-120529961D02*
X139823809Y-120625200D01*
X139823809Y-120625200D02*
X139680952Y-120672819D01*
X139680952Y-120672819D02*
X139585714Y-120672819D01*
X140347619Y-119672819D02*
X140966666Y-119672819D01*
X140966666Y-119672819D02*
X140633333Y-120053771D01*
X140633333Y-120053771D02*
X140776190Y-120053771D01*
X140776190Y-120053771D02*
X140871428Y-120101390D01*
X140871428Y-120101390D02*
X140919047Y-120149009D01*
X140919047Y-120149009D02*
X140966666Y-120244247D01*
X140966666Y-120244247D02*
X140966666Y-120482342D01*
X140966666Y-120482342D02*
X140919047Y-120577580D01*
X140919047Y-120577580D02*
X140871428Y-120625200D01*
X140871428Y-120625200D02*
X140776190Y-120672819D01*
X140776190Y-120672819D02*
X140490476Y-120672819D01*
X140490476Y-120672819D02*
X140395238Y-120625200D01*
X140395238Y-120625200D02*
X140347619Y-120577580D01*
X144294819Y-139108094D02*
X143294819Y-139108094D01*
X143294819Y-139108094D02*
X143294819Y-138869999D01*
X143294819Y-138869999D02*
X143342438Y-138727142D01*
X143342438Y-138727142D02*
X143437676Y-138631904D01*
X143437676Y-138631904D02*
X143532914Y-138584285D01*
X143532914Y-138584285D02*
X143723390Y-138536666D01*
X143723390Y-138536666D02*
X143866247Y-138536666D01*
X143866247Y-138536666D02*
X144056723Y-138584285D01*
X144056723Y-138584285D02*
X144151961Y-138631904D01*
X144151961Y-138631904D02*
X144247200Y-138727142D01*
X144247200Y-138727142D02*
X144294819Y-138869999D01*
X144294819Y-138869999D02*
X144294819Y-139108094D01*
X143723390Y-137965237D02*
X143675771Y-138060475D01*
X143675771Y-138060475D02*
X143628152Y-138108094D01*
X143628152Y-138108094D02*
X143532914Y-138155713D01*
X143532914Y-138155713D02*
X143485295Y-138155713D01*
X143485295Y-138155713D02*
X143390057Y-138108094D01*
X143390057Y-138108094D02*
X143342438Y-138060475D01*
X143342438Y-138060475D02*
X143294819Y-137965237D01*
X143294819Y-137965237D02*
X143294819Y-137774761D01*
X143294819Y-137774761D02*
X143342438Y-137679523D01*
X143342438Y-137679523D02*
X143390057Y-137631904D01*
X143390057Y-137631904D02*
X143485295Y-137584285D01*
X143485295Y-137584285D02*
X143532914Y-137584285D01*
X143532914Y-137584285D02*
X143628152Y-137631904D01*
X143628152Y-137631904D02*
X143675771Y-137679523D01*
X143675771Y-137679523D02*
X143723390Y-137774761D01*
X143723390Y-137774761D02*
X143723390Y-137965237D01*
X143723390Y-137965237D02*
X143771009Y-138060475D01*
X143771009Y-138060475D02*
X143818628Y-138108094D01*
X143818628Y-138108094D02*
X143913866Y-138155713D01*
X143913866Y-138155713D02*
X144104342Y-138155713D01*
X144104342Y-138155713D02*
X144199580Y-138108094D01*
X144199580Y-138108094D02*
X144247200Y-138060475D01*
X144247200Y-138060475D02*
X144294819Y-137965237D01*
X144294819Y-137965237D02*
X144294819Y-137774761D01*
X144294819Y-137774761D02*
X144247200Y-137679523D01*
X144247200Y-137679523D02*
X144199580Y-137631904D01*
X144199580Y-137631904D02*
X144104342Y-137584285D01*
X144104342Y-137584285D02*
X143913866Y-137584285D01*
X143913866Y-137584285D02*
X143818628Y-137631904D01*
X143818628Y-137631904D02*
X143771009Y-137679523D01*
X143771009Y-137679523D02*
X143723390Y-137774761D01*
X98831905Y-75094819D02*
X98831905Y-74094819D01*
X98831905Y-74094819D02*
X99070000Y-74094819D01*
X99070000Y-74094819D02*
X99212857Y-74142438D01*
X99212857Y-74142438D02*
X99308095Y-74237676D01*
X99308095Y-74237676D02*
X99355714Y-74332914D01*
X99355714Y-74332914D02*
X99403333Y-74523390D01*
X99403333Y-74523390D02*
X99403333Y-74666247D01*
X99403333Y-74666247D02*
X99355714Y-74856723D01*
X99355714Y-74856723D02*
X99308095Y-74951961D01*
X99308095Y-74951961D02*
X99212857Y-75047200D01*
X99212857Y-75047200D02*
X99070000Y-75094819D01*
X99070000Y-75094819D02*
X98831905Y-75094819D01*
X99736667Y-74094819D02*
X100403333Y-74094819D01*
X100403333Y-74094819D02*
X99974762Y-75094819D01*
X194133333Y-77924819D02*
X193800000Y-77448628D01*
X193561905Y-77924819D02*
X193561905Y-76924819D01*
X193561905Y-76924819D02*
X193942857Y-76924819D01*
X193942857Y-76924819D02*
X194038095Y-76972438D01*
X194038095Y-76972438D02*
X194085714Y-77020057D01*
X194085714Y-77020057D02*
X194133333Y-77115295D01*
X194133333Y-77115295D02*
X194133333Y-77258152D01*
X194133333Y-77258152D02*
X194085714Y-77353390D01*
X194085714Y-77353390D02*
X194038095Y-77401009D01*
X194038095Y-77401009D02*
X193942857Y-77448628D01*
X193942857Y-77448628D02*
X193561905Y-77448628D01*
X194990476Y-76924819D02*
X194800000Y-76924819D01*
X194800000Y-76924819D02*
X194704762Y-76972438D01*
X194704762Y-76972438D02*
X194657143Y-77020057D01*
X194657143Y-77020057D02*
X194561905Y-77162914D01*
X194561905Y-77162914D02*
X194514286Y-77353390D01*
X194514286Y-77353390D02*
X194514286Y-77734342D01*
X194514286Y-77734342D02*
X194561905Y-77829580D01*
X194561905Y-77829580D02*
X194609524Y-77877200D01*
X194609524Y-77877200D02*
X194704762Y-77924819D01*
X194704762Y-77924819D02*
X194895238Y-77924819D01*
X194895238Y-77924819D02*
X194990476Y-77877200D01*
X194990476Y-77877200D02*
X195038095Y-77829580D01*
X195038095Y-77829580D02*
X195085714Y-77734342D01*
X195085714Y-77734342D02*
X195085714Y-77496247D01*
X195085714Y-77496247D02*
X195038095Y-77401009D01*
X195038095Y-77401009D02*
X194990476Y-77353390D01*
X194990476Y-77353390D02*
X194895238Y-77305771D01*
X194895238Y-77305771D02*
X194704762Y-77305771D01*
X194704762Y-77305771D02*
X194609524Y-77353390D01*
X194609524Y-77353390D02*
X194561905Y-77401009D01*
X194561905Y-77401009D02*
X194514286Y-77496247D01*
D11*
X202630000Y-101836000D02*
X202630000Y-101680000D01*
X202630000Y-99520000D02*
X202630000Y-99364000D01*
X202630000Y-101835516D02*
G75*
G02*
X199397665Y-101678608I-1560000J1235516D01*
G01*
X202110961Y-101680000D02*
G75*
G02*
X200028870Y-101679837I-1040961J1080000D01*
G01*
X200028870Y-99520163D02*
G75*
G02*
X202110961Y-99520000I1041130J-1079837D01*
G01*
X199397665Y-99521392D02*
G75*
G02*
X202630000Y-99364484I1672335J-1078608D01*
G01*
X144046000Y-107060000D02*
X141760000Y-108584000D01*
X144300000Y-105536000D02*
X144300000Y-106044000D01*
X144300000Y-108330000D02*
X144300000Y-108584000D01*
X151920000Y-105536000D02*
X151920000Y-108584000D01*
X151920000Y-107060000D02*
X144554000Y-107060000D01*
X140490000Y-103250000D02*
X153190000Y-103250000D01*
X153190000Y-110870000D01*
X140490000Y-110870000D01*
X140490000Y-103250000D01*
X144046000Y-106044000D02*
X144554000Y-106044000D01*
X144554000Y-108330000D01*
X144046000Y-108330000D01*
X144046000Y-106044000D01*
X161430000Y-129060000D02*
X161430000Y-122520000D01*
X161760000Y-129060000D02*
X161430000Y-129060000D01*
X163840000Y-129060000D02*
X164170000Y-129060000D01*
X164170000Y-129060000D02*
X164170000Y-122520000D01*
X161430000Y-122520000D02*
X161760000Y-122520000D01*
X164170000Y-122520000D02*
X163840000Y-122520000D01*
X127284000Y-131610000D02*
X127284000Y-131864000D01*
X127284000Y-131864000D02*
X125760000Y-131864000D01*
X145430000Y-134180000D02*
X145430000Y-127640000D01*
X145760000Y-134180000D02*
X145430000Y-134180000D01*
X147840000Y-134180000D02*
X148170000Y-134180000D01*
X148170000Y-134180000D02*
X148170000Y-127640000D01*
X145430000Y-127640000D02*
X145760000Y-127640000D01*
X148170000Y-127640000D02*
X147840000Y-127640000D01*
D10*
X111550000Y-47380000D02*
X111550000Y-129880000D01*
X111550000Y-72380000D02*
X181550000Y-72380000D01*
X111550000Y-129880000D02*
X181550000Y-129880000D01*
X175760000Y-79880000D02*
X175760000Y-78610000D01*
X181550000Y-47380000D02*
X111550000Y-47380000D01*
X181550000Y-49880000D02*
X181550000Y-47380000D01*
X181550000Y-129880000D02*
X181550000Y-49880000D01*
D11*
X196880000Y-101970000D02*
X190340000Y-101970000D01*
X196880000Y-101640000D02*
X196880000Y-101970000D01*
X196880000Y-99560000D02*
X196880000Y-99230000D01*
X196880000Y-99230000D02*
X190340000Y-99230000D01*
X190340000Y-101970000D02*
X190340000Y-101640000D01*
X190340000Y-99230000D02*
X190340000Y-99560000D01*
X196880000Y-114470000D02*
X190340000Y-114470000D01*
X196880000Y-114140000D02*
X196880000Y-114470000D01*
X196880000Y-112060000D02*
X196880000Y-111730000D01*
X196880000Y-111730000D02*
X190340000Y-111730000D01*
X190340000Y-114470000D02*
X190340000Y-114140000D01*
X190340000Y-111730000D02*
X190340000Y-112060000D01*
X135630000Y-139336000D02*
X135630000Y-139180000D01*
X135630000Y-137020000D02*
X135630000Y-136864000D01*
X135630000Y-139335516D02*
G75*
G02*
X132397665Y-139178608I-1560000J1235516D01*
G01*
X135110961Y-139180000D02*
G75*
G02*
X133028870Y-139179837I-1040961J1080000D01*
G01*
X133028870Y-137020163D02*
G75*
G02*
X135110961Y-137020000I1041130J-1079837D01*
G01*
X132397665Y-137021392D02*
G75*
G02*
X135630000Y-136864484I1672335J-1078608D01*
G01*
X202630000Y-114336000D02*
X202630000Y-114180000D01*
X202630000Y-112020000D02*
X202630000Y-111864000D01*
X202630000Y-114335516D02*
G75*
G02*
X199397665Y-114178608I-1560000J1235516D01*
G01*
X202110961Y-114180000D02*
G75*
G02*
X200028870Y-114179837I-1040961J1080000D01*
G01*
X200028870Y-112020163D02*
G75*
G02*
X202110961Y-112020000I1041130J-1079837D01*
G01*
X199397665Y-112021392D02*
G75*
G02*
X202630000Y-111864484I1672335J-1078608D01*
G01*
X212630000Y-93336000D02*
X212630000Y-93180000D01*
X212630000Y-91020000D02*
X212630000Y-90864000D01*
X212630000Y-93335516D02*
G75*
G02*
X209397665Y-93178608I-1560000J1235516D01*
G01*
X212110961Y-93180000D02*
G75*
G02*
X210028870Y-93179837I-1040961J1080000D01*
G01*
X210028870Y-91020163D02*
G75*
G02*
X212110961Y-91020000I1041130J-1079837D01*
G01*
X209397665Y-91021392D02*
G75*
G02*
X212630000Y-90864484I1672335J-1078608D01*
G01*
X102400000Y-102000000D02*
X111200000Y-102000000D01*
X111200000Y-102000000D02*
X111200000Y-82200000D01*
X102400000Y-82200000D02*
X102400000Y-102000000D01*
X102400000Y-82200000D02*
X111200000Y-82200000D01*
X166930000Y-129060000D02*
X166930000Y-122520000D01*
X167260000Y-129060000D02*
X166930000Y-129060000D01*
X169340000Y-129060000D02*
X169670000Y-129060000D01*
X169670000Y-129060000D02*
X169670000Y-122520000D01*
X166930000Y-122520000D02*
X167260000Y-122520000D01*
X169670000Y-122520000D02*
X169340000Y-122520000D01*
X128430000Y-138180000D02*
X128430000Y-131640000D01*
X128760000Y-138180000D02*
X128430000Y-138180000D01*
X130840000Y-138180000D02*
X131170000Y-138180000D01*
X131170000Y-138180000D02*
X131170000Y-131640000D01*
X128430000Y-131640000D02*
X128760000Y-131640000D01*
X131170000Y-131640000D02*
X130840000Y-131640000D01*
X210340000Y-86730000D02*
X216880000Y-86730000D01*
X210340000Y-87060000D02*
X210340000Y-86730000D01*
X210340000Y-89140000D02*
X210340000Y-89470000D01*
X210340000Y-89470000D02*
X216880000Y-89470000D01*
X216880000Y-86730000D02*
X216880000Y-87060000D01*
X216880000Y-89470000D02*
X216880000Y-89140000D01*
X167064000Y-134930000D02*
X167220000Y-134930000D01*
X169380000Y-134930000D02*
X169536000Y-134930000D01*
X167064484Y-134930000D02*
G75*
G02*
X167221392Y-131697665I1235516J1560000D01*
G01*
X167220000Y-134410961D02*
G75*
G02*
X167220163Y-132328870I1080000J1040961D01*
G01*
X169379837Y-132328870D02*
G75*
G02*
X169380000Y-134410961I-1079837J-1041130D01*
G01*
X169378608Y-131697665D02*
G75*
G02*
X169535516Y-134930000I-1078608J-1672335D01*
G01*
X110380000Y-78970000D02*
X103840000Y-78970000D01*
X110380000Y-78640000D02*
X110380000Y-78970000D01*
X110380000Y-76560000D02*
X110380000Y-76230000D01*
X110380000Y-76230000D02*
X103840000Y-76230000D01*
X103840000Y-78970000D02*
X103840000Y-78640000D01*
X103840000Y-76230000D02*
X103840000Y-76560000D01*
X161564000Y-134930000D02*
X161720000Y-134930000D01*
X163880000Y-134930000D02*
X164036000Y-134930000D01*
X161564484Y-134930000D02*
G75*
G02*
X161721392Y-131697665I1235516J1560000D01*
G01*
X161720000Y-134410961D02*
G75*
G02*
X161720163Y-132328870I1080000J1040961D01*
G01*
X163879837Y-132328870D02*
G75*
G02*
X163880000Y-134410961I-1079837J-1041130D01*
G01*
X163878608Y-131697665D02*
G75*
G02*
X164035516Y-134930000I-1078608J-1672335D01*
G01*
X203865000Y-76336000D02*
X203865000Y-76180000D01*
X203865000Y-74020000D02*
X203865000Y-73864000D01*
X203865000Y-76335516D02*
G75*
G02*
X200632665Y-76178608I-1560000J1235516D01*
G01*
X203345961Y-76180000D02*
G75*
G02*
X201263870Y-76179837I-1040961J1080000D01*
G01*
X201263870Y-74020163D02*
G75*
G02*
X203345961Y-74020000I1041130J-1079837D01*
G01*
X200632665Y-74021392D02*
G75*
G02*
X203865000Y-73864484I1672335J-1078608D01*
G01*
X136440000Y-121308000D02*
X136440000Y-134128000D01*
X136440000Y-134128000D02*
X144160000Y-134128000D01*
X137100000Y-126818000D02*
X136440000Y-126818000D01*
X137100000Y-130228000D02*
X137100000Y-126818000D01*
X137550000Y-131828000D02*
X138700000Y-131828000D01*
X137550000Y-134128000D02*
X137550000Y-131828000D01*
X137660000Y-121308000D02*
X136440000Y-121308000D01*
X137660000Y-124208000D02*
X137660000Y-121308000D01*
X137940000Y-124208000D02*
X137660000Y-124208000D01*
X138200000Y-126818000D02*
X138200000Y-130228000D01*
X138200000Y-130228000D02*
X137100000Y-130228000D01*
X138650000Y-123218000D02*
X139450000Y-123218000D01*
X138700000Y-126818000D02*
X138200000Y-126818000D01*
X138700000Y-131828000D02*
X138700000Y-126818000D01*
X139050000Y-123618000D02*
X138650000Y-123218000D01*
X139450000Y-123218000D02*
X139050000Y-123618000D01*
X139900000Y-128218000D02*
X140700000Y-128218000D01*
X139900000Y-130018000D02*
X139900000Y-128218000D01*
X140700000Y-128218000D02*
X140700000Y-130018000D01*
X140700000Y-130018000D02*
X139900000Y-130018000D01*
X141900000Y-126818000D02*
X142400000Y-126818000D01*
X141900000Y-131828000D02*
X141900000Y-126818000D01*
X141900000Y-131828000D02*
X143050000Y-131828000D01*
X142400000Y-126818000D02*
X142400000Y-130228000D01*
X142400000Y-130228000D02*
X143500000Y-130228000D01*
X142940000Y-121308000D02*
X142940000Y-124208000D01*
X142940000Y-124208000D02*
X142660000Y-124208000D01*
X143050000Y-131828000D02*
X143050000Y-134128000D01*
X143500000Y-126818000D02*
X144160000Y-126818000D01*
X143500000Y-130228000D02*
X143500000Y-126818000D01*
X144160000Y-121308000D02*
X142940000Y-121308000D01*
X144160000Y-134128000D02*
X144160000Y-121308000D01*
X145564000Y-139930000D02*
X145720000Y-139930000D01*
X147880000Y-139930000D02*
X148036000Y-139930000D01*
X145564484Y-139930000D02*
G75*
G02*
X145721392Y-136697665I1235516J1560000D01*
G01*
X145720000Y-139410961D02*
G75*
G02*
X145720163Y-137328870I1080000J1040961D01*
G01*
X147879837Y-137328870D02*
G75*
G02*
X147880000Y-139410961I-1079837J-1041130D01*
G01*
X147878608Y-136697665D02*
G75*
G02*
X148035516Y-139930000I-1078608J-1672335D01*
G01*
X98010000Y-76364000D02*
X98010000Y-76520000D01*
X98010000Y-78680000D02*
X98010000Y-78836000D01*
X98010000Y-76364484D02*
G75*
G02*
X101242335Y-76521392I1560000J-1235516D01*
G01*
X98529039Y-76520000D02*
G75*
G02*
X100611130Y-76520163I1040961J-1080000D01*
G01*
X100611130Y-78679837D02*
G75*
G02*
X98529039Y-78680000I-1041130J1079837D01*
G01*
X101242335Y-78678608D02*
G75*
G02*
X98010000Y-78835516I-1672335J1078608D01*
G01*
X197570000Y-76470000D02*
X191030000Y-76470000D01*
X197570000Y-76140000D02*
X197570000Y-76470000D01*
X197570000Y-74060000D02*
X197570000Y-73730000D01*
X197570000Y-73730000D02*
X191030000Y-73730000D01*
X191030000Y-76470000D02*
X191030000Y-76140000D01*
X191030000Y-73730000D02*
X191030000Y-74060000D01*
%LPC*%
D12*
X202340000Y-100600000D03*
D13*
X199800000Y-100600000D03*
D14*
X141760000Y-109600000D03*
X144300000Y-109600000D03*
X151920000Y-109600000D03*
X141760000Y-104520000D03*
X144300000Y-104520000D03*
X151920000Y-104520000D03*
D15*
X162800000Y-129600000D03*
D16*
X162800000Y-121980000D03*
D17*
X120680000Y-132880000D03*
X123220000Y-132880000D03*
X125760000Y-132880000D03*
D15*
X146800000Y-134720000D03*
D16*
X146800000Y-127100000D03*
D18*
X114800000Y-79880000D03*
D19*
X117340000Y-79880000D03*
X114800000Y-82420000D03*
X117340000Y-82420000D03*
X114800000Y-84960000D03*
X117340000Y-84960000D03*
X114800000Y-87500000D03*
X117340000Y-87500000D03*
X114800000Y-90040000D03*
X117340000Y-90040000D03*
D20*
X114800000Y-92580000D03*
X117340000Y-92580000D03*
X114800000Y-95120000D03*
X117340000Y-95120000D03*
D19*
X114800000Y-97660000D03*
X117340000Y-97660000D03*
X114800000Y-100200000D03*
X117340000Y-100200000D03*
X114800000Y-102740000D03*
X117340000Y-102740000D03*
X114800000Y-105280000D03*
X117340000Y-105280000D03*
X114800000Y-107820000D03*
X117340000Y-107820000D03*
X114800000Y-110360000D03*
X117340000Y-110360000D03*
X114800000Y-112900000D03*
X117340000Y-112900000D03*
X114800000Y-115440000D03*
X117340000Y-115440000D03*
X114800000Y-117980000D03*
X117340000Y-117980000D03*
X114800000Y-120520000D03*
X117340000Y-120520000D03*
X114800000Y-123060000D03*
X117340000Y-123060000D03*
X114800000Y-125600000D03*
X117340000Y-125600000D03*
X175760000Y-79880000D03*
X178300000Y-79880000D03*
X175760000Y-82420000D03*
X178300000Y-82420000D03*
X175760000Y-84960000D03*
D20*
X178300000Y-84960000D03*
D19*
X175760000Y-87500000D03*
D20*
X178300000Y-87500000D03*
D19*
X175760000Y-90040000D03*
X178300000Y-90040000D03*
D20*
X175760000Y-92580000D03*
D19*
X178300000Y-92580000D03*
D20*
X175760000Y-95120000D03*
D19*
X178300000Y-95120000D03*
X175760000Y-97660000D03*
X178300000Y-97660000D03*
X175760000Y-100200000D03*
X178300000Y-100200000D03*
X175760000Y-102740000D03*
X178300000Y-102740000D03*
X175760000Y-105280000D03*
X178300000Y-105280000D03*
X175760000Y-107820000D03*
X178300000Y-107820000D03*
X175760000Y-110360000D03*
X178300000Y-110360000D03*
X175760000Y-112900000D03*
X178300000Y-112900000D03*
D20*
X175760000Y-115440000D03*
X178300000Y-115440000D03*
X175760000Y-117980000D03*
X178300000Y-117980000D03*
D19*
X175760000Y-120520000D03*
X178300000Y-120520000D03*
X175760000Y-123060000D03*
X178300000Y-123060000D03*
X175760000Y-125600000D03*
X178300000Y-125600000D03*
D15*
X197420000Y-100600000D03*
D16*
X189800000Y-100600000D03*
D15*
X197420000Y-113100000D03*
D16*
X189800000Y-113100000D03*
D12*
X135340000Y-138100000D03*
D13*
X132800000Y-138100000D03*
D12*
X202340000Y-113100000D03*
D13*
X199800000Y-113100000D03*
D12*
X212340000Y-92100000D03*
D13*
X209800000Y-92100000D03*
D21*
X105100000Y-98850000D03*
X108500000Y-98850000D03*
X105100000Y-85350000D03*
X108500000Y-85350000D03*
D15*
X168300000Y-129600000D03*
D16*
X168300000Y-121980000D03*
D15*
X129800000Y-138720000D03*
D16*
X129800000Y-131100000D03*
D15*
X209800000Y-88100000D03*
D16*
X217420000Y-88100000D03*
D12*
X168300000Y-134640000D03*
D13*
X168300000Y-132100000D03*
D15*
X110920000Y-77600000D03*
D16*
X103300000Y-77600000D03*
D12*
X162800000Y-134640000D03*
D13*
X162800000Y-132100000D03*
D12*
X203575000Y-75100000D03*
D13*
X201035000Y-75100000D03*
D22*
X140300000Y-131318000D03*
D23*
X139050000Y-124818000D03*
D24*
X141550000Y-124818000D03*
D12*
X146800000Y-139640000D03*
D13*
X146800000Y-137100000D03*
D12*
X98300000Y-77600000D03*
D13*
X100840000Y-77600000D03*
D15*
X198110000Y-75100000D03*
D16*
X190490000Y-75100000D03*
D15*
X151050000Y-132600000D03*
X157550000Y-132600000D03*
%LPD*%
M02*
