G04 #@! TF.GenerationSoftware,KiCad,Pcbnew,8.0.3*
G04 #@! TF.CreationDate,2024-09-19T09:09:21+09:00*
G04 #@! TF.ProjectId,YAMADAmain_ver.nucleo,59414d41-4441-46d6-9169-6e5f7665722e,rev?*
G04 #@! TF.SameCoordinates,Original*
G04 #@! TF.FileFunction,Copper,L2,Bot*
G04 #@! TF.FilePolarity,Positive*
%FSLAX46Y46*%
G04 Gerber Fmt 4.6, Leading zero omitted, Abs format (unit mm)*
G04 Created by KiCad (PCBNEW 8.0.3) date 2024-09-19 09:09:21*
%MOMM*%
%LPD*%
G01*
G04 APERTURE LIST*
G04 Aperture macros list*
%AMRoundRect*
0 Rectangle with rounded corners*
0 $1 Rounding radius*
0 $2 $3 $4 $5 $6 $7 $8 $9 X,Y pos of 4 corners*
0 Add a 4 corners polygon primitive as box body*
4,1,4,$2,$3,$4,$5,$6,$7,$8,$9,$2,$3,0*
0 Add four circle primitives for the rounded corners*
1,1,$1+$1,$2,$3*
1,1,$1+$1,$4,$5*
1,1,$1+$1,$6,$7*
1,1,$1+$1,$8,$9*
0 Add four rect primitives between the rounded corners*
20,1,$1+$1,$2,$3,$4,$5,0*
20,1,$1+$1,$4,$5,$6,$7,0*
20,1,$1+$1,$6,$7,$8,$9,0*
20,1,$1+$1,$8,$9,$2,$3,0*%
G04 Aperture macros list end*
G04 #@! TA.AperFunction,ComponentPad*
%ADD10R,1.800000X1.800000*%
G04 #@! TD*
G04 #@! TA.AperFunction,ComponentPad*
%ADD11C,1.800000*%
G04 #@! TD*
G04 #@! TA.AperFunction,ComponentPad*
%ADD12C,1.524000*%
G04 #@! TD*
G04 #@! TA.AperFunction,ComponentPad*
%ADD13C,1.600000*%
G04 #@! TD*
G04 #@! TA.AperFunction,ComponentPad*
%ADD14O,1.600000X1.600000*%
G04 #@! TD*
G04 #@! TA.AperFunction,ComponentPad*
%ADD15O,1.700000X1.700000*%
G04 #@! TD*
G04 #@! TA.AperFunction,ComponentPad*
%ADD16R,1.800000X1.524000*%
G04 #@! TD*
G04 #@! TA.AperFunction,ComponentPad*
%ADD17O,1.800000X1.524000*%
G04 #@! TD*
G04 #@! TA.AperFunction,ComponentPad*
%ADD18C,1.000000*%
G04 #@! TD*
G04 #@! TA.AperFunction,ComponentPad*
%ADD19R,2.500000X3.000000*%
G04 #@! TD*
G04 #@! TA.AperFunction,ComponentPad*
%ADD20R,1.700000X1.950000*%
G04 #@! TD*
G04 #@! TA.AperFunction,ComponentPad*
%ADD21O,1.700000X1.950000*%
G04 #@! TD*
G04 #@! TA.AperFunction,SMDPad,CuDef*
%ADD22RoundRect,0.150000X0.700000X-0.150000X0.700000X0.150000X-0.700000X0.150000X-0.700000X-0.150000X0*%
G04 #@! TD*
G04 #@! TA.AperFunction,SMDPad,CuDef*
%ADD23RoundRect,0.250000X1.150000X-0.250000X1.150000X0.250000X-1.150000X0.250000X-1.150000X-0.250000X0*%
G04 #@! TD*
G04 #@! TA.AperFunction,SMDPad,CuDef*
%ADD24R,0.760000X1.100000*%
G04 #@! TD*
G04 #@! TA.AperFunction,SMDPad,CuDef*
%ADD25R,0.900000X1.200000*%
G04 #@! TD*
G04 #@! TA.AperFunction,SMDPad,CuDef*
%ADD26R,1.375000X1.450000*%
G04 #@! TD*
G04 #@! TA.AperFunction,SMDPad,CuDef*
%ADD27RoundRect,0.225000X-2.025000X-2.025000X2.025000X-2.025000X2.025000X2.025000X-2.025000X2.025000X0*%
G04 #@! TD*
G04 #@! TA.AperFunction,SMDPad,CuDef*
%ADD28R,1.450000X1.175000*%
G04 #@! TD*
G04 #@! TA.AperFunction,SMDPad,CuDef*
%ADD29R,0.900000X0.600000*%
G04 #@! TD*
G04 #@! TA.AperFunction,ViaPad*
%ADD30C,4.000000*%
G04 #@! TD*
G04 #@! TA.AperFunction,ViaPad*
%ADD31C,1.200000*%
G04 #@! TD*
G04 #@! TA.AperFunction,Conductor*
%ADD32C,1.000000*%
G04 #@! TD*
G04 #@! TA.AperFunction,Conductor*
%ADD33C,0.500000*%
G04 #@! TD*
G04 APERTURE END LIST*
D10*
X202340000Y-100600000D03*
D11*
X199800000Y-100600000D03*
D12*
X141760000Y-109600000D03*
X144300000Y-109600000D03*
X151920000Y-109600000D03*
X141760000Y-104520000D03*
X144300000Y-104520000D03*
X151920000Y-104520000D03*
D13*
X162800000Y-129600000D03*
D14*
X162800000Y-121980000D03*
D15*
X120680000Y-132880000D03*
X123220000Y-132880000D03*
X125760000Y-132880000D03*
D13*
X146800000Y-134720000D03*
D14*
X146800000Y-127100000D03*
D16*
X114800000Y-79880000D03*
D17*
X117340000Y-79880000D03*
X114800000Y-82420000D03*
X117340000Y-82420000D03*
X114800000Y-84960000D03*
X117340000Y-84960000D03*
X114800000Y-87500000D03*
X117340000Y-87500000D03*
X114800000Y-90040000D03*
X117340000Y-90040000D03*
D18*
X114800000Y-92580000D03*
X117340000Y-92580000D03*
X114800000Y-95120000D03*
X117340000Y-95120000D03*
D17*
X114800000Y-97660000D03*
X117340000Y-97660000D03*
X114800000Y-100200000D03*
X117340000Y-100200000D03*
X114800000Y-102740000D03*
X117340000Y-102740000D03*
X114800000Y-105280000D03*
X117340000Y-105280000D03*
X114800000Y-107820000D03*
X117340000Y-107820000D03*
X114800000Y-110360000D03*
X117340000Y-110360000D03*
X114800000Y-112900000D03*
X117340000Y-112900000D03*
X114800000Y-115440000D03*
X117340000Y-115440000D03*
X114800000Y-117980000D03*
X117340000Y-117980000D03*
X114800000Y-120520000D03*
X117340000Y-120520000D03*
X114800000Y-123060000D03*
X117340000Y-123060000D03*
X114800000Y-125600000D03*
X117340000Y-125600000D03*
X175760000Y-79880000D03*
X178300000Y-79880000D03*
X175760000Y-82420000D03*
X178300000Y-82420000D03*
X175760000Y-84960000D03*
D18*
X178300000Y-84960000D03*
D17*
X175760000Y-87500000D03*
D18*
X178300000Y-87500000D03*
D17*
X175760000Y-90040000D03*
X178300000Y-90040000D03*
D18*
X175760000Y-92580000D03*
D17*
X178300000Y-92580000D03*
D18*
X175760000Y-95120000D03*
D17*
X178300000Y-95120000D03*
X175760000Y-97660000D03*
X178300000Y-97660000D03*
X175760000Y-100200000D03*
X178300000Y-100200000D03*
X175760000Y-102740000D03*
X178300000Y-102740000D03*
X175760000Y-105280000D03*
X178300000Y-105280000D03*
X175760000Y-107820000D03*
X178300000Y-107820000D03*
X175760000Y-110360000D03*
X178300000Y-110360000D03*
X175760000Y-112900000D03*
X178300000Y-112900000D03*
D18*
X175760000Y-115440000D03*
X178300000Y-115440000D03*
X175760000Y-117980000D03*
X178300000Y-117980000D03*
D17*
X175760000Y-120520000D03*
X178300000Y-120520000D03*
X175760000Y-123060000D03*
X178300000Y-123060000D03*
X175760000Y-125600000D03*
X178300000Y-125600000D03*
D13*
X197420000Y-100600000D03*
D14*
X189800000Y-100600000D03*
D13*
X197420000Y-113100000D03*
D14*
X189800000Y-113100000D03*
D10*
X135340000Y-138100000D03*
D11*
X132800000Y-138100000D03*
D10*
X202340000Y-113100000D03*
D11*
X199800000Y-113100000D03*
D10*
X212340000Y-92100000D03*
D11*
X209800000Y-92100000D03*
D19*
X105100000Y-98850000D03*
X108500000Y-98850000D03*
X105100000Y-85350000D03*
X108500000Y-85350000D03*
D13*
X168300000Y-129600000D03*
D14*
X168300000Y-121980000D03*
D13*
X129800000Y-138720000D03*
D14*
X129800000Y-131100000D03*
D13*
X209800000Y-88100000D03*
D14*
X217420000Y-88100000D03*
D10*
X168300000Y-134640000D03*
D11*
X168300000Y-132100000D03*
D13*
X110920000Y-77600000D03*
D14*
X103300000Y-77600000D03*
D10*
X162800000Y-134640000D03*
D11*
X162800000Y-132100000D03*
D10*
X203575000Y-75100000D03*
D11*
X201035000Y-75100000D03*
D20*
X139050000Y-124818000D03*
D21*
X141550000Y-124818000D03*
D10*
X146800000Y-139640000D03*
D11*
X146800000Y-137100000D03*
D10*
X98300000Y-77600000D03*
D11*
X100840000Y-77600000D03*
D13*
X198110000Y-75100000D03*
D14*
X190490000Y-75100000D03*
D22*
X198850000Y-119225000D03*
X198850000Y-117975000D03*
D23*
X202200000Y-121075000D03*
X202200000Y-116125000D03*
D24*
X193570000Y-97299998D03*
X192300000Y-97299998D03*
X191030000Y-97299998D03*
X189760000Y-97299998D03*
X189760000Y-91600000D03*
X191030000Y-91600000D03*
X192300000Y-91600000D03*
X193570000Y-91600000D03*
D22*
X198850000Y-83225000D03*
X198850000Y-81975000D03*
D23*
X202200000Y-85075000D03*
X202200000Y-80125000D03*
D25*
X145300000Y-112600000D03*
X148600000Y-112600000D03*
D22*
X198850000Y-94725000D03*
X198850000Y-93475000D03*
D23*
X202200000Y-96575000D03*
X202200000Y-91625000D03*
D26*
X123300000Y-104600000D03*
X125575000Y-104600000D03*
D22*
X198850000Y-107225000D03*
X198850000Y-105975000D03*
D23*
X202200000Y-109075000D03*
X202200000Y-104125000D03*
D24*
X193570000Y-121299998D03*
X192300000Y-121299998D03*
X191030000Y-121299998D03*
X189760000Y-121299998D03*
X189760000Y-115600000D03*
X191030000Y-115600000D03*
X192300000Y-115600000D03*
X193570000Y-115600000D03*
X193570000Y-109299998D03*
X192300000Y-109299998D03*
X191030000Y-109299998D03*
X189760000Y-109299998D03*
X189760000Y-103600000D03*
X191030000Y-103600000D03*
X192300000Y-103600000D03*
X193570000Y-103600000D03*
D13*
X151050000Y-132600000D03*
D27*
X151050000Y-132600000D03*
D13*
X157550000Y-132600000D03*
D27*
X157550000Y-132600000D03*
D28*
X154300000Y-107637500D03*
X154300000Y-105562500D03*
D29*
X129900000Y-128830000D03*
X129900000Y-127880000D03*
X129900000Y-126930000D03*
X132700000Y-126930000D03*
X132700000Y-128830000D03*
D24*
X193570000Y-85299998D03*
X192300000Y-85299998D03*
X191030000Y-85299998D03*
X189760000Y-85299998D03*
X189760000Y-79600000D03*
X191030000Y-79600000D03*
X192300000Y-79600000D03*
X193570000Y-79600000D03*
D30*
X99800000Y-139100000D03*
X214800000Y-139100000D03*
X214800000Y-71600000D03*
X99800000Y-71600000D03*
D31*
X158800000Y-119600000D03*
X171800000Y-96100000D03*
D32*
X151050000Y-132600000D02*
X143300000Y-132600000D01*
X123220000Y-101800000D02*
X123220000Y-132880000D01*
X115300000Y-135100000D02*
X108500000Y-128300000D01*
X161670000Y-121980000D02*
X151050000Y-132600000D01*
X117340000Y-100200000D02*
X121620000Y-100200000D01*
X143300000Y-132600000D02*
X140800000Y-135100000D01*
X105100000Y-98850000D02*
X108500000Y-98850000D01*
X108500000Y-128300000D02*
X108500000Y-98850000D01*
X125440000Y-135100000D02*
X123220000Y-132880000D01*
X162800000Y-121980000D02*
X161670000Y-121980000D01*
X140800000Y-135100000D02*
X125440000Y-135100000D01*
X121000000Y-135100000D02*
X115300000Y-135100000D01*
X123220000Y-132880000D02*
X121000000Y-135100000D01*
X121620000Y-100200000D02*
X123220000Y-101800000D01*
X131300000Y-103600000D02*
X131300000Y-127430000D01*
X117340000Y-97660000D02*
X125360000Y-97660000D01*
X125360000Y-97660000D02*
X131300000Y-103600000D01*
X130430000Y-131100000D02*
X132700000Y-128830000D01*
X129800000Y-131100000D02*
X130430000Y-131100000D01*
X131300000Y-127430000D02*
X132700000Y-128830000D01*
X162800000Y-129600000D02*
X162800000Y-132100000D01*
X100840000Y-77600000D02*
X103300000Y-77600000D01*
X146800000Y-134720000D02*
X146800000Y-137100000D01*
X168300000Y-129600000D02*
X168300000Y-132100000D01*
X146300000Y-107100000D02*
X140800000Y-107100000D01*
X151920000Y-109600000D02*
X152337500Y-109600000D01*
X140800000Y-107100000D02*
X138300000Y-104600000D01*
X125000000Y-77600000D02*
X113300000Y-77600000D01*
X152337500Y-109600000D02*
X154300000Y-107637500D01*
X110920000Y-77600000D02*
X113300000Y-77600000D01*
X148880000Y-104520000D02*
X146300000Y-107100000D01*
X138300000Y-90900000D02*
X125000000Y-77600000D01*
X113300000Y-77600000D02*
X108500000Y-82400000D01*
X151920000Y-104520000D02*
X151920000Y-109600000D01*
X105100000Y-85350000D02*
X108500000Y-85350000D01*
X151920000Y-104520000D02*
X148880000Y-104520000D01*
X108500000Y-82400000D02*
X108500000Y-85350000D01*
X138300000Y-104600000D02*
X138300000Y-90900000D01*
X112300000Y-98600000D02*
X113900000Y-100200000D01*
X112300000Y-95450000D02*
X112300000Y-98600000D01*
X113900000Y-100200000D02*
X114800000Y-100200000D01*
X141550000Y-126350000D02*
X140300000Y-127600000D01*
X135300000Y-98100000D02*
X131100000Y-93900000D01*
X143832000Y-127100000D02*
X141550000Y-124818000D01*
X141550000Y-124818000D02*
X141550000Y-126350000D01*
X137800000Y-127600000D02*
X135300000Y-125100000D01*
X113850000Y-93900000D02*
X112300000Y-95450000D01*
X140300000Y-127600000D02*
X137800000Y-127600000D01*
X146800000Y-127100000D02*
X143832000Y-127100000D01*
X131100000Y-93900000D02*
X113850000Y-93900000D01*
X135300000Y-125100000D02*
X135300000Y-98100000D01*
X193570000Y-85299998D02*
X196775002Y-85299998D01*
X196775002Y-85299998D02*
X198850000Y-83225000D01*
X193175000Y-81975000D02*
X198850000Y-81975000D01*
X192300000Y-81100000D02*
X193175000Y-81975000D01*
X192300000Y-79600000D02*
X192300000Y-81100000D01*
X193570000Y-97299998D02*
X196350002Y-97299998D01*
X196350002Y-97299998D02*
X198850000Y-94800000D01*
X192675000Y-93475000D02*
X198850000Y-93475000D01*
X192300000Y-93100000D02*
X192675000Y-93475000D01*
X192300000Y-91600000D02*
X192300000Y-93100000D01*
X196775002Y-109299998D02*
X198850000Y-107225000D01*
X193570000Y-109299998D02*
X196775002Y-109299998D01*
X193300000Y-105975000D02*
X198850000Y-105975000D01*
X192300000Y-104975000D02*
X193300000Y-105975000D01*
X192300000Y-103600000D02*
X192300000Y-104975000D01*
X196775002Y-121299998D02*
X198850000Y-119225000D01*
X193570000Y-121299998D02*
X196775002Y-121299998D01*
X193675000Y-117975000D02*
X198850000Y-117975000D01*
X192300000Y-116600000D02*
X193675000Y-117975000D01*
X192300000Y-115600000D02*
X192300000Y-116600000D01*
X153800000Y-99600000D02*
X146680000Y-99600000D01*
X192300000Y-121299998D02*
X191030000Y-121299998D01*
X192300000Y-113100000D02*
X191030000Y-114370000D01*
X185800000Y-69100000D02*
X184800000Y-68100000D01*
X191030000Y-115600000D02*
X191030000Y-121299998D01*
X191030000Y-114370000D02*
X191030000Y-115600000D01*
X191030000Y-95330000D02*
X191030000Y-97299998D01*
X193300000Y-71100000D02*
X191300000Y-69100000D01*
X191030000Y-102130000D02*
X191030000Y-103600000D01*
X191030000Y-79600000D02*
X191030000Y-78870000D01*
X192300000Y-100800000D02*
X191000000Y-102100000D01*
X187800000Y-92100000D02*
X191030000Y-95330000D01*
X187800000Y-89600000D02*
X187800000Y-92100000D01*
X146680000Y-99600000D02*
X141760000Y-104520000D01*
X169800000Y-68100000D02*
X162300000Y-75600000D01*
X162300000Y-83980000D02*
X141760000Y-104520000D01*
X184800000Y-68100000D02*
X169800000Y-68100000D01*
X191030000Y-78870000D02*
X193300000Y-76600000D01*
X192300000Y-85299998D02*
X191030000Y-85299998D01*
X191030000Y-85299998D02*
X191030000Y-86370000D01*
X192300000Y-109299998D02*
X192300000Y-113100000D01*
X191000000Y-102100000D02*
X191030000Y-102130000D01*
X168300000Y-121980000D02*
X168300000Y-114100000D01*
X191030000Y-91600000D02*
X191030000Y-97299998D01*
X193300000Y-76600000D02*
X193300000Y-71100000D01*
X192300000Y-109299998D02*
X191030000Y-109299998D01*
X191300000Y-69100000D02*
X185800000Y-69100000D01*
X191030000Y-79600000D02*
X191030000Y-85299998D01*
X192300000Y-97299998D02*
X192300000Y-100800000D01*
X168300000Y-114100000D02*
X153800000Y-99600000D01*
X191030000Y-86370000D02*
X187800000Y-89600000D01*
X162300000Y-75600000D02*
X162300000Y-83980000D01*
X192300000Y-97299998D02*
X191030000Y-97299998D01*
X191030000Y-103600000D02*
X191030000Y-109299998D01*
X173400000Y-112720000D02*
X175760000Y-110360000D01*
X179800000Y-116700000D02*
X174900000Y-116700000D01*
X184399998Y-121299998D02*
X179800000Y-116700000D01*
X173400000Y-115200000D02*
X173400000Y-112720000D01*
X189760000Y-121299998D02*
X184399998Y-121299998D01*
X174900000Y-116700000D02*
X173400000Y-115200000D01*
X175760000Y-84960000D02*
X175860000Y-84960000D01*
X179400000Y-86200000D02*
X180800000Y-87600000D01*
X180800000Y-87600000D02*
X180800000Y-100339998D01*
X175860000Y-84960000D02*
X177100000Y-86200000D01*
X180800000Y-100339998D02*
X189760000Y-109299998D01*
X177100000Y-86200000D02*
X179400000Y-86200000D01*
X174300000Y-74100000D02*
X171300000Y-77100000D01*
X185300000Y-92839998D02*
X185300000Y-79350000D01*
X171300000Y-77100000D02*
X171300000Y-90600000D01*
X180050000Y-74100000D02*
X174300000Y-74100000D01*
X174600000Y-93900000D02*
X177080000Y-93900000D01*
X171300000Y-90600000D02*
X174600000Y-93900000D01*
X189760000Y-97299998D02*
X185300000Y-92839998D01*
X177080000Y-93900000D02*
X178300000Y-95120000D01*
X185300000Y-79350000D02*
X180050000Y-74100000D01*
X189499998Y-85299998D02*
X187800000Y-83600000D01*
X173300000Y-72100000D02*
X168300000Y-77100000D01*
X181300000Y-72100000D02*
X173300000Y-72100000D01*
X168300000Y-97820000D02*
X175760000Y-105280000D01*
X187800000Y-78600000D02*
X181300000Y-72100000D01*
X168300000Y-77100000D02*
X168300000Y-97820000D01*
X189760000Y-85299998D02*
X189499998Y-85299998D01*
X187800000Y-83600000D02*
X187800000Y-78600000D01*
X149300000Y-129100000D02*
X135800000Y-129100000D01*
X158800000Y-119600000D02*
X149300000Y-129100000D01*
X133630000Y-126930000D02*
X132700000Y-126930000D01*
X175760000Y-102740000D02*
X171800000Y-98780000D01*
X171800000Y-98780000D02*
X171800000Y-96100000D01*
X158800000Y-119600000D02*
X149400000Y-129000000D01*
X149400000Y-129000000D02*
X149400000Y-129100000D01*
X135800000Y-129100000D02*
X133630000Y-126930000D01*
X190490000Y-75100000D02*
X190490000Y-77330000D01*
X172300000Y-70100000D02*
X165800000Y-76600000D01*
X165800000Y-76600000D02*
X165800000Y-97860000D01*
X190490000Y-77330000D02*
X189760000Y-78060000D01*
X165800000Y-97860000D02*
X175760000Y-107820000D01*
X189760000Y-79600000D02*
X189760000Y-78060000D01*
X189760000Y-78060000D02*
X181800000Y-70100000D01*
X181800000Y-70100000D02*
X172300000Y-70100000D01*
X173800000Y-122480000D02*
X175760000Y-120520000D01*
X174800000Y-127600000D02*
X173800000Y-126600000D01*
X215420000Y-86100000D02*
X217420000Y-88100000D01*
X173800000Y-126600000D02*
X173800000Y-122480000D01*
X203300000Y-127600000D02*
X174800000Y-127600000D01*
X190300000Y-89600000D02*
X204050000Y-89600000D01*
X207800000Y-93350000D02*
X207800000Y-123100000D01*
X204050000Y-89600000D02*
X207800000Y-93350000D01*
X189760000Y-91600000D02*
X189760000Y-90140000D01*
X207800000Y-123100000D02*
X203300000Y-127600000D01*
X204050000Y-89600000D02*
X205300000Y-89600000D01*
X189760000Y-90140000D02*
X190300000Y-89600000D01*
X208800000Y-86100000D02*
X215420000Y-86100000D01*
X205300000Y-89600000D02*
X208800000Y-86100000D01*
X183300000Y-97140000D02*
X183300000Y-80600000D01*
X174800000Y-76600000D02*
X173300000Y-78100000D01*
X189800000Y-103560000D02*
X189760000Y-103600000D01*
X173300000Y-78100000D02*
X173300000Y-79960000D01*
X189760000Y-103600000D02*
X183300000Y-97140000D01*
X179300000Y-76600000D02*
X174800000Y-76600000D01*
X173300000Y-79960000D02*
X175760000Y-82420000D01*
X189800000Y-100600000D02*
X189800000Y-103560000D01*
X183300000Y-80600000D02*
X179300000Y-76600000D01*
X189760000Y-115600000D02*
X179440000Y-105280000D01*
X179440000Y-105280000D02*
X178300000Y-105280000D01*
X189800000Y-113100000D02*
X189800000Y-115560000D01*
X189800000Y-115560000D02*
X189760000Y-115600000D01*
X132800000Y-138100000D02*
X130420000Y-138100000D01*
X130420000Y-138100000D02*
X129800000Y-138720000D01*
X139050000Y-118850000D02*
X145300000Y-112600000D01*
X139050000Y-124818000D02*
X139050000Y-118850000D01*
X144300000Y-109600000D02*
X145300000Y-110600000D01*
X145300000Y-110600000D02*
X145300000Y-112600000D01*
D33*
X125760000Y-132880000D02*
X125760000Y-128880000D01*
X125760000Y-128880000D02*
X126760000Y-127880000D01*
X126760000Y-127880000D02*
X129900000Y-127880000D01*
D32*
X198110000Y-75100000D02*
X201035000Y-75100000D01*
X209800000Y-88100000D02*
X209800000Y-92100000D01*
X199800000Y-100600000D02*
X197420000Y-100600000D01*
X199800000Y-113100000D02*
X197420000Y-113100000D01*
M02*
