G04 #@! TF.GenerationSoftware,KiCad,Pcbnew,8.0.3*
G04 #@! TF.CreationDate,2024-09-19T09:09:21+09:00*
G04 #@! TF.ProjectId,YAMADAmain_ver.nucleo,59414d41-4441-46d6-9169-6e5f7665722e,rev?*
G04 #@! TF.SameCoordinates,Original*
G04 #@! TF.FileFunction,Legend,Bot*
G04 #@! TF.FilePolarity,Positive*
%FSLAX46Y46*%
G04 Gerber Fmt 4.6, Leading zero omitted, Abs format (unit mm)*
G04 Created by KiCad (PCBNEW 8.0.3) date 2024-09-19 09:09:21*
%MOMM*%
%LPD*%
G01*
G04 APERTURE LIST*
G04 Aperture macros list*
%AMRoundRect*
0 Rectangle with rounded corners*
0 $1 Rounding radius*
0 $2 $3 $4 $5 $6 $7 $8 $9 X,Y pos of 4 corners*
0 Add a 4 corners polygon primitive as box body*
4,1,4,$2,$3,$4,$5,$6,$7,$8,$9,$2,$3,0*
0 Add four circle primitives for the rounded corners*
1,1,$1+$1,$2,$3*
1,1,$1+$1,$4,$5*
1,1,$1+$1,$6,$7*
1,1,$1+$1,$8,$9*
0 Add four rect primitives between the rounded corners*
20,1,$1+$1,$2,$3,$4,$5,0*
20,1,$1+$1,$4,$5,$6,$7,0*
20,1,$1+$1,$6,$7,$8,$9,0*
20,1,$1+$1,$8,$9,$2,$3,0*%
G04 Aperture macros list end*
%ADD10C,0.150000*%
%ADD11C,0.120000*%
%ADD12C,0.254000*%
%ADD13C,0.203200*%
%ADD14C,0.200000*%
%ADD15R,1.800000X1.800000*%
%ADD16C,1.800000*%
%ADD17C,1.524000*%
%ADD18C,1.600000*%
%ADD19O,1.600000X1.600000*%
%ADD20O,1.700000X1.700000*%
%ADD21R,1.800000X1.524000*%
%ADD22O,1.800000X1.524000*%
%ADD23C,1.000000*%
%ADD24R,2.500000X3.000000*%
%ADD25O,2.800000X2.000000*%
%ADD26R,1.700000X1.950000*%
%ADD27O,1.700000X1.950000*%
%ADD28RoundRect,0.150000X0.700000X-0.150000X0.700000X0.150000X-0.700000X0.150000X-0.700000X-0.150000X0*%
%ADD29RoundRect,0.250000X1.150000X-0.250000X1.150000X0.250000X-1.150000X0.250000X-1.150000X-0.250000X0*%
%ADD30R,0.760000X1.100000*%
%ADD31R,0.900000X1.200000*%
%ADD32R,1.375000X1.450000*%
%ADD33RoundRect,0.225000X-2.025000X-2.025000X2.025000X-2.025000X2.025000X2.025000X-2.025000X2.025000X0*%
%ADD34R,1.450000X1.175000*%
%ADD35R,0.900000X0.600000*%
G04 APERTURE END LIST*
D10*
X204254819Y-118266666D02*
X204969104Y-118266666D01*
X204969104Y-118266666D02*
X205111961Y-118219047D01*
X205111961Y-118219047D02*
X205207200Y-118123809D01*
X205207200Y-118123809D02*
X205254819Y-117980952D01*
X205254819Y-117980952D02*
X205254819Y-117885714D01*
X204254819Y-118647619D02*
X204254819Y-119314285D01*
X204254819Y-119314285D02*
X205254819Y-118885714D01*
X192210180Y-95211903D02*
X191400657Y-95211903D01*
X191400657Y-95211903D02*
X191305419Y-95164284D01*
X191305419Y-95164284D02*
X191257800Y-95116665D01*
X191257800Y-95116665D02*
X191210180Y-95021427D01*
X191210180Y-95021427D02*
X191210180Y-94830951D01*
X191210180Y-94830951D02*
X191257800Y-94735713D01*
X191257800Y-94735713D02*
X191305419Y-94688094D01*
X191305419Y-94688094D02*
X191400657Y-94640475D01*
X191400657Y-94640475D02*
X192210180Y-94640475D01*
X192210180Y-94259522D02*
X192210180Y-93640475D01*
X192210180Y-93640475D02*
X191829228Y-93973808D01*
X191829228Y-93973808D02*
X191829228Y-93830951D01*
X191829228Y-93830951D02*
X191781609Y-93735713D01*
X191781609Y-93735713D02*
X191733990Y-93688094D01*
X191733990Y-93688094D02*
X191638752Y-93640475D01*
X191638752Y-93640475D02*
X191400657Y-93640475D01*
X191400657Y-93640475D02*
X191305419Y-93688094D01*
X191305419Y-93688094D02*
X191257800Y-93735713D01*
X191257800Y-93735713D02*
X191210180Y-93830951D01*
X191210180Y-93830951D02*
X191210180Y-94116665D01*
X191210180Y-94116665D02*
X191257800Y-94211903D01*
X191257800Y-94211903D02*
X191305419Y-94259522D01*
X204254819Y-82266666D02*
X204969104Y-82266666D01*
X204969104Y-82266666D02*
X205111961Y-82219047D01*
X205111961Y-82219047D02*
X205207200Y-82123809D01*
X205207200Y-82123809D02*
X205254819Y-81980952D01*
X205254819Y-81980952D02*
X205254819Y-81885714D01*
X204588152Y-83171428D02*
X205254819Y-83171428D01*
X204207200Y-82933333D02*
X204921485Y-82695238D01*
X204921485Y-82695238D02*
X204921485Y-83314285D01*
X147688094Y-115054819D02*
X147688094Y-114054819D01*
X147688094Y-114054819D02*
X147449999Y-114054819D01*
X147449999Y-114054819D02*
X147307142Y-114102438D01*
X147307142Y-114102438D02*
X147211904Y-114197676D01*
X147211904Y-114197676D02*
X147164285Y-114292914D01*
X147164285Y-114292914D02*
X147116666Y-114483390D01*
X147116666Y-114483390D02*
X147116666Y-114626247D01*
X147116666Y-114626247D02*
X147164285Y-114816723D01*
X147164285Y-114816723D02*
X147211904Y-114911961D01*
X147211904Y-114911961D02*
X147307142Y-115007200D01*
X147307142Y-115007200D02*
X147449999Y-115054819D01*
X147449999Y-115054819D02*
X147688094Y-115054819D01*
X146640475Y-115054819D02*
X146449999Y-115054819D01*
X146449999Y-115054819D02*
X146354761Y-115007200D01*
X146354761Y-115007200D02*
X146307142Y-114959580D01*
X146307142Y-114959580D02*
X146211904Y-114816723D01*
X146211904Y-114816723D02*
X146164285Y-114626247D01*
X146164285Y-114626247D02*
X146164285Y-114245295D01*
X146164285Y-114245295D02*
X146211904Y-114150057D01*
X146211904Y-114150057D02*
X146259523Y-114102438D01*
X146259523Y-114102438D02*
X146354761Y-114054819D01*
X146354761Y-114054819D02*
X146545237Y-114054819D01*
X146545237Y-114054819D02*
X146640475Y-114102438D01*
X146640475Y-114102438D02*
X146688094Y-114150057D01*
X146688094Y-114150057D02*
X146735713Y-114245295D01*
X146735713Y-114245295D02*
X146735713Y-114483390D01*
X146735713Y-114483390D02*
X146688094Y-114578628D01*
X146688094Y-114578628D02*
X146640475Y-114626247D01*
X146640475Y-114626247D02*
X146545237Y-114673866D01*
X146545237Y-114673866D02*
X146354761Y-114673866D01*
X146354761Y-114673866D02*
X146259523Y-114626247D01*
X146259523Y-114626247D02*
X146211904Y-114578628D01*
X146211904Y-114578628D02*
X146164285Y-114483390D01*
X204254819Y-93766666D02*
X204969104Y-93766666D01*
X204969104Y-93766666D02*
X205111961Y-93719047D01*
X205111961Y-93719047D02*
X205207200Y-93623809D01*
X205207200Y-93623809D02*
X205254819Y-93480952D01*
X205254819Y-93480952D02*
X205254819Y-93385714D01*
X204254819Y-94719047D02*
X204254819Y-94242857D01*
X204254819Y-94242857D02*
X204731009Y-94195238D01*
X204731009Y-94195238D02*
X204683390Y-94242857D01*
X204683390Y-94242857D02*
X204635771Y-94338095D01*
X204635771Y-94338095D02*
X204635771Y-94576190D01*
X204635771Y-94576190D02*
X204683390Y-94671428D01*
X204683390Y-94671428D02*
X204731009Y-94719047D01*
X204731009Y-94719047D02*
X204826247Y-94766666D01*
X204826247Y-94766666D02*
X205064342Y-94766666D01*
X205064342Y-94766666D02*
X205159580Y-94719047D01*
X205159580Y-94719047D02*
X205207200Y-94671428D01*
X205207200Y-94671428D02*
X205254819Y-94576190D01*
X205254819Y-94576190D02*
X205254819Y-94338095D01*
X205254819Y-94338095D02*
X205207200Y-94242857D01*
X205207200Y-94242857D02*
X205159580Y-94195238D01*
D11*
X125408928Y-102483855D02*
X125332738Y-102483855D01*
X125332738Y-102483855D02*
X125256547Y-102521950D01*
X125256547Y-102521950D02*
X125218452Y-102560045D01*
X125218452Y-102560045D02*
X125180357Y-102636236D01*
X125180357Y-102636236D02*
X125142262Y-102788617D01*
X125142262Y-102788617D02*
X125142262Y-102979093D01*
X125142262Y-102979093D02*
X125180357Y-103131474D01*
X125180357Y-103131474D02*
X125218452Y-103207664D01*
X125218452Y-103207664D02*
X125256547Y-103245760D01*
X125256547Y-103245760D02*
X125332738Y-103283855D01*
X125332738Y-103283855D02*
X125408928Y-103283855D01*
X125408928Y-103283855D02*
X125485119Y-103245760D01*
X125485119Y-103245760D02*
X125523214Y-103207664D01*
X125523214Y-103207664D02*
X125561309Y-103131474D01*
X125561309Y-103131474D02*
X125599405Y-102979093D01*
X125599405Y-102979093D02*
X125599405Y-102788617D01*
X125599405Y-102788617D02*
X125561309Y-102636236D01*
X125561309Y-102636236D02*
X125523214Y-102560045D01*
X125523214Y-102560045D02*
X125485119Y-102521950D01*
X125485119Y-102521950D02*
X125408928Y-102483855D01*
X124799404Y-103207664D02*
X124761309Y-103245760D01*
X124761309Y-103245760D02*
X124799404Y-103283855D01*
X124799404Y-103283855D02*
X124837500Y-103245760D01*
X124837500Y-103245760D02*
X124799404Y-103207664D01*
X124799404Y-103207664D02*
X124799404Y-103283855D01*
X123999405Y-103283855D02*
X124456548Y-103283855D01*
X124227976Y-103283855D02*
X124227976Y-102483855D01*
X124227976Y-102483855D02*
X124304167Y-102598140D01*
X124304167Y-102598140D02*
X124380357Y-102674331D01*
X124380357Y-102674331D02*
X124456548Y-102712426D01*
X123313690Y-102750521D02*
X123313690Y-103283855D01*
X123656547Y-102750521D02*
X123656547Y-103169569D01*
X123656547Y-103169569D02*
X123618452Y-103245760D01*
X123618452Y-103245760D02*
X123542262Y-103283855D01*
X123542262Y-103283855D02*
X123427976Y-103283855D01*
X123427976Y-103283855D02*
X123351785Y-103245760D01*
X123351785Y-103245760D02*
X123313690Y-103207664D01*
D10*
X204254819Y-106266666D02*
X204969104Y-106266666D01*
X204969104Y-106266666D02*
X205111961Y-106219047D01*
X205111961Y-106219047D02*
X205207200Y-106123809D01*
X205207200Y-106123809D02*
X205254819Y-105980952D01*
X205254819Y-105980952D02*
X205254819Y-105885714D01*
X204254819Y-107171428D02*
X204254819Y-106980952D01*
X204254819Y-106980952D02*
X204302438Y-106885714D01*
X204302438Y-106885714D02*
X204350057Y-106838095D01*
X204350057Y-106838095D02*
X204492914Y-106742857D01*
X204492914Y-106742857D02*
X204683390Y-106695238D01*
X204683390Y-106695238D02*
X205064342Y-106695238D01*
X205064342Y-106695238D02*
X205159580Y-106742857D01*
X205159580Y-106742857D02*
X205207200Y-106790476D01*
X205207200Y-106790476D02*
X205254819Y-106885714D01*
X205254819Y-106885714D02*
X205254819Y-107076190D01*
X205254819Y-107076190D02*
X205207200Y-107171428D01*
X205207200Y-107171428D02*
X205159580Y-107219047D01*
X205159580Y-107219047D02*
X205064342Y-107266666D01*
X205064342Y-107266666D02*
X204826247Y-107266666D01*
X204826247Y-107266666D02*
X204731009Y-107219047D01*
X204731009Y-107219047D02*
X204683390Y-107171428D01*
X204683390Y-107171428D02*
X204635771Y-107076190D01*
X204635771Y-107076190D02*
X204635771Y-106885714D01*
X204635771Y-106885714D02*
X204683390Y-106790476D01*
X204683390Y-106790476D02*
X204731009Y-106742857D01*
X204731009Y-106742857D02*
X204826247Y-106695238D01*
X192210180Y-119211903D02*
X191400657Y-119211903D01*
X191400657Y-119211903D02*
X191305419Y-119164284D01*
X191305419Y-119164284D02*
X191257800Y-119116665D01*
X191257800Y-119116665D02*
X191210180Y-119021427D01*
X191210180Y-119021427D02*
X191210180Y-118830951D01*
X191210180Y-118830951D02*
X191257800Y-118735713D01*
X191257800Y-118735713D02*
X191305419Y-118688094D01*
X191305419Y-118688094D02*
X191400657Y-118640475D01*
X191400657Y-118640475D02*
X192210180Y-118640475D01*
X192210180Y-118259522D02*
X192210180Y-117592856D01*
X192210180Y-117592856D02*
X191210180Y-118021427D01*
X192210180Y-107211903D02*
X191400657Y-107211903D01*
X191400657Y-107211903D02*
X191305419Y-107164284D01*
X191305419Y-107164284D02*
X191257800Y-107116665D01*
X191257800Y-107116665D02*
X191210180Y-107021427D01*
X191210180Y-107021427D02*
X191210180Y-106830951D01*
X191210180Y-106830951D02*
X191257800Y-106735713D01*
X191257800Y-106735713D02*
X191305419Y-106688094D01*
X191305419Y-106688094D02*
X191400657Y-106640475D01*
X191400657Y-106640475D02*
X192210180Y-106640475D01*
X191876847Y-105735713D02*
X191210180Y-105735713D01*
X192257800Y-105973808D02*
X191543514Y-106211903D01*
X191543514Y-106211903D02*
X191543514Y-105592856D01*
X154633333Y-135364819D02*
X154633333Y-136079104D01*
X154633333Y-136079104D02*
X154680952Y-136221961D01*
X154680952Y-136221961D02*
X154776190Y-136317200D01*
X154776190Y-136317200D02*
X154919047Y-136364819D01*
X154919047Y-136364819D02*
X155014285Y-136364819D01*
X154204761Y-135460057D02*
X154157142Y-135412438D01*
X154157142Y-135412438D02*
X154061904Y-135364819D01*
X154061904Y-135364819D02*
X153823809Y-135364819D01*
X153823809Y-135364819D02*
X153728571Y-135412438D01*
X153728571Y-135412438D02*
X153680952Y-135460057D01*
X153680952Y-135460057D02*
X153633333Y-135555295D01*
X153633333Y-135555295D02*
X153633333Y-135650533D01*
X153633333Y-135650533D02*
X153680952Y-135793390D01*
X153680952Y-135793390D02*
X154252380Y-136364819D01*
X154252380Y-136364819D02*
X153633333Y-136364819D01*
X155911009Y-105385714D02*
X155911009Y-105052381D01*
X156434819Y-105052381D02*
X155434819Y-105052381D01*
X155434819Y-105052381D02*
X155434819Y-105528571D01*
X156530057Y-105671429D02*
X156530057Y-106433333D01*
X156339580Y-107242857D02*
X156387200Y-107195238D01*
X156387200Y-107195238D02*
X156434819Y-107052381D01*
X156434819Y-107052381D02*
X156434819Y-106957143D01*
X156434819Y-106957143D02*
X156387200Y-106814286D01*
X156387200Y-106814286D02*
X156291961Y-106719048D01*
X156291961Y-106719048D02*
X156196723Y-106671429D01*
X156196723Y-106671429D02*
X156006247Y-106623810D01*
X156006247Y-106623810D02*
X155863390Y-106623810D01*
X155863390Y-106623810D02*
X155672914Y-106671429D01*
X155672914Y-106671429D02*
X155577676Y-106719048D01*
X155577676Y-106719048D02*
X155482438Y-106814286D01*
X155482438Y-106814286D02*
X155434819Y-106957143D01*
X155434819Y-106957143D02*
X155434819Y-107052381D01*
X155434819Y-107052381D02*
X155482438Y-107195238D01*
X155482438Y-107195238D02*
X155530057Y-107242857D01*
X156434819Y-108195238D02*
X156434819Y-107623810D01*
X156434819Y-107909524D02*
X155434819Y-107909524D01*
X155434819Y-107909524D02*
X155577676Y-107814286D01*
X155577676Y-107814286D02*
X155672914Y-107719048D01*
X155672914Y-107719048D02*
X155720533Y-107623810D01*
D12*
X132539762Y-128454318D02*
X132539762Y-127184318D01*
X131209285Y-128333365D02*
X131269761Y-128393842D01*
X131269761Y-128393842D02*
X131451190Y-128454318D01*
X131451190Y-128454318D02*
X131572142Y-128454318D01*
X131572142Y-128454318D02*
X131753571Y-128393842D01*
X131753571Y-128393842D02*
X131874523Y-128272889D01*
X131874523Y-128272889D02*
X131935000Y-128151937D01*
X131935000Y-128151937D02*
X131995476Y-127910032D01*
X131995476Y-127910032D02*
X131995476Y-127728603D01*
X131995476Y-127728603D02*
X131935000Y-127486699D01*
X131935000Y-127486699D02*
X131874523Y-127365746D01*
X131874523Y-127365746D02*
X131753571Y-127244794D01*
X131753571Y-127244794D02*
X131572142Y-127184318D01*
X131572142Y-127184318D02*
X131451190Y-127184318D01*
X131451190Y-127184318D02*
X131269761Y-127244794D01*
X131269761Y-127244794D02*
X131209285Y-127305270D01*
X129999761Y-128454318D02*
X130725476Y-128454318D01*
X130362619Y-128454318D02*
X130362619Y-127184318D01*
X130362619Y-127184318D02*
X130483571Y-127365746D01*
X130483571Y-127365746D02*
X130604523Y-127486699D01*
X130604523Y-127486699D02*
X130725476Y-127547175D01*
D10*
X192210180Y-83211903D02*
X191400657Y-83211903D01*
X191400657Y-83211903D02*
X191305419Y-83164284D01*
X191305419Y-83164284D02*
X191257800Y-83116665D01*
X191257800Y-83116665D02*
X191210180Y-83021427D01*
X191210180Y-83021427D02*
X191210180Y-82830951D01*
X191210180Y-82830951D02*
X191257800Y-82735713D01*
X191257800Y-82735713D02*
X191305419Y-82688094D01*
X191305419Y-82688094D02*
X191400657Y-82640475D01*
X191400657Y-82640475D02*
X192210180Y-82640475D01*
X191210180Y-81640475D02*
X191210180Y-82211903D01*
X191210180Y-81926189D02*
X192210180Y-81926189D01*
X192210180Y-81926189D02*
X192067323Y-82021427D01*
X192067323Y-82021427D02*
X191972085Y-82116665D01*
X191972085Y-82116665D02*
X191924466Y-82211903D01*
D11*
X198940000Y-121585000D02*
X198940000Y-119785000D01*
X200540000Y-121585000D02*
X198940000Y-121585000D01*
X203410000Y-120315000D02*
X203410000Y-116885000D01*
X198940000Y-119785000D02*
X198000000Y-119785000D01*
X198940000Y-115615000D02*
X198940000Y-117415000D01*
X200540000Y-115615000D02*
X198940000Y-115615000D01*
D13*
X188938000Y-96877000D02*
X188938000Y-92022998D01*
X189151400Y-96877000D02*
X188938000Y-96877000D01*
X194392000Y-96877000D02*
X194178600Y-96877000D01*
X188938000Y-92022998D02*
X189151400Y-92022998D01*
X194178600Y-92022998D02*
X194392000Y-92022998D01*
X194392000Y-92022998D02*
X194392000Y-96877000D01*
D11*
X193980981Y-95973999D02*
G75*
G02*
X193413019Y-95973999I-283981J0D01*
G01*
X193413019Y-95973999D02*
G75*
G02*
X193980981Y-95973999I283981J0D01*
G01*
X198940000Y-85585000D02*
X198940000Y-83785000D01*
X200540000Y-85585000D02*
X198940000Y-85585000D01*
X203410000Y-84315000D02*
X203410000Y-80885000D01*
X198940000Y-83785000D02*
X198000000Y-83785000D01*
X198940000Y-79615000D02*
X198940000Y-81415000D01*
X200540000Y-79615000D02*
X198940000Y-79615000D01*
X144590000Y-111600000D02*
X148600000Y-111600000D01*
X144590000Y-113600000D02*
X144590000Y-111600000D01*
X144590000Y-113600000D02*
X148600000Y-113600000D01*
X198940000Y-97085000D02*
X198940000Y-95285000D01*
X200540000Y-97085000D02*
X198940000Y-97085000D01*
X203410000Y-95815000D02*
X203410000Y-92385000D01*
X198940000Y-95285000D02*
X198000000Y-95285000D01*
X198940000Y-91115000D02*
X198940000Y-92915000D01*
X200540000Y-91115000D02*
X198940000Y-91115000D01*
X124176248Y-103865000D02*
X124698752Y-103865000D01*
X124176248Y-105335000D02*
X124698752Y-105335000D01*
X198940000Y-109585000D02*
X198940000Y-107785000D01*
X200540000Y-109585000D02*
X198940000Y-109585000D01*
X203410000Y-108315000D02*
X203410000Y-104885000D01*
X198940000Y-107785000D02*
X198000000Y-107785000D01*
X198940000Y-103615000D02*
X198940000Y-105415000D01*
X200540000Y-103615000D02*
X198940000Y-103615000D01*
D13*
X188938000Y-120877000D02*
X188938000Y-116022998D01*
X189151400Y-120877000D02*
X188938000Y-120877000D01*
X194392000Y-120877000D02*
X194178600Y-120877000D01*
X188938000Y-116022998D02*
X189151400Y-116022998D01*
X194178600Y-116022998D02*
X194392000Y-116022998D01*
X194392000Y-116022998D02*
X194392000Y-120877000D01*
D11*
X193980981Y-119973999D02*
G75*
G02*
X193413019Y-119973999I-283981J0D01*
G01*
X193413019Y-119973999D02*
G75*
G02*
X193980981Y-119973999I283981J0D01*
G01*
D13*
X188938000Y-108877000D02*
X188938000Y-104022998D01*
X189151400Y-108877000D02*
X188938000Y-108877000D01*
X194392000Y-108877000D02*
X194178600Y-108877000D01*
X188938000Y-104022998D02*
X189151400Y-104022998D01*
X194178600Y-104022998D02*
X194392000Y-104022998D01*
X194392000Y-104022998D02*
X194392000Y-108877000D01*
D11*
X193980981Y-107973999D02*
G75*
G02*
X193413019Y-107973999I-283981J0D01*
G01*
X193413019Y-107973999D02*
G75*
G02*
X193980981Y-107973999I283981J0D01*
G01*
X153565000Y-106861252D02*
X153565000Y-106338748D01*
X155035000Y-106861252D02*
X155035000Y-106338748D01*
D14*
X129450000Y-129380000D02*
X130350000Y-129380000D01*
X130700000Y-126430000D02*
X130700000Y-129330000D01*
X130700000Y-129330000D02*
X131900000Y-129330000D01*
X131900000Y-126430000D02*
X130700000Y-126430000D01*
X131900000Y-129330000D02*
X131900000Y-126430000D01*
D13*
X188938000Y-84877000D02*
X188938000Y-80022998D01*
X189151400Y-84877000D02*
X188938000Y-84877000D01*
X194392000Y-84877000D02*
X194178600Y-84877000D01*
X188938000Y-80022998D02*
X189151400Y-80022998D01*
X194178600Y-80022998D02*
X194392000Y-80022998D01*
X194392000Y-80022998D02*
X194392000Y-84877000D01*
D11*
X193980981Y-83973999D02*
G75*
G02*
X193413019Y-83973999I-283981J0D01*
G01*
X193413019Y-83973999D02*
G75*
G02*
X193980981Y-83973999I283981J0D01*
G01*
%LPC*%
D15*
X202340000Y-100600000D03*
D16*
X199800000Y-100600000D03*
D17*
X141760000Y-109600000D03*
X144300000Y-109600000D03*
X151920000Y-109600000D03*
X141760000Y-104520000D03*
X144300000Y-104520000D03*
X151920000Y-104520000D03*
D18*
X162800000Y-129600000D03*
D19*
X162800000Y-121980000D03*
D20*
X120680000Y-132880000D03*
X123220000Y-132880000D03*
X125760000Y-132880000D03*
D18*
X146800000Y-134720000D03*
D19*
X146800000Y-127100000D03*
D21*
X114800000Y-79880000D03*
D22*
X117340000Y-79880000D03*
X114800000Y-82420000D03*
X117340000Y-82420000D03*
X114800000Y-84960000D03*
X117340000Y-84960000D03*
X114800000Y-87500000D03*
X117340000Y-87500000D03*
X114800000Y-90040000D03*
X117340000Y-90040000D03*
D23*
X114800000Y-92580000D03*
X117340000Y-92580000D03*
X114800000Y-95120000D03*
X117340000Y-95120000D03*
D22*
X114800000Y-97660000D03*
X117340000Y-97660000D03*
X114800000Y-100200000D03*
X117340000Y-100200000D03*
X114800000Y-102740000D03*
X117340000Y-102740000D03*
X114800000Y-105280000D03*
X117340000Y-105280000D03*
X114800000Y-107820000D03*
X117340000Y-107820000D03*
X114800000Y-110360000D03*
X117340000Y-110360000D03*
X114800000Y-112900000D03*
X117340000Y-112900000D03*
X114800000Y-115440000D03*
X117340000Y-115440000D03*
X114800000Y-117980000D03*
X117340000Y-117980000D03*
X114800000Y-120520000D03*
X117340000Y-120520000D03*
X114800000Y-123060000D03*
X117340000Y-123060000D03*
X114800000Y-125600000D03*
X117340000Y-125600000D03*
X175760000Y-79880000D03*
X178300000Y-79880000D03*
X175760000Y-82420000D03*
X178300000Y-82420000D03*
X175760000Y-84960000D03*
D23*
X178300000Y-84960000D03*
D22*
X175760000Y-87500000D03*
D23*
X178300000Y-87500000D03*
D22*
X175760000Y-90040000D03*
X178300000Y-90040000D03*
D23*
X175760000Y-92580000D03*
D22*
X178300000Y-92580000D03*
D23*
X175760000Y-95120000D03*
D22*
X178300000Y-95120000D03*
X175760000Y-97660000D03*
X178300000Y-97660000D03*
X175760000Y-100200000D03*
X178300000Y-100200000D03*
X175760000Y-102740000D03*
X178300000Y-102740000D03*
X175760000Y-105280000D03*
X178300000Y-105280000D03*
X175760000Y-107820000D03*
X178300000Y-107820000D03*
X175760000Y-110360000D03*
X178300000Y-110360000D03*
X175760000Y-112900000D03*
X178300000Y-112900000D03*
D23*
X175760000Y-115440000D03*
X178300000Y-115440000D03*
X175760000Y-117980000D03*
X178300000Y-117980000D03*
D22*
X175760000Y-120520000D03*
X178300000Y-120520000D03*
X175760000Y-123060000D03*
X178300000Y-123060000D03*
X175760000Y-125600000D03*
X178300000Y-125600000D03*
D18*
X197420000Y-100600000D03*
D19*
X189800000Y-100600000D03*
D18*
X197420000Y-113100000D03*
D19*
X189800000Y-113100000D03*
D15*
X135340000Y-138100000D03*
D16*
X132800000Y-138100000D03*
D15*
X202340000Y-113100000D03*
D16*
X199800000Y-113100000D03*
D15*
X212340000Y-92100000D03*
D16*
X209800000Y-92100000D03*
D24*
X105100000Y-98850000D03*
X108500000Y-98850000D03*
X105100000Y-85350000D03*
X108500000Y-85350000D03*
D18*
X168300000Y-129600000D03*
D19*
X168300000Y-121980000D03*
D18*
X129800000Y-138720000D03*
D19*
X129800000Y-131100000D03*
D18*
X209800000Y-88100000D03*
D19*
X217420000Y-88100000D03*
D15*
X168300000Y-134640000D03*
D16*
X168300000Y-132100000D03*
D18*
X110920000Y-77600000D03*
D19*
X103300000Y-77600000D03*
D15*
X162800000Y-134640000D03*
D16*
X162800000Y-132100000D03*
D15*
X203575000Y-75100000D03*
D16*
X201035000Y-75100000D03*
D25*
X140300000Y-131318000D03*
D26*
X139050000Y-124818000D03*
D27*
X141550000Y-124818000D03*
D15*
X146800000Y-139640000D03*
D16*
X146800000Y-137100000D03*
D15*
X98300000Y-77600000D03*
D16*
X100840000Y-77600000D03*
D18*
X198110000Y-75100000D03*
D19*
X190490000Y-75100000D03*
D28*
X198850000Y-119225000D03*
X198850000Y-117975000D03*
D29*
X202200000Y-121075000D03*
X202200000Y-116125000D03*
D30*
X193570000Y-97299998D03*
X192300000Y-97299998D03*
X191030000Y-97299998D03*
X189760000Y-97299998D03*
X189760000Y-91600000D03*
X191030000Y-91600000D03*
X192300000Y-91600000D03*
X193570000Y-91600000D03*
D28*
X198850000Y-83225000D03*
X198850000Y-81975000D03*
D29*
X202200000Y-85075000D03*
X202200000Y-80125000D03*
D31*
X145300000Y-112600000D03*
X148600000Y-112600000D03*
D28*
X198850000Y-94725000D03*
X198850000Y-93475000D03*
D29*
X202200000Y-96575000D03*
X202200000Y-91625000D03*
D32*
X123300000Y-104600000D03*
X125575000Y-104600000D03*
D28*
X198850000Y-107225000D03*
X198850000Y-105975000D03*
D29*
X202200000Y-109075000D03*
X202200000Y-104125000D03*
D30*
X193570000Y-121299998D03*
X192300000Y-121299998D03*
X191030000Y-121299998D03*
X189760000Y-121299998D03*
X189760000Y-115600000D03*
X191030000Y-115600000D03*
X192300000Y-115600000D03*
X193570000Y-115600000D03*
X193570000Y-109299998D03*
X192300000Y-109299998D03*
X191030000Y-109299998D03*
X189760000Y-109299998D03*
X189760000Y-103600000D03*
X191030000Y-103600000D03*
X192300000Y-103600000D03*
X193570000Y-103600000D03*
D18*
X151050000Y-132600000D03*
D33*
X151050000Y-132600000D03*
D18*
X157550000Y-132600000D03*
D33*
X157550000Y-132600000D03*
D34*
X154300000Y-107637500D03*
X154300000Y-105562500D03*
D35*
X129900000Y-128830000D03*
X129900000Y-127880000D03*
X129900000Y-126930000D03*
X132700000Y-126930000D03*
X132700000Y-128830000D03*
D30*
X193570000Y-85299998D03*
X192300000Y-85299998D03*
X191030000Y-85299998D03*
X189760000Y-85299998D03*
X189760000Y-79600000D03*
X191030000Y-79600000D03*
X192300000Y-79600000D03*
X193570000Y-79600000D03*
%LPD*%
M02*
