G04 #@! TF.GenerationSoftware,KiCad,Pcbnew,8.0.3*
G04 #@! TF.CreationDate,2024-09-19T09:09:21+09:00*
G04 #@! TF.ProjectId,YAMADAmain_ver.nucleo,59414d41-4441-46d6-9169-6e5f7665722e,rev?*
G04 #@! TF.SameCoordinates,Original*
G04 #@! TF.FileFunction,Soldermask,Bot*
G04 #@! TF.FilePolarity,Negative*
%FSLAX46Y46*%
G04 Gerber Fmt 4.6, Leading zero omitted, Abs format (unit mm)*
G04 Created by KiCad (PCBNEW 8.0.3) date 2024-09-19 09:09:21*
%MOMM*%
%LPD*%
G01*
G04 APERTURE LIST*
G04 Aperture macros list*
%AMRoundRect*
0 Rectangle with rounded corners*
0 $1 Rounding radius*
0 $2 $3 $4 $5 $6 $7 $8 $9 X,Y pos of 4 corners*
0 Add a 4 corners polygon primitive as box body*
4,1,4,$2,$3,$4,$5,$6,$7,$8,$9,$2,$3,0*
0 Add four circle primitives for the rounded corners*
1,1,$1+$1,$2,$3*
1,1,$1+$1,$4,$5*
1,1,$1+$1,$6,$7*
1,1,$1+$1,$8,$9*
0 Add four rect primitives between the rounded corners*
20,1,$1+$1,$2,$3,$4,$5,0*
20,1,$1+$1,$4,$5,$6,$7,0*
20,1,$1+$1,$6,$7,$8,$9,0*
20,1,$1+$1,$8,$9,$2,$3,0*%
G04 Aperture macros list end*
%ADD10R,1.800000X1.800000*%
%ADD11C,1.800000*%
%ADD12C,1.524000*%
%ADD13C,1.600000*%
%ADD14O,1.600000X1.600000*%
%ADD15O,1.700000X1.700000*%
%ADD16R,1.800000X1.524000*%
%ADD17O,1.800000X1.524000*%
%ADD18C,1.000000*%
%ADD19R,2.500000X3.000000*%
%ADD20O,2.800000X2.000000*%
%ADD21R,1.700000X1.950000*%
%ADD22O,1.700000X1.950000*%
%ADD23RoundRect,0.150000X0.700000X-0.150000X0.700000X0.150000X-0.700000X0.150000X-0.700000X-0.150000X0*%
%ADD24RoundRect,0.250000X1.150000X-0.250000X1.150000X0.250000X-1.150000X0.250000X-1.150000X-0.250000X0*%
%ADD25R,0.760000X1.100000*%
%ADD26R,0.900000X1.200000*%
%ADD27R,1.375000X1.450000*%
%ADD28RoundRect,0.225000X-2.025000X-2.025000X2.025000X-2.025000X2.025000X2.025000X-2.025000X2.025000X0*%
%ADD29R,1.450000X1.175000*%
%ADD30R,0.900000X0.600000*%
G04 APERTURE END LIST*
D10*
X202340000Y-100600000D03*
D11*
X199800000Y-100600000D03*
D12*
X141760000Y-109600000D03*
X144300000Y-109600000D03*
X151920000Y-109600000D03*
X141760000Y-104520000D03*
X144300000Y-104520000D03*
X151920000Y-104520000D03*
D13*
X162800000Y-129600000D03*
D14*
X162800000Y-121980000D03*
D15*
X120680000Y-132880000D03*
X123220000Y-132880000D03*
X125760000Y-132880000D03*
D13*
X146800000Y-134720000D03*
D14*
X146800000Y-127100000D03*
D16*
X114800000Y-79880000D03*
D17*
X117340000Y-79880000D03*
X114800000Y-82420000D03*
X117340000Y-82420000D03*
X114800000Y-84960000D03*
X117340000Y-84960000D03*
X114800000Y-87500000D03*
X117340000Y-87500000D03*
X114800000Y-90040000D03*
X117340000Y-90040000D03*
D18*
X114800000Y-92580000D03*
X117340000Y-92580000D03*
X114800000Y-95120000D03*
X117340000Y-95120000D03*
D17*
X114800000Y-97660000D03*
X117340000Y-97660000D03*
X114800000Y-100200000D03*
X117340000Y-100200000D03*
X114800000Y-102740000D03*
X117340000Y-102740000D03*
X114800000Y-105280000D03*
X117340000Y-105280000D03*
X114800000Y-107820000D03*
X117340000Y-107820000D03*
X114800000Y-110360000D03*
X117340000Y-110360000D03*
X114800000Y-112900000D03*
X117340000Y-112900000D03*
X114800000Y-115440000D03*
X117340000Y-115440000D03*
X114800000Y-117980000D03*
X117340000Y-117980000D03*
X114800000Y-120520000D03*
X117340000Y-120520000D03*
X114800000Y-123060000D03*
X117340000Y-123060000D03*
X114800000Y-125600000D03*
X117340000Y-125600000D03*
X175760000Y-79880000D03*
X178300000Y-79880000D03*
X175760000Y-82420000D03*
X178300000Y-82420000D03*
X175760000Y-84960000D03*
D18*
X178300000Y-84960000D03*
D17*
X175760000Y-87500000D03*
D18*
X178300000Y-87500000D03*
D17*
X175760000Y-90040000D03*
X178300000Y-90040000D03*
D18*
X175760000Y-92580000D03*
D17*
X178300000Y-92580000D03*
D18*
X175760000Y-95120000D03*
D17*
X178300000Y-95120000D03*
X175760000Y-97660000D03*
X178300000Y-97660000D03*
X175760000Y-100200000D03*
X178300000Y-100200000D03*
X175760000Y-102740000D03*
X178300000Y-102740000D03*
X175760000Y-105280000D03*
X178300000Y-105280000D03*
X175760000Y-107820000D03*
X178300000Y-107820000D03*
X175760000Y-110360000D03*
X178300000Y-110360000D03*
X175760000Y-112900000D03*
X178300000Y-112900000D03*
D18*
X175760000Y-115440000D03*
X178300000Y-115440000D03*
X175760000Y-117980000D03*
X178300000Y-117980000D03*
D17*
X175760000Y-120520000D03*
X178300000Y-120520000D03*
X175760000Y-123060000D03*
X178300000Y-123060000D03*
X175760000Y-125600000D03*
X178300000Y-125600000D03*
D13*
X197420000Y-100600000D03*
D14*
X189800000Y-100600000D03*
D13*
X197420000Y-113100000D03*
D14*
X189800000Y-113100000D03*
D10*
X135340000Y-138100000D03*
D11*
X132800000Y-138100000D03*
D10*
X202340000Y-113100000D03*
D11*
X199800000Y-113100000D03*
D10*
X212340000Y-92100000D03*
D11*
X209800000Y-92100000D03*
D19*
X105100000Y-98850000D03*
X108500000Y-98850000D03*
X105100000Y-85350000D03*
X108500000Y-85350000D03*
D13*
X168300000Y-129600000D03*
D14*
X168300000Y-121980000D03*
D13*
X129800000Y-138720000D03*
D14*
X129800000Y-131100000D03*
D13*
X209800000Y-88100000D03*
D14*
X217420000Y-88100000D03*
D10*
X168300000Y-134640000D03*
D11*
X168300000Y-132100000D03*
D13*
X110920000Y-77600000D03*
D14*
X103300000Y-77600000D03*
D10*
X162800000Y-134640000D03*
D11*
X162800000Y-132100000D03*
D10*
X203575000Y-75100000D03*
D11*
X201035000Y-75100000D03*
D20*
X140300000Y-131318000D03*
D21*
X139050000Y-124818000D03*
D22*
X141550000Y-124818000D03*
D10*
X146800000Y-139640000D03*
D11*
X146800000Y-137100000D03*
D10*
X98300000Y-77600000D03*
D11*
X100840000Y-77600000D03*
D13*
X198110000Y-75100000D03*
D14*
X190490000Y-75100000D03*
D23*
X198850000Y-119225000D03*
X198850000Y-117975000D03*
D24*
X202200000Y-121075000D03*
X202200000Y-116125000D03*
D25*
X193570000Y-97299998D03*
X192300000Y-97299998D03*
X191030000Y-97299998D03*
X189760000Y-97299998D03*
X189760000Y-91600000D03*
X191030000Y-91600000D03*
X192300000Y-91600000D03*
X193570000Y-91600000D03*
D23*
X198850000Y-83225000D03*
X198850000Y-81975000D03*
D24*
X202200000Y-85075000D03*
X202200000Y-80125000D03*
D26*
X145300000Y-112600000D03*
X148600000Y-112600000D03*
D23*
X198850000Y-94725000D03*
X198850000Y-93475000D03*
D24*
X202200000Y-96575000D03*
X202200000Y-91625000D03*
D27*
X123300000Y-104600000D03*
X125575000Y-104600000D03*
D23*
X198850000Y-107225000D03*
X198850000Y-105975000D03*
D24*
X202200000Y-109075000D03*
X202200000Y-104125000D03*
D25*
X193570000Y-121299998D03*
X192300000Y-121299998D03*
X191030000Y-121299998D03*
X189760000Y-121299998D03*
X189760000Y-115600000D03*
X191030000Y-115600000D03*
X192300000Y-115600000D03*
X193570000Y-115600000D03*
X193570000Y-109299998D03*
X192300000Y-109299998D03*
X191030000Y-109299998D03*
X189760000Y-109299998D03*
X189760000Y-103600000D03*
X191030000Y-103600000D03*
X192300000Y-103600000D03*
X193570000Y-103600000D03*
D13*
X151050000Y-132600000D03*
D28*
X151050000Y-132600000D03*
D13*
X157550000Y-132600000D03*
D28*
X157550000Y-132600000D03*
D29*
X154300000Y-107637500D03*
X154300000Y-105562500D03*
D30*
X129900000Y-128830000D03*
X129900000Y-127880000D03*
X129900000Y-126930000D03*
X132700000Y-126930000D03*
X132700000Y-128830000D03*
D25*
X193570000Y-85299998D03*
X192300000Y-85299998D03*
X191030000Y-85299998D03*
X189760000Y-85299998D03*
X189760000Y-79600000D03*
X191030000Y-79600000D03*
X192300000Y-79600000D03*
X193570000Y-79600000D03*
M02*
