G04 #@! TF.GenerationSoftware,KiCad,Pcbnew,8.0.3*
G04 #@! TF.CreationDate,2024-09-19T09:09:21+09:00*
G04 #@! TF.ProjectId,YAMADAmain_ver.nucleo,59414d41-4441-46d6-9169-6e5f7665722e,rev?*
G04 #@! TF.SameCoordinates,Original*
G04 #@! TF.FileFunction,Copper,L1,Top*
G04 #@! TF.FilePolarity,Positive*
%FSLAX46Y46*%
G04 Gerber Fmt 4.6, Leading zero omitted, Abs format (unit mm)*
G04 Created by KiCad (PCBNEW 8.0.3) date 2024-09-19 09:09:21*
%MOMM*%
%LPD*%
G01*
G04 APERTURE LIST*
G04 #@! TA.AperFunction,ComponentPad*
%ADD10R,1.800000X1.800000*%
G04 #@! TD*
G04 #@! TA.AperFunction,ComponentPad*
%ADD11C,1.800000*%
G04 #@! TD*
G04 #@! TA.AperFunction,ComponentPad*
%ADD12C,1.524000*%
G04 #@! TD*
G04 #@! TA.AperFunction,ComponentPad*
%ADD13C,1.600000*%
G04 #@! TD*
G04 #@! TA.AperFunction,ComponentPad*
%ADD14O,1.600000X1.600000*%
G04 #@! TD*
G04 #@! TA.AperFunction,ComponentPad*
%ADD15O,1.700000X1.700000*%
G04 #@! TD*
G04 #@! TA.AperFunction,ComponentPad*
%ADD16R,1.800000X1.524000*%
G04 #@! TD*
G04 #@! TA.AperFunction,ComponentPad*
%ADD17O,1.800000X1.524000*%
G04 #@! TD*
G04 #@! TA.AperFunction,ComponentPad*
%ADD18C,1.000000*%
G04 #@! TD*
G04 #@! TA.AperFunction,ComponentPad*
%ADD19R,2.500000X3.000000*%
G04 #@! TD*
G04 #@! TA.AperFunction,ComponentPad*
%ADD20R,1.700000X1.950000*%
G04 #@! TD*
G04 #@! TA.AperFunction,ComponentPad*
%ADD21O,1.700000X1.950000*%
G04 #@! TD*
G04 #@! TA.AperFunction,ViaPad*
%ADD22C,4.000000*%
G04 #@! TD*
G04 #@! TA.AperFunction,ViaPad*
%ADD23C,1.200000*%
G04 #@! TD*
G04 #@! TA.AperFunction,Conductor*
%ADD24C,1.000000*%
G04 #@! TD*
G04 APERTURE END LIST*
D10*
X202340000Y-100600000D03*
D11*
X199800000Y-100600000D03*
D12*
X141760000Y-109600000D03*
X144300000Y-109600000D03*
X151920000Y-109600000D03*
X141760000Y-104520000D03*
X144300000Y-104520000D03*
X151920000Y-104520000D03*
D13*
X162800000Y-129600000D03*
D14*
X162800000Y-121980000D03*
D15*
X120680000Y-132880000D03*
X123220000Y-132880000D03*
X125760000Y-132880000D03*
D13*
X146800000Y-134720000D03*
D14*
X146800000Y-127100000D03*
D16*
X114800000Y-79880000D03*
D17*
X117340000Y-79880000D03*
X114800000Y-82420000D03*
X117340000Y-82420000D03*
X114800000Y-84960000D03*
X117340000Y-84960000D03*
X114800000Y-87500000D03*
X117340000Y-87500000D03*
X114800000Y-90040000D03*
X117340000Y-90040000D03*
D18*
X114800000Y-92580000D03*
X117340000Y-92580000D03*
X114800000Y-95120000D03*
X117340000Y-95120000D03*
D17*
X114800000Y-97660000D03*
X117340000Y-97660000D03*
X114800000Y-100200000D03*
X117340000Y-100200000D03*
X114800000Y-102740000D03*
X117340000Y-102740000D03*
X114800000Y-105280000D03*
X117340000Y-105280000D03*
X114800000Y-107820000D03*
X117340000Y-107820000D03*
X114800000Y-110360000D03*
X117340000Y-110360000D03*
X114800000Y-112900000D03*
X117340000Y-112900000D03*
X114800000Y-115440000D03*
X117340000Y-115440000D03*
X114800000Y-117980000D03*
X117340000Y-117980000D03*
X114800000Y-120520000D03*
X117340000Y-120520000D03*
X114800000Y-123060000D03*
X117340000Y-123060000D03*
X114800000Y-125600000D03*
X117340000Y-125600000D03*
X175760000Y-79880000D03*
X178300000Y-79880000D03*
X175760000Y-82420000D03*
X178300000Y-82420000D03*
X175760000Y-84960000D03*
D18*
X178300000Y-84960000D03*
D17*
X175760000Y-87500000D03*
D18*
X178300000Y-87500000D03*
D17*
X175760000Y-90040000D03*
X178300000Y-90040000D03*
D18*
X175760000Y-92580000D03*
D17*
X178300000Y-92580000D03*
D18*
X175760000Y-95120000D03*
D17*
X178300000Y-95120000D03*
X175760000Y-97660000D03*
X178300000Y-97660000D03*
X175760000Y-100200000D03*
X178300000Y-100200000D03*
X175760000Y-102740000D03*
X178300000Y-102740000D03*
X175760000Y-105280000D03*
X178300000Y-105280000D03*
X175760000Y-107820000D03*
X178300000Y-107820000D03*
X175760000Y-110360000D03*
X178300000Y-110360000D03*
X175760000Y-112900000D03*
X178300000Y-112900000D03*
D18*
X175760000Y-115440000D03*
X178300000Y-115440000D03*
X175760000Y-117980000D03*
X178300000Y-117980000D03*
D17*
X175760000Y-120520000D03*
X178300000Y-120520000D03*
X175760000Y-123060000D03*
X178300000Y-123060000D03*
X175760000Y-125600000D03*
X178300000Y-125600000D03*
D13*
X197420000Y-100600000D03*
D14*
X189800000Y-100600000D03*
D13*
X197420000Y-113100000D03*
D14*
X189800000Y-113100000D03*
D10*
X135340000Y-138100000D03*
D11*
X132800000Y-138100000D03*
D10*
X202340000Y-113100000D03*
D11*
X199800000Y-113100000D03*
D10*
X212340000Y-92100000D03*
D11*
X209800000Y-92100000D03*
D19*
X105100000Y-98850000D03*
X108500000Y-98850000D03*
X105100000Y-85350000D03*
X108500000Y-85350000D03*
D13*
X168300000Y-129600000D03*
D14*
X168300000Y-121980000D03*
D13*
X129800000Y-138720000D03*
D14*
X129800000Y-131100000D03*
D13*
X209800000Y-88100000D03*
D14*
X217420000Y-88100000D03*
D10*
X168300000Y-134640000D03*
D11*
X168300000Y-132100000D03*
D13*
X110920000Y-77600000D03*
D14*
X103300000Y-77600000D03*
D10*
X162800000Y-134640000D03*
D11*
X162800000Y-132100000D03*
D10*
X203575000Y-75100000D03*
D11*
X201035000Y-75100000D03*
D20*
X139050000Y-124818000D03*
D21*
X141550000Y-124818000D03*
D10*
X146800000Y-139640000D03*
D11*
X146800000Y-137100000D03*
D10*
X98300000Y-77600000D03*
D11*
X100840000Y-77600000D03*
D13*
X198110000Y-75100000D03*
D14*
X190490000Y-75100000D03*
D13*
X151050000Y-132600000D03*
X157550000Y-132600000D03*
D22*
X99800000Y-139100000D03*
X214800000Y-139100000D03*
X214800000Y-71600000D03*
X99800000Y-71600000D03*
D23*
X158800000Y-119600000D03*
X171800000Y-96100000D03*
D24*
X171800000Y-106600000D02*
X158800000Y-119600000D01*
X171800000Y-96100000D02*
X171800000Y-106600000D01*
M02*
