M48
; DRILL file {KiCad 8.0.3} date 2024-09-19T11:12:19+0900
; FORMAT={3:3/ absolute / metric / keep zeros}
; #@! TF.CreationDate,2024-09-19T11:12:19+09:00
; #@! TF.GenerationSoftware,Kicad,Pcbnew,8.0.3
; #@! TF.FileFunction,MixedPlating,1,2
FMAT,2
METRIC
; #@! TA.AperFunction,Plated,PTH,ComponentDrill
T1C0.762
; #@! TA.AperFunction,Plated,PTH,ComponentDrill
T2C0.800
; #@! TA.AperFunction,Plated,PTH,ComponentDrill
T3C0.900
; #@! TA.AperFunction,Plated,PTH,ComponentDrill
T4C0.950
; #@! TA.AperFunction,Plated,PTH,ViaDrill
T5C1.000
; #@! TA.AperFunction,Plated,PTH,ComponentDrill
T6C1.000
; #@! TA.AperFunction,Plated,PTH,ComponentDrill
T7C1.500
; #@! TA.AperFunction,Plated,PTH,ViaDrill
T8C3.200
; #@! TA.AperFunction,NonPlated,NPTH,ComponentDrill
T9C2.000
%
G90
G05
T1
X141760Y-104520
X141760Y-109600
X144300Y-104520
X144300Y-109600
X151920Y-104520
X151920Y-109600
T2
X103300Y-077600
X110920Y-077600
X114800Y-079880
X114800Y-082420
X114800Y-084960
X114800Y-087500
X114800Y-090040
X114800Y-092580
X114800Y-095120
X114800Y-097660
X114800Y-100200
X114800Y-102740
X114800Y-105280
X114800Y-107820
X114800Y-110360
X114800Y-112900
X114800Y-115440
X114800Y-117980
X114800Y-120520
X114800Y-123060
X114800Y-125600
X117340Y-079880
X117340Y-082420
X117340Y-084960
X117340Y-087500
X117340Y-090040
X117340Y-092580
X117340Y-095120
X117340Y-097660
X117340Y-100200
X117340Y-102740
X117340Y-105280
X117340Y-107820
X117340Y-110360
X117340Y-112900
X117340Y-115440
X117340Y-117980
X117340Y-120520
X117340Y-123060
X117340Y-125600
X129800Y-131100
X129800Y-138720
X146800Y-127100
X146800Y-134720
X162800Y-121980
X162800Y-129600
X168300Y-121980
X168300Y-129600
X175760Y-079880
X175760Y-082420
X175760Y-084960
X175760Y-087500
X175760Y-090040
X175760Y-092580
X175760Y-095120
X175760Y-097660
X175760Y-100200
X175760Y-102740
X175760Y-105280
X175760Y-107820
X175760Y-110360
X175760Y-112900
X175760Y-115440
X175760Y-117980
X175760Y-120520
X175760Y-123060
X175760Y-125600
X178300Y-079880
X178300Y-082420
X178300Y-084960
X178300Y-087500
X178300Y-090040
X178300Y-092580
X178300Y-095120
X178300Y-097660
X178300Y-100200
X178300Y-102740
X178300Y-105280
X178300Y-107820
X178300Y-110360
X178300Y-112900
X178300Y-115440
X178300Y-117980
X178300Y-120520
X178300Y-123060
X178300Y-125600
X189800Y-100600
X189800Y-113100
X190490Y-075100
X197420Y-100600
X197420Y-113100
X198110Y-075100
X209800Y-088100
X217420Y-088100
T3
X098300Y-077600
X100840Y-077600
X132800Y-138100
X135340Y-138100
X146800Y-137100
X146800Y-139640
X162800Y-132100
X162800Y-134640
X168300Y-132100
X168300Y-134640
X199800Y-100600
X199800Y-113100
X201035Y-075100
X202340Y-100600
X202340Y-113100
X203575Y-075100
X209800Y-092100
X212340Y-092100
T4
X139050Y-124818
X141550Y-124818
T5
X158800Y-119600
X171800Y-096100
T6
X120680Y-132880
X123220Y-132880
X125760Y-132880
X151050Y-132600
X157550Y-132600
T8
X099800Y-071600
X099800Y-139100
X214800Y-071600
X214800Y-139100
T7
G00X105100Y-085500
M15
G01X105100Y-085200
M16
G05
G00X105100Y-099000
M15
G01X105100Y-098700
M16
G05
G00X108500Y-085500
M15
G01X108500Y-085200
M16
G05
G00X108500Y-099000
M15
G01X108500Y-098700
M16
G05
T9
G00X139900Y-131318
M15
G01X140700Y-131318
M16
G05
M30
