G04 #@! TF.GenerationSoftware,KiCad,Pcbnew,8.0.3*
G04 #@! TF.CreationDate,2024-09-19T09:09:21+09:00*
G04 #@! TF.ProjectId,YAMADAmain_ver.nucleo,59414d41-4441-46d6-9169-6e5f7665722e,rev?*
G04 #@! TF.SameCoordinates,Original*
G04 #@! TF.FileFunction,Paste,Bot*
G04 #@! TF.FilePolarity,Positive*
%FSLAX46Y46*%
G04 Gerber Fmt 4.6, Leading zero omitted, Abs format (unit mm)*
G04 Created by KiCad (PCBNEW 8.0.3) date 2024-09-19 09:09:21*
%MOMM*%
%LPD*%
G01*
G04 APERTURE LIST*
G04 Aperture macros list*
%AMRoundRect*
0 Rectangle with rounded corners*
0 $1 Rounding radius*
0 $2 $3 $4 $5 $6 $7 $8 $9 X,Y pos of 4 corners*
0 Add a 4 corners polygon primitive as box body*
4,1,4,$2,$3,$4,$5,$6,$7,$8,$9,$2,$3,0*
0 Add four circle primitives for the rounded corners*
1,1,$1+$1,$2,$3*
1,1,$1+$1,$4,$5*
1,1,$1+$1,$6,$7*
1,1,$1+$1,$8,$9*
0 Add four rect primitives between the rounded corners*
20,1,$1+$1,$2,$3,$4,$5,0*
20,1,$1+$1,$4,$5,$6,$7,0*
20,1,$1+$1,$6,$7,$8,$9,0*
20,1,$1+$1,$8,$9,$2,$3,0*%
G04 Aperture macros list end*
%ADD10RoundRect,0.150000X0.700000X-0.150000X0.700000X0.150000X-0.700000X0.150000X-0.700000X-0.150000X0*%
%ADD11RoundRect,0.250000X1.150000X-0.250000X1.150000X0.250000X-1.150000X0.250000X-1.150000X-0.250000X0*%
%ADD12R,0.760000X1.100000*%
%ADD13R,0.900000X1.200000*%
%ADD14R,1.375000X1.450000*%
%ADD15RoundRect,0.225000X-2.025000X-2.025000X2.025000X-2.025000X2.025000X2.025000X-2.025000X2.025000X0*%
%ADD16R,1.450000X1.175000*%
%ADD17R,0.900000X0.600000*%
G04 APERTURE END LIST*
D10*
X198850000Y-119225000D03*
X198850000Y-117975000D03*
D11*
X202200000Y-121075000D03*
X202200000Y-116125000D03*
D12*
X193570000Y-97299998D03*
X192300000Y-97299998D03*
X191030000Y-97299998D03*
X189760000Y-97299998D03*
X189760000Y-91600000D03*
X191030000Y-91600000D03*
X192300000Y-91600000D03*
X193570000Y-91600000D03*
D10*
X198850000Y-83225000D03*
X198850000Y-81975000D03*
D11*
X202200000Y-85075000D03*
X202200000Y-80125000D03*
D13*
X145300000Y-112600000D03*
X148600000Y-112600000D03*
D10*
X198850000Y-94725000D03*
X198850000Y-93475000D03*
D11*
X202200000Y-96575000D03*
X202200000Y-91625000D03*
D14*
X123300000Y-104600000D03*
X125575000Y-104600000D03*
D10*
X198850000Y-107225000D03*
X198850000Y-105975000D03*
D11*
X202200000Y-109075000D03*
X202200000Y-104125000D03*
D12*
X193570000Y-121299998D03*
X192300000Y-121299998D03*
X191030000Y-121299998D03*
X189760000Y-121299998D03*
X189760000Y-115600000D03*
X191030000Y-115600000D03*
X192300000Y-115600000D03*
X193570000Y-115600000D03*
X193570000Y-109299998D03*
X192300000Y-109299998D03*
X191030000Y-109299998D03*
X189760000Y-109299998D03*
X189760000Y-103600000D03*
X191030000Y-103600000D03*
X192300000Y-103600000D03*
X193570000Y-103600000D03*
D15*
X151050000Y-132600000D03*
X157550000Y-132600000D03*
D16*
X154300000Y-107637500D03*
X154300000Y-105562500D03*
D17*
X129900000Y-128830000D03*
X129900000Y-127880000D03*
X129900000Y-126930000D03*
X132700000Y-126930000D03*
X132700000Y-128830000D03*
D12*
X193570000Y-85299998D03*
X192300000Y-85299998D03*
X191030000Y-85299998D03*
X189760000Y-85299998D03*
X189760000Y-79600000D03*
X191030000Y-79600000D03*
X192300000Y-79600000D03*
X193570000Y-79600000D03*
M02*
