M48
; DRILL file {KiCad 7.0.9} date Sun Jul 28 13:17:46 2024
; FORMAT={-:-/ absolute / metric / decimal}
; #@! TF.CreationDate,2024-07-28T13:17:46+09:00
; #@! TF.GenerationSoftware,Kicad,Pcbnew,7.0.9
; #@! TF.FileFunction,MixedPlating,1,2
FMAT,2
METRIC
; #@! TA.AperFunction,Plated,PTH,ViaDrill
T1C0.300
; #@! TA.AperFunction,Plated,PTH,ViaDrill
T2C0.400
; #@! TA.AperFunction,Plated,PTH,ComponentDrill
T3C0.600
; #@! TA.AperFunction,Plated,PTH,ComponentDrill
T4C0.950
; #@! TA.AperFunction,Plated,PTH,ComponentDrill
T5C1.000
; #@! TA.AperFunction,NonPlated,NPTH,ComponentDrill
T6C0.650
%
G90
G05
T1
X126.025Y-53.5
X126.025Y-55.5
X126.025Y-57.5
X126.025Y-59.5
X127.0Y-43.137
X127.0Y-45.72
X127.0Y-48.26
X127.0Y-50.8
X127.0Y-60.96
X127.0Y-63.5
X127.0Y-66.04
X128.5Y-44.75
X128.5Y-62.5
X129.5Y-53.5
X129.5Y-55.5
X129.5Y-57.5
X129.5Y-59.5
X129.54Y-40.005
X129.54Y-66.04
X130.375Y-50.5
X131.5Y-59.5
X132.0Y-43.137
X132.0Y-45.0
X132.08Y-66.04
X132.5Y-58.0
X133.5Y-56.5
X133.5Y-62.5
X134.5Y-41.5
X134.5Y-44.5
X134.5Y-46.0
X134.5Y-47.5
X134.5Y-49.0
X134.5Y-55.0
X134.62Y-66.04
X134.62Y-68.58
X135.509Y-54.483
X137.16Y-68.58
X137.16Y-70.993
X139.7Y-68.58
X139.7Y-70.993
X143.11Y-46.6
X143.11Y-47.7
X143.11Y-48.8
X143.51Y-55.88
X143.51Y-59.69
X144.21Y-46.6
X144.21Y-47.7
X144.21Y-48.8
X145.31Y-46.6
X145.31Y-47.7
X145.31Y-48.8
X149.708Y-57.542
X149.75Y-55.25
X152.0Y-41.5
X152.0Y-43.0
X152.0Y-52.0
X153.0Y-56.0
X153.0Y-58.0
X153.0Y-60.0
X153.0Y-62.0
X153.5Y-52.0
X153.5Y-55.0
X156.0Y-44.5
X156.21Y-46.99
X156.21Y-48.26
X156.3Y-64.22
X156.3Y-68.78
X157.48Y-60.96
X158.0Y-48.4
X158.0Y-53.2
X160.02Y-58.42
X160.02Y-63.5
X160.5Y-49.0
X160.5Y-52.0
X161.29Y-50.8
X161.29Y-53.34
X162.56Y-40.64
X162.56Y-58.42
X162.56Y-60.96
X162.56Y-68.58
X163.83Y-41.91
X165.1Y-43.18
X165.1Y-66.04
X165.1Y-68.58
T2
X156.0Y-56.0
T4
X128.5Y-70.0
X131.0Y-70.0
X133.5Y-70.0
T5
X138.5Y-56.84
X138.5Y-59.38
X138.5Y-61.92
X138.5Y-64.46
X138.5Y-67.0
X141.04Y-56.84
X141.04Y-59.38
X141.04Y-61.92
X141.04Y-64.46
X141.04Y-67.0
X145.848Y-56.84
X145.848Y-59.38
X145.848Y-61.92
X145.848Y-64.46
X145.848Y-67.0
X145.848Y-69.54
X148.388Y-56.84
X148.388Y-59.38
X148.388Y-61.92
X148.388Y-64.46
X148.388Y-67.0
X148.388Y-69.54
T6
X159.12Y-47.86
X159.12Y-53.64
T3
X158.05Y-46.43G85X159.15Y-46.43
G05
X158.05Y-55.07G85X159.15Y-55.07
G05
X162.4Y-46.43G85X163.2Y-46.43
G05
X162.4Y-55.07G85X163.2Y-55.07
G05
T0
M30
