G04 #@! TF.GenerationSoftware,KiCad,Pcbnew,7.0.9*
G04 #@! TF.CreationDate,2024-07-28T13:17:23+09:00*
G04 #@! TF.ProjectId,esp32ble_module,65737033-3262-46c6-955f-6d6f64756c65,rev?*
G04 #@! TF.SameCoordinates,Original*
G04 #@! TF.FileFunction,Soldermask,Bot*
G04 #@! TF.FilePolarity,Negative*
%FSLAX46Y46*%
G04 Gerber Fmt 4.6, Leading zero omitted, Abs format (unit mm)*
G04 Created by KiCad (PCBNEW 7.0.9) date 2024-07-28 13:17:23*
%MOMM*%
%LPD*%
G01*
G04 APERTURE LIST*
G04 Aperture macros list*
%AMRoundRect*
0 Rectangle with rounded corners*
0 $1 Rounding radius*
0 $2 $3 $4 $5 $6 $7 $8 $9 X,Y pos of 4 corners*
0 Add a 4 corners polygon primitive as box body*
4,1,4,$2,$3,$4,$5,$6,$7,$8,$9,$2,$3,0*
0 Add four circle primitives for the rounded corners*
1,1,$1+$1,$2,$3*
1,1,$1+$1,$4,$5*
1,1,$1+$1,$6,$7*
1,1,$1+$1,$8,$9*
0 Add four rect primitives between the rounded corners*
20,1,$1+$1,$2,$3,$4,$5,0*
20,1,$1+$1,$4,$5,$6,$7,0*
20,1,$1+$1,$6,$7,$8,$9,0*
20,1,$1+$1,$8,$9,$2,$3,0*%
G04 Aperture macros list end*
%ADD10R,1.700000X1.700000*%
%ADD11O,1.700000X1.700000*%
%ADD12C,0.650000*%
%ADD13O,2.100000X1.000000*%
%ADD14O,1.800000X1.000000*%
%ADD15RoundRect,0.250000X0.600000X0.725000X-0.600000X0.725000X-0.600000X-0.725000X0.600000X-0.725000X0*%
%ADD16O,1.700000X1.950000*%
%ADD17RoundRect,0.237500X-0.400000X-0.237500X0.400000X-0.237500X0.400000X0.237500X-0.400000X0.237500X0*%
%ADD18RoundRect,0.237500X0.237500X-0.400000X0.237500X0.400000X-0.237500X0.400000X-0.237500X-0.400000X0*%
%ADD19RoundRect,0.237500X0.400000X0.237500X-0.400000X0.237500X-0.400000X-0.237500X0.400000X-0.237500X0*%
%ADD20RoundRect,0.292875X0.432125X-0.394625X0.432125X0.394625X-0.432125X0.394625X-0.432125X-0.394625X0*%
%ADD21R,2.200000X1.200000*%
%ADD22R,6.400000X5.800000*%
G04 APERTURE END LIST*
D10*
X145848000Y-69540000D03*
D11*
X148388000Y-69540000D03*
X145848000Y-67000000D03*
X148388000Y-67000000D03*
X145848000Y-64460000D03*
X148388000Y-64460000D03*
X145848000Y-61920000D03*
X148388000Y-61920000D03*
X145848000Y-59380000D03*
X148388000Y-59380000D03*
X145848000Y-56840000D03*
X148388000Y-56840000D03*
D10*
X138500000Y-67000000D03*
D11*
X141040000Y-67000000D03*
X138500000Y-64460000D03*
X141040000Y-64460000D03*
X138500000Y-61920000D03*
X141040000Y-61920000D03*
X138500000Y-59380000D03*
X141040000Y-59380000D03*
X138500000Y-56840000D03*
X141040000Y-56840000D03*
D12*
X159120000Y-53640000D03*
X159120000Y-47860000D03*
D13*
X158600000Y-55070000D03*
D14*
X162800000Y-55070000D03*
D13*
X158600000Y-46430000D03*
D14*
X162800000Y-46430000D03*
D15*
X133500000Y-70000000D03*
D16*
X131000000Y-70000000D03*
X128500000Y-70000000D03*
D17*
X150937500Y-58000000D03*
X153062500Y-58000000D03*
D18*
X133500000Y-64562500D03*
X133500000Y-62437500D03*
X128500000Y-64562500D03*
X128500000Y-62437500D03*
D17*
X150937500Y-62000000D03*
X153062500Y-62000000D03*
X160500000Y-52000000D03*
X162625000Y-52000000D03*
D19*
X128087500Y-57500000D03*
X125962500Y-57500000D03*
D20*
X127000000Y-43137500D03*
X127000000Y-40862500D03*
D17*
X160500000Y-49000000D03*
X162625000Y-49000000D03*
X150937500Y-56000000D03*
X153062500Y-56000000D03*
D21*
X156300000Y-68780000D03*
X156300000Y-66500000D03*
D22*
X162600000Y-66500000D03*
D21*
X156300000Y-64220000D03*
D19*
X128087500Y-53500000D03*
X125962500Y-53500000D03*
X128087500Y-59500000D03*
X125962500Y-59500000D03*
D20*
X132000000Y-43137500D03*
X132000000Y-40862500D03*
D19*
X128087500Y-55500000D03*
X125962500Y-55500000D03*
D17*
X150937500Y-60000000D03*
X153062500Y-60000000D03*
D19*
X130562500Y-44750000D03*
X128437500Y-44750000D03*
M02*
