G04 #@! TF.GenerationSoftware,KiCad,Pcbnew,7.0.9*
G04 #@! TF.CreationDate,2024-07-28T13:17:23+09:00*
G04 #@! TF.ProjectId,esp32ble_module,65737033-3262-46c6-955f-6d6f64756c65,rev?*
G04 #@! TF.SameCoordinates,Original*
G04 #@! TF.FileFunction,Copper,L2,Bot*
G04 #@! TF.FilePolarity,Positive*
%FSLAX46Y46*%
G04 Gerber Fmt 4.6, Leading zero omitted, Abs format (unit mm)*
G04 Created by KiCad (PCBNEW 7.0.9) date 2024-07-28 13:17:23*
%MOMM*%
%LPD*%
G01*
G04 APERTURE LIST*
G04 Aperture macros list*
%AMRoundRect*
0 Rectangle with rounded corners*
0 $1 Rounding radius*
0 $2 $3 $4 $5 $6 $7 $8 $9 X,Y pos of 4 corners*
0 Add a 4 corners polygon primitive as box body*
4,1,4,$2,$3,$4,$5,$6,$7,$8,$9,$2,$3,0*
0 Add four circle primitives for the rounded corners*
1,1,$1+$1,$2,$3*
1,1,$1+$1,$4,$5*
1,1,$1+$1,$6,$7*
1,1,$1+$1,$8,$9*
0 Add four rect primitives between the rounded corners*
20,1,$1+$1,$2,$3,$4,$5,0*
20,1,$1+$1,$4,$5,$6,$7,0*
20,1,$1+$1,$6,$7,$8,$9,0*
20,1,$1+$1,$8,$9,$2,$3,0*%
G04 Aperture macros list end*
G04 #@! TA.AperFunction,ComponentPad*
%ADD10R,1.700000X1.700000*%
G04 #@! TD*
G04 #@! TA.AperFunction,ComponentPad*
%ADD11O,1.700000X1.700000*%
G04 #@! TD*
G04 #@! TA.AperFunction,ComponentPad*
%ADD12O,2.100000X1.000000*%
G04 #@! TD*
G04 #@! TA.AperFunction,ComponentPad*
%ADD13O,1.800000X1.000000*%
G04 #@! TD*
G04 #@! TA.AperFunction,ComponentPad*
%ADD14RoundRect,0.250000X0.600000X0.725000X-0.600000X0.725000X-0.600000X-0.725000X0.600000X-0.725000X0*%
G04 #@! TD*
G04 #@! TA.AperFunction,ComponentPad*
%ADD15O,1.700000X1.950000*%
G04 #@! TD*
G04 #@! TA.AperFunction,SMDPad,CuDef*
%ADD16RoundRect,0.237500X-0.400000X-0.237500X0.400000X-0.237500X0.400000X0.237500X-0.400000X0.237500X0*%
G04 #@! TD*
G04 #@! TA.AperFunction,SMDPad,CuDef*
%ADD17RoundRect,0.237500X0.237500X-0.400000X0.237500X0.400000X-0.237500X0.400000X-0.237500X-0.400000X0*%
G04 #@! TD*
G04 #@! TA.AperFunction,SMDPad,CuDef*
%ADD18RoundRect,0.237500X0.400000X0.237500X-0.400000X0.237500X-0.400000X-0.237500X0.400000X-0.237500X0*%
G04 #@! TD*
G04 #@! TA.AperFunction,SMDPad,CuDef*
%ADD19RoundRect,0.292875X0.432125X-0.394625X0.432125X0.394625X-0.432125X0.394625X-0.432125X-0.394625X0*%
G04 #@! TD*
G04 #@! TA.AperFunction,SMDPad,CuDef*
%ADD20R,2.200000X1.200000*%
G04 #@! TD*
G04 #@! TA.AperFunction,SMDPad,CuDef*
%ADD21R,6.400000X5.800000*%
G04 #@! TD*
G04 #@! TA.AperFunction,ViaPad*
%ADD22C,0.500000*%
G04 #@! TD*
G04 #@! TA.AperFunction,ViaPad*
%ADD23C,0.600000*%
G04 #@! TD*
G04 #@! TA.AperFunction,Conductor*
%ADD24C,0.500000*%
G04 #@! TD*
G04 #@! TA.AperFunction,Conductor*
%ADD25C,1.000000*%
G04 #@! TD*
G04 #@! TA.AperFunction,Conductor*
%ADD26C,0.300000*%
G04 #@! TD*
G04 APERTURE END LIST*
D10*
X145848000Y-69540000D03*
D11*
X148388000Y-69540000D03*
X145848000Y-67000000D03*
X148388000Y-67000000D03*
X145848000Y-64460000D03*
X148388000Y-64460000D03*
X145848000Y-61920000D03*
X148388000Y-61920000D03*
X145848000Y-59380000D03*
X148388000Y-59380000D03*
X145848000Y-56840000D03*
X148388000Y-56840000D03*
D10*
X138500000Y-67000000D03*
D11*
X141040000Y-67000000D03*
X138500000Y-64460000D03*
X141040000Y-64460000D03*
X138500000Y-61920000D03*
X141040000Y-61920000D03*
X138500000Y-59380000D03*
X141040000Y-59380000D03*
X138500000Y-56840000D03*
X141040000Y-56840000D03*
D12*
X158600000Y-55070000D03*
D13*
X162800000Y-55070000D03*
D12*
X158600000Y-46430000D03*
D13*
X162800000Y-46430000D03*
D14*
X133500000Y-70000000D03*
D15*
X131000000Y-70000000D03*
X128500000Y-70000000D03*
D16*
X150937500Y-58000000D03*
X153062500Y-58000000D03*
D17*
X133500000Y-64562500D03*
X133500000Y-62437500D03*
X128500000Y-64562500D03*
X128500000Y-62437500D03*
D16*
X150937500Y-62000000D03*
X153062500Y-62000000D03*
X160500000Y-52000000D03*
X162625000Y-52000000D03*
D18*
X128087500Y-57500000D03*
X125962500Y-57500000D03*
D19*
X127000000Y-43137500D03*
X127000000Y-40862500D03*
D16*
X160500000Y-49000000D03*
X162625000Y-49000000D03*
X150937500Y-56000000D03*
X153062500Y-56000000D03*
D20*
X156300000Y-68780000D03*
X156300000Y-66500000D03*
D21*
X162600000Y-66500000D03*
D20*
X156300000Y-64220000D03*
D18*
X128087500Y-53500000D03*
X125962500Y-53500000D03*
X128087500Y-59500000D03*
X125962500Y-59500000D03*
D19*
X132000000Y-43137500D03*
X132000000Y-40862500D03*
D18*
X128087500Y-55500000D03*
X125962500Y-55500000D03*
D16*
X150937500Y-60000000D03*
X153062500Y-60000000D03*
D18*
X130562500Y-44750000D03*
X128437500Y-44750000D03*
D22*
X135509000Y-54483000D03*
X129540000Y-40005000D03*
X127000000Y-45720000D03*
X137160000Y-70993000D03*
X139700000Y-70993000D03*
X149750000Y-55250000D03*
X153500000Y-55000000D03*
X143510000Y-55880000D03*
X143510000Y-59690000D03*
X161290000Y-50800000D03*
X163830000Y-41910000D03*
X156210000Y-48260000D03*
X156210000Y-46990000D03*
X165100000Y-43180000D03*
X162560000Y-40640000D03*
X161290000Y-53340000D03*
X157480000Y-60960000D03*
X160020000Y-58420000D03*
X162560000Y-58420000D03*
X162560000Y-60960000D03*
X160020000Y-63500000D03*
X162560000Y-68580000D03*
X165100000Y-66040000D03*
X165100000Y-68580000D03*
X139700000Y-68580000D03*
X137160000Y-68580000D03*
X134620000Y-68580000D03*
X134620000Y-66040000D03*
X132080000Y-66040000D03*
X129540000Y-66040000D03*
X127000000Y-66040000D03*
X127000000Y-63500000D03*
X127000000Y-60960000D03*
X127000000Y-50800000D03*
X127000000Y-48260000D03*
X145310000Y-48800000D03*
X144210000Y-48800000D03*
X143110000Y-48800000D03*
X145310000Y-47700000D03*
X144210000Y-47700000D03*
X143110000Y-47700000D03*
X145310000Y-46600000D03*
X144210000Y-46600000D03*
X143110000Y-46600000D03*
X158000000Y-53200000D03*
D23*
X156000000Y-56000000D03*
D22*
X158000000Y-48400000D03*
X156300000Y-68780000D03*
X128500000Y-44750000D03*
X132000000Y-43137500D03*
X127000000Y-43137500D03*
X156000000Y-44500000D03*
X134500000Y-41500000D03*
X130375000Y-50500000D03*
X132000000Y-45000000D03*
X156300000Y-64220000D03*
X133500000Y-62500000D03*
X128500000Y-62500000D03*
X126025000Y-59500000D03*
X126025000Y-53500000D03*
X126025000Y-57500000D03*
X126025000Y-55500000D03*
X153000000Y-62000000D03*
X153000000Y-60000000D03*
X153000000Y-56000000D03*
X153000000Y-58000000D03*
X160500000Y-52000000D03*
X160500000Y-49000000D03*
X152000000Y-52000000D03*
X149707600Y-57542400D03*
X152000000Y-41500000D03*
X153500000Y-52000000D03*
X152000000Y-43000000D03*
X129500000Y-59500000D03*
X134500000Y-44500000D03*
X131500000Y-59500000D03*
X132500000Y-58000000D03*
X129500000Y-57500000D03*
X134500000Y-46000000D03*
X129500000Y-55500000D03*
X134500000Y-47500000D03*
X133500000Y-56500000D03*
X134500000Y-49000000D03*
X129500000Y-53500000D03*
X134500000Y-55000000D03*
D24*
X149707600Y-57542400D02*
X150165200Y-58000000D01*
X150165200Y-58000000D02*
X150937500Y-58000000D01*
X150000000Y-55000000D02*
X153500000Y-55000000D01*
X149750000Y-55250000D02*
X150000000Y-55000000D01*
D25*
X130500000Y-68000000D02*
X128500000Y-70000000D01*
X130500000Y-50625000D02*
X130500000Y-68000000D01*
X130375000Y-50500000D02*
X130500000Y-50625000D01*
X156800000Y-53200000D02*
X158000000Y-53200000D01*
D24*
X133500000Y-64562500D02*
X133500000Y-70000000D01*
D25*
X156000000Y-54000000D02*
X156800000Y-53200000D01*
X158000000Y-48400000D02*
X158000000Y-53200000D01*
X156000000Y-56000000D02*
X156000000Y-54000000D01*
X149000000Y-72000000D02*
X154500000Y-66500000D01*
X154500000Y-46000000D02*
X156000000Y-44500000D01*
X154500000Y-62420000D02*
X156300000Y-64220000D01*
D24*
X128500000Y-64562500D02*
X128500000Y-70000000D01*
D25*
X134500000Y-43000000D02*
X134500000Y-41500000D01*
X132500000Y-45000000D02*
X134500000Y-43000000D01*
X130500000Y-72000000D02*
X149000000Y-72000000D01*
X143500000Y-61728000D02*
X145848000Y-59380000D01*
X145500000Y-72000000D02*
X143500000Y-70000000D01*
X154500000Y-66500000D02*
X154500000Y-46000000D01*
X128500000Y-70000000D02*
X130500000Y-72000000D01*
X130562500Y-44750000D02*
X130812500Y-45000000D01*
X143500000Y-70000000D02*
X143500000Y-61728000D01*
X132000000Y-45000000D02*
X132500000Y-45000000D01*
X130812500Y-45000000D02*
X132000000Y-45000000D01*
D24*
X148388000Y-69540000D02*
X149460000Y-69540000D01*
D26*
X147188000Y-56062000D02*
X147188000Y-68200000D01*
D24*
X150937500Y-68062500D02*
X150937500Y-62000000D01*
X149460000Y-69540000D02*
X150937500Y-68062500D01*
D26*
X147188000Y-68200000D02*
X145848000Y-69540000D01*
X151250000Y-52000000D02*
X147188000Y-56062000D01*
X152000000Y-52000000D02*
X151250000Y-52000000D01*
D24*
X149750000Y-65638000D02*
X149750000Y-61187500D01*
X148388000Y-67000000D02*
X149750000Y-65638000D01*
X149750000Y-61187500D02*
X150937500Y-60000000D01*
X153500000Y-52000000D02*
X153500000Y-43000000D01*
X153500000Y-43000000D02*
X152000000Y-41500000D01*
X145848000Y-55152000D02*
X145848000Y-56840000D01*
X148388000Y-56840000D02*
X150097500Y-56840000D01*
X152000000Y-49000000D02*
X145848000Y-55152000D01*
X152000000Y-43000000D02*
X152000000Y-49000000D01*
X150097500Y-56840000D02*
X150937500Y-56000000D01*
X131500000Y-47500000D02*
X134500000Y-44500000D01*
X131500000Y-59500000D02*
X133000000Y-61000000D01*
X134000000Y-61000000D02*
X135000000Y-62000000D01*
X131500000Y-59500000D02*
X131500000Y-47500000D01*
X138500000Y-67000000D02*
X138500000Y-66500000D01*
X135000000Y-63500000D02*
X138500000Y-67000000D01*
D26*
X128087500Y-59500000D02*
X129500000Y-59500000D01*
D24*
X135000000Y-62000000D02*
X135000000Y-63500000D01*
X133000000Y-61000000D02*
X134000000Y-61000000D01*
X132500000Y-48000000D02*
X134500000Y-46000000D01*
X132500000Y-58000000D02*
X132500000Y-48000000D01*
X138500000Y-64460000D02*
X138500000Y-64000000D01*
X138500000Y-64000000D02*
X132500000Y-58000000D01*
D26*
X128087500Y-57500000D02*
X129500000Y-57500000D01*
D24*
X138500000Y-61500000D02*
X133500000Y-56500000D01*
D26*
X128087500Y-55500000D02*
X129500000Y-55500000D01*
D24*
X133500000Y-48500000D02*
X134500000Y-47500000D01*
X133500000Y-56500000D02*
X133500000Y-48500000D01*
X138500000Y-61920000D02*
X138500000Y-61500000D01*
X138500000Y-59380000D02*
X138500000Y-59000000D01*
X134500000Y-55000000D02*
X134500000Y-49000000D01*
D26*
X128087500Y-53500000D02*
X129500000Y-53500000D01*
D24*
X138500000Y-59000000D02*
X134500000Y-55000000D01*
G04 #@! TA.AperFunction,Conductor*
G36*
X134193039Y-39520185D02*
G01*
X134238794Y-39572989D01*
X134250000Y-39624500D01*
X134250000Y-40439370D01*
X134230315Y-40506409D01*
X134177511Y-40552164D01*
X134169066Y-40555651D01*
X134057119Y-40597111D01*
X134057111Y-40597115D01*
X133884432Y-40704745D01*
X133884427Y-40704749D01*
X133736949Y-40844938D01*
X133736948Y-40844940D01*
X133620705Y-41011949D01*
X133540459Y-41198943D01*
X133499500Y-41398258D01*
X133499500Y-42534217D01*
X133479815Y-42601256D01*
X133463180Y-42621899D01*
X133423900Y-42661178D01*
X133362577Y-42694663D01*
X133292885Y-42689677D01*
X133236952Y-42647805D01*
X133213000Y-42587377D01*
X133210503Y-42565215D01*
X133206391Y-42553465D01*
X133151454Y-42396464D01*
X133151452Y-42396461D01*
X133140382Y-42378844D01*
X133056335Y-42245084D01*
X132929916Y-42118665D01*
X132929915Y-42118664D01*
X132778538Y-42023547D01*
X132778535Y-42023545D01*
X132609787Y-41964497D01*
X132609776Y-41964495D01*
X132476686Y-41949500D01*
X132476680Y-41949500D01*
X131523320Y-41949500D01*
X131523313Y-41949500D01*
X131390223Y-41964495D01*
X131390212Y-41964497D01*
X131221464Y-42023545D01*
X131221461Y-42023547D01*
X131070084Y-42118664D01*
X130943664Y-42245084D01*
X130848547Y-42396461D01*
X130848545Y-42396464D01*
X130789497Y-42565212D01*
X130789495Y-42565223D01*
X130774500Y-42698313D01*
X130774500Y-43576686D01*
X130778868Y-43615453D01*
X130766813Y-43684275D01*
X130719464Y-43735654D01*
X130651854Y-43753278D01*
X130646233Y-43752978D01*
X130537025Y-43744662D01*
X130537022Y-43744662D01*
X130335172Y-43770369D01*
X130331202Y-43771291D01*
X130303177Y-43774500D01*
X130113331Y-43774500D01*
X130113312Y-43774501D01*
X130012247Y-43784825D01*
X129848484Y-43839092D01*
X129848481Y-43839093D01*
X129701648Y-43929661D01*
X129587681Y-44043629D01*
X129526358Y-44077114D01*
X129456666Y-44072130D01*
X129412319Y-44043629D01*
X129298351Y-43929661D01*
X129298350Y-43929660D01*
X129151516Y-43839092D01*
X128987753Y-43784826D01*
X128987751Y-43784825D01*
X128886684Y-43774500D01*
X128886677Y-43774500D01*
X128341967Y-43774500D01*
X128274928Y-43754815D01*
X128229173Y-43702011D01*
X128218747Y-43636616D01*
X128222560Y-43602773D01*
X128225500Y-43576680D01*
X128225500Y-42698320D01*
X128210503Y-42565215D01*
X128206391Y-42553465D01*
X128151454Y-42396464D01*
X128151452Y-42396461D01*
X128140382Y-42378844D01*
X128056335Y-42245084D01*
X127929916Y-42118665D01*
X127929915Y-42118664D01*
X127778538Y-42023547D01*
X127778535Y-42023545D01*
X127609787Y-41964497D01*
X127609776Y-41964495D01*
X127476686Y-41949500D01*
X127476680Y-41949500D01*
X126523320Y-41949500D01*
X126523313Y-41949500D01*
X126390223Y-41964495D01*
X126390212Y-41964497D01*
X126221464Y-42023545D01*
X126221461Y-42023547D01*
X126070084Y-42118664D01*
X125943664Y-42245084D01*
X125848547Y-42396461D01*
X125848545Y-42396464D01*
X125789497Y-42565212D01*
X125789495Y-42565223D01*
X125774500Y-42698313D01*
X125774500Y-43576686D01*
X125789495Y-43709776D01*
X125789497Y-43709787D01*
X125848545Y-43878535D01*
X125848547Y-43878538D01*
X125943664Y-44029915D01*
X126070084Y-44156335D01*
X126221461Y-44251452D01*
X126221464Y-44251454D01*
X126305366Y-44280813D01*
X126390215Y-44310503D01*
X126390221Y-44310503D01*
X126390223Y-44310504D01*
X126432577Y-44315276D01*
X126523314Y-44325499D01*
X126523317Y-44325500D01*
X126523320Y-44325500D01*
X127176267Y-44325500D01*
X127243306Y-44345185D01*
X127289061Y-44397989D01*
X127299299Y-44460147D01*
X127299661Y-44460166D01*
X127299576Y-44461827D01*
X127299623Y-44462113D01*
X127299500Y-44463323D01*
X127299500Y-44463327D01*
X127299500Y-44463328D01*
X127299500Y-45036669D01*
X127299501Y-45036687D01*
X127309825Y-45137752D01*
X127323432Y-45178813D01*
X127362690Y-45297286D01*
X127364092Y-45301515D01*
X127364093Y-45301518D01*
X127375212Y-45319544D01*
X127454660Y-45448350D01*
X127576650Y-45570340D01*
X127723484Y-45660908D01*
X127887247Y-45715174D01*
X127988323Y-45725500D01*
X128886676Y-45725499D01*
X128987753Y-45715174D01*
X129151516Y-45660908D01*
X129298350Y-45570340D01*
X129412319Y-45456371D01*
X129473642Y-45422886D01*
X129543334Y-45427870D01*
X129587681Y-45456371D01*
X129701650Y-45570340D01*
X129848484Y-45660908D01*
X130012247Y-45715174D01*
X130076995Y-45721788D01*
X130141686Y-45748183D01*
X130154265Y-45759712D01*
X130157439Y-45763051D01*
X130157447Y-45763058D01*
X130179814Y-45778625D01*
X130207795Y-45798100D01*
X130211550Y-45800932D01*
X130259093Y-45839698D01*
X130289545Y-45855604D01*
X130296256Y-45859671D01*
X130324451Y-45879295D01*
X130380832Y-45903490D01*
X130385067Y-45905501D01*
X130439451Y-45933909D01*
X130472473Y-45943356D01*
X130479865Y-45945989D01*
X130511440Y-45959539D01*
X130511441Y-45959540D01*
X130524554Y-45962234D01*
X130571555Y-45971892D01*
X130576095Y-45973006D01*
X130635082Y-45989886D01*
X130669341Y-45992494D01*
X130677109Y-45993585D01*
X130710755Y-46000500D01*
X130710759Y-46000500D01*
X130772101Y-46000500D01*
X130776808Y-46000678D01*
X130813151Y-46003446D01*
X130837975Y-46005337D01*
X130837975Y-46005336D01*
X130837976Y-46005337D01*
X130872059Y-46000996D01*
X130879889Y-46000500D01*
X131638770Y-46000500D01*
X131705809Y-46020185D01*
X131751564Y-46072989D01*
X131761508Y-46142147D01*
X131732483Y-46205703D01*
X131726451Y-46212181D01*
X131014358Y-46924272D01*
X131000729Y-46936051D01*
X130981468Y-46950390D01*
X130947898Y-46990397D01*
X130944253Y-46994376D01*
X130938409Y-47000222D01*
X130918059Y-47025959D01*
X130868695Y-47084789D01*
X130864729Y-47090819D01*
X130864682Y-47090788D01*
X130860630Y-47097147D01*
X130860679Y-47097177D01*
X130856889Y-47103321D01*
X130824424Y-47172941D01*
X130789960Y-47241566D01*
X130787488Y-47248357D01*
X130787432Y-47248336D01*
X130784960Y-47255450D01*
X130785015Y-47255469D01*
X130782742Y-47262327D01*
X130775107Y-47299306D01*
X130767207Y-47337565D01*
X130763274Y-47354162D01*
X130749498Y-47412286D01*
X130748661Y-47419454D01*
X130748601Y-47419447D01*
X130747835Y-47426945D01*
X130747895Y-47426951D01*
X130747265Y-47434140D01*
X130749500Y-47510916D01*
X130749500Y-49402047D01*
X130729815Y-49469086D01*
X130677011Y-49514841D01*
X130607853Y-49524785D01*
X130591390Y-49521263D01*
X130552421Y-49510113D01*
X130552416Y-49510112D01*
X130349525Y-49494662D01*
X130349522Y-49494662D01*
X130147678Y-49520368D01*
X130147670Y-49520370D01*
X129955129Y-49586183D01*
X129955117Y-49586189D01*
X129779778Y-49689406D01*
X129779771Y-49689411D01*
X129628787Y-49825820D01*
X129628787Y-49825821D01*
X129508353Y-49989828D01*
X129508349Y-49989835D01*
X129423397Y-50174725D01*
X129423393Y-50174737D01*
X129377396Y-50372945D01*
X129372242Y-50576358D01*
X129408140Y-50776648D01*
X129408142Y-50776654D01*
X129483623Y-50965618D01*
X129485409Y-50969036D01*
X129499500Y-51026447D01*
X129499500Y-52633994D01*
X129479815Y-52701033D01*
X129427011Y-52746788D01*
X129389384Y-52757214D01*
X129331946Y-52763685D01*
X129183568Y-52815604D01*
X129113789Y-52819165D01*
X129054933Y-52786243D01*
X128948351Y-52679661D01*
X128948350Y-52679660D01*
X128829081Y-52606094D01*
X128801518Y-52589093D01*
X128801513Y-52589091D01*
X128800069Y-52588612D01*
X128637753Y-52534826D01*
X128637751Y-52534825D01*
X128536678Y-52524500D01*
X127638330Y-52524500D01*
X127638313Y-52524501D01*
X127537247Y-52534825D01*
X127373484Y-52589092D01*
X127373481Y-52589093D01*
X127226648Y-52679661D01*
X127112681Y-52793629D01*
X127051358Y-52827114D01*
X126981666Y-52822130D01*
X126937319Y-52793629D01*
X126823351Y-52679661D01*
X126823350Y-52679660D01*
X126704081Y-52606094D01*
X126676518Y-52589093D01*
X126676513Y-52589091D01*
X126675069Y-52588612D01*
X126512753Y-52534826D01*
X126512751Y-52534825D01*
X126411678Y-52524500D01*
X125513330Y-52524500D01*
X125513313Y-52524501D01*
X125412247Y-52534825D01*
X125248484Y-52589092D01*
X125248481Y-52589093D01*
X125101648Y-52679661D01*
X124979661Y-52801648D01*
X124889093Y-52948481D01*
X124889092Y-52948484D01*
X124834826Y-53112247D01*
X124834826Y-53112248D01*
X124834825Y-53112248D01*
X124824500Y-53213315D01*
X124824500Y-53786669D01*
X124824501Y-53786687D01*
X124834825Y-53887752D01*
X124854092Y-53945895D01*
X124889076Y-54051469D01*
X124889092Y-54051515D01*
X124889093Y-54051518D01*
X124909699Y-54084925D01*
X124971052Y-54184395D01*
X124979661Y-54198351D01*
X125101649Y-54320339D01*
X125101653Y-54320342D01*
X125221819Y-54394462D01*
X125268544Y-54446410D01*
X125279765Y-54515372D01*
X125251922Y-54579454D01*
X125221819Y-54605538D01*
X125101653Y-54679657D01*
X125101649Y-54679660D01*
X124979661Y-54801648D01*
X124889093Y-54948481D01*
X124889092Y-54948484D01*
X124834826Y-55112247D01*
X124834826Y-55112248D01*
X124834825Y-55112248D01*
X124824500Y-55213315D01*
X124824500Y-55786669D01*
X124824501Y-55786687D01*
X124834825Y-55887752D01*
X124861615Y-55968597D01*
X124886664Y-56044190D01*
X124889092Y-56051515D01*
X124889093Y-56051518D01*
X124900801Y-56070500D01*
X124973974Y-56189132D01*
X124979661Y-56198351D01*
X125101649Y-56320339D01*
X125101653Y-56320342D01*
X125221819Y-56394462D01*
X125268544Y-56446410D01*
X125279765Y-56515372D01*
X125251922Y-56579454D01*
X125221819Y-56605538D01*
X125101653Y-56679657D01*
X125101649Y-56679660D01*
X124979661Y-56801648D01*
X124889093Y-56948481D01*
X124889091Y-56948486D01*
X124872910Y-56997318D01*
X124834826Y-57112247D01*
X124834826Y-57112248D01*
X124834825Y-57112248D01*
X124824500Y-57213315D01*
X124824500Y-57786669D01*
X124824501Y-57786687D01*
X124834825Y-57887752D01*
X124871109Y-57997249D01*
X124886912Y-58044938D01*
X124889092Y-58051515D01*
X124889093Y-58051518D01*
X124902884Y-58073876D01*
X124977504Y-58194855D01*
X124979661Y-58198351D01*
X125101649Y-58320339D01*
X125101653Y-58320342D01*
X125221819Y-58394462D01*
X125268544Y-58446410D01*
X125279765Y-58515372D01*
X125251922Y-58579454D01*
X125221819Y-58605538D01*
X125101653Y-58679657D01*
X125101649Y-58679660D01*
X124979661Y-58801648D01*
X124889093Y-58948481D01*
X124889092Y-58948484D01*
X124834826Y-59112247D01*
X124834826Y-59112248D01*
X124834825Y-59112248D01*
X124824500Y-59213315D01*
X124824500Y-59786669D01*
X124824501Y-59786687D01*
X124834825Y-59887752D01*
X124889092Y-60051515D01*
X124889093Y-60051518D01*
X124904583Y-60076631D01*
X124979660Y-60198350D01*
X125101650Y-60320340D01*
X125248484Y-60410908D01*
X125412247Y-60465174D01*
X125513323Y-60475500D01*
X126411676Y-60475499D01*
X126512753Y-60465174D01*
X126676516Y-60410908D01*
X126823350Y-60320340D01*
X126937319Y-60206371D01*
X126998642Y-60172886D01*
X127068334Y-60177870D01*
X127112681Y-60206371D01*
X127226650Y-60320340D01*
X127373484Y-60410908D01*
X127537247Y-60465174D01*
X127638323Y-60475500D01*
X128536676Y-60475499D01*
X128637753Y-60465174D01*
X128801516Y-60410908D01*
X128948350Y-60320340D01*
X129054936Y-60213753D01*
X129116255Y-60180271D01*
X129183566Y-60184394D01*
X129331941Y-60236313D01*
X129331942Y-60236313D01*
X129331945Y-60236314D01*
X129389382Y-60242785D01*
X129453796Y-60269850D01*
X129493352Y-60327445D01*
X129499500Y-60366005D01*
X129499500Y-61456448D01*
X129479815Y-61523487D01*
X129427011Y-61569242D01*
X129357853Y-61579186D01*
X129294297Y-61550161D01*
X129287819Y-61544129D01*
X129198351Y-61454661D01*
X129198350Y-61454660D01*
X129102227Y-61395371D01*
X129051518Y-61364093D01*
X129051513Y-61364091D01*
X128982339Y-61341169D01*
X128887753Y-61309826D01*
X128887751Y-61309825D01*
X128786678Y-61299500D01*
X128213330Y-61299500D01*
X128213312Y-61299501D01*
X128112247Y-61309825D01*
X127948484Y-61364092D01*
X127948481Y-61364093D01*
X127801648Y-61454661D01*
X127679661Y-61576648D01*
X127589093Y-61723481D01*
X127589091Y-61723486D01*
X127566568Y-61791456D01*
X127534826Y-61887247D01*
X127534826Y-61887248D01*
X127534825Y-61887248D01*
X127524500Y-61988315D01*
X127524500Y-62886669D01*
X127524501Y-62886686D01*
X127534825Y-62987752D01*
X127589092Y-63151515D01*
X127589093Y-63151518D01*
X127596871Y-63164128D01*
X127679065Y-63297386D01*
X127679661Y-63298351D01*
X127793629Y-63412319D01*
X127827114Y-63473642D01*
X127822130Y-63543334D01*
X127793629Y-63587681D01*
X127679661Y-63701648D01*
X127589093Y-63848481D01*
X127589091Y-63848486D01*
X127564231Y-63923508D01*
X127534826Y-64012247D01*
X127534826Y-64012248D01*
X127534825Y-64012248D01*
X127524500Y-64113315D01*
X127524500Y-65011669D01*
X127524501Y-65011686D01*
X127534825Y-65112752D01*
X127560311Y-65189661D01*
X127589092Y-65276516D01*
X127679065Y-65422386D01*
X127679661Y-65423351D01*
X127713181Y-65456871D01*
X127746666Y-65518194D01*
X127749500Y-65544552D01*
X127749500Y-68687298D01*
X127729815Y-68754337D01*
X127696625Y-68788872D01*
X127628595Y-68836507D01*
X127461505Y-69003597D01*
X127325965Y-69197169D01*
X127325964Y-69197171D01*
X127226098Y-69411335D01*
X127226094Y-69411344D01*
X127164938Y-69639586D01*
X127164936Y-69639596D01*
X127149500Y-69816034D01*
X127149500Y-70183966D01*
X127164936Y-70360403D01*
X127164938Y-70360413D01*
X127226094Y-70588655D01*
X127226096Y-70588659D01*
X127226097Y-70588663D01*
X127249194Y-70638194D01*
X127325964Y-70802828D01*
X127325965Y-70802830D01*
X127461505Y-70996402D01*
X127571262Y-71106158D01*
X127628599Y-71163495D01*
X127725384Y-71231265D01*
X127822165Y-71299032D01*
X127822167Y-71299033D01*
X127822170Y-71299035D01*
X128036337Y-71398903D01*
X128264592Y-71460063D01*
X128439548Y-71475370D01*
X128499999Y-71480659D01*
X128500000Y-71480659D01*
X128502846Y-71480410D01*
X128504085Y-71480659D01*
X128505415Y-71480659D01*
X128505415Y-71480926D01*
X128571346Y-71494176D01*
X128601336Y-71516257D01*
X129783548Y-72698468D01*
X129844941Y-72763053D01*
X129844947Y-72763057D01*
X129844948Y-72763058D01*
X129860273Y-72773725D01*
X129904052Y-72828178D01*
X129911442Y-72897656D01*
X129880095Y-72960100D01*
X129819966Y-72995683D01*
X129789437Y-72999500D01*
X127501624Y-72999500D01*
X127498378Y-72999415D01*
X127366617Y-72992509D01*
X127182985Y-72982196D01*
X127176758Y-72981530D01*
X127024369Y-72957394D01*
X126861835Y-72929778D01*
X126856171Y-72928541D01*
X126703297Y-72887579D01*
X126548273Y-72842916D01*
X126543217Y-72841221D01*
X126393829Y-72783877D01*
X126245997Y-72722643D01*
X126241575Y-72720604D01*
X126098078Y-72647488D01*
X125958531Y-72570364D01*
X125954767Y-72568106D01*
X125901875Y-72533758D01*
X125819127Y-72480019D01*
X125689243Y-72387862D01*
X125686102Y-72385480D01*
X125561260Y-72284385D01*
X125558964Y-72282431D01*
X125441277Y-72177260D01*
X125438750Y-72174870D01*
X125325128Y-72061248D01*
X125322738Y-72058721D01*
X125217567Y-71941034D01*
X125215613Y-71938738D01*
X125176848Y-71890867D01*
X125114510Y-71813886D01*
X125112136Y-71810755D01*
X125019980Y-71680872D01*
X124987406Y-71630715D01*
X124931882Y-71545215D01*
X124929641Y-71541480D01*
X124884643Y-71460061D01*
X124852511Y-71401921D01*
X124800085Y-71299032D01*
X124779388Y-71258412D01*
X124777358Y-71254007D01*
X124716122Y-71106170D01*
X124658769Y-70956759D01*
X124657082Y-70951724D01*
X124635405Y-70876484D01*
X124612414Y-70796679D01*
X124606610Y-70775019D01*
X124571453Y-70643811D01*
X124570226Y-70638194D01*
X124542601Y-70475606D01*
X124518465Y-70323212D01*
X124517803Y-70317027D01*
X124507490Y-70133382D01*
X124500584Y-70001620D01*
X124500500Y-69998377D01*
X124500500Y-42501622D01*
X124500585Y-42498376D01*
X124507497Y-42366486D01*
X124507741Y-42362148D01*
X124517803Y-42182968D01*
X124518464Y-42176791D01*
X124542611Y-42024331D01*
X124542745Y-42023545D01*
X124570227Y-41861796D01*
X124571451Y-41856196D01*
X124612425Y-41703279D01*
X124657083Y-41548268D01*
X124658764Y-41543254D01*
X124716127Y-41393815D01*
X124777366Y-41245972D01*
X124779379Y-41241606D01*
X124852511Y-41098078D01*
X124890630Y-41029106D01*
X124929655Y-40958494D01*
X124931867Y-40954808D01*
X125013537Y-40829046D01*
X125019980Y-40819127D01*
X125052181Y-40773744D01*
X125112154Y-40689220D01*
X125114486Y-40686143D01*
X125215655Y-40561209D01*
X125217537Y-40558998D01*
X125322773Y-40441239D01*
X125325092Y-40438787D01*
X125438787Y-40325092D01*
X125441239Y-40322773D01*
X125558998Y-40217537D01*
X125561209Y-40215655D01*
X125686143Y-40114486D01*
X125689220Y-40112154D01*
X125819127Y-40019980D01*
X125829046Y-40013537D01*
X125954808Y-39931867D01*
X125958494Y-39929655D01*
X126098078Y-39852511D01*
X126110063Y-39846403D01*
X126241606Y-39779379D01*
X126245972Y-39777366D01*
X126393815Y-39716127D01*
X126543254Y-39658764D01*
X126548268Y-39657083D01*
X126703279Y-39612425D01*
X126856196Y-39571451D01*
X126861796Y-39570227D01*
X127024284Y-39542618D01*
X127176791Y-39518464D01*
X127182968Y-39517803D01*
X127366566Y-39507493D01*
X127498380Y-39500584D01*
X127501622Y-39500500D01*
X134126000Y-39500500D01*
X134193039Y-39520185D01*
G37*
G04 #@! TD.AperFunction*
G04 #@! TA.AperFunction,Conductor*
G36*
X163001619Y-39500584D02*
G01*
X163133628Y-39507503D01*
X163317027Y-39517803D01*
X163323212Y-39518465D01*
X163475647Y-39542608D01*
X163638194Y-39570226D01*
X163643811Y-39571453D01*
X163796693Y-39612418D01*
X163889122Y-39639046D01*
X163951724Y-39657082D01*
X163956759Y-39658769D01*
X164106183Y-39716127D01*
X164254007Y-39777358D01*
X164258412Y-39779388D01*
X164324180Y-39812899D01*
X164401921Y-39852511D01*
X164477428Y-39894241D01*
X164541480Y-39929641D01*
X164545215Y-39931882D01*
X164619487Y-39980115D01*
X164680872Y-40019980D01*
X164768357Y-40082053D01*
X164810764Y-40112142D01*
X164813886Y-40114510D01*
X164938748Y-40215621D01*
X164941034Y-40217567D01*
X165058721Y-40322738D01*
X165061248Y-40325128D01*
X165174870Y-40438750D01*
X165177260Y-40441277D01*
X165282431Y-40558964D01*
X165284383Y-40561258D01*
X165313416Y-40597111D01*
X165385480Y-40686102D01*
X165387862Y-40689243D01*
X165480019Y-40819127D01*
X165531109Y-40897797D01*
X165568106Y-40954767D01*
X165570364Y-40958531D01*
X165647488Y-41098078D01*
X165720604Y-41241575D01*
X165722643Y-41245997D01*
X165783877Y-41393829D01*
X165841221Y-41543217D01*
X165842916Y-41548273D01*
X165887579Y-41703297D01*
X165928541Y-41856171D01*
X165929778Y-41861835D01*
X165957394Y-42024369D01*
X165981530Y-42176758D01*
X165982196Y-42182985D01*
X165992509Y-42366617D01*
X165999415Y-42498377D01*
X165999500Y-42501623D01*
X165999500Y-69998376D01*
X165999415Y-70001622D01*
X165992509Y-70133382D01*
X165982196Y-70317013D01*
X165981530Y-70323240D01*
X165957394Y-70475630D01*
X165929778Y-70638163D01*
X165928541Y-70643827D01*
X165887579Y-70796702D01*
X165842916Y-70951725D01*
X165841221Y-70956781D01*
X165783877Y-71106170D01*
X165722643Y-71254001D01*
X165720604Y-71258423D01*
X165647488Y-71401921D01*
X165570364Y-71541467D01*
X165568097Y-71545246D01*
X165480019Y-71680872D01*
X165387862Y-71810755D01*
X165385480Y-71813896D01*
X165284385Y-71938738D01*
X165282431Y-71941034D01*
X165177260Y-72058721D01*
X165174870Y-72061248D01*
X165061248Y-72174870D01*
X165058721Y-72177260D01*
X164941034Y-72282431D01*
X164938738Y-72284385D01*
X164813896Y-72385480D01*
X164810755Y-72387862D01*
X164680872Y-72480019D01*
X164545246Y-72568097D01*
X164541467Y-72570364D01*
X164401921Y-72647488D01*
X164258423Y-72720604D01*
X164254001Y-72722643D01*
X164106170Y-72783877D01*
X163956781Y-72841221D01*
X163951725Y-72842916D01*
X163796702Y-72887579D01*
X163643827Y-72928541D01*
X163638163Y-72929778D01*
X163475630Y-72957394D01*
X163323240Y-72981530D01*
X163317013Y-72982196D01*
X163133382Y-72992509D01*
X163001622Y-72999415D01*
X162998376Y-72999500D01*
X149713885Y-72999500D01*
X149646846Y-72979815D01*
X149601091Y-72927011D01*
X149591147Y-72857853D01*
X149620172Y-72794297D01*
X149635479Y-72779441D01*
X149635516Y-72779403D01*
X149635519Y-72779402D01*
X149678917Y-72736002D01*
X149682336Y-72732834D01*
X149728895Y-72692866D01*
X149749931Y-72665688D01*
X149755101Y-72659818D01*
X154519077Y-67895842D01*
X154580398Y-67862359D01*
X154650090Y-67867343D01*
X154706023Y-67909215D01*
X154730440Y-67974679D01*
X154722938Y-68026857D01*
X154705909Y-68072514D01*
X154705908Y-68072516D01*
X154700337Y-68124341D01*
X154699501Y-68132123D01*
X154699500Y-68132135D01*
X154699500Y-69427870D01*
X154699501Y-69427876D01*
X154705908Y-69487483D01*
X154756202Y-69622328D01*
X154756206Y-69622335D01*
X154842452Y-69737544D01*
X154842455Y-69737547D01*
X154957664Y-69823793D01*
X154957671Y-69823797D01*
X155092517Y-69874091D01*
X155092516Y-69874091D01*
X155099444Y-69874835D01*
X155152127Y-69880500D01*
X157447872Y-69880499D01*
X157507483Y-69874091D01*
X157642331Y-69823796D01*
X157757546Y-69737546D01*
X157843796Y-69622331D01*
X157894091Y-69487483D01*
X157900500Y-69427873D01*
X157900499Y-68132128D01*
X157894091Y-68072517D01*
X157882111Y-68040398D01*
X157843797Y-67937671D01*
X157843793Y-67937664D01*
X157757547Y-67822455D01*
X157757544Y-67822452D01*
X157642335Y-67736206D01*
X157642328Y-67736202D01*
X157507482Y-67685908D01*
X157507483Y-67685908D01*
X157447883Y-67679501D01*
X157447881Y-67679500D01*
X157447873Y-67679500D01*
X157447864Y-67679500D01*
X155152129Y-67679500D01*
X155152123Y-67679501D01*
X155092515Y-67685909D01*
X155046857Y-67702938D01*
X154977165Y-67707922D01*
X154915843Y-67674436D01*
X154882358Y-67613113D01*
X154887344Y-67543421D01*
X154915842Y-67499077D01*
X155198487Y-67216433D01*
X155263053Y-67155059D01*
X155298112Y-67104686D01*
X155300925Y-67100957D01*
X155339698Y-67053407D01*
X155355607Y-67022948D01*
X155359667Y-67016248D01*
X155379295Y-66988049D01*
X155403492Y-66931660D01*
X155405498Y-66927435D01*
X155433909Y-66873049D01*
X155443360Y-66840015D01*
X155445991Y-66832628D01*
X155459540Y-66801058D01*
X155471893Y-66740940D01*
X155473006Y-66736412D01*
X155489887Y-66677418D01*
X155492495Y-66643155D01*
X155493587Y-66635376D01*
X155500500Y-66601739D01*
X155500500Y-66540401D01*
X155500679Y-66535692D01*
X155505337Y-66474525D01*
X155505276Y-66474048D01*
X155501647Y-66445547D01*
X155500997Y-66440441D01*
X155500500Y-66432602D01*
X155500500Y-65444499D01*
X155520185Y-65377460D01*
X155572989Y-65331705D01*
X155624500Y-65320499D01*
X157447871Y-65320499D01*
X157447872Y-65320499D01*
X157507483Y-65314091D01*
X157642331Y-65263796D01*
X157757546Y-65177546D01*
X157843796Y-65062331D01*
X157894091Y-64927483D01*
X157900500Y-64867873D01*
X157900499Y-63572128D01*
X157894091Y-63512517D01*
X157889422Y-63500000D01*
X157843797Y-63377671D01*
X157843793Y-63377664D01*
X157757547Y-63262455D01*
X157757544Y-63262452D01*
X157642335Y-63176206D01*
X157642328Y-63176202D01*
X157507482Y-63125908D01*
X157507483Y-63125908D01*
X157447883Y-63119501D01*
X157447881Y-63119500D01*
X157447873Y-63119500D01*
X157447865Y-63119500D01*
X156665783Y-63119500D01*
X156598744Y-63099815D01*
X156578102Y-63083181D01*
X155536819Y-62041898D01*
X155503334Y-61980575D01*
X155500500Y-61954217D01*
X155500500Y-57064357D01*
X155520185Y-56997318D01*
X155572989Y-56951563D01*
X155642147Y-56941619D01*
X155655576Y-56944315D01*
X155671686Y-56948486D01*
X155847706Y-56994061D01*
X155847709Y-56994061D01*
X155847715Y-56994063D01*
X156050936Y-57004369D01*
X156252071Y-56973556D01*
X156442887Y-56902886D01*
X156615571Y-56795252D01*
X156763053Y-56655059D01*
X156879295Y-56488049D01*
X156959540Y-56301058D01*
X157000500Y-56101741D01*
X157000500Y-55711027D01*
X157020185Y-55643988D01*
X157072989Y-55598233D01*
X157142147Y-55588289D01*
X157205703Y-55617314D01*
X157229731Y-55645434D01*
X157234009Y-55652298D01*
X157254747Y-55685570D01*
X157254749Y-55685572D01*
X157350866Y-55786687D01*
X157394941Y-55833053D01*
X157512804Y-55915088D01*
X157561949Y-55949294D01*
X157561950Y-55949294D01*
X157561951Y-55949295D01*
X157748942Y-56029540D01*
X157948259Y-56070500D01*
X159200743Y-56070500D01*
X159352439Y-56055074D01*
X159546579Y-55994162D01*
X159546580Y-55994161D01*
X159546588Y-55994159D01*
X159724502Y-55895409D01*
X159878895Y-55762866D01*
X160003448Y-55601958D01*
X160093060Y-55419271D01*
X160144063Y-55222285D01*
X160149203Y-55120936D01*
X161395631Y-55120936D01*
X161426442Y-55322063D01*
X161426445Y-55322075D01*
X161497111Y-55512881D01*
X161497113Y-55512884D01*
X161497114Y-55512887D01*
X161521023Y-55551246D01*
X161604745Y-55685567D01*
X161604749Y-55685572D01*
X161700866Y-55786687D01*
X161744941Y-55833053D01*
X161862804Y-55915088D01*
X161911949Y-55949294D01*
X161911950Y-55949294D01*
X161911951Y-55949295D01*
X162098942Y-56029540D01*
X162298259Y-56070500D01*
X163250743Y-56070500D01*
X163402439Y-56055074D01*
X163596579Y-55994162D01*
X163596580Y-55994161D01*
X163596588Y-55994159D01*
X163774502Y-55895409D01*
X163928895Y-55762866D01*
X164053448Y-55601958D01*
X164143060Y-55419271D01*
X164194063Y-55222285D01*
X164204369Y-55019064D01*
X164173556Y-54817929D01*
X164106833Y-54637770D01*
X164102888Y-54627118D01*
X164102887Y-54627117D01*
X164102886Y-54627113D01*
X163995252Y-54454429D01*
X163855059Y-54306947D01*
X163756422Y-54238294D01*
X163688050Y-54190705D01*
X163501056Y-54110459D01*
X163301741Y-54069500D01*
X162349258Y-54069500D01*
X162349257Y-54069500D01*
X162197560Y-54084925D01*
X162003420Y-54145837D01*
X162003405Y-54145844D01*
X161825500Y-54244589D01*
X161825495Y-54244592D01*
X161671106Y-54377132D01*
X161671104Y-54377134D01*
X161546554Y-54538037D01*
X161546553Y-54538040D01*
X161456940Y-54720728D01*
X161405937Y-54917714D01*
X161395631Y-55120936D01*
X160149203Y-55120936D01*
X160154369Y-55019064D01*
X160123556Y-54817929D01*
X160056833Y-54637770D01*
X160052888Y-54627118D01*
X160052887Y-54627117D01*
X160052886Y-54627113D01*
X159945252Y-54454429D01*
X159805059Y-54306947D01*
X159638049Y-54190705D01*
X159576468Y-54164278D01*
X159522626Y-54119752D01*
X159501403Y-54053183D01*
X159519539Y-53985708D01*
X159524066Y-53978819D01*
X159590971Y-53884037D01*
X159639346Y-53747921D01*
X159649204Y-53603801D01*
X159619814Y-53462366D01*
X159553354Y-53334105D01*
X159553351Y-53334102D01*
X159553350Y-53334100D01*
X159454754Y-53228530D01*
X159331330Y-53153475D01*
X159331329Y-53153474D01*
X159331328Y-53153474D01*
X159192228Y-53114500D01*
X159124500Y-53114500D01*
X159057461Y-53094815D01*
X159011706Y-53042011D01*
X159000500Y-52990500D01*
X159000500Y-52286669D01*
X159362000Y-52286669D01*
X159362001Y-52286687D01*
X159372325Y-52387752D01*
X159383211Y-52420603D01*
X159426592Y-52551516D01*
X159517160Y-52698350D01*
X159639150Y-52820340D01*
X159785984Y-52910908D01*
X159949747Y-52965174D01*
X160050823Y-52975500D01*
X160949176Y-52975499D01*
X161050253Y-52965174D01*
X161214016Y-52910908D01*
X161360850Y-52820340D01*
X161482840Y-52698350D01*
X161573408Y-52551516D01*
X161627674Y-52387753D01*
X161638000Y-52286677D01*
X161637999Y-51713324D01*
X161633809Y-51672310D01*
X161627674Y-51612247D01*
X161610930Y-51561717D01*
X161573408Y-51448484D01*
X161482840Y-51301650D01*
X161360850Y-51179660D01*
X161214016Y-51089092D01*
X161050253Y-51034826D01*
X161050251Y-51034825D01*
X160949178Y-51024500D01*
X160050830Y-51024500D01*
X160050813Y-51024501D01*
X159949747Y-51034825D01*
X159785984Y-51089092D01*
X159785981Y-51089093D01*
X159639148Y-51179661D01*
X159517161Y-51301648D01*
X159426593Y-51448481D01*
X159426591Y-51448486D01*
X159408253Y-51503827D01*
X159372326Y-51612247D01*
X159372326Y-51612248D01*
X159372325Y-51612248D01*
X159362000Y-51713315D01*
X159362000Y-52286669D01*
X159000500Y-52286669D01*
X159000500Y-48509500D01*
X159020185Y-48442461D01*
X159072989Y-48396706D01*
X159124500Y-48385500D01*
X159155950Y-48385500D01*
X159176624Y-48382658D01*
X159263111Y-48370771D01*
X159263112Y-48370770D01*
X159264169Y-48370625D01*
X159333264Y-48380997D01*
X159385783Y-48427079D01*
X159405052Y-48494239D01*
X159398760Y-48532473D01*
X159372326Y-48612244D01*
X159372325Y-48612248D01*
X159362000Y-48713315D01*
X159362000Y-49286669D01*
X159362001Y-49286687D01*
X159372325Y-49387752D01*
X159399277Y-49469086D01*
X159425960Y-49549610D01*
X159426592Y-49551515D01*
X159426593Y-49551518D01*
X159435582Y-49566091D01*
X159517160Y-49698350D01*
X159639150Y-49820340D01*
X159785984Y-49910908D01*
X159949747Y-49965174D01*
X160050823Y-49975500D01*
X160949176Y-49975499D01*
X161050253Y-49965174D01*
X161214016Y-49910908D01*
X161360850Y-49820340D01*
X161482840Y-49698350D01*
X161573408Y-49551516D01*
X161627674Y-49387753D01*
X161638000Y-49286677D01*
X161637999Y-48713324D01*
X161633809Y-48672310D01*
X161627674Y-48612247D01*
X161601239Y-48532473D01*
X161573408Y-48448484D01*
X161482840Y-48301650D01*
X161360850Y-48179660D01*
X161229987Y-48098943D01*
X161214018Y-48089093D01*
X161214013Y-48089091D01*
X161197216Y-48083525D01*
X161050253Y-48034826D01*
X161050251Y-48034825D01*
X160949178Y-48024500D01*
X160050830Y-48024500D01*
X160050813Y-48024501D01*
X159949747Y-48034825D01*
X159949744Y-48034826D01*
X159802783Y-48083525D01*
X159732955Y-48085927D01*
X159672913Y-48050195D01*
X159641720Y-47987675D01*
X159640068Y-47957361D01*
X159649204Y-47823801D01*
X159619814Y-47682366D01*
X159553354Y-47554105D01*
X159536410Y-47535962D01*
X159505040Y-47473533D01*
X159512400Y-47404052D01*
X159556157Y-47349581D01*
X159566858Y-47342908D01*
X159724502Y-47255409D01*
X159878895Y-47122866D01*
X160003448Y-46961958D01*
X160093060Y-46779271D01*
X160144063Y-46582285D01*
X160149203Y-46480936D01*
X161395631Y-46480936D01*
X161426442Y-46682063D01*
X161426445Y-46682075D01*
X161497111Y-46872881D01*
X161497113Y-46872884D01*
X161497114Y-46872887D01*
X161523493Y-46915209D01*
X161604745Y-47045567D01*
X161604747Y-47045569D01*
X161604748Y-47045571D01*
X161744941Y-47193053D01*
X161834590Y-47255450D01*
X161911949Y-47309294D01*
X161911950Y-47309294D01*
X161911951Y-47309295D01*
X162098942Y-47389540D01*
X162298259Y-47430500D01*
X163250743Y-47430500D01*
X163402439Y-47415074D01*
X163596579Y-47354162D01*
X163596580Y-47354161D01*
X163596588Y-47354159D01*
X163774502Y-47255409D01*
X163928895Y-47122866D01*
X164053448Y-46961958D01*
X164143060Y-46779271D01*
X164194063Y-46582285D01*
X164204369Y-46379064D01*
X164173556Y-46177929D01*
X164117620Y-46026896D01*
X164102888Y-45987118D01*
X164102887Y-45987117D01*
X164102886Y-45987113D01*
X163995252Y-45814429D01*
X163906464Y-45721025D01*
X163855061Y-45666949D01*
X163855060Y-45666948D01*
X163855059Y-45666947D01*
X163756587Y-45598409D01*
X163688050Y-45550705D01*
X163501056Y-45470459D01*
X163301741Y-45429500D01*
X162349258Y-45429500D01*
X162349257Y-45429500D01*
X162197560Y-45444925D01*
X162003420Y-45505837D01*
X162003405Y-45505844D01*
X161825500Y-45604589D01*
X161825495Y-45604592D01*
X161671106Y-45737132D01*
X161671104Y-45737134D01*
X161546554Y-45898037D01*
X161546553Y-45898040D01*
X161456940Y-46080728D01*
X161405937Y-46277714D01*
X161395631Y-46480936D01*
X160149203Y-46480936D01*
X160154369Y-46379064D01*
X160123556Y-46177929D01*
X160067620Y-46026896D01*
X160052888Y-45987118D01*
X160052887Y-45987117D01*
X160052886Y-45987113D01*
X159945252Y-45814429D01*
X159856464Y-45721025D01*
X159805061Y-45666949D01*
X159805060Y-45666948D01*
X159805059Y-45666947D01*
X159706587Y-45598409D01*
X159638050Y-45550705D01*
X159451056Y-45470459D01*
X159251741Y-45429500D01*
X157999258Y-45429500D01*
X157999257Y-45429500D01*
X157847560Y-45444925D01*
X157653420Y-45505837D01*
X157653405Y-45505844D01*
X157475500Y-45604589D01*
X157475495Y-45604592D01*
X157321106Y-45737132D01*
X157321104Y-45737134D01*
X157196554Y-45898037D01*
X157196553Y-45898040D01*
X157106940Y-46080728D01*
X157055937Y-46277714D01*
X157045631Y-46480936D01*
X157076442Y-46682063D01*
X157076445Y-46682075D01*
X157147111Y-46872881D01*
X157147113Y-46872884D01*
X157147114Y-46872887D01*
X157173493Y-46915209D01*
X157254745Y-47045567D01*
X157254747Y-47045569D01*
X157254748Y-47045571D01*
X157394941Y-47193053D01*
X157547600Y-47299307D01*
X157591379Y-47353760D01*
X157598767Y-47423238D01*
X157567421Y-47485681D01*
X157542354Y-47506313D01*
X157384432Y-47604745D01*
X157384427Y-47604749D01*
X157236949Y-47744938D01*
X157236948Y-47744940D01*
X157120705Y-47911949D01*
X157040459Y-48098943D01*
X156999500Y-48298258D01*
X156999500Y-52075500D01*
X156979815Y-52142539D01*
X156927011Y-52188294D01*
X156875500Y-52199500D01*
X156812717Y-52199500D01*
X156723637Y-52197243D01*
X156723628Y-52197243D01*
X156670636Y-52206741D01*
X156663254Y-52208064D01*
X156658595Y-52208718D01*
X156597564Y-52214925D01*
X156597562Y-52214926D01*
X156564780Y-52225210D01*
X156557156Y-52227081D01*
X156549308Y-52228488D01*
X156523349Y-52233141D01*
X156523341Y-52233143D01*
X156466382Y-52255895D01*
X156461946Y-52257474D01*
X156403415Y-52275840D01*
X156403412Y-52275841D01*
X156403410Y-52275842D01*
X156403403Y-52275845D01*
X156373384Y-52292507D01*
X156366290Y-52295876D01*
X156334390Y-52308619D01*
X156334388Y-52308619D01*
X156334383Y-52308622D01*
X156334377Y-52308626D01*
X156283154Y-52342383D01*
X156279126Y-52344824D01*
X156225502Y-52374588D01*
X156225499Y-52374590D01*
X156199427Y-52396970D01*
X156193160Y-52401695D01*
X156164482Y-52420598D01*
X156164475Y-52420603D01*
X156121116Y-52463962D01*
X156117661Y-52467164D01*
X156071106Y-52507132D01*
X156071105Y-52507133D01*
X156050076Y-52534300D01*
X156044884Y-52540194D01*
X155712181Y-52872898D01*
X155650858Y-52906383D01*
X155581167Y-52901399D01*
X155525233Y-52859528D01*
X155500816Y-52794063D01*
X155500500Y-52785217D01*
X155500500Y-46465783D01*
X155520185Y-46398744D01*
X155536819Y-46378102D01*
X156138538Y-45776383D01*
X156743340Y-45171581D01*
X156839698Y-45053407D01*
X156933909Y-44873049D01*
X156989886Y-44677418D01*
X157005337Y-44474524D01*
X157003911Y-44463328D01*
X156979631Y-44272678D01*
X156979630Y-44272676D01*
X156979630Y-44272672D01*
X156913816Y-44080128D01*
X156905852Y-44066600D01*
X156810593Y-43904778D01*
X156810592Y-43904777D01*
X156810590Y-43904773D01*
X156674179Y-43753787D01*
X156661754Y-43744663D01*
X156510171Y-43633353D01*
X156510164Y-43633349D01*
X156325274Y-43548397D01*
X156325261Y-43548392D01*
X156127053Y-43502397D01*
X155923638Y-43497244D01*
X155923635Y-43497244D01*
X155723350Y-43533140D01*
X155723345Y-43533142D01*
X155534383Y-43608623D01*
X155534371Y-43608629D01*
X155364482Y-43720596D01*
X154462181Y-44622897D01*
X154400858Y-44656382D01*
X154331166Y-44651398D01*
X154275233Y-44609526D01*
X154250816Y-44544062D01*
X154250500Y-44535216D01*
X154250500Y-43063705D01*
X154251809Y-43045735D01*
X154252223Y-43042905D01*
X154255289Y-43021977D01*
X154250735Y-42969933D01*
X154250500Y-42964532D01*
X154250500Y-42956297D01*
X154250500Y-42956291D01*
X154246691Y-42923707D01*
X154239998Y-42847202D01*
X154239996Y-42847197D01*
X154238538Y-42840133D01*
X154238597Y-42840120D01*
X154236967Y-42832764D01*
X154236908Y-42832779D01*
X154235242Y-42825753D01*
X154235241Y-42825745D01*
X154208973Y-42753573D01*
X154192103Y-42702661D01*
X154184815Y-42680666D01*
X154181763Y-42674121D01*
X154181817Y-42674095D01*
X154178533Y-42667312D01*
X154178480Y-42667340D01*
X154175238Y-42660886D01*
X154175237Y-42660883D01*
X154133038Y-42596723D01*
X154092712Y-42531344D01*
X154092711Y-42531343D01*
X154092710Y-42531341D01*
X154088234Y-42525681D01*
X154088280Y-42525643D01*
X154083519Y-42519799D01*
X154083474Y-42519838D01*
X154078834Y-42514308D01*
X154022982Y-42461613D01*
X152498541Y-40937172D01*
X152498502Y-40937135D01*
X152470890Y-40909523D01*
X152470889Y-40909522D01*
X152470888Y-40909521D01*
X152436492Y-40887909D01*
X152431019Y-40884043D01*
X152396681Y-40856891D01*
X152396677Y-40856889D01*
X152363131Y-40841245D01*
X152356351Y-40837553D01*
X152327692Y-40819545D01*
X152327691Y-40819544D01*
X152327690Y-40819544D01*
X152286141Y-40805005D01*
X152280424Y-40802678D01*
X152237673Y-40782743D01*
X152237671Y-40782742D01*
X152221103Y-40779321D01*
X152204738Y-40775942D01*
X152196807Y-40773746D01*
X152168059Y-40763687D01*
X152168057Y-40763686D01*
X152168052Y-40763685D01*
X152120964Y-40758380D01*
X152115366Y-40757488D01*
X152065865Y-40747267D01*
X152065857Y-40747266D01*
X152065856Y-40747266D01*
X152064013Y-40747319D01*
X152035643Y-40748144D01*
X152026893Y-40747780D01*
X152004892Y-40745302D01*
X152000000Y-40744751D01*
X151999999Y-40744751D01*
X151999995Y-40744751D01*
X151949549Y-40750435D01*
X151944411Y-40750798D01*
X151890490Y-40752368D01*
X151890485Y-40752369D01*
X151869051Y-40758112D01*
X151850851Y-40761556D01*
X151831938Y-40763687D01*
X151831935Y-40763688D01*
X151780817Y-40781575D01*
X151776387Y-40782941D01*
X151721028Y-40797775D01*
X151721024Y-40797776D01*
X151721024Y-40797777D01*
X151707615Y-40805007D01*
X151704714Y-40806571D01*
X151686829Y-40814462D01*
X151672312Y-40819542D01*
X151623591Y-40850155D01*
X151620030Y-40852230D01*
X151566607Y-40881036D01*
X151566596Y-40881043D01*
X151555483Y-40890933D01*
X151539034Y-40903285D01*
X151529119Y-40909515D01*
X151529107Y-40909525D01*
X151486043Y-40952589D01*
X151483420Y-40955064D01*
X151435543Y-40997671D01*
X151435535Y-40997680D01*
X151429102Y-41006867D01*
X151415222Y-41023409D01*
X151409525Y-41029106D01*
X151375307Y-41083561D01*
X151373599Y-41086134D01*
X151334910Y-41141391D01*
X151334907Y-41141397D01*
X151332118Y-41148416D01*
X151321886Y-41168581D01*
X151319549Y-41172301D01*
X151319540Y-41172318D01*
X151310225Y-41198942D01*
X151296764Y-41237410D01*
X151293363Y-41245972D01*
X151270139Y-41304428D01*
X151270138Y-41304434D01*
X151269575Y-41308279D01*
X151263930Y-41331243D01*
X151263686Y-41331937D01*
X151263686Y-41331938D01*
X151259067Y-41372940D01*
X151255614Y-41403583D01*
X151248924Y-41449258D01*
X151244710Y-41478027D01*
X151244730Y-41478247D01*
X151244546Y-41493044D01*
X151244751Y-41493044D01*
X151244751Y-41500004D01*
X151253171Y-41574736D01*
X151260000Y-41652796D01*
X151261460Y-41659864D01*
X151261211Y-41659915D01*
X151261542Y-41661414D01*
X151262139Y-41661278D01*
X151263685Y-41668053D01*
X151263686Y-41668058D01*
X151263687Y-41668059D01*
X151289561Y-41742003D01*
X151315186Y-41819334D01*
X151315187Y-41819336D01*
X151315189Y-41819341D01*
X151315298Y-41819574D01*
X151318107Y-41824707D01*
X151319543Y-41827691D01*
X151350131Y-41876369D01*
X151362871Y-41896644D01*
X151390266Y-41941060D01*
X151407287Y-41968655D01*
X151613634Y-42175002D01*
X151647119Y-42236325D01*
X151642135Y-42306017D01*
X151600263Y-42361950D01*
X151599999Y-42362148D01*
X151577571Y-42378844D01*
X151573533Y-42381609D01*
X151529106Y-42409525D01*
X151529104Y-42409526D01*
X151514360Y-42424271D01*
X151500733Y-42436048D01*
X151481468Y-42450391D01*
X151481466Y-42450393D01*
X151447887Y-42490411D01*
X151444232Y-42494399D01*
X151409527Y-42529104D01*
X151409520Y-42529112D01*
X151394218Y-42553465D01*
X151389214Y-42560335D01*
X151368698Y-42584786D01*
X151368695Y-42584790D01*
X151346771Y-42628445D01*
X151343861Y-42633608D01*
X151319544Y-42672307D01*
X151308922Y-42702661D01*
X151305806Y-42710012D01*
X151289959Y-42741567D01*
X151279472Y-42785813D01*
X151277664Y-42791994D01*
X151263687Y-42831936D01*
X151259706Y-42867258D01*
X151258425Y-42874616D01*
X151249500Y-42912280D01*
X151249500Y-42954369D01*
X151249110Y-42961309D01*
X151244751Y-43000000D01*
X151249110Y-43038690D01*
X151249500Y-43045629D01*
X151249500Y-48637769D01*
X151229815Y-48704808D01*
X151213181Y-48725450D01*
X145362358Y-54576272D01*
X145348729Y-54588051D01*
X145329468Y-54602390D01*
X145295898Y-54642397D01*
X145292253Y-54646376D01*
X145286409Y-54652222D01*
X145266059Y-54677959D01*
X145216695Y-54736789D01*
X145212729Y-54742819D01*
X145212682Y-54742788D01*
X145208630Y-54749147D01*
X145208679Y-54749177D01*
X145204889Y-54755321D01*
X145172424Y-54824941D01*
X145137960Y-54893566D01*
X145135488Y-54900357D01*
X145135432Y-54900336D01*
X145132960Y-54907450D01*
X145133015Y-54907469D01*
X145130742Y-54914327D01*
X145123690Y-54948481D01*
X145115207Y-54989565D01*
X145108216Y-55019064D01*
X145097498Y-55064286D01*
X145096661Y-55071454D01*
X145096601Y-55071447D01*
X145095835Y-55078945D01*
X145095895Y-55078951D01*
X145095265Y-55086140D01*
X145097500Y-55162916D01*
X145097500Y-55652298D01*
X145077815Y-55719337D01*
X145044625Y-55753872D01*
X144976595Y-55801507D01*
X144809505Y-55968597D01*
X144673965Y-56162169D01*
X144673964Y-56162171D01*
X144574098Y-56376335D01*
X144574094Y-56376344D01*
X144512938Y-56604586D01*
X144512936Y-56604596D01*
X144492341Y-56839999D01*
X144492341Y-56840000D01*
X144512936Y-57075403D01*
X144512938Y-57075413D01*
X144574094Y-57303655D01*
X144574096Y-57303659D01*
X144574097Y-57303663D01*
X144633382Y-57430799D01*
X144673965Y-57517830D01*
X144673967Y-57517834D01*
X144809501Y-57711395D01*
X144809506Y-57711402D01*
X144976597Y-57878493D01*
X144976603Y-57878498D01*
X145162158Y-58008425D01*
X145205783Y-58063002D01*
X145212977Y-58132500D01*
X145181454Y-58194855D01*
X145162158Y-58211575D01*
X144976597Y-58341505D01*
X144809505Y-58508597D01*
X144673965Y-58702169D01*
X144673964Y-58702171D01*
X144574098Y-58916335D01*
X144574094Y-58916344D01*
X144512938Y-59144586D01*
X144512936Y-59144596D01*
X144501955Y-59270097D01*
X144476501Y-59335166D01*
X144466108Y-59346969D01*
X142801531Y-61011547D01*
X142736946Y-61072942D01*
X142701899Y-61123294D01*
X142699062Y-61127056D01*
X142660302Y-61174592D01*
X142660299Y-61174597D01*
X142644392Y-61205047D01*
X142640324Y-61211761D01*
X142620702Y-61239954D01*
X142596509Y-61296330D01*
X142594488Y-61300584D01*
X142566091Y-61354951D01*
X142566090Y-61354952D01*
X142556640Y-61387975D01*
X142554007Y-61395371D01*
X142540455Y-61426952D01*
X142539474Y-61430081D01*
X142538469Y-61431582D01*
X142537982Y-61432718D01*
X142537770Y-61432627D01*
X142500619Y-61488150D01*
X142436537Y-61515994D01*
X142367575Y-61504773D01*
X142315626Y-61458049D01*
X142308782Y-61445356D01*
X142305331Y-61437956D01*
X142214035Y-61242171D01*
X142208425Y-61234158D01*
X142078494Y-61048597D01*
X141911402Y-60881506D01*
X141911396Y-60881501D01*
X141725842Y-60751575D01*
X141682217Y-60696998D01*
X141675023Y-60627500D01*
X141706546Y-60565145D01*
X141725842Y-60548425D01*
X141829992Y-60475498D01*
X141911401Y-60418495D01*
X142078495Y-60251401D01*
X142214035Y-60057830D01*
X142313903Y-59843663D01*
X142375063Y-59615408D01*
X142395659Y-59380000D01*
X142375063Y-59144592D01*
X142313903Y-58916337D01*
X142214035Y-58702171D01*
X142213239Y-58701033D01*
X142078494Y-58508597D01*
X141911402Y-58341506D01*
X141911395Y-58341501D01*
X141717834Y-58205967D01*
X141717830Y-58205965D01*
X141701500Y-58198350D01*
X141503663Y-58106097D01*
X141503659Y-58106096D01*
X141503655Y-58106094D01*
X141275413Y-58044938D01*
X141275403Y-58044936D01*
X141040001Y-58024341D01*
X141039999Y-58024341D01*
X140804596Y-58044936D01*
X140804586Y-58044938D01*
X140576344Y-58106094D01*
X140576335Y-58106098D01*
X140362171Y-58205964D01*
X140362169Y-58205965D01*
X140168597Y-58341505D01*
X140001505Y-58508597D01*
X139871575Y-58694158D01*
X139816998Y-58737783D01*
X139747500Y-58744977D01*
X139685145Y-58713454D01*
X139668425Y-58694158D01*
X139538494Y-58508597D01*
X139371402Y-58341506D01*
X139371395Y-58341501D01*
X139177834Y-58205967D01*
X139177830Y-58205965D01*
X139161500Y-58198350D01*
X138963663Y-58106097D01*
X138963659Y-58106096D01*
X138963655Y-58106094D01*
X138735413Y-58044938D01*
X138735403Y-58044936D01*
X138638884Y-58036491D01*
X138573816Y-58011038D01*
X138562012Y-58000644D01*
X135286819Y-54725451D01*
X135253334Y-54664128D01*
X135250500Y-54637770D01*
X135250500Y-49045629D01*
X135250889Y-49038690D01*
X135255249Y-49000000D01*
X135250872Y-48961158D01*
X135250589Y-48957841D01*
X135250500Y-48956310D01*
X135250500Y-48956291D01*
X135245617Y-48914522D01*
X135236313Y-48831941D01*
X135236312Y-48831939D01*
X135236295Y-48831785D01*
X135235294Y-48825969D01*
X135235241Y-48825747D01*
X135235241Y-48825745D01*
X135206851Y-48747743D01*
X135180456Y-48672310D01*
X135180453Y-48672306D01*
X135177460Y-48666090D01*
X135175415Y-48661240D01*
X135175239Y-48660890D01*
X135175237Y-48660883D01*
X135131317Y-48594107D01*
X135090479Y-48529112D01*
X135086136Y-48523667D01*
X135086459Y-48523408D01*
X135083519Y-48519799D01*
X135083474Y-48519838D01*
X135078834Y-48514309D01*
X135078832Y-48514307D01*
X135078830Y-48514304D01*
X135022964Y-48461597D01*
X134970890Y-48409523D01*
X134970887Y-48409521D01*
X134965446Y-48405182D01*
X134965450Y-48405176D01*
X134952708Y-48395313D01*
X134951220Y-48393909D01*
X134911270Y-48370844D01*
X134863054Y-48320277D01*
X134849832Y-48251670D01*
X134875800Y-48186805D01*
X134885570Y-48175796D01*
X135061591Y-47999776D01*
X135090477Y-47970890D01*
X135112091Y-47936489D01*
X135115950Y-47931026D01*
X135143111Y-47896677D01*
X135158747Y-47863144D01*
X135162437Y-47856364D01*
X135180456Y-47827690D01*
X135194997Y-47786130D01*
X135197315Y-47780436D01*
X135217257Y-47737672D01*
X135224056Y-47704740D01*
X135226256Y-47696798D01*
X135236313Y-47668059D01*
X135241619Y-47620954D01*
X135242506Y-47615380D01*
X135252734Y-47565855D01*
X135251855Y-47535643D01*
X135252218Y-47526892D01*
X135255249Y-47500000D01*
X135249562Y-47449535D01*
X135249199Y-47444404D01*
X135247631Y-47390487D01*
X135241889Y-47369061D01*
X135238442Y-47350844D01*
X135237548Y-47342908D01*
X135236313Y-47331941D01*
X135228389Y-47309295D01*
X135218423Y-47280813D01*
X135217057Y-47276383D01*
X135207727Y-47241566D01*
X135202223Y-47221024D01*
X135193423Y-47204705D01*
X135185536Y-47186829D01*
X135180456Y-47172310D01*
X135149842Y-47123590D01*
X135147769Y-47120033D01*
X135118959Y-47066600D01*
X135109069Y-47055487D01*
X135096706Y-47039023D01*
X135090477Y-47029110D01*
X135047391Y-46986024D01*
X135044944Y-46983430D01*
X135027132Y-46963414D01*
X135002327Y-46935540D01*
X134993131Y-46929101D01*
X134976576Y-46915209D01*
X134970892Y-46909525D01*
X134970890Y-46909523D01*
X134916445Y-46875312D01*
X134913877Y-46873608D01*
X134901934Y-46865245D01*
X134858309Y-46810669D01*
X134851115Y-46741170D01*
X134882637Y-46678816D01*
X134885301Y-46676064D01*
X135061590Y-46499777D01*
X135090477Y-46470890D01*
X135112101Y-46436473D01*
X135115944Y-46431032D01*
X135143111Y-46396677D01*
X135158753Y-46363130D01*
X135162438Y-46356363D01*
X135180456Y-46327690D01*
X135194999Y-46286126D01*
X135197310Y-46280445D01*
X135217257Y-46237673D01*
X135224057Y-46204735D01*
X135226251Y-46196811D01*
X135236313Y-46168059D01*
X135241620Y-46120945D01*
X135242507Y-46115375D01*
X135252733Y-46065856D01*
X135251853Y-46035644D01*
X135252216Y-46026910D01*
X135255249Y-46000000D01*
X135249562Y-45949529D01*
X135249199Y-45944401D01*
X135248894Y-45933909D01*
X135247631Y-45890488D01*
X135241889Y-45869062D01*
X135238442Y-45850845D01*
X135236313Y-45831941D01*
X135230186Y-45814432D01*
X135218424Y-45780816D01*
X135217056Y-45776383D01*
X135202224Y-45721027D01*
X135199068Y-45715174D01*
X135193428Y-45704714D01*
X135185534Y-45686822D01*
X135180456Y-45672310D01*
X135180455Y-45672307D01*
X135149845Y-45623593D01*
X135147768Y-45620031D01*
X135118959Y-45566600D01*
X135109069Y-45555487D01*
X135096706Y-45539023D01*
X135090477Y-45529110D01*
X135047393Y-45486026D01*
X135044935Y-45483420D01*
X135002327Y-45435542D01*
X135002326Y-45435541D01*
X134993133Y-45429104D01*
X134976581Y-45415214D01*
X134970892Y-45409525D01*
X134970890Y-45409523D01*
X134916439Y-45375308D01*
X134913870Y-45373603D01*
X134901931Y-45365243D01*
X134858307Y-45310665D01*
X134851116Y-45241167D01*
X134882640Y-45178813D01*
X134885301Y-45176064D01*
X135061591Y-44999776D01*
X135090477Y-44970890D01*
X135112107Y-44936464D01*
X135115936Y-44931043D01*
X135143111Y-44896677D01*
X135158753Y-44863130D01*
X135162438Y-44856363D01*
X135180456Y-44827690D01*
X135194999Y-44786126D01*
X135197310Y-44780445D01*
X135217257Y-44737673D01*
X135224056Y-44704740D01*
X135226255Y-44696800D01*
X135233036Y-44677423D01*
X135236313Y-44668059D01*
X135241619Y-44620962D01*
X135242511Y-44615361D01*
X135243716Y-44609526D01*
X135252734Y-44565855D01*
X135251855Y-44535643D01*
X135252218Y-44526892D01*
X135255249Y-44500000D01*
X135249562Y-44449535D01*
X135249199Y-44444404D01*
X135247631Y-44390487D01*
X135241889Y-44369061D01*
X135238442Y-44350844D01*
X135236313Y-44331941D01*
X135218423Y-44280813D01*
X135217057Y-44276383D01*
X135210376Y-44251452D01*
X135202223Y-44221024D01*
X135193423Y-44204705D01*
X135185536Y-44186829D01*
X135180456Y-44172310D01*
X135149842Y-44123590D01*
X135147769Y-44120033D01*
X135118959Y-44066600D01*
X135109069Y-44055487D01*
X135096706Y-44039023D01*
X135090477Y-44029110D01*
X135075824Y-44014457D01*
X135042339Y-43953134D01*
X135047323Y-43883442D01*
X135075824Y-43839095D01*
X135130094Y-43784825D01*
X135198468Y-43716451D01*
X135263053Y-43655059D01*
X135290619Y-43615453D01*
X135298099Y-43604706D01*
X135300938Y-43600941D01*
X135304612Y-43596435D01*
X135339698Y-43553407D01*
X135355601Y-43522960D01*
X135359674Y-43516239D01*
X135364489Y-43509320D01*
X135379295Y-43488049D01*
X135403492Y-43431660D01*
X135405498Y-43427435D01*
X135433909Y-43373049D01*
X135443357Y-43340022D01*
X135445988Y-43332633D01*
X135459540Y-43301058D01*
X135471895Y-43240930D01*
X135472999Y-43236429D01*
X135489886Y-43177418D01*
X135492494Y-43143157D01*
X135493585Y-43135389D01*
X135500500Y-43101743D01*
X135500500Y-43040398D01*
X135500679Y-43035688D01*
X135501723Y-43021974D01*
X135505337Y-42974524D01*
X135500997Y-42940442D01*
X135500500Y-42932603D01*
X135500500Y-41449256D01*
X135485074Y-41297560D01*
X135424162Y-41103420D01*
X135424160Y-41103416D01*
X135424159Y-41103412D01*
X135325409Y-40925498D01*
X135325408Y-40925497D01*
X135325407Y-40925495D01*
X135192867Y-40771106D01*
X135192865Y-40771104D01*
X135031962Y-40646554D01*
X135031956Y-40646551D01*
X135009076Y-40635328D01*
X134957556Y-40588132D01*
X134939731Y-40520574D01*
X134961261Y-40454104D01*
X135015309Y-40409825D01*
X135063684Y-40400000D01*
X152250000Y-40400000D01*
X152250000Y-39624500D01*
X152269685Y-39557461D01*
X152322489Y-39511706D01*
X152374000Y-39500500D01*
X162998378Y-39500500D01*
X163001619Y-39500584D01*
G37*
G04 #@! TD.AperFunction*
G04 #@! TA.AperFunction,Conductor*
G36*
X131705703Y-60767516D02*
G01*
X131712181Y-60773548D01*
X132424267Y-61485634D01*
X132436048Y-61499266D01*
X132450390Y-61518530D01*
X132490420Y-61552119D01*
X132494392Y-61555759D01*
X132500223Y-61561590D01*
X132500222Y-61561590D01*
X132525944Y-61581927D01*
X132547582Y-61600084D01*
X132586284Y-61658256D01*
X132587392Y-61728116D01*
X132585584Y-61734070D01*
X132534826Y-61887247D01*
X132534826Y-61887248D01*
X132534825Y-61887248D01*
X132524500Y-61988315D01*
X132524500Y-62886669D01*
X132524501Y-62886686D01*
X132534825Y-62987752D01*
X132589092Y-63151515D01*
X132589093Y-63151518D01*
X132596871Y-63164128D01*
X132679065Y-63297386D01*
X132679661Y-63298351D01*
X132793629Y-63412319D01*
X132827114Y-63473642D01*
X132822130Y-63543334D01*
X132793629Y-63587681D01*
X132679661Y-63701648D01*
X132589093Y-63848481D01*
X132589091Y-63848486D01*
X132564231Y-63923508D01*
X132534826Y-64012247D01*
X132534826Y-64012248D01*
X132534825Y-64012248D01*
X132524500Y-64113315D01*
X132524500Y-65011669D01*
X132524501Y-65011686D01*
X132534825Y-65112752D01*
X132560311Y-65189661D01*
X132589092Y-65276516D01*
X132679065Y-65422386D01*
X132679661Y-65423351D01*
X132713181Y-65456871D01*
X132746666Y-65518194D01*
X132749500Y-65544552D01*
X132749500Y-68444699D01*
X132729815Y-68511738D01*
X132677011Y-68557493D01*
X132664507Y-68562403D01*
X132631962Y-68573188D01*
X132580668Y-68590185D01*
X132580663Y-68590187D01*
X132431342Y-68682289D01*
X132307289Y-68806342D01*
X132215187Y-68955663D01*
X132215185Y-68955668D01*
X132187349Y-69039670D01*
X132160001Y-69122203D01*
X132160001Y-69122204D01*
X132160000Y-69122204D01*
X132149500Y-69224983D01*
X132149500Y-70775001D01*
X132149501Y-70775019D01*
X132158479Y-70862899D01*
X132145709Y-70931592D01*
X132097828Y-70982476D01*
X132035121Y-70999500D01*
X130965783Y-70999500D01*
X130898744Y-70979815D01*
X130878102Y-70963181D01*
X130002601Y-70087680D01*
X129969116Y-70026357D01*
X129974100Y-69956665D01*
X130002599Y-69912320D01*
X131198468Y-68716451D01*
X131263053Y-68655059D01*
X131298099Y-68604706D01*
X131300938Y-68600941D01*
X131309707Y-68590187D01*
X131339698Y-68553407D01*
X131355601Y-68522960D01*
X131359674Y-68516239D01*
X131367686Y-68504727D01*
X131379295Y-68488049D01*
X131403492Y-68431660D01*
X131405498Y-68427435D01*
X131433909Y-68373049D01*
X131443357Y-68340022D01*
X131445988Y-68332633D01*
X131459540Y-68301058D01*
X131471895Y-68240930D01*
X131472999Y-68236429D01*
X131489886Y-68177418D01*
X131492494Y-68143157D01*
X131493585Y-68135389D01*
X131500500Y-68101743D01*
X131500500Y-68040398D01*
X131500679Y-68035688D01*
X131505337Y-67974524D01*
X131500997Y-67940442D01*
X131500500Y-67932603D01*
X131500500Y-60861229D01*
X131520185Y-60794190D01*
X131572989Y-60748435D01*
X131642147Y-60738491D01*
X131705703Y-60767516D01*
G37*
G04 #@! TD.AperFunction*
G04 #@! TA.AperFunction,Conductor*
G36*
X134680702Y-64242516D02*
G01*
X134687180Y-64248548D01*
X137113181Y-66674548D01*
X137146666Y-66735871D01*
X137149500Y-66762229D01*
X137149500Y-67897870D01*
X137149501Y-67897876D01*
X137155908Y-67957483D01*
X137206202Y-68092328D01*
X137206206Y-68092335D01*
X137292452Y-68207544D01*
X137292455Y-68207547D01*
X137407664Y-68293793D01*
X137407671Y-68293797D01*
X137542517Y-68344091D01*
X137542516Y-68344091D01*
X137549444Y-68344835D01*
X137602127Y-68350500D01*
X139397872Y-68350499D01*
X139457483Y-68344091D01*
X139592331Y-68293796D01*
X139707546Y-68207546D01*
X139793796Y-68092331D01*
X139842810Y-67960916D01*
X139884681Y-67904984D01*
X139950145Y-67880566D01*
X140018418Y-67895417D01*
X140046673Y-67916569D01*
X140168599Y-68038495D01*
X140258924Y-68101741D01*
X140362165Y-68174032D01*
X140362167Y-68174033D01*
X140362170Y-68174035D01*
X140576337Y-68273903D01*
X140804592Y-68335063D01*
X140981034Y-68350500D01*
X141039999Y-68355659D01*
X141040000Y-68355659D01*
X141040001Y-68355659D01*
X141098966Y-68350500D01*
X141275408Y-68335063D01*
X141503663Y-68273903D01*
X141717830Y-68174035D01*
X141911401Y-68038495D01*
X142078495Y-67871401D01*
X142214035Y-67677830D01*
X142263118Y-67572570D01*
X142309290Y-67520131D01*
X142376483Y-67500979D01*
X142443365Y-67521195D01*
X142488699Y-67574360D01*
X142499500Y-67624975D01*
X142499500Y-69987283D01*
X142497243Y-70076362D01*
X142497243Y-70076370D01*
X142508064Y-70136739D01*
X142508718Y-70141404D01*
X142514925Y-70202430D01*
X142514927Y-70202444D01*
X142525208Y-70235213D01*
X142527079Y-70242837D01*
X142533142Y-70276652D01*
X142533142Y-70276655D01*
X142555894Y-70333612D01*
X142557474Y-70338051D01*
X142575841Y-70396588D01*
X142575844Y-70396595D01*
X142592509Y-70426619D01*
X142595879Y-70433714D01*
X142608622Y-70465614D01*
X142608627Y-70465624D01*
X142642377Y-70516833D01*
X142644818Y-70520863D01*
X142674588Y-70574498D01*
X142674589Y-70574499D01*
X142674591Y-70574502D01*
X142696968Y-70600567D01*
X142701693Y-70606835D01*
X142712763Y-70623631D01*
X142720598Y-70635519D01*
X142763978Y-70678899D01*
X142767169Y-70682343D01*
X142807131Y-70728892D01*
X142807130Y-70728892D01*
X142834299Y-70749923D01*
X142840186Y-70755107D01*
X142860080Y-70775001D01*
X142872898Y-70787819D01*
X142906383Y-70849142D01*
X142901399Y-70918834D01*
X142859527Y-70974767D01*
X142794063Y-70999184D01*
X142785217Y-70999500D01*
X134964879Y-70999500D01*
X134897840Y-70979815D01*
X134852085Y-70927011D01*
X134841521Y-70862897D01*
X134850500Y-70775009D01*
X134850499Y-69224992D01*
X134839999Y-69122203D01*
X134784814Y-68955666D01*
X134692712Y-68806344D01*
X134568656Y-68682288D01*
X134419334Y-68590186D01*
X134335495Y-68562404D01*
X134278051Y-68522632D01*
X134251228Y-68458116D01*
X134250500Y-68444699D01*
X134250500Y-65544552D01*
X134270185Y-65477513D01*
X134286819Y-65456871D01*
X134299191Y-65444499D01*
X134320340Y-65423350D01*
X134410908Y-65276516D01*
X134465174Y-65112753D01*
X134475500Y-65011677D01*
X134475499Y-64336228D01*
X134495183Y-64269190D01*
X134547987Y-64223435D01*
X134617146Y-64213491D01*
X134680702Y-64242516D01*
G37*
G04 #@! TD.AperFunction*
G04 #@! TA.AperFunction,Conductor*
G36*
X129418834Y-65427370D02*
G01*
X129474767Y-65469242D01*
X129499184Y-65534706D01*
X129499500Y-65543552D01*
X129499500Y-67534217D01*
X129479815Y-67601256D01*
X129463181Y-67621898D01*
X129462181Y-67622898D01*
X129400858Y-67656383D01*
X129331166Y-67651399D01*
X129275233Y-67609527D01*
X129250816Y-67544063D01*
X129250500Y-67535217D01*
X129250500Y-65544552D01*
X129270185Y-65477513D01*
X129286819Y-65456871D01*
X129287819Y-65455871D01*
X129349142Y-65422386D01*
X129418834Y-65427370D01*
G37*
G04 #@! TD.AperFunction*
M02*
