G04 #@! TF.GenerationSoftware,KiCad,Pcbnew,7.0.9*
G04 #@! TF.CreationDate,2024-07-28T13:17:23+09:00*
G04 #@! TF.ProjectId,esp32ble_module,65737033-3262-46c6-955f-6d6f64756c65,rev?*
G04 #@! TF.SameCoordinates,Original*
G04 #@! TF.FileFunction,Soldermask,Top*
G04 #@! TF.FilePolarity,Negative*
%FSLAX46Y46*%
G04 Gerber Fmt 4.6, Leading zero omitted, Abs format (unit mm)*
G04 Created by KiCad (PCBNEW 7.0.9) date 2024-07-28 13:17:23*
%MOMM*%
%LPD*%
G01*
G04 APERTURE LIST*
G04 Aperture macros list*
%AMRoundRect*
0 Rectangle with rounded corners*
0 $1 Rounding radius*
0 $2 $3 $4 $5 $6 $7 $8 $9 X,Y pos of 4 corners*
0 Add a 4 corners polygon primitive as box body*
4,1,4,$2,$3,$4,$5,$6,$7,$8,$9,$2,$3,0*
0 Add four circle primitives for the rounded corners*
1,1,$1+$1,$2,$3*
1,1,$1+$1,$4,$5*
1,1,$1+$1,$6,$7*
1,1,$1+$1,$8,$9*
0 Add four rect primitives between the rounded corners*
20,1,$1+$1,$2,$3,$4,$5,0*
20,1,$1+$1,$4,$5,$6,$7,0*
20,1,$1+$1,$6,$7,$8,$9,0*
20,1,$1+$1,$8,$9,$2,$3,0*%
G04 Aperture macros list end*
%ADD10RoundRect,0.237500X0.400000X0.237500X-0.400000X0.237500X-0.400000X-0.237500X0.400000X-0.237500X0*%
%ADD11RoundRect,0.237500X0.387500X0.237500X-0.387500X0.237500X-0.387500X-0.237500X0.387500X-0.237500X0*%
%ADD12R,0.900000X1.500000*%
%ADD13R,1.700000X1.700000*%
%ADD14O,1.700000X1.700000*%
%ADD15R,1.500000X1.000000*%
%ADD16RoundRect,0.237500X0.237500X-0.387500X0.237500X0.387500X-0.237500X0.387500X-0.237500X-0.387500X0*%
%ADD17RoundRect,0.292875X-0.394625X-0.432125X0.394625X-0.432125X0.394625X0.432125X-0.394625X0.432125X0*%
%ADD18RoundRect,0.237500X-0.387500X-0.237500X0.387500X-0.237500X0.387500X0.237500X-0.387500X0.237500X0*%
%ADD19C,0.650000*%
%ADD20R,1.240000X0.600000*%
%ADD21R,1.240000X0.300000*%
%ADD22O,2.100000X1.000000*%
%ADD23O,1.800000X1.000000*%
%ADD24RoundRect,0.250000X0.600000X0.725000X-0.600000X0.725000X-0.600000X-0.725000X0.600000X-0.725000X0*%
%ADD25O,1.700000X1.950000*%
%ADD26R,0.700000X0.700000*%
%ADD27R,1.500000X0.900000*%
%ADD28RoundRect,0.237500X-0.400000X-0.237500X0.400000X-0.237500X0.400000X0.237500X-0.400000X0.237500X0*%
G04 APERTURE END LIST*
D10*
X132500000Y-50500000D03*
X130375000Y-50500000D03*
D11*
X128000000Y-59500000D03*
X126050000Y-59500000D03*
D12*
X161350000Y-62450000D03*
X164650000Y-62450000D03*
X164650000Y-57550000D03*
X161350000Y-57550000D03*
D13*
X145848000Y-69540000D03*
D14*
X148388000Y-69540000D03*
X145848000Y-67000000D03*
X148388000Y-67000000D03*
X145848000Y-64460000D03*
X148388000Y-64460000D03*
X145848000Y-61920000D03*
X148388000Y-61920000D03*
X145848000Y-59380000D03*
X148388000Y-59380000D03*
X145848000Y-56840000D03*
X148388000Y-56840000D03*
D15*
X159300000Y-43250000D03*
X159300000Y-40750000D03*
X154700000Y-43250000D03*
X154700000Y-40750000D03*
D11*
X128000000Y-53500000D03*
X126050000Y-53500000D03*
X128000000Y-57500000D03*
X126050000Y-57500000D03*
D16*
X133500000Y-64475000D03*
X133500000Y-62525000D03*
D13*
X138500000Y-67000000D03*
D14*
X141040000Y-67000000D03*
X138500000Y-64460000D03*
X141040000Y-64460000D03*
X138500000Y-61920000D03*
X141040000Y-61920000D03*
X138500000Y-59380000D03*
X141040000Y-59380000D03*
X138500000Y-56840000D03*
X141040000Y-56840000D03*
D17*
X156000000Y-64000000D03*
X158275000Y-64000000D03*
D18*
X151025000Y-56000000D03*
X152975000Y-56000000D03*
D11*
X128000000Y-55500000D03*
X126050000Y-55500000D03*
D19*
X159120000Y-53640000D03*
X159120000Y-47860000D03*
D20*
X158000000Y-53950000D03*
X158000000Y-53150000D03*
D21*
X158000000Y-52000000D03*
X158000000Y-51000000D03*
X158000000Y-50500000D03*
X158000000Y-49500000D03*
D20*
X158000000Y-48350000D03*
X158000000Y-47550000D03*
X158000000Y-47550000D03*
X158000000Y-48350000D03*
D21*
X158000000Y-49000000D03*
X158000000Y-50000000D03*
X158000000Y-51500000D03*
X158000000Y-52500000D03*
D20*
X158000000Y-53150000D03*
X158000000Y-53950000D03*
D22*
X158600000Y-55070000D03*
D23*
X162800000Y-55070000D03*
D22*
X158600000Y-46430000D03*
D23*
X162800000Y-46430000D03*
D24*
X133500000Y-70000000D03*
D25*
X131000000Y-70000000D03*
X128500000Y-70000000D03*
D26*
X145310000Y-48800000D03*
X145310000Y-47700000D03*
X145310000Y-46600000D03*
X144160000Y-48800000D03*
X144160000Y-47700000D03*
X144160000Y-46600000D03*
X143110000Y-48800000D03*
X143110000Y-47700000D03*
X143110000Y-46600000D03*
D27*
X152000000Y-41500000D03*
X152000000Y-43000000D03*
X152000000Y-44500000D03*
X152000000Y-46000000D03*
X152000000Y-47500000D03*
X152000000Y-49000000D03*
X152000000Y-50500000D03*
X152000000Y-52000000D03*
X152000000Y-53500000D03*
X134500000Y-53500000D03*
X134500000Y-52000000D03*
X134500000Y-50500000D03*
X134500000Y-49000000D03*
X134500000Y-47500000D03*
X134500000Y-46000000D03*
X134500000Y-44500000D03*
X134500000Y-43000000D03*
X134500000Y-41500000D03*
D18*
X151025000Y-60000000D03*
X152975000Y-60000000D03*
D17*
X156000000Y-66000000D03*
X158275000Y-66000000D03*
D18*
X151025000Y-62000000D03*
X152975000Y-62000000D03*
D17*
X129725000Y-47000000D03*
X132000000Y-47000000D03*
D28*
X153937500Y-44500000D03*
X156062500Y-44500000D03*
D15*
X127200000Y-40750000D03*
X127200000Y-43250000D03*
X131800000Y-40750000D03*
X131800000Y-43250000D03*
D16*
X128500000Y-62525000D03*
X128500000Y-64475000D03*
D17*
X129725000Y-45000000D03*
X132000000Y-45000000D03*
D18*
X152975000Y-58000000D03*
X151025000Y-58000000D03*
M02*
