G04 #@! TF.GenerationSoftware,KiCad,Pcbnew,7.0.9*
G04 #@! TF.CreationDate,2024-03-07T02:36:32+09:00*
G04 #@! TF.ProjectId,Driving_power_board_S_ver1.5,44726976-696e-4675-9f70-6f7765725f62,rev?*
G04 #@! TF.SameCoordinates,Original*
G04 #@! TF.FileFunction,Paste,Bot*
G04 #@! TF.FilePolarity,Positive*
%FSLAX46Y46*%
G04 Gerber Fmt 4.6, Leading zero omitted, Abs format (unit mm)*
G04 Created by KiCad (PCBNEW 7.0.9) date 2024-03-07 02:36:32*
%MOMM*%
%LPD*%
G01*
G04 APERTURE LIST*
G04 Aperture macros list*
%AMRoundRect*
0 Rectangle with rounded corners*
0 $1 Rounding radius*
0 $2 $3 $4 $5 $6 $7 $8 $9 X,Y pos of 4 corners*
0 Add a 4 corners polygon primitive as box body*
4,1,4,$2,$3,$4,$5,$6,$7,$8,$9,$2,$3,0*
0 Add four circle primitives for the rounded corners*
1,1,$1+$1,$2,$3*
1,1,$1+$1,$4,$5*
1,1,$1+$1,$6,$7*
1,1,$1+$1,$8,$9*
0 Add four rect primitives between the rounded corners*
20,1,$1+$1,$2,$3,$4,$5,0*
20,1,$1+$1,$4,$5,$6,$7,0*
20,1,$1+$1,$6,$7,$8,$9,0*
20,1,$1+$1,$8,$9,$2,$3,0*%
G04 Aperture macros list end*
%ADD10RoundRect,0.130000X0.370000X-0.130000X0.370000X0.130000X-0.370000X0.130000X-0.370000X-0.130000X0*%
%ADD11RoundRect,0.142500X0.357500X-0.142500X0.357500X0.142500X-0.357500X0.142500X-0.357500X-0.142500X0*%
%ADD12RoundRect,0.162500X0.162500X-0.687500X0.162500X0.687500X-0.162500X0.687500X-0.162500X-0.687500X0*%
%ADD13RoundRect,0.225000X0.225000X0.375000X-0.225000X0.375000X-0.225000X-0.375000X0.225000X-0.375000X0*%
%ADD14RoundRect,0.250000X0.450000X-0.350000X0.450000X0.350000X-0.450000X0.350000X-0.450000X-0.350000X0*%
%ADD15RoundRect,0.250000X-0.350000X-0.450000X0.350000X-0.450000X0.350000X0.450000X-0.350000X0.450000X0*%
%ADD16RoundRect,0.250000X0.350000X0.450000X-0.350000X0.450000X-0.350000X-0.450000X0.350000X-0.450000X0*%
%ADD17RoundRect,0.250000X-0.475000X0.337500X-0.475000X-0.337500X0.475000X-0.337500X0.475000X0.337500X0*%
%ADD18RoundRect,0.225000X-2.025000X2.025000X-2.025000X-2.025000X2.025000X-2.025000X2.025000X2.025000X0*%
G04 APERTURE END LIST*
D10*
X167160000Y-94210000D03*
D11*
X167160000Y-92710000D03*
D10*
X167160000Y-91210000D03*
D12*
X170485000Y-92710000D03*
D13*
X143890000Y-76980000D03*
X140590000Y-76980000D03*
D14*
X164211000Y-93694000D03*
X164211000Y-91694000D03*
D15*
X180245000Y-88900000D03*
X182245000Y-88900000D03*
X124492000Y-86360000D03*
X126492000Y-86360000D03*
D16*
X182245000Y-81280000D03*
X180245000Y-81280000D03*
D17*
X151638000Y-68580000D03*
X151638000Y-70655000D03*
D16*
X105394000Y-77470000D03*
X103394000Y-77470000D03*
D18*
X111506000Y-89227500D03*
X111506000Y-95727500D03*
D15*
X124476000Y-90932000D03*
X126476000Y-90932000D03*
D16*
X175258000Y-78740000D03*
X173258000Y-78740000D03*
G36*
X113176239Y-67075685D02*
G01*
X113221994Y-67128489D01*
X113233200Y-67180000D01*
X113233200Y-91570000D01*
X113213515Y-91637039D01*
X113160711Y-91682794D01*
X113109200Y-91694000D01*
X110156800Y-91694000D01*
X110089761Y-91674315D01*
X110044006Y-91621511D01*
X110032800Y-91570000D01*
X110032800Y-67180000D01*
X110052485Y-67112961D01*
X110105289Y-67067206D01*
X110156800Y-67056000D01*
X113109200Y-67056000D01*
X113176239Y-67075685D01*
G37*
G36*
X126689039Y-66952685D02*
G01*
X126734794Y-67005489D01*
X126746000Y-67057000D01*
X126746000Y-67183000D01*
X148466000Y-67183000D01*
X148533039Y-67202685D01*
X148578794Y-67255489D01*
X148590000Y-67307000D01*
X148590000Y-69853000D01*
X148570315Y-69920039D01*
X148517511Y-69965794D01*
X148466000Y-69977000D01*
X126746000Y-69977000D01*
X126746000Y-70103000D01*
X126726315Y-70170039D01*
X126673511Y-70215794D01*
X126622000Y-70227000D01*
X123314000Y-70227000D01*
X123246961Y-70207315D01*
X123201206Y-70154511D01*
X123190000Y-70103000D01*
X123190000Y-69977000D01*
X122933000Y-69977000D01*
X122865961Y-69957315D01*
X122820206Y-69904511D01*
X122809000Y-69853000D01*
X122809000Y-67307000D01*
X122828685Y-67239961D01*
X122881489Y-67194206D01*
X122933000Y-67183000D01*
X123190000Y-67183000D01*
X123190000Y-67057000D01*
X123209685Y-66989961D01*
X123262489Y-66944206D01*
X123314000Y-66933000D01*
X126622000Y-66933000D01*
X126689039Y-66952685D01*
G37*
G36*
X150565039Y-114323685D02*
G01*
X150610794Y-114376489D01*
X150622000Y-114428000D01*
X150622000Y-114554000D01*
X151133000Y-114554000D01*
X151200039Y-114573685D01*
X151245794Y-114626489D01*
X151257000Y-114678000D01*
X151257000Y-117478000D01*
X151237315Y-117545039D01*
X151184511Y-117590794D01*
X151133000Y-117602000D01*
X150622000Y-117602000D01*
X150622000Y-117728000D01*
X150602315Y-117795039D01*
X150549511Y-117840794D01*
X150498000Y-117852000D01*
X147698000Y-117852000D01*
X147630961Y-117832315D01*
X147585206Y-117779511D01*
X147574000Y-117728000D01*
X147574000Y-117602000D01*
X109217000Y-117602000D01*
X109149961Y-117582315D01*
X109104206Y-117529511D01*
X109093000Y-117478000D01*
X109093000Y-114678000D01*
X109112685Y-114610961D01*
X109165489Y-114565206D01*
X109217000Y-114554000D01*
X147574000Y-114554000D01*
X147574000Y-114428000D01*
X147593685Y-114360961D01*
X147646489Y-114315206D01*
X147698000Y-114304000D01*
X150498000Y-114304000D01*
X150565039Y-114323685D01*
G37*
G36*
X126689039Y-66821685D02*
G01*
X126734794Y-66874489D01*
X126746000Y-66926000D01*
X126746000Y-67183000D01*
X126872000Y-67183000D01*
X126939039Y-67202685D01*
X126984794Y-67255489D01*
X126996000Y-67307000D01*
X126996000Y-69853000D01*
X126976315Y-69920039D01*
X126923511Y-69965794D01*
X126872000Y-69977000D01*
X126746000Y-69977000D01*
X126746000Y-82553000D01*
X126726315Y-82620039D01*
X126673511Y-82665794D01*
X126622000Y-82677000D01*
X123314000Y-82677000D01*
X123246961Y-82657315D01*
X123201206Y-82604511D01*
X123190000Y-82553000D01*
X123190000Y-69977000D01*
X123064000Y-69977000D01*
X122996961Y-69957315D01*
X122951206Y-69904511D01*
X122940000Y-69853000D01*
X122940000Y-67307000D01*
X122959685Y-67239961D01*
X123012489Y-67194206D01*
X123064000Y-67183000D01*
X123190000Y-67183000D01*
X123190000Y-66926000D01*
X123209685Y-66858961D01*
X123262489Y-66813206D01*
X123314000Y-66802000D01*
X126622000Y-66802000D01*
X126689039Y-66821685D01*
G37*
G36*
X150565039Y-85109685D02*
G01*
X150610794Y-85162489D01*
X150622000Y-85214000D01*
X150622000Y-114554000D01*
X150748000Y-114554000D01*
X150815039Y-114573685D01*
X150860794Y-114626489D01*
X150872000Y-114678000D01*
X150872000Y-117478000D01*
X150852315Y-117545039D01*
X150799511Y-117590794D01*
X150748000Y-117602000D01*
X150622000Y-117602000D01*
X150622000Y-118240000D01*
X150602315Y-118307039D01*
X150549511Y-118352794D01*
X150498000Y-118364000D01*
X147698000Y-118364000D01*
X147630961Y-118344315D01*
X147585206Y-118291511D01*
X147574000Y-118240000D01*
X147574000Y-117602000D01*
X147448000Y-117602000D01*
X147380961Y-117582315D01*
X147335206Y-117529511D01*
X147324000Y-117478000D01*
X147324000Y-114678000D01*
X147343685Y-114610961D01*
X147396489Y-114565206D01*
X147448000Y-114554000D01*
X147574000Y-114554000D01*
X147574000Y-87884000D01*
X140332000Y-87884000D01*
X140264961Y-87864315D01*
X140219206Y-87811511D01*
X140208000Y-87760000D01*
X140208000Y-85214000D01*
X140227685Y-85146961D01*
X140280489Y-85101206D01*
X140332000Y-85090000D01*
X150498000Y-85090000D01*
X150565039Y-85109685D01*
G37*
G36*
X113100039Y-93491685D02*
G01*
X113145794Y-93544489D01*
X113157000Y-93596000D01*
X113157000Y-107442000D01*
X113283000Y-107442000D01*
X113350039Y-107461685D01*
X113395794Y-107514489D01*
X113407000Y-107566000D01*
X113407000Y-109858000D01*
X113387315Y-109925039D01*
X113334511Y-109970794D01*
X113283000Y-109982000D01*
X113157000Y-109982000D01*
X113157000Y-112144000D01*
X113137315Y-112211039D01*
X113084511Y-112256794D01*
X113033000Y-112268000D01*
X109979000Y-112268000D01*
X109911961Y-112248315D01*
X109866206Y-112195511D01*
X109855000Y-112144000D01*
X109855000Y-109982000D01*
X109729000Y-109982000D01*
X109661961Y-109962315D01*
X109616206Y-109909511D01*
X109605000Y-109858000D01*
X109605000Y-107566000D01*
X109624685Y-107498961D01*
X109677489Y-107453206D01*
X109729000Y-107442000D01*
X109855000Y-107442000D01*
X109855000Y-93596000D01*
X109874685Y-93528961D01*
X109927489Y-93483206D01*
X109979000Y-93472000D01*
X113033000Y-93472000D01*
X113100039Y-93491685D01*
G37*
G36*
X113100039Y-107211685D02*
G01*
X113145794Y-107264489D01*
X113157000Y-107316000D01*
X113157000Y-107442000D01*
X144656000Y-107442000D01*
X144723039Y-107461685D01*
X144768794Y-107514489D01*
X144780000Y-107566000D01*
X144780000Y-109858000D01*
X144760315Y-109925039D01*
X144707511Y-109970794D01*
X144656000Y-109982000D01*
X113157000Y-109982000D01*
X113157000Y-110108000D01*
X113137315Y-110175039D01*
X113084511Y-110220794D01*
X113033000Y-110232000D01*
X109979000Y-110232000D01*
X109911961Y-110212315D01*
X109866206Y-110159511D01*
X109855000Y-110108000D01*
X109855000Y-109982000D01*
X108836000Y-109982000D01*
X108768961Y-109962315D01*
X108723206Y-109909511D01*
X108712000Y-109858000D01*
X108712000Y-107566000D01*
X108731685Y-107498961D01*
X108784489Y-107453206D01*
X108836000Y-107442000D01*
X109855000Y-107442000D01*
X109855000Y-107316000D01*
X109874685Y-107248961D01*
X109927489Y-107203206D01*
X109979000Y-107192000D01*
X113033000Y-107192000D01*
X113100039Y-107211685D01*
G37*
M02*
