G04 #@! TF.GenerationSoftware,KiCad,Pcbnew,7.0.9*
G04 #@! TF.CreationDate,2024-03-07T02:36:33+09:00*
G04 #@! TF.ProjectId,Driving_power_board_S_ver1.5,44726976-696e-4675-9f70-6f7765725f62,rev?*
G04 #@! TF.SameCoordinates,Original*
G04 #@! TF.FileFunction,Soldermask,Top*
G04 #@! TF.FilePolarity,Negative*
%FSLAX46Y46*%
G04 Gerber Fmt 4.6, Leading zero omitted, Abs format (unit mm)*
G04 Created by KiCad (PCBNEW 7.0.9) date 2024-03-07 02:36:33*
%MOMM*%
%LPD*%
G01*
G04 APERTURE LIST*
G04 Aperture macros list*
%AMRoundRect*
0 Rectangle with rounded corners*
0 $1 Rounding radius*
0 $2 $3 $4 $5 $6 $7 $8 $9 X,Y pos of 4 corners*
0 Add a 4 corners polygon primitive as box body*
4,1,4,$2,$3,$4,$5,$6,$7,$8,$9,$2,$3,0*
0 Add four circle primitives for the rounded corners*
1,1,$1+$1,$2,$3*
1,1,$1+$1,$4,$5*
1,1,$1+$1,$6,$7*
1,1,$1+$1,$8,$9*
0 Add four rect primitives between the rounded corners*
20,1,$1+$1,$2,$3,$4,$5,0*
20,1,$1+$1,$4,$5,$6,$7,0*
20,1,$1+$1,$6,$7,$8,$9,0*
20,1,$1+$1,$8,$9,$2,$3,0*%
G04 Aperture macros list end*
%ADD10RoundRect,0.750000X-2.250000X-0.750000X2.250000X-0.750000X2.250000X0.750000X-2.250000X0.750000X0*%
%ADD11R,1.300000X0.800000*%
%ADD12RoundRect,0.237500X0.287500X0.237500X-0.287500X0.237500X-0.287500X-0.237500X0.287500X-0.237500X0*%
%ADD13RoundRect,0.875000X-0.875000X-5.125000X0.875000X-5.125000X0.875000X5.125000X-0.875000X5.125000X0*%
%ADD14RoundRect,0.775000X-0.775000X-3.625000X0.775000X-3.625000X0.775000X3.625000X-0.775000X3.625000X0*%
%ADD15RoundRect,0.875000X-5.125000X-0.875000X5.125000X-0.875000X5.125000X0.875000X-5.125000X0.875000X0*%
%ADD16R,6.000000X3.000000*%
%ADD17R,3.000000X6.200000*%
%ADD18R,1.700000X1.700000*%
%ADD19O,1.700000X1.700000*%
%ADD20RoundRect,0.250000X-0.750000X0.600000X-0.750000X-0.600000X0.750000X-0.600000X0.750000X0.600000X0*%
%ADD21O,2.000000X1.700000*%
%ADD22R,1.800000X1.800000*%
%ADD23C,1.800000*%
%ADD24C,1.524000*%
%ADD25RoundRect,0.237500X-0.287500X-0.237500X0.287500X-0.237500X0.287500X0.237500X-0.287500X0.237500X0*%
%ADD26C,1.000000*%
%ADD27C,5.600000*%
%ADD28R,2.000000X2.000000*%
%ADD29C,2.000000*%
%ADD30O,1.700000X1.500000*%
%ADD31C,2.400000*%
%ADD32O,1.524000X1.800000*%
%ADD33RoundRect,0.250000X-0.475000X0.337500X-0.475000X-0.337500X0.475000X-0.337500X0.475000X0.337500X0*%
%ADD34RoundRect,0.625000X-0.875000X-0.625000X0.875000X-0.625000X0.875000X0.625000X-0.875000X0.625000X0*%
%ADD35C,1.600000*%
G04 APERTURE END LIST*
D10*
X103950000Y-101000000D03*
D11*
X180975000Y-85725000D03*
X180975000Y-83185000D03*
X174625000Y-83185000D03*
X174625000Y-84455000D03*
X174625000Y-85725000D03*
D10*
X103950000Y-84000000D03*
D12*
X126351000Y-90932000D03*
X124601000Y-90932000D03*
D13*
X142240000Y-86480000D03*
D14*
X150640000Y-76980000D03*
X133840000Y-76980000D03*
D15*
X142240000Y-68580000D03*
D16*
X122428000Y-116078000D03*
D17*
X121666000Y-108839000D03*
D18*
X185420000Y-76200000D03*
D19*
X187960000Y-76200000D03*
D20*
X187960000Y-105450000D03*
D21*
X187960000Y-107950000D03*
D22*
X155448000Y-116586000D03*
D23*
X157988000Y-116586000D03*
X160528000Y-116586000D03*
X163068000Y-116586000D03*
X165608000Y-116586000D03*
D16*
X142748000Y-116078000D03*
D17*
X141986000Y-108839000D03*
D16*
X132588000Y-116078000D03*
D17*
X131826000Y-108839000D03*
D12*
X126367000Y-86360000D03*
X124617000Y-86360000D03*
D16*
X112268000Y-116078000D03*
D17*
X111506000Y-108839000D03*
D24*
X163068000Y-87376000D03*
X160528000Y-89916000D03*
X157988000Y-87376000D03*
D25*
X103519000Y-77470000D03*
X105269000Y-77470000D03*
D20*
X187960000Y-82630000D03*
D21*
X187960000Y-85130000D03*
D12*
X182120000Y-88900000D03*
X180370000Y-88900000D03*
D10*
X175322000Y-116205000D03*
D26*
X102800000Y-115000000D03*
X103444370Y-113444370D03*
X103444370Y-116555630D03*
X105000000Y-112800000D03*
D27*
X105000000Y-115000000D03*
D26*
X105000000Y-117200000D03*
X106555630Y-113444370D03*
X106555630Y-116555630D03*
X107200000Y-115000000D03*
D28*
X159903000Y-73470000D03*
D29*
X167503000Y-73470000D03*
D20*
X187960000Y-94060000D03*
D21*
X187960000Y-96560000D03*
D26*
X183800000Y-70000000D03*
X184444370Y-68444370D03*
X184444370Y-71555630D03*
X186000000Y-67800000D03*
D27*
X186000000Y-70000000D03*
D26*
X186000000Y-72200000D03*
X187555630Y-68444370D03*
X187555630Y-71555630D03*
X188200000Y-70000000D03*
D30*
X168402000Y-96520000D03*
X170942000Y-96520000D03*
X173482000Y-96520000D03*
X176022000Y-96520000D03*
X176022000Y-88900000D03*
X173482000Y-88900000D03*
X170942000Y-88900000D03*
X168402000Y-88900000D03*
D31*
X154752000Y-106045000D03*
D32*
X173752000Y-99045000D03*
X177752000Y-99045000D03*
D31*
X180752000Y-106045000D03*
D33*
X111506000Y-91440000D03*
X111506000Y-93515000D03*
D34*
X111506000Y-68580000D03*
X111506000Y-71980000D03*
X125006000Y-68580000D03*
X125006000Y-71980000D03*
D25*
X173383000Y-78740000D03*
X175133000Y-78740000D03*
D34*
X111506000Y-77500000D03*
X111506000Y-80900000D03*
X125006000Y-77500000D03*
X125006000Y-80900000D03*
D26*
X183800000Y-115000000D03*
X184444370Y-113444370D03*
X184444370Y-116555630D03*
X186000000Y-112800000D03*
D27*
X186000000Y-115000000D03*
D26*
X186000000Y-117200000D03*
X187555630Y-113444370D03*
X187555630Y-116555630D03*
X188200000Y-115000000D03*
X102800000Y-70000000D03*
X103444370Y-68444370D03*
X103444370Y-71555630D03*
X105000000Y-67800000D03*
D27*
X105000000Y-70000000D03*
D26*
X105000000Y-72200000D03*
X106555630Y-68444370D03*
X106555630Y-71555630D03*
X107200000Y-70000000D03*
D18*
X163068000Y-97536000D03*
D19*
X160528000Y-97536000D03*
X157988000Y-97536000D03*
D35*
X111506000Y-89227500D03*
X111506000Y-95727500D03*
M02*
