M48
; DRILL file {KiCad 7.0.9} date Thu Mar  7 02:37:04 2024
; FORMAT={-:-/ absolute / metric / decimal}
; #@! TF.CreationDate,2024-03-07T02:37:04+09:00
; #@! TF.GenerationSoftware,Kicad,Pcbnew,7.0.9
; #@! TF.FileFunction,MixedPlating,1,2
FMAT,2
METRIC
; #@! TA.AperFunction,Plated,PTH,ViaDrill
T1C0.300
; #@! TA.AperFunction,Plated,PTH,ComponentDrill
T2C0.300
; #@! TA.AperFunction,Plated,PTH,ComponentDrill
T3C0.762
; #@! TA.AperFunction,Plated,PTH,ComponentDrill
T4C0.800
; #@! TA.AperFunction,Plated,PTH,ComponentDrill
T5C1.000
; #@! TA.AperFunction,Plated,PTH,ComponentDrill
T6C1.100
; #@! TA.AperFunction,Plated,PTH,ComponentDrill
T7C1.500
; #@! TA.AperFunction,Plated,PTH,ComponentDrill
T8C1.800
; #@! TA.AperFunction,Plated,PTH,ComponentDrill
T9C2.300
; #@! TA.AperFunction,Plated,PTH,ComponentDrill
T10C3.200
%
G90
G05
T1
X100.965Y-70.485
X100.965Y-73.025
X100.965Y-75.565
X100.965Y-78.105
X100.965Y-80.645
X100.965Y-88.265
X100.965Y-90.805
X100.965Y-93.345
X100.965Y-95.885
X100.965Y-98.425
X100.965Y-103.505
X100.965Y-106.045
X100.965Y-108.585
X100.965Y-111.125
X100.965Y-113.665
X105.41Y-77.47
X105.41Y-119.38
X106.68Y-65.405
X107.95Y-119.38
X108.966Y-114.046
X108.966Y-118.186
X109.22Y-65.405
X109.22Y-99.06
X109.22Y-101.6
X109.22Y-104.14
X109.22Y-106.68
X109.22Y-110.49
X109.423Y-66.548
X109.423Y-70.612
X109.423Y-74.676
X109.423Y-78.74
X109.423Y-82.804
X109.423Y-86.36
X110.49Y-119.38
X110.806Y-91.078
X110.806Y-93.877
X111.76Y-65.405
X112.206Y-91.078
X112.206Y-93.877
X113.03Y-114.046
X113.03Y-118.186
X113.03Y-119.38
X113.665Y-66.548
X113.665Y-70.612
X113.665Y-74.676
X113.665Y-78.74
X113.665Y-82.804
X113.665Y-86.36
X113.665Y-99.06
X113.665Y-101.6
X113.665Y-104.14
X113.665Y-106.68
X113.665Y-110.49
X114.3Y-65.405
X115.57Y-119.38
X116.84Y-65.405
X116.84Y-106.68
X116.84Y-110.49
X117.094Y-114.046
X117.094Y-118.186
X118.11Y-119.38
X119.38Y-65.405
X119.38Y-106.68
X119.38Y-110.49
X120.65Y-119.38
X121.158Y-114.046
X121.158Y-118.186
X121.92Y-65.405
X122.682Y-66.421
X122.682Y-70.485
X122.682Y-74.041
X122.682Y-77.597
X122.682Y-82.55
X123.19Y-119.38
X124.46Y-65.405
X124.46Y-106.68
X124.46Y-110.49
X124.476Y-90.932
X124.492Y-86.36
X125.222Y-114.046
X125.222Y-118.186
X125.73Y-119.38
X127.0Y-65.405
X127.0Y-106.68
X127.0Y-110.49
X127.254Y-66.421
X127.254Y-70.485
X127.254Y-74.041
X127.254Y-77.597
X127.254Y-82.55
X128.27Y-119.38
X129.286Y-114.046
X129.286Y-118.186
X129.54Y-65.405
X129.54Y-106.68
X129.54Y-110.49
X130.81Y-119.38
X131.318Y-66.421
X131.318Y-70.485
X132.08Y-65.405
X133.35Y-114.046
X133.35Y-118.186
X133.35Y-119.38
X134.62Y-65.405
X134.62Y-106.68
X134.62Y-110.49
X135.382Y-66.421
X135.382Y-70.485
X135.89Y-119.38
X137.16Y-65.405
X137.16Y-106.68
X137.16Y-110.49
X137.414Y-114.046
X137.414Y-118.186
X138.43Y-119.38
X139.446Y-66.421
X139.446Y-70.739
X139.7Y-65.405
X139.7Y-106.68
X139.7Y-110.49
X139.827Y-84.582
X139.827Y-88.265
X140.97Y-119.38
X141.478Y-114.046
X141.478Y-118.186
X142.24Y-65.405
X143.51Y-66.421
X143.51Y-70.739
X143.51Y-119.38
X144.78Y-65.405
X144.78Y-106.68
X144.78Y-110.49
X146.05Y-119.38
X147.066Y-84.582
X147.066Y-88.265
X147.066Y-93.345
X147.066Y-97.409
X147.066Y-101.473
X147.066Y-105.537
X147.066Y-109.601
X147.066Y-114.046
X147.066Y-118.186
X147.32Y-65.405
X147.574Y-66.421
X147.574Y-70.739
X148.59Y-119.38
X149.86Y-65.405
X151.13Y-84.582
X151.13Y-88.265
X151.13Y-93.345
X151.13Y-97.409
X151.13Y-101.473
X151.13Y-105.537
X151.13Y-109.601
X151.13Y-114.046
X151.13Y-118.186
X151.13Y-119.38
X152.4Y-65.405
X153.67Y-119.38
X154.94Y-65.405
X156.21Y-119.38
X157.48Y-65.405
X158.75Y-119.38
X160.02Y-65.405
X161.29Y-119.38
X162.56Y-65.405
X163.83Y-119.38
X164.211Y-93.694
X165.1Y-65.405
X166.37Y-119.38
X167.64Y-65.405
X168.91Y-119.38
X170.18Y-65.405
X171.45Y-119.38
X172.72Y-65.405
X173.99Y-119.38
X174.625Y-84.455
X174.625Y-85.725
X175.258Y-78.74
X175.26Y-65.405
X177.8Y-65.405
X177.8Y-68.58
X177.8Y-71.12
X177.8Y-73.66
X177.8Y-76.2
X177.8Y-78.74
X177.8Y-81.28
X177.8Y-83.82
X177.8Y-86.36
X177.8Y-88.9
X177.8Y-91.44
X177.8Y-93.98
X177.8Y-96.52
X177.8Y-101.6
X177.8Y-104.14
X177.8Y-106.68
X177.8Y-109.22
X177.8Y-111.76
X177.8Y-119.38
X180.245Y-88.9
X180.34Y-66.04
X180.34Y-68.58
X180.34Y-71.12
X180.34Y-73.66
X180.34Y-76.2
X180.34Y-78.74
X180.34Y-91.44
X180.34Y-93.98
X180.34Y-96.52
X180.34Y-99.06
X180.34Y-101.6
X180.34Y-104.14
X180.34Y-109.22
X180.34Y-111.76
X180.34Y-114.3
X180.34Y-116.84
X180.34Y-119.38
X180.975Y-85.725
X182.88Y-66.04
X182.88Y-119.38
X185.42Y-66.04
X185.42Y-119.38
X190.5Y-71.12
X190.5Y-73.66
X190.5Y-76.2
X190.5Y-78.74
X190.5Y-81.28
X190.5Y-83.82
X190.5Y-86.36
X190.5Y-88.9
X190.5Y-91.44
X190.5Y-93.98
X190.5Y-96.52
X190.5Y-99.06
X190.5Y-101.6
X190.5Y-104.14
X190.5Y-106.68
X190.5Y-109.22
X190.5Y-111.76
X190.5Y-114.3
T2
X102.8Y-70.0
X102.8Y-115.0
X103.444Y-68.444
X103.444Y-71.556
X103.444Y-113.444
X103.444Y-116.556
X105.0Y-67.8
X105.0Y-72.2
X105.0Y-112.8
X105.0Y-117.2
X106.556Y-68.444
X106.556Y-71.556
X106.556Y-113.444
X106.556Y-116.556
X107.2Y-70.0
X107.2Y-115.0
X183.8Y-70.0
X183.8Y-115.0
X184.444Y-68.444
X184.444Y-71.556
X184.444Y-113.444
X184.444Y-116.556
X186.0Y-67.8
X186.0Y-72.2
X186.0Y-112.8
X186.0Y-117.2
X187.556Y-68.444
X187.556Y-71.556
X187.556Y-113.444
X187.556Y-116.556
X188.2Y-70.0
X188.2Y-115.0
T3
X157.988Y-87.376
X160.528Y-89.916
X163.068Y-87.376
X173.752Y-99.045
X177.752Y-99.045
T4
X168.402Y-88.9
X168.402Y-96.52
X170.942Y-88.9
X170.942Y-96.52
X173.482Y-88.9
X173.482Y-96.52
X176.022Y-88.9
X176.022Y-96.52
T5
X111.506Y-89.227
X111.506Y-95.727
X157.988Y-97.536
X159.903Y-73.47
X160.528Y-97.536
X163.068Y-97.536
X167.503Y-73.47
X185.42Y-76.2
X187.96Y-76.2
X187.96Y-82.63
X187.96Y-85.13
X187.96Y-94.06
X187.96Y-96.56
X187.96Y-105.45
X187.96Y-107.95
T6
X155.448Y-116.586
X157.988Y-116.586
X160.528Y-116.586
X163.068Y-116.586
X165.608Y-116.586
T9
X154.752Y-106.045
X180.752Y-106.045
T10
X105.0Y-70.0
X105.0Y-115.0
X186.0Y-70.0
X186.0Y-115.0
T6
X133.84Y-74.13G85X133.84Y-79.83
G05
X150.64Y-74.13G85X150.64Y-79.83
G05
T7
X111.356Y-68.58G85X111.656Y-68.58
G05
X111.356Y-71.98G85X111.656Y-71.98
G05
X111.356Y-77.5G85X111.656Y-77.5
G05
X111.356Y-80.9G85X111.656Y-80.9
G05
X124.856Y-68.58G85X125.156Y-68.58
G05
X124.856Y-71.98G85X125.156Y-71.98
G05
X124.856Y-77.5G85X125.156Y-77.5
G05
X124.856Y-80.9G85X125.156Y-80.9
G05
X137.99Y-68.58G85X146.49Y-68.58
G05
X142.24Y-82.23G85X142.24Y-90.73
G05
T8
X102.45Y-84.0G85X105.45Y-84.0
G05
X102.45Y-101.0G85X105.45Y-101.0
G05
X111.506Y-107.339G85X111.506Y-110.339
G05
X113.768Y-116.078G85X110.768Y-116.078
G05
X121.666Y-107.339G85X121.666Y-110.339
G05
X123.928Y-116.078G85X120.928Y-116.078
G05
X131.826Y-107.339G85X131.826Y-110.339
G05
X134.088Y-116.078G85X131.088Y-116.078
G05
X141.986Y-107.339G85X141.986Y-110.339
G05
X144.248Y-116.078G85X141.248Y-116.078
G05
X173.822Y-116.205G85X176.822Y-116.205
G05
T0
M30
